<svg id="logo_vector" data-name="logo vector" xmlns="http://www.w3.org/2000/svg" viewBox="0 0 584.91 170"><defs><style>.cls-1,.cls-2{fill:#fff;}.cls-1{isolation:isolate;opacity:0.72;}</style></defs><polygon class="cls-1" points="85.29 170 85.2 170 39.46 124.26 65.57 98.05 137.41 170 85.29 170"/><polygon class="cls-1" points="85.2 78.42 85.2 78.42 39.36 124.16 65.57 150.27 137.41 78.42 85.2 78.42"/><polygon class="cls-1" points="85.2 0.1 85.1 0 0 85 26.21 111.21 137.31 0.1 85.2 0.1"/><path class="cls-2" d="M207.29,37h57.35V48.24H218.93V82.19h41.28V93.27H218.93v43H207.29Z"/><path class="cls-2" d="M276.76,37h11.78v99.2H276.76Z"/><path class="cls-2" d="M308.57,130.94q-6.72-7.48-6.72-20.93V65.55h11.77v42.67q0,10.13,4.58,14.83t12.32,4.71a18.25,18.25,0,0,0,10.59-3.18,21.56,21.56,0,0,0,7.2-8.32,23.67,23.67,0,0,0,2.57-10.81V65.55h11.78v70.66H351.43V126h-.55a23.32,23.32,0,0,1-9.29,8.87,27.17,27.17,0,0,1-13.58,3.6Q315.31,138.42,308.57,130.94Z"/><path class="cls-2" d="M397.19,137a18.15,18.15,0,0,1-6.17-3.8,17.35,17.35,0,0,1-4.15-6.21,23.5,23.5,0,0,1-1.39-8.61V76.22H373.15V65.55h12.33V45.6h11.77V65.55h17.18V76.22H397.25v39.37c0,4,.74,6.89,2.22,8.78q2.63,3.12,7.62,3.12a14.36,14.36,0,0,0,7.76-2.36v11.5a18.71,18.71,0,0,1-4.23,1.39,30.2,30.2,0,0,1-5.47.41A22.16,22.16,0,0,1,397.19,137Z"/><path class="cls-2" d="M445.87,137a18.2,18.2,0,0,1-6.16-3.8,17.38,17.38,0,0,1-4.16-6.21,23.51,23.51,0,0,1-1.38-8.61V76.22H421.84V65.55h12.33V45.6h11.77V65.55h17.18V76.22H445.94v39.37c0,4,.74,6.89,2.21,8.78q2.64,3.12,7.63,3.12a14.31,14.31,0,0,0,7.75-2.36v11.5a18.47,18.47,0,0,1-4.22,1.39,30.32,30.32,0,0,1-5.48.41A22.32,22.32,0,0,1,445.87,137Z"/><path class="cls-2" d="M485.7,133.57a33.71,33.71,0,0,1-12.53-13.37A40.44,40.44,0,0,1,468.66,101a42.24,42.24,0,0,1,4.22-18.84,34.22,34.22,0,0,1,12-13.71,32,32,0,0,1,18-5.12,34,34,0,0,1,18,4.63A30.76,30.76,0,0,1,532.6,80.79a41.33,41.33,0,0,1,4.09,18.71,13.69,13.69,0,0,1-.42,3.6H480.44a27.91,27.91,0,0,0,3.89,13.58,22.47,22.47,0,0,0,8.79,8.31,23.76,23.76,0,0,0,11.15,2.77q13.58,0,20.92-12.74l10,4.85a35.55,35.55,0,0,1-12.4,13.59q-7.83,5-18.91,5A34.56,34.56,0,0,1,485.7,133.57Zm38.51-40.18a23,23,0,0,0-2.5-8.87,19,19,0,0,0-7-7.48,21.91,21.91,0,0,0-12-3.05,19.89,19.89,0,0,0-14.06,5.34,25.64,25.64,0,0,0-7.55,14.06Z"/><path class="cls-2" d="M544.31,65.55h11.23V76.91h.55a19.2,19.2,0,0,1,8-9.7,22.49,22.49,0,0,1,12.47-3.89,20.65,20.65,0,0,1,8.31,1.53V77.46a22.07,22.07,0,0,0-10-2.21,16.47,16.47,0,0,0-9.42,2.91A21.13,21.13,0,0,0,558.65,86a22.7,22.7,0,0,0-2.56,10.63v39.58H544.32V65.55Z"/></svg>