<svg width="1101" height="1100" viewBox="0 0 1101 1100" fill="none" xmlns="http://www.w3.org/2000/svg">
<mask id="mask0_97_158" style="mask-type:alpha" maskUnits="userSpaceOnUse" x="1" y="0" width="1100" height="1100">
<circle cx="551" cy="550" r="550" fill="#027DFD"/>
<circle cx="550.5" cy="550.5" r="520.5" fill="#E7F8FF"/>
</mask>
<g mask="url(#mask0_97_158)">
<circle cx="551" cy="550" r="550" fill="#027DFD"/>
<circle cx="550.5" cy="550.5" r="520.5" fill="#E7F8FF"/>
<rect x="180" y="173" width="586.01" height="1045" rx="63" fill="white" stroke="#0553B1" stroke-width="12"/>
<circle cx="264.474" cy="256.371" r="34.8236" stroke="#0553B1" stroke-width="12"/>
<g filter="url(#filter0_d_97_158)">
<rect x="336" y="319" width="150.741" height="150.741" rx="20" fill="#13C2AD"/>
<rect x="352.634" y="352.267" width="86.2863" height="31.1878" rx="10" fill="#A7FFEB"/>
<rect x="352.634" y="394.89" width="115.395" height="31.1878" rx="10" fill="#A7FFEB"/>
<rect x="609.413" y="319" width="358.66" height="150.741" rx="20" fill="#13C2AD"/>
<rect x="638.522" y="379.297" width="91.4843" height="31.1878" rx="10" fill="#A7FFEB"/>
<rect x="743.521" y="379.297" width="91.4843" height="31.1878" rx="10" fill="#A7FFEB"/>
<rect x="848.52" y="379.297" width="91.4843" height="31.1878" rx="10" fill="#A7FFEB"/>
<path fill-rule="evenodd" clip-rule="evenodd" d="M536.115 433.001C536.115 436.379 540.042 438.236 542.653 436.094L589.511 397.642C591.461 396.042 591.461 393.058 589.511 391.458L542.653 353.006C540.042 350.864 536.115 352.721 536.115 356.098V357.277C536.115 359.486 534.324 361.277 532.115 361.277H509.454C507.245 361.277 505.454 363.068 505.454 365.277V423.823C505.454 426.032 507.245 427.823 509.454 427.823H532.115C534.324 427.823 536.115 429.614 536.115 431.823V433.001Z" fill="#A7FFEB"/>
<rect x="336" y="498.85" width="150.741" height="150.741" rx="20" fill="#13C2AD"/>
<rect x="352.634" y="532.117" width="86.2863" height="31.1878" rx="10" fill="#A7FFEB"/>
<rect x="352.634" y="574.74" width="115.395" height="31.1878" rx="10" fill="#A7FFEB"/>
<rect x="609.413" y="498.85" width="358.66" height="150.741" rx="20" fill="#13C2AD"/>
<rect x="638.522" y="559.146" width="91.4843" height="31.1878" rx="10" fill="#A7FFEB"/>
<rect x="743.521" y="559.146" width="91.4843" height="31.1878" rx="10" fill="#A7FFEB"/>
<rect x="848.52" y="559.146" width="91.4843" height="31.1878" rx="10" fill="#A7FFEB"/>
<path fill-rule="evenodd" clip-rule="evenodd" d="M536.115 612.851C536.115 616.229 540.042 618.086 542.653 615.944L589.511 577.492C591.461 575.892 591.461 572.908 589.511 571.308L542.653 532.856C540.042 530.714 536.115 532.571 536.115 535.948V537.127C536.115 539.336 534.324 541.127 532.115 541.127H509.454C507.245 541.127 505.454 542.918 505.454 545.127V603.673C505.454 605.882 507.245 607.673 509.454 607.673H532.115C534.324 607.673 536.115 609.464 536.115 611.673V612.851Z" fill="#A7FFEB"/>
<rect x="336" y="678.7" width="150.741" height="150.741" rx="20" fill="#13C2AD"/>
<rect x="352.634" y="711.967" width="86.2863" height="31.1878" rx="10" fill="#A7FFEB"/>
<rect x="352.634" y="754.59" width="115.395" height="31.1878" rx="10" fill="#A7FFEB"/>
<rect x="609.413" y="678.7" width="358.66" height="150.741" rx="20" fill="#13C2AD"/>
<rect x="638.522" y="738.996" width="91.4843" height="31.1878" rx="10" fill="#A7FFEB"/>
<rect x="743.521" y="738.996" width="91.4843" height="31.1878" rx="10" fill="#A7FFEB"/>
<rect x="848.52" y="738.996" width="91.4843" height="31.1878" rx="10" fill="#A7FFEB"/>
<path fill-rule="evenodd" clip-rule="evenodd" d="M536.115 792.701C536.115 796.078 540.042 797.936 542.653 795.793L589.511 757.342C591.461 755.741 591.461 752.758 589.511 751.157L542.653 712.706C540.042 710.563 536.115 712.421 536.115 715.798V716.977C536.115 719.186 534.324 720.977 532.115 720.977H509.454C507.245 720.977 505.454 722.768 505.454 724.977V783.522C505.454 785.732 507.245 787.522 509.454 787.522H532.115C534.324 787.522 536.115 789.313 536.115 791.522V792.701Z" fill="#A7FFEB"/>
</g>
</g>
<mask id="path-31-inside-1_97_158" fill="white">
<path fill-rule="evenodd" clip-rule="evenodd" d="M550 1100C853.757 1100 1100 853.757 1100 550C1100 246.243 853.757 0 550 0C246.243 0 0 246.243 0 550C0 853.757 246.243 1100 550 1100ZM549.5 1071C836.964 1071 1070 837.964 1070 550.5C1070 263.036 836.964 30 549.5 30C262.036 30 29 263.036 29 550.5C29 837.964 262.036 1071 549.5 1071Z"/>
</mask>
<path fill-rule="evenodd" clip-rule="evenodd" d="M550 1100C853.757 1100 1100 853.757 1100 550C1100 246.243 853.757 0 550 0C246.243 0 0 246.243 0 550C0 853.757 246.243 1100 550 1100ZM549.5 1071C836.964 1071 1070 837.964 1070 550.5C1070 263.036 836.964 30 549.5 30C262.036 30 29 263.036 29 550.5C29 837.964 262.036 1071 549.5 1071Z" fill="#027DFD"/>
<path d="M1092 550C1092 849.338 849.338 1092 550 1092V1108C858.175 1108 1108 858.175 1108 550H1092ZM550 8C849.338 8 1092 250.662 1092 550H1108C1108 241.825 858.175 -8 550 -8V8ZM8 550C8 250.662 250.662 8 550 8V-8C241.825 -8 -8 241.825 -8 550H8ZM550 1092C250.662 1092 8 849.338 8 550H-8C-8 858.175 241.825 1108 550 1108V1092ZM1062 550.5C1062 833.546 832.546 1063 549.5 1063V1079C841.383 1079 1078 842.383 1078 550.5H1062ZM549.5 38C832.546 38 1062 267.454 1062 550.5H1078C1078 258.618 841.383 22 549.5 22V38ZM37 550.5C37 267.454 266.454 38 549.5 38V22C257.618 22 21 258.618 21 550.5H37ZM549.5 1063C266.454 1063 37 833.546 37 550.5H21C21 842.383 257.618 1079 549.5 1079V1063Z" fill="#027DFD" mask="url(#path-31-inside-1_97_158)"/>
<defs>
<filter id="filter0_d_97_158" x="332" y="319" width="640.073" height="518.441" filterUnits="userSpaceOnUse" color-interpolation-filters="sRGB">
<feFlood flood-opacity="0" result="BackgroundImageFix"/>
<feColorMatrix in="SourceAlpha" type="matrix" values="0 0 0 0 0 0 0 0 0 0 0 0 0 0 0 0 0 0 127 0" result="hardAlpha"/>
<feOffset dy="4"/>
<feGaussianBlur stdDeviation="2"/>
<feComposite in2="hardAlpha" operator="out"/>
<feColorMatrix type="matrix" values="0 0 0 0 0 0 0 0 0 0 0 0 0 0 0 0 0 0 0.25 0"/>
<feBlend mode="normal" in2="BackgroundImageFix" result="effect1_dropShadow_97_158"/>
<feBlend mode="normal" in="SourceGraphic" in2="effect1_dropShadow_97_158" result="shape"/>
</filter>
</defs>
</svg>
