<svg width="12" height="15" viewBox="0 0 12 15" fill="none" xmlns="http://www.w3.org/2000/svg">
<path d="M1.33333 14.1663C0.966667 14.1663 0.652778 14.0358 0.391667 13.7747C0.130556 13.5136 0 13.1997 0 12.833V3.49967C0 3.13301 0.130556 2.81912 0.391667 2.55801C0.652778 2.2969 0.966667 2.16634 1.33333 2.16634H2V0.833008H3.33333V2.16634H8.66667V0.833008H10V2.16634H10.6667C11.0333 2.16634 11.3472 2.2969 11.6083 2.55801C11.8694 2.81912 12 3.13301 12 3.49967V12.833C12 13.1997 11.8694 13.5136 11.6083 13.7747C11.3472 14.0358 11.0333 14.1663 10.6667 14.1663H1.33333ZM1.33333 12.833H10.6667V6.16634H1.33333V12.833ZM1.33333 4.83301H10.6667V3.49967H1.33333V4.83301ZM6 8.83301C5.81111 8.83301 5.65278 8.76912 5.525 8.64134C5.39722 8.51356 5.33333 8.35523 5.33333 8.16634C5.33333 7.97745 5.39722 7.81912 5.525 7.69134C5.65278 7.56356 5.81111 7.49967 6 7.49967C6.18889 7.49967 6.34722 7.56356 6.475 7.69134C6.60278 7.81912 6.66667 7.97745 6.66667 8.16634C6.66667 8.35523 6.60278 8.51356 6.475 8.64134C6.34722 8.76912 6.18889 8.83301 6 8.83301ZM3.33333 8.83301C3.14444 8.83301 2.98611 8.76912 2.85833 8.64134C2.73056 8.51356 2.66667 8.35523 2.66667 8.16634C2.66667 7.97745 2.73056 7.81912 2.85833 7.69134C2.98611 7.56356 3.14444 7.49967 3.33333 7.49967C3.52222 7.49967 3.68056 7.56356 3.80833 7.69134C3.93611 7.81912 4 7.97745 4 8.16634C4 8.35523 3.93611 8.51356 3.80833 8.64134C3.68056 8.76912 3.52222 8.83301 3.33333 8.83301ZM8.66667 8.83301C8.47778 8.83301 8.31944 8.76912 8.19167 8.64134C8.06389 8.51356 8 8.35523 8 8.16634C8 7.97745 8.06389 7.81912 8.19167 7.69134C8.31944 7.56356 8.47778 7.49967 8.66667 7.49967C8.85556 7.49967 9.01389 7.56356 9.14167 7.69134C9.26945 7.81912 9.33333 7.97745 9.33333 8.16634C9.33333 8.35523 9.26945 8.51356 9.14167 8.64134C9.01389 8.76912 8.85556 8.83301 8.66667 8.83301ZM6 11.4997C5.81111 11.4997 5.65278 11.4358 5.525 11.308C5.39722 11.1802 5.33333 11.0219 5.33333 10.833C5.33333 10.6441 5.39722 10.4858 5.525 10.358C5.65278 10.2302 5.81111 10.1663 6 10.1663C6.18889 10.1663 6.34722 10.2302 6.475 10.358C6.60278 10.4858 6.66667 10.6441 6.66667 10.833C6.66667 11.0219 6.60278 11.1802 6.475 11.308C6.34722 11.4358 6.18889 11.4997 6 11.4997ZM3.33333 11.4997C3.14444 11.4997 2.98611 11.4358 2.85833 11.308C2.73056 11.1802 2.66667 11.0219 2.66667 10.833C2.66667 10.6441 2.73056 10.4858 2.85833 10.358C2.98611 10.2302 3.14444 10.1663 3.33333 10.1663C3.52222 10.1663 3.68056 10.2302 3.80833 10.358C3.93611 10.4858 4 10.6441 4 10.833C4 11.0219 3.93611 11.1802 3.80833 11.308C3.68056 11.4358 3.52222 11.4997 3.33333 11.4997ZM8.66667 11.4997C8.47778 11.4997 8.31944 11.4358 8.19167 11.308C8.06389 11.1802 8 11.0219 8 10.833C8 10.6441 8.06389 10.4858 8.19167 10.358C8.31944 10.2302 8.47778 10.1663 8.66667 10.1663C8.85556 10.1663 9.01389 10.2302 9.14167 10.358C9.26945 10.4858 9.33333 10.6441 9.33333 10.833C9.33333 11.0219 9.26945 11.1802 9.14167 11.308C9.01389 11.4358 8.85556 11.4997 8.66667 11.4997Z" fill="#4A4A4A"/>
</svg>
