<svg width="12" height="15" viewBox="0 0 12 15" fill="none" xmlns="http://www.w3.org/2000/svg">
<path d="M6.00008 7.49967C6.36675 7.49967 6.68064 7.36912 6.94175 7.10801C7.20286 6.8469 7.33342 6.53301 7.33342 6.16634C7.33342 5.79967 7.20286 5.48579 6.94175 5.22467C6.68064 4.96356 6.36675 4.83301 6.00008 4.83301C5.63341 4.83301 5.31953 4.96356 5.05841 5.22467C4.7973 5.48579 4.66675 5.79967 4.66675 6.16634C4.66675 6.53301 4.7973 6.8469 5.05841 7.10801C5.31953 7.36912 5.63341 7.49967 6.00008 7.49967ZM6.00008 12.3997C7.35564 11.1552 8.36119 10.0247 9.01675 9.00801C9.6723 7.99134 10.0001 7.08856 10.0001 6.29967C10.0001 5.08856 9.61397 4.0969 8.84175 3.32467C8.06953 2.55245 7.1223 2.16634 6.00008 2.16634C4.87786 2.16634 3.93064 2.55245 3.15841 3.32467C2.38619 4.0969 2.00008 5.08856 2.00008 6.29967C2.00008 7.08856 2.32786 7.99134 2.98341 9.00801C3.63897 10.0247 4.64453 11.1552 6.00008 12.3997ZM6.00008 14.1663C4.21119 12.6441 2.87508 11.2302 1.99175 9.92467C1.10841 8.61912 0.666748 7.41079 0.666748 6.29967C0.666748 4.63301 1.20286 3.30523 2.27508 2.31634C3.3473 1.32745 4.58897 0.833008 6.00008 0.833008C7.41119 0.833008 8.65286 1.32745 9.72508 2.31634C10.7973 3.30523 11.3334 4.63301 11.3334 6.29967C11.3334 7.41079 10.8917 8.61912 10.0084 9.92467C9.12508 11.2302 7.78897 12.6441 6.00008 14.1663Z" fill="#4A4A4A"/>
</svg>
