<svg width="430" height="430" viewBox="0 0 430 430" fill="none" xmlns="http://www.w3.org/2000/svg">
<mask id="mask0" style="mask-type:alpha" maskUnits="userSpaceOnUse" x="0" y="0" width="430" height="430">
<path d="M0 0H430V390C430 412.091 412.091 430 390 430H40C17.9086 430 0 412.091 0 390V0Z" fill="url(#paint0_linear)"/>
</mask>
<g mask="url(#mask0)">
<path d="M130.722 470.036L31.3265 370.641C19.5519 358.522 12.2119 341.472 12.2119 324.766C12.2119 317.043 16.5701 304.963 19.8578 298.005L111.608 106.859L130.722 470.036Z" fill="#01579B"/>
<path d="M470.962 125.968L371.566 26.5726C362.888 17.8563 344.806 7.45801 329.514 7.45801C316.363 7.45801 303.48 10.0958 295.108 15.1038L111.608 106.854L470.962 125.968Z" fill="#40C4FF"/>
<path d="M249.233 588.545H490.077V485.326L310.4 427.982L146.015 485.326L249.233 588.545Z" fill="#40C4FF"/>
<path d="M111.608 416.516C111.608 447.175 115.469 454.707 130.723 470.036L146.014 485.328H490.077L321.868 294.182L111.608 106.859V416.516Z" fill="#29B6F6"/>
<path d="M417.441 106.859H111.608L490.077 485.328H593.295V248.307L470.962 125.974C453.797 108.733 438.506 106.859 417.441 106.859Z" fill="#01579B"/>
<path opacity="0.2" d="M134.545 473.859C119.254 458.491 115.431 443.391 115.431 416.516V110.682L111.608 106.859V416.516C111.608 443.391 111.608 450.845 134.545 473.859L146.014 485.328L134.545 473.859Z" fill="white"/>
<path opacity="0.2" d="M470.962 125.974C452 107.012 436.479 106.859 413.618 106.859H111.608L115.431 110.682H413.618C425.049 110.682 453.835 108.771 470.962 125.974Z" fill="white"/>
<path opacity="0.2" d="M589.472 244.479L470.962 125.968L371.566 26.5726C362.888 17.8563 344.806 7.45801 329.514 7.45801C316.363 7.45801 303.48 10.0958 295.108 15.1038L111.608 106.854L19.8578 298C16.5701 304.957 12.2119 317.038 12.2119 324.76C12.2119 341.466 19.5519 358.516 31.3265 370.635L122.924 461.582C125.103 464.258 127.702 467.011 130.722 470.031L134.545 473.854L146.014 485.323L245.41 584.718L249.233 588.541H486.254H490.076V485.323H593.295V485.055V248.302L589.472 244.479Z" fill="url(#paint1_radial)"/>
</g>
<defs>
<linearGradient id="paint0_linear" x1="564.295" y1="-308.764" x2="-108.263" y2="-243.257" gradientUnits="userSpaceOnUse">
<stop stop-color="#B8FDE8"/>
<stop offset="0.458657" stop-color="#B8EAFE"/>
<stop offset="1" stop-color="#97BDF4"/>
</linearGradient>
<radialGradient id="paint1_radial" cx="0" cy="0" r="1" gradientUnits="userSpaceOnUse" gradientTransform="translate(302.754 298) scale(290.542)">
<stop stop-color="white" stop-opacity="0.1"/>
<stop offset="1" stop-color="white" stop-opacity="0"/>
</radialGradient>
</defs>
</svg>
