<svg width="635" height="470" viewBox="0 -493 2061 1525" fill="none" xmlns="http://www.w3.org/2000/svg">
<path fill-rule="evenodd" clip-rule="evenodd" d="M2035.27 537.6C2051.23 537.6 2060.8 527.1 2060.8 512.4C2060.8 498.75 2050.16 487.2 2035.27 487.2C2019.31 487.2 2009.73 497.7 2009.73 512.4C2009.73 527.1 2020.37 537.6 2035.27 537.6ZM2035.27 532.35C2023.56 532.35 2016.12 523.95 2016.12 512.4C2016.12 500.85 2023.56 492.45 2035.27 492.45C2046.97 492.45 2054.42 500.85 2054.42 512.4C2054.42 523.95 2046.97 532.35 2035.27 532.35ZM2044.84 508.2C2044.84 511.35 2042.71 514.5 2040.59 515.55L2045.91 526.05H2039.52L2035.27 516.6H2032.07V526.05H2025.69V499.8H2035.27C2041.65 499.8 2044.84 502.95 2044.84 508.2ZM2035.27 512.4H2032.07V505.05H2035.27C2038.46 505.05 2039.52 506.625 2039.52 508.725C2039.52 510.825 2037.39 512.4 2035.27 512.4Z" fill="#00A2C7"/>
<path d="M1134.93 9.15114L845.51 9.15114C840.342 9.15114 835.174 13.2316 835.174 19.3523L835.174 520.228C835.174 523.289 836.207 525.329 838.275 527.369C840.342 529.409 842.409 530.429 845.51 530.429H925.1C930.268 530.429 935.436 526.349 935.436 520.228L935.436 318.246H1113.22C1116.32 318.246 1118.39 317.226 1120.46 315.185C1122.52 313.145 1123.56 311.105 1123.56 308.045V234.596C1123.56 229.496 1119.42 224.395 1113.22 224.395L935.436 224.395V103.002L1134.93 103.002C1138.03 103.002 1140.1 101.982 1142.16 99.9413C1144.23 97.9011 1145.26 95.8608 1145.26 92.8005V19.3523C1145.26 14.2517 1141.13 9.15114 1134.93 9.15114Z" fill="#00A2C7"/>
<path fill-rule="evenodd" clip-rule="evenodd" d="M402.083 344.798C402.083 237.686 489.942 150.977 598.473 150.977C707.004 150.977 794.863 237.686 794.863 344.798C794.863 451.91 707.004 538.62 598.473 538.62C489.942 538.62 402.083 451.91 402.083 344.798ZM598.476 442.729C651.192 442.729 693.57 398.865 693.57 344.799C693.57 290.733 651.192 246.868 598.476 246.868C545.761 246.868 503.382 290.733 503.382 344.799C503.382 398.865 545.761 442.729 598.476 442.729Z" fill="#00A2C7"/>
<path d="M1288.65 158.118C1286.59 156.077 1284.52 155.057 1281.42 155.057H1201.83C1196.66 155.057 1191.49 159.138 1191.49 165.258V520.258C1191.49 523.319 1192.53 525.359 1194.59 527.399C1196.66 529.439 1198.73 530.459 1201.83 530.459H1281.42C1286.59 530.459 1291.75 526.379 1291.75 520.258V165.258C1291.75 162.198 1290.72 160.158 1288.65 158.118Z" fill="#00A2C7"/>
<path d="M1243.17 109.152C1273.15 109.152 1297.96 84.6695 1297.96 55.0862C1297.96 25.5029 1273.15 1.02013 1243.17 1.02013C1213.2 1.02013 1188.39 25.5029 1188.39 55.0862C1188.39 85.6896 1213.2 109.152 1243.17 109.152Z" fill="#00A2C7"/>
<path d="M213.962 225.445C135.406 192.802 110.599 178.52 110.599 147.917C110.599 110.172 147.809 95.8908 181.919 95.8908C218.096 95.8908 257.374 115.273 257.374 168.319C257.374 172.399 260.475 175.46 264.61 175.46L351.435 175.46C355.569 175.46 358.67 172.399 358.67 168.319C358.67 69.3678 286.316 1.02013 182.953 1.02013C78.556 1.02013 11.3699 58.1465 11.3699 146.896C11.3699 252.988 90.9595 283.592 168.482 312.155L172.616 314.195C242.903 340.718 269.778 353.98 269.778 388.664C269.778 435.589 221.197 442.73 192.255 442.73C139.54 442.73 101.296 406.006 101.296 356.02V350.919C101.296 346.839 98.195 343.779 94.0604 343.779H7.23542C3.10089 343.779 1.03363 346.839 0 349.899L0 350.919C0 351.939 0 353.98 0 355C0 462.112 78.556 536.58 191.222 536.58C296.652 536.58 367.973 476.393 367.973 387.643C369.006 302.974 323.527 270.33 213.962 225.445Z" fill="#00A2C7"/>
<path fill-rule="evenodd" clip-rule="evenodd" d="M2010.94 84C2010.94 130.392 1972.83 168 1925.83 168C1878.82 168 1840.71 130.392 1840.71 84C1840.71 37.6081 1878.82 0 1925.83 0C1972.83 0 2010.94 37.6081 2010.94 84ZM1989.66 84C1989.66 118.794 1961.08 147 1925.83 147C1890.57 147 1861.99 118.794 1861.99 84C1861.99 49.2061 1890.57 21 1925.83 21C1961.08 21 1989.66 49.2061 1989.66 84ZM2010.94 268.8C2010.94 315.192 1972.83 352.8 1925.83 352.8C1878.82 352.8 1840.71 315.192 1840.71 268.8C1840.71 222.408 1878.82 184.8 1925.83 184.8C1972.83 184.8 2010.94 222.408 2010.94 268.8ZM1636.44 453.6C1636.44 499.992 1598.33 537.6 1551.33 537.6C1504.32 537.6 1466.21 499.992 1466.21 453.6C1466.21 407.208 1504.32 369.6 1551.33 369.6C1598.33 369.6 1636.44 407.208 1636.44 453.6ZM1615.16 453.6C1615.16 488.394 1586.58 516.6 1551.33 516.6C1516.07 516.6 1487.49 488.394 1487.49 453.6C1487.49 418.806 1516.07 390.6 1551.33 390.6C1586.58 390.6 1615.16 418.806 1615.16 453.6ZM1823.69 453.6C1823.69 499.992 1785.58 537.6 1738.58 537.6C1691.57 537.6 1653.46 499.992 1653.46 453.6C1653.46 407.208 1691.57 369.6 1738.58 369.6C1785.58 369.6 1823.69 407.208 1823.69 453.6ZM2010.94 453.6C2010.94 499.992 1972.83 537.6 1925.83 537.6C1878.82 537.6 1840.71 499.992 1840.71 453.6C1840.71 407.208 1878.82 369.6 1925.83 369.6C1972.83 369.6 2010.94 407.208 2010.94 453.6ZM1823.69 268.8C1823.69 315.192 1785.58 352.8 1738.58 352.8C1691.57 352.8 1653.46 315.192 1653.46 268.8C1653.46 222.408 1691.57 184.8 1738.58 184.8C1785.58 184.8 1823.69 222.408 1823.69 268.8ZM1802.41 268.8C1802.41 303.594 1773.83 331.8 1738.58 331.8C1703.32 331.8 1674.74 303.594 1674.74 268.8C1674.74 234.006 1703.32 205.8 1738.58 205.8C1773.83 205.8 1802.41 234.006 1802.41 268.8ZM1636.44 268.8C1636.44 315.192 1598.33 352.8 1551.33 352.8C1504.32 352.8 1466.21 315.192 1466.21 268.8C1466.21 222.408 1504.32 184.8 1551.33 184.8C1598.33 184.8 1636.44 222.408 1636.44 268.8ZM1823.69 84C1823.69 130.392 1785.58 168 1738.58 168C1691.57 168 1653.46 130.392 1653.46 84C1653.46 37.6081 1691.57 0 1738.58 0C1785.58 0 1823.69 37.6081 1823.69 84ZM1551.33 168C1598.33 168 1636.44 130.392 1636.44 84C1636.44 37.6081 1598.33 0 1551.33 0C1504.32 0 1466.21 37.6081 1466.21 84C1466.21 130.392 1504.32 168 1551.33 168Z" fill="#00A2C7"/>
</svg>
