<svg xmlns="http://www.w3.org/2000/svg" xml:space="preserve" width="48" height="48" viewBox="0 0 47.998463 47.998464">
  <path d="M36.916996 25.298993c-.02037-3.743989 1.673063-6.569826 5.100796-8.65095-1.9179-2.744225-4.815147-4.254059-8.640742-4.549905-3.621562-.285645-7.57978 2.111729-9.028404 2.111729-1.530239 0-5.039585-2.009712-7.794012-2.009712-5.692486.09181-11.7420264 4.539704-11.7420264 13.588512 0 2.672812.4896762 5.437445 1.4690288 8.283683 1.3058028 3.743989 6.0189356 12.925414 10.9360996 12.772389 2.5708-.06121 4.386681-1.82608 7.732803-1.82608 3.244103 0 4.927368 1.82608 7.794008 1.82608 4.957977-.0714 9.222237-8.416308 10.466831-12.170493-6.651432-3.131888-6.294382-9.181424-6.294382-9.375253zM31.142903 8.5479857c2.785034-3.3053138 2.529992-6.3147814 2.448376-7.396149-2.458582.1428218-5.30482 1.6730608-6.926874 3.5603541-1.785279 2.0199134-2.836041 4.5193013-2.611606 7.3349392 2.662612.204031 5.090588-1.162981 7.090104-3.4991443z" style="fill:#0468d7;fill-opacity:1;stroke-width:.102016"/>
</svg>
