<?xml version="1.0" encoding="utf-8"?>
<!-- Generator: Adobe Illustrator 22.0.1, SVG Export Plug-In . SVG Version: 6.00 Build 0)  -->
<svg version="1.1" id="content" xmlns="http://www.w3.org/2000/svg" xmlns:xlink="http://www.w3.org/1999/xlink" x="0px" y="0px"
	 width="407px" height="739.32px" viewBox="0 0 407 739.32" enable-background="new 0 0 407 739.32" xml:space="preserve">
<g>
	<g enable-background="new    ">
		<path fill="#FFFFFF" d="M35.92,642.75h52.6v10.3h-41.9v31.1h37.8v10.2h-37.8v39.4h-10.7V642.75z"/>
		<path fill="#FFFFFF" d="M101.22,642.75h10.8v90.9h-10.8V642.75z"/>
		<path fill="#FFFFFF" d="M133.62,728.85c-4.1-4.6-6.2-11-6.2-19.2v-40.8h10.8v39.1c0,6.2,1.4,10.7,4.2,13.6
			c2.8,2.9,6.6,4.3,11.3,4.3c3.6,0,6.9-1,9.7-2.9s5-4.5,6.6-7.6s2.3-6.4,2.3-9.9v-36.6h10.8v64.8h-10.3v-9.4h-0.5
			c-1.8,3.2-4.6,5.9-8.5,8.1c-3.9,2.2-8,3.3-12.4,3.3C143.72,735.65,137.72,733.45,133.62,728.85z"/>
		<path fill="#FFFFFF" d="M217.42,734.45c-2.2-0.9-4.1-2-5.7-3.5c-1.7-1.6-3-3.5-3.8-5.7s-1.3-4.8-1.3-7.9v-38.7h-11.3v-9.8h11.3
			v-18.3h10.8v18.3h15.7v9.8h-15.7v36.1c0,3.6,0.7,6.3,2,8c1.6,1.9,3.9,2.9,7,2.9c2.5,0,4.8-0.7,7.1-2.2v10.5
			c-1.3,0.6-2.6,1-3.9,1.3c-1.3,0.3-3,0.4-5,0.4C222.12,735.65,219.72,735.25,217.42,734.45z"/>
		<path fill="#FFFFFF" d="M263.32,734.45c-2.2-0.9-4.1-2-5.7-3.5c-1.7-1.6-3-3.5-3.8-5.7s-1.3-4.8-1.3-7.9v-38.7h-11.3v-9.8h11.3
			v-18.3h10.8v18.3h15.7v9.8h-15.7v36.1c0,3.6,0.7,6.3,2,8c1.6,1.9,3.9,2.9,7,2.9c2.5,0,4.8-0.7,7.1-2.2v10.5
			c-1.3,0.6-2.6,1-3.9,1.3c-1.3,0.3-3,0.4-5,0.4C268.02,735.65,265.52,735.25,263.32,734.45z"/>
		<path fill="#FFFFFF" d="M301.62,731.25c-4.9-3-8.7-7-11.5-12.3c-2.8-5.2-4.1-11.1-4.1-17.6c0-6.3,1.3-12,3.9-17.3
			c2.6-5.2,6.2-9.4,11-12.6c4.7-3.1,10.2-4.7,16.5-4.7s11.9,1.4,16.5,4.3c4.7,2.8,8.2,6.8,10.7,11.7c2.5,5,3.7,10.7,3.7,17.1
			c0,1.3-0.1,2.4-0.4,3.3h-51.2c0.3,4.9,1.4,9.1,3.6,12.4c2.1,3.4,4.8,5.9,8.1,7.6c3.3,1.7,6.7,2.5,10.2,2.5
			c8.3,0,14.7-3.9,19.2-11.7l9.1,4.4c-2.8,5.2-6.6,9.4-11.4,12.4c-4.8,3-10.6,4.6-17.3,4.6
			C312.02,735.65,306.52,734.25,301.62,731.25z M336.92,694.45c-0.2-2.7-0.9-5.4-2.3-8.1c-1.4-2.7-3.5-5-6.4-6.9s-6.6-2.8-11-2.8
			c-5.1,0-9.4,1.6-12.9,4.9c-3.5,3.3-5.8,7.6-6.9,12.9L336.92,694.45L336.92,694.45z"/>
		<path fill="#FFFFFF" d="M360.92,668.85h10.3v10.4h0.5c1.3-3.6,3.7-6.5,7.4-8.9c3.6-2.4,7.4-3.6,11.4-3.6c3,0,5.5,0.5,7.6,1.4v11.6
			c-2.7-1.4-5.8-2-9.1-2c-3.1,0-6,0.9-8.6,2.7s-4.7,4.2-6.3,7.2s-2.3,6.3-2.3,9.7v36.3h-10.8v-64.8H360.92z"/>
	</g>
	<g>
		<g>
			<g>
				<defs>
					<path id="SVGID_1_" d="M404.98,233.93L270.67,368.25l134.31,134.34l0,0h-153.5l-57.57-57.57l0,0l-76.77-76.77l134.34-134.31
						H404.98L404.98,233.93L404.98,233.93z M251.48,3.66L2.02,253.13l76.77,76.77L404.98,3.66H251.48z"/>
				</defs>
				<clipPath id="SVGID_2_">
					<use xlink:href="#SVGID_1_"  overflow="visible"/>
				</clipPath>
				<g clip-path="url(#SVGID_2_)">
					<g>
						<polygon fill="#39CEFD" points="404.98,233.93 404.98,233.93 404.98,233.93 251.48,233.93 117.17,368.28 193.9,445.01 						
							"/>
					</g>
				</g>
			</g>
			<g>
				<defs>
					<path id="SVGID_3_" d="M404.98,233.93L270.67,368.25l134.31,134.34l0,0h-153.5l-57.57-57.57l0,0l-76.77-76.77l134.34-134.31
						H404.98L404.98,233.93L404.98,233.93z M251.48,3.66L2.02,253.13l76.77,76.77L404.98,3.66H251.48z"/>
				</defs>
				<clipPath id="SVGID_4_">
					<use xlink:href="#SVGID_3_"  overflow="visible"/>
				</clipPath>
				<polygon clip-path="url(#SVGID_4_)" fill="#39CEFD" points="78.78,329.89 2.02,253.13 251.48,3.66 404.98,3.66 				"/>
			</g>
			<g>
				<defs>
					<path id="SVGID_5_" d="M404.98,233.93L270.67,368.25l134.31,134.34l0,0h-153.5l-57.57-57.57l0,0l-76.77-76.77l134.34-134.31
						H404.98L404.98,233.93L404.98,233.93z M251.48,3.66L2.02,253.13l76.77,76.77L404.98,3.66H251.48z"/>
				</defs>
				<clipPath id="SVGID_6_">
					<use xlink:href="#SVGID_5_"  overflow="visible"/>
				</clipPath>
				<polygon clip-path="url(#SVGID_6_)" fill="#03569B" points="193.9,445.01 251.48,502.59 404.98,502.59 404.98,502.59 
					270.67,368.28 				"/>
			</g>
			<g>
				<defs>
					<path id="SVGID_7_" d="M404.98,233.93L270.67,368.25l134.31,134.34l0,0h-153.5l-57.57-57.57l0,0l-76.77-76.77l134.34-134.31
						H404.98L404.98,233.93L404.98,233.93z M251.48,3.66L2.02,253.13l76.77,76.77L404.98,3.66H251.48z"/>
				</defs>
				<clipPath id="SVGID_8_">
					<use xlink:href="#SVGID_7_"  overflow="visible"/>
				</clipPath>
				
					<linearGradient id="SVGID_9_" gradientUnits="userSpaceOnUse" x1="7711.1265" y1="-3084.606" x2="7939.8066" y2="-2855.9255" gradientTransform="matrix(0.25 0 0 -0.25 -1711.4872 -311.3079)">
					<stop  offset="0" style="stop-color:#1A237E;stop-opacity:0.4"/>
					<stop  offset="1" style="stop-color:#1A237E;stop-opacity:0"/>
				</linearGradient>
				<polygon clip-path="url(#SVGID_8_)" fill="url(#SVGID_9_)" points="193.9,445.01 307.75,405.61 270.67,368.28 				"/>
			</g>
			<g>
				<defs>
					<path id="SVGID_10_" d="M404.98,233.93L270.67,368.25l134.31,134.34l0,0h-153.5l-57.57-57.57l0,0l-76.77-76.77l134.34-134.31
						H404.98L404.98,233.93L404.98,233.93z M251.48,3.66L2.02,253.13l76.77,76.77L404.98,3.66H251.48z"/>
				</defs>
				<clipPath id="SVGID_11_">
					<use xlink:href="#SVGID_10_"  overflow="visible"/>
				</clipPath>
				<g clip-path="url(#SVGID_11_)">
					
						<rect x="139.64" y="313.99" transform="matrix(0.7071 -0.7071 0.7071 0.7071 -203.6034 244.9743)" fill="#16B9FD" width="108.54" height="108.54"/>
				</g>
			</g>
		</g>
		
			<radialGradient id="SVGID_12_" cx="6899.374" cy="-1395.9579" r="2441.6196" gradientTransform="matrix(0.25 0 0 -0.25 -1711.4872 -311.3079)" gradientUnits="userSpaceOnUse">
			<stop  offset="0" style="stop-color:#FFFFFF;stop-opacity:0.1"/>
			<stop  offset="1" style="stop-color:#FFFFFF;stop-opacity:0"/>
		</radialGradient>
		<path fill="url(#SVGID_12_)" d="M404.98,233.93L270.67,368.25l134.31,134.34l0,0h-153.5l-57.57-57.57l0,0l-76.77-76.77
			l134.34-134.31H404.98L404.98,233.93L404.98,233.93z M251.48,3.66L2.02,253.13l76.77,76.77L404.98,3.66H251.48z"/>
	</g>
</g>
</svg>
