<svg xmlns="http://www.w3.org/2000/svg" xml:space="preserve" width="2in" height="2.2in" viewBox="0 0 191.99386 211.19325">
  <path d="M149.03327 111.47397c-.0857-15.734595 7.03127-27.610565 21.43678-36.356775-8.06023-11.532972-20.23631-17.878252-36.31389-19.121587-15.22011-1.20046-31.85504 8.874823-37.943081 8.874823-6.431036 0-21.179533-8.446084-32.755385-8.446084-23.923438.385857-49.347445 19.078718-49.347445 57.107553 0 11.23286 2.05793 22.85159 6.173792 34.81331 5.487809 15.73459 25.295386 54.32077 45.960431 53.67767 10.804132-.25723 18.435619-7.67436 32.498143-7.67436 13.633785 0 20.707925 7.67436 32.755385 7.67436 20.83654-.30011 38.75768-35.37067 43.98825-51.14813-27.95355-13.16217-26.45298-38.58618-26.45298-39.40078zm-24.26641-70.398354c11.70447-13.891028 10.63264-26.538721 10.28964-31.0833123-10.33251.6002263-22.29423 7.0312623-29.11113 14.9628673-7.502874 8.488957-11.918844 18.992971-10.975626 30.826068 11.189986.85747 21.393896-4.887584 29.797116-14.705623Z" style="fill:#0468d7;fill-opacity:1;stroke-width:.428736"/>
</svg>
