<?xml version="1.0" encoding="UTF-8"?><svg width="124" height="48" xmlns="http://www.w3.org/2000/svg"><g fill="#6E7274" fill-rule="evenodd"><path d="M18.5 42.3599c-4.770484 0-9.255476-1.857844-12.62884-5.23106C2.497944 33.755328.6401 29.270484.6401 24.5c0-4.770484 1.857844-9.255476 5.23106-12.62884C9.244524 8.497796 13.729516 6.6401 18.5 6.6401c4.770484 0 9.255476 1.857696 12.628692 5.23106C34.502056 15.244524 36.3599 19.729516 36.3599 24.5c0 9.84792-8.01198 17.8599-17.8599 17.8599m13.081424-30.941324C28.087144 7.924296 23.441424 6 18.5 6 8.298952 6 0 14.298952 0 24.5c0 4.941424 1.924296 9.587144 5.418576 13.081424C8.912856 41.075556 13.558576 43 18.5 43s9.587144-1.924444 13.081424-5.418576C35.075556 34.087144 37 29.441424 37 24.5s-1.924444-9.587144-5.418576-13.081424"/><path d="M28.6918661 18.7191185l-.81844-1.018832 1.630664-2.38427998-.00962-.011988-2.671252 1.09919598-.826432-1.01231998 2.827688-3.637248.697376.861212-1.7708052 2.316348 2.706032-1.161652.7481252.923816-1.698892 2.40544398 2.633808-1.25045198.697376.86121198-4.145628 2.009544zm-10.191872 16.718968c-6.040916 0-10.93822122-4.897172-10.93822122-10.938088S12.4590781 13.56176252 18.4999941 13.56176252c6.0407828 0 10.9381028 4.89731998 10.9381028 10.93823598s-4.8971868 10.938088-10.9381028 10.938088zM4.63032208 15.72581852l2.19928-2.620932c.455248-.542568 1.091648-.975764 1.696376-.468272.186924.156732.265956.208384.492692.621748.053428.146668.094424.412476-.006068.672956.52614-.326192 1.08661602-.220076 1.44921602.13246.557072.541532.47508 1.167572-.0547452 1.799236L8.08760208 18.6269145l-3.45728-2.90109598zm11.36715482-7.4148h1.3556652l1.2267868 3.210416 1.2269052-3.210416h1.3558428v4.507192h-.9025188v-3.147072l-1.187256 3.147072h-.985828l-1.187404-3.147072v3.147072h-.9021932v-4.507192zm2.5025172-.934916c-9.45720002 0-17.12389602 7.666696-17.12389602 17.12389598 0 9.457052 7.666696 17.123896 17.12389602 17.123896 9.4570668 0 17.123748-7.666844 17.123748-17.123896 0-9.45719998-7.6666812-17.12389598-17.123748-17.12389598z"/><path d="M18.5 14.265504V24.5H8.265504c0-5.652268 4.582228-10.234496 10.234496-10.234496M28.734345 24.5c0 5.652268-4.58208 10.234496-10.234348 10.234496V24.5h10.234348zM8.11247348 14.45701452l-1.3061 1.55651598-.817108-.68568398 1.3209-1.574276c.153032-.182484.498908-.174936.721352.011692.244644.205128.245236.496096.080956.691752M9.63406296 15.589808l-1.376992 1.641024-.86358-.724608 1.38824-1.654344c.156732-.186924.50616-.24124.741924-.043364.266844.223776.293336.563288.110408.781292"/></g></svg>