<?xml version="1.0" encoding="UTF-8"?><svg width="124" height="48" xmlns="http://www.w3.org/2000/svg"><g fill="#6E7274" fill-rule="nonzero"><path d="M56.855858 30.6526017c-.0047207.0047089-.0094413.0047089-.0094413.0094177-3.5688334 2.5192494-7.7938411 5.1656384-12.339855 7.9438761l-.1793858.1035953c-.0613688.0423799-.0755308.1271397-.0330447.1883551.0424861.0612154.1274583.075342.1888271.0329621l.1510618-.0800509c3.8567947-2.0059818 8.2847916-4.3886737 12.7411126-6.832581.0236034-.0141266.0472068-.0282533.0708102-.037671-.2454753-.4049635-.4484645-.8475979-.5900849-1.3279034zm23.4145679-18.90614244c-5.6223287-6.18746479-41.8063333-.62157181-57.1910262 2.73114884l-.3587716.07534204c-.0755309.01412663-.1227377.08475979-.1085756.15539295.014162.07534204.0849722.12243081.1557824.10830418l.3540509-.07063316c12.7458333-2.26496999 39.2571667-5.40108228 44.9597469.24015274 1.7419306 1.7234491 1.3265108 3.93662144-.6939398 6.55475725 1.0857562.6969138 1.8599475 1.7940822 2.2092778 3.1643655 7.8835339-5.217436 13.1754151-10.20413711 10.6734552-12.95883034z"/><path d="M59.1312253 29.02803898c.0708102 2.17550132 1.4539691 3.96016582 3.2525478 3.96016582 3.4885818 0 4.9755957-4.2756606 4.8717408-7.12924025-.0755309-2.18021019-1.4917346-3.96016972-3.2903133-3.96016972-2.9976312-.00470498-4.9378302 4.25212012-4.8339753 7.12924415zm-1.8410648-.11772193c-.1274583-3.7153042 2.7899213-7.5153682 7.029091-7.5153682 2.8324075 0 4.6876343 1.88355093 4.7914892 4.77009273.1368997 3.91778592-2.5916527 7.51536822-7.0243703 7.51536822-2.8418488 0-4.6970756-1.8788421-4.7962099-4.77009275zM17.1422017 27.93087057c-.1510617.05650653-.3446096.11301306-.5900849.16481071-.2407546.05650652-.6844984.13184856-1.3265108.23544386-.4437438.07063316-.7505879.16010183-.9252531.28724152-.1652237.12243081-.264358.26840601-.2926821.45205222-.0330447.19306397.0283241.34374804.1935479.46617885.1699444.11772194.4531852.17893734.8544429.17893734.3021234 0 .5948055-.04708877.8780463-.14126632.2879614-.09417754.5334367-.22131723.7175432-.38141906.1368997-.11772193.2360339-.26840601.3115648-.45205222.0472068-.12243081.1085756-.39083682.1793858-.8099269zm3.6821296-2.2838055c-.014162.33903917-.0755308.64040732-.1652237 1.1630927l-.6231297 3.48927809c-.0519274.3107859.0613689.55093865.3493303.72045823l-.0188827.13655744-3.5688334-.00470888-.0330447-.88526893c-.5192747.3107859-1.147125.57448303-1.7136065.72987598-.5664815.1459752-1.0243874.2071906-1.7088858.2071906-1.1518457 0-1.8127407-.11772193-2.2706466-.5179765-.4626266-.40967233-.6892191-.68278721-.6656158-1.24785249.0188828-.32491253.1888272-.74400261.4295818-1.03595301.2454753-.29665927.5853642-.48972324.9488565-.6639517.368213-.17422846.8025155-.30136815 1.4303658-.40025457.6325709-.1035953 1.5106172-.20248173 2.6860663-.30136815.618409-.05179765.9960633-.19306397 1.1707284-.26369713.2454753-.09417755.3446096-.20248172.3776543-.40025457.0660895-.35787468-.0472068-.56506528-.528716-.65924282-1.2840247-.25427938-3.6962917.1648107-4.9378303.47088773l.6750571-1.81762665c1.6380757-.24015274 3.1722963-.39083681 4.7914892-.39083681 2.5822115 0 3.4036096.72987598 3.3752855 1.67165144zM31.1720597 31.15174265l1.2368179-6.9738473h3.4177716l-1.2368179 6.9738473h-3.4177716zm1.4256451-8.58899222c.1038549-.57448303 1.0102253-1.035953 2.0204506-1.035953 1.014946 0 1.7560926.46617885 1.6569583 1.035953-.1085756.57448303-1.0102253 1.04066189-2.0298919 1.04066189-1.0102253 0-1.7466513-.46617886-1.647517-1.04066189zM47.9620988 27.9449972c-.1557824.05179765-.354051.10830418-.5948056.16481071-.2407546.05650653-.6844984.12713969-1.3265108.23073499-.4390231.07063316-.750588.16010183-.9205324.28724151-.1652238.11772194-.2596373.26840601-.2974028.44734335-.0377654.19306397.0330448.34845692.1935479.46617885.1746651.11772194.4579058.17422846.8591635.17422846.2974028 0 .5900849-.04237989.8780463-.13184856.2926821-.09888643.5334368-.22131724.7222639-.38141906.132179-.11772194.2313133-.27311489.3021235-.45205223.0472068-.11772193.1085756-.38612794.1841065-.80521802zm3.6821296-2.28851437c-.014162.34374804-.0755309.64511619-.1699444 1.16309269l-.618409 3.49398697c-.0519275.30607703.0613688.55093865.3493302.72045823l-.0188827.12243081-3.5688333.00470888-.0283241-.88997781c-.5192747.31549478-1.1518457.57919191-1.7136065.72987598-.5664814.15068407-1.0243873.21189952-1.7183271.21189952-1.1518457 0-1.8080201-.1130131-2.2659259-.51797655-.4673473-.4143812-.6892192-.68278721-.6656158-1.24785248.0141621-.32962142.1841065-.7487115.4295818-1.03595301.2454753-.30136815.5853642-.48972324.9535772-.6639517.3682129-.17422847.8025154-.30136815 1.425645-.40496345.632571-.09888643 1.515338-.20248173 2.6907871-.30136815.6136882-.05179765.9913426-.18835509 1.1660077-.25898825.250196-.09417755.3446095-.20248173.382375-.40496345.0613688-.3531658-.0472068-.5603564-.5239954-.65924283-1.293466-.25427937-3.6962917.16481071-4.9378302.47088773l.6703364-1.81762664c1.6427963-.24015274 3.1722963-.39083682 4.7914892-.39083682 2.57277.00470888 3.3941682.73929374 3.3705648 1.67636033zM9.9431662 28.64661992c-1.11408024.22131724-1.73720987.30607703-2.83712808.30607703-1.63335494 0-2.93154167-.8099269-2.86073148-2.29322325.05192746-.98886424 1.22265586-3.07018801 4.20140432-3.07018801.93941512 0 1.67112034.1648107 2.65774224.7251671l.4343025-2.42036294c-1.3406728-.50384987-2.22816048-.5791919-3.38000616-.56977415-3.90872223.0423799-7.65694136 1.81291776-8.12428858 5.41520891-.4720679 3.65879767 4.00785648 4.57702879 5.99526234 4.56768249 1.147125-.0047804 2.34145679-.0518691 3.45553704-.1648822l.45790586-2.49570498zM37.7102002 24.14022433l.2454753-1.42208095 3.573554-.77696475-.382375 2.19433682h1.7513719l-.3304475 1.40324544-1.6994445-.00470887-1.0338287 5.60827288s-3.441375-.02354439-3.455537 0l1.029108-5.59414625h-1.2934661l.2643581-1.4126632h1.3312315v.00470888zM56.7771659 21.51718617l-1.661679 9.6296541-3.4791405.00470888 1.7513719-9.72854053zM26.6496492 25.81187578c-.4484645 0-.8544429.13655744-1.2132145.40496345-.3587716.27311488-.5853642.66866058-.6750571 1.19134596-.1085756.60744517-.0424861 1.04537076.1982685 1.31377677.2454754.26840601.5948056.40496345 1.0574321.40496345.3115649 0 .632571-.05650653.868605-.17422846.2926821-.15539295.4956713-.31549478.6703364-.57448303.1888272-.26840601.3115648-.56977416.3776543-.91823108.0991343-.55093865.0141621-.96061097-.2407546-1.23372586-.250196-.27311488-.5948056-.4143812-1.0432701-.4143812zM20.4277943 33.557979l1.6663997-9.34241263h3.0023518l-.2313132 1.19134596c.2596373-.35787468.6750571-.64982507 1.2509799-.88526894.5806435-.23544386 1.2320972-.40967232 1.9401991-.40967232.7836327 0 1.2651419.04237989 1.8505061.34374804.5806436.30607703.9913426.7487115 1.2084939 1.32319453.2265926.56506528.2737994 1.20547259.1510617 1.89767756-.2029892 1.15367494-.76475 2.05777938-1.6900031 2.72643996-.9158117.66866058-1.7419305.84288904-2.9173796.84759794-.4154198 0-.76475-.0423799-1.0527114-.11301308-.2832408-.07534204-.5098334-.1648107-.6797778-.27311488-.1652238-.10830418-.3398889-.26369713-.5617608-.50855875l-.5570401 3.20203661h-3.3800062zM82.4655417 26.66889145c-.0188827-.5603564-.3021235-.94177546-.882767-.94177546-1.4020417 0-2.8937762 2.74056659-3.1486929 3.84245603 2.2989707.00469673 4.088108-1.36087769 4.0314599-2.90068057zm.3021234 4.29449611l.2690787.18364622c-.6844984 1.38911882-2.0770987 2.50512272-3.7104537 2.50512272-1.3359521 0-2.4358703-.8899778-2.4925185-2.55692037-.1085756-2.9901371 2.7002284-5.76366584 4.9991991-5.76366584.9866219 0 1.9024336.42850784 1.9401991 1.48800523.0849722 2.37798305-3.2619892 3.10315015-5.4665463 3.15494781-.0708102.24957049-.0991343.49914099-.0849723.87585118.0377655.98415539.632571 1.81291779 1.8693889 1.81291779 1.0668735 0 2.1337469-.8570157 2.676625-1.69990474z"/><path d="M69.0588133 26.59354941c.2360339-.03296214.6184089-.07534203.7836327-.07534203.250196 0 .4862299.04708877.500392.29665927.0047206.14597519-.2596374 1.20547259-.3162855 1.45033421l-.5334368 2.3450209c-.2171512.96061094-.4484645 1.96360184-.6561743 2.75940214h1.3689969l.7694707-3.71530423c2.3461774-2.43919845 3.2525478-3.23499872 3.8048672-3.23499872.250196 0 .4201405.13184857.4343025.42850784.014162.42850783-.2549167 1.40324544-.3446096 1.68577808l-.7836327 2.70760443c-.1793858.6074452-.3115648 1.1583838-.2974028 1.5492207.0236034.5933185.382375.8570156.9205324.8570156 1.000784 0 1.7277686-1.0406619 2.3603396-2.0624882l-.1841065-.3343303c-.2549167.4096723-.8497222 1.3090679-1.3170695 1.3090679-.146341 0-.2879614-.0988865-.2926821-.3437481-.014162-.3154948.118017-.7910914.2124306-1.10658614l.8733256-3.17378331c.236034-.87585118.3446096-1.43620758.3398889-1.73757573-.0236034-.59331854-.368213-.8711423-.9016497-.8711423-.9016497 0-2.0959815.65924282-4.6309861 3.56462012h-.0377654l.3210061-1.41737207c.1746652-.77696476.3446096-1.58689165.5051127-2.14724805-.8780463.31549478-2.1337469.66866057-2.9079383.81934465l.0094414.44734334z"/></g></svg>