<?xml version="1.0" encoding="UTF-8"?><svg width="124" height="48" xmlns="http://www.w3.org/2000/svg"><g fill="#6E7274" fill-rule="nonzero"><path d="M15.6385623 33.928669c.7050644.588967 1.4087327 1.1655201 2.0942508 1.7600044.3044973.2708434.4657039.665179.4370003 1.0689682 0 .2289661 0 .4565529-.008377.7006914H8.83085122c-.04443616-.3867529-.03833606-.7775461.01815018-1.1627615.04040027-.1609097.12160113-.3090094.23595225-.4303459.20674214-.2313742.43025379-.4475779.66876407-.6468982.65759478-.5517255 1.32775498-1.0786234 1.99233058-1.6165558.0851662-.0689657.16754-.1379314.2792334-.237242-.1284474-.092414-.2303676-.1710349-.3364763-.2441385-2.14637431-1.4869003-4.2941448-2.9733408-6.44331146-4.4593215-.62967139-.4386218-1.23840028-.9075885-1.8415445-1.3793138-1.05601194-.8080946-1.92001396-1.8349239-2.53125107-3.0082834-.42746674-.8283713-.6819596-1.7332048-.7483456-2.6606963-.07539303-1.03172676-.09633553-2.06897074-.12146654-3.10483541-.0125655-.53931169.01954634-1.0800027.02652717-1.6193144-.0168941-.13249004.04301123-.26311742.15497456-.33793188.91519581-.61693042 1.89488636-1.13485124 2.92217788-1.54483146.04895896-.01260793.0989501-.02091614.14938989-.02482764.01846128.07432728.03106451.14995618.03769651.22620746v1.68828009c.01836586.15625214-.07482616.30436007-.22478292.35724228-.30296827.13793138-.59197487.30620766-.89075465.45793218-.1028169.04624998-.16729443.14914871-.16335156.26069031-.05262594 1.16760842-.02977544 2.33734472.0684122 3.50207777.03159937.4742116.09362069.9459649.18569023 1.4124173.15776689.8013813.53752436 1.5172452.99407102 2.1875917.55174404.7930048 1.20921314 1.5088826 1.95463403 2.1282812 1.71449329 1.4675899 3.52811444 2.8110415 5.35150871 4.1379414.4495659.3282767.9033202.6510361 1.3556784.9737955.0865623.0620691.1801055.118621.2694602.1765522.1005241-.118621.0265272-.1848281-.0376965-.2427592-.1563707-.1379314-.3211184-.2758628-.4788853-.4137942-1.3961672-1.2234513-2.8160692-2.4179371-4.17035135-3.6827678-1.45061769-1.3531069-2.53125108-2.9613868-3.0576061-4.8924261-.21475425-.7889751-.32411769-1.6023139-.32530695-2.41931638v-7.51450159c0-.09793128.00837701-.19586256.01396167-.30069041.58312305-.28002041 1.19058086-.5076063 1.81501732-.6800017 1.33924674-.38525965 2.70985699-.6547805 4.09635451-.80551926 1.519401-.17778369 3.0503779-.24003582 4.5794283-.18620736 2.1217661.08968115 4.2243324.43665087 6.2604135 1.03310603.5584669.1600004 1.1043683.35310434 1.6544581.53241513.1047126.03448284.2038404.08137951.3308917.13793138v7.31725971c0 1.59448675-.2624795 3.13793885-.9842979 4.58483905-.5249438 1.0748378-1.2301887 2.0541796-2.0858737 2.896559-.8837739.8565539-1.8233944 1.6551766-2.7504494 2.4689717-.7190261.6289671-1.4562023 1.2413824-2.1836054 1.8579357-.0865624.0731036-.2178021.1241382-.1898787.2965525.1577668.0193104.242933-.0993106.3392686-.1724143 1.4575985-1.0937958 2.931951-2.1696606 4.3630224-3.2965599 1.0555023-.8275883 2.0691197-1.7158664 3.0715677-2.6082824.3953391-.373951.7603919-.7779486 1.0918028-1.2082789.7539302-.9158644 1.1294992-1.9917292 1.2998316-3.1448355.1968596-1.33793438.1396167-2.68552396.1396167-4.03035492.0088528-.13453015-.0704532-.25955463-.1968596-.3103456-.3560226-.18206943-.7078567-.37103542-1.0764448-.56551866v-2.19310895c1.1585382.43721098 2.25667 1.01695468 3.2684273 1.72552157 0 .84414004.0069808 1.68276284 0 2.52000631-.0069808.6896569-.0237349 1.36689998-.0572429 2.04966031-.0907508 1.85931504-.8181539 3.44828454-2.063535 4.83863284-.6992911.759195-1.4738468 1.4472334-2.3120529 2.0537982-1.8569023 1.3793138-3.7961785 2.6427653-5.7242853 3.9227685-1.8066404 1.2013823-3.6021113 2.4179371-5.4017708 3.6289746-.0917333.0587398-.1709422.1346497-.2331599.2234488.7637034-.2758627 1.4855218-.6303464 2.2185096-.9655196.7329878-.3351733 1.4687679-.6675879 2.2310751-1.0165543zm-7.04226716-6.571051c.08494889.0157017.17071126.026753.25689476.0331036 1.8150173 0 3.6384116.0082759 5.4562213 0 .8670198 0 1.7103048-.1379314 2.4865737-.5641394 1.1685919-.6413809 1.7815093-1.6372455 1.803848-2.9338004.0363003-2.1737986.0237348-4.34759713 0-6.52139568-.0125655-1.39586556-.8879623-2.56828229-2.204548-3.07449046-.6016522-.20793976-1.2364428-.30654184-1.8736563-.29103521-1.887618-.02344834-3.7696514-.02206902-5.66145787-.02758628-.08430662.00626995-.16791597.01965209-.24991392.0400001.09214703.10758648.15078605.18482805.21780208.25655237.21919824.23586266.43560415.47310463.66178323.70069141.12134392.11421852.18697641.27455985.18010557.4400011V25.9755456c.00769187.154621-.05172938.305144-.16335156.4137942-.2890066.2951731-.57242854.606898-.91030099.9682782zM74.439986 31.0960352h-2.9442667c-.0691792-.2582111-.0954673-12.47787991-.0276717-13.06129756.2324421-.04466355.4773365-.10049299.7236144-.1395736 1.2462368-.20071802 2.5098573-.26948268 3.7702665-.20517319.691792.03768487 1.3683645.11445035 1.9826758.47873745.0871418.04083902.186958.04436327.2767168.00977015 1.1207031-.46617583 2.2939823-.5582944 3.4852482-.48990334.8301504.0502465 1.6077246.27216852 2.2580091.84581602.4888082.42891605.8019749 1.02592496.8785758 1.67488321.0479124.34217578.0724137.68727338.07333 1.03284465.0055343 3.17111221.0055343 6.34175921 0 9.51194091v.2931046c-.2448944.0781612-2.5499454.0977015-3.0314326.0265189v-9.2188363-.2679813c-.0110687-.70903391-.3818692-1.10123573-1.0791955-1.13054618-.451324-.02140837-.9013782.06365819-1.3144048.24844101V31.0555589c-.2407437.0725783-2.0518551.0963058-2.6191246.0321019 0-.1325949-.0221373-.2721685-.0221373-.4117421v-8.7414946c.0034749-.1788227-.0020666-.3577079-.016603-.5359627-.056727-.59179204-.4150752-.96305782-1.0127835-.99795122-.3735677-.02093604-.7512861 0-1.1262374.01116589-.2255242.00977015-.2435108.04047634-.2545795.25960689V31.0960352zM61.175075 17.66669076h4.6394367c.5220229-.00150831 1.0420733.06684237 1.5473886.20339992 1.3904665.38114974 2.2487622 1.39517872 2.4288816 2.87426728.0331626.27027268.0500251.54244749.0504879.81492094V31.1249997h-3.0429246v-4.6548624h-2.6867797c-.0150099.7822103 0 1.5516208-.0068227 2.3210313s0 1.5416654 0 2.3338311h-2.9337614c-.0791434-.2830179-.0818724-13.14255518.0040936-13.45830894zm5.5946148 6.32028444c.014178-.0464317.0246747-.0939981.0313845-.1422201 0-.9557187.0163744-1.9100153 0-2.86431185-.0136454-.68407846-.3902585-1.0652282-1.050696-1.10078322-.4025394-.0227552-.8064433-.0099554-1.2103472-.0127998h-.3711549c-.0914242.41670476-.0723206 3.86980767.0150099 4.11584837l2.5858037.0042666zM49.2822841 25.2049034c.0435632.0278054.0902245.0501966.1389917.0666973.7616743.1859012 1.3218107.8003685 1.3523889 1.8448209.033358 1.1352744.0138991 2.2705489.0180689 3.4058233v.534998c-.2571346.0723738-2.5602264.0936602-3.0786653.029801-.0069496-.1121084-.0208488-.2327313-.0208488-.3533542v-3.235532-.3065241c-.0208487-.4384998-.2154371-.7095465-.633802-.7336711-.6282423-.0383155-1.2606543-.0099337-1.9347639-.0099337-.0208488.7819203-.0069496 1.5496496-.0097294 2.3159598-.0027799.7663102 0 1.5382968 0 2.3301507h-2.9883208c-.0694958-.2369885-.0889546-12.98753918-.015289-13.41184799.1028538 0 .2112673-.0156176.3196808-.0156176h5.0690259c.333613-.00054299.6666257.02889862.9951803.08799135 1.2787233.24550309 1.9611724 1.02742333 2.0139892 2.36846623.0416975 1.03168061.0138992 2.06619941.0125092 3.09788001-.0041902.1021202-.0167432.2037033-.0375277.3036859-.0914228.6037935-.4359965 1.136944-.9437534 1.4602467-.0820051.0553447-.1612303.1163657-.2418455.1759676-.0097294.0014191-.0083395.01561-.0152891.0439919zm-4.1197128-5.32017974c-.0778354.39166967-.0611564 3.83155114.0222386 4.08982604.4697918 0 .9465332.0255437 1.4204948-.0070955.5017599-.0354773.7449953-.3036859.8228307-.8216548.0201343-.1338801.0312796-.269009.033358-.4044415v-1.73555076c-.0006478-.13568789-.0132073-.27104338-.0375278-.40444151-.0736656-.40444151-.3238506-.67265008-.7102474-.7095465-.5212187-.04257279-1.0424375-.00709547-1.5511469-.00709547zM30.1587302 31.1070143c.11207-.1821995.2364217-.3563155.3721651-.5211019.419735-.4373281.5106776-.9484907.5050812-1.5491068-.0251841-3.2118054-.0167894-6.4236107 0-9.63683599.0196984-.33916352-.0905941-.67292002-.3078058-.93145195-.1944772-.2286033-.3553757-.48844432-.5596467-.77668326.1399117-.01135917.215464-.02413824.2980119-.02413824h5.0676014c.7289216-.01464859 1.4526719.12712234 2.1238595.41602961 1.3067752.59351664 1.9853468 1.63856029 2.0063336 3.07407541.0307806 2.12984442.0167894 4.26820822 0 6.40231222 0 1.4965707-.8324746 2.6750846-2.2148021 3.2203248-.619738.2337178-1.276685.3492477-1.9377769.3407751-1.7111199.0085194-3.4222399 0-5.134759 0-.0545656.0042597-.1063329-.0042597-.2182622-.014199zm3.9525052-2.3882655c.3973492 0 .7751108-.014199 1.1500741 0 .3623406.0249563.7176544-.1100699.9747252-.3704146.2570708-.2603447.3908624-.6206528.3670279-.9884261-.0223859-.8178603 0-1.6343006 0-2.4521609v-3.60937629c0-.65741197-.3875554-1.15295576-1.0031668-1.25944798-.4840945-.08377388-.9793818-.03123772-1.4830639-.03407751l-.0055965 8.71390338zM58.7301587 17.66761255v2.45544259c-.1386863.00709666-.2524092.01703197-.3702926.01703197-1.0207316 0-2.0414632.01135465-3.0621949 0-.3744531 0-.6490521.15612641-.660147.62592496-.0166424.73805213 0 1.47610423 0 2.21415633.0077837.05927.0207805.1176998.0388321.1745777.3924824 0 .7877386.008516 1.1816079.0099353h2.4034346v2.4256367c-1.189929.0397412-2.3812448 0-3.6058454.0241286-.0097081.1305784-.0249636.2398669-.0249636.3505747v1.9742894c0 .5109592.1802923.6968915.6837238.6997302h3.4075239v2.4597006c-.0984673.0070966-.1941609.0212899-.2898545.0212899-1.2481772 0-2.4852596.0156127-3.7265025-.0085159-.4219748-.0039164-.8416205-.0645194-1.2481773-.1802551-1.0886879-.3165108-1.6642364-1.1042395-1.8181782-2.2326076-.037939-.3149707-.0550826-.632201-.051314-.9495324v-6.87949726c-.0021669-.31738161.0242958-.63429047.0790513-.94669377.2413142-1.26320456 1.0456951-2.02396597 2.307741-2.18860836.3188097-.04114989.6397641-.06247899.9610965-.06386989 1.1316808-.00851599 2.2633615 0 3.3936553 0l.4008036-.00283867zM91.9971951 31.1249997h-3.2255225c-.0418317-.5907773-.0119519-1.1787075-.0179279-1.7637905-.0059759-.585083 0-1.1616247 0-1.7424371v-7.09929214c-.4825585-.06121307-.9471891 0-1.4521574-.04555391.3122437-.94382008.6200055-1.87055744.9307552-2.80725972h3.7663466c.0866514.28755906.0866514 13.16080937-.001494 13.45833337zM97.5760924 31.1249997h-3.2457749V20.4998498h-1.4731746c.3248769-.97524154.6347825-1.90350065.943191-2.83318347h3.7428217c.0793478.26481012.1062961 12.92301827.0329368 13.45833337z"/><path d="M12.6984127 25.5737002v-8.69293147c.4786617 0 .936512-.01805819 1.3904602.00972363.1854325.02164266.363581.08918256.5202844.19725093.3004958.17373684.4825397.51463337.4695567.8792946-.0104057.80011642 0 1.60023283 0 2.40034925v3.69776026c0 .12224 0 .24448-.009105.36672-.0559305.6848219-.4123254 1.0890473-1.0496738 1.1362764-.4266333.03056-.8532665.0055564-1.3215225.0055564z"/></g></svg>