<?xml version="1.0" encoding="UTF-8"?><svg width="124" height="48" xmlns="http://www.w3.org/2000/svg" xmlns:xlink="http://www.w3.org/1999/xlink"><defs><path id="a" d="M.06674923.04073675H16.7978659V18.9992932H.06674923z"/><path id="c" d="M0 .03905381h13.7961559V18.9581796H0z"/></defs><g fill="none" fill-rule="evenodd"><path d="M18.5852042 21.04844299c-.440177 4.23509901-1.3870647 8.41063511-1.495208 12.72535591H15c.1717197-.6695186.3928644-1.3132471.4961497-1.9743737.3047867-1.9512444.5675411-3.9090387.8385331-5.8654002.3715314-2.68175858.7339805-5.36474526 1.102766-8.04691321.1161696-.84329456.2283261-1.68761254.3704754-2.52701812.0306265-.18114458.1731982-.48264286.2785957-.48857867.3491424-.01924021.7643958-.202841 1.0140548.2744801.691737 1.32245781 1.4153678 2.62895033 2.1244246 3.94281144 1.8418158 3.41309147 3.6823643 6.82659226 5.5243912 10.23927436.0804739.1488047.1712974.2922876.3007736.5119126.1432054-.2427542.2591638-.4255363.3616042-.6150729 2.5018702-4.6360732 4.9997272-9.27439801 7.5125807-13.90494482.1060311-.19526773.3225289-.3948338.5322678-.46258392.3383703-.1093008.5295221.05731129.5827488.43802194.6180222 4.41808571 1.2459715 8.8347386 1.8853266 13.2499588.192419 1.3296217.4114515 2.6561732.6537179 3.9782216.0747709.4093663.2661339.7986736.4215899 1.2481578h-3.9514552c.0304153-.3757982.1072984-.7307188.0787841-1.0774521-.1328558-1.6100376-.2606423-3.2217127-.4547511-4.8254051-.2352962-1.9430571-.5348024-3.87895032-.8089626-5.81770908-.0204881-.14389225-.0616755-.28512362-.1246183-.56922383-.1666505.28164401-.2629657.43515637-.3504097.59337644-2.0718315 3.73853767-4.1538015 7.47195827-6.199442 11.22420967-.2488141.4564434-.5544457.5033159-1.0051836.5203046-.4486258.016784-.6465365-.1694777-.8366322-.5248076-2.0969664-3.9184542-4.208718-7.8291304-6.3175125-11.74123933-.0946254-.17541345-.201079-.3448911-.3020409-.51723431-.0475239.00388898-.0950479.00777796-.1425718.01187163" fill="#6E7274"/><g transform="translate(81 14.820896)"><mask id="b" fill="#fff"><use xlink:href="#a"/></mask><path d="M3.53995976 5.1737c0 1.20782796.00787804 2.41565591-.0047683 3.62327957-.00393902.35977419.10593903.52873118.50046342.51810753.86243902-.02329033 1.7279878.02124731 2.58814634-.02819355 2.09473171-.12033333 3.38320728-1.19863441 3.71097558-3.18137635.2931464-1.77374193-.40364631-3.56627957-2.30764631-4.40248387-1.25095122-.54916129-2.56471951-.62495699-3.89590244-.67746236-.44739025-.01756989-.61013415.12237634-.60039025.57592473.02570732 1.19025806.00870732 2.38133333.00912196 3.5722043M16.7978866 18.9973237c-1.3029878 0-2.4533903.0089892-3.6031707-.0114409-.1459513-.0022473-.3093171-.1360645-.4303903-.2457742-2.5711463-2.3294409-5.01002438-4.7849355-7.23743901-7.4394194-.6205-.7395698-1.21218293-1.0962795-2.00786586-1.1236559.19404878 2.9176237-.3667439 5.852.45962195 8.7751398H.07361829c0-.0659892-.017-.1325914.0024878-.1865269.35824391-.9914731.43391464-2.0129785.42997562-3.0608387-.0157561-4.374086.0219756-8.74837632-.00912195-13.12246234C.49115488 1.76432366.26041098.94752796.1235817.06923763.23117927.0622914.40988659.03900108.58838658.04073675 2.76417928.06392581 4.94204512.04022688 7.11472806.13297957c1.649.07027957 3.27001215.38306452 4.64659755 1.37964516 2.4336951 1.76189247 2.3831098 5.58109678-.0816829 7.30335484-1.0119147.70688172-2.15671953 1.05398925-3.37408538 1.20231183-.16523171.0202258-.32984147.0459677-.67585366.0947957 3.09275614 2.9966882 6.07895124 5.8906129 9.16818294 8.8842366" fill="#6E7274" mask="url(#b)"/></g><path d="M48.5271435 19.73754994c-.9047026 2.00679525-1.7508093 3.88402079-2.6260061 5.82572416h5.3012576c-.8959755-1.95091449-1.7535105-3.81851953-2.6752515-5.82572416M59 33.8066093c-1.307185 0-2.5455927.0145331-3.7827537-.0194457-.147944-.0040938-.3424322-.2493142-.4238845-.4239161-.9290136-1.9979935-1.8509624-3.9994667-2.7477691-6.011584-.1774497-.3977155-.3891841-.5649484-.8463145-.5583983-1.7655621.0259958-3.5319554.0264052-5.2975175-.0002047-.4573381-.0067548-.6690726.1590453-.8446522.5575796-.8808071 2.0004498-1.8029637 3.9832961-2.6808618 5.9849741-.1668526.3807261-.3769247.5055879-.779615.4826625-.5624782-.0323413-1.1282809-.0081877-1.5966317-.0081877 3.1143045-6.0717633 5.6927275-12.37380449 8.5776356-18.53624612.1248797-.26671299.2395779-.44274766.5919838-.45257285.3875219-.01064396.50035.20694308.6260608.48122966 2.2933399 4.99917996 4.5910433 9.99610831 6.8837599 14.99549301.5520888 1.2033812 1.1841754 2.3525191 2.16472 3.2803856.0450897.0425758.0721019.1039833.1558399.228231M67.0011256 25.5581927h5.304755c-.8975711-1.94920255-1.7554303-3.812438-2.6787828-5.81874734-.9027689 2.00037351-1.7450344 3.86667922-2.6259722 5.81874734M80 33.8059213c-1.2244141 0-2.4492441.0147372-3.6726187-.019445-.1482437-.003889-.3445159-.2462345-.425395-.4200109-.9293821-1.9975079-1.8546059-3.9972674-2.7457315-6.0115594-.1908664-.4314732-.4345433-.5675878-.8973631-.5614473-1.7837067.0243574-3.5680372.0180122-5.3517439.0040937-.3630204-.0028656-.5561739.1211727-.7027543.4519415-.9002739 2.0290292-1.8319431 4.0445493-2.7255637 6.0762395-.1640453.3731383-.3621887.5180543-.7730297.4922642-.5624113-.0350009-1.1289809-.0085967-1.6764223-.0085967-.0203757-.0732768-.0340982-.0947686-.0278607-.1039793 1.9830976-2.9857207 3.1154052-6.3734402 4.6454551-9.5726459 1.3930336-2.91162525 2.680654-5.87196518 4.0117287-8.81224611.1224623-.27079649.2224696-.50024689.615014-.49963407.3833961.00061528.499205.20836921.6258255.48448748 2.2949708 4.99735182 4.5999216 9.9904053 6.8880312 14.9906227.573015 1.25205 1.2516511 2.4271389 2.2124284 3.5099156" fill="#6E7274"/><g transform="translate(0 14.820896)"><mask id="d" fill="#fff"><use xlink:href="#c"/></mask><path d="M.06442059.04991075h.4422353c4.03158823 0 8.06338235.00858065 12.09517651-.01085694.5031764-.00242263.6769411.15019028.6318529.63581393-.0325294.35282796-.0063824.71117204-.0063824 1.06052688-.0551764.01593549-.0951176.04208603-.1177647.03166667-1.1908235-.54793548-2.4574117-.54650538-3.73202938-.53363441-1.76688235.0177742-3.53438235.01613979-5.3012647-.00347312-.44717647-.00490322-.62876471.09111828-.62217647.5881828.02820588 2.16170968.02202941 4.32423656.00329411 6.48615054-.0035.40758064.12558824.52546236.52726471.52301075 2.45329412-.01450538 4.90679412-.00715054 7.36008823-.00694624h.7107059c-.1303235.43924731-.2023824.82190323-.3668824 1.16002151-.056.11543008-.3444411.16650538-.5270588.16752688-2.33326469.010828-4.6665294.0065376-6.99979411.0077634-.69485294.0004086-.69547058.0028603-.69547058.7023871-.00020589 2.1282043.00247058 4.2562043-.00288236 6.3842043-.00082353.2968495-.00020588.534043.41320589.5301613 2.62397058-.0253333 5.24897058-.0059247 7.87170586-.0751828.6639706-.0173656 1.3209412-.304 2.0479118-.4835806-.0827647.567957-.166353 1.1442903-.253853 1.7445269H.03930294c-.01667647-.0429033-.04632353-.0796774-.03788235-.1023549.47497059-1.2570645.43091176-2.5674516.42802941-3.8782473C.42059706 10.8404806.44777353 6.70338387.4142147 2.5666957.40762648 1.7490828.19289119.9331043.0644206.04991075" fill="#6E7274" mask="url(#d)"/></g></g></svg>