<?xml version="1.0" encoding="UTF-8"?><svg width="124" height="48" xmlns="http://www.w3.org/2000/svg"><path d="M59.7382087 29.6482372c0 1.0805451-2.2917237 2.4084358-4.1557992 2.4084358h-1.6968242c.0017129-6.6118007.0017129-14.02431131 0-15.34007705-.0013511-.07867418.0529515-.15442663.150963-.2105583.0980114-.05613167.2316846-.08803399.3715522-.08867432h4.8050278c.2888378 0 .5250804.13627925.5250804.3016588V29.6482372zm-7.8304796 4.7286057c0 .6838264-.5949145 1.8293622-4.5799918 1.8293622-7.7227054 0-12.4630631-3.4031412-12.4630631-5.8440704 0 0-.0086541-7.8921604-.0086541-13.64311257-.001574-.0787967.0527714-.15469823.1510195-.21087282.098248-.05617458.2322787-.08797951.3723697-.08836178h4.8110599c.2888342 0 .5259381.13530838.5259381.30166077v12.6809025c0 2.0951325 2.9478562 3.7945212 6.5820163 3.7945212h4.6118892l-.0025837 1.1799709zm7.6701137-19.09676994h-5.535311c-1.1768998 0-2.135664.55288392-2.135664 1.23137745V32.0581283h-4.6118927c-2.5443473 0-4.6067252-1.1891853-4.6067252-2.6557775V16.51144843c0-.67994488-.9570347-1.23186189-2.1365217-1.23186189h-5.5378947c-1.179487 0-2.1365252.55191701-2.1382477 1.23186189-.0025661 5.62097667.0086229 13.85117267.0086229 13.85117267.0008788 4.3260638 8.4115896 6.9823297 14.4418061 6.9823297 4.044566 0 6.5570124-1.1397126 6.5570124-2.9758689V33.196874h1.6985211c2.9797606 0 6.1319601-1.8235449 6.1319601-3.5486348V16.51144843c.002561-.67994488-.9544597-1.23186189-2.1356656-1.23186189v.00048642zM26.8626477 31.7816883c.0013533.0787136-.053094.1544906-.1513171.2105604-.0982232.0560698-.2321222.0878085-.3720628.0881917h-4.8110635c-.2925948-.0021276-.5273916-.1365823-.5259441-.3011783V19.09835959c0-2.0951345-2.9487096-3.79452115-6.5820096-3.79452115H9.80835439v-1.17996699c0-.68237304.59491621-1.82936417 4.57999351-1.82936417 7.722703 0 12.4647866 3.40313925 12.4647866 5.8440704 0 0 .0086264 7.93047102.0086264 13.64311062h.0008868zm-24.36227622.3011743c-.29265544-.0023947-.52670797-.1375183-.52338897-.3021432V18.85392855c0-1.08054508 2.29175467-2.4103795 4.15496084-2.4103795h1.69855782c-.00260282 9.46836755-.00260282 14.31336265 0 15.33668395.00284733.1646232-.23158702.2995282-.52424073.3016588H2.50123307l-.00086159.0009708zM28.8275679 18.1385757c.0008788-4.32655418-8.4098742-6.9828141-14.43922-6.9828141-4.0454314 0-6.55787287 1.13971457-6.55787287 2.97586887v1.17220599H6.13281057C3.15219082 15.30383646 0 17.12737938 0 18.85247126V31.98926c0 .6799488.95703401 1.2318619 2.13565763 1.2318619h5.53444944c.03448674 0 .06379903-.0053368.0982914-.0053368 1.13120005-.0305536 2.03737221-.5664622 2.03737221-1.2265251V16.44258214h4.61275712c2.5434825 0 4.6067164 1.1891833 4.6067164 2.65577547V31.98926c0 .6799488.95704 1.2318619 2.1356619 1.2318619h5.538756c1.1794869 0 2.1356674-.5504597 2.1356674-1.2318619.0043343-5.7257334-.0069004-13.85117269-.0069004-13.85117269l-.0008612.00048839zm79.7782631 13.920039c-.04125.0001519-.080221-.0106301-.105186-.0291023l-4.777433-3.5723983h-.045695v3.5258402c.000692.0201496-.012936.0396219-.037862.0540984-.024927.0144765-.059091.0227607-.094916.0230153h-1.689048c-.035674-.0002556-.069705-.0084731-.094607-.0228443-.024901-.0143712-.038632-.0337185-.038182-.0537849v-10.132306c0-.0426766.059503-.0771118.132789-.0771118h1.689048c.073282 0 .132778.0344371.132778.0771118v6.4614566h.045695l4.486015-3.271222c.036634-.0277382.094627-.0439598.156056-.0436514h1.965807c.057769 0 .087083.0383166.050872.0620781l-4.816234 3.291108 5.272331 3.6451461c.016562.0111455.020314.026641.009656.0398723-.010657.0132312-.033843.021861-.05966.0222058h-2.182224v.0004884zm-11.6784581.000002c-.0356738-.0002577-.0697055-.0084751-.0946069-.0228463-.0249015-.0143712-.0386323-.0337186-.0381712-.053785v-4.79747c0-1.0606631-.7501164-1.585904-2.748689-1.585904-.802701 0-1.4614243.0712984-2.0744423.2158211-.0513097.0126867-.0844548.0412229-.0844997.0727498v6.0933478c.0004599.0201492-.0133892.0395691-.0384764.0539539-.0250873.0143847-.0593398.0225457-.0951629.0226734h-1.7338776c-.0744222-.0005328-.1341191-.0347624-.1336446-.0766273v-6.5419615c-.0005622-.0450337.0451051-.0862107.11726-.1057256 1.1217208-.2846854 2.5702125-.4670403 4.0402563-.4670403 3.2953178 0 4.7498488.8254424 4.7498488 2.3187146v4.7974701c0 .0421922-.0603534.0766293-.1336464.0766293h-1.7321481zm-11.8293508-3.9827013c-3.1133929.209029-4.9533292.7080763-4.9533292 1.9525496 0 .9563908 1.0225696 1.4932683 2.9314786 1.4932683.734586 0 1.4691825-.0834175 1.9502871-.2143619.0459771-.0135914.0743507-.0406313.0733149-.0698411l-.0017514-3.1616149zm-2.2063627 4.1136437c-2.9314716 0-4.6567333-.7342679-4.6567333-2.1349064 0-1.7032662 2.9090584-2.3579942 6.8622348-2.5801191v-.4326051c0-.9699711-.9087562-1.4020919-2.6133236-1.4020919-1.0415344 0-2.1710134.1745939-3.0056188.4258151-.0163461.0049823-.0357719.0056447-.0530682.0018096-.0172963-.0038352-.0306935-.0117754-.0365989-.0216916l-.4060961-.6018662c-.025361-.0371563.0023415-.0791241.0646666-.0979666 1.1275184-.3092707 2.3634079-.4732926 3.6177791-.4801362 2.6590148 0 4.2954671.7206916 4.2954671 2.292523v4.4613781c0 .0436475-.0396591.0843864-.1086354.102815-.9742805.2846874-2.3831131.4670423-3.9600733.4670423zm-11.5620685-6.6030687c-.7276961 0-1.3864159.1042683-1.9546038.2618888V31.21959c0 .032007.0293137.059652.0801864.0712925.4492037.1057256 1.0691256.1639242 1.6467977.1639242 2.521927 0 3.5220798-1.2313774 3.5220798-2.9996343 0-1.7682549-1.1812165-2.8691704-3.2944601-2.8691704v.0004884zm-.2931475 6.6025843c-1.3976225 0-2.7107454-.2051515-3.5367314-.465589-.0641491-.0210493-.1028154-.0600857-.1009501-.1018461v-9.7719602c0-.0421941.0604227-.0766292.131125-.0766292h1.714048c.0732895 0 .1327746.0339506.1327746.0766292v3.3560967c.7044146-.2095154 1.5442016-.315241 2.4546803-.315241 2.8642247 0 4.79554 1.3628083 4.79554 3.4967419-.0016873 2.2823377-1.933906 3.8022821-5.5913477 3.8022821l.0008613-.0004844z" fill="#6E7274" fill-rule="nonzero"/></svg>