<?xml version="1.0" encoding="UTF-8"?><svg width="124" height="48" xmlns="http://www.w3.org/2000/svg"><path d="M43.3789961 16.64015508h2.8078461V31.6743512l-9.4846208-8.83304087v8.37737297h-2.8078461V16.22254012l9.4846208 8.84605853v-8.42844357zm-13.9241249 7.31479941c0 4.34041131-3.528577 7.87162151-7.8659744 7.87162151-4.3384031 0-7.8669802-3.5312102-7.8669802-7.87162151 0-4.34040488 3.5285771-7.87162149 7.8669802-7.87162149 4.3373974 0 7.8659744 3.53121661 7.8659744 7.87162149zm-2.8829238 0c0-2.7841104-2.2392694-5.0494517-4.9960622-5.0494517-2.7567991 0-4.9830569 2.2653413-4.9830569 5.0494517 0 2.78411041 2.23827 5.04945811 4.9830569 5.04945811 2.7567928 0 4.9950628-2.2653477 4.9950628-5.04945811h.0009994zm-17.64289164.1261895c-.74675415-.5698397-1.73275895-1.02451417-3.18723246-1.49320614-2.84588787-.91134869-2.84588787-1.61938923-2.84588787-1.97391584 0-.81019455.89790905-1.64543088 2.41544812-1.64543088 1.27729542 0 2.26429963.63293445 2.63067441.9113487l.20220187.15222474 2.26429327-1.53226541-.2532553-.29042557c-.0750777-.08912999-1.82084828-2.12614059-4.85592002-2.12614059-1.45547934 0-2.7948409.46869197-3.76882711 1.31594603C.55656447 18.24752657 0 19.41224774 0 20.62603975c0 1.29191055.56957606 2.37951306 1.68170557 3.22776701.74675415.56883982 1.73275895 1.02451417 3.18723246 1.49220626C7.7148259 26.2453376 7.7148259 26.9664021 7.7148259 27.3209223c0 .810201-.89791546 1.6454309-2.41544812 1.6454309-1.27730183 0-2.26429963-.6329344-2.63067441-.9113423l-.20220187-.1522247-2.26429963 1.532259.25326166.290432c.07607715.0881301 1.8218477 2.1131165 4.84391425 2.1131165 1.45447351 0 2.79482808-.4676921 3.7688207-1.3159396.97398622-.8482539 1.52955122-2.0249929 1.52955122-3.2267671 0-1.27888655-.555565-2.35347145-1.66869394-3.21474301zm41.72231434-.06306911c0-4.34041129 3.5285771-7.8716215 7.8669802-7.8716215 4.3373974 0 7.8659744 3.53121021 7.8659744 7.8716215 0 4.34040492-3.528577 7.87162152-7.8659744 7.87162152-4.3384031 0-7.8669802-3.5312166-7.8669802-7.87162152zm2.8709117 0c0 2.78411042 2.23827 5.04945172 4.9830505 5.04945172 2.7567991 0 4.983057-2.2653413 4.983057-5.04945172 0-2.7841104-2.23827-5.05045799-4.983057-5.05045799-2.7447805 0-4.9830505 2.26534771-4.9830505 5.04945811v.00099988zm17.6428916-.140207c.7457611.57083957 1.7317595 1.02551405 3.1872325 1.49420601 2.8448884.91134231 2.8448884 1.61938921 2.8448884 1.97391581 0 .8101946-.8979154 1.6454245-2.4154481 1.6454245-1.2772954 0-2.2633002-.6329344-2.630668-.9113423l-.2022083-.1512248-2.2632938 1.5312591.2522558.290432c.0760772.0891299 1.8218477 2.1131165 4.8449137 2.1131165 1.4534741 0 2.7938351-.4676857 3.7678213-1.3159396.9739862-.8472541 1.5305507-2.0119688 1.5305507-3.2267671 0-1.2909043-.5695761-2.37950668-1.6817056-3.22676075-.7467606-.5698397-1.7327589-1.02551405-3.1872325-1.49320614-2.8458878-.91134228-2.8458878-1.62038911-2.8458878-1.97491572 0-.80919468.8979154-1.64442459 2.4154545-1.64442459 1.277289 0 2.2642932.63293445 2.630668.91134228l.2022019.15122487 2.2642996-1.53125912-.2532617-.29043199c-.0760771-.08912999-1.8218477-2.11311655-4.8439078-2.11311655-1.4544799 0-2.7948345.46768568-3.7688271 1.31493974-.9739862.84825395-1.5295513 2.02498645-1.5295513 3.22776701.0120443 1.29090426.5685767 2.37851318 1.6817056 3.22676072v-.00099988z" fill="#6E7274" fill-rule="nonzero"/></svg>