<?xml version="1.0" encoding="UTF-8"?><svg width="124" height="48" xmlns="http://www.w3.org/2000/svg"><g fill="#6E7274" fill-rule="nonzero"><path d="M45.2492022 19.94005752c-.8871345.02542636-1.7330952.38393426-2.4274553.92243304-.2483207.17689723-.5506959.46922856-.7142154.73401891-.355661.48641821-.6573745 1.00608828-.8276385 1.58670904-.4925339 1.6221727-.40503 3.45891239.3828773 4.97334899.3068016.5386385.6354189 1.0058935 1.1204455 1.404979.3933947.2443878.8505146.5661751 1.3380402.692589 1.3331286.4220898 2.8778431.2051831 3.9920867-.6541542.2787839-.1727336.5328873-.5051154.7577771-.7815058-.0162756-.0725967.2133982-.3702581.2311862-.138365-.000822 1.6490553.000822 3.3131151 0 4.9683269h1.5027104V20.17066578H49.102306v1.79361979c-.269109-.39326887-.5068671-.82442104-.8862139-1.07617187-.8294386-.66377257-1.8997055-1.03143716-2.9668899-.94805618zm.5265909 1.35802641c.6898884-.00176287 1.4726007.19245233 1.9650829.62776693.3926302.31733828.6864525.6525935.8985643 1.11879525.5618709 1.20480455.611803 2.63746399.1730465 3.88877839-.1969583.6051612-.5755694 1.116431-1.0716108 1.5135155-.7302032.623028-1.7878319.727197-2.7113562.5665772-.611392-.1046613-1.1302725-.453587-1.5229726-.9176844-.7312225-.8008858-.939808-1.9596815-.9264177-3.02082712.0368254-.92099814.2141874-1.88719304.7810519-2.63669202.381673-.47075407.880838-.87767167 1.4923739-1.02183196.2970363-.09573584.6111248-.12718548.9222378-.11839777zM34.21052034 16.08377497c-1.14328884.04565859-2.30737292.34469314-3.22376347 1.05054873-.18807996.12456413-.39600905.34940739-.52613628.5448238-.55906994.7044986-.84502161 1.62012121-.75581825 2.51963281.03200028.65441991.27413425 1.29063427.71683265 1.77831683.12961759.19479531.37981246.41600213.58330565.54372098 1.1832448.91729939 2.72196647 1.08767605 4.11840566 1.50479781.87199663.26482765 1.88149501.44457172 2.45221797 1.21843155.48335594.58875372.46977452 1.47363802.20549887 2.16515532-.22609849.566453-.71953086.9713732-1.24583688 1.2555339-1.10216276.4756167-2.37877596.4447119-3.51899752.1262101-.85899307-.262253-1.62094588-.7713791-2.17858965-1.4774622-.14266143-.2319628-.26953396-.3813933-.49271107-.1133584-.33833498.2362425-.67667037.4724853-1.01500576.7087278.27173198.4256943.59261969.8343235.97611962 1.1274182.65601978.5004679 1.36747658.9431008 2.17438556 1.1507545 1.50979564.4487107 3.18569726.401986 4.64560806-.2026983.58926882-.3069894 1.15207185-.61715 1.56888808-1.1321304.53915092-.6356576.88556452-1.5272154.90222592-2.3960165.0441391-.83409637-.2256493-1.68009578-.77574835-2.31392904-.10489896-.16485682-.29423081-.33342223-.47594031-.43877434-.27487693-.2434641-.58579096-.39614522-.92267758-.57798465-1.50239481-.74966829-3.21558666-.91146797-4.75021603-1.56664797-.47004043-.23298977-.94061229-.55576303-1.18490687-1.02945576-.36538726-.80881061-.08069859-1.83251162.63486285-2.34553034.62504494-.49962991 1.48315108-.64661613 2.27551484-.65237703 1.37587985-.01402508 2.77092945.58447653 3.60136763 1.69112723l1.23299322-.92243303c-.36050134-.50070772-.8111994-.88854736-1.30446901-1.22019196-1.08888959-.71437847-2.41495322-1.06313281-3.71740955-.99620964zM53.1411848 26.7045664c.001644.8803644.1807732 1.7950482.719246 2.5110678.2354689.3818196.6999456.6853009 1.1127106.9100601 1.0785526.497849 2.3733886.4217565 3.4413786-.0662602.4864487-.262645.9536339-.5893794 1.2640975-1.0103504.1423285-.1309797.3027532-.5028649.3853104-.522712v1.7013765h1.5027104V20.17066578h-1.5027104c-.0104394 2.05399312.0242899 4.10915875-.0256874 6.16236512-.1214169.8267255-.4980306 1.6250966-1.1816185 2.1267206-.8285385.6297434-2.0292191.7827751-3.0054209.3971587-.6837194-.306511-1.0732836-1.0549567-1.122069-1.7901244-.1176358-1.28602251-.0345649-2.58038915-.0595495-3.8700272v-3.02609282h-1.5283978v6.53390062zM67.7375638 19.94005752c-1.3043219.04224497-2.5966426.46528629-3.6604486 1.21709915.2183426.36726486.4366851.73453014.6550277 1.10179501.8855685-.67792925 2.0249817-.95516137 3.1261515-.99930246.8020497-.0109667 1.7465348.14204608 2.2077359.85181526.263355.48160843.2032548 1.17284613-.2477905 1.51832518-.3778097.36186597-1.0194223.51068558-1.5669289.61495536-1.0388871.19040371-2.1280311.23129127-3.1028602.66995861-.438362.20466165-.8450114.50562613-1.0970228.89305292-.5387112.66617175-.5764819 1.59098215-.4167476 2.39844025.0914018.4556848.3255143.8532116.6094027 1.2144225.1490237.2210543.4445804.3689318.6935587.5508975.939434.5352071 2.0923936.5787185 3.1365415.3772722.6153294-.1398125 1.1831557-.4546762 1.625681-.854528.2320411-.1497597.2770372-.4005327.4779986-.5476698.1926223.0522236.0427314.360723.0899058.5124628v.7686942h1.4513357c-.0107681-2.6091576.0248654-5.21948281-.0256874-7.82786925-.1174179-.71570595-.4989471-1.45560261-1.1255789-1.80403427-.820372-.5362546-1.8607141-.71056697-2.8302742-.65578716zm2.47883 4.74028088c-.0417902 1.04981776.170486 2.183834-.355476 3.148127-.4328094.7829239-1.291881 1.2452313-2.1771536 1.3137041-.7848043.0651525-1.700125-.0331789-2.2323753-.6696064-.3785166-.4615642-.4511276-1.1625727-.2672965-1.7291921.1411079-.4915519.5821988-.7956494 1.0508554-.94962477 1.1065375-.37903716 2.3118171-.38158226 3.4034805-.80593015.2162875-.11975518.4151036-.23292172.5779655-.39715867v.08968099zM78.6478109 19.97849223c-.8019593.06237861-1.5864019.42751287-2.1425394.95080339-.2436764.26791555-.4716404.60363034-.68307.93249739v-1.69112723h-1.5027104V30.2277482h1.5027104c.0138918-1.9606249-.0314413-3.9235119.0314825-5.88266091.1165589-.94872279.5141951-1.9145069 1.323462-2.4704454.721786-.54181872 1.7558234-.58334214 2.5880486-.25626871.1784881-.0908494.1066292-.39831724.2014834-.57224137.0655583-.24911678.1311124-.49823356.1966706-.74735033-.4542141-.26194147-.9968873-.35114197-1.5155541-.32028925h.0000164zM85.2168904 19.94005752c-.8788323.01502541-1.7257219.32725341-2.4531427.80712891-.1462289.11098714-.3205577.23883718-.4785904.37490179-.3760259.36315984-.6599432.81016023-.9342143 1.27779073-.7431291 1.46256431-.8271699 3.21847135-.3593147 4.77963265.2041713.7154969.6375355 1.3793691 1.1011286 1.9116117.1893426.193788.3966622.3542246.5810851.4832348.7659107.5513719 1.6965822.8485544 2.6405083.8773285 1.2559433.0697581 2.5708361-.2260239 3.551041-1.0425617.3080633-.2079553.5616366-.4549849.8082558-.7571998-.3382182-.3074777-.6764324-.6149554-1.0146506-.9224331-.5214082.6677325-1.2807964 1.1304196-2.1208634 1.2769356-1.1633661.2247703-2.5137608-.0219539-3.3187615-.9377553-.6764776-.6488951-.896645-1.6422641-.9179963-2.55558186.1425628-.23124945.5000116-.03720479.7346584-.10249255h7.0357675c.1695406-1.36224501-.143241-2.80815224-1.0095132-3.89215495-.2079156-.32090831-.5439966-.55337701-.865664-.78406808-.848924-.60275178-1.9456386-.85759215-2.9797336-.79431734zm.5394346 1.28115699c1.0029084.05995446 1.9730603.62101021 2.4382974 1.51106339.2208045.47436713.3507373.99990921.3616246 1.52527869h-6.242028c.0975873-.73675341.2736587-1.52947023.8219954-2.06266276.0981627-.16859534.3713118-.33392773.5307666-.49388705.6113345-.39737226 1.3676895-.530465 2.089344-.47979227zM18.6319495 12.494389H4.05557164c-2.0039711 0-3.64457597 1.635863-3.64457597 3.63546455V30.6697905c0 1.998641 1.64060487 3.6341837 3.64457597 3.6341837H18.6319495c2.0039711 0 3.6445763-1.6355427 3.6445763-3.6341837V16.12985355c0-1.99960155-1.6406052-3.63546455-3.6445763-3.63546455zm-.3312666 16.6893886c0 .635262-.5216165 1.1539735-1.1591127 1.1539735H5.54498809c-.63717512 0-1.15879166-.5187115-1.15879166-1.1539735V17.61650706c0-.63558219.52161654-1.15589469 1.15879166-1.15589469H17.1415702c.6374962 0 1.1591127.5203125 1.1591127 1.15589469V29.1837776zm-3.9745589-3.4715259c0 .3646992-.2982039.6611971-.6618913.6611971H9.02649851c-.36465034 0-.6618913-.2964979-.6618913-.6611971v-4.62581968c0-.36341853.29724096-.66055716.6618913-.66055716h4.63773419c.3636874 0 .6618913.29713863.6618913.66055716v4.62581968z"/></g></svg>