<svg xmlns="http://www.w3.org/2000/svg" width="74.66" height="24"><path fill="#4285F4" d="M9.44 18.62C4.31 18.62 0 14.44 0 9.31 0 4.18 4.31 0 9.44 0c2.84 0 4.86 1.11 6.38 2.57l-1.79 1.79c-1.09-1.02-2.57-1.82-4.59-1.82-3.75 0-6.68 3.02-6.68 6.77 0 3.75 2.93 6.77 6.68 6.77 2.43 0 3.81-.98 4.7-1.86.73-.73 1.2-1.77 1.38-3.2H9.44V8.47H18c.09.45.14 1 .14 1.59 0 1.91-.52 4.27-2.2 5.95-1.64 1.7-3.72 2.61-6.5 2.61z"/><path fill="#E94235" d="M31.38 12.62c0 3.45-2.65 5.99-5.91 5.99s-5.91-2.54-5.91-5.99c0-3.47 2.65-5.99 5.91-5.99s5.91 2.52 5.91 5.99zm-2.59 0c0-2.16-1.54-3.63-3.32-3.63s-3.32 1.48-3.32 3.63c0 2.13 1.54 3.63 3.32 3.63s3.32-1.49 3.32-3.63z"/><path fill="#FABB05" d="M44.62 12.62c0 3.45-2.65 5.99-5.91 5.99-3.25 0-5.91-2.54-5.91-5.99 0-3.47 2.65-5.99 5.91-5.99 3.26 0 5.91 2.52 5.91 5.99zm-2.58 0c0-2.16-1.54-3.63-3.32-3.63-1.78 0-3.32 1.48-3.32 3.63 0 2.13 1.54 3.63 3.32 3.63 1.78.01 3.32-1.49 3.32-3.63z"/><path fill="#4285F4" d="M57.54 6.99v10.76c0 4.43-2.61 6.24-5.7 6.24-2.91 0-4.65-1.95-5.31-3.54l2.29-.95c.41.98 1.41 2.13 3.02 2.13 1.98 0 3.2-1.23 3.2-3.52v-.86h-.09c-.59.73-1.73 1.36-3.16 1.36-3 0-5.74-2.61-5.74-5.97 0-3.38 2.75-6.02 5.74-6.02 1.43 0 2.57.64 3.16 1.34h.09v-.97h2.5zm-2.32 5.66c0-2.11-1.41-3.66-3.2-3.66-1.82 0-3.34 1.54-3.34 3.66 0 2.09 1.52 3.61 3.34 3.61 1.79 0 3.2-1.52 3.2-3.61z"/><path fill="#34A853" d="M62.15.64v17.62h-2.63V.64h2.63z"/><path fill="#E94235" d="M72.51 14.6l2.04 1.36c-.66.98-2.25 2.66-5 2.66-3.41 0-5.86-2.63-5.86-5.99 0-3.56 2.48-5.99 5.57-5.99 3.11 0 4.63 2.47 5.13 3.81l.27.68-8.01 3.32c.61 1.2 1.57 1.82 2.91 1.82s2.27-.67 2.95-1.67zm-6.29-2.16l5.36-2.22c-.3-.75-1.18-1.27-2.23-1.27-1.34 0-3.2 1.18-3.13 3.49z"/></svg>