<svg width="468" height="492" viewBox="0 0 468 492" fill="none" xmlns="http://www.w3.org/2000/svg">
<g clip-path="url(#clip0_4073_955)">
<path d="M233.997 468.952C348.171 468.952 440.727 376.303 440.727 262.015C440.727 147.727 348.171 55.0786 233.997 55.0786C119.824 55.0786 27.2678 147.727 27.2678 262.015C27.2678 376.303 119.824 468.952 233.997 468.952Z" stroke="#C5B8FD" stroke-width="5.95025" stroke-linecap="round" stroke-linejoin="round" stroke-dasharray="3.46 11.9"/>
<path d="M233.997 342.477C190.86 342.477 155.761 307.348 155.761 264.162C155.761 220.976 190.86 185.847 233.997 185.847C277.135 185.847 312.234 220.976 312.234 264.162C312.234 307.348 277.135 342.477 233.997 342.477ZM233.997 193.167C194.889 193.167 163.074 225.015 163.074 264.167C163.074 303.319 194.889 335.162 233.997 335.162C273.105 335.162 304.921 303.314 304.921 264.167C304.921 225.02 273.105 193.167 233.997 193.167Z" fill="url(#paint0_linear_4073_955)"/>
<path d="M234.602 216.835C247.179 216.835 257.332 226.998 257.332 239.588C257.332 252.177 247.179 262.34 234.602 262.34C222.025 262.34 211.872 252.177 211.872 239.588C211.872 226.998 222.025 216.835 234.602 216.835Z" fill="url(#paint1_linear_4073_955)"/>
<path d="M234.602 324.541C215.658 324.541 198.914 314.83 189.137 300.12C189.366 285.027 219.449 276.756 234.602 276.756C249.755 276.756 279.839 285.022 280.067 300.12C270.29 314.835 253.546 324.541 234.602 324.541Z" fill="url(#paint2_linear_4073_955)"/>
<path d="M233.998 110.819C264.569 110.819 289.351 86.011 289.351 55.4093C289.351 24.8076 264.569 0 233.998 0C203.426 0 178.644 24.8076 178.644 55.4093C178.644 86.011 203.426 110.819 233.998 110.819Z" fill="#AA7DFB"/>
<path d="M229.241 62.3678L246.859 44.7322C246.478 44.3151 246.092 43.9031 245.711 43.5012C245.329 43.0994 244.908 42.723 244.455 42.3771L228.093 58.8071C228.23 59.4328 228.387 60.0381 228.565 60.6129C228.743 61.1877 228.967 61.7726 229.246 62.3678H229.241ZM246.915 66.0302C247.926 64.8094 248.744 63.4818 249.374 62.0524C249.999 60.623 250.401 59.1225 250.579 57.5507L237.509 70.6337C237.788 70.7405 238.073 70.8626 238.373 70.9999C238.673 71.1372 238.957 71.2441 239.237 71.3153C240.771 70.827 242.184 70.1301 243.47 69.2196C244.76 68.3141 245.909 67.2459 246.92 66.0251L246.915 66.0302ZM217.269 55.4092C217.269 59.6667 218.646 63.3546 221.4 66.4778C224.154 69.6011 227.585 71.4424 231.701 71.9969C229.19 70.0792 227.203 67.6783 225.74 64.7992C224.276 61.9202 223.545 58.7918 223.545 55.4041C223.545 52.0164 224.276 48.8881 225.74 46.009C227.203 43.1299 229.19 40.7341 231.701 38.8113C227.59 39.3709 224.154 41.2122 221.4 44.3304C218.646 47.4536 217.269 51.1415 217.269 55.399V55.4092ZM233.84 68.3345L250.309 51.9045C250.172 51.2788 250.015 50.6684 249.837 50.0733C249.664 49.4781 249.435 48.9033 249.156 48.3438L231.487 65.9793C231.868 66.4321 232.234 66.8441 232.585 67.2103C232.935 67.5766 233.352 67.953 233.84 68.3345ZM233.998 76.3409C231.106 76.3409 228.387 75.7916 225.842 74.6928C223.296 73.5941 221.085 72.1037 219.2 70.2165C217.32 68.3345 215.826 66.1167 214.728 63.5682C213.63 61.0198 213.082 58.2984 213.082 55.4041C213.082 52.5098 213.63 49.7884 214.728 47.24C215.826 44.6915 217.315 42.4788 219.2 40.5917C221.08 38.7096 223.296 37.2141 225.842 36.1154C228.387 35.0166 231.106 34.4673 233.998 34.4673C236.889 34.4673 239.608 35.0166 242.153 36.1154C244.699 37.2141 246.91 38.7045 248.795 40.5917C250.675 42.4737 252.169 44.6915 253.267 47.24C254.365 49.7884 254.913 52.5098 254.913 55.4041C254.913 58.2984 254.365 61.0198 253.267 63.5682C252.169 66.1167 250.68 68.3294 248.795 70.2165C246.915 72.0986 244.699 73.5941 242.153 74.6928C239.608 75.7916 236.889 76.3409 233.998 76.3409ZM227.884 53.0541L240.797 40.1288C240.517 40.022 240.263 39.91 240.04 39.788C239.816 39.6659 239.562 39.5692 239.282 39.498C236.284 40.4747 233.749 42.1736 231.675 44.6C229.602 47.0263 228.337 49.8444 227.884 53.0541Z" fill="white"/>
<path d="M418.333 217.924L431.042 210.207C432.673 209.215 434.721 209.215 436.357 210.207L449.066 217.924C452.948 220.279 457.745 216.795 456.714 212.374L453.34 197.918C452.903 196.056 453.543 194.103 454.991 192.862L466.211 183.222C469.652 180.267 467.843 174.621 463.325 174.224L448.517 172.912C446.637 172.744 445.001 171.559 444.259 169.819L438.415 156.131C436.642 151.98 430.767 151.98 428.994 156.131L423.15 169.819C422.408 171.559 420.772 172.744 418.892 172.912L404.084 174.224C399.566 174.626 397.757 180.267 401.197 183.222L412.418 192.862C413.866 194.108 414.506 196.056 414.069 197.918L410.695 212.374C409.663 216.8 414.46 220.279 418.343 217.924H418.333Z" fill="url(#paint3_linear_4073_955)"/>
<path d="M18.9391 217.924L31.6482 210.207C33.2794 209.215 35.3273 209.215 36.9635 210.207L49.6726 217.924C53.555 220.279 58.352 216.795 57.3204 212.374L53.9462 197.918C53.5092 196.056 54.1495 194.103 55.5978 192.862L66.8179 183.222C70.2582 180.267 68.4491 174.621 63.9316 174.224L49.1238 172.912C47.2436 172.744 45.6073 171.559 44.8654 169.819L39.0216 156.131C37.2481 151.98 31.3738 151.98 29.6003 156.131L23.7565 169.819C23.0146 171.559 21.3783 172.744 19.4981 172.912L4.69031 174.224C0.172769 174.626 -1.63628 180.267 1.80396 183.222L13.0241 192.862C14.4724 194.108 15.1127 196.056 14.6757 197.918L11.3015 212.374C10.2699 216.8 15.0669 220.279 18.9493 217.924H18.9391Z" fill="url(#paint4_linear_4073_955)"/>
<path d="M218.519 491.232L231.325 483.46C232.971 482.463 235.034 482.463 236.681 483.46L249.486 491.232C253.394 493.608 258.232 490.098 257.19 485.637L253.79 471.069C253.353 469.192 253.994 467.228 255.457 465.972L266.764 456.261C270.229 453.28 268.41 447.593 263.857 447.192L248.937 445.869C247.042 445.701 245.395 444.506 244.643 442.751L238.754 428.956C236.97 424.775 231.045 424.775 229.261 428.956L223.372 442.751C222.625 444.501 220.973 445.701 219.078 445.869L204.158 447.192C199.605 447.593 197.786 453.28 201.252 456.261L212.558 465.972C214.022 467.228 214.662 469.192 214.225 471.069L210.825 485.637C209.784 490.093 214.621 493.603 218.529 491.232H218.519Z" fill="url(#paint5_linear_4073_955)"/>
<path d="M63.4794 435.319C94.0504 435.319 118.833 410.512 118.833 379.91C118.833 349.308 94.0504 324.5 63.4794 324.5C32.9083 324.5 8.12549 349.308 8.12549 379.91C8.12549 410.512 32.9083 435.319 63.4794 435.319Z" fill="#AA7DFB"/>
<path d="M70.8832 390.286L73.8458 387.321C74.0592 387.107 74.1609 386.863 74.1609 386.578C74.1609 386.293 74.0542 386.049 73.8458 385.835L66.6553 378.582C66.7976 378.195 66.9043 377.803 66.9704 377.417C67.0365 377.03 67.0771 376.588 67.0771 376.094C67.0771 374.085 66.3657 372.361 64.9378 370.931C63.5098 369.502 61.7922 368.79 59.7799 368.79C59.1803 368.79 58.5807 368.871 57.9811 369.029C57.3814 369.187 56.8021 369.41 56.2381 369.69L61.2079 374.665L58.2453 377.63L53.2755 372.656C52.996 373.22 52.7724 373.8 52.6149 374.4C52.4574 375.001 52.376 375.601 52.376 376.201C52.376 378.21 53.0875 379.935 54.5154 381.364C55.9433 382.793 57.6609 383.506 59.6732 383.506C60.1306 383.506 60.5625 383.47 60.969 383.399C61.3756 383.328 61.7719 383.221 62.1581 383.083L69.4045 390.281C69.6179 390.495 69.8618 390.596 70.1464 390.596C70.431 390.596 70.6749 390.49 70.8883 390.281L70.8832 390.286ZM63.4793 401.085C60.5523 401.085 57.8032 400.531 55.2319 399.417C52.6606 398.303 50.4196 396.797 48.514 394.89C46.6084 392.982 45.1043 390.744 43.9914 388.165C42.8785 385.591 42.3246 382.834 42.3246 379.909C42.3246 376.984 42.8785 374.227 43.9914 371.654C45.1043 369.08 46.6084 366.836 48.514 364.929C50.4196 363.021 52.6555 361.516 55.2319 360.402C57.8032 359.288 60.5574 358.733 63.4793 358.733C66.4013 358.733 69.1555 359.288 71.7268 360.402C74.2981 361.516 76.539 363.021 78.4446 364.929C80.3502 366.836 81.8544 369.075 82.9673 371.654C84.0801 374.227 84.634 376.984 84.634 379.909C84.634 382.834 84.0801 385.591 82.9673 388.165C81.8544 390.739 80.3502 392.982 78.4446 394.89C76.539 396.797 74.3031 398.303 71.7268 399.417C69.1555 400.531 66.4013 401.085 63.4793 401.085ZM63.4793 396.848C68.2052 396.848 72.2044 395.205 75.4821 391.924C78.7597 388.643 80.4011 384.635 80.4011 379.909C80.4011 375.184 78.7597 371.175 75.4821 367.895C72.2044 364.614 68.2001 362.971 63.4793 362.971C58.7585 362.971 54.7542 364.614 51.4766 367.895C48.199 371.175 46.5576 375.184 46.5576 379.909C46.5576 384.635 48.199 388.643 51.4766 391.924C54.7542 395.205 58.7585 396.848 63.4793 396.848Z" fill="white"/>
<path d="M404.521 435.319C435.092 435.319 459.874 410.512 459.874 379.91C459.874 349.308 435.092 324.5 404.521 324.5C373.95 324.5 349.167 349.308 349.167 379.91C349.167 410.512 373.95 435.319 404.521 435.319Z" fill="#AA7DFB"/>
<path d="M389.154 387.754V385.734C389.154 384.813 389.621 384.066 390.562 383.491C391.502 382.916 392.736 382.626 394.276 382.626C394.556 382.626 394.82 382.631 395.074 382.641C395.328 382.652 395.577 382.677 395.811 382.723C395.511 383.17 395.287 383.643 395.14 384.132C394.993 384.62 394.916 385.134 394.916 385.668V387.748H389.154V387.754ZM396.837 387.754V385.673C396.837 384.991 397.025 384.366 397.396 383.796C397.767 383.231 398.296 382.733 398.982 382.306C399.668 381.878 400.481 381.558 401.431 381.344C402.381 381.131 403.413 381.024 404.521 381.024C405.628 381.024 406.691 381.131 407.641 381.344C408.591 381.558 409.409 381.878 410.09 382.306C410.771 382.733 411.294 383.231 411.66 383.796C412.026 384.361 412.204 384.986 412.204 385.673V387.754H396.837ZM414.125 387.754V385.673C414.125 385.119 414.054 384.595 413.917 384.101C413.779 383.608 413.571 383.15 413.292 382.723C413.525 382.682 413.764 382.652 414.013 382.641C414.262 382.631 414.511 382.626 414.765 382.626C416.3 382.626 417.54 382.911 418.48 383.476C419.42 384.04 419.887 384.793 419.887 385.734V387.754H414.125ZM394.276 381.344C393.57 381.344 392.97 381.095 392.467 380.591C391.964 380.088 391.715 379.488 391.715 378.781C391.715 378.074 391.964 377.448 392.467 376.954C392.97 376.461 393.57 376.217 394.276 376.217C394.983 376.217 395.608 376.461 396.1 376.954C396.593 377.448 396.837 378.053 396.837 378.781C396.837 379.508 396.593 380.088 396.1 380.591C395.608 381.095 395.003 381.344 394.276 381.344ZM414.765 381.344C414.059 381.344 413.459 381.095 412.956 380.591C412.453 380.088 412.204 379.488 412.204 378.781C412.204 378.074 412.453 377.448 412.956 376.954C413.459 376.461 414.059 376.217 414.765 376.217C415.472 376.217 416.097 376.461 416.589 376.954C417.082 377.448 417.326 378.053 417.326 378.781C417.326 379.508 417.082 380.088 416.589 380.591C416.097 381.095 415.492 381.344 414.765 381.344ZM404.521 380.062C403.454 380.062 402.549 379.691 401.802 378.943C401.055 378.196 400.684 377.29 400.684 376.222C400.684 375.154 401.055 374.218 401.802 373.48C402.549 372.743 403.454 372.376 404.521 372.376C405.588 372.376 406.523 372.743 407.26 373.48C407.997 374.218 408.362 375.128 408.362 376.222C408.362 377.316 407.997 378.196 407.26 378.943C406.523 379.691 405.613 380.062 404.521 380.062Z" fill="white"/>
<path d="M404.521 401.177C401.583 401.177 398.819 400.618 396.238 399.504C393.651 398.39 391.405 396.874 389.494 394.956C387.584 393.043 386.069 390.79 384.951 388.206C383.839 385.617 383.28 382.855 383.28 379.915C383.28 376.975 383.839 374.207 384.951 371.623C386.064 369.034 387.579 366.786 389.494 364.873C391.41 362.961 393.656 361.445 396.238 360.326C398.824 359.212 401.583 358.652 404.521 358.652C407.458 358.652 410.222 359.212 412.804 360.326C415.39 361.44 417.636 362.956 419.547 364.873C421.458 366.786 422.972 369.039 424.09 371.623C425.203 374.213 425.762 376.975 425.762 379.915C425.762 382.855 425.203 385.622 424.09 388.206C422.977 390.795 421.463 393.043 419.547 394.956C417.636 396.869 415.385 398.384 412.804 399.504C410.217 400.618 407.458 401.177 404.521 401.177ZM404.521 396.925C406.431 396.925 408.276 396.614 410.044 395.994C411.813 395.373 413.444 394.478 414.933 393.308L391.141 369.492C389.972 370.982 389.078 372.61 388.458 374.385C387.838 376.156 387.528 378.002 387.528 379.915C387.528 384.666 389.174 388.684 392.467 391.98C395.76 395.276 399.779 396.925 404.521 396.925ZM417.9 390.332C419.069 388.842 419.964 387.214 420.584 385.439C421.203 383.669 421.513 381.822 421.513 379.91C421.513 375.159 419.867 371.14 416.574 367.844C413.281 364.548 409.262 362.9 404.521 362.9C402.61 362.9 400.765 363.21 398.997 363.831C397.229 364.451 395.597 365.346 394.108 366.516L417.9 390.332Z" fill="white"/>
</g>
<defs>
<linearGradient id="paint0_linear_4073_955" x1="155.761" y1="264.162" x2="312.234" y2="264.162" gradientUnits="userSpaceOnUse">
<stop stop-color="#5DDFF2"/>
<stop offset="0.87" stop-color="#83F1E8"/>
<stop offset="1" stop-color="#84F2E8"/>
</linearGradient>
<linearGradient id="paint1_linear_4073_955" x1="211.867" y1="239.588" x2="257.332" y2="239.588" gradientUnits="userSpaceOnUse">
<stop stop-color="#5DDFF2"/>
<stop offset="0.87" stop-color="#83F1E8"/>
<stop offset="1" stop-color="#84F2E8"/>
</linearGradient>
<linearGradient id="paint2_linear_4073_955" x1="189.137" y1="300.649" x2="280.062" y2="300.649" gradientUnits="userSpaceOnUse">
<stop stop-color="#5DDFF2"/>
<stop offset="0.87" stop-color="#83F1E8"/>
<stop offset="1" stop-color="#84F2E8"/>
</linearGradient>
<linearGradient id="paint3_linear_4073_955" x1="399.393" y1="185.847" x2="468" y2="185.847" gradientUnits="userSpaceOnUse">
<stop offset="0.09" stop-color="#F2DD22"/>
<stop offset="0.23" stop-color="#F2E03A"/>
<stop offset="0.53" stop-color="#F4EA7A"/>
<stop offset="0.82" stop-color="#F6F4BB"/>
</linearGradient>
<linearGradient id="paint4_linear_4073_955" x1="-5.40029e-06" y1="185.847" x2="68.6016" y2="185.847" gradientUnits="userSpaceOnUse">
<stop offset="0.09" stop-color="#F2DD22"/>
<stop offset="0.23" stop-color="#F2E03A"/>
<stop offset="0.53" stop-color="#F4EA7A"/>
<stop offset="0.82" stop-color="#F6F4BB"/>
</linearGradient>
<linearGradient id="paint5_linear_4073_955" x1="199.432" y1="458.911" x2="268.568" y2="458.911" gradientUnits="userSpaceOnUse">
<stop offset="0.09" stop-color="#F2DD22"/>
<stop offset="0.23" stop-color="#F2E03A"/>
<stop offset="0.53" stop-color="#F4EA7A"/>
<stop offset="0.82" stop-color="#F6F4BB"/>
</linearGradient>
<clipPath id="clip0_4073_955">
<rect width="468" height="492" fill="white"/>
</clipPath>
</defs>
</svg>
