<svg width="525" height="525" viewBox="0 0 525 525" fill="none" xmlns="http://www.w3.org/2000/svg">
<g clip-path="url(#clip0_4073_794)">
<path d="M489.029 262.16H38.9802" stroke="url(#paint0_linear_4073_794)" stroke-width="3.74091" stroke-miterlimit="10"/>
<path d="M0 251.678V272.649C0 277.961 4.30108 282.262 9.61305 282.262H68.3537C73.6657 282.262 77.9668 277.961 77.9668 272.649V251.678C77.9668 246.366 73.6657 242.065 68.3537 242.065H9.61305C4.30108 242.059 0 246.366 0 251.678Z" fill="#FFB5CE"/>
<path d="M524.32 272.642V251.671C524.32 246.359 520.012 242.058 514.707 242.058H455.966C450.654 242.058 446.353 246.366 446.353 251.671V272.642C446.353 277.954 450.661 282.255 455.966 282.255H514.707C520.019 282.255 524.32 277.954 524.32 272.642Z" fill="#AA7DFB"/>
<path d="M262.16 489.029V38.9866" stroke="url(#paint1_linear_4073_794)" stroke-width="3.74091" stroke-miterlimit="10"/>
<path d="M272.642 0H251.671C246.359 0 242.058 4.30108 242.058 9.61305V68.3537C242.058 73.6657 246.359 77.9668 251.671 77.9668H272.642C277.954 77.9668 282.255 73.6657 282.255 68.3537V9.61305C282.262 4.30108 277.954 0 272.642 0Z" fill="#57DEFA"/>
<path d="M251.678 524.32H272.649C277.961 524.32 282.262 520.013 282.262 514.707V455.967C282.262 450.655 277.961 446.354 272.649 446.354H251.678C246.366 446.354 242.065 450.661 242.065 455.967V514.707C242.065 520.019 246.372 524.32 251.678 524.32Z" fill="#F6F4BB"/>
<path d="M433.804 191.598L432.078 192.313" stroke="#0081FC" stroke-width="0.933618" stroke-linecap="round" stroke-linejoin="round"/>
<path d="M428.614 193.754L97.6758 331.292" stroke="#0081FC" stroke-width="0.933618" stroke-linecap="round" stroke-linejoin="round" stroke-dasharray="3.75 3.75"/>
<path d="M95.9374 332.007L94.2119 332.728" stroke="#0081FC" stroke-width="0.933618" stroke-linecap="round" stroke-linejoin="round"/>
<path d="M439.824 197.612C443.147 194.289 443.147 188.9 439.824 185.578C436.502 182.255 431.113 182.255 427.79 185.578C424.468 188.9 424.468 194.289 427.79 197.612C431.113 200.934 436.502 200.934 439.824 197.612Z" fill="#57DEFA"/>
<path d="M100.232 338.742C103.554 335.42 103.554 330.03 100.232 326.708C96.9095 323.386 91.5203 323.386 88.1979 326.708C84.8755 330.03 84.8755 335.42 88.1979 338.742C91.5203 342.064 96.9095 342.064 100.232 338.742Z" fill="#57DEFA"/>
<path d="M433.972 332.329L432.24 331.615" stroke="#0081FC" stroke-width="0.933618" stroke-linecap="round" stroke-linejoin="round"/>
<path d="M428.769 330.185L97.5083 193.42" stroke="#0081FC" stroke-width="0.933618" stroke-linecap="round" stroke-linejoin="round" stroke-dasharray="3.75 3.75"/>
<path d="M95.7764 192.705L94.0444 191.991" stroke="#0081FC" stroke-width="0.933618" stroke-linecap="round" stroke-linejoin="round"/>
<path d="M439.985 338.343C443.308 335.021 443.308 329.632 439.985 326.309C436.663 322.987 431.274 322.987 427.951 326.309C424.629 329.632 424.629 335.021 427.951 338.343C431.274 341.666 436.663 341.666 439.985 338.343Z" fill="#57DEFA"/>
<path d="M100.065 198.011C103.387 194.688 103.387 189.299 100.065 185.977C96.7422 182.654 91.3529 182.654 88.0306 185.977C84.7082 189.299 84.7082 194.688 88.0306 198.011C91.3529 201.333 96.7422 201.333 100.065 198.011Z" fill="#57DEFA"/>
<path d="M334.57 431.956L333.849 430.23" stroke="#0081FC" stroke-width="0.933618" stroke-linecap="round" stroke-linejoin="round"/>
<path d="M332.413 426.767L194.882 95.8279" stroke="#0081FC" stroke-width="0.933618" stroke-linecap="round" stroke-linejoin="round" stroke-dasharray="3.75 3.75"/>
<path d="M194.16 94.0896L193.446 92.364" stroke="#0081FC" stroke-width="0.933618" stroke-linecap="round" stroke-linejoin="round"/>
<path d="M340.59 437.97C343.913 434.648 343.913 429.259 340.59 425.936C337.268 422.614 331.879 422.614 328.556 425.936C325.234 429.259 325.234 434.648 328.556 437.97C331.879 441.293 337.268 441.293 340.59 437.97Z" fill="#57DEFA"/>
<path d="M199.459 98.3776C202.782 95.0552 202.782 89.666 199.459 86.3436C196.137 83.0212 190.748 83.0212 187.425 86.3436C184.103 89.666 184.103 95.0552 187.425 98.3776C190.748 101.7 196.137 101.7 199.459 98.3776Z" fill="#57DEFA"/>
<path d="M193.839 432.123L194.553 430.391" stroke="#0081FC" stroke-width="0.933618" stroke-linecap="round" stroke-linejoin="round"/>
<path d="M195.983 426.927L332.742 95.6667" stroke="#0081FC" stroke-width="0.933618" stroke-linecap="round" stroke-linejoin="round" stroke-dasharray="3.75 3.75"/>
<path d="M333.463 93.9283L334.177 92.1963" stroke="#0081FC" stroke-width="0.933618" stroke-linecap="round" stroke-linejoin="round"/>
<path d="M199.859 438.137C203.181 434.815 203.181 429.426 199.859 426.103C196.536 422.781 191.147 422.781 187.825 426.103C184.502 429.426 184.502 434.815 187.825 438.137C191.147 441.459 196.536 441.459 199.859 438.137Z" fill="#57DEFA"/>
<path d="M328.157 98.2167C331.479 101.539 336.869 101.539 340.191 98.2167C343.513 94.8943 343.513 89.5051 340.191 86.1827C336.869 82.8603 331.479 82.8603 328.157 86.1827C324.835 89.5051 324.835 94.8943 328.157 98.2167Z" fill="#57DEFA"/>
<path d="M394.026 392.178L133.99 132.143" stroke="url(#paint2_linear_4073_794)" stroke-width="3.74091" stroke-miterlimit="10"/>
<path d="M414.179 427.16L429.007 412.331C432.761 408.577 432.761 402.493 429.007 398.739L387.471 357.203C383.717 353.449 377.626 353.449 373.872 357.203L359.044 372.031C355.29 375.785 355.29 381.876 359.044 385.623L400.58 427.16C404.334 430.913 410.425 430.913 414.179 427.16Z" fill="#00BAFD"/>
<path d="M113.837 97.1608L99.0086 111.989C95.2549 115.743 95.2549 121.834 99.0086 125.588L140.545 167.124C144.299 170.878 150.39 170.878 154.144 167.124L168.972 152.296C172.726 148.542 172.726 142.451 168.972 138.697L127.436 97.1608C123.682 93.407 117.591 93.407 113.837 97.1608Z" fill="#83FDE7"/>
<path d="M394.026 132.143L133.99 392.178" stroke="url(#paint3_linear_4073_794)" stroke-width="3.74091" stroke-miterlimit="10"/>
<path d="M429.007 111.989L414.179 97.1608C410.425 93.407 404.334 93.407 400.58 97.1608L359.044 138.697C355.29 142.451 355.29 148.542 359.044 152.296L373.872 167.124C377.626 170.878 383.717 170.878 387.471 167.124L429.007 125.588C432.761 121.834 432.761 115.743 429.007 111.989Z" fill="#C5B8FD"/>
<path d="M99.0086 412.338L113.837 427.166C117.591 430.92 123.682 430.92 127.436 427.166L168.972 385.63C172.726 381.876 172.726 375.785 168.972 372.031L154.144 357.203C150.39 353.449 144.299 353.449 140.545 357.203L99.0086 398.739C95.2549 402.493 95.2549 408.584 99.0086 412.338Z" fill="#83FDE7"/>
<path d="M225.865 225.865C246.63 205.1 280.305 205.1 301.07 225.865C321.834 246.63 321.834 280.304 301.07 301.069C280.305 321.834 246.63 321.834 225.865 301.069C205.1 280.304 205.1 246.63 225.865 225.865Z" fill="#E7F8FF" stroke="#A57CF6" stroke-width="3.85681"/>
<path d="M262.842 236.064L279.815 236.044L251.336 264.504L243.913 271.882L235.471 263.428L262.842 236.057V236.064ZM262.688 261.477C262.913 261.188 263.312 261.329 263.622 261.291H279.802L265.051 276.029L256.565 267.594L262.681 261.477H262.688Z" fill="#44D1FD"/>
<path d="M248.104 276.048L256.564 267.601L265.051 276.035L265.089 276.074L256.564 284.515L248.098 276.048H248.104Z" fill="#1FBCFD"/>
<path d="M256.571 284.515L265.09 276.074L279.809 290.813C274.265 290.825 268.721 290.813 263.177 290.819C262.862 290.89 262.669 290.6 262.463 290.42L256.558 284.515H256.571Z" fill="#08589C"/>
<path d="M387.771 183.558L334.056 205.709C330.223 207.289 328.397 211.678 329.978 215.511L343.918 249.316C345.498 253.149 349.887 254.975 353.72 253.394L407.436 231.243C411.269 229.663 413.095 225.274 411.514 221.441L397.574 187.636C395.993 183.803 391.605 181.977 387.771 183.558Z" fill="#F6F4BB"/>
<path d="M390.626 186.872C392.107 186.872 393.433 187.761 394 189.132L407.94 222.935C408.313 223.837 408.307 224.828 407.94 225.723C407.566 226.625 406.864 227.32 405.963 227.694L352.251 249.843C351.807 250.03 351.337 250.12 350.867 250.12C349.386 250.12 348.059 249.231 347.493 247.86L333.553 214.056C333.179 213.155 333.186 212.163 333.553 211.268C333.926 210.367 334.628 209.672 335.529 209.298L389.241 187.149C389.686 186.962 390.156 186.872 390.626 186.872ZM390.626 183.009C389.673 183.009 388.701 183.189 387.767 183.575L334.055 205.725C330.224 207.302 328.395 211.693 329.973 215.531L343.913 249.334C345.11 252.232 347.905 253.983 350.854 253.983C351.807 253.983 352.779 253.803 353.712 253.416L407.424 231.267C411.256 229.69 413.084 225.298 411.507 221.461L397.567 187.658C396.369 184.76 393.575 183.009 390.626 183.009Z" fill="#00BAFD"/>
<path d="M174.278 271.593L120.563 293.743C116.729 295.324 114.903 299.713 116.484 303.546L130.424 337.35C132.005 341.183 136.394 343.009 140.227 341.429L193.942 319.278C197.775 317.697 199.601 313.308 198.021 309.475L184.081 275.671C182.5 271.838 178.111 270.012 174.278 271.593Z" fill="#57DEFA"/>
<path d="M177.123 274.902C178.604 274.902 179.931 275.79 180.497 277.162L194.437 310.965C194.811 311.867 194.804 312.858 194.437 313.753C194.064 314.655 193.362 315.35 192.461 315.723L138.749 337.873C138.304 338.059 137.834 338.15 137.364 338.15C135.883 338.15 134.557 337.261 133.99 335.89L120.05 302.086C119.677 301.185 119.683 300.193 120.05 299.298C120.417 298.403 121.126 297.701 122.027 297.328L175.739 275.179C176.183 274.992 176.653 274.902 177.123 274.902ZM177.123 271.039C176.171 271.039 175.198 271.219 174.265 271.605L120.553 293.754C116.722 295.332 114.893 299.723 116.471 303.561L130.41 337.364C131.608 340.262 134.402 342.013 137.351 342.013C138.304 342.013 139.277 341.833 140.21 341.446L193.922 319.297C197.753 317.719 199.582 313.328 198.004 309.491L184.064 275.687C182.867 272.79 180.072 271.039 177.123 271.039Z" fill="#F6F4BB"/>
<path d="M185.044 138.734L207.195 192.449C208.775 196.282 213.164 198.108 216.997 196.528L250.802 182.588C254.635 181.007 256.461 176.618 254.88 172.785L232.729 119.07C231.148 115.236 226.76 113.41 222.926 114.991L189.122 128.931C185.289 130.512 183.463 134.901 185.044 138.734Z" fill="#AA7DFB"/>
<path d="M225.8 118.286C227.281 118.286 228.608 119.175 229.174 120.546L251.324 174.258C251.697 175.16 251.691 176.151 251.324 177.046C250.95 177.948 250.248 178.643 249.347 179.016L215.543 192.956C215.099 193.143 214.629 193.233 214.159 193.233C212.678 193.233 211.352 192.345 210.785 190.973L188.636 137.261C188.263 136.36 188.269 135.368 188.636 134.473C189.009 133.572 189.711 132.876 190.613 132.503L224.416 118.563C224.86 118.376 225.33 118.286 225.8 118.286ZM225.8 114.423C224.847 114.423 223.875 114.603 222.942 114.989L189.138 128.929C185.307 130.507 183.479 134.898 185.056 138.736L207.205 192.448C208.403 195.345 211.197 197.096 214.146 197.096C215.099 197.096 216.071 196.916 217.005 196.53L250.808 182.59C254.64 181.012 256.468 176.621 254.891 172.784L232.741 119.072C231.544 116.174 228.749 114.423 225.8 114.423Z" fill="#C5B8FD"/>
<path d="M273.071 352.228L295.222 405.944C296.803 409.777 301.192 411.603 305.025 410.022L338.829 396.082C342.662 394.501 344.488 390.113 342.907 386.279L320.757 332.564C319.176 328.731 314.787 326.905 310.954 328.486L277.15 342.426C273.317 344.006 271.491 348.395 273.071 352.228Z" fill="#83FDE7"/>
<path d="M313.831 331.789C315.312 331.789 316.638 332.677 317.205 334.049L339.354 387.761C340.12 389.621 339.232 391.753 337.371 392.519L303.568 406.459C303.123 406.645 302.653 406.736 302.183 406.736C300.702 406.736 299.376 405.847 298.809 404.476L276.66 350.764C275.894 348.903 276.783 346.772 278.643 346.005L312.447 332.065C312.891 331.879 313.361 331.789 313.831 331.789ZM313.831 327.925C312.878 327.925 311.906 328.106 310.972 328.492L277.169 342.432C273.338 344.009 271.509 348.401 273.087 352.238L295.236 405.95C296.434 408.847 299.228 410.599 302.177 410.599C303.13 410.599 304.102 410.419 305.036 410.032L338.839 396.092C342.67 394.515 344.499 390.124 342.921 386.286L320.772 332.574C319.574 329.677 316.78 327.925 313.831 327.925Z" fill="#AA7DFB"/>
<path d="M342.704 132.106L299.387 114.587C297.662 113.889 295.7 114.722 295.002 116.446L283.279 145.432C282.582 147.156 283.415 149.119 285.139 149.816L328.456 167.335C330.18 168.032 332.143 167.2 332.841 165.476L344.563 136.49C345.261 134.766 344.428 132.803 342.704 132.106Z" fill="#FFB5CE"/>
<mask id="mask0_4073_794" style="mask-type:luminance" maskUnits="userSpaceOnUse" x="283" y="114" width="62" height="54">
<path d="M342.704 132.106L299.387 114.587C297.662 113.889 295.7 114.722 295.002 116.446L283.279 145.432C282.582 147.156 283.415 149.119 285.139 149.816L328.456 167.335C330.18 168.032 332.143 167.2 332.841 165.476L344.563 136.49C345.261 134.766 344.428 132.803 342.704 132.106Z" fill="white"/>
</mask>
<g mask="url(#mask0_4073_794)">
<path d="M341.717 134.531C342.116 134.692 342.303 135.143 342.142 135.542L330.417 164.523C330.256 164.922 329.805 165.109 329.406 164.948L286.093 147.428C285.693 147.267 285.507 146.816 285.668 146.417L297.393 117.436C297.554 117.037 298.004 116.85 298.404 117.011L341.717 134.531Z" fill="#83FDE7"/>
</g>
<path d="M337.503 166.829L278.982 143.162C277.993 142.762 276.867 143.239 276.467 144.228C276.067 145.217 276.544 146.343 277.533 146.743L336.054 170.411C337.043 170.811 338.169 170.333 338.569 169.344C338.969 168.355 338.492 167.229 337.503 166.829Z" fill="#FFB5CE"/>
<path d="M184.759 392.66L228.076 410.179C229.8 410.876 231.763 410.044 232.46 408.32L244.183 379.334C244.881 377.61 244.048 375.647 242.324 374.949L199.007 357.43C197.282 356.733 195.319 357.566 194.622 359.29L182.899 388.275C182.202 390 183.034 391.963 184.759 392.66Z" fill="#C5B8FD"/>
<mask id="mask1_4073_794" style="mask-type:luminance" maskUnits="userSpaceOnUse" x="182" y="357" width="63" height="54">
<path d="M184.759 392.66L228.076 410.179C229.8 410.876 231.763 410.044 232.46 408.32L244.183 379.334C244.881 377.61 244.048 375.647 242.324 374.949L199.007 357.43C197.282 356.733 195.319 357.566 194.622 359.29L182.899 388.275C182.202 390 183.034 391.963 184.759 392.66Z" fill="white"/>
</mask>
<g mask="url(#mask1_4073_794)">
<path d="M185.764 390.252C185.365 390.091 185.178 389.641 185.339 389.241L197.064 360.261C197.225 359.861 197.676 359.675 198.075 359.836L241.389 377.355C241.788 377.516 241.975 377.967 241.814 378.366L230.089 407.347C229.928 407.746 229.477 407.933 229.078 407.772L185.764 390.252Z" fill="#57DEFA"/>
</g>
<path d="M189.962 357.937L248.482 381.604C249.471 382.004 250.597 381.527 250.997 380.538C251.397 379.549 250.92 378.423 249.931 378.023L191.41 354.355C190.421 353.955 189.295 354.433 188.895 355.422C188.495 356.411 188.973 357.537 189.962 357.937Z" fill="#C5B8FD"/>
<path d="M133.469 183.432L115.95 226.75C115.252 228.474 116.085 230.437 117.809 231.134L146.795 242.857C148.519 243.554 150.482 242.722 151.179 240.998L168.698 197.68C169.395 195.956 168.563 193.993 166.839 193.296L137.853 181.573C136.129 180.876 134.166 181.708 133.469 183.432Z" fill="#00F6DB"/>
<mask id="mask2_4073_794" style="mask-type:luminance" maskUnits="userSpaceOnUse" x="115" y="181" width="54" height="63">
<path d="M133.469 183.432L115.95 226.75C115.252 228.474 116.085 230.437 117.809 231.134L146.795 242.857C148.519 243.554 150.482 242.722 151.179 240.998L168.698 197.68C169.395 195.956 168.563 193.993 166.839 193.296L137.853 181.573C136.129 180.876 134.166 181.708 133.469 183.432Z" fill="white"/>
</mask>
<g mask="url(#mask2_4073_794)">
<path d="M135.877 184.419C136.038 184.019 136.489 183.833 136.888 183.994L165.869 195.719C166.268 195.88 166.455 196.33 166.294 196.73L148.774 240.043C148.613 240.442 148.162 240.629 147.763 240.468L118.782 228.743C118.383 228.582 118.196 228.131 118.357 227.732L135.877 184.419Z" fill="#C5B8FD"/>
</g>
<path d="M168.195 188.621L144.527 247.142C144.127 248.131 144.605 249.257 145.594 249.657C146.583 250.057 147.709 249.579 148.109 248.59L171.776 190.07C172.176 189.081 171.699 187.955 170.71 187.555C169.721 187.155 168.595 187.632 168.195 188.621Z" fill="#00F6DB"/>
<path d="M394.026 341.369L411.545 298.052C412.242 296.328 411.409 294.365 409.685 293.668L380.7 281.945C378.975 281.248 377.012 282.08 376.315 283.804L358.796 327.122C358.099 328.846 358.931 330.809 360.655 331.506L389.641 343.229C391.365 343.926 393.328 343.094 394.026 341.369Z" fill="#57DEFA"/>
<mask id="mask3_4073_794" style="mask-type:luminance" maskUnits="userSpaceOnUse" x="358" y="281" width="54" height="63">
<path d="M394.026 341.369L411.545 298.052C412.242 296.328 411.409 294.365 409.685 293.668L380.7 281.945C378.975 281.248 377.012 282.08 376.315 283.804L358.796 327.122C358.099 328.846 358.931 330.809 360.655 331.506L389.641 343.229C391.365 343.926 393.328 343.094 394.026 341.369Z" fill="white"/>
</mask>
<g mask="url(#mask3_4073_794)">
<path d="M391.598 340.365C391.437 340.764 390.987 340.951 390.587 340.79L361.607 329.065C361.207 328.904 361.021 328.454 361.182 328.054L378.701 284.741C378.862 284.342 379.313 284.155 379.712 284.316L408.693 296.041C409.092 296.202 409.279 296.653 409.118 297.052L391.598 340.365Z" fill="#00F6DB"/>
</g>
<path d="M359.3 336.167L382.968 277.647C383.368 276.658 382.89 275.532 381.901 275.132C380.912 274.732 379.786 275.209 379.386 276.198L355.718 334.719C355.318 335.708 355.796 336.834 356.785 337.234C357.774 337.634 358.9 337.156 359.3 336.167Z" fill="#57DEFA"/>
<path d="M272.642 2.5755C276.525 2.5755 279.68 5.73048 279.68 9.61305V68.3537C279.68 72.2363 276.525 75.3913 272.642 75.3913H251.671C247.789 75.3913 244.634 72.2363 244.634 68.3537V9.61305C244.634 5.73048 247.789 2.5755 251.671 2.5755H272.642ZM272.642 0H251.671C246.359 0 242.058 4.30108 242.058 9.61305V68.3537C242.058 73.6657 246.359 77.9668 251.671 77.9668H272.642C277.954 77.9668 282.255 73.6657 282.255 68.3537V9.61305C282.255 4.30108 277.948 0 272.642 0Z" fill="#00F6DB"/>
<path d="M272.649 448.929C276.531 448.929 279.686 452.084 279.686 455.967V514.707C279.686 518.59 276.531 521.745 272.649 521.745H251.678C247.795 521.745 244.64 518.59 244.64 514.707V455.967C244.64 452.084 247.795 448.929 251.678 448.929H272.649ZM272.649 446.354H251.678C246.366 446.354 242.065 450.661 242.065 455.967V514.707C242.065 520.019 246.372 524.32 251.678 524.32H272.649C277.961 524.32 282.262 520.013 282.262 514.707V455.967C282.262 450.655 277.961 446.354 272.649 446.354Z" fill="#00BAFD"/>
<path d="M9.61305 244.634H68.3537C72.2363 244.634 75.3913 247.789 75.3913 251.671V272.642C75.3913 276.525 72.2363 279.68 68.3537 279.68H9.61305C5.73048 279.68 2.5755 276.525 2.5755 272.642V251.671C2.5755 247.789 5.73048 244.634 9.61305 244.634ZM9.61305 242.058C4.30108 242.058 0 246.366 0 251.678V272.649C0 277.954 4.30108 282.262 9.61305 282.262H68.3537C73.6657 282.262 77.9668 277.961 77.9668 272.649V251.678C77.9668 246.366 73.6657 242.065 68.3537 242.065H9.61305V242.058Z" fill="#00BAFD"/>
<path d="M455.966 244.634H514.707C518.589 244.634 521.744 247.789 521.744 251.671V272.642C521.744 276.525 518.589 279.68 514.707 279.68H455.966C452.084 279.68 448.929 276.525 448.929 272.642V251.671C448.929 247.789 452.084 244.634 455.966 244.634ZM455.966 242.058C450.654 242.058 446.353 246.366 446.353 251.671V272.642C446.353 277.954 450.661 282.255 455.966 282.255H514.707C520.019 282.255 524.32 277.954 524.32 272.642V251.671C524.32 246.359 520.012 242.058 514.707 242.058H455.966Z" fill="#F6F4BB"/>
<path d="M380.672 356.958C382.552 356.958 384.322 357.692 385.649 359.018L427.185 400.555C428.512 401.881 429.245 403.652 429.245 405.532C429.245 407.412 428.512 409.176 427.185 410.509L412.357 425.337C411.03 426.664 409.26 427.398 407.38 427.398C405.499 427.398 403.729 426.664 402.402 425.337L360.866 383.801C359.54 382.475 358.806 380.704 358.806 378.824C358.806 376.944 359.54 375.179 360.866 373.847L375.694 359.018C377.021 357.692 378.791 356.958 380.672 356.958ZM380.672 354.382C378.212 354.382 375.752 355.322 373.872 357.196L359.044 372.024C355.29 375.778 355.29 381.869 359.044 385.617L400.58 427.153C402.46 429.033 404.92 429.967 407.38 429.967C409.839 429.967 412.299 429.027 414.179 427.153L429.007 412.325C432.761 408.571 432.761 402.486 429.007 398.732L387.471 357.196C385.591 355.316 383.131 354.382 380.672 354.382Z" fill="#AA7DFB"/>
<path d="M120.636 96.9224C122.517 96.9224 124.287 97.6564 125.614 98.9828L167.15 140.519C168.476 141.846 169.21 143.616 169.21 145.496C169.21 147.376 168.476 149.147 167.15 150.473L152.321 165.302C150.995 166.628 149.224 167.362 147.344 167.362C145.464 167.362 143.694 166.628 142.367 165.302L100.831 123.766C99.5044 122.439 98.7704 120.669 98.7704 118.788C98.7704 116.908 99.5044 115.138 100.831 113.811L115.659 98.9828C116.986 97.6564 118.756 96.9224 120.636 96.9224ZM120.636 94.3469C118.177 94.3469 115.717 95.287 113.837 97.1607L99.0086 111.989C95.2549 115.743 95.2549 121.834 99.0086 125.588L140.545 167.124C142.425 169.004 144.885 169.938 147.344 169.938C149.804 169.938 152.264 168.998 154.144 167.124L168.972 152.296C172.726 148.542 172.726 142.451 168.972 138.697L127.436 97.1607C125.556 95.2805 123.096 94.3469 120.636 94.3469Z" fill="#57DEFA"/>
<path d="M407.38 96.9224C409.26 96.9224 411.03 97.6564 412.357 98.9828L427.185 113.811C428.512 115.138 429.245 116.908 429.245 118.788C429.245 120.669 428.512 122.439 427.185 123.766L385.649 165.302C384.322 166.628 382.552 167.362 380.672 167.362C378.791 167.362 377.021 166.628 375.694 165.302L360.866 150.473C358.123 147.731 358.123 143.262 360.866 140.519L402.402 98.9828C403.729 97.6564 405.499 96.9224 407.38 96.9224ZM407.38 94.3469C404.92 94.3469 402.46 95.287 400.58 97.1607L359.044 138.697C355.29 142.451 355.29 148.542 359.044 152.296L373.872 167.124C375.752 169.004 378.212 169.938 380.672 169.938C383.131 169.938 385.591 168.998 387.471 167.124L429.007 125.588C432.761 121.834 432.761 115.743 429.007 111.989L414.179 97.1607C412.299 95.2805 409.839 94.3469 407.38 94.3469Z" fill="#00BAFD"/>
<path d="M147.344 356.964C149.224 356.964 150.995 357.698 152.321 359.025L167.15 373.853C168.476 375.179 169.21 376.95 169.21 378.83C169.21 380.71 168.476 382.481 167.15 383.807L125.614 425.344C124.287 426.67 122.517 427.404 120.636 427.404C118.756 427.404 116.986 426.67 115.659 425.344L100.831 410.515C99.5044 409.189 98.7704 407.418 98.7704 405.538C98.7704 403.658 99.5044 401.887 100.831 400.561L142.367 359.025C143.694 357.698 145.464 356.964 147.344 356.964ZM147.344 354.389C144.885 354.389 142.425 355.329 140.545 357.202L99.0086 398.739C95.2549 402.493 95.2549 408.584 99.0086 412.337L113.837 427.166C115.717 429.046 118.177 429.98 120.636 429.98C123.096 429.98 125.556 429.039 127.436 427.166L168.972 385.629C172.726 381.876 172.726 375.785 168.972 372.031L154.144 357.202C152.264 355.322 149.804 354.389 147.344 354.389Z" fill="#FFB5CE"/>
</g>
<defs>
<linearGradient id="paint0_linear_4073_794" x1="73.5528" y1="382.51" x2="454.457" y2="142.81" gradientUnits="userSpaceOnUse">
<stop stop-color="#A57CF6"/>
<stop offset="1" stop-color="#27F5DD"/>
</linearGradient>
<linearGradient id="paint1_linear_4073_794" x1="439.001" y1="373.998" x2="91.0024" y2="167.994" gradientUnits="userSpaceOnUse">
<stop stop-color="#A57CF6"/>
<stop offset="1" stop-color="#27F5DD"/>
</linearGradient>
<linearGradient id="paint2_linear_4073_794" x1="132.664" y1="262.16" x2="395.352" y2="262.16" gradientUnits="userSpaceOnUse">
<stop stop-color="#27F5DD"/>
<stop offset="1" stop-color="#A57CF6"/>
</linearGradient>
<linearGradient id="paint3_linear_4073_794" x1="132.664" y1="262.16" x2="395.352" y2="262.16" gradientUnits="userSpaceOnUse">
<stop stop-color="#27F5DD"/>
<stop offset="1" stop-color="#A57CF6"/>
</linearGradient>
<clipPath id="clip0_4073_794">
<rect width="524.32" height="524.32" fill="white"/>
</clipPath>
</defs>
</svg>
