<svg width="87" height="87" viewBox="0 0 87 87" fill="none" xmlns="http://www.w3.org/2000/svg">
<path d="M43.5028 86.9893C67.5288 86.9893 87.0056 67.5161 87.0056 43.4947C87.0056 19.4732 67.5288 0 43.5028 0C19.4769 0 0 19.4732 0 43.4947C0 67.5161 19.4769 86.9893 43.5028 86.9893Z" fill="#AA7DFB"/>
<path d="M63.9586 36.6987L51.4952 35.1313L45.5931 23.3565C44.934 21.331 42.0697 21.331 41.4107 23.3565L35.5085 35.1313L23.0452 36.6987C20.9159 36.6987 20.0307 39.4241 21.7524 40.6756L31.5367 50.4873L28.7679 62.2621C28.1089 64.2876 30.4272 65.972 32.1509 64.7204L40.2973 59.9267C40.2934 58.8311 40.2837 56.6788 40.2837 55.8406C37.0119 56.443 36.1656 55.0432 35.9063 54.3102C35.7601 53.9359 35.1244 52.7799 34.5726 52.4719C34.1163 52.2282 33.4651 51.6258 34.557 51.6102C35.5826 51.5946 36.3138 52.5538 36.5595 52.9437C37.7313 54.9126 39.6032 54.359 40.3519 54.0178C40.465 53.1717 40.8082 52.6025 41.1826 52.2769C38.2851 51.9514 35.2589 50.8285 35.2589 45.8495C35.2589 44.4342 35.764 43.2626 36.5926 42.3522C36.462 42.0266 36.0077 40.6932 36.7233 38.9036C36.7233 38.9036 37.8132 38.5624 40.3032 40.237C41.3444 39.9446 42.4519 39.7984 43.5575 39.7984C44.663 39.7984 45.7705 39.9446 46.8117 40.237C49.3017 38.5449 50.3916 38.9036 50.3916 38.9036C51.1072 40.6932 50.6529 42.0266 50.5223 42.3522C51.3529 43.2626 51.856 44.4186 51.856 45.8495C51.856 50.8441 48.8123 51.9514 45.9168 52.2769C46.3886 52.6844 46.7961 53.4642 46.7961 54.6845C46.7961 56.0843 46.7864 58.7492 46.7805 59.9676L54.8548 64.7185C56.5785 65.97 58.8968 64.2857 58.2378 62.2602L55.469 50.4854L65.2533 40.6737C66.9769 39.4221 66.0917 36.6968 63.9605 36.6968L63.9586 36.6987Z" fill="#F6F4BB"/>
</svg>
