<svg width="749" height="97" viewBox="0 0 749 97" fill="none" xmlns="http://www.w3.org/2000/svg">
<path d="M3.39062 0.898682L0 14.1215H31.4096L19.8858 60.2165L11.4129 94.2264H31.9784L40.4514 60.2165L51.9751 14.1215H83.2739L86.5537 0.898682H3.39801H3.39062ZM631.14 1.91809C629.471 8.78802 627.934 14.151 626.398 18.7531H618.715L621.197 17.1723C625.482 14.3948 627.594 12.9617 627.639 12.7622C625.349 7.59871 623.421 4.03078 621.648 2.2579C621.596 1.94026 618.338 3.92736 612.045 8.01977L609.895 9.37899C609.939 9.47502 610.198 9.85915 610.685 10.5092C612.901 13.3901 614.77 16.1012 616.218 18.7605H609.888L607.856 28.2528H622.091L621.072 30.1735L620.052 32.0941H604.687L602.766 41.5864H613.389C608.853 47.1193 603.461 51.5589 597.234 54.92L607.177 7.46575H579.719L569.436 56.5008C569.163 57.7862 568.845 59.005 568.535 60.2313C566.142 69.7162 562.588 78.2261 557.802 85.7682C560.705 88.3315 563.069 91.0795 565.034 94.0195C570.788 85.8125 575.309 75.3008 578.707 62.3809H584.698L581.307 78.4255C581.041 80.6195 578.81 81.6093 574.755 81.2474C575.597 85.1773 575.959 89.1071 575.656 93.2217C585.444 93.1552 590.378 90.9539 590.57 86.4404L596.103 60.2239L596.443 58.4141C597.056 59.0272 597.625 59.6255 598.135 60.2239C599.457 61.7752 600.484 63.3043 601.186 64.8555C602.685 64.1168 604.466 62.9719 606.497 61.2433L602.885 72.9961H635.764L635.203 76.0469C633.903 82.3923 632.071 85.4727 629.781 85.0886L631.591 76.0469H596.34L594.308 85.4284H623.007C624.647 88.9668 625.349 92.5938 625.038 96.3908C634.198 96.0953 639.805 94.6844 641.984 92.0989C642.664 91.3454 643.388 90.0305 644.134 87.807C645.633 83.3305 647.384 76.7782 649.556 68.1502L650.797 63.1787H638.594L639.273 60.2387L640.174 55.7178C642.346 57.6163 644.267 59.0937 645.936 60.2387C647.17 61.0808 648.256 61.7308 649.216 62.1593C649.74 61.5018 650.28 60.8592 650.797 60.2387C653.944 56.4196 656.928 53.2358 659.721 50.6355C652.356 48.5376 646.956 45.5311 643.565 41.5938H659.721L661.641 32.1015H632.603C633.378 30.9639 634.102 29.7376 634.634 28.2602H658.59L660.511 18.7679H651.927C655.68 15.1039 658.974 12.09 661.981 9.72617L651.927 3.51369C648.706 7.62826 645.227 11.632 641.423 15.4881L647.525 19.2185H638.823L640.064 15.2664L641.644 11.3144C642.967 7.98284 644.045 5.44909 644.806 3.86088C644.88 3.20344 644.451 2.87841 643.114 2.73067C640.581 2.33177 636.599 2.07322 631.14 1.94025V1.91809ZM691.928 2.7085C688.862 3.72791 684.098 5.58205 677.464 8.35958C679.555 14.3135 681.054 20.2527 682.096 26.214C684.445 25.3202 689.527 23.5768 697.239 20.7919C694.026 9.22386 692.186 3.17388 691.928 2.71589V2.7085ZM703.119 7.79078L700.748 18.7531H709.79L705.498 39.2004H694.196L691.825 50.1628H703.237L701.088 60.2165L694.196 92.8671H706.85L713.631 60.2165L715.781 50.1628H724.822L723.013 58.4141C722.88 59.0272 722.784 59.6181 722.673 60.2239C720.361 72.3386 721.55 81.8162 726.174 88.5827C728.996 92.5938 732.394 94.2855 736.457 93.6649C740.66 93.8792 744.871 87.0979 749 73.3285C745.24 71.6221 741.776 70.1151 738.717 68.8076C736.664 75.1161 735.393 77.1623 734.876 74.9093C734.064 71.6885 734.233 66.7983 735.327 60.2239C735.681 58.0964 736.132 55.8138 736.686 53.3318L746.289 7.79817H703.127L703.119 7.79078ZM515.444 8.92099L511.153 26.3174H494.657L491.496 39.2004H551.833L515.452 8.92099H515.444ZM588.207 17.1723H594.197L591.376 30.6167H585.503L588.214 17.1723H588.207ZM722.326 18.7531H731.818L727.526 39.2004H718.034L722.326 18.7531ZM110.163 22.4836C97.6269 22.4836 86.7532 25.7634 77.512 32.3157C68.3225 38.964 62.3465 47.6733 59.6576 58.4141C59.5025 59.042 59.3325 59.6108 59.2069 60.2239C57.1386 70.1964 58.9706 78.3369 64.7399 84.5124C70.8933 91.0204 80.3782 94.2264 93.2094 94.2264C115.082 94.2264 131.844 80.8854 133.543 79.4228L124.05 77.2731C121.819 77.7902 109.66 81.3064 97.5013 80.2132C82.1585 78.8318 78.6791 67.5961 79.536 62.0189H141.114L141.676 60.2091L142.126 58.2885C144.919 47.0898 143.441 38.2844 137.716 31.9611C131.947 25.5861 122.809 22.4688 110.148 22.4688L110.163 22.4836ZM292.637 22.4836C279.444 22.4836 267.514 25.9038 256.707 32.8771C245.885 39.8578 239.244 48.5007 236.71 58.6357C236.569 59.1897 236.37 59.6699 236.259 60.2165C234.368 69.6276 236.872 77.5834 243.713 84.0544C250.974 90.8431 261.242 94.2264 274.561 94.2264C282.628 94.2264 291.093 92.5569 299.98 89.2549L305.18 68.5786C299.271 73.129 294.314 76.1503 290.377 77.7311C286.321 79.3563 281.933 80.2132 277.154 80.2132C269.671 80.2132 264.012 78.2039 260.208 74.1115C256.839 70.4254 255.628 65.742 256.596 60.2165C256.707 59.6034 256.891 59.0346 257.046 58.4067C258.605 52.1794 262.358 46.942 268.348 42.8127C274.325 38.6833 281.091 36.6002 288.574 36.6002C293.339 36.6002 297.202 37.4128 300.327 39.0822C303.511 40.7074 306.842 43.7508 310.27 48.1239L315.47 27.2187C308.733 24.0127 301.132 22.4762 292.644 22.4762L292.637 22.4836ZM367.091 22.4836C354.548 22.4836 343.674 25.7634 334.44 32.3157C325.243 38.964 319.275 47.6733 316.586 58.4141C316.431 59.042 316.268 59.6108 316.135 60.2239C314.067 70.1964 315.891 78.3369 321.668 84.5124C327.807 91.0204 337.314 94.2264 350.138 94.2264C371.996 94.2264 388.772 80.8854 390.471 79.4228L380.978 77.2731C378.748 77.7902 366.588 81.3064 354.429 80.2132C339.094 78.8318 335.6 67.5961 336.464 62.0189H398.042L398.604 60.2091L399.054 58.2885C401.854 47.0898 400.473 38.2844 394.763 31.9611C388.993 25.5861 379.752 22.4688 367.083 22.4688L367.091 22.4836ZM206.881 24.4042C198.164 24.4042 189.647 27.1005 181.344 32.5373L162.928 26.3248L154.455 60.2239L145.982 94.2337H165.979L174.112 61.4649C174.216 61.0438 174.349 60.6006 174.452 60.2239C176.528 52.4158 179.32 46.846 182.703 43.6179C186.33 40.1829 191.361 38.5356 197.957 38.5356C204.022 38.5356 207.952 39.7692 209.592 42.3768C211.306 44.9254 211.269 49.5792 209.592 56.2718L208.691 60.2239L200.107 94.2337H220.104L228.577 60.2239L230.497 52.5414C232.898 42.9678 232.241 36.1052 228.466 31.8651C224.115 26.8936 216.898 24.4116 206.888 24.4116L206.881 24.4042ZM462.117 24.4042C453.401 24.4042 444.891 27.1005 436.581 32.5373L418.165 26.3248L409.692 60.2239L401.219 94.2337H421.216L429.349 61.4649C429.459 61.0438 429.578 60.6006 429.688 60.2239C431.779 52.4158 434.549 46.846 437.94 43.6179C441.567 40.1829 446.59 38.5356 453.194 38.5356C459.251 38.5356 463.181 39.7692 464.829 42.3768C466.535 44.9254 466.505 49.5792 464.829 56.2718L463.809 60.2239L455.336 94.2337H475.333L483.806 60.2239L485.726 52.5414C488.127 42.9678 487.462 36.1052 483.695 31.8651C479.344 26.8936 472.12 24.4116 462.117 24.4116V24.4042ZM665.15 31.5179L662.779 42.5911H673.963L670.232 60.2165L667.861 71.9693C667.344 74.4291 665.379 76.9924 661.988 79.7626C660.991 80.5825 660.378 81.1144 660.297 81.3434C661.538 85.2363 663.754 89.0333 666.849 92.5273C667.085 92.5938 668.415 91.4267 670.69 89.1367C674.088 85.5318 682.709 77.5908 696.678 65.2988C696.633 65.1436 695.865 63.489 694.417 60.4381L694.306 60.2091L692.275 55.6882L690.015 57.6089C688.929 58.5618 687.88 59.4409 686.964 60.2091C684.526 62.3218 682.672 63.8731 681.431 64.8408L682.45 60.2091L688.441 31.5105H665.165L665.15 31.5179ZM107.001 36.6076C117.601 36.6076 123.275 40.7738 123.947 49.1507H84.0643C85.1945 47.2006 86.502 45.4868 88.1346 43.9503C89.7449 42.4212 91.5695 41.0619 93.5566 39.9982C95.6028 38.8754 97.7377 38.0702 99.9982 37.5162C102.266 36.9104 104.593 36.615 107.001 36.615V36.6076ZM363.929 36.6076C374.53 36.6076 380.21 40.7738 380.875 49.1507H340.992C342.13 47.2006 343.445 45.4868 345.063 43.9503C346.688 42.4212 348.52 41.0619 350.485 39.9982C352.546 38.8754 354.666 38.0702 356.926 37.5162C359.201 36.9104 361.514 36.615 363.929 36.615V36.6076ZM583.464 39.9982H589.337L586.737 52.5414H580.864L583.464 39.9982ZM626.737 41.579H630.239C630.704 42.9235 631.354 44.2605 632.159 45.5311H623.576L625.157 43.4997L626.737 41.579ZM507.201 42.1404L502.68 60.2165L494.096 94.2264H513.982L522.565 60.2165L527.086 42.1404H507.201ZM614.534 54.4546H628.658L627.528 60.2165L626.737 63.4963H617.023C617.385 62.2849 617.71 61.199 618.043 60.2165C618.42 59.0863 618.722 58.126 619.062 57.2765C618.59 57.0031 618.301 56.8259 618.043 56.8259H612.17L614.541 54.4546H614.534Z" fill="#100F0D"/>
</svg>
