<svg width="708" height="151" viewBox="0 0 708 151" fill="none" xmlns="http://www.w3.org/2000/svg">
<path d="M76.3618 0.0717471C106.684 -1.49311 137.863 22.7662 147.614 50.7214C159.001 83.3633 148.967 114.456 122.073 135.326C100.542 152.036 63.9609 155.371 40.0476 142.097C-4.72004 117.24 -13.1105 62.2416 20.7345 24.1266C34.5195 8.59589 55.8928 1.1176 76.3697 0.0638758L76.3618 0.0717471Z" fill="black"/>
<path d="M420.718 110.422H408.419V104.469C399.604 114.818 381.361 113.394 373.033 103.156C364.705 92.9175 364.886 71.8037 372.341 61.2035C379.945 50.391 397.52 48.3937 407.326 57.3975C407.845 57.8693 407.837 58.6557 408.427 58.7186V29.521L408.986 28.9626H420.16L420.718 29.521V110.414V110.422ZM391.568 62.5403C374.999 64.9309 374.079 103.439 397.017 100.71C414.042 98.6816 414.482 59.2376 391.568 62.5403Z" fill="black"/>
<path d="M489.281 104.469V134.225H477.36V52.7737H489.281V58.7265L493.866 54.9362C522.12 41.914 537.391 70.113 529.158 95.0014C523.567 111.9 501.658 117.468 489.273 104.469H489.281ZM500.738 62.5403C484.217 64.923 483.234 103.447 506.188 100.71C523.276 98.6737 523.614 59.2455 500.738 62.5403Z" fill="black"/>
<path d="M201.26 28.9705V62.0685C207.37 54.2049 216.115 49.9113 226.235 52.1997C233.226 53.7803 238.148 60.2363 238.148 67.463V110.422H226.227V71.9295C226.227 70.6713 225.441 67.0541 224.812 65.906C222.641 61.9506 216.689 61.5967 212.93 63.1223C206.631 65.6701 201.26 76.1916 201.26 82.7184V110.43H189.339V28.9784H201.26V28.9705Z" fill="black"/>
<path d="M578.706 58.7264V52.7737H590.627V110.233L590.069 110.792H580.751L578.698 104.469C578.179 104.367 578.227 104.391 577.928 104.705C576.064 106.679 575.372 107.764 572.753 109.124C559.432 116.037 543.021 109.124 538.57 94.8755C530.581 69.2794 547.181 40.8996 575.325 55.9585L578.706 58.7186V58.7264ZM561.469 62.5324C545.412 65.0331 544.861 99.9319 563.294 101.072C585.099 102.425 584.808 58.8994 561.469 62.5324Z" fill="black"/>
<path d="M347.319 58.7265V52.7737H359.24V110.792H349.741L347.688 104.469C347.225 104.052 345.801 106.231 345.259 106.687C336.326 114.236 320.496 112.836 312.656 104.288C304.383 95.2609 303.904 77.0016 308.386 66.1655C314.803 50.6506 335.602 46.8445 347.319 58.7186V58.7265ZM330.459 62.5404C314.952 64.7815 313.702 96.6999 329.72 100.647C353.162 106.427 355.167 58.9703 330.459 62.5404Z" fill="black"/>
<path d="M298.879 84.763H257.894C256.746 103.156 280.289 106.561 287.335 91.0853C290.064 92.5794 293.886 93.2557 296.536 94.7262C296.952 94.9542 297.401 95.0486 297.346 95.6698C297.283 96.3382 294.782 100.286 294.192 101.096C290.142 106.679 285.023 110.005 278.143 111.114C236.662 117.782 234.429 53.6387 270.365 51.6492C283.167 50.9415 293.595 57.8694 297.401 70.0658C297.786 71.2926 298.887 74.9884 298.887 76.0264V84.763H298.879ZM286.211 75.0907C284.724 59.8431 264.287 57.4447 258.829 71.7486C258.499 72.6215 257.611 74.5088 258.452 75.0907H286.211Z" fill="black"/>
<path d="M437.475 90.7236C439.889 97.3683 445.032 101.906 452.558 100.734C457.795 99.9162 459.627 92.3985 455.349 89.0643C447.729 83.1273 433.174 83.9766 431.57 70.404C429.203 50.3832 456.961 45.4055 466.484 60.7789L458.911 67.6517C456.552 63.0987 446.306 59.6465 443.672 65.096C439.583 73.5809 454.783 76.3253 459.847 78.9989C465.336 81.8927 469.087 85.4471 469.543 92.0132C470.919 112.018 445.41 117.31 432.623 104.689C431.42 103.502 427.229 97.8559 427.095 96.4247C427.032 95.772 429.855 94.3959 430.524 94.0106C431.444 93.4837 437.027 90.3461 437.467 90.7393L437.475 90.7236Z" fill="black"/>
<path d="M708 84.7629H667.015C665.914 103.329 689.111 106.38 696.629 91.1324C699.295 92.713 703.022 93.2635 705.657 94.7261C707.182 95.5754 705.877 96.8807 705.177 98.1232C699.452 108.322 690.055 112.521 678.425 111.491C643.164 108.385 646.86 45.1144 686.847 52.1367C697.604 54.0239 708 65.324 708 76.396V84.7629ZM695.332 75.0906C694.262 60.7237 674.328 57.4289 668.43 70.3724C668.084 71.1273 667.172 73.6437 667.156 74.3278C667.14 74.7839 667.219 74.8154 667.573 75.0985H695.332V75.0906Z" fill="black"/>
<path d="M621.477 51.7671C633.956 50.5954 644.839 55.7461 649.833 67.4707L639.311 72.0867C635.474 64.9386 630.512 61.5337 622.114 62.4459C605.993 64.1916 606.048 98.6658 621.775 100.726C630.15 101.819 635.552 98.3669 639.296 91.1324L649.841 95.7248C644.501 108.401 632.116 113.339 618.874 111.059C589.369 105.979 589.943 54.7238 621.484 51.775L621.477 51.7671Z" fill="black"/>
</svg>
