<svg width="328" height="328" viewBox="0 0 328 328" fill="none" xmlns="http://www.w3.org/2000/svg">
<path d="M260.95 163.931C260.95 217.591 217.51 261.031 163.85 261.031V163.931H260.95ZM163.85 66.8411V163.941H66.75C66.75 110.281 110.19 66.8411 163.85 66.8411Z" fill="black"/>
<path d="M163.85 66.8411V72.1611C214.45 72.1611 255.62 113.331 255.62 163.931H260.94C260.94 110.311 217.46 66.8311 163.84 66.8311M163.85 255.711C113.25 255.711 72.08 214.541 72.08 163.941H66.76C66.76 217.561 110.24 261.041 163.86 261.041M163.85 0.0810547C73.36 0.0810547 0 73.4411 0 163.931C0 254.421 73.36 327.781 163.85 327.781C254.34 327.781 327.7 254.421 327.7 163.931C327.7 73.4411 254.34 0.0810547 163.85 0.0810547ZM317.05 163.931C317.05 248.541 248.47 317.131 163.85 317.131C79.23 317.131 10.65 248.541 10.65 163.931C10.65 79.3211 79.25 10.7411 163.85 10.7411C248.45 10.7411 317.05 79.3311 317.05 163.941V163.931Z" fill="black"/>
<path d="M93.83 84.8905C99.07 79.4105 102.03 73.0905 96.7899 67.0405C93.9399 63.7605 89.1599 63.0405 85.1899 64.6605L84.8 64.8105L84.93 64.4705C85.52 62.9105 85.8899 57.9405 81.6299 54.5105C79.5499 52.8405 76.94 52.2205 74.31 52.4805C69.39 52.9805 65.61 56.3105 55.31 67.7205C52.2 71.1605 47.68 76.5905 44.96 80.1105L73.2499 106.761C82.6199 96.4605 86.45 92.6205 93.84 84.8905H93.83ZM56.92 78.3705C62.62 71.4505 68.67 65.1705 71.42 62.6805C72.29 61.9005 73.23 61.1105 74.37 60.8105C76.23 60.3005 78.14 61.6105 78.58 63.5105C79.01 65.4105 77.8099 67.2205 76.4699 68.7105C73.4599 72.0805 62.4099 83.5605 62.4099 83.5605L56.92 78.3705ZM67.9999 88.8105C67.9999 88.8105 78.76 77.5105 82.27 73.9005C83.67 72.4705 84.56 71.6005 85.52 71.1305C86.76 70.5305 88.12 70.4005 89.33 71.2105C90.52 72.0005 91.07 73.3705 90.77 74.7305C90.41 76.3505 89.09 77.8805 87.99 79.0605C86.51 80.6405 73.74 94.2005 73.7299 94.2205L67.99 88.8205L67.9999 88.8105ZM167.09 53.1005L176.15 32.9505L176.73 31.1605L176.57 33.0205L177.52 59.9505C180.7 60.2505 183.98 60.6905 187.21 61.2205L185.74 21.3405C181.22 20.8405 176.71 20.4905 172.21 20.3005L163.29 42.2905L162.97 43.9205L162.65 42.2905L153.74 20.3005C149.24 20.4905 144.73 20.8405 140.21 21.3405L138.74 61.2205C141.97 60.6805 145.26 60.2505 148.43 59.9505L149.38 33.0205L149.22 31.1605L149.8 32.9505L158.86 53.1005H167.11H167.09ZM242.3 94.7905C244.52 97.1605 247.73 100.981 249.53 103.311L282.68 82.4105C281.02 80.2605 278.39 76.9905 276.41 74.6905L255.42 88.4705L253.99 89.6905L255.06 88.1405L264.33 69.7705L257.78 63.2605L239.27 72.4705L237.71 73.5305L238.95 72.1105L252.84 51.2705C250.4 49.2105 248.05 47.3105 245.05 45.0205L224.01 77.9105C226.68 79.9505 230.19 82.9405 232.43 84.9705L252.24 74.7605L253.51 73.8305L252.58 75.0905L242.31 94.7805L242.3 94.7905Z" fill="black"/>
</svg>
