<svg width="317" height="259" viewBox="0 0 317 259" fill="none" xmlns="http://www.w3.org/2000/svg">
<path d="M167.6 108.881H149V122.481H167.6V108.881ZM176.6 169.581L167.6 160.581V135.081H149V148.681H155.6V169.681H107.6V148.681H116.6V108.881H107.6V87.8809H188L201.4 101.481V118.481L189.4 127.281L201.4 136.281V151.581H209V169.581H176.6ZM201.6 21.0808V63.7808L183.6 81.7808H134.6L116.6 63.7808V21.0808H107.6V0.0808105H157V21.0808H149.2V60.8809H176.7V21.0808H170V0.0808105H209.2V21.0808H201.5M284.5 21.0808H257V35.0808H284.6V21.0808H284.5ZM304 49.3809H257V60.6808H265.7V81.6808H215.5V60.6808H224.5V21.0808H215.5V0.0808105H302.5L317 14.0808V36.4808L304 49.2808M298.6 169.581H236.8L215.5 148.581V108.781L236.8 87.7808H285.5L291.5 95.4808L297.5 87.8809H317V122.281H291.5V108.781H248.7V148.781H291.5V135.081H317V151.581L298.6 169.581ZM200.2 257.781H107.6V236.781H116.6V197.081H107.6V176.081H158V197.081H149V236.881H183.8V210.481H209.2V248.081L200.2 257.781ZM308 257.781H215.4V236.781H224.2V197.081H215.4V176.081H265.6V197.081H256.6V236.881H291.6V210.481H317V248.081L308 257.781ZM85.6 81.7808H29L22.2999 74.5808L16.2999 81.7808H0V56.7808H22.7999V63.7808H65.5V52.0808H14.7L0 38.3809V18.3809L17 0.0808105H67.7999L74.5 7.28076L80.5 0.0808105H96.7999V25.0808H73.7999V18.0808H35.3999V29.8809H85L101.6 45.5808V64.5808L85.6 81.7808ZM92.3999 169.581H0V148.581H9V109.081H0V88.0808H92.3999L101.4 98.0808V126.081L76 126.281V109.081H41.3999V121.081H56.3999V136.281H41.3999V148.681H76V131.681H101.4V159.681L92.3999 169.681M92.3999 257.681H0V236.681H9V197.081H0V176.081H92.3999L101.4 186.081V214.081H76V197.081H41.3999V209.381H56.3999V224.381H41.3999V237.081H76V220.081H101.4V248.081L92.3999 258.081" fill="#100F0D"/>
</svg>
