<svg width="728" height="98" viewBox="0 0 728 98" fill="none" xmlns="http://www.w3.org/2000/svg">
<path d="M36.8353 63.8068C30.4489 65.6363 17.07 74.0094 18.2821 81.6978C18.6076 83.7742 20.5045 85.6262 22.2666 86.5802C30.7183 91.1147 45.8145 89.6219 55.1528 88.3087C62.0892 87.3322 68.7562 85.3792 75.5916 84.1109C76.0069 84.0324 76.916 83.5834 76.8262 84.3354C62.5157 91.2045 47.094 96.8389 30.9989 97.6358C6.40721 98.848 -8.28492 85.7272 5.01544 61.6743C21.7279 31.4482 56.2976 9.92072 89.6776 2.74862C104.662 -0.472646 134.394 -3.05417 144.046 11.9186C157.751 33.1655 122.687 59.3285 113.416 75.9175C108.556 84.616 115.751 83.6732 122.272 83.1232C147.054 81.0692 170.726 71.5626 193.566 62.6059C189.144 65.7486 184.251 68.3525 179.435 70.8667C161.892 80.0142 124.27 97.4225 104.953 95.1665C94.9529 93.9992 93.8866 85.5027 97.7701 77.6347C104.089 64.8507 121.43 49.9677 130.308 37.2061C140.365 22.7609 138.962 17.4744 122.283 11.4808C120.398 10.7962 111.474 7.83306 110.139 7.90041C109.611 7.92286 108.186 8.9779 107.636 9.37074C107.411 9.52788 106.861 9.37074 107.142 10.0666C107.49 10.9421 113.124 14.4664 112.384 15.1062C90.8561 18.3499 69.8561 24.4108 49.4174 31.6503L51.7183 39.0019C51.505 40.0682 43.7044 46.4995 42.5034 48.3178C42.234 48.7219 41.8524 48.6209 42.5034 49.1259C55.7364 53.0319 69.1827 49.7432 80.0699 41.662C79.823 39.709 77.8476 39.0581 76.8486 37.6551C81.5403 38.1602 85.1431 42.5936 84.5258 47.3076H81.6974C81.4729 46.5781 82.3035 43.8507 81.0913 44.0752C80.4515 44.1986 75.6701 47.8352 74.3008 48.576C66.2869 52.9645 56.2976 54.8614 47.2175 53.6941C43.6707 53.2339 40.3709 51.9319 36.869 51.3258V63.8068H36.8353Z" fill="black"/>
<path d="M264.243 81.9222H248.698L243.692 66.8709L219.852 66.6688L215.374 81.9222H199.627L222.434 16.2846L242.244 16.7111L264.254 81.9222H264.243ZM239.607 53.346L232.131 30.4043L231.099 31.3808L224.263 53.346H239.607Z" fill="black"/>
<path d="M446.801 16.3183V39.6641C448.204 39.4957 448.945 37.857 450.056 37.0714C455.129 33.5134 466.948 33.7827 471.977 37.3183C481.528 44.0302 481.326 70.1708 473.873 78.1173C469.115 83.1793 459.035 83.9201 452.772 81.8212C449.607 80.7549 448.305 78.8244 446.408 76.299L445.6 81.9334H432.67V16.3295H446.813L446.801 16.3183ZM453.165 44.9842C445.309 46.3087 445.264 58.756 446.51 64.7047C447.318 68.5657 449.046 71.4054 453.12 72.2023C461.168 73.7736 464.131 68.7453 464.603 61.6069C465.164 53.1665 464.378 43.0874 453.165 44.9842Z" fill="black"/>
<path d="M336.941 16.3183V39.6641C338.759 38.9794 339.668 37.2734 341.509 36.3755C346.695 33.8389 357.559 34.0858 362.352 37.4754C371.634 44.0527 371.309 70.3391 364.002 78.1173C359.198 83.2242 349.231 83.9425 342.901 81.8212C339.736 80.7549 338.434 78.8244 336.537 76.299L335.729 81.9334H322.799V16.3295H336.941V16.3183ZM339.096 70.1146C341.924 72.9543 348.468 73.1002 351.498 70.4626C355.831 66.6913 355.797 52.089 352.464 47.7453C349.624 44.0414 342.284 43.8618 339.107 47.0382C335.1 51.0452 335.111 66.1077 339.107 70.1146H339.096Z" fill="black"/>
<path d="M420.548 81.9224H407.618L406.204 77.5001C401.962 82.2366 395.306 83.2131 389.222 82.7417C379.401 81.9673 375.181 75.5135 376.113 66.0293C377.561 51.1912 395.743 54.1992 406.406 53.7503C407.046 42.8406 391.748 46.9935 385.002 47.3077V35.2308C393.308 35.1185 403.264 33.5696 411.244 36.2522C416.665 38.0704 420.548 42.8855 420.548 48.7107V81.9224ZM395.418 63.1223C387.651 64.0539 387.887 72.079 395.699 72.2922C400.94 72.4381 408.707 69.823 406.036 63.1896C405.463 62.7856 396.776 62.9651 395.418 63.1223Z" fill="black"/>
<path d="M530.015 81.9222H517.691L516.277 77.0959C513.505 80.7212 508.869 82.4273 504.38 82.7528C492.37 83.6058 484.828 78.858 485.995 66.0403C487.342 51.2135 505.716 54.1766 516.289 53.7613C516.928 42.8516 501.63 47.0045 494.884 47.3188V35.2418C503.852 35.1296 521.16 32.4358 527.411 40.461C528.208 41.4823 530.027 45.1862 530.027 46.3086V81.9334L530.015 81.9222ZM515.873 63.0098H505.166C503.471 63.0098 500.227 64.222 499.801 66.1189C498.229 72.9991 505.839 72.9767 510.542 71.5962C515.245 70.2156 516.446 68.0718 515.862 63.021L515.873 63.0098Z" fill="black"/>
<path d="M670.169 40.8651C675.388 33.1094 687.914 32.4696 694.805 38.2499L697.432 41.662C701.023 33.4124 716.726 32.3686 722.685 37.8347C724.391 39.3948 727.119 44.468 727.119 46.7016V81.9223H719.846V49.5187C719.846 48.2953 718.151 44.2323 717.242 43.2558C713.123 38.9009 703.111 41.011 699.878 45.7138C699.587 46.1291 698.442 48.4412 698.442 48.7106V81.9223H691.169V49.5187C691.169 48.329 689.608 44.4904 688.767 43.4691C685.624 39.6417 677.913 40.6182 674.232 43.1099C672.952 43.9853 669.765 48.1045 669.765 49.5187V81.9223H662.896V35.2307H670.169V40.8651Z" fill="black"/>
<path d="M285.637 16.3183H271.102V81.9222H285.637V16.3183Z" fill="black"/>
<path d="M626.463 34.5459C641.57 33.1541 649.775 39.6191 650.796 54.7378C651.649 67.3535 648.652 80.4069 633.972 81.8772C612.713 83.9986 606.641 72.2134 608.426 52.796C609.458 41.5833 615.25 35.5897 626.474 34.5459H626.463ZM626.452 40.5731C618.651 41.5159 616.541 46.7912 616.024 53.9296C615.048 67.4881 617.091 78.1397 633.5 75.7714C643.231 74.3684 643.647 62.9873 643.119 55.1306C642.367 44.1199 638.102 39.1589 626.452 40.5731Z" fill="black"/>
<path d="M311.104 35.6346H296.961V81.9222H311.104V35.6346Z" fill="black"/>
<path d="M599.076 36.0389V42.8855C593.138 40.5284 580.747 38.9795 576.459 44.6925C572.61 49.8331 572.576 66.3323 576.123 71.5963C580.309 77.8031 592.947 76.041 599.076 73.8747V80.1153C594.496 81.956 588.11 82.3601 583.126 81.9223C566.212 80.4183 563.675 63.1783 566.627 49.3841C570.151 32.8961 585.281 32.9411 599.076 36.0389Z" fill="black"/>
<path d="M299.677 15.2071C301.933 14.803 309.319 14.6683 310.868 16.3407C312.495 18.1029 312.529 26.8014 310.497 28.4064C308.241 30.191 299.228 30.2472 297.354 27.8004C295.379 25.2301 295.244 16.004 299.677 15.2071Z" fill="black"/>
<path d="M554.943 81.013C553.54 82.4385 546.918 82.3823 545.527 80.7549C544.135 79.1274 544.135 73.3358 545.571 71.8655C547.098 70.2941 553.226 70.3839 554.865 71.8543C556.739 73.5266 556.649 79.2845 554.943 81.013Z" fill="black"/>
</svg>
