<svg width="315" height="220" viewBox="0 0 315 220" fill="none" xmlns="http://www.w3.org/2000/svg">
<path d="M209.831 218.251H187.791V210.591C180.721 218.291 171.251 219.571 161.221 218.941C143.371 217.811 133.131 203.891 135.641 186.411C139.231 161.511 167.931 164.721 186.521 164.901L187.321 164.541V158.511C187.321 150.901 181.081 146.921 174.181 146.361C166.031 145.701 158.481 146.931 153.331 153.751L139.081 139.911C138.971 139.621 139.131 139.471 139.271 139.251C139.761 138.521 142.111 136.341 142.891 135.671C149.591 129.881 157.801 127.711 166.541 127.301C189.241 126.251 210.181 132.941 209.831 159.431V218.251ZM186.971 180.201H167.711C155.191 180.201 152.541 197.411 165.031 200.281C171.761 201.821 182.961 200.721 186.031 193.421C187.251 190.511 187.691 184.131 187.321 181.001C187.281 180.661 187.291 180.401 186.961 180.201H186.971Z" fill="black"/>
<path d="M127.231 218.251H104.721V160.831C104.721 159.481 103.441 155.951 102.751 154.681C96.9813 144.031 79.9113 145.461 75.9413 156.881C75.7113 157.551 75.0213 160.041 75.0213 160.601V218.251H52.5113V162.681C51.2913 141.431 22.8313 142.991 22.5713 163.151V218.261H0.30127V128.251H22.1113V136.371C34.5813 123.991 57.6313 123.771 68.4013 138.451C77.0713 129.041 89.6813 125.701 102.201 127.861C117.771 130.541 126.481 142.941 127.231 158.281V218.261V218.251Z" fill="black"/>
<path d="M78.5014 76.271H22.1214C22.1814 83.761 25.5414 91.001 32.4814 94.331C38.5214 97.231 48.0414 96.741 54.0714 93.941C57.3114 92.431 59.5614 89.991 62.3514 87.881L75.9514 101.201C69.5914 107.581 62.4314 112.371 53.4614 114.211C38.0914 117.351 18.6614 114.611 8.71138 101.401C-3.29862 85.461 -2.78862 52.401 9.61138 36.721C23.6914 18.911 54.7114 18.611 68.9914 36.251C78.2614 47.701 78.9714 62.071 78.5114 76.261L78.5014 76.271ZM56.2214 60.951C56.4214 50.161 49.5914 41.361 38.2314 41.921C29.0414 42.361 23.3814 49.331 22.3814 58.081C22.3214 58.571 22.0214 60.951 22.4714 60.951H56.2314H56.2214Z" fill="black"/>
<path d="M117.251 0.400879V26.8509H133.031V44.0209H117.251V89.3709C117.251 92.2409 121.101 95.2909 123.861 95.2909H133.031V114.311C128.761 114.161 124.421 114.511 120.151 114.311C105.621 113.601 96.2312 105.731 94.7412 90.9909V44.0109H85.2212V26.8409H94.7312V0.390869H117.241L117.251 0.400879Z" fill="black"/>
<path d="M218.181 76.2709H162.031V79.6309C162.031 80.5809 163.071 83.8809 163.481 84.9109C167.721 95.6109 179.591 97.9309 189.841 95.3609C194.801 94.1209 198.291 91.1509 202.031 87.8809L215.621 101.171C208.091 109.141 198.931 113.951 187.911 115.001C161.071 117.581 143.101 105.631 140.231 78.2309C137.131 48.6109 149.301 21.1809 183.041 23.3709C195.241 24.1609 206.321 30.8209 212.281 41.4609C218.241 52.1009 218.511 64.1209 218.191 76.2609L218.181 76.2709ZM162.031 60.9509H195.791C195.891 60.9509 196.181 60.5909 196.131 60.3909C195.711 54.7409 194.031 49.1209 189.521 45.4109C184.171 41.0109 175.601 40.8109 169.801 44.4709C164.411 47.8709 161.881 54.7609 162.031 60.9509Z" fill="black"/>
<path d="M251.361 114.311H229.091V24.301H250.901V32.651C260.931 22.321 278.881 19.981 290.801 28.351L275.961 46.931L275.651 47.0109C268.871 41.1609 258.391 42.821 253.821 50.531C252.221 53.231 251.681 56.1109 251.361 59.2009V114.311Z" fill="black"/>
<path d="M314.471 104.341L256.581 192.951L214.471 128.231H241.271L256.581 151.431L287.331 104.341H314.471Z" fill="black"/>
<path d="M213.081 218.251L240.111 176.721L253.671 197.251C249.391 204.401 244.601 211.231 240.101 218.251H213.071H213.081Z" fill="black"/>
<path d="M273.061 218.251C268.531 211.261 263.761 204.401 259.491 197.251L273.051 176.721L300.081 218.251H273.051H273.061Z" fill="black"/>
</svg>
