<svg width="695" height="368" viewBox="0 0 695 368" fill="none" xmlns="http://www.w3.org/2000/svg">
<path d="M343.047 367.391C260.601 367.391 190.887 313.056 167.691 238.247C167.622 237.886 167.761 237.525 168.122 237.462C168.483 237.393 168.844 237.532 168.906 237.893C193.171 305.877 261.941 354.887 343.012 354.887C424.084 354.887 492.853 305.87 517.119 237.893C517.188 237.532 517.549 237.386 517.931 237.462C518.292 237.532 518.438 237.893 518.361 238.247C495.165 313.056 425.452 367.391 343.005 367.391" fill="black"/>
<path d="M260.656 87.3434C260.587 87.2115 260.149 86.781 260.004 86.6769C259.497 86.3228 259.268 86.3436 258.858 86.4477C258.428 86.5519 258.351 86.6769 258.046 86.781C257.685 86.8852 257.31 86.8851 256.949 86.7532C256.213 86.5241 255.727 85.5799 255.164 84.9481C255.019 85.1286 254.734 85.4827 254.734 85.4827C252.748 84.6148 250.735 84.233 248.569 84.8995C248.354 84.9481 247.992 84.6982 247.756 84.6148C246.972 86.1909 245.312 86.4477 243.841 86.7532C243.188 86.8851 242.542 87.1837 241.876 87.5447C241.515 87.7947 241.154 88.5861 240.779 88.8708C240.418 89.204 240.015 89.0513 239.682 89.4054C238.585 90.5996 237.821 91.9742 237.8 93.2517C237.773 94.2446 237.439 95.0361 236.398 95.4943C235.967 95.6956 235.481 96.1261 235.28 96.5635C234.162 98.7505 233.017 100.993 232.1 103.312C231.739 104.256 231.593 105.555 231.107 106.415C230.323 107.866 230.677 109.165 230.962 110.588C231.253 112.067 232.079 115.427 232.079 115.427C227.469 115.531 220.165 115.781 214.361 116.059C214.313 115.323 212.862 112.976 212.577 112.546C212.285 112.143 211.556 109.922 213.007 108.394C213.514 107.811 215.125 105.492 215.125 103.992C215.174 100.271 213.646 96.2025 213.292 93.1684C215.125 90.5232 213.223 87.8502 213.361 85.1494C213.361 85.073 213 84.7468 212.855 84.5662C214.736 82.171 215.423 78.1996 214.125 77.4637C209.848 82.7333 212.341 89.7595 209.723 95.5637C209.508 96.3552 209.147 97.0912 209.939 97.959C210.675 98.7227 209.362 101.805 208.869 101.319C209.591 99.8683 207.571 98.5978 206.606 97.2717C206.314 96.8898 206.606 96.4316 206.606 96.022C208.258 94.3418 209.05 92.5852 207.474 90.3982C207.043 89.7873 207.182 88.7944 207.043 88.0029C208.925 87.267 209.973 85.9131 209.543 84.233C209.112 82.5042 209.612 80.9768 210.265 79.4493C211.049 77.5678 211.896 75.6794 212.709 73.7492C213.216 72.4995 213.577 71.3054 212.681 70.2084C212.535 70.0279 212.466 69.6946 212.535 69.5766C213.528 66.855 214.875 64.3069 216.486 61.8075C217.506 59.8982 218.673 58.1417 219.971 56.4337C201.968 71.354 187.201 89.4054 176.634 109.699C176.488 109.929 176.273 110.053 176.057 110.053C175.696 110.053 175.405 109.748 175.405 109.387L175.453 109.137C189.763 77.1859 212.778 50.0671 242.035 30.7174C272.029 10.8816 306.986 0.390869 343.096 0.390869C379.206 0.390869 414.156 10.8816 444.149 30.7174C473.407 50.0671 496.422 77.1859 510.731 109.137L510.78 109.387C510.78 109.741 510.488 110.053 510.127 110.053C509.912 110.053 509.697 109.922 509.551 109.72C507.253 105.242 504.712 100.938 502.011 96.7371C500.741 95.7442 499.491 94.8278 498.776 93.2517C498.2 91.9256 495.846 91.4952 494.805 90.3219C493.735 89.1277 492.437 88.003 491.722 86.6005C490.271 83.6984 487.806 82.0668 484.953 80.5671C482.099 78.6579 479.836 75.9085 476.829 73.9506C476.538 73.7978 476.323 74.2005 476.107 74.4852C476.538 76.575 478.142 78.3315 480.079 79.6507C481.912 81.3031 483.029 83.5734 485.48 84.7398C487.744 86.1145 489.528 88.2043 491.514 89.9817L491.444 90.1136L491.083 90.5996C490.507 90.1691 489.882 89.7317 489.299 89.3013L489.153 89.3776C489.445 90.0442 489.514 90.9051 489.993 91.1828C491.444 92.1478 491.694 93.6753 491.493 94.8C491.465 94.9805 491.444 95.1333 491.423 95.286C491.375 95.4874 491.354 95.6887 491.354 95.897V95.9734C491.326 96.1261 491.326 96.2233 491.326 96.4038C491.326 97.1953 491.472 97.9313 491.687 98.6672C491.757 99.0699 491.833 99.4795 491.979 99.9169C490.611 99.0005 489.208 98.1604 487.882 97.1953C487.591 96.9662 487.591 96.3552 487.452 95.897L487.48 95.8692L487.452 95.6887C488.028 94.7722 489.535 95.3555 490.785 95.1541C489.535 90.4468 485.286 88.5376 481.745 85.6077C480.093 84.2607 478.586 82.7542 477.135 81.2267C475.989 79.977 474.767 78.5815 473.066 78.1718C472.705 78.6301 472.344 78.9842 472.101 79.5188C471.81 80.0811 471.956 81.553 471.365 81.428C470.018 81.1434 468.033 80.0812 466.832 80.9698C466.54 81.6364 466.804 82.9069 467.484 83.3859C469.164 84.7884 468.137 86.1353 466.832 87.2045C465.894 88.0932 465.943 89.6206 465.943 90.8217C465.943 91.3077 465.874 92.0437 466.089 92.245C468.026 93.4948 466.977 95.404 467.311 97.0079C467.283 98.3339 467.165 100.396 465.575 100.57C461.375 100.924 459.743 104.694 459.007 103.624C457.841 102.583 457.48 102.25 456.709 101.514C455.765 100.57 454.952 100.111 453.605 101.111C452.953 101.597 451.8 101.493 450.808 101.646C450.516 100.729 450.377 99.9378 450.085 99.2782C449.724 98.3895 449.655 97.4175 448.253 97.1884C447.822 97.1398 447.156 97.0078 447.26 95.7373C447.621 91.5646 445.857 88.3778 443.413 85.1425C443.198 84.8092 442.268 84.476 442.191 84.0733C441.976 83.0527 442.976 83.6914 443.67 83.2054C444.323 82.7472 443.622 81.9071 445.989 82.0876C449.655 82.3723 453.376 81.6294 457.521 81.2961C455.258 77.9844 454.904 75.4641 454.105 74.5754C453.453 73.784 451.051 72.2565 449.058 71.2151C448.551 70.9651 447.836 70.861 447.225 70.8818C445.725 70.9304 444.455 70.5972 443.587 69.278C444.885 67.2924 447.1 69.0281 448.884 68.1047C448.232 67.4173 446.975 66.5009 446.947 65.9663C447.787 65.5844 449.266 66.369 450.127 66.5495C450.634 65.7094 451.092 65.0984 451.578 64.307C451.363 63.9043 450.509 62.9809 450.69 62.6545C452.654 60.6411 452.856 61.4603 451.911 58.7596C452.272 58.4749 452.751 59.5511 453.258 60.1343C453.404 59.4469 454.48 58.7596 452.238 57.4891C452.092 57.3571 452.745 57.1072 453.126 56.8225C453.418 56.6212 453.099 56.2879 453.418 56.156C454.14 55.8713 455.05 56.0033 455.279 55.7533C453.369 54.2259 451.891 52.6221 450.03 51.2196C448.683 50.3032 448.016 49.2617 448.933 48.2133C449.981 48.7966 451.051 49.3312 452.064 49.9213C452.717 50.6364 452.21 51.421 453.411 51.8584C453.703 51.657 455.216 51.5529 455.293 51.2474C455.438 50.8933 454.272 50.1782 454.147 49.9213C453.571 48.9285 450.967 46.9428 450.079 46.915C448.961 46.8664 447.024 45.5404 446.184 44.7489C446.475 44.9988 445.677 45.3321 445.677 45.589C445.024 48.1856 441.928 47.1928 440.942 45.4571C440.726 45.1238 439.997 45.3807 439.741 45.0752C437.984 43.0895 438.06 43.5477 435.922 42.3536C435.776 42.2217 435.873 41.8676 435.776 41.2844C435.63 39.757 433.589 38.8891 433.589 38.5072C433.589 38.1045 435.29 38.3267 435.499 35.7093C425.133 30.155 414.239 25.5727 402.985 22.011C401.506 22.2123 400.055 22.5456 398.833 23.108C396.75 24.2049 394.223 24.1008 391.856 23.6426C390.71 23.4412 390.224 23.9272 389.717 24.8645C389.287 25.656 388.113 25.7046 387.398 26.3642L387.905 27.4333C387.329 28.5026 386.607 29.1413 385.843 30.5368C383.656 29.6967 381.795 28.6276 379.525 28.2457C377.026 27.843 375.075 26.7668 373.443 24.9131C371.687 22.976 369.139 21.5527 367.59 19.4143C367.16 18.8311 367.084 17.8869 367.229 17.2273C367.375 16.7136 368.076 16.415 368.757 16.2345C369.187 16.1859 369.722 16.3872 370.159 16.3664C370.59 16.3178 371.707 15.1167 372.173 14.9154C366.591 14.1239 360.967 13.5407 355.315 13.1866C356.766 13.5407 357.815 14.3044 358.474 15.6583C357.711 15.6305 357.023 15.5819 356.357 15.5264L356.308 15.8318C359.974 17.4356 365.528 19.3935 366.771 20.6154C366.84 20.9487 365.549 21.282 362.619 22.1151C361.897 22.2679 360.835 20.8168 356.482 19.2616C356.336 19.213 355.746 19.5948 355.76 19.6157C355.905 20.0808 356.121 20.6085 356.496 20.8862C357.898 21.8027 359.398 22.6706 361.05 23.6356C360.134 24.323 358.329 23.7884 359.189 25.7254C357.107 24.5799 355.274 23.587 353.441 22.5942L353.295 22.7955C354.316 23.6356 355.308 24.4271 356.329 25.2394C356.26 25.3922 356.183 25.5241 356.037 25.6976C352.858 25.0658 349.851 23.7883 346.769 22.7469C346.408 22.5942 345.568 21.525 345.29 21.2195C345.29 21.2195 342.388 19.6157 341.013 19.2061C339.645 18.8034 337.93 18.5395 336.202 18.6228C334.473 18.7062 334.084 18.0397 334.084 18.0397C334.084 18.0397 334.66 16.9705 335.514 16.8941C336.354 16.8941 338.569 17.4773 339.895 17.5606C341.242 17.7134 343.228 17.8939 343.228 17.8939C343.082 17.3107 343.013 17.0816 342.936 16.6997C344.387 16.5192 345.838 16.3178 347.421 16.1165C347.06 15.325 347.352 14.0059 345.72 15.1237C345.429 15.325 344.672 14.9223 343.811 14.7696C344.318 14.4363 344.547 14.3114 344.776 14.1378C344.269 14.0614 343.658 14.0058 343.228 13.8045C342.721 13.5546 342.332 13.2213 341.957 12.8117C336.153 12.8603 330.37 13.1449 324.614 13.6795C325.35 15.5888 327.745 15.6652 328.967 17.6509C327.03 17.3662 325.1 16.8385 323.218 16.6302C322.149 16.658 320.775 17.2968 319.754 17.1926C319.032 17.1162 318.553 15.4847 318.483 15.5402C319.323 14.7279 320.879 14.346 322.503 13.8878C318.754 14.2697 315.04 14.7765 311.353 15.3389C300.356 17.5814 297.12 20.8376 295.565 22.4137C295.565 22.4137 297.53 23.4829 298.162 23.8925C297.655 24.7326 297.245 25.4685 296.891 26.0587C298.592 26.5933 303.105 28.0721 304.403 28.9122C306.639 32.4253 310.971 32.1684 314.54 33.3695C313.755 34.4873 313.575 35.6884 312.887 36.7299C312.742 36.959 312.742 37.4172 312.887 37.6949C313.318 38.6114 313.394 39.2709 313.957 40.1874C314.102 40.3887 314.463 40.722 314.693 40.7012C319.761 40.5693 319.428 39.0488 320.191 35.0011C322.663 34.6678 328.773 34.8692 329.411 31.9185C329.481 30.2661 327.731 28.7386 326.461 28.329C326.53 28.1763 326.676 27.9749 326.752 27.7944C327.69 27.7458 330.085 26.8016 330.39 26.4683C329.96 25.8851 330.536 25.8018 329.738 24.8645C330.606 24.684 331.036 24.684 331.237 24.1008C331.286 23.948 331.237 23.5384 331.168 23.2885C331.119 23.1357 331.14 22.9552 331.217 22.8302C331.362 22.6775 331.508 22.5803 331.793 22.6011C334.341 22.8858 336.986 23.2885 339.506 23.8995C340.652 24.2327 342.054 24.7881 342.686 25.6838C343.985 27.5445 345.79 27.4681 347.421 28.1276C345.873 29.78 346.845 31.4602 348.442 32.5086C351.927 35.0288 355.621 33.2237 358.752 31.488C359.849 33.1196 362.932 35.9453 364.154 37.4241C364.154 37.4241 363.793 38.417 365.251 40.8609C366.778 43.3811 370.978 44.4989 373.881 45.7486C372.985 46.6929 373.45 47.047 377.63 49.0048C377.56 49.6922 377.602 50.4073 377.123 50.81C376.401 51.4765 375.311 51.7542 374.603 51.9278C373.506 52.2611 372.464 52.0042 371.603 51.8792C370.333 51.6779 369.083 51.5945 367.833 52.0805C365.334 53.0456 362.994 52.7679 360.502 52.0528C356.752 50.9836 352.989 50.0671 349.199 49.1993C347.65 48.8174 346.047 48.741 344.616 49.9144C344.186 50.2684 343.165 50.1157 342.402 50.2476C340.437 50.5531 335.473 52.3374 333.772 53.1984C338.257 52.1014 342.839 51.0113 348.435 51.2127C349.379 51.2613 350.268 51.4626 351.538 52.2055C351.899 52.4068 352.302 52.872 352.191 53.2469C352.142 53.5316 351.469 53.8579 351.122 53.8579C349.872 53.962 348.622 53.9065 347.373 53.9065C347.345 54.0593 347.303 54.1912 347.303 54.3092C348.449 54.4411 349.567 54.5939 350.997 54.7397C350.185 55.1701 349.497 55.5034 348.782 55.913C349.358 58.5582 351.504 59.6275 354.204 60.1412C355.045 60.294 356.322 60.8077 357.183 61.1063C358.662 60.3425 360.064 59.6066 361.46 58.8151C361.821 58.6138 362.3 58.7665 361.89 59.2734C361.043 60.1135 361.744 60.0648 361.529 60.4675C361.89 60.8008 362.341 61.1826 362.751 61.5367C362.897 61.6686 362.897 61.7867 362.682 61.9186C360.877 61.6339 360.925 62.4046 358.731 62.0713C358.585 62.3004 359.307 62.7379 358.155 62.6545C354.086 62.6268 349.983 61.988 346.033 63.3905C345.193 63.696 344.276 63.9043 343.714 62.9045C343.499 62.5712 343.137 62.113 343.207 61.8631C343.353 61.4604 343.86 61.0507 344.255 60.9743C345.602 60.6689 347.005 60.5161 348.435 59.9329C348.365 59.0928 345.484 59.5511 342.908 59.5303C341.86 60.3426 338.257 60.2176 335.959 60.0162C333.161 59.6621 329.675 60.7313 328.266 62.842C328.051 63.1961 328.335 63.7862 328.696 64.0362C329.057 64.3694 330.349 64.4666 330.279 64.9248C324.295 64.9734 322.691 63.6265 319.435 63.932C319.435 64.0362 319.865 64.1611 319.726 64.4944C320.157 64.5708 320.615 64.6471 321.024 64.7999C321.386 64.9318 322.274 64.9804 322.885 65.0498C323.031 65.1262 323.031 65.2304 322.885 65.2998C321.969 65.2998 320.566 65.3762 320.212 65.2998C319.4 65.0151 318.608 65.2998 318.025 65.2998C317.373 66.1676 316.289 66.1676 315.762 66.7022C315.186 67.1604 314.644 68.9656 313.644 68.7643C313.616 67.8756 312.707 67.6465 312.374 67.2368C312.228 67.341 312.013 67.4173 311.867 67.4868C312.887 70.6666 309.569 70.493 308.687 72.326C308.326 72.5759 308.395 72.076 308.257 71.9927C308.618 71.5344 308.618 71.1804 308.833 70.9512C308.326 70.3403 308.833 68.9656 308.833 68.0769C308.687 67.827 308.18 67.8964 308.048 68.4102C307.618 69.889 307.028 71.0832 307.326 72.6106C308.139 74.263 307.354 75.9223 305.493 76.3806C304.986 76.5333 304.014 76.3806 304.271 77.422C304.271 77.4498 303.549 77.7761 303.126 77.7761C300.71 77.7483 299.536 78.158 298.314 79.2272C294.899 78.8939 292.614 81.4905 289.58 82.2057C287.949 82.5875 286.345 83.8581 285.331 85.1356C283.248 88.3154 284.824 92.7727 284.165 96.3413C283.873 97.9451 282.151 99.7295 281.999 100.972C281.999 100.972 281.707 101 281.492 101.021C280.985 101.049 279.631 101.507 279.173 100.889C279.749 99.7711 278.284 97.7854 277.854 96.0775C277.423 94.4737 277.423 92.3353 278.145 90.8079C278.576 89.9192 278.576 89.7109 277.715 88.9472C277.5 88.7667 277.354 88.5167 277.284 88.3154C276.708 86.7116 276.118 86.2533 274.355 86.9893C273.514 87.392 272.806 87.2392 272.216 86.2533C271.786 85.5382 270.585 85.08 269.668 84.6773C268.62 84.2746 267.301 85.3091 266.252 83.9414C265.891 83.4831 262.892 84.344 261.823 84.4551C261.677 84.5315 262.184 85.448 261.531 85.802C261.385 85.934 261.101 86.0034 261.17 86.2325C261.17 86.3089 261.531 86.9199 261.385 87.0726C261.094 87.3225 260.955 87.3225 260.955 87.3225H260.663L260.656 87.3434ZM461.569 54.7744C462.562 52.8373 460.319 51.7959 458.924 50.9072C458.493 50.6572 457.806 50.803 456.987 50.7267C457.417 51.3376 457.563 51.6709 457.875 52.0528C457.514 52.2055 457.153 52.3374 456.827 52.4555C456.973 52.9137 457.042 53.3233 457.257 53.9829C456.292 53.7329 455.626 53.5247 454.939 53.3719L454.793 53.6566C455.758 54.1217 456.73 54.6008 457.827 55.1077C458.257 53.9343 458.896 53.608 459.965 54.7744C460.18 55.059 461.465 54.9757 461.569 54.7744Z" fill="black"/>
<path fill-rule="evenodd" clip-rule="evenodd" d="M342.513 13.9851C342.943 16.0471 339.534 14.9293 338.18 14.7974C339.631 13.1936 341.159 14.0614 342.513 13.9851Z" fill="black"/>
<path d="M376.352 53.6566C373.2 54.0871 373.318 55.2882 372.964 56.1005C374.061 56.2533 375.817 55.8992 376.81 56.0241L376.956 56.3782C376.741 56.4824 376.595 56.5796 376.06 56.8365C378.504 57.628 380.691 58.2875 382.961 58.9471C382.746 59.6136 381.844 60.4745 381.642 61.0091C382.892 61.7243 383.906 61.3146 383.982 61.5229C384.128 61.7243 382.552 62.4116 381.969 62.8212L382.114 63.0712C382.767 62.8698 384.197 62.2797 384.413 62.4046C384.989 62.8351 383.69 62.9879 383.392 63.8279C384.114 63.7238 384.794 63.4738 385.148 63.3974C385.294 63.5988 385.003 63.7793 385.364 64.064C384.197 66.2302 384.315 66.251 382.948 65.1818C382.802 65.0499 383.454 64.5986 382.899 64.2376C382.684 64.1056 382.538 64.5916 382.031 64.7999C381.67 64.6472 381.309 64.5708 380.865 64.4667C381.011 64.0362 381.983 63.6266 381.372 62.9878C379.435 63.2933 377.421 63.4739 375.671 63.3905C375.241 63.2864 375.38 62.9878 375.644 62.9045C376.692 62.9323 378.213 62.6546 378.143 62.5018C375.776 61.7867 373.79 61.3285 371.624 60.6689C369.59 60.0024 366.125 60.5162 365.34 59.1415C364.618 57.871 367.861 55.4757 371.297 53.5664C372.033 53.1081 374.068 52.7263 376.06 52.6499C376.276 52.754 375.845 53.4414 376.352 53.6427" fill="black"/>
<path fill-rule="evenodd" clip-rule="evenodd" d="M475.982 81.6641C476.704 83.6011 477.864 84.7467 477.843 85.8645C476.239 85.073 475.399 84.1843 475.427 83.1151C475.455 82.6569 476.003 82.6847 476.003 81.6641" fill="black"/>
<path d="M349.948 57.1419C350.24 57.0377 350.67 56.51 350.913 56.3018C351.906 58.697 354.503 57.7806 356.259 58.947C355.371 59.1483 354.579 59.3497 353.76 59.558C351.594 58.6137 351.392 58.461 349.941 57.1419" fill="black"/>
<path d="M352.01 50.8516C354.128 50.4698 356.724 51.6431 358.655 53.5246L358.439 53.9828C355.509 53.1913 353.392 51.7959 352.024 50.8516" fill="black"/>
<path d="M424.32 61.6757C424.612 60.8078 424.466 59.8914 424.175 59.4887C423.209 58.9055 423.307 58.8777 422.342 58.2945C422.39 58.1417 422.196 57.4822 422.196 57.3017C423.036 56.899 423.244 56.6143 423.8 56.1561C424.668 55.0591 423.439 54.9619 423.654 54.6564C424.702 53.3303 426.125 52.5458 427.472 52.2125C428.125 52.7957 428.771 53.3859 429.611 54.1218C429.583 54.1704 429.396 54.705 429.25 54.9619C430.118 55.7742 431.465 56.7185 431.923 59.0374C429.757 60.9467 427.875 62.731 426.605 63.4183C425.952 63.821 425.022 63.8002 424.57 63.4669C424.279 63.217 423.994 62.7518 424.279 61.6826" fill="black"/>
<path d="M430.125 52.8651C429.979 52.4624 429.909 52.1014 429.764 51.7196C429.333 51.8515 429.187 51.5876 428.361 51.8723C428.792 51.1086 428.868 51.0808 429.125 50.6781L428.694 50.9072C428.333 50.3934 428.118 49.7894 427.702 49.4076C427.125 48.873 426.355 48.5397 425.896 48.2898C426.403 47.3733 426.917 46.561 427.445 45.7209C428.208 45.7209 429.257 45.7209 430.576 45.6931C429.43 47.4774 430 47.9079 431.777 47.6302C433.305 47.4011 434.249 47.9634 434.145 49.6159C434.096 50.1296 434.214 50.6573 434.214 50.81C437.679 53.3303 441.879 54.58 444.094 58.2944C445.642 56.8434 448.114 58.0445 447.405 61.7312C447.836 61.8839 448.273 62.0853 448.704 62.2935C448.676 62.4741 448.676 62.6476 448.676 62.6754C448.023 63.8487 442.719 63.6404 440.525 64.5847C439.359 65.0707 440.095 63.1614 436.63 64.8346C438.158 61.4743 438.866 62.4671 439.685 61.752C438.539 61.5229 437.213 61.2174 435.485 60.8078C436.734 60.1204 437.803 58.4888 435.991 58.3638C435.7 58.3361 435.7 57.6973 435.485 57.2461H437.422C437.567 57.1141 437.637 56.9614 437.783 56.892C436.915 55.4409 436.352 54.9827 435.033 53.8371C433.784 53.7885 431.465 55.316 431.798 52.0528C431.076 52.3861 430.597 52.5874 430.097 52.8651L430.125 52.9137L430.055 52.8651" fill="black"/>
<path d="M479.954 93.1199C479.523 90.6482 478.044 89.8636 477.253 88.1765C477.107 87.871 477.76 87.2601 478.121 86.6769C479.773 88.4334 481.051 90.7246 481.224 92.0507C481.294 92.8421 480.794 92.1826 480.384 93.3004C480.238 93.2518 479.954 93.2518 479.954 93.1199Z" fill="black"/>
<path d="M334.723 296.122C334.723 295.47 333.376 295.831 332.459 295.977C332.168 296.004 333.223 296.553 329.759 298.754C330.265 298.754 332.689 298.802 331.876 299.184C329.099 301.42 326.35 302.899 323.343 304.731C323.052 304.877 322.607 304.947 322.378 304.877C320.899 303.912 319.018 304.877 317.539 302.892C316.963 302.052 316.012 302.17 315.637 301.927C315.491 301.878 314.852 300.399 314.616 300.524C314.547 300.594 313.853 300.955 313.894 301.177C313.964 301.468 314.401 301.989 314.401 301.989C315.123 302.774 316.262 303.641 316.845 304.405C316.914 304.551 316.796 305.19 316.414 305.808C316.269 306.099 316.269 306.828 316.63 307.488C316.776 307.849 317.498 307.703 317.393 308.356C317.178 309.675 314.623 311.536 313.117 311.459C311.207 311.431 309.298 311.244 307.417 311.029C305.813 310.813 304.438 311.994 304.868 313.598C305.16 314.514 304.82 314.799 304.146 314.743C302.411 314.597 300.835 314.236 299.279 313.313C299.064 315.958 299.307 316.243 301.494 316.645C301.855 316.715 302.147 317.458 302.612 318.013C301.064 318.52 298.974 318.159 299.404 320.228C299.55 320.735 299.189 321.346 299.043 321.88C298.127 322.241 296.37 322.241 296.044 322.845C295.614 325.032 297.905 324.727 299.481 325.775C299.55 326.428 299.55 327.046 299.411 327.303C298.905 327.879 297.627 328.754 297.016 329.212C297.065 329.948 297.162 330.51 296.87 330.816C296.44 330.885 295.773 331.177 295.322 331.246C295.614 332.697 296.572 333.642 296.926 334.225C296.877 334.516 295.78 333.933 295.065 333.864L297.363 335.363C298.682 336.127 298.127 336.384 299.377 337.53C300.543 338.578 301.133 338.779 301.078 338.911C301.008 339.127 301.293 340.23 297.717 339.057C293.468 337.675 292.371 337.148 287.379 332.309C287.379 332.309 284.706 329.913 282.894 324.873C282.748 324.512 282.318 324.06 282.533 323.755C282.679 323.54 282.964 323.463 283.526 323.54C283.477 323.033 283.575 322.241 283.311 322.04C282.88 321.679 281.402 322.471 281.325 321.464C281.901 319.964 282.165 320.297 282.422 318.846C282.492 318.416 281.992 317.902 281.992 315.791C281.992 315.43 282.568 315.285 282.832 315.5C283.262 316.416 283.616 317.687 284.262 318.27C283.54 313.889 284.116 315.167 283.686 311.952C283.179 311.299 282.964 311.661 282.797 311.661V314.792C281.527 314.646 281.061 314.215 281.346 312.271C281.395 311.98 281.853 312.202 281.374 311.279C280.943 310.494 281.082 309.265 281.082 308.606C281.929 306.342 281.152 304.252 280.214 302.322C278.965 299.927 280.242 300.67 280.506 299.677C281.776 295.498 283.769 291.401 282.589 286.743C282.228 285.423 281.52 283.889 282.804 282.542C282.95 282.396 282.873 281.966 282.804 281.702C282.04 279.466 283.096 277.502 283.568 275.419C283.859 274.016 283.998 272.565 284.144 271.142C284.436 268.795 284.72 266.407 284.505 264.06C284.554 262.408 284.456 261.616 284.651 260.367C284.797 259.27 285.644 258.228 285.699 257.103C285.748 254.555 285.553 252.007 285.408 249.466C285.38 249.036 285.262 248.473 284.977 248.147C281.846 244.377 278.715 240.663 274.459 238.163C271.404 236.358 270.008 233.248 268.342 229.533C268.05 228.957 267.766 228.131 267.377 227.27C293.121 226.458 318.81 225.999 344.45 226.02C363.723 226.02 386.183 226.152 405.485 226.603C405.339 229.249 405.193 232.303 405.193 232.817C404.901 236.483 404.276 236.684 402.673 240.052C401.291 242.725 399.007 243.919 396.993 245.453C393.862 247.849 390.196 249.473 387.343 252.25C386.322 253.063 385.406 254.333 384.26 254.666C379.449 255.916 380.164 260.471 378.407 263.935C376.776 267.629 374.658 269.253 372.45 273.023C371.485 274.343 369.652 275.162 368.271 276.155C367.306 278.522 365.119 279.39 363.202 280.64C361.446 281.147 359.516 279.987 357.704 279.793C356.003 279.501 353.885 280.709 353.274 281.959C349.837 281.383 347.727 282.896 344.818 284.222C342.603 285.16 342.068 287.152 342.117 289.138C342.166 290.665 341.541 291.533 340.465 292.116C338.201 293.366 336.57 295.171 334.764 297.032C334.001 297.816 333.383 297.9 333.286 297.9C333.258 297.927 332.709 297.969 334.764 296.095H334.723V296.122Z" fill="black"/>
<path d="M609.196 222.924C607.057 217.3 604.891 211.718 602.732 206.143C590.866 205.178 578.973 204.282 567.108 203.442L560.609 219.251C553.41 218.765 546.196 218.286 538.989 217.876C551.285 189.917 563.56 161.986 575.856 134.187C578.855 134.416 581.889 134.617 584.896 134.853C587.93 135.083 590.929 135.284 593.963 135.541C606.238 165.228 618.506 194.993 630.781 224.784C623.602 224.118 616.395 223.535 609.189 222.924H609.196ZM574.266 186.002C581.368 186.536 588.471 187.071 595.58 187.633C592.012 178.441 588.478 169.276 584.909 160.084C581.375 168.742 577.807 177.372 574.266 186.002Z" fill="black"/>
<path d="M245.507 213.704C233.69 185.342 221.88 157.105 210.063 128.889C217.603 128.556 225.164 128.258 232.697 127.973C239.515 145.747 246.347 163.521 253.165 181.287C259.99 163.111 266.814 144.928 273.632 126.772C281.193 126.591 288.733 126.439 296.294 126.307C284.456 155.203 272.64 184.183 260.823 213.231C258.275 213.308 255.706 213.363 253.158 213.433C250.61 213.509 248.069 213.613 245.493 213.683" fill="black"/>
<path d="M20.3981 194.534C20.3981 206.809 24.9805 212.558 35.7003 211.468C46.4478 210.399 51.0301 203.775 51.0301 191.507V139.797C57.8271 139.13 64.652 138.526 71.4491 137.936V189.98C71.4491 213.912 59.5074 227.562 35.7003 229.901C11.9209 232.269 0 220.987 0 197.055V145.011C6.79707 144.275 13.5941 143.532 20.3981 142.845" fill="black"/>
<path d="M505.774 161.868C519.063 167.346 537.246 174.011 537.246 191.757C537.246 209.503 524.284 219.487 501.629 218.362C488.264 217.696 474.281 209.732 470.31 207.337C470.164 207.26 470.018 207.184 469.879 207.087V186.717C470.31 186.966 470.692 187.203 471.101 187.508C483.3 195.222 493.381 199.575 501.601 200.595C511.405 201.845 515.959 198.915 515.959 193.035C515.959 190.591 513.925 188.175 509.516 186.008C506.996 184.738 503.969 183.488 500.754 182.162C486.494 176.386 468.775 170.727 468.775 150.995C468.775 133.555 484.154 126.376 499.407 127.112C511.071 127.647 524.971 133.527 531.49 137.325C531.636 137.401 531.782 137.505 531.921 137.575V157.945C531.49 157.695 531.108 157.432 530.699 157.154C526.679 154.585 512.522 146.08 499.407 145.469C492.812 145.163 489.958 147.559 489.958 150.634C489.958 152.821 492.076 155.418 496.422 157.688C498.991 159.063 502.275 160.41 505.739 161.861" fill="black"/>
<path d="M440.92 180.17C447.69 191.473 454.438 202.783 461.214 214.113C453.577 213.829 445.912 213.579 438.275 213.377C432.29 202.963 426.306 192.577 420.3 182.239C415.634 182.134 410.983 182.037 406.324 181.954V212.586C399.624 212.454 392.931 212.385 386.231 212.301V126.168C401.61 126.321 416.988 126.654 432.367 127.057C448.384 127.487 457.5 138.436 457.5 154.911C457.5 171.387 448.689 177.524 440.927 180.17H440.92ZM406.22 163.979C412.482 164.132 418.773 164.263 425.035 164.382C434.429 164.631 436.317 159.39 436.317 154.96C436.317 150.53 434.408 145.157 425.035 144.928C418.773 144.747 412.482 144.622 406.22 144.497" fill="black"/>
<path d="M181.264 216.432C181.216 187.71 181.195 159.015 181.195 130.299C187.964 129.917 194.768 129.584 201.537 129.306V215.419C194.789 215.752 188.041 216.085 181.299 216.439" fill="black"/>
<path d="M324.815 177.448V193.944C340.221 193.812 355.599 193.812 370.999 193.944V212.121C348.976 211.968 326.946 212.044 304.951 212.322C304.903 183.599 304.882 154.904 304.882 126.182C326.752 125.897 348.65 125.828 370.52 125.98V144.06C355.294 143.956 340.068 143.956 324.843 144.06V159.285C335.181 159.209 345.518 159.181 355.856 159.209V177.413C345.518 177.385 335.181 177.413 324.843 177.441" fill="black"/>
<path d="M144.044 132.43C150.792 132.028 157.541 131.618 164.282 131.236V217.376C158.763 217.682 153.257 218.008 147.731 218.369L147.515 218.036C134.532 201.588 121.542 185.217 108.587 168.894V221.091C101.838 221.604 95.0897 222.132 88.3481 222.667V136.533C94.8953 136.02 101.435 135.492 107.976 135.006L108.191 135.291C120.133 150.26 132.074 165.333 144.044 180.433" fill="black"/>
<path d="M639.341 139.436C646.089 140.047 652.81 140.706 659.558 141.373V209.455C671.146 210.6 682.727 211.794 694.287 213.093V231.144C676.027 229.131 657.746 227.249 639.445 225.569C639.417 196.874 639.376 168.151 639.376 139.436" fill="black"/>
</svg>
