<svg width="727" height="121" viewBox="0 0 727 121" fill="none" xmlns="http://www.w3.org/2000/svg">
<path d="M286.926 17.9654H213.29V34.2523H240.476V103.67H259.771V34.2523H286.956V17.9654M358.946 74.5638C355.931 82.1715 349.188 87.6744 341.129 89.1133C339.659 89.3735 338.167 89.5113 336.674 89.519C335.143 89.519 333.636 89.3735 332.189 89.1133C324.138 87.6744 317.402 82.1715 314.402 74.5638C312.68 70.1783 311.8 65.5096 311.8 60.795C311.8 56.0957 312.688 51.4346 314.402 47.0567C317.402 39.4414 324.138 33.9232 332.189 32.4767C335.151 31.9256 338.19 31.9256 341.159 32.4767C349.211 33.9156 355.938 39.4185 358.946 47.0262C362.398 55.8814 362.398 65.7086 358.946 74.5638ZM336.674 15.3861C311.586 15.3861 291.25 35.7218 291.25 60.8103C291.25 85.8988 311.586 106.234 336.674 106.234C361.763 106.234 382.098 85.8988 382.098 60.8103C382.098 35.7218 361.763 15.3861 336.674 15.3861ZM382.374 17.9884H405.105L426.305 54.8098L447.506 17.9578H470.214L435.941 71.9616V103.663H416.677V71.9616L382.374 17.9578M515.998 89.519C517.506 89.519 519.006 89.3735 520.452 89.1133C528.504 87.6744 535.239 82.1715 538.239 74.5638C541.714 65.7239 541.714 55.8966 538.239 47.0567C535.239 39.449 528.504 33.9461 520.452 32.5072C517.49 31.9791 514.452 31.9791 511.482 32.5072C503.438 33.9538 496.719 39.4567 493.726 47.0567C492.004 51.4346 491.124 56.0957 491.124 60.795C491.124 65.655 492.05 70.3084 493.726 74.5638C496.726 82.1715 503.461 87.6821 511.513 89.1133C512.99 89.3812 514.49 89.519 515.998 89.519ZM470.589 60.795C470.574 35.7141 490.894 15.3709 515.975 15.3556C541.056 15.3403 561.399 35.6605 561.414 60.7414V60.795C561.399 85.8758 541.056 106.196 515.975 106.181C490.917 106.165 470.604 85.8529 470.589 60.795ZM692.926 69.765L680.313 35.8978L667.677 69.742H692.926M698.506 84.743H662.059L655.033 103.602H633.573L668.282 17.9042H692.291L727 103.602H705.593L698.506 84.743ZM639.244 17.9654H565.609V34.2523H592.794V103.67H612.089V34.2523H639.221V17.9654M134.619 6.6228C121.195 2.55108 107.227 0.561177 93.1979 0.721903C79.1688 0.561177 65.201 2.55108 51.7766 6.6228C21.1163 16.4883 0 36.9616 0 60.5653C0 93.7973 41.6509 120.899 93.1902 120.899C144.73 120.899 186.38 93.9121 186.38 60.5653C186.38 36.9616 165.325 16.4883 134.604 6.6228H134.619ZM93.1979 95.0142C85.506 95.0142 79.23 79.9749 78.878 60.9098C83.4472 61.3996 88.246 61.5144 93.1979 61.5144C98.1497 61.5144 102.949 61.2848 107.541 60.9327C107.166 79.9366 100.89 95.0065 93.1979 95.0065V95.0142ZM79.8347 46.1307C81.8629 32.7369 87.0673 23.3689 93.1979 23.3689C99.3284 23.3689 104.387 32.7368 106.561 46.1C97.6676 46.896 88.7282 46.9037 79.8347 46.1307ZM114.75 45.0363C111.628 24.2108 103.178 9.17141 93.2055 9.17141C83.2329 9.17141 74.7833 24.096 71.6606 45.0363C52.7409 42.0284 39.5002 35.408 39.5002 27.563C39.5002 16.9781 63.5937 8.41371 93.2132 8.41371C122.833 8.41371 146.949 16.9781 146.949 27.563C146.949 35.3697 133.701 42.1432 114.789 45.0363H114.758H114.75ZM13.6004 58.3994C13.6004 48.1589 17.5956 38.6454 24.4456 30.3413C24.3308 30.923 24.3308 31.5583 24.3308 32.0175C24.3308 44.9138 43.5949 55.736 70.4361 59.8383V62.7314C70.4361 86.5647 77.087 106.808 86.2254 113.781C45.5313 111.378 13.6311 87.5213 13.6311 58.3917H13.6004V58.3994ZM100.201 113.934C109.339 106.931 115.967 86.6871 115.967 62.8538V59.9608C142.808 55.9962 162.073 45.0362 162.073 32.1629C162.073 31.5582 162.073 30.9459 161.958 30.4561C168.792 38.2245 172.635 48.1666 172.803 58.5142C172.803 87.5214 140.903 111.385 100.209 113.903V113.934H100.201Z" fill="black"/>
</svg>
