<?xml version="1.0" encoding="UTF-8"?>
<svg width="200px" height="39px" viewBox="0 0 200 39" version="1.1" xmlns="http://www.w3.org/2000/svg" xmlns:xlink="http://www.w3.org/1999/xlink">
    <!-- Generator: Sketch 64 (93537) - https://sketch.com -->
    <title>atoms/PropertyLogos/Collapsed/MGMResorts</title>
    <desc>Created with Sketch.</desc>
    <g id="Basics" stroke="none" stroke-width="1" fill="none" fill-rule="evenodd">
        <g id="MGM_Gen3Library_Basics_PropertyLogos" transform="translate(-336.000000, -515.000000)" fill="#927239">
            <g id="Group-16" transform="translate(64.000000, 161.000000)">
                <g id="Group-14" transform="translate(0.000000, 354.000000)">
                    <g id="atoms/PropertyLogos/Collapsed/MGMResorts" transform="translate(272.000000, 0.000000)">
                        <g id="svgexport-0">
                            <polygon id="Path" fill-rule="nonzero" points="58.6956522 26.5217391 56.0869565 26.5217391 56.0869565 17.173913 52.2826087 24.1304348 50.7608696 24.1304348 46.8478261 17.173913 46.8478261 26.5217391 44.2391304 26.5217391 44.2391304 12.2826087 46.8478261 12.2826087 51.5217391 20.5434783 56.0869565 12.2826087 58.6956522 12.2826087"></polygon>
                            <path d="M74.3478261,26.1956522 C72.7173913,26.6304348 71.1956522,26.8478261 69.673913,26.8478261 C67.2826087,26.8478261 65.326087,26.0869565 63.8043478,24.673913 C62.3913043,23.2608696 61.6304348,21.5217391 61.6304348,19.4565217 C61.6304348,17.2826087 62.3913043,15.5434783 63.9130435,14.1304348 C65.4347826,12.7173913 67.2826087,12.0652174 69.673913,12.0652174 C71.0869565,12.0652174 72.3913043,12.173913 73.6956522,12.5 L73.3695652,14.7826087 C71.9565217,14.5652174 70.8695652,14.4565217 70,14.4565217 C68.2608696,14.4565217 66.8478261,14.8913043 65.8695652,15.7608696 C64.8913043,16.6304348 64.4565217,17.826087 64.4565217,19.4565217 C64.4565217,20.8695652 64.8913043,22.0652174 65.8695652,23.0434783 C66.7391304,23.9130435 68.0434783,24.4565217 69.5652174,24.4565217 C70.326087,24.4565217 71.0869565,24.3478261 71.8478261,24.2391304 L71.8478261,19.4565217 L74.3478261,19.4565217 L74.3478261,26.1956522 L74.3478261,26.1956522 Z" id="Path" fill-rule="nonzero"></path>
                            <polygon id="Path" fill-rule="nonzero" points="92.2826087 26.5217391 89.673913 26.5217391 89.673913 17.173913 85.7608696 24.1304348 84.2391304 24.1304348 80.4347826 17.173913 80.4347826 26.5217391 77.826087 26.5217391 77.826087 12.2826087 80.4347826 12.2826087 85.1086957 20.5434783 89.673913 12.2826087 92.2826087 12.2826087"></polygon>
                            <path d="M110.652174,16.7391304 C110.652174,16.0869565 110.434783,15.5434783 110,15.1086957 C109.565217,14.673913 109.021739,14.4565217 108.369565,14.4565217 L104.130435,14.4565217 L104.130435,18.9130435 L108.369565,18.9130435 C109.021739,18.9130435 109.565217,18.6956522 110,18.2608696 C110.434783,17.9347826 110.652174,17.3913043 110.652174,16.7391304 M114.891304,26.5217391 L111.521739,26.5217391 L107.608696,21.0869565 L104.130435,21.0869565 L104.130435,26.5217391 L101.413043,26.5217391 L101.413043,12.2826087 L108.804348,12.2826087 C110.108696,12.2826087 111.304348,12.7173913 112.173913,13.5869565 C113.043478,14.4565217 113.478261,15.4347826 113.478261,16.7391304 C113.478261,17.6086957 113.26087,18.4782609 112.717391,19.1304348 C112.173913,19.8913043 111.521739,20.4347826 110.652174,20.7608696 L114.891304,26.5217391 Z" id="Shape" fill-rule="nonzero"></path>
                            <polygon id="Path" fill-rule="nonzero" points="127.391304 26.5217391 117.173913 26.5217391 117.173913 12.2826087 127.391304 12.2826087 127.391304 14.673913 119.891304 14.673913 119.891304 18.0434783 126.956522 18.0434783 126.956522 20.4347826 119.891304 20.4347826 119.891304 24.2391304 127.391304 24.2391304"></polygon>
                            <g id="Group" transform="translate(129.347826, 11.956522)" fill-rule="nonzero">
                                <path d="M12.173913,10.7608696 C12.173913,12.0652174 11.6304348,13.0434783 10.5434783,13.8043478 C9.45652174,14.5652174 8.04347826,14.8913043 6.30434783,14.8913043 C4.13043478,14.8913043 2.17391304,14.4565217 0.434782609,13.6956522 L1.08695652,11.5217391 C2.93478261,12.173913 4.7826087,12.5 6.30434783,12.5 C8.47826087,12.5 9.45652174,11.9565217 9.45652174,10.7608696 C9.45652174,10.326087 9.23913043,9.89130435 8.69565217,9.56521739 C8.26086957,9.34782609 7.39130435,8.91304348 5.76086957,8.36956522 C3.91304348,7.7173913 2.7173913,7.06521739 2.06521739,6.52173913 C1.30434783,5.86956522 0.97826087,5 0.97826087,3.80434783 C0.97826087,1.30434783 2.82608696,0.108695652 6.63043478,0.108695652 C8.47826087,0.108695652 10.2173913,0.326086957 11.7391304,0.760869565 L11.3043478,2.93478261 C9.67391304,2.60869565 8.15217391,2.39130435 6.63043478,2.39130435 C5.54347826,2.39130435 4.7826087,2.5 4.23913043,2.7173913 C3.80434783,2.93478261 3.58695652,3.26086957 3.58695652,3.80434783 C3.58695652,4.34782609 3.91304348,4.67391304 4.45652174,5.10869565 C4.89130435,5.32608696 5.86956522,5.76086957 7.60869565,6.41304348 C9.45652174,7.06521739 10.5434783,7.7173913 11.0869565,8.15217391 C11.8478261,8.69565217 12.173913,9.56521739 12.173913,10.7608696" id="Path"></path>
                                <path d="M25.5434783,7.5 C25.5434783,6.08695652 25.1086957,4.89130435 24.3478261,3.91304348 C23.5869565,2.93478261 22.5,2.5 21.0869565,2.5 C19.7826087,2.5 18.6956522,2.93478261 17.9347826,3.91304348 C17.173913,4.89130435 16.7391304,5.97826087 16.7391304,7.5 C16.7391304,8.91304348 17.173913,10.1086957 17.9347826,10.9782609 C18.6956522,11.9565217 19.7826087,12.3913043 21.1956522,12.3913043 C22.5,12.3913043 23.5869565,11.9565217 24.4565217,10.9782609 C25.2173913,10.1086957 25.5434783,8.91304348 25.5434783,7.5 M28.2608696,7.5 C28.2608696,9.56521739 27.6086957,11.3043478 26.1956522,12.7173913 C24.7826087,14.1304348 23.1521739,14.8913043 21.0869565,14.8913043 C19.0217391,14.8913043 17.3913043,14.1304348 15.9782609,12.7173913 C14.5652174,11.3043478 13.9130435,9.56521739 13.9130435,7.5 C13.9130435,5.43478261 14.5652174,3.69565217 15.9782609,2.2826087 C17.3913043,0.869565217 19.0217391,0.108695652 21.0869565,0.108695652 C23.1521739,0.108695652 24.7826087,0.869565217 26.1956522,2.2826087 C27.6086957,3.69565217 28.2608696,5.43478261 28.2608696,7.5" id="Shape"></path>
                                <path d="M40.4347826,4.7826087 C40.4347826,4.13043478 40.2173913,3.58695652 39.7826087,3.15217391 C39.3478261,2.7173913 38.8043478,2.5 38.1521739,2.5 L33.9130435,2.5 L33.9130435,6.95652174 L38.1521739,6.95652174 C38.8043478,6.95652174 39.3478261,6.73913043 39.7826087,6.30434783 C40.2173913,5.97826087 40.4347826,5.43478261 40.4347826,4.7826087 M44.673913,14.5652174 L41.3043478,14.5652174 L37.3913043,9.13043478 L33.9130435,9.13043478 L33.9130435,14.5652174 L31.1956522,14.5652174 L31.1956522,0.326086957 L38.5869565,0.326086957 C39.8913043,0.326086957 41.0869565,0.760869565 41.9565217,1.63043478 C42.826087,2.5 43.2608696,3.47826087 43.2608696,4.7826087 C43.2608696,5.65217391 43.0434783,6.52173913 42.5,7.17391304 C41.9565217,7.93478261 41.3043478,8.47826087 40.4347826,8.80434783 L44.673913,14.5652174 Z" id="Shape"></path>
                            </g>
                            <polygon id="Path" fill-rule="nonzero" points="186.73913 14.673913 182.065217 14.673913 182.065217 26.5217391 179.347826 26.5217391 179.347826 14.673913 174.565217 14.673913 174.565217 12.2826087 186.73913 12.2826087"></polygon>
                            <g id="Group" fill-rule="nonzero">
                                <path d="M200,22.7173913 C200,24.0217391 199.456522,25 198.369565,25.7608696 C197.282609,26.5217391 195.869565,26.8478261 194.130435,26.8478261 C191.956522,26.8478261 190,26.4130435 188.26087,25.6521739 L188.913043,23.4782609 C190.76087,24.1304348 192.608696,24.4565217 194.130435,24.4565217 C196.304348,24.4565217 197.282609,23.9130435 197.282609,22.7173913 C197.282609,22.2826087 197.065217,21.8478261 196.521739,21.5217391 C196.086957,21.3043478 195.217391,20.8695652 193.586957,20.326087 C191.73913,19.673913 190.543478,19.0217391 189.891304,18.4782609 C189.130435,17.826087 188.804348,16.9565217 188.804348,15.7608696 C188.804348,13.2608696 190.652174,12.0652174 194.456522,12.0652174 C196.304348,12.0652174 198.043478,12.2826087 199.565217,12.7173913 L199.130435,14.8913043 C197.5,14.5652174 195.978261,14.3478261 194.456522,14.3478261 C193.369565,14.3478261 192.608696,14.4565217 192.065217,14.673913 C191.630435,14.8913043 191.413043,15.2173913 191.413043,15.7608696 C191.413043,16.3043478 191.73913,16.6304348 192.282609,17.0652174 C192.717391,17.2826087 193.695652,17.7173913 195.434783,18.3695652 C197.282609,19.0217391 198.369565,19.673913 198.913043,20.1086957 C199.673913,20.6521739 200,21.5217391 200,22.7173913" id="Path"></path>
                                <path d="M2.5,16.1956522 C2.5,19.5652174 3.04347826,22.7173913 4.7826087,25.326087 L4.7826087,23.0434783 C4.7826087,20.2173913 7.06521739,18.2608696 9.34782609,16.9565217 C6.95652174,17.826087 4.34782609,17.2826087 2.5,16.1956522" id="Path"></path>
                                <path d="M4.45652174,13.8043478 L3.69565217,13.8043478 C3.58695652,13.3695652 4.7826087,12.6086957 5.10869565,13.1521739 L4.45652174,13.8043478 Z M2.06521739,13.4782609 C2.7173913,13.9130435 3.58695652,14.1304348 4.56521739,14.0217391 C5.32608696,14.5652174 6.41304348,13.0434783 7.5,13.0434783 C9.13043478,12.826087 11.1956522,12.6086957 12.2826087,14.0217391 L11.7391304,12.9347826 C10.2173913,12.826087 8.91304348,12.2826087 7.7173913,11.6304348 C5.32608696,10.5434783 4.13043478,14.0217391 2.06521739,13.4782609" id="Shape"></path>
                                <path d="M0.652173913,7.93478261 C1.41304348,8.15217391 2.17391304,8.36956522 2.93478261,8.36956522 C4.56521739,7.7173913 5,6.41304348 4.34782609,4.67391304 C3.36956522,3.26086957 2.06521739,2.5 0.652173913,2.17391304 L0.652173913,7.93478261 Z" id="Path"></path>
                                <path d="M11.5217391,38.8043478 C11.7391304,38.5869565 12.0652174,38.2608696 12.2826087,37.9347826 C16.6304348,32.2826087 8.15217391,29.0217391 8.36956522,23.5869565 C8.58695652,21.4130435 9.7826087,19.7826087 11.1956522,18.0434783 L11.0869565,17.9347826 C9.7826087,19.2391304 9.23913043,20.1086957 8.36956522,21.4130435 C5.76086957,26.7391304 9.45652174,34.1304348 5.65217391,38.6956522 L11.5217391,38.8043478 Z" id="Path"></path>
                                <path d="M29.1304348,19.673913 C29.1304348,27.5 25.4347826,34.3478261 19.673913,38.8043478 L38.8043478,38.8043478 L38.8043478,0.543478261 L19.673913,0.543478261 C25.4347826,4.89130435 29.1304348,11.8478261 29.1304348,19.673913" id="Path"></path>
                                <path d="M0.652173913,38.8043478 L3.91304348,38.8043478 L4.67391304,38.0434783 C9.13043478,31.9565217 3.80434783,27.7173913 0.543478261,22.9347826 L0.652173913,38.8043478 Z" id="Path"></path>
                                <path d="M9.67391304,0.543478261 L0.652173913,0.543478261 L0.652173913,1.19565217 C1.52173913,1.30434783 2.5,1.63043478 3.26086957,1.95652174 C5.10869565,3.04347826 6.52173913,4.7826087 6.30434783,6.95652174 L10.326087,6.52173913 C10.8695652,5.2173913 11.0869565,3.15217391 10.5434783,2.06521739 C10.326087,1.41304348 10,0.869565217 9.67391304,0.543478261" id="Path"></path>
                                <path d="M11.5217391,0.543478261 C12.3913043,1.73913043 12.3913043,3.26086957 12.5,4.45652174 C14.1304348,3.26086957 16.0869565,2.5 18.1521739,3.04347826 C16.7391304,1.95652174 15.7608696,1.08695652 14.0217391,0.434782609 L11.5217391,0.543478261 Z" id="Path"></path>
                                <path d="M19.5652174,20 L19.2391304,20.8695652 L18.8043478,19.7826087 C17.826087,20 16.8478261,20.326087 16.3043478,21.4130435 C16.1956522,21.7391304 16.4130435,22.2826087 16.0869565,22.5 C15.4347826,22.3913043 15.7608696,21.3043478 15.7608696,20.6521739 C16.5217391,19.8913043 18.5869565,18.2608696 19.3478261,18.9130435 C19.5652174,19.0217391 19.673913,19.5652174 19.5652174,20 M15.2173913,27.826087 C14.673913,27.3913043 14.8913043,26.6304348 14.8913043,26.0869565 L15.2173913,25.7608696 C15.7608696,27.5 17.173913,25.4347826 18.2608696,25.6521739 C18.8043478,25.4347826 18.5869565,24.673913 19.1304348,24.7826087 C20,27.5 16.7391304,26.9565217 15.2173913,27.826087 M23.0434783,28.1521739 C23.4782609,24.5652174 23.1521739,20.7608696 20.5434783,18.2608696 C20,18.1521739 19.2391304,18.4782609 18.8043478,17.9347826 C17.6086957,19.0217391 16.0869565,19.4565217 15,20.6521739 C13.8043478,20.9782609 12.6086957,20.2173913 11.4130435,20 C11.4130435,19.7826087 11.4130435,19.673913 11.4130435,19.5652174 C9.7826087,20.6521739 10.2173913,22.826087 9.89130435,24.4565217 C10.326087,26.3043478 12.3913043,27.0652174 13.6956522,28.1521739 C15.7608696,28.4782609 17.6086957,27.6086957 19.3478261,26.9565217 C19.673913,27.2826087 20.1086957,27.5 19.8913043,27.9347826 C18.4782609,29.8913043 16.4130435,30.7608696 14.0217391,30.5434783 C15.4347826,33.2608696 14.4565217,36.4130435 12.9347826,38.8043478 L14.3478261,38.8043478 C18.6956522,36.8478261 22.7173913,33.8043478 23.0434783,28.1521739" id="Shape"></path>
                                <path d="M26.1956522,13.4782609 C25,9.34782609 21.3043478,3.80434783 16.4130435,4.13043478 C14.5652174,4.23913043 12.7173913,5.65217391 12.0652174,6.73913043 C13.3695652,7.5 14.7826087,8.58695652 15.9782609,9.67391304 C15.8695652,10.1086957 16.1956522,10.6521739 15.6521739,10.8695652 C15,10.326087 14.4565217,9.02173913 13.5869565,9.45652174 C14.2391304,10.8695652 15.9782609,10.9782609 17.2826087,11.3043478 C17.826087,11.8478261 17.6086957,12.7173913 18.6956522,12.2826087 C19.2391304,12.3913043 19.4565217,13.0434783 19.5652174,13.4782609 C18.6956522,15.1086957 16.3043478,14.0217391 15,14.3478261 C16.0869565,14.7826087 17.2826087,14.8913043 18.2608696,15.5434783 C19.2391304,16.1956522 19.5652174,14.673913 20,14.1304348 C21.7391304,14.5652174 20.7608696,16.4130435 21.5217391,17.3913043 C25.2173913,21.1956522 24.4565217,27.9347826 22.6086957,32.2826087 C27.7173913,27.826087 27.2826087,17.6086957 26.1956522,13.4782609" id="Path"></path>
                            </g>
                        </g>
                    </g>
                </g>
            </g>
        </g>
    </g>
</svg>