<svg width="1100" height="1100" viewBox="0 0 1100 1100" fill="none" xmlns="http://www.w3.org/2000/svg">
<mask id="mask0_99_155" style="mask-type:alpha" maskUnits="userSpaceOnUse" x="0" y="0" width="1100" height="1100">
<circle cx="550" cy="550" r="550" fill="#027DFD"/>
<circle cx="549.5" cy="550.5" r="520.5" fill="#E7F8FF"/>
</mask>
<g mask="url(#mask0_99_155)">
<circle cx="550" cy="550" r="550" fill="#027DFD"/>
<circle cx="549.5" cy="550.5" r="520.5" fill="#E7F8FF"/>
<rect x="225" y="166" width="1642" height="1045" rx="63" fill="white" stroke="#0553B1" stroke-width="12"/>
<circle cx="333.474" cy="248.371" r="34.8236" stroke="#0553B1" stroke-width="12"/>
<circle cx="438.824" cy="247.824" r="34.8236" stroke="#0553B1" stroke-width="12"/>
<circle cx="543.824" cy="248.824" r="34.8236" stroke="#0553B1" stroke-width="12"/>
<rect x="642" y="208" width="1189" height="82" rx="30" fill="#DADCE0"/>
<rect x="325" y="728" width="449.69" height="189" rx="20" fill="#13C2AD"/>
<path d="M416.24 850.28C413.36 850.28 410.56 849.693 407.84 848.52C405.173 847.293 402.8 845.533 400.72 843.24C398.693 840.893 397.227 838.067 396.32 834.76L402.8 832.12C403.707 835.533 405.387 838.333 407.84 840.52C410.293 842.707 413.147 843.8 416.4 843.8C419.76 843.8 422.587 842.92 424.88 841.16C427.173 839.347 428.32 836.893 428.32 833.8C428.32 831.133 427.333 828.947 425.36 827.24C423.44 825.48 420.267 823.853 415.84 822.36L412.24 821.08C408.187 819.64 404.88 817.747 402.32 815.4C399.76 813.053 398.48 809.8 398.48 805.64C398.48 802.92 399.227 800.413 400.72 798.12C402.213 795.773 404.267 793.907 406.88 792.52C409.547 791.133 412.533 790.44 415.84 790.44C419.147 790.44 422.027 791.053 424.48 792.28C426.987 793.507 428.96 795 430.4 796.76C431.893 798.52 432.907 800.253 433.44 801.96L427.12 804.68C426.533 802.653 425.307 800.867 423.44 799.32C421.573 797.72 419.093 796.92 416 796.92C413.067 796.92 410.56 797.747 408.48 799.4C406.4 801.053 405.36 803.133 405.36 805.64C405.36 807.88 406.24 809.72 408 811.16C409.76 812.547 412.427 813.853 416 815.08L419.68 816.36C424.533 818.12 428.32 820.333 431.04 823C433.813 825.613 435.2 829.187 435.2 833.72C435.2 837.4 434.24 840.493 432.32 843C430.453 845.507 428.08 847.347 425.2 848.52C422.32 849.693 419.333 850.28 416.24 850.28ZM457.116 850.28C452.209 850.28 448.476 848.867 445.916 846.04C443.409 843.213 442.156 839.293 442.156 834.28V809.32H448.956V833.16C448.956 837.053 449.809 839.853 451.516 841.56C453.276 843.267 455.729 844.12 458.876 844.12C461.062 844.12 463.009 843.507 464.716 842.28C466.422 841.053 467.729 839.453 468.636 837.48C469.596 835.507 470.076 833.427 470.076 831.24V809.32H476.796V849H470.396V843.08H470.076C468.902 845.107 467.116 846.813 464.716 848.2C462.369 849.587 459.836 850.28 457.116 850.28ZM504.382 850.28C500.542 850.28 497.075 849.373 493.982 847.56C490.889 845.693 488.462 843.16 486.702 839.96C484.995 836.707 484.142 833.107 484.142 829.16C484.142 825.16 484.995 821.56 486.702 818.36C488.462 815.16 490.889 812.653 493.982 810.84C497.075 808.973 500.542 808.04 504.382 808.04C508.702 808.04 512.329 809.08 515.262 811.16C518.195 813.24 520.329 815.933 521.662 819.24L515.502 821.88C514.489 819.373 512.995 817.48 511.022 816.2C509.102 814.867 506.755 814.2 503.982 814.2C501.742 814.2 499.609 814.84 497.582 816.12C495.609 817.347 494.009 819.107 492.782 821.4C491.555 823.64 490.942 826.227 490.942 829.16C490.942 832.04 491.555 834.627 492.782 836.92C494.009 839.213 495.609 841 497.582 842.28C499.609 843.507 501.742 844.12 503.982 844.12C506.809 844.12 509.235 843.453 511.262 842.12C513.289 840.787 514.809 838.893 515.822 836.44L521.822 839C520.489 842.307 518.329 845.027 515.342 847.16C512.355 849.24 508.702 850.28 504.382 850.28ZM546.726 850.28C542.886 850.28 539.419 849.373 536.326 847.56C533.232 845.693 530.806 843.16 529.046 839.96C527.339 836.707 526.486 833.107 526.486 829.16C526.486 825.16 527.339 821.56 529.046 818.36C530.806 815.16 533.232 812.653 536.326 810.84C539.419 808.973 542.886 808.04 546.726 808.04C551.046 808.04 554.672 809.08 557.606 811.16C560.539 813.24 562.672 815.933 564.006 819.24L557.846 821.88C556.832 819.373 555.339 817.48 553.366 816.2C551.446 814.867 549.099 814.2 546.326 814.2C544.086 814.2 541.952 814.84 539.926 816.12C537.952 817.347 536.352 819.107 535.126 821.4C533.899 823.64 533.286 826.227 533.286 829.16C533.286 832.04 533.899 834.627 535.126 836.92C536.352 839.213 537.952 841 539.926 842.28C541.952 843.507 544.086 844.12 546.326 844.12C549.152 844.12 551.579 843.453 553.606 842.12C555.632 840.787 557.152 838.893 558.166 836.44L564.166 839C562.832 842.307 560.672 845.027 557.686 847.16C554.699 849.24 551.046 850.28 546.726 850.28ZM588.749 850.28C584.909 850.28 581.469 849.373 578.429 847.56C575.443 845.747 573.096 843.24 571.389 840.04C569.683 836.84 568.829 833.213 568.829 829.16C568.829 825.32 569.629 821.8 571.229 818.6C572.829 815.347 575.096 812.787 578.029 810.92C581.016 809 584.429 808.04 588.269 808.04C592.109 808.04 595.469 808.92 598.349 810.68C601.283 812.387 603.523 814.813 605.069 817.96C606.616 821.107 607.389 824.733 607.389 828.84C607.389 829.587 607.336 830.12 607.229 830.44H575.709C575.816 833.427 576.536 835.96 577.869 838.04C579.203 840.067 580.856 841.587 582.829 842.6C584.856 843.613 586.936 844.12 589.069 844.12C594.083 844.12 597.949 841.667 600.669 836.76L606.669 839.64C604.963 842.84 602.589 845.427 599.549 847.4C596.563 849.32 592.963 850.28 588.749 850.28ZM600.189 824.76C600.083 823.16 599.629 821.56 598.829 819.96C598.029 818.36 596.723 817 594.909 815.88C593.149 814.76 590.909 814.2 588.189 814.2C585.149 814.2 582.536 815.16 580.349 817.08C578.163 819 576.776 821.56 576.189 824.76H600.189ZM629.444 850.28C625.231 850.28 621.658 849.213 618.724 847.08C615.791 844.947 613.738 842.307 612.564 839.16L618.644 836.52C619.658 839.027 621.124 840.947 623.044 842.28C625.018 843.613 627.151 844.28 629.444 844.28C632.004 844.28 634.111 843.72 635.764 842.6C637.471 841.48 638.324 840.12 638.324 838.52C638.324 836.973 637.684 835.693 636.404 834.68C635.178 833.667 633.044 832.787 630.004 832.04L624.564 830.68C621.578 829.987 619.018 828.733 616.884 826.92C614.804 825.107 613.764 822.707 613.764 819.72C613.764 817.267 614.458 815.16 615.844 813.4C617.284 811.64 619.178 810.307 621.524 809.4C623.871 808.493 626.431 808.04 629.204 808.04C632.618 808.04 635.711 808.84 638.484 810.44C641.311 811.987 643.311 814.2 644.484 817.08L638.484 819.64C637.631 817.72 636.324 816.307 634.564 815.4C632.858 814.493 630.938 814.04 628.804 814.04C626.724 814.04 624.831 814.547 623.124 815.56C621.471 816.573 620.644 817.88 620.644 819.48C620.644 820.867 621.178 821.96 622.244 822.76C623.364 823.56 625.124 824.28 627.524 824.92L633.444 826.36C637.391 827.373 640.324 828.893 642.244 830.92C644.218 832.893 645.204 835.267 645.204 838.04C645.204 840.333 644.538 842.413 643.204 844.28C641.871 846.147 640.004 847.613 637.604 848.68C635.204 849.747 632.484 850.28 629.444 850.28ZM666.476 850.28C662.262 850.28 658.689 849.213 655.756 847.08C652.822 844.947 650.769 842.307 649.596 839.16L655.676 836.52C656.689 839.027 658.156 840.947 660.076 842.28C662.049 843.613 664.182 844.28 666.476 844.28C669.036 844.28 671.142 843.72 672.796 842.6C674.502 841.48 675.356 840.12 675.356 838.52C675.356 836.973 674.716 835.693 673.436 834.68C672.209 833.667 670.076 832.787 667.036 832.04L661.596 830.68C658.609 829.987 656.049 828.733 653.916 826.92C651.836 825.107 650.796 822.707 650.796 819.72C650.796 817.267 651.489 815.16 652.876 813.4C654.316 811.64 656.209 810.307 658.556 809.4C660.902 808.493 663.462 808.04 666.236 808.04C669.649 808.04 672.742 808.84 675.516 810.44C678.342 811.987 680.342 814.2 681.516 817.08L675.516 819.64C674.662 817.72 673.356 816.307 671.596 815.4C669.889 814.493 667.969 814.04 665.836 814.04C663.756 814.04 661.862 814.547 660.156 815.56C658.502 816.573 657.676 817.88 657.676 819.48C657.676 820.867 658.209 821.96 659.276 822.76C660.396 823.56 662.156 824.28 664.556 824.92L670.476 826.36C674.422 827.373 677.356 828.893 679.276 830.92C681.249 832.893 682.236 835.267 682.236 838.04C682.236 840.333 681.569 842.413 680.236 844.28C678.902 846.147 677.036 847.613 674.636 848.68C672.236 849.747 669.516 850.28 666.476 850.28ZM690.627 811.16V791.72H697.347V811.16L696.547 832.12H691.347L690.627 811.16ZM693.987 849.48C692.547 849.48 691.32 849 690.307 848.04C689.347 847.027 688.867 845.8 688.867 844.36C688.867 842.973 689.347 841.8 690.307 840.84C691.32 839.827 692.547 839.32 693.987 839.32C695.427 839.32 696.627 839.827 697.587 840.84C698.6 841.8 699.107 842.973 699.107 844.36C699.107 845.8 698.6 847.027 697.587 848.04C696.627 849 695.427 849.48 693.987 849.48Z" fill="#A7FFEB"/>
<rect x="308" y="546" width="644" height="64" fill="#DADCE0"/>
<rect x="456" y="647" width="354" height="22" fill="#E8EAED"/>
<rect x="312" y="419" width="308" height="89" fill="#F8F9FA"/>
<rect x="643" y="419" width="308" height="89" fill="#F8F9FA"/>
</g>
<mask id="path-16-inside-1_99_155" fill="white">
<path fill-rule="evenodd" clip-rule="evenodd" d="M550 1100C853.757 1100 1100 853.757 1100 550C1100 246.243 853.757 0 550 0C246.243 0 0 246.243 0 550C0 853.757 246.243 1100 550 1100ZM549.5 1071C836.964 1071 1070 837.964 1070 550.5C1070 263.036 836.964 30 549.5 30C262.036 30 29 263.036 29 550.5C29 837.964 262.036 1071 549.5 1071Z"/>
</mask>
<path fill-rule="evenodd" clip-rule="evenodd" d="M550 1100C853.757 1100 1100 853.757 1100 550C1100 246.243 853.757 0 550 0C246.243 0 0 246.243 0 550C0 853.757 246.243 1100 550 1100ZM549.5 1071C836.964 1071 1070 837.964 1070 550.5C1070 263.036 836.964 30 549.5 30C262.036 30 29 263.036 29 550.5C29 837.964 262.036 1071 549.5 1071Z" fill="#027DFD"/>
<path d="M1092 550C1092 849.338 849.338 1092 550 1092V1108C858.175 1108 1108 858.175 1108 550H1092ZM550 8C849.338 8 1092 250.662 1092 550H1108C1108 241.825 858.175 -8 550 -8V8ZM8 550C8 250.662 250.662 8 550 8V-8C241.825 -8 -8 241.825 -8 550H8ZM550 1092C250.662 1092 8 849.338 8 550H-8C-8 858.175 241.825 1108 550 1108V1092ZM1062 550.5C1062 833.546 832.546 1063 549.5 1063V1079C841.383 1079 1078 842.383 1078 550.5H1062ZM549.5 38C832.546 38 1062 267.454 1062 550.5H1078C1078 258.618 841.383 22 549.5 22V38ZM37 550.5C37 267.454 266.454 38 549.5 38V22C257.618 22 21 258.618 21 550.5H37ZM549.5 1063C266.454 1063 37 833.546 37 550.5H21C21 842.383 257.618 1079 549.5 1079V1063Z" fill="#027DFD" mask="url(#path-16-inside-1_99_155)"/>
</svg>
