<svg width="1100" height="1100" viewBox="0 0 1100 1100" fill="none" xmlns="http://www.w3.org/2000/svg">
<mask id="mask0_99_78" style="mask-type:alpha" maskUnits="userSpaceOnUse" x="0" y="0" width="1100" height="1100">
<circle cx="550" cy="550" r="550" fill="#027DFD"/>
<circle cx="549.5" cy="550.5" r="520.5" fill="#E7F8FF"/>
</mask>
<g mask="url(#mask0_99_78)">
<circle cx="550" cy="550" r="550" fill="#027DFD"/>
<circle cx="549.5" cy="550.5" r="520.5" fill="#E7F8FF"/>
<rect x="193" y="176" width="586.01" height="1045" rx="63" fill="white" stroke="#0553B1" stroke-width="12"/>
<circle cx="277.474" cy="259.371" r="34.8236" stroke="#0553B1" stroke-width="12"/>
<g filter="url(#filter0_d_99_78)">
<path d="M356 833.5C356 828.973 356.005 829.543 356.013 833.716C359.516 862.516 1056.29 976.417 1069.58 803.436C1069.53 746.127 1069.55 716.121 1069.77 798.183C1069.77 799.963 1069.71 801.714 1069.58 803.436C1069.63 872.505 1069.77 981.23 1069.77 981.23C998.133 1092.48 412.069 1077.08 356.199 981.23C356.199 981.23 356.058 856.019 356.013 833.716C356.004 833.644 356 833.571 356 833.5Z" fill="#A57CF6"/>
<path d="M1069.77 834.006C1069.77 894.729 909.987 951.94 712.885 951.94C515.783 951.94 356 894.729 356 834.006C356 773.283 515.783 716.072 712.885 716.072C909.987 716.072 1069.77 773.283 1069.77 834.006Z" fill="#6200EE"/>
<circle cx="425.373" cy="962.731" r="24.6659" fill="#F9F8C4"/>
<path d="M356 646.5C356 646.09 356.001 646.111 356.002 646.52C357.188 654.651 1056.27 789.758 1069.58 616.894C1069.53 559.589 1069.55 529.588 1069.77 611.647C1069.77 613.427 1069.71 615.176 1069.58 616.894C1069.63 685.962 1069.77 794.694 1069.77 794.694C998.133 905.945 412.069 890.544 356.199 794.694C356.199 794.694 356.02 654.097 356.002 646.52C356.001 646.514 356 646.507 356 646.5Z" fill="#A57CF6"/>
<path d="M1069.77 647.47C1069.77 708.193 909.987 765.404 712.885 765.404C515.783 765.404 356 708.193 356 647.47C356 586.747 515.783 529.536 712.885 529.536C909.987 529.536 1069.77 586.747 1069.77 647.47Z" fill="#6200EE"/>
<circle cx="425.373" cy="776.195" r="24.6659" fill="#F9F8C4"/>
<path d="M356.199 608.158V459C356.199 512.123 1056.26 604.239 1069.58 430.372C1069.53 373.058 1069.55 343.045 1069.77 425.111C1069.77 426.891 1069.71 428.644 1069.58 430.372C1069.63 499.44 1069.77 608.158 1069.77 608.158C998.133 719.409 412.069 704.008 356.199 608.158Z" fill="#A57CF6"/>
<path d="M1069.77 460.934C1069.77 521.657 909.987 578.868 712.885 578.868C515.783 578.868 356 521.657 356 460.934C356 400.211 515.783 343 712.885 343C909.987 343 1069.77 400.211 1069.77 460.934Z" fill="#6200EE"/>
<circle cx="425.373" cy="589.659" r="24.6659" fill="#F9F8C4"/>
</g>
</g>
<mask id="path-16-inside-1_99_78" fill="white">
<path fill-rule="evenodd" clip-rule="evenodd" d="M550 1100C853.757 1100 1100 853.757 1100 550C1100 246.243 853.757 0 550 0C246.243 0 0 246.243 0 550C0 853.757 246.243 1100 550 1100ZM549.5 1071C836.964 1071 1070 837.964 1070 550.5C1070 263.036 836.964 30 549.5 30C262.036 30 29 263.036 29 550.5C29 837.964 262.036 1071 549.5 1071Z"/>
</mask>
<path fill-rule="evenodd" clip-rule="evenodd" d="M550 1100C853.757 1100 1100 853.757 1100 550C1100 246.243 853.757 0 550 0C246.243 0 0 246.243 0 550C0 853.757 246.243 1100 550 1100ZM549.5 1071C836.964 1071 1070 837.964 1070 550.5C1070 263.036 836.964 30 549.5 30C262.036 30 29 263.036 29 550.5C29 837.964 262.036 1071 549.5 1071Z" fill="#027DFD"/>
<path d="M1092 550C1092 849.338 849.338 1092 550 1092V1108C858.175 1108 1108 858.175 1108 550H1092ZM550 8C849.338 8 1092 250.662 1092 550H1108C1108 241.825 858.175 -8 550 -8V8ZM8 550C8 250.662 250.662 8 550 8V-8C241.825 -8 -8 241.825 -8 550H8ZM550 1092C250.662 1092 8 849.338 8 550H-8C-8 858.175 241.825 1108 550 1108V1092ZM1062 550.5C1062 833.546 832.546 1063 549.5 1063V1079C841.383 1079 1078 842.383 1078 550.5H1062ZM549.5 38C832.546 38 1062 267.454 1062 550.5H1078C1078 258.618 841.383 22 549.5 22V38ZM37 550.5C37 267.454 266.454 38 549.5 38V22C257.618 22 21 258.618 21 550.5H37ZM549.5 1063C266.454 1063 37 833.546 37 550.5H21C21 842.383 257.618 1079 549.5 1079V1063Z" fill="#027DFD" mask="url(#path-16-inside-1_99_78)"/>
<defs>
<filter id="filter0_d_99_78" x="352" y="343" width="721.77" height="724" filterUnits="userSpaceOnUse" color-interpolation-filters="sRGB">
<feFlood flood-opacity="0" result="BackgroundImageFix"/>
<feColorMatrix in="SourceAlpha" type="matrix" values="0 0 0 0 0 0 0 0 0 0 0 0 0 0 0 0 0 0 127 0" result="hardAlpha"/>
<feOffset dy="4"/>
<feGaussianBlur stdDeviation="2"/>
<feComposite in2="hardAlpha" operator="out"/>
<feColorMatrix type="matrix" values="0 0 0 0 0 0 0 0 0 0 0 0 0 0 0 0 0 0 0.25 0"/>
<feBlend mode="normal" in2="BackgroundImageFix" result="effect1_dropShadow_99_78"/>
<feBlend mode="normal" in="SourceGraphic" in2="effect1_dropShadow_99_78" result="shape"/>
</filter>
</defs>
</svg>
