<svg width="74" height="74" viewBox="0 0 74 74" fill="none" xmlns="http://www.w3.org/2000/svg">
<circle cx="37" cy="37" r="37" fill="#043875"/>
<rect x="28.25" y="22.25" width="17.5" height="29.5" rx="3.75" stroke="#C6BAFA" stroke-width="2.5"/>
<path d="M40.364 39.354C40.364 40.1473 40.112 40.7867 39.608 41.272C39.104 41.7573 38.474 42.056 37.718 42.168V43.4H36.472V42.182C35.7533 42.0793 35.1233 41.7993 34.582 41.342C34.0407 40.8847 33.658 40.264 33.434 39.48L35.044 38.822C35.1467 39.2047 35.324 39.5407 35.576 39.83C35.828 40.1193 36.1267 40.32 36.472 40.432V37.758L36.346 37.716C34.666 37.0627 33.826 36.1107 33.826 34.86C33.826 34.1787 34.064 33.5953 34.54 33.11C35.0253 32.6153 35.6693 32.3213 36.472 32.228V31.024H37.718V32.256C38.3993 32.368 38.9407 32.6107 39.342 32.984C39.7433 33.348 40.0187 33.7587 40.168 34.216L38.6 34.916C38.5347 34.7107 38.4273 34.524 38.278 34.356C38.1287 34.188 37.942 34.062 37.718 33.978V36.484C38.614 36.8573 39.2767 37.254 39.706 37.674C40.1447 38.094 40.364 38.654 40.364 39.354ZM35.548 34.86C35.548 35.084 35.618 35.28 35.758 35.448C35.9073 35.6067 36.1453 35.77 36.472 35.938V33.894C36.192 33.9687 35.968 34.09 35.8 34.258C35.632 34.426 35.548 34.6267 35.548 34.86ZM37.718 40.432C37.9793 40.3387 38.1847 40.2033 38.334 40.026C38.4927 39.8393 38.572 39.62 38.572 39.368C38.572 39.116 38.5067 38.9107 38.376 38.752C38.2547 38.5933 38.0353 38.4347 37.718 38.276V40.432Z" fill="#C6BAFA"/>
</svg>
