<?xml version="1.0" encoding="UTF-8"?><svg width="242" height="35" xmlns="http://www.w3.org/2000/svg"><g fill="none" fill-rule="evenodd"><path d="M57.1982916 28.0366667c-1.9273373 0-3.7034842-.4627732-5.328494-1.3883334-1.6250098-.9255601-2.9146059-2.1958252-3.8688268-3.8108333-.9542209-1.6150081-1.4313241-3.4141568-1.4313241-5.3975 0-1.9833433.4771032-3.7824919 1.4313241-5.3975.9542209-1.6150081 2.243817-2.8852732 3.8688268-3.8108333 1.6250098-.92556022 3.4011567-1.38833337 5.328494-1.38833337 1.5305325 0 2.9571186.27388615 4.279801.82166667 1.3226825.5477805 2.4280505 1.3127729 3.3161372 2.295l-2.2107581 2.21c-.6613412-.7366703-1.450215-1.3033313-2.3666449-1.7-.91643-.3966687-1.9320459-.595-3.0468783-.595-1.3037869 0-2.522526.3116636-3.6562538.935-1.1337278.6233365-2.0406964 1.5111054-2.7209331 2.6633333-.6802333 1.152228-1.0203499 2.474437-1.0203499 3.9666667 0 1.4922297.3401166 2.8144387 1.0203499 3.9666667.6802367 1.1522279 1.5872053 2.0399968 2.7209331 2.6633333 1.1337278.6233364 2.3619145.935 3.6845969.935 1.2093096 0 2.2202018-.1794427 3.0327067-.5383333.8125049-.3588907 1.5399693-.8405526 2.1824151-1.445.4157002-.4155577.7699848-.9349969 1.0628645-1.5583334.2928797-.6233364.4865552-1.3033296.5810326-2.04h-6.887362V16.59h9.8917256c.0944773.5288915.1417153 1.0766638.1417153 1.6433333 0 1.2844509-.1983994 2.5169386-.5952042 3.6975-.3968047 1.1805615-1.0297932 2.2052735-1.8989845 3.0741667-1.9084418 2.0211212-4.4120531 3.0316667-7.5109091 3.0316667zm18.3246175 0c-1.4549507 0-2.7587181-.3352745-3.9113413-1.0058334-1.1526233-.6705589-2.0501443-1.591383-2.6925901-2.7625-.6424457-1.1711169-.9636638-2.4744372-.9636638-3.91 0-1.4355627.3212181-2.738883.9636638-3.91.6424458-1.1711169 1.5399668-2.0919411 2.6925901-2.7625C72.764191 13.0152744 74.0679584 12.68 75.5229091 12.68s2.7587181.3399966 3.9113413 1.02c1.1526233.6800034 2.0501443 1.6055497 2.6925901 2.7766667.6424457 1.1711169.9636638 2.4649929.9636638 3.8816666 0 1.4355628-.3212181 2.7388831-.9636638 3.91-.6424458 1.171117-1.5399668 2.0919411-2.6925901 2.7625-1.1526232.6705589-2.4563906 1.0058334-3.9113413 1.0058334zm0-2.8616667c.7936094 0 1.5305215-.1936092 2.2107581-.5808333.6802367-.3872242 1.2234731-.9444408 1.6297256-1.6716667.4062525-.7272259.6093756-1.5819395.6093756-2.5641667 0-.9822271-.2031231-1.8322186-.6093756-2.55-.4062525-.7177813-.9494889-1.2702758-1.6297256-1.6575-.6802366-.3872241-1.4171487-.5808333-2.2107581-.5808333-.7936095 0-1.5305215.1936092-2.2107582.5808333-.6802366.3872242-1.2234731.9397187-1.6297255 1.6575-.4062525.7177814-.6093757 1.5677729-.6093757 2.55 0 .9822272.2031232 1.8369408.6093757 2.5641667.4062524.7272259.9494889 1.2844425 1.6297255 1.6716667.6802367.3872241 1.4171487.5808333 2.2107582.5808333zm15.7453996 2.8616667c-1.4549506 0-2.758718-.3352745-3.9113413-1.0058334-1.1526232-.6705589-2.0501443-1.591383-2.69259-2.7625-.6424458-1.1711169-.9636638-2.4744372-.9636638-3.91 0-1.4355627.321218-2.738883.9636638-3.91.6424457-1.1711169 1.5399668-2.0919411 2.69259-2.7625C88.5095907 13.0152744 89.8133581 12.68 91.2683087 12.68c1.4549507 0 2.7587181.3399966 3.9113414 1.02 1.1526232.6800034 2.0501443 1.6055497 2.69259 2.7766667.6424458 1.1711169.9636638 2.4649929.9636638 3.8816666 0 1.4355628-.321218 2.7388831-.9636638 3.91-.6424457 1.171117-1.5399668 2.0919411-2.69259 2.7625-1.1526233.6705589-2.4563907 1.0058334-3.9113414 1.0058334zm0-2.8616667c.7936095 0 1.5305215-.1936092 2.2107582-.5808333.6802367-.3872242 1.2234731-.9444408 1.6297256-1.6716667.4062524-.7272259.6093756-1.5819395.6093756-2.5641667 0-.9822271-.2031232-1.8322186-.6093756-2.55-.4062525-.7177813-.9494889-1.2702758-1.6297256-1.6575-.6802367-.3872241-1.4171487-.5808333-2.2107582-.5808333-.7936094 0-1.5305214.1936092-2.2107581.5808333-.6802367.3872242-1.2234731.9397187-1.6297256 1.6575-.4062524.7177814-.6093756 1.5677729-.6093756 2.55 0 .9822272.2031232 1.8369408.6093756 2.5641667.4062525.7272259.9494889 1.2844425 1.6297256 1.6716667.6802367.3872241 1.4171487.5808333 2.2107581.5808333zm15.4903123 8.9816667c-1.776174 0-3.245274-.4061071-4.407345-1.2183334-1.162071-.8122262-1.941497-1.7755499-2.338302-2.89L102.932309 28.83c.302327.7555593.788878 1.3647199 1.459667 1.8275.670789.4627801 1.459663.6941667 2.366645.6941667 1.322682 0 2.357193-.3919406 3.103564-1.1758334.746371-.7838928 1.119551-1.8841595 1.119551-3.3008333v-1.3316667h-.170058c-.472387.6800034-1.100652 1.2136092-1.884814 1.6008334-.784161.3872241-1.686406.5808333-2.706761.5808333-1.20931 0-2.333573-.3116635-3.372823-.935-1.039251-.6233364-1.865915-1.5063832-2.480018-2.6491667-.614102-1.1427835-.921149-2.4508259-.921149-3.9241666s.307047-2.7813832.921149-3.9241667c.614103-1.1427835 1.440767-2.0305524 2.480018-2.6633333 1.03925-.632781 2.163513-.9491667 3.372823-.9491667 1.001459 0 1.898981.1983313 2.69259.595.793609.3966686 1.426598.9349966 1.898985 1.615h.170058v-1.7566667h2.97602V26.79c0 1.5677856-.302322 2.9041611-.906977 4.0091667-.604655 1.1050055-1.450214 1.9408305-2.536704 2.5075-1.086489.5666695-2.338294.85-3.755454.85zm.028343-9.265c.755819 0 1.45494-.1841649 2.097386-.5525.642446-.3683352 1.152616-.9066632 1.530525-1.615.377909-.7083369.566861-1.5441619.566861-2.5075 0-1.4733407-.401523-2.6208293-1.20458-3.4425-.803057-.8216708-1.799778-1.2325-2.990192-1.2325-.774714 0-1.483283.1841648-2.125729.5525-.642446.3683351-1.152616.9019409-1.530525 1.6008333-.377909.6988924-.566861 1.5394395-.566861 2.5216667 0 .9822271.188952 1.8227742.566861 2.5216666.377909.6988924.888079 1.2324982 1.530525 1.6008334.642446.3683351 1.351015.5525 2.125729.5525zm9.368213-17.59500003h3.117736V27.5833333h-3.117736V7.29666667zm11.777372 20.74000003c-1.41716 0-2.687861-.3305523-3.812141-.9916667-1.12428-.6611144-2.002906-1.5724942-2.635904-2.7341667-.632998-1.1616724-.949492-2.4697149-.949492-3.9241666 0-1.3788958.307047-2.6586052.921149-3.8391667.614103-1.1805615 1.46911-2.1202743 2.565047-2.8191667 1.095936-.6988924 2.343018-1.0483333 3.741283-1.0483333 1.45495 0 2.716203.3211079 3.783797.9633333 1.067594.6422255 1.880087 1.52055 2.437503 2.635.557416 1.1144501.83612 2.3705486.83612 3.7683334 0 .2644457-.028343.594998-.085029.9916666h-11.082134c.113373 1.3411179.590476 2.3752742 1.431324 3.1025.840848.7272259 1.818674 1.0908334 2.933506 1.0908334.888087 0 1.658065-.2030536 2.309959-.6091667.651893-.4061131 1.176235-.9586076 1.573039-1.6575l2.635904 1.2466667c-.680236 1.1900059-1.56831 2.1249966-2.664247 2.805-1.095937.6800034-2.409152 1.02-3.939684 1.02zm3.71294-9.3783334c-.037791-.5100025-.1984-1.0152752-.481832-1.5158333-.283431-.5005581-.713297-.9208316-1.289609-1.2608333-.576312-.3400017-1.280157-.51-2.111557-.51-1.00146 0-1.847019.297497-2.536704.8925-.689684.5950029-1.166787 1.3930505-1.431324 2.3941666h7.851026zm15.108514-11.36166663h2.720934l7.70931 20.28666663h-2.635904l-2.0407-5.5816666h-8.758003l-2.0407 5.5816666h-2.635904l7.680967-20.28666663zM151.685695 19.735l-2.69259-7.31-.821949-2.1816667h-.113372L147.264178 12.425l-2.69259 7.31h7.114107zm11.29554 8.3016667c-1.549428 0-2.843748-.3636075-3.882998-1.0908334-1.039251-.7272258-1.776163-1.6574943-2.210758-2.7908333l2.154072-.9633333c.359013.8688932.892802 1.5394421 1.601382 2.0116666.70858.4722246 1.488006.7083334 2.338302.7083334.906982 0 1.681685-.1841649 2.32413-.5525.642446-.3683352.963664-.8924966.963664-1.5725 0-.6044475-.255085-1.0908315-.765262-1.4591667-.510178-.3683352-1.313223-.6847209-2.40916-.9491667L161.337338 20.925c-1.152623-.2833348-2.097382-.7649966-2.834305-1.445s-1.105379-1.5583279-1.105379-2.635c0-.8311153.250361-1.5630524.75109-2.1958333.50073-.632781 1.166785-1.119165 1.998186-1.4591667.8314-.3400017 1.728921-.51 2.69259-.51 1.265996 0 2.394983.2738862 3.386995.8216667.992011.5477805 1.695857 1.3127728 2.111557 2.295L166.240686 16.76c-.642446-1.2844509-1.785604-1.9266667-3.429509-1.9266667-.79361 0-1.488008.1841649-2.083215.5525-.595207.3683352-.892806.8358334-.892806 1.4025 0 .5288916.207847.9586095.623547 1.2891667.387987.3085201.957026.5635598 1.707133.7651258l2.260895.5807075c1.417159.3588907 2.484737.8924965 3.202765 1.6008334.718027.7083368 1.077036 1.5724949 1.077036 2.5925 0 .8877822-.255085 1.6669411-.765263 2.3375-.510177.6705589-1.199851 1.1852759-2.069043 1.5441666-.869191.3588907-1.832845.5383334-2.890991.5383334zm11.947431 0c-1.549428 0-2.843748-.3636075-3.882999-1.0908334-1.03925-.7272258-1.776162-1.6574943-2.210758-2.7908333l2.154072-.9633333c.359014.8688932.892803 1.5394421 1.601383 2.0116666.70858.4722246 1.488006.7083334 2.338302.7083334.906982 0 1.681684-.1841649 2.32413-.5525.642446-.3683352.963664-.8924966.963664-1.5725 0-.6044475-.255085-1.0908315-.765263-1.4591667-.510177-.3683352-1.313222-.6847209-2.409159-.9491667l-1.75727-.4533333c-1.152623-.2833348-2.097382-.7649966-2.834305-1.445s-1.105379-1.5583279-1.105379-2.635c0-.8311153.250361-1.5630524.751091-2.1958333.50073-.632781 1.166785-1.119165 1.998185-1.4591667.831401-.3400017 1.728922-.51 2.69259-.51 1.265996 0 2.394983.2738862 3.386995.8216667.992012.5477805 1.695857 1.3127728 2.111558 2.295L178.188117 16.76c-.642446-1.2844509-1.785604-1.9266667-3.42951-1.9266667-.793609 0-1.488007.1841649-2.083214.5525-.595207.3683352-.892806.8358334-.892806 1.4025 0 .5288916.207847.9586095.623547 1.2891667.387987.3085201.957026.5635598 1.707133.7651258l2.260894.5807075c1.41716.3588907 2.484738.8924965 3.202765 1.6008334.718028.7083368 1.077036 1.5724949 1.077036 2.5925 0 .8877822-.255085 1.6669411-.765262 2.3375-.510178.6705589-1.199852 1.1852759-2.069043 1.5441666-.869191.3588907-1.832846.5383334-2.890991.5383334zM183.10647 10.47c-.472387 0-.878633-.1699983-1.218751-.51-.340119-.3400017-.510175-.7461088-.510175-1.2183333 0-.4722246.170056-.87360949.510175-1.2041667.340118-.33055721.746364-.49583333 1.218751-.49583333.472387 0 .878633.16527612 1.218751.49583333.340119.33055721.510175.7319421.510175 1.2041667 0 .4722245-.165333.8783316-.496003 1.2183333-.330671.3400017-.741641.51-1.232923.51zm-1.190408 2.6633333h2.380816v14.45h-2.380816v-14.45zm9.765015 14.9033334c-1.549428 0-2.843748-.3636075-3.882998-1.0908334-1.039251-.7272258-1.776163-1.6574943-2.210758-2.7908333l2.154072-.9633333c.359014.8688932.892802 1.5394421 1.601382 2.0116666.70858.4722246 1.488006.7083334 2.338302.7083334.906982 0 1.681685-.1841649 2.324131-.5525.642445-.3683352.963663-.8924966.963663-1.5725 0-.6044475-.255085-1.0908315-.765262-1.4591667-.510178-.3683352-1.313223-.6847209-2.40916-.9491667L190.03718 20.925c-1.152623-.2833348-2.097382-.7649966-2.834305-1.445s-1.105379-1.5583279-1.105379-2.635c0-.8311153.250361-1.5630524.751091-2.1958333.500729-.632781 1.166784-1.119165 1.998185-1.4591667.8314-.3400017 1.728921-.51 2.69259-.51 1.265996 0 2.394983.2738862 3.386995.8216667.992012.5477805 1.695857 1.3127728 2.111557 2.295L194.940528 16.76c-.642445-1.2844509-1.785604-1.9266667-3.429509-1.9266667-.79361 0-1.488007.1841649-2.083215.5525-.595207.3683352-.892806.8358334-.892806 1.4025 0 .5288916.207847.9586095.623547 1.2891667.387987.3085201.957027.5635598 1.707133.7651258l2.260895.5807075c1.41716.3588907 2.484737.8924965 3.202765 1.6008334.718028.7083368 1.077036 1.5724949 1.077036 2.5925 0 .8877822-.255085 1.6669411-.765263 2.3375-.510177.6705589-1.199851 1.1852759-2.069042 1.5441666-.869192.3588907-1.832846.5383334-2.890992.5383334zM203.996967 27.81c-.585759 0-1.128995-.0944435-1.629725-.2833333-.50073-.1888899-.921148-.4438873-1.261266-.765-.377909-.3588907-.661337-.7744421-.850292-1.2466667-.188954-.4722246-.28343-1.0483299-.28343-1.7283333V15.315h-2.522532v-2.1816667h2.522532v-4.08h2.409159v4.08h3.514539V15.315h-3.514539v7.8766667c0 .7933373.151162 1.378887.453489 1.7566666.359014.4155577.878631.6233334 1.558868.6233334.547969 0 1.077034-.160554 1.587211-.4816667v2.3516667c-.283432.1322228-.571583.2266663-.864463.2833333-.29288.0566669-.666059.085-1.119551.085zm7.695973.2266667c-1.058146 0-2.002905-.2077757-2.834305-.6233334-.831401-.4155576-1.473837-.9869408-1.927328-1.7141666-.453491-.7272259-.680233-1.5536065-.680233-2.4791667 0-1.5300077.576303-2.7247179 1.728926-3.5841667 1.152623-.8594487 2.607552-1.2891666 4.36483-1.2891666.869191 0 1.67696.0944435 2.423331.2833333.746371.1888898 1.31795.4061099 1.714755.6516667v-.8783334c0-1.076672-.377904-1.94083-1.133722-2.5925-.755819-.6516699-1.710025-.9775-2.862649-.9775-.812504 0-1.558864.1747205-2.239101.5241667-.680236.3494462-1.218749.8358302-1.615554 1.4591667l-1.813955-1.36c.566864-.8688933 1.34629-1.5488865 2.338302-2.04.992012-.4911136 2.092656-.7366667 3.301965-.7366667 1.965129 0 3.50981.5147171 4.63409 1.5441667 1.12428 1.0294496 1.686411 2.4319355 1.686411 4.2075v9.1516666h-2.295787V25.515h-.113372c-.4157.6988924-1.039241 1.2938864-1.870642 1.785-.8314.4911136-1.766712.7366667-2.805962.7366667zm.226744-2.125c.812505 0 1.568313-.2077757 2.267445-.6233334.699132-.4155576 1.25654-.9727743 1.67224-1.6716666.4157-.6988924.623547-1.4638848.623547-2.295-.453491-.3022238-1.010899-.5477769-1.67224-.7366667s-1.360463-.2833333-2.097386-.2833333c-1.322683 0-2.319403.2738861-2.990192.8216666-.670789.5477806-1.006179 1.2561068-1.006179 2.125 0 .7933373.302323 1.4355531.906978 1.9266667.604655.4911136 1.36991.7366667 2.295787.7366667zm8.744666-12.7783334h2.295787v2.125h.113372c.396805-.7177813 1.029794-1.3269419 1.898985-1.8275.869191-.500558 1.795055-.7508333 2.777619-.7508333 1.738383 0 3.065769.5052727 3.982199 1.5158333.91643 1.0105606 1.374638 2.3847136 1.374638 4.1225v9.265h-2.409159v-8.8966666c0-1.3411178-.321218-2.3138859-.963664-2.9183334-.642446-.6044474-1.521072-.9066666-2.635904-.9066666-.774714 0-1.469112.21722-2.083214.6516666-.614103.4344466-1.091206 1.0058298-1.431325 1.7141667-.340118.7083369-.510175 1.4497184-.510175 2.2241667v8.1316666h-2.409159v-14.45zM239.952631 27.81c-.585759 0-1.128996-.0944435-1.629725-.2833333-.50073-.1888899-.921148-.4438873-1.261266-.765-.377909-.3588907-.661337-.7744421-.850292-1.2466667-.188954-.4722246-.28343-1.0483299-.28343-1.7283333V15.315h-2.522532v-2.1816667h2.522532v-4.08h2.409159v4.08h3.514539V15.315h-3.514539v7.8766667c0 .7933373.151162 1.378887.453489 1.7566666.359014.4155577.878631.6233334 1.558868.6233334.547968 0 1.077033-.160554 1.587211-.4816667v2.3516667c-.283432.1322228-.571584.2266663-.864463.2833333-.29288.0566669-.66606.085-1.119551.085z" fill="#757575" fill-rule="nonzero"/><path d="M-1-2h40.0137221v40H-1z"/><g transform="translate(.250429 .916667)" fill-rule="nonzero"><ellipse fill="#34A853" cx="34.1783877" cy="9.16666667" rx="2.50085763" ry="2.5"/><ellipse fill="#EA4335" cx="26.6758148" cy="15" rx="5.00171527" ry="5"/><ellipse fill="#FBBC05" cx="26.6758148" cy="27.5" rx="5.83533448" ry="5.83333333"/><ellipse fill="#4285F4" cx="10.0034305" cy="10" rx="10.0034305" ry="10"/></g></g></svg>