<?xml version="1.0" encoding="UTF-8"?>
<svg width="320px" height="476px" viewBox="0 0 320 476" version="1.1" xmlns="http://www.w3.org/2000/svg" xmlns:xlink="http://www.w3.org/1999/xlink">
    <!-- Generator: Sketch 60 (88103) - https://sketch.com -->
    <title>BG_Mob_1</title>
    <desc>Created with Sketch.</desc>
    <defs>
        <rect id="path-1" x="0" y="0" width="320" height="476"></rect>
        <polygon id="path-3" points="0 0.879676159 319 0.879676159 319 160.601898 0 160.601898"></polygon>
    </defs>
    <g id="Mockup" stroke="none" stroke-width="1" fill="none" fill-rule="evenodd">
        <g id="BG_Mob_1">
            <mask id="mask-2" fill="white">
                <use xlink:href="#path-1"></use>
            </mask>
            <use id="bg" fill="#212C34" xlink:href="#path-1"></use>
            <g id="illusts" mask="url(#mask-2)">
                <g transform="translate(-316.000000, -30.000000)">
                    <g id="4" transform="translate(199.000000, 337.000000)">
                        <polygon id="Rectangle-12" stroke="#01579B" stroke-width="2" points="87 8.43349633e-12 174 87 87 174 -5.88114256e-11 87"></polygon>
                    </g>
                    <g id="3" transform="translate(718.500000, 170.000000) scale(1, -1) translate(-718.500000, -170.000000) translate(553.000000, 91.000000)">
                        <line x1="55.4285714" y1="1.5" x2="330.484633" y2="1.5" id="Line-6" stroke="#01579B" stroke-width="2" stroke-linecap="square"></line>
                        <circle id="Oval-8" stroke="#AECBFA" cx="40.5" cy="21.5" r="10.5"></circle>
                        <circle id="Oval-8" stroke="#01579B" stroke-width="2" cx="45.5" cy="112.5" r="45.5"></circle>
                    </g>
                    <g id="1" transform="translate(434.000000, 0.000000)">
                        <circle id="Oval-Copy-8" stroke="#01579B" stroke-width="2" cx="6.5" cy="58.5" r="6.5"></circle>
                        <circle id="Oval-Copy-4" stroke="#01579B" stroke-width="2" cx="6.5" cy="31.5" r="6.5"></circle>
                        <circle id="Oval-Copy-9" stroke="#01579B" stroke-width="2" cx="6.5" cy="83.5" r="6.5"></circle>
                        <circle id="Oval-Copy-10" stroke="#01579B" stroke-width="2" cx="31.5" cy="58.5" r="6.5"></circle>
                        <circle id="Oval-Copy-5" stroke="#01579B" stroke-width="2" cx="31.5" cy="31.5" r="6.5"></circle>
                        <circle id="Oval-Copy-11" stroke="#01579B" stroke-width="2" cx="31.5" cy="83.5" r="6.5"></circle>
                        <circle id="Oval-Copy-12" stroke="#01579B" stroke-width="2" cx="58.5" cy="58.5" r="6.5"></circle>
                        <circle id="Oval-Copy-6" stroke="#01579B" stroke-width="2" cx="58.5" cy="31.5" r="6.5"></circle>
                        <circle id="Oval-Copy-13" stroke="#01579B" stroke-width="2" cx="58.5" cy="83.5" r="6.5"></circle>
                        <circle id="Oval-Copy-14" stroke="#01579B" stroke-width="2" cx="83.5" cy="58.5" r="6.5"></circle>
                        <circle id="Oval-Copy-7" stroke="#01579B" stroke-width="2" cx="83.5" cy="31.5" r="6.5"></circle>
                        <circle id="Oval-Copy-15" stroke="#01579B" stroke-width="2" cx="83.5" cy="83.5" r="6.5"></circle>
                    </g>
                    <g id="Clock-2" transform="translate(434.000000, 404.000000)">
                        <g id="Clock-hands">
                            <mask id="mask-4" fill="white">
                                <use xlink:href="#path-3"></use>
                            </mask>
                            <use id="Mask" fill="#212C34" xlink:href="#path-3"></use>
                            <g mask="url(#mask-4)">
                                <g transform="translate(88.185065, -47.277778)">
                                    <line x1="67.2965375" y1="43.2168238" x2="226.614167" y2="148.569061" id="Minute-hand" stroke="#AECBFA" stroke-width="2" fill="none" stroke-linecap="square" transform="translate(146.955352, 95.892943) rotate(-56.000000) translate(-146.955352, -95.892943) "></line>
                                    <path d="M2.49765568,112.230486 L79.0168919,112.260397 C80.6728297,112.26339 82.0150714,113.605632 82.0180632,115.26157 L82.0192039,118.182566 C82.0221942,119.839419 80.6795731,121.183089 79.022719,121.183736 C79.0219376,121.183736 79.0211561,121.183736 79.0203756,121.181393 L2.50113941,121.151481 C0.845201612,121.148489 -0.49704008,119.806247 -0.500031884,118.150309 L-0.50117256,115.229313 C-0.504162889,113.57246 0.838458249,112.22879 2.49531237,112.228143 C2.49609378,112.228142 2.49687519,112.228142 2.49765568,112.230486 Z" id="Hour-hand" stroke="none" fill="#01579B" fill-rule="evenodd" transform="translate(40.759016, 116.705939) rotate(19.000000) translate(-40.759016, -116.705939) "></path>
                                </g>
                            </g>
                            <path d="M1,1.87967616 L1,159.601898 L318,159.601898 L318,1.87967616 L1,1.87967616 Z" id="Rectangle-12" stroke="#01579B" stroke-width="2" mask="url(#mask-4)"></path>
                        </g>
                    </g>
                    <g id="Clock-1" transform="translate(200.687043, 231.215702) rotate(-2.000000) translate(-200.687043, -231.215702) translate(5.187043, 99.715702)">
                        <path d="M337.148199,235.262072 C308.899655,256.999244 268.111487,252.070448 246.045278,224.253297 L157.009341,117.502168 C134.943131,89.6850169 139.954904,49.513301 168.203449,27.7761289 C196.451994,6.03895675 237.240161,10.9677533 259.30637,38.7849041 L348.342308,145.536033 C370.408517,173.353184 365.396744,213.5249 337.148199,235.262072 Z" id="Hour" stroke="#01579B" transform="translate(252.675824, 131.519101) rotate(-78.000000) translate(-252.675824, -131.519101) "></path>
                    </g>
                </g>
            </g>
        </g>
    </g>
</svg>