<?xml version="1.0" encoding="UTF-8"?><svg width="1439" height="475" xmlns="http://www.w3.org/2000/svg" xmlns:xlink="http://www.w3.org/1999/xlink"><defs><path id="a" d="M0 .87967616h319V160.601898H0z"/></defs><g fill="none" fill-rule="evenodd"><path d="M317 340l87 87-87 87-87-87z" stroke="#01579B" stroke-width="2"/><g transform="matrix(1 0 0 -1 1034 152)"><path d="M175.428571 78.5h275.056062" stroke="#01579B" stroke-width="2" stroke-linecap="square"/><circle stroke="#AECBFA" cx="127.5" cy="98.5" r="10.5"/><circle stroke="#01579B" stroke-width="2" cx="45.5" cy="45.5" r="45.5"/></g><g transform="translate(675 -30)" stroke="#01579B" stroke-width="2"><circle cx="6.5" cy="58.5" r="6.5"/><circle cx="6.5" cy="31.5" r="6.5"/><circle cx="6.5" cy="83.5" r="6.5"/><circle cx="31.5" cy="58.5" r="6.5"/><circle cx="31.5" cy="31.5" r="6.5"/><circle cx="31.5" cy="83.5" r="6.5"/><circle cx="58.5" cy="58.5" r="6.5"/><circle cx="58.5" cy="31.5" r="6.5"/><circle cx="58.5" cy="83.5" r="6.5"/><circle cx="83.5" cy="58.5" r="6.5"/><circle cx="83.5" cy="31.5" r="6.5"/><circle cx="83.5" cy="83.5" r="6.5"/></g><g transform="translate(1152 266)"><mask id="b" fill="#fff"><use xlink:href="#a"/></mask><use fill="#212C34" xlink:href="#a"/><g mask="url(#b)"><path d="M146.92529124 85.19920317l176.4302508-73.16807742" stroke="#AECBFA" stroke-width="2" stroke-linecap="square"/><path d="M94.22431906 52.73985659l72.34062117 24.94050792c1.56474553.54195055 2.39686873 2.24805645 1.86057686 3.81475062l-.94990473 2.76222735c-.53659118 1.56755884-2.24352054 2.40090911-3.8103175 1.86210193-.00073884-.0002544-.00147776-.00050883-.00145293-.00297829L91.32322112 61.17595726c-1.56474585-.5419496-2.39686905-2.2480555-1.86057718-3.81474967l.94990475-2.76222734c.53659116-1.56755885 2.24352055-2.4009091 3.81031754-1.86210192.00073916.00025346.001478.00050786.00145283.00297826z" fill="#01579B"/></g><path d="M1 1.87967616V159.601898h317V1.87967616H1z" stroke="#01579B" stroke-width="2" mask="url(#b)"/></g><g transform="rotate(-2 1238.86429017 1067.1393861)"><path d="M371.23584447 71.17860278c15.38895988 32.1506587 2.08753313 71.02275208-29.7095692 86.82325058l-122.92997389 64.89548022c-31.79710185 15.80049961-70.04896328 2.54607648-85.43792326-29.60458224-15.38896-32.15065872-2.08753275-71.022752 29.7095694-86.82325053l122.9299733-64.89548137c31.79710234-15.80049849 70.04896376-2.54607536 85.43792365 29.60458334z" stroke="#01579B"/><ellipse stroke="#1389FD" transform="rotate(-92 61.584869 101.504577)" cx="61.584869" cy="101.504577" rx="59.2940862" ry="59.2683061"/></g></g></svg>