<?xml version="1.0" encoding="UTF-8"?><svg width="301" height="338" xmlns="http://www.w3.org/2000/svg"><g stroke="#AECBFA" stroke-width="2" fill="none" fill-rule="evenodd"><path d="M101 144l99 99-99 99-99-99z"/><g transform="translate(169 1)"><circle cx="10.5" cy="10.5" r="10.5"/><circle cx="10.5" cy="92.5" r="10.5"/><circle cx="10.5" cy="50.5" r="10.5"/><circle cx="10.5" cy="132.5" r="10.5"/><circle cx="50.5" cy="10.5" r="10.5"/><circle cx="50.5" cy="92.5" r="10.5"/><circle cx="50.5" cy="50.5" r="10.5"/><circle cx="50.5" cy="132.5" r="10.5"/><circle cx="92.5" cy="10.5" r="10.5"/><circle cx="92.5" cy="92.5" r="10.5"/><circle cx="92.5" cy="50.5" r="10.5"/><circle cx="92.5" cy="132.5" r="10.5"/><circle cx="132.5" cy="10.5" r="10.5"/><circle cx="132.5" cy="92.5" r="10.5"/><circle cx="132.5" cy="50.5" r="10.5"/><circle cx="132.5" cy="132.5" r="10.5"/></g></g></svg>