<svg width="500" height="489" viewBox="0 0 500 489" fill="none" xmlns="http://www.w3.org/2000/svg">
<mask id="mask0_9631_159" style="mask-type:alpha" maskUnits="userSpaceOnUse" x="0" y="0" width="500" height="489">
<path d="M500 0H0V488.971H500V0Z" fill="#C4C4C4"/>
</mask>
<g mask="url(#mask0_9631_159)">
<path d="M91.298 405.328C178.776 492.806 320.606 492.806 408.084 405.328C495.563 317.85 495.563 176.02 408.084 88.5416C320.606 1.06349 178.776 1.06349 91.298 88.5416C3.81979 176.02 3.81979 317.85 91.298 405.328Z" fill="url(#paint0_linear_9631_159)"/>
<mask id="mask1_9631_159" style="mask-type:alpha" maskUnits="userSpaceOnUse" x="137" y="15" width="226" height="464">
<path d="M339.375 478.814H160.674C147.909 478.814 137.56 468.466 137.56 455.7V38.1698C137.56 25.404 147.909 15.0553 160.674 15.0553H339.375C352.14 15.0553 362.489 25.404 362.489 38.1698V455.7C362.489 468.466 352.14 478.814 339.375 478.814Z" fill="#C4C4C4"/>
</mask>
<g mask="url(#mask1_9631_159)">
<path d="M142.762 15.0547H356.937V478.814H142.762V15.0547Z" fill="url(#paint1_linear_9631_159)"/>
<path d="M358.608 245.404L350.795 256.434L338.387 245.404L325.979 256.434L315.869 245.404" stroke="#F9F8C4" stroke-width="2"/>
</g>
<path d="M339.374 474.963H160.673C150.035 474.963 141.411 466.339 141.411 455.701V38.1708C141.411 27.5326 150.035 18.9087 160.673 18.9087H339.374C350.012 18.9087 358.636 27.5326 358.636 38.1708V455.701C358.636 466.339 350.012 474.963 339.374 474.963Z" stroke="#01579B" stroke-width="8.38288"/>
<path d="M318.625 71.6934H58.5148C55.4691 71.6934 53.0001 74.1624 53.0001 77.2081V141.546C53.0001 144.592 55.4691 147.061 58.5148 147.061H318.625C321.671 147.061 324.14 144.592 324.14 141.546V77.2081C324.14 74.1624 321.671 71.6934 318.625 71.6934Z" fill="url(#paint2_linear_9631_159)"/>
<path d="M95.2794 129.597C106.447 129.597 115.5 120.544 115.5 109.377C115.5 98.2093 106.447 89.1562 95.2794 89.1562C84.1119 89.1562 75.0588 98.2093 75.0588 109.377C75.0588 120.544 84.1119 129.597 95.2794 129.597Z" fill="#F9F8C4"/>
<path d="M132.963 101.104H283.699" stroke="#F9F8C4" stroke-width="6"/>
<path d="M132.963 116.729H237.743" stroke="#F9F8C4" stroke-width="6"/>
<path d="M435.353 171.877H240.5C234.409 171.877 229.471 176.815 229.471 182.906V420.958C229.471 427.049 234.409 431.987 240.5 431.987H435.353C441.444 431.987 446.382 427.049 446.382 420.958V182.906C446.382 176.815 441.444 171.877 435.353 171.877Z" fill="url(#paint3_linear_9631_159)"/>
<path d="M367.991 237.343L337.467 290.212L306.931 237.322L316.012 227.482H358.481L367.991 237.343Z" stroke="#F9F8C4" stroke-width="3"/>
<path d="M358.607 227.023L348.956 238.053L337.467 227.943L326.437 238.053L315.868 227.023" stroke="#F9F8C4" stroke-width="3"/>
<path d="M307.596 237.594H367.338" stroke="#F9F8C4" stroke-width="3"/>
<path d="M326.438 238.512L337.007 287.685" stroke="#F9F8C4" stroke-width="3"/>
<path d="M348.956 238.512L337.467 287.685" stroke="#F9F8C4" stroke-width="3"/>
<path d="M336.548 399.818C352.538 399.818 365.5 386.856 365.5 370.866C365.5 354.876 352.538 341.914 336.548 341.914C320.558 341.914 307.596 354.876 307.596 370.866C307.596 386.856 320.558 399.818 336.548 399.818Z" fill="#F9F8C4"/>
<path d="M348.037 370.864L332.182 380.018V361.711L348.037 370.864Z" fill="#054FA7"/>
<path d="M258.882 259.193H-1.22784V305.143H258.882V259.193Z" fill="url(#paint4_linear_9631_159)"/>
<path d="M159.46 264.428H181.997V270.794H166.162V279.447H180.409V285.814H166.162V300.037H159.46V264.428Z" fill="#043875"/>
<path d="M189.268 280.243H184.751V274.673H189.268V273.28C189.268 270.395 190.13 268.141 191.85 266.516C193.571 264.858 195.822 264.029 198.601 264.029C200.19 264.029 201.563 264.212 202.722 264.577V270.943C202.093 270.677 201.53 270.479 201.034 270.345C200.571 270.213 200.025 270.147 199.396 270.147C198.303 270.147 197.427 270.462 196.765 271.092C196.103 271.721 195.772 272.584 195.772 273.678V274.673H201.977V280.243H195.772V300.037H189.268V280.243Z" fill="#043875"/>
<path d="M35.0479 270.746H12.4763V293.318H35.0479V270.746Z" fill="#FFF49C"/>
<path d="M68.9053 270.746H46.3337V293.318H68.9053V270.746Z" fill="#F58C90"/>
<path d="M102.763 270.746H80.1912V293.318H102.763V270.746Z" fill="#C6BAFA"/>
<path d="M136.62 270.746H114.049V293.318H136.62V270.746Z" fill="#B8EAFE"/>
<path d="M225.696 271.15H218.307V278.137" stroke="#042B59" stroke-width="5"/>
<path d="M225.696 294.662H218.307V287.676" stroke="#042B59" stroke-width="5"/>
<path d="M237.654 271.016H245.043V278.002" stroke="#042B59" stroke-width="5"/>
<path d="M237.788 294.795H245.177V287.809" stroke="#042B59" stroke-width="5"/>
<g filter="url(#filter0_d_9631_159)">
<path d="M418.809 109.377H345.279C341.219 109.377 337.926 112.669 337.926 116.73V190.259C337.926 194.32 341.219 197.612 345.279 197.612H418.809C422.87 197.612 426.162 194.32 426.162 190.259V116.73C426.162 112.669 422.87 109.377 418.809 109.377Z" fill="white"/>
</g>
<path d="M381.128 129.732C381.524 129.599 382.844 129.599 383.24 129.599C392.61 129.466 405.676 137.574 406.468 152.994V172.135C406.468 175.591 403.697 178.382 400.265 178.382C397.757 178.382 394.458 175.192 394.458 172.135V152.994C394.062 147.943 390.102 142.227 383.24 141.828C382.844 141.828 381.92 141.828 381.26 141.828" fill="#FBBC04"/>
<path d="M406.339 172.268C406.339 175.592 403.568 178.383 400.268 178.383C396.969 178.383 394.198 175.592 394.198 172.268C394.198 168.946 396.837 166.154 400.268 166.154C403.7 166.287 406.339 168.946 406.339 172.268Z" fill="#4285F4"/>
<path d="M381.393 178.25C384.825 178.25 387.729 175.459 387.729 172.003C387.729 168.546 384.825 166.153 381.393 166.153C375.455 165.754 369.912 160.438 370.307 153.26V153.127C370.703 147.412 375.455 142.36 381.526 141.961C384.957 141.961 387.861 139.436 387.861 135.98C387.861 132.524 385.089 129.732 381.526 129.732C381.393 129.732 381.262 129.732 381.13 129.732C370.572 130.131 358.297 138.904 358.165 153.791V153.925C358.165 169.078 371.363 178.117 381.262 178.117L381.393 178.25Z" fill="#EA4335"/>
<g filter="url(#filter1_d_9631_159)">
<path d="M176.162 360.295H102.632C98.5714 360.295 95.2794 363.587 95.2794 367.648V441.177C95.2794 445.238 98.5714 448.53 102.632 448.53H176.162C180.223 448.53 183.515 445.238 183.515 441.177V367.648C183.515 363.587 180.223 360.295 176.162 360.295Z" fill="white"/>
</g>
<mask id="mask2_9631_159" style="mask-type:luminance" maskUnits="userSpaceOnUse" x="110" y="375" width="58" height="58">
<path d="M167.89 375.918H110.904V432.903H167.89V375.918Z" fill="white"/>
</mask>
<g mask="url(#mask2_9631_159)">
<path d="M166.299 408.075L143.062 431.312C140.942 433.433 137.504 433.433 135.383 431.312C133.261 429.193 133.264 425.754 135.383 423.634L158.623 400.395C160.743 398.275 164.181 398.275 166.301 400.395C168.421 402.517 168.421 405.954 166.299 408.075Z" fill="#FBBC04"/>
<path d="M143.061 431.315C145.182 429.195 145.182 425.757 143.061 423.635C140.94 421.515 137.502 421.515 135.38 423.635C133.26 425.757 133.26 429.195 135.38 431.315C137.502 433.437 140.94 433.437 143.061 431.315Z" fill="#34A853"/>
<path d="M147.18 388.953L135.559 400.572L143.237 408.25L154.858 396.631C156.978 394.512 156.978 391.072 154.858 388.953C152.736 386.831 149.3 386.831 147.18 388.953Z" fill="#FBBC04"/>
<path d="M131.618 419.87L143.236 408.251L135.558 400.572L123.939 412.191C121.82 414.311 121.82 417.75 123.939 419.87C126.059 421.99 129.498 421.99 131.618 419.87Z" fill="#3B80EF"/>
<path d="M143.263 408.226C145.384 406.105 145.384 402.666 143.263 400.546C141.142 398.425 137.703 398.425 135.583 400.546C133.462 402.666 133.462 406.105 135.583 408.226C137.703 410.347 141.142 410.347 143.263 408.226Z" fill="#34A853"/>
<path d="M143.413 385.187L120.174 408.426C118.054 410.546 114.615 410.546 112.495 408.426C110.375 406.306 110.375 402.868 112.495 400.747L135.734 377.508C137.855 375.388 141.293 375.388 143.413 377.508C145.533 379.628 145.533 383.066 143.413 385.187Z" fill="#3B80EF"/>
<path d="M139.574 386.779C142.573 386.779 145.005 384.348 145.005 381.349C145.005 378.349 142.573 375.918 139.574 375.918C136.574 375.918 134.142 378.349 134.142 381.349C134.142 384.348 136.574 386.779 139.574 386.779Z" fill="#34A853"/>
</g>
</g>
<defs>
<filter id="filter0_d_9631_159" x="321.926" y="93.377" width="120.235" height="120.234" filterUnits="userSpaceOnUse" color-interpolation-filters="sRGB">
<feFlood flood-opacity="0" result="BackgroundImageFix"/>
<feColorMatrix in="SourceAlpha" type="matrix" values="0 0 0 0 0 0 0 0 0 0 0 0 0 0 0 0 0 0 127 0" result="hardAlpha"/>
<feOffset/>
<feGaussianBlur stdDeviation="8"/>
<feColorMatrix type="matrix" values="0 0 0 0 0 0 0 0 0 0 0 0 0 0 0 0 0 0 0.1 0"/>
<feBlend mode="normal" in2="BackgroundImageFix" result="effect1_dropShadow_9631_159"/>
<feBlend mode="normal" in="SourceGraphic" in2="effect1_dropShadow_9631_159" result="shape"/>
</filter>
<filter id="filter1_d_9631_159" x="79.2794" y="344.295" width="120.235" height="120.234" filterUnits="userSpaceOnUse" color-interpolation-filters="sRGB">
<feFlood flood-opacity="0" result="BackgroundImageFix"/>
<feColorMatrix in="SourceAlpha" type="matrix" values="0 0 0 0 0 0 0 0 0 0 0 0 0 0 0 0 0 0 127 0" result="hardAlpha"/>
<feOffset/>
<feGaussianBlur stdDeviation="8"/>
<feColorMatrix type="matrix" values="0 0 0 0 0 0 0 0 0 0 0 0 0 0 0 0 0 0 0.1 0"/>
<feBlend mode="normal" in2="BackgroundImageFix" result="effect1_dropShadow_9631_159"/>
<feBlend mode="normal" in="SourceGraphic" in2="effect1_dropShadow_9631_159" result="shape"/>
</filter>
<linearGradient id="paint0_linear_9631_159" x1="408.084" y1="88.5416" x2="91.298" y2="405.328" gradientUnits="userSpaceOnUse">
<stop stop-color="#C6BAFA"/>
<stop offset="1" stop-color="#E7F8FF"/>
</linearGradient>
<linearGradient id="paint1_linear_9631_159" x1="148.846" y1="25.0819" x2="343.123" y2="478.814" gradientUnits="userSpaceOnUse">
<stop stop-color="#13C2AD"/>
<stop offset="1" stop-color="#E7F8FF"/>
</linearGradient>
<linearGradient id="paint2_linear_9631_159" x1="53.0001" y1="109.377" x2="324.14" y2="109.377" gradientUnits="userSpaceOnUse">
<stop stop-color="#0468D7"/>
<stop offset="1" stop-color="#13B9FD"/>
</linearGradient>
<linearGradient id="paint3_linear_9631_159" x1="337.926" y1="171.877" x2="337.926" y2="431.987" gradientUnits="userSpaceOnUse">
<stop stop-color="#043875"/>
<stop offset="1" stop-color="#0553B1"/>
</linearGradient>
<linearGradient id="paint4_linear_9631_159" x1="5.98885" y1="282.096" x2="258.574" y2="282.096" gradientUnits="userSpaceOnUse">
<stop stop-color="#0553B1"/>
<stop offset="1" stop-color="#56B7F7"/>
</linearGradient>
</defs>
</svg>
