<?xml version="1.0" encoding="UTF-8"?><svg width="141" height="28" xmlns="http://www.w3.org/2000/svg"><g fill="#CE292B" fill-rule="evenodd"><path d="M56.5902057 6.03525018c-2.4354452 0-5.2057653 1.1317786-6.8984868 3.3978155l.0013399-.00413284-.0013399.00154982.0013399-3.04001476h-5.8105812V27.599383h5.8092413V15.5317963c0-2.1722214 1.6795285-4.4807232 4.7897741-4.4807232 2.4041118 0 4.8912982 1.6757638 4.8912982 4.4807232V27.599383h5.8095505V14.4520915c0-4.8769594-3.4807829-8.41684132-8.592136-8.41684132M106.473408 6.39213137l-5.252147 14.44696683-5.2521465-14.44696683h-6.6358641l8.7055132 21.20085613h6.3649954l8.705513-21.20085613zM26.5388592 12.7811838c.9891645-1.3313949 2.5654167-2.1129152 4.4687105-2.1129152 2.0938707 0 3.6821821 1.198524 4.5028268 2.9668635l-10.1495263 4.2209742c-.2777741-2.1655056.2753004-3.8599705 1.177989-5.0749225zm11.1613662 8.2978155c-2.4454429 1.8134907-3.8425592 2.2470258-6.0721732 2.2470258-2.0067763 0-3.5773597-.6245757-4.685261-1.7199852l14.8525154-6.1767381c-.3239496-2.3019926-1.1950987-4.3572546-2.536454-5.92060512-1.9513245-2.27275277-4.8399693-3.47447971-8.3561052-3.47447971-6.3883926 0-11.2055834 4.72456093-11.2055834 10.96380813 0 6.4008413 4.8279101 10.9620517 11.8450307 10.9620517 3.9316119 0 7.9514518-1.8680443 9.8313487-4.0499779l-3.673318-2.8310996zM19.1435741 22.2522096H5.9387386V.04893284H.0509579V27.599383h19.0926162zM123.540572 11.0248812c-3.244649 0-5.599287 2.4644133-5.599287 5.9712325 0 3.3476014 2.49471 5.9705092 5.677929 5.9705092 3.24465 0 5.599906-2.5325019 5.599906-5.9705092 0-3.3483248-2.49471-5.9712325-5.678548-5.9712325m0 16.9319409c-6.353761 0-11.331226-4.7446051-11.331226-10.9607084 0-6.1465683 5.01189-10.96184507 11.409868-10.96184507 6.352937 0 11.330505 4.74481177 11.330505 10.96184507 0 6.1451217-5.011581 10.9607084-11.409147 10.9607084M78.81195 11.0248812c-3.2446491 0-5.5992873 2.4644133-5.5992873 5.9712325 0 3.3476014 2.4948136 5.9705092 5.6779298 5.9705092 3.2446492 0 5.6000088-2.5325019 5.6000088-5.9705092 0-3.3483248-2.4948136-5.9712325-5.6786513-5.9712325m0 16.9319409c-6.3536579 0-11.3312259-4.7446051-11.3312259-10.9607084 0-6.1465683 5.0118904-10.96184507 11.4098684-10.96184507 6.3530395 0 11.3305044 4.74481177 11.3305044 10.96184507 0 6.1451217-5.0115811 10.9607084-11.4091469 10.9607084M137.919171 24.5460605h.623162l.920004 1.4472177.919489-1.4472177h.603476v3.0533432h-.563794v-2.1711882l-.939587 1.4674686h-.059678l-.938969-1.4674686v2.1711882h-.564103v-3.0533432zm-2.175193.5354096h-.939794v-.5354096h2.462655v.5354096h-.93969v2.5179336h-.583171v-2.5179336z"/></g></svg>