<?xml version="1.0" encoding="UTF-8"?>
<svg width="1563px" height="815px" viewBox="0 0 1563 815" version="1.1" xmlns="http://www.w3.org/2000/svg" xmlns:xlink="http://www.w3.org/1999/xlink">
    <!-- Generator: Sketch 57.1 (83088) - https://sketch.com -->
    <title>BG_Texture</title>
    <desc>Created with Sketch.</desc>
    <g id="⇥-Asset-production-templates--📕" stroke="none" stroke-width="1" fill="none" fill-rule="evenodd" opacity="0.3">
        <g id="BG-Texture" transform="translate(-9.000000, -6.000000)" stroke="#01579B" stroke-width="2">
            <g id="BG_Texture">
                <g id="BG_Testimonial">
                    <g id="Group-38" transform="translate(10.000000, 7.000000)">
                        <polygon id="Rectangle-12" points="498 675 527 704 498 733 469 704"></polygon>
                        <g id="Group-27" transform="translate(725.500000, 609.500000) scale(1, -1) translate(-725.500000, -609.500000) translate(0.000000, 406.000000)">
                            <path d="M1152.46429,94 L1450.44169,94" id="Line-6" stroke-linecap="square"></path>
                            <circle id="Oval-8" cx="1087.5" cy="143.5" r="15.5"></circle>
                            <circle id="Oval-8" cx="988.5" cy="54.5" r="54.5"></circle>
                            <circle id="Oval-8-Copy" cx="78" cy="329" r="78"></circle>
                        </g>
                        <g id="Group-12" transform="translate(1311.000000, 0.000000)">
                            <path d="M1,1 L1,124 L249,124 L249,1 L1,1 Z" id="Rectangle-12"></path>
                            <path d="M1.04166667,0.520833333 L248.958333,124.479167" id="Line-4" stroke-linecap="square"></path>
                            <path d="M1.04166667,124.479167 L248.958333,0.520833333" id="Line-5" stroke-linecap="square"></path>
                        </g>
                        <g id="Group-26" transform="translate(461.000000, 73.000000)">
                            <circle id="Oval" cx="5.5" cy="5.5" r="5.5"></circle>
                            <circle id="Oval-Copy-8" cx="5.5" cy="51.5" r="5.5"></circle>
                            <circle id="Oval-Copy-4" cx="51.5" cy="28.5" r="5.5"></circle>
                            <circle id="Oval-Copy-9" cx="5.5" cy="74.5" r="5.5"></circle>
                            <circle id="Oval-Copy" cx="28.5" cy="5.5" r="5.5"></circle>
                            <circle id="Oval-Copy-10" cx="28.5" cy="51.5" r="5.5"></circle>
                            <circle id="Oval-Copy-5" cx="74.5" cy="28.5" r="5.5"></circle>
                            <circle id="Oval-Copy-11" cx="28.5" cy="74.5" r="5.5"></circle>
                            <circle id="Oval-Copy-2" cx="51.5" cy="5.5" r="5.5"></circle>
                            <circle id="Oval-Copy-12" cx="51.5" cy="51.5" r="5.5"></circle>
                            <circle id="Oval-Copy-6" cx="5.5" cy="28.5" r="5.5"></circle>
                            <circle id="Oval-Copy-13" cx="51.5" cy="74.5" r="5.5"></circle>
                            <circle id="Oval-Copy-3" cx="74.5" cy="5.5" r="5.5"></circle>
                            <circle id="Oval-Copy-14" cx="74.5" cy="51.5" r="5.5"></circle>
                            <circle id="Oval-Copy-7" cx="28.5" cy="28.5" r="5.5"></circle>
                            <circle id="Oval-Copy-15" cx="74.5" cy="74.5" r="5.5"></circle>
                        </g>
                    </g>
                </g>
            </g>
        </g>
    </g>
</svg>