<svg xmlns="http://www.w3.org/2000/svg">
    <symbol id="google-developers" viewBox="0 0 192 192">
        <path d="M145.24,95.32l-30.53,17.63c-7.18,4.15-9.65,13.34-5.5,20.53c4.15,7.19,13.33,9.65,20.52,5.5l52.75-30.47 L145.24,95.32z"
              fill="#FBBC04"/>
        <path d="M122.24,50c-5.19,0-10.24,2.7-13.02,7.52c-4.15,7.19-1.69,16.38,5.5,20.53l52.75,30.47 c7.19,4.15,16.37,1.69,20.52-5.5c4.15-7.19,1.69-16.38-5.5-20.53l-52.75-30.47C127.37,50.65,124.79,50,122.24,50z"
              fill="#34A853"/>
        <path d="M69.76,50c-2.55,0-5.13,0.65-7.5,2.02L9.51,82.49l36.77,13.47l31-17.91c7.18-4.15,9.65-13.34,5.5-20.53 C80,52.7,74.95,50,69.76,50z"
              fill="#EA4335"/>
        <path d="M17.04,80.47c-5.19,0-10.24,2.69-13.02,7.52c-4.15,7.19-1.69,16.38,5.5,20.53l52.75,30.47 c7.18,4.15,16.37,1.69,20.52-5.5c4.15-7.19,1.69-16.38-5.5-20.53L24.53,82.49C22.17,81.12,19.59,80.47,17.04,80.47z"
              fill="#4285F4"/>

    </symbol>
</svg>