<svg width="387" height="384" viewBox="0 0 387 384" fill="none" xmlns="http://www.w3.org/2000/svg">
<rect x="57" y="49" width="282" height="282" rx="141" fill="url(#paint0_linear_5723_26645)"/>
<rect x="0.436279" y="122.277" width="288.299" height="288.299" rx="144.149" transform="rotate(-25 0.436279 122.277)" fill="url(#paint1_linear_5723_26645)"/>
<g filter="url(#filter0_d_5723_26645)">
<rect x="8" y="95" width="96" height="96" rx="8" fill="white"/>
</g>
<path d="M37.0905 133C34.2787 133 31.5821 134.129 29.5939 136.14L23.1052 142.701C21.117 144.711 20 147.437 20 150.28C20 156.201 24.7466 161 30.6018 161C33.4136 161 36.1102 159.871 38.0984 157.86L42.5867 153.322C42.5868 153.322 42.5867 153.322 42.5867 153.322L55.6641 140.099C56.6136 139.139 57.9015 138.6 59.2444 138.6C61.4926 138.6 63.3987 140.082 64.0595 142.132L68.1867 137.959C66.3039 134.977 63.0025 133 59.2444 133C56.4326 133 53.736 134.129 51.7478 136.14L34.1822 153.901C33.2326 154.861 31.9447 155.4 30.6018 155.4C27.8054 155.4 25.5385 153.108 25.5385 150.28C25.5385 148.923 26.0719 147.62 27.0215 146.66L33.5102 140.099C34.4597 139.139 35.7476 138.6 37.0905 138.6C39.3389 138.6 41.2448 140.082 41.9057 142.132L46.0329 137.959C44.1501 134.977 40.8487 133 37.0905 133Z" fill="#13B9FD"/>
<path d="M56.336 153.901C55.3864 154.861 54.0986 155.4 52.7557 155.4C50.5077 155.4 48.6018 153.919 47.9408 151.869L43.8137 156.042C45.6966 159.023 48.9978 161 52.7557 161C55.5675 161 58.264 159.871 60.2523 157.86L77.8179 140.099C78.7675 139.139 80.0553 138.6 81.3982 138.6C84.1947 138.6 86.4616 140.892 86.4616 143.72C86.4616 145.077 85.9281 146.38 84.9786 147.34L78.4899 153.901C77.5403 154.861 76.2524 155.4 74.9095 155.4C72.6614 155.4 70.7554 153.919 70.0945 151.868L65.9674 156.041C67.8502 159.023 71.1515 161 74.9095 161C77.7213 161 80.4179 159.871 82.4061 157.86L88.8948 151.299C90.883 149.289 92.0001 146.563 92.0001 143.72C92.0001 137.799 87.2535 133 81.3982 133C78.5864 133 75.8899 134.129 73.9016 136.14L56.336 153.901Z" fill="#9BDFFB"/>
<g filter="url(#filter1_d_5723_26645)">
<rect x="283" y="194" width="96" height="96" rx="8" fill="white"/>
</g>
<rect x="293" y="204" width="76" height="22" rx="2" fill="#13B9FD"/>
<g clip-path="url(#clip0_5723_26645)">
<rect x="293" y="231" width="37.5" height="22" fill="#FE34C5"/>
<rect x="330.5" y="231" width="37.5" height="22" fill="#F0A2DA"/>
</g>
<g clip-path="url(#clip1_5723_26645)">
<rect x="293" y="258" width="15" height="22" fill="#F3F8FB"/>
<rect x="308" y="258" width="15" height="22" fill="#E5EEF2"/>
<rect x="323" y="258" width="15" height="22" fill="#BDC7D1"/>
<rect x="338" y="258" width="15" height="22" fill="#96A5B5"/>
<rect x="353" y="258" width="15" height="22" fill="#5E7185"/>
</g>
<rect x="119" y="31" width="149" height="314" rx="21" fill="white" stroke="#01579B" stroke-width="6"/>
<rect x="130" y="277" width="127" height="56" rx="8" fill="url(#paint2_linear_5723_26645)"/>
<rect x="130" y="80" width="127" height="87" rx="8" fill="url(#paint3_linear_5723_26645)"/>
<rect x="130" y="173" width="60" height="46" rx="8" fill="url(#paint4_linear_5723_26645)"/>
<rect x="130" y="225" width="60" height="46" rx="8" fill="url(#paint5_linear_5723_26645)"/>
<rect x="197" y="173" width="60" height="46" rx="8" fill="url(#paint6_linear_5723_26645)"/>
<rect x="197" y="225" width="60" height="46" rx="8" fill="url(#paint7_linear_5723_26645)"/>
<rect x="138" y="147" width="111" height="12" rx="4" fill="#5E7185"/>
<rect x="134" y="203" width="52" height="12" rx="4" fill="#5E7185"/>
<rect x="134" y="256" width="52" height="12" rx="4" fill="#5E7185"/>
<rect x="201" y="203" width="52" height="12" rx="4" fill="#5E7185"/>
<rect x="201" y="256" width="52" height="12" rx="4" fill="#5E7185"/>
<rect width="127" height="31" transform="matrix(1 0 0 -1 130 334)" fill="white"/>
<mask id="path-30-inside-1_5723_26645" fill="white">
<path d="M130 318H257V287H130V318Z"/>
</mask>
<path d="M130 318H257V287H130V318Z" fill="white"/>
<path d="M257 291H130V283H257V291Z" fill="#01579B" mask="url(#path-30-inside-1_5723_26645)"/>
<path d="M122 52C122 42.0589 130.059 34 140 34H247C256.941 34 265 42.0589 265 52V73H122V52Z" fill="#13B9FD"/>
<path d="M182.836 49C181.218 49 179.666 49.6454 178.522 50.7941L174.787 54.5431C173.643 55.6919 173 57.2499 173 58.8745C173 62.2575 175.732 65 179.102 65C180.72 65 182.272 64.3546 183.416 63.2059L186 60.6126C186 60.6127 186 60.6126 186 60.6126L193.526 53.0569C194.073 52.5082 194.814 52.2 195.587 52.2C196.881 52.2 197.978 53.0466 198.358 54.2182L200.733 51.8336C199.65 50.1298 197.75 49 195.587 49C193.968 49 192.416 49.6454 191.272 50.7941L181.162 60.9431C180.616 61.4918 179.875 61.8 179.102 61.8C177.492 61.8 176.188 60.4902 176.188 58.8745C176.188 58.0986 176.495 57.3545 177.041 56.8059L180.776 53.0569C181.322 52.5082 182.063 52.2 182.836 52.2C184.13 52.2 185.227 53.0467 185.608 54.2182L187.983 51.8336C186.899 50.1298 184.999 49 182.836 49Z" fill="white"/>
<path d="M194.074 60.9431C193.527 61.4918 192.786 61.8 192.013 61.8C190.719 61.8 189.622 60.9536 189.242 59.7822L186.867 62.1668C187.95 63.8703 189.85 65 192.013 65C193.631 65 195.183 64.3546 196.328 63.2059L206.438 53.0569C206.984 52.5082 207.725 52.2 208.498 52.2C210.108 52.2 211.412 53.5098 211.412 55.1255C211.412 55.9014 211.105 56.6455 210.559 57.1941L206.824 60.9431C206.278 61.4918 205.537 61.8 204.764 61.8C203.47 61.8 202.373 60.9534 201.992 59.782L199.617 62.1666C200.701 63.8703 202.601 65 204.764 65C206.382 65 207.934 64.3546 209.078 63.2059L212.813 59.4569C213.957 58.3081 214.6 56.7501 214.6 55.1255C214.6 51.7425 211.868 49 208.498 49C206.88 49 205.328 49.6454 204.184 50.7941L194.074 60.9431Z" fill="white" fill-opacity="0.5"/>
<rect x="197" y="296" width="52" height="12" rx="4" fill="#E5EEF2"/>
<rect x="138" y="296" width="52" height="12" rx="4" fill="#FE34C5"/>
<rect width="331" height="44" transform="translate(27 313)" fill="#041E3C"/>
<path d="M45.0234 332.547H43.7266V341H45.1016V334.273C45.1328 334.19 45.1719 334.112 45.2188 334.039C45.2708 333.966 45.3307 333.901 45.3984 333.844C45.487 333.771 45.5938 333.716 45.7188 333.68C45.849 333.638 46 333.617 46.1719 333.617C46.3281 333.617 46.4635 333.638 46.5781 333.68C46.6979 333.716 46.7969 333.776 46.875 333.859C46.9583 333.948 47.0182 334.06 47.0547 334.195C47.0964 334.331 47.1172 334.487 47.1172 334.664V341H48.4922V334.672C48.4922 334.641 48.4922 334.615 48.4922 334.594C48.4922 334.568 48.4922 334.542 48.4922 334.516C48.5078 334.385 48.5391 334.268 48.5859 334.164C48.6328 334.055 48.6979 333.958 48.7812 333.875C48.8646 333.797 48.9688 333.734 49.0938 333.688C49.2188 333.641 49.3672 333.617 49.5391 333.617C49.7005 333.617 49.8411 333.638 49.9609 333.68C50.0859 333.721 50.1901 333.784 50.2734 333.867C50.3516 333.956 50.4115 334.068 50.4531 334.203C50.4948 334.339 50.5156 334.495 50.5156 334.672V341H51.8906V334.688C51.8906 334.281 51.8438 333.93 51.75 333.633C51.6562 333.331 51.5208 333.086 51.3438 332.898C51.1823 332.732 50.9844 332.607 50.75 332.523C50.5156 332.435 50.2526 332.391 49.9609 332.391C49.7474 332.396 49.5495 332.424 49.3672 332.477C49.1901 332.529 49.0286 332.599 48.8828 332.688C48.7682 332.766 48.6615 332.857 48.5625 332.961C48.4635 333.065 48.3776 333.177 48.3047 333.297C48.2474 333.167 48.1771 333.049 48.0938 332.945C48.0156 332.841 47.9271 332.753 47.8281 332.68C47.6927 332.586 47.5339 332.516 47.3516 332.469C47.1745 332.417 46.974 332.391 46.75 332.391C46.3542 332.396 46.0156 332.482 45.7344 332.648C45.4583 332.815 45.2344 333.047 45.0625 333.344L45.0234 332.547ZM59.1234 341H60.6313V340.875C60.5375 340.641 60.4646 340.367 60.4125 340.055C60.3604 339.737 60.3344 339.438 60.3344 339.156V335.227C60.3344 334.753 60.2484 334.339 60.0766 333.984C59.9047 333.63 59.6703 333.333 59.3734 333.094C59.0714 332.859 58.7146 332.685 58.3031 332.57C57.8917 332.451 57.4464 332.391 56.9672 332.391C56.4411 332.391 55.9698 332.464 55.5531 332.609C55.1417 332.755 54.7927 332.945 54.5063 333.18C54.2146 333.419 53.9906 333.688 53.8344 333.984C53.6833 334.281 53.6052 334.583 53.6 334.891H55.0531C55.0531 334.714 55.0948 334.544 55.1781 334.383C55.2667 334.216 55.3891 334.073 55.5453 333.953C55.7016 333.833 55.8917 333.737 56.1156 333.664C56.3448 333.591 56.6026 333.555 56.8891 333.555C57.1964 333.555 57.4724 333.594 57.7172 333.672C57.9672 333.75 58.1781 333.859 58.35 334C58.5219 334.146 58.6547 334.32 58.7484 334.523C58.8422 334.727 58.8891 334.956 58.8891 335.211V335.875H57.3109C56.7224 335.875 56.1885 335.932 55.7094 336.047C55.2354 336.161 54.8292 336.333 54.4906 336.562C54.1521 336.797 53.8891 337.089 53.7016 337.438C53.5193 337.786 53.4281 338.193 53.4281 338.656C53.4281 339.01 53.4958 339.341 53.6313 339.648C53.7719 339.951 53.9698 340.211 54.225 340.43C54.475 340.654 54.7797 340.831 55.1391 340.961C55.5036 341.091 55.9099 341.156 56.3578 341.156C56.6339 341.156 56.8943 341.128 57.1391 341.07C57.3839 341.013 57.6156 340.935 57.8344 340.836C58.0479 340.737 58.2432 340.622 58.4203 340.492C58.6026 340.362 58.7667 340.224 58.9125 340.078C58.9281 340.255 58.9516 340.427 58.9828 340.594C59.0193 340.755 59.0661 340.891 59.1234 341ZM56.5688 339.898C56.2875 339.898 56.0401 339.862 55.8266 339.789C55.613 339.716 55.4359 339.615 55.2953 339.484C55.1547 339.359 55.0479 339.208 54.975 339.031C54.9073 338.854 54.8734 338.661 54.8734 338.453C54.8734 338.234 54.9125 338.039 54.9906 337.867C55.074 337.695 55.1938 337.547 55.35 337.422C55.5688 337.245 55.863 337.115 56.2328 337.031C56.6078 336.943 57.0453 336.898 57.5453 336.898H58.8891V338.609C58.8057 338.776 58.6911 338.938 58.5453 339.094C58.3995 339.245 58.2276 339.38 58.0297 339.5C57.8266 339.62 57.6026 339.716 57.3578 339.789C57.113 339.862 56.85 339.898 56.5688 339.898ZM68.3953 338.758C68.3953 338.893 68.3693 339.021 68.3172 339.141C68.2651 339.26 68.1896 339.37 68.0906 339.469C67.9292 339.63 67.7052 339.758 67.4188 339.852C67.1323 339.94 66.7964 339.984 66.4109 339.984C66.1661 339.984 65.9188 339.958 65.6688 339.906C65.4188 339.854 65.1922 339.766 64.9891 339.641C64.7807 339.516 64.6063 339.352 64.4656 339.148C64.3302 338.945 64.2521 338.695 64.2313 338.398H62.7859C62.7859 338.758 62.8667 339.104 63.0281 339.438C63.1948 339.771 63.4344 340.062 63.7469 340.312C64.0542 340.568 64.4318 340.773 64.8797 340.93C65.3276 341.081 65.838 341.156 66.4109 341.156C66.9109 341.156 67.3719 341.096 67.7938 340.977C68.2156 340.857 68.5776 340.688 68.8797 340.469C69.1818 340.25 69.4161 339.987 69.5828 339.68C69.7547 339.372 69.8406 339.031 69.8406 338.656C69.8406 338.307 69.7651 338 69.6141 337.734C69.4682 337.469 69.2547 337.234 68.9734 337.031C68.6922 336.833 68.3458 336.664 67.9344 336.523C67.5229 336.378 67.0568 336.25 66.5359 336.141C66.1401 336.062 65.812 335.982 65.5516 335.898C65.2964 335.815 65.0932 335.721 64.9422 335.617C64.7859 335.513 64.6766 335.396 64.6141 335.266C64.5516 335.135 64.5203 334.987 64.5203 334.82C64.5203 334.659 64.5594 334.503 64.6375 334.352C64.7156 334.201 64.8328 334.068 64.9891 333.953C65.1401 333.839 65.3302 333.747 65.5594 333.68C65.7938 333.612 66.0646 333.578 66.3719 333.578C66.6688 333.578 66.9344 333.62 67.1688 333.703C67.4083 333.786 67.6115 333.896 67.7781 334.031C67.9448 334.167 68.075 334.323 68.1688 334.5C68.2625 334.672 68.3094 334.849 68.3094 335.031H69.7547C69.7547 334.661 69.674 334.318 69.5125 334C69.3563 333.677 69.1323 333.396 68.8406 333.156C68.549 332.917 68.1948 332.729 67.7781 332.594C67.3615 332.458 66.8927 332.391 66.3719 332.391C65.8875 332.391 65.4422 332.456 65.0359 332.586C64.6349 332.716 64.2885 332.893 63.9969 333.117C63.7052 333.341 63.4786 333.604 63.3172 333.906C63.1557 334.203 63.075 334.523 63.075 334.867C63.075 335.216 63.1531 335.523 63.3094 335.789C63.4656 336.049 63.687 336.276 63.9734 336.469C64.2547 336.667 64.5932 336.836 64.9891 336.977C65.3901 337.117 65.8328 337.237 66.3172 337.336C66.713 337.414 67.0438 337.503 67.3094 337.602C67.575 337.695 67.7885 337.799 67.95 337.914C68.1115 338.029 68.226 338.156 68.2938 338.297C68.3615 338.432 68.3953 338.586 68.3953 338.758ZM71.5812 336.695V336.867C71.5812 337.477 71.6698 338.042 71.8469 338.562C72.024 339.083 72.2792 339.536 72.6125 339.922C72.9406 340.307 73.3417 340.609 73.8156 340.828C74.2948 341.047 74.8339 341.156 75.4328 341.156C76.0266 341.156 76.5604 341.047 77.0344 340.828C77.5083 340.609 77.912 340.307 78.2453 339.922C78.5734 339.536 78.826 339.083 79.0031 338.562C79.1802 338.042 79.2687 337.477 79.2687 336.867V336.695C79.2687 336.086 79.1802 335.521 79.0031 335C78.826 334.474 78.5734 334.018 78.2453 333.633C77.912 333.247 77.5057 332.945 77.0266 332.727C76.5526 332.503 76.0161 332.391 75.4172 332.391C74.8234 332.391 74.2896 332.503 73.8156 332.727C73.3417 332.945 72.9406 333.247 72.6125 333.633C72.2792 334.018 72.024 334.474 71.8469 335C71.6698 335.521 71.5812 336.086 71.5812 336.695ZM73.0266 336.867V336.695C73.0266 336.284 73.076 335.891 73.175 335.516C73.274 335.135 73.425 334.802 73.6281 334.516C73.826 334.229 74.0734 334.003 74.3703 333.836C74.6672 333.664 75.0161 333.578 75.4172 333.578C75.8182 333.578 76.1672 333.664 76.4641 333.836C76.7661 334.003 77.0187 334.229 77.2219 334.516C77.4198 334.802 77.5682 335.135 77.6672 335.516C77.7714 335.891 77.8234 336.284 77.8234 336.695V336.867C77.8234 337.284 77.774 337.682 77.675 338.062C77.576 338.438 77.4276 338.768 77.2297 339.055C77.0266 339.341 76.774 339.568 76.4719 339.734C76.175 339.901 75.8286 339.984 75.4328 339.984C75.0318 339.984 74.6802 339.901 74.3781 339.734C74.076 339.568 73.826 339.341 73.6281 339.055C73.425 338.768 73.274 338.438 73.175 338.062C73.076 337.682 73.0266 337.284 73.0266 336.867ZM81.1969 341H82.6422V334.938C82.7411 334.755 82.8557 334.589 82.9859 334.438C83.1214 334.286 83.2672 334.154 83.4234 334.039C83.6161 333.909 83.8271 333.807 84.0563 333.734C84.2854 333.656 84.5328 333.617 84.7984 333.617C85.1057 333.617 85.3766 333.654 85.6109 333.727C85.8505 333.799 86.0536 333.917 86.2203 334.078C86.3818 334.24 86.5042 334.451 86.5875 334.711C86.6708 334.971 86.7125 335.289 86.7125 335.664V341H88.1578V335.633C88.1578 335.07 88.0875 334.586 87.9469 334.18C87.8115 333.768 87.6161 333.43 87.3609 333.164C87.1057 332.898 86.7958 332.703 86.4313 332.578C86.0719 332.453 85.6708 332.391 85.2281 332.391C84.9 332.396 84.5875 332.445 84.2906 332.539C83.999 332.628 83.7281 332.755 83.4781 332.922C83.3115 333.031 83.1526 333.161 83.0016 333.312C82.8557 333.458 82.7203 333.62 82.5953 333.797L82.4938 332.547H81.1969V341Z" fill="#13B9FD"/>
<path d="M93.875 340.062C93.875 340.365 93.9688 340.622 94.1562 340.836C94.349 341.044 94.6328 341.148 95.0078 341.148C95.3776 341.148 95.6615 341.044 95.8594 340.836C96.0573 340.628 96.1562 340.37 96.1562 340.062C96.1562 339.75 96.0573 339.487 95.8594 339.273C95.6667 339.055 95.3828 338.945 95.0078 338.945C94.6276 338.945 94.3438 339.055 94.1562 339.273C93.9688 339.492 93.875 339.755 93.875 340.062Z" fill="#041E3C"/>
<path d="M102.023 332.547H100.727V341H102.102V334.273C102.133 334.19 102.172 334.112 102.219 334.039C102.271 333.966 102.331 333.901 102.398 333.844C102.487 333.771 102.594 333.716 102.719 333.68C102.849 333.638 103 333.617 103.172 333.617C103.328 333.617 103.464 333.638 103.578 333.68C103.698 333.716 103.797 333.776 103.875 333.859C103.958 333.948 104.018 334.06 104.055 334.195C104.096 334.331 104.117 334.487 104.117 334.664V341H105.492V334.672C105.492 334.641 105.492 334.615 105.492 334.594C105.492 334.568 105.492 334.542 105.492 334.516C105.508 334.385 105.539 334.268 105.586 334.164C105.633 334.055 105.698 333.958 105.781 333.875C105.865 333.797 105.969 333.734 106.094 333.688C106.219 333.641 106.367 333.617 106.539 333.617C106.701 333.617 106.841 333.638 106.961 333.68C107.086 333.721 107.19 333.784 107.273 333.867C107.352 333.956 107.411 334.068 107.453 334.203C107.495 334.339 107.516 334.495 107.516 334.672V341H108.891V334.688C108.891 334.281 108.844 333.93 108.75 333.633C108.656 333.331 108.521 333.086 108.344 332.898C108.182 332.732 107.984 332.607 107.75 332.523C107.516 332.435 107.253 332.391 106.961 332.391C106.747 332.396 106.549 332.424 106.367 332.477C106.19 332.529 106.029 332.599 105.883 332.688C105.768 332.766 105.661 332.857 105.562 332.961C105.464 333.065 105.378 333.177 105.305 333.297C105.247 333.167 105.177 333.049 105.094 332.945C105.016 332.841 104.927 332.753 104.828 332.68C104.693 332.586 104.534 332.516 104.352 332.469C104.174 332.417 103.974 332.391 103.75 332.391C103.354 332.396 103.016 332.482 102.734 332.648C102.458 332.815 102.234 333.047 102.062 333.344L102.023 332.547ZM116.123 341H117.631V340.875C117.538 340.641 117.465 340.367 117.413 340.055C117.36 339.737 117.334 339.438 117.334 339.156V335.227C117.334 334.753 117.248 334.339 117.077 333.984C116.905 333.63 116.67 333.333 116.373 333.094C116.071 332.859 115.715 332.685 115.303 332.57C114.892 332.451 114.446 332.391 113.967 332.391C113.441 332.391 112.97 332.464 112.553 332.609C112.142 332.755 111.793 332.945 111.506 333.18C111.215 333.419 110.991 333.688 110.834 333.984C110.683 334.281 110.605 334.583 110.6 334.891H112.053C112.053 334.714 112.095 334.544 112.178 334.383C112.267 334.216 112.389 334.073 112.545 333.953C112.702 333.833 112.892 333.737 113.116 333.664C113.345 333.591 113.603 333.555 113.889 333.555C114.196 333.555 114.472 333.594 114.717 333.672C114.967 333.75 115.178 333.859 115.35 334C115.522 334.146 115.655 334.32 115.748 334.523C115.842 334.727 115.889 334.956 115.889 335.211V335.875H114.311C113.722 335.875 113.189 335.932 112.709 336.047C112.235 336.161 111.829 336.333 111.491 336.562C111.152 336.797 110.889 337.089 110.702 337.438C110.519 337.786 110.428 338.193 110.428 338.656C110.428 339.01 110.496 339.341 110.631 339.648C110.772 339.951 110.97 340.211 111.225 340.43C111.475 340.654 111.78 340.831 112.139 340.961C112.504 341.091 112.91 341.156 113.358 341.156C113.634 341.156 113.894 341.128 114.139 341.07C114.384 341.013 114.616 340.935 114.834 340.836C115.048 340.737 115.243 340.622 115.42 340.492C115.603 340.362 115.767 340.224 115.913 340.078C115.928 340.255 115.952 340.427 115.983 340.594C116.019 340.755 116.066 340.891 116.123 341ZM113.569 339.898C113.288 339.898 113.04 339.862 112.827 339.789C112.613 339.716 112.436 339.615 112.295 339.484C112.155 339.359 112.048 339.208 111.975 339.031C111.907 338.854 111.873 338.661 111.873 338.453C111.873 338.234 111.913 338.039 111.991 337.867C112.074 337.695 112.194 337.547 112.35 337.422C112.569 337.245 112.863 337.115 113.233 337.031C113.608 336.943 114.045 336.898 114.545 336.898H115.889V338.609C115.806 338.776 115.691 338.938 115.545 339.094C115.399 339.245 115.228 339.38 115.03 339.5C114.827 339.62 114.603 339.716 114.358 339.789C114.113 339.862 113.85 339.898 113.569 339.898ZM122.309 337.055L125.411 341H127.247L123.302 336.07L126.723 332.547H124.966L122.192 335.328L121.247 336.344V329H119.794V341H121.247V338.078L122.309 337.055ZM132.722 341.156C133.545 341.156 134.235 340.992 134.792 340.664C135.355 340.331 135.777 339.951 136.058 339.523L135.175 338.836C134.909 339.18 134.576 339.456 134.175 339.664C133.774 339.872 133.316 339.977 132.8 339.977C132.409 339.977 132.053 339.904 131.73 339.758C131.407 339.612 131.131 339.411 130.902 339.156C130.678 338.917 130.501 338.641 130.37 338.328C130.245 338.016 130.165 337.654 130.128 337.242V337.188H136.167V336.539C136.167 335.951 136.092 335.404 135.941 334.898C135.795 334.393 135.571 333.953 135.269 333.578C134.967 333.208 134.586 332.919 134.128 332.711C133.675 332.497 133.144 332.391 132.534 332.391C132.05 332.391 131.576 332.49 131.112 332.688C130.654 332.885 130.245 333.169 129.886 333.539C129.521 333.914 129.23 334.372 129.011 334.914C128.792 335.451 128.683 336.06 128.683 336.742V337.07C128.683 337.659 128.782 338.203 128.98 338.703C129.178 339.203 129.454 339.635 129.808 340C130.162 340.365 130.586 340.648 131.081 340.852C131.581 341.055 132.128 341.156 132.722 341.156ZM132.534 333.578C132.904 333.578 133.222 333.646 133.487 333.781C133.758 333.917 133.982 334.094 134.159 334.312C134.336 334.531 134.474 334.792 134.573 335.094C134.672 335.391 134.722 335.669 134.722 335.93V336H130.175C130.232 335.609 130.331 335.266 130.472 334.969C130.618 334.667 130.795 334.411 131.003 334.203C131.211 334 131.446 333.846 131.706 333.742C131.967 333.633 132.243 333.578 132.534 333.578Z" fill="#EB9473"/>
<path d="M141.875 340.062C141.875 340.365 141.969 340.622 142.156 340.836C142.349 341.044 142.633 341.148 143.008 341.148C143.378 341.148 143.661 341.044 143.859 340.836C144.057 340.628 144.156 340.37 144.156 340.062C144.156 339.75 144.057 339.487 143.859 339.273C143.667 339.055 143.383 338.945 143.008 338.945C142.628 338.945 142.344 339.055 142.156 339.273C141.969 339.492 141.875 339.755 141.875 340.062Z" fill="#041E3C"/>
<path d="M151.516 341H152.969V333.664H156.227V332.547H152.969V331.953C152.969 331.599 153.013 331.289 153.102 331.023C153.195 330.758 153.331 330.542 153.508 330.375C153.674 330.214 153.883 330.094 154.133 330.016C154.388 329.932 154.68 329.891 155.008 329.891C155.331 329.891 155.633 329.919 155.914 329.977C156.201 330.029 156.451 330.091 156.664 330.164L156.836 328.969C156.701 328.932 156.568 328.901 156.438 328.875C156.307 328.844 156.177 328.815 156.047 328.789C155.849 328.753 155.648 328.724 155.445 328.703C155.242 328.677 155.036 328.664 154.828 328.664C154.328 328.664 153.875 328.734 153.469 328.875C153.062 329.016 152.716 329.224 152.43 329.5C152.138 329.776 151.911 330.12 151.75 330.531C151.594 330.938 151.516 331.411 151.516 331.953V332.547H149.188V333.664H151.516V341ZM158.795 329V330.258H161.67V339.75H158.795V341H165.873V339.75H163.116V329H158.795ZM173.348 341H174.661V332.547H173.208V338.609C173.13 338.792 173.031 338.961 172.911 339.117C172.796 339.268 172.661 339.398 172.505 339.508C172.317 339.643 172.096 339.75 171.841 339.828C171.585 339.901 171.296 339.938 170.973 339.938C170.697 339.938 170.453 339.901 170.239 339.828C170.031 339.755 169.854 339.628 169.708 339.445C169.562 339.268 169.453 339.029 169.38 338.727C169.307 338.424 169.27 338.044 169.27 337.586V332.547H167.825V337.57C167.825 338.201 167.893 338.742 168.028 339.195C168.169 339.643 168.367 340.013 168.622 340.305C168.877 340.596 169.184 340.812 169.544 340.953C169.903 341.089 170.304 341.156 170.747 341.156C171.299 341.156 171.786 341.042 172.208 340.812C172.63 340.578 172.981 340.253 173.263 339.836L173.348 341ZM180.409 330.5H178.956V332.547H176.737V333.664H178.956V338.258C178.956 338.779 179.024 339.224 179.159 339.594C179.3 339.958 179.49 340.255 179.73 340.484C179.969 340.719 180.251 340.891 180.573 341C180.902 341.104 181.253 341.156 181.628 341.156C181.852 341.156 182.076 341.146 182.3 341.125C182.529 341.104 182.745 341.073 182.948 341.031C183.152 340.995 183.339 340.951 183.511 340.898C183.683 340.841 183.829 340.776 183.948 340.703L183.745 339.68C183.657 339.701 183.542 339.727 183.402 339.758C183.266 339.784 183.12 339.81 182.964 339.836C182.803 339.862 182.639 339.885 182.472 339.906C182.305 339.922 182.144 339.93 181.987 339.93C181.774 339.93 181.571 339.904 181.378 339.852C181.191 339.799 181.024 339.708 180.878 339.578C180.732 339.453 180.618 339.284 180.534 339.07C180.451 338.857 180.409 338.586 180.409 338.258V333.664H183.628V332.547H180.409V330.5ZM189.619 330.5H188.166V332.547H185.947V333.664H188.166V338.258C188.166 338.779 188.233 339.224 188.369 339.594C188.509 339.958 188.699 340.255 188.939 340.484C189.179 340.719 189.46 340.891 189.783 341C190.111 341.104 190.463 341.156 190.838 341.156C191.061 341.156 191.285 341.146 191.509 341.125C191.739 341.104 191.955 341.073 192.158 341.031C192.361 340.995 192.548 340.951 192.72 340.898C192.892 340.841 193.038 340.776 193.158 340.703L192.955 339.68C192.866 339.701 192.752 339.727 192.611 339.758C192.476 339.784 192.33 339.81 192.173 339.836C192.012 339.862 191.848 339.885 191.681 339.906C191.515 339.922 191.353 339.93 191.197 339.93C190.983 339.93 190.78 339.904 190.588 339.852C190.4 339.799 190.233 339.708 190.088 339.578C189.942 339.453 189.827 339.284 189.744 339.07C189.66 338.857 189.619 338.586 189.619 338.258V333.664H192.838V332.547H189.619V330.5ZM199.141 341.156C199.964 341.156 200.654 340.992 201.211 340.664C201.773 340.331 202.195 339.951 202.477 339.523L201.594 338.836C201.328 339.18 200.995 339.456 200.594 339.664C200.193 339.872 199.734 339.977 199.219 339.977C198.828 339.977 198.471 339.904 198.148 339.758C197.826 339.612 197.549 339.411 197.32 339.156C197.096 338.917 196.919 338.641 196.789 338.328C196.664 338.016 196.583 337.654 196.547 337.242V337.188H202.586V336.539C202.586 335.951 202.51 335.404 202.359 334.898C202.214 334.393 201.99 333.953 201.688 333.578C201.385 333.208 201.005 332.919 200.547 332.711C200.094 332.497 199.562 332.391 198.953 332.391C198.469 332.391 197.995 332.49 197.531 332.688C197.073 332.885 196.664 333.169 196.305 333.539C195.94 333.914 195.648 334.372 195.43 334.914C195.211 335.451 195.102 336.06 195.102 336.742V337.07C195.102 337.659 195.201 338.203 195.398 338.703C195.596 339.203 195.872 339.635 196.227 340C196.581 340.365 197.005 340.648 197.5 340.852C198 341.055 198.547 341.156 199.141 341.156ZM198.953 333.578C199.323 333.578 199.641 333.646 199.906 333.781C200.177 333.917 200.401 334.094 200.578 334.312C200.755 334.531 200.893 334.792 200.992 335.094C201.091 335.391 201.141 335.669 201.141 335.93V336H196.594C196.651 335.609 196.75 335.266 196.891 334.969C197.036 334.667 197.214 334.411 197.422 334.203C197.63 334 197.865 333.846 198.125 333.742C198.385 333.633 198.661 333.578 198.953 333.578ZM210.155 332.391C209.54 332.391 208.991 332.526 208.506 332.797C208.027 333.062 207.616 333.427 207.272 333.891L207.264 333.68L207.202 332.547H205.827V341H207.28V335.578C207.373 335.318 207.491 335.083 207.631 334.875C207.777 334.661 207.946 334.482 208.139 334.336C208.353 334.169 208.603 334.044 208.889 333.961C209.176 333.872 209.496 333.828 209.85 333.828C210.126 333.828 210.389 333.844 210.639 333.875C210.894 333.901 211.162 333.945 211.444 334.008L211.639 332.594C211.493 332.531 211.274 332.482 210.983 332.445C210.696 332.409 210.42 332.391 210.155 332.391ZM220.841 342.18V341H213.677V342.18H220.841ZM223.034 341H224.48V334.938C224.579 334.755 224.693 334.589 224.823 334.438C224.959 334.286 225.105 334.154 225.261 334.039C225.454 333.909 225.665 333.807 225.894 333.734C226.123 333.656 226.37 333.617 226.636 333.617C226.943 333.617 227.214 333.654 227.448 333.727C227.688 333.799 227.891 333.917 228.058 334.078C228.219 334.24 228.342 334.451 228.425 334.711C228.508 334.971 228.55 335.289 228.55 335.664V341H229.995V335.633C229.995 335.07 229.925 334.586 229.784 334.18C229.649 333.768 229.454 333.43 229.198 333.164C228.943 332.898 228.633 332.703 228.269 332.578C227.909 332.453 227.508 332.391 227.066 332.391C226.738 332.396 226.425 332.445 226.128 332.539C225.836 332.628 225.566 332.755 225.316 332.922C225.149 333.031 224.99 333.161 224.839 333.312C224.693 333.458 224.558 333.62 224.433 333.797L224.331 332.547H223.034V341ZM235.978 341.156C236.801 341.156 237.491 340.992 238.048 340.664C238.611 340.331 239.033 339.951 239.314 339.523L238.431 338.836C238.166 339.18 237.832 339.456 237.431 339.664C237.03 339.872 236.572 339.977 236.056 339.977C235.666 339.977 235.309 339.904 234.986 339.758C234.663 339.612 234.387 339.411 234.158 339.156C233.934 338.917 233.757 338.641 233.627 338.328C233.502 338.016 233.421 337.654 233.384 337.242V337.188H239.423V336.539C239.423 335.951 239.348 335.404 239.197 334.898C239.051 334.393 238.827 333.953 238.525 333.578C238.223 333.208 237.843 332.919 237.384 332.711C236.931 332.497 236.4 332.391 235.791 332.391C235.306 332.391 234.832 332.49 234.369 332.688C233.91 332.885 233.502 333.169 233.142 333.539C232.778 333.914 232.486 334.372 232.267 334.914C232.048 335.451 231.939 336.06 231.939 336.742V337.07C231.939 337.659 232.038 338.203 232.236 338.703C232.434 339.203 232.71 339.635 233.064 340C233.418 340.365 233.843 340.648 234.338 340.852C234.838 341.055 235.384 341.156 235.978 341.156ZM235.791 333.578C236.16 333.578 236.478 333.646 236.744 333.781C237.015 333.917 237.239 334.094 237.416 334.312C237.593 334.531 237.731 334.792 237.83 335.094C237.929 335.391 237.978 335.669 237.978 335.93V336H233.431C233.489 335.609 233.588 335.266 233.728 334.969C233.874 334.667 234.051 334.411 234.259 334.203C234.468 334 234.702 333.846 234.963 333.742C235.223 333.633 235.499 333.578 235.791 333.578ZM242.266 341H243.406L244.711 335.82L244.922 334.508L245.141 335.82L246.461 341H247.602L249.398 332.547H248.117L247.18 337.938L246.969 339.266L246.742 337.938L245.398 332.547H244.469L243.117 337.938L242.906 339.148L242.734 337.938L241.75 332.547H240.469L242.266 341ZM256.28 338.758C256.28 338.893 256.254 339.021 256.202 339.141C256.149 339.26 256.074 339.37 255.975 339.469C255.814 339.63 255.59 339.758 255.303 339.852C255.017 339.94 254.681 339.984 254.295 339.984C254.051 339.984 253.803 339.958 253.553 339.906C253.303 339.854 253.077 339.766 252.873 339.641C252.665 339.516 252.491 339.352 252.35 339.148C252.215 338.945 252.136 338.695 252.116 338.398H250.67C250.67 338.758 250.751 339.104 250.912 339.438C251.079 339.771 251.319 340.062 251.631 340.312C251.939 340.568 252.316 340.773 252.764 340.93C253.212 341.081 253.722 341.156 254.295 341.156C254.795 341.156 255.256 341.096 255.678 340.977C256.1 340.857 256.462 340.688 256.764 340.469C257.066 340.25 257.301 339.987 257.467 339.68C257.639 339.372 257.725 339.031 257.725 338.656C257.725 338.307 257.649 338 257.498 337.734C257.353 337.469 257.139 337.234 256.858 337.031C256.577 336.833 256.23 336.664 255.819 336.523C255.407 336.378 254.941 336.25 254.42 336.141C254.024 336.062 253.696 335.982 253.436 335.898C253.181 335.815 252.978 335.721 252.827 335.617C252.67 335.513 252.561 335.396 252.498 335.266C252.436 335.135 252.405 334.987 252.405 334.82C252.405 334.659 252.444 334.503 252.522 334.352C252.6 334.201 252.717 334.068 252.873 333.953C253.024 333.839 253.215 333.747 253.444 333.68C253.678 333.612 253.949 333.578 254.256 333.578C254.553 333.578 254.819 333.62 255.053 333.703C255.293 333.786 255.496 333.896 255.662 334.031C255.829 334.167 255.959 334.323 256.053 334.5C256.147 334.672 256.194 334.849 256.194 335.031H257.639C257.639 334.661 257.558 334.318 257.397 334C257.241 333.677 257.017 333.396 256.725 333.156C256.433 332.917 256.079 332.729 255.662 332.594C255.246 332.458 254.777 332.391 254.256 332.391C253.772 332.391 253.327 332.456 252.92 332.586C252.519 332.716 252.173 332.893 251.881 333.117C251.59 333.341 251.363 333.604 251.202 333.906C251.04 334.203 250.959 334.523 250.959 334.867C250.959 335.216 251.037 335.523 251.194 335.789C251.35 336.049 251.571 336.276 251.858 336.469C252.139 336.667 252.478 336.836 252.873 336.977C253.274 337.117 253.717 337.237 254.202 337.336C254.597 337.414 254.928 337.503 255.194 337.602C255.459 337.695 255.673 337.799 255.834 337.914C255.996 338.029 256.11 338.156 256.178 338.297C256.246 338.432 256.28 338.586 256.28 338.758ZM266.887 342.18V341H259.723V342.18H266.887ZM272.503 330.5H271.05V332.547H268.831V333.664H271.05V338.258C271.05 338.779 271.118 339.224 271.253 339.594C271.394 339.958 271.584 340.255 271.823 340.484C272.063 340.719 272.344 340.891 272.667 341C272.995 341.104 273.347 341.156 273.722 341.156C273.946 341.156 274.17 341.146 274.394 341.125C274.623 341.104 274.839 341.073 275.042 341.031C275.245 340.995 275.433 340.951 275.605 340.898C275.777 340.841 275.922 340.776 276.042 340.703L275.839 339.68C275.751 339.701 275.636 339.727 275.495 339.758C275.36 339.784 275.214 339.81 275.058 339.836C274.896 339.862 274.732 339.885 274.566 339.906C274.399 339.922 274.238 339.93 274.081 339.93C273.868 339.93 273.665 339.904 273.472 339.852C273.284 339.799 273.118 339.708 272.972 339.578C272.826 339.453 272.711 339.284 272.628 339.07C272.545 338.857 272.503 338.586 272.503 338.258V333.664H275.722V332.547H272.503V330.5ZM282.025 341.156C282.848 341.156 283.538 340.992 284.095 340.664C284.658 340.331 285.08 339.951 285.361 339.523L284.478 338.836C284.212 339.18 283.879 339.456 283.478 339.664C283.077 339.872 282.619 339.977 282.103 339.977C281.712 339.977 281.356 339.904 281.033 339.758C280.71 339.612 280.434 339.411 280.205 339.156C279.981 338.917 279.804 338.641 279.673 338.328C279.548 338.016 279.468 337.654 279.431 337.242V337.188H285.47V336.539C285.47 335.951 285.395 335.404 285.244 334.898C285.098 334.393 284.874 333.953 284.572 333.578C284.27 333.208 283.89 332.919 283.431 332.711C282.978 332.497 282.447 332.391 281.837 332.391C281.353 332.391 280.879 332.49 280.416 332.688C279.957 332.885 279.548 333.169 279.189 333.539C278.824 333.914 278.533 334.372 278.314 334.914C278.095 335.451 277.986 336.06 277.986 336.742V337.07C277.986 337.659 278.085 338.203 278.283 338.703C278.481 339.203 278.757 339.635 279.111 340C279.465 340.365 279.89 340.648 280.384 340.852C280.884 341.055 281.431 341.156 282.025 341.156ZM281.837 333.578C282.207 333.578 282.525 333.646 282.791 333.781C283.061 333.917 283.285 334.094 283.462 334.312C283.64 334.531 283.778 334.792 283.877 335.094C283.976 335.391 284.025 335.669 284.025 335.93V336H279.478C279.535 335.609 279.634 335.266 279.775 334.969C279.921 334.667 280.098 334.411 280.306 334.203C280.515 334 280.749 333.846 281.009 333.742C281.27 333.633 281.546 333.578 281.837 333.578ZM288.164 332.547H286.867V341H288.242V334.273C288.273 334.19 288.312 334.112 288.359 334.039C288.411 333.966 288.471 333.901 288.539 333.844C288.628 333.771 288.734 333.716 288.859 333.68C288.99 333.638 289.141 333.617 289.312 333.617C289.469 333.617 289.604 333.638 289.719 333.68C289.839 333.716 289.938 333.776 290.016 333.859C290.099 333.948 290.159 334.06 290.195 334.195C290.237 334.331 290.258 334.487 290.258 334.664V341H291.633V334.672C291.633 334.641 291.633 334.615 291.633 334.594C291.633 334.568 291.633 334.542 291.633 334.516C291.648 334.385 291.68 334.268 291.727 334.164C291.773 334.055 291.839 333.958 291.922 333.875C292.005 333.797 292.109 333.734 292.234 333.688C292.359 333.641 292.508 333.617 292.68 333.617C292.841 333.617 292.982 333.638 293.102 333.68C293.227 333.721 293.331 333.784 293.414 333.867C293.492 333.956 293.552 334.068 293.594 334.203C293.635 334.339 293.656 334.495 293.656 334.672V341H295.031V334.688C295.031 334.281 294.984 333.93 294.891 333.633C294.797 333.331 294.661 333.086 294.484 332.898C294.323 332.732 294.125 332.607 293.891 332.523C293.656 332.435 293.393 332.391 293.102 332.391C292.888 332.396 292.69 332.424 292.508 332.477C292.331 332.529 292.169 332.599 292.023 332.688C291.909 332.766 291.802 332.857 291.703 332.961C291.604 333.065 291.518 333.177 291.445 333.297C291.388 333.167 291.318 333.049 291.234 332.945C291.156 332.841 291.068 332.753 290.969 332.68C290.833 332.586 290.674 332.516 290.492 332.469C290.315 332.417 290.115 332.391 289.891 332.391C289.495 332.396 289.156 332.482 288.875 332.648C288.599 332.815 288.375 333.047 288.203 333.344L288.164 332.547ZM296.702 344.25H298.147V340.188C298.251 340.302 298.363 340.409 298.483 340.508C298.603 340.602 298.73 340.688 298.866 340.766C299.09 340.891 299.34 340.987 299.616 341.055C299.897 341.122 300.199 341.156 300.522 341.156C301.053 341.156 301.524 341.047 301.936 340.828C302.353 340.609 302.702 340.307 302.983 339.922C303.264 339.536 303.478 339.083 303.623 338.562C303.769 338.036 303.842 337.471 303.842 336.867V336.703C303.842 336.073 303.769 335.495 303.623 334.969C303.478 334.438 303.264 333.982 302.983 333.602C302.702 333.221 302.353 332.924 301.936 332.711C301.519 332.497 301.04 332.391 300.498 332.391C300.191 332.391 299.902 332.424 299.631 332.492C299.366 332.555 299.123 332.648 298.905 332.773C298.748 332.857 298.603 332.958 298.467 333.078C298.332 333.193 298.207 333.323 298.092 333.469L298.022 332.547H296.702V344.25ZM302.397 336.703V336.867C302.397 337.279 302.35 337.672 302.256 338.047C302.168 338.422 302.03 338.753 301.842 339.039C301.655 339.326 301.415 339.555 301.123 339.727C300.832 339.893 300.485 339.977 300.084 339.977C299.834 339.977 299.605 339.945 299.397 339.883C299.194 339.82 299.009 339.734 298.842 339.625C298.696 339.531 298.566 339.417 298.452 339.281C298.337 339.146 298.235 339 298.147 338.844V334.773C298.246 334.596 298.36 334.435 298.491 334.289C298.621 334.143 298.769 334.021 298.936 333.922C299.087 333.823 299.256 333.747 299.444 333.695C299.636 333.643 299.845 333.617 300.069 333.617C300.475 333.617 300.824 333.701 301.116 333.867C301.407 334.034 301.649 334.258 301.842 334.539C302.03 334.826 302.168 335.156 302.256 335.531C302.35 335.901 302.397 336.292 302.397 336.703ZM306.145 329V330.258H309.02V339.75H306.145V341H313.223V339.75H310.466V329H306.145ZM320.683 341H322.191V340.875C322.097 340.641 322.024 340.367 321.972 340.055C321.92 339.737 321.894 339.438 321.894 339.156V335.227C321.894 334.753 321.808 334.339 321.636 333.984C321.464 333.63 321.23 333.333 320.933 333.094C320.631 332.859 320.274 332.685 319.863 332.57C319.451 332.451 319.006 332.391 318.527 332.391C318.001 332.391 317.529 332.464 317.113 332.609C316.701 332.755 316.352 332.945 316.066 333.18C315.774 333.419 315.55 333.688 315.394 333.984C315.243 334.281 315.165 334.583 315.159 334.891H316.613C316.613 334.714 316.654 334.544 316.738 334.383C316.826 334.216 316.948 334.073 317.105 333.953C317.261 333.833 317.451 333.737 317.675 333.664C317.904 333.591 318.162 333.555 318.448 333.555C318.756 333.555 319.032 333.594 319.277 333.672C319.527 333.75 319.738 333.859 319.909 334C320.081 334.146 320.214 334.32 320.308 334.523C320.402 334.727 320.448 334.956 320.448 335.211V335.875H318.87C318.282 335.875 317.748 335.932 317.269 336.047C316.795 336.161 316.389 336.333 316.05 336.562C315.711 336.797 315.448 337.089 315.261 337.438C315.079 337.786 314.988 338.193 314.988 338.656C314.988 339.01 315.055 339.341 315.191 339.648C315.331 339.951 315.529 340.211 315.784 340.43C316.034 340.654 316.339 340.831 316.698 340.961C317.063 341.091 317.469 341.156 317.917 341.156C318.193 341.156 318.454 341.128 318.698 341.07C318.943 341.013 319.175 340.935 319.394 340.836C319.607 340.737 319.803 340.622 319.98 340.492C320.162 340.362 320.326 340.224 320.472 340.078C320.488 340.255 320.511 340.427 320.542 340.594C320.579 340.755 320.626 340.891 320.683 341ZM318.128 339.898C317.847 339.898 317.599 339.862 317.386 339.789C317.172 339.716 316.995 339.615 316.855 339.484C316.714 339.359 316.607 339.208 316.534 339.031C316.467 338.854 316.433 338.661 316.433 338.453C316.433 338.234 316.472 338.039 316.55 337.867C316.633 337.695 316.753 337.547 316.909 337.422C317.128 337.245 317.422 337.115 317.792 337.031C318.167 336.943 318.605 336.898 319.105 336.898H320.448V338.609C320.365 338.776 320.251 338.938 320.105 339.094C319.959 339.245 319.787 339.38 319.589 339.5C319.386 339.62 319.162 339.716 318.917 339.789C318.672 339.862 318.409 339.898 318.128 339.898ZM327.759 330.5H326.306V332.547H324.087V333.664H326.306V338.258C326.306 338.779 326.374 339.224 326.509 339.594C326.65 339.958 326.84 340.255 327.08 340.484C327.319 340.719 327.601 340.891 327.923 341C328.252 341.104 328.603 341.156 328.978 341.156C329.202 341.156 329.426 341.146 329.65 341.125C329.879 341.104 330.095 341.073 330.298 341.031C330.502 340.995 330.689 340.951 330.861 340.898C331.033 340.841 331.179 340.776 331.298 340.703L331.095 339.68C331.007 339.701 330.892 339.727 330.752 339.758C330.616 339.784 330.47 339.81 330.314 339.836C330.153 339.862 329.989 339.885 329.822 339.906C329.655 339.922 329.494 339.93 329.337 339.93C329.124 339.93 328.921 339.904 328.728 339.852C328.541 339.799 328.374 339.708 328.228 339.578C328.082 339.453 327.968 339.284 327.884 339.07C327.801 338.857 327.759 338.586 327.759 338.258V333.664H330.978V332.547H327.759V330.5ZM337.281 341.156C338.104 341.156 338.794 340.992 339.352 340.664C339.914 340.331 340.336 339.951 340.617 339.523L339.734 338.836C339.469 339.18 339.135 339.456 338.734 339.664C338.333 339.872 337.875 339.977 337.359 339.977C336.969 339.977 336.612 339.904 336.289 339.758C335.966 339.612 335.69 339.411 335.461 339.156C335.237 338.917 335.06 338.641 334.93 338.328C334.805 338.016 334.724 337.654 334.688 337.242V337.188H340.727V336.539C340.727 335.951 340.651 335.404 340.5 334.898C340.354 334.393 340.13 333.953 339.828 333.578C339.526 333.208 339.146 332.919 338.688 332.711C338.234 332.497 337.703 332.391 337.094 332.391C336.609 332.391 336.135 332.49 335.672 332.688C335.214 332.885 334.805 333.169 334.445 333.539C334.081 333.914 333.789 334.372 333.57 334.914C333.352 335.451 333.242 336.06 333.242 336.742V337.07C333.242 337.659 333.341 338.203 333.539 338.703C333.737 339.203 334.013 339.635 334.367 340C334.721 340.365 335.146 340.648 335.641 340.852C336.141 341.055 336.688 341.156 337.281 341.156ZM337.094 333.578C337.464 333.578 337.781 333.646 338.047 333.781C338.318 333.917 338.542 334.094 338.719 334.312C338.896 334.531 339.034 334.792 339.133 335.094C339.232 335.391 339.281 335.669 339.281 335.93V336H334.734C334.792 335.609 334.891 335.266 335.031 334.969C335.177 334.667 335.354 334.411 335.562 334.203C335.771 334 336.005 333.846 336.266 333.742C336.526 333.633 336.802 333.578 337.094 333.578Z" fill="#13B9FD"/>
<defs>
<filter id="filter0_d_5723_26645" x="0" y="91" width="112" height="112" filterUnits="userSpaceOnUse" color-interpolation-filters="sRGB">
<feFlood flood-opacity="0" result="BackgroundImageFix"/>
<feColorMatrix in="SourceAlpha" type="matrix" values="0 0 0 0 0 0 0 0 0 0 0 0 0 0 0 0 0 0 127 0" result="hardAlpha"/>
<feMorphology radius="8" operator="erode" in="SourceAlpha" result="effect1_dropShadow_5723_26645"/>
<feOffset dy="4"/>
<feGaussianBlur stdDeviation="8"/>
<feComposite in2="hardAlpha" operator="out"/>
<feColorMatrix type="matrix" values="0 0 0 0 0 0 0 0 0 0 0 0 0 0 0 0 0 0 0.25 0"/>
<feBlend mode="normal" in2="BackgroundImageFix" result="effect1_dropShadow_5723_26645"/>
<feBlend mode="normal" in="SourceGraphic" in2="effect1_dropShadow_5723_26645" result="shape"/>
</filter>
<filter id="filter1_d_5723_26645" x="275" y="190" width="112" height="112" filterUnits="userSpaceOnUse" color-interpolation-filters="sRGB">
<feFlood flood-opacity="0" result="BackgroundImageFix"/>
<feColorMatrix in="SourceAlpha" type="matrix" values="0 0 0 0 0 0 0 0 0 0 0 0 0 0 0 0 0 0 127 0" result="hardAlpha"/>
<feMorphology radius="8" operator="erode" in="SourceAlpha" result="effect1_dropShadow_5723_26645"/>
<feOffset dy="4"/>
<feGaussianBlur stdDeviation="8"/>
<feComposite in2="hardAlpha" operator="out"/>
<feColorMatrix type="matrix" values="0 0 0 0 0 0 0 0 0 0 0 0 0 0 0 0 0 0 0.25 0"/>
<feBlend mode="normal" in2="BackgroundImageFix" result="effect1_dropShadow_5723_26645"/>
<feBlend mode="normal" in="SourceGraphic" in2="effect1_dropShadow_5723_26645" result="shape"/>
</filter>
<linearGradient id="paint0_linear_5723_26645" x1="198" y1="49" x2="198" y2="331" gradientUnits="userSpaceOnUse">
<stop stop-color="#B4FDEE"/>
<stop offset="0.5" stop-color="#CEF6F0"/>
<stop offset="1" stop-color="#E6EFF2"/>
</linearGradient>
<linearGradient id="paint1_linear_5723_26645" x1="144.586" y1="122.277" x2="144.586" y2="410.575" gradientUnits="userSpaceOnUse">
<stop stop-color="#B4FDEE"/>
<stop offset="0.5" stop-color="#CEF6F0"/>
<stop offset="1" stop-color="white"/>
</linearGradient>
<linearGradient id="paint2_linear_5723_26645" x1="193.5" y1="277" x2="193.5" y2="333" gradientUnits="userSpaceOnUse">
<stop stop-color="#F8BCD1"/>
<stop offset="0.5" stop-color="#DDBBE7"/>
<stop offset="1" stop-color="#C6BAFA"/>
</linearGradient>
<linearGradient id="paint3_linear_5723_26645" x1="193.5" y1="80" x2="193.5" y2="167" gradientUnits="userSpaceOnUse">
<stop stop-color="#F8BCD1"/>
<stop offset="0.5" stop-color="#DDBBE7"/>
<stop offset="1" stop-color="#C6BAFA"/>
</linearGradient>
<linearGradient id="paint4_linear_5723_26645" x1="160" y1="173" x2="160" y2="219" gradientUnits="userSpaceOnUse">
<stop stop-color="#F8BCD1"/>
<stop offset="0.5" stop-color="#DDBBE7"/>
<stop offset="1" stop-color="#C6BAFA"/>
</linearGradient>
<linearGradient id="paint5_linear_5723_26645" x1="160" y1="225" x2="160" y2="271" gradientUnits="userSpaceOnUse">
<stop stop-color="#F8BCD1"/>
<stop offset="0.5" stop-color="#DDBBE7"/>
<stop offset="1" stop-color="#C6BAFA"/>
</linearGradient>
<linearGradient id="paint6_linear_5723_26645" x1="227" y1="173" x2="227" y2="219" gradientUnits="userSpaceOnUse">
<stop stop-color="#F8BCD1"/>
<stop offset="0.5" stop-color="#DDBBE7"/>
<stop offset="1" stop-color="#C6BAFA"/>
</linearGradient>
<linearGradient id="paint7_linear_5723_26645" x1="227" y1="225" x2="227" y2="271" gradientUnits="userSpaceOnUse">
<stop stop-color="#F8BCD1"/>
<stop offset="0.5" stop-color="#DDBBE7"/>
<stop offset="1" stop-color="#C6BAFA"/>
</linearGradient>
<clipPath id="clip0_5723_26645">
<rect x="293" y="231" width="75" height="22" rx="2" fill="white"/>
</clipPath>
<clipPath id="clip1_5723_26645">
<rect x="293" y="258" width="75" height="22" rx="2" fill="white"/>
</clipPath>
</defs>
</svg>
