<svg width="406" height="297" viewBox="0 0 406 297" fill="none" xmlns="http://www.w3.org/2000/svg">
<path d="M42 100.734L390 0V196.266L42 297V100.734Z" fill="url(#paint0_linear_5723_26211)"/>
<rect width="74" height="88" rx="8" transform="matrix(1 0 0 -1 316 193)" fill="url(#paint1_linear_5723_26211)"/>
<path d="M340.622 135.656H345.892L355.038 160H349.972L347.932 154.186H338.616L336.576 160H331.51L340.622 135.656ZM346.436 149.97L344.294 143.85L343.41 140.926H343.138L342.254 143.85L340.078 149.97H346.436ZM364.661 160.544C363.097 160.544 361.669 160.159 360.377 159.388C359.108 158.595 358.099 157.507 357.351 156.124C356.626 154.719 356.263 153.121 356.263 151.33C356.263 149.562 356.626 147.975 357.351 146.57C358.099 145.165 359.108 144.077 360.377 143.306C361.669 142.513 363.097 142.116 364.661 142.116C365.84 142.116 366.882 142.377 367.789 142.898C368.696 143.397 369.387 144.02 369.863 144.768H370.135L369.863 142.32V135.656H374.283V160H370.135V157.926H369.863C369.41 158.674 368.718 159.297 367.789 159.796C366.882 160.295 365.84 160.544 364.661 160.544ZM365.409 156.43C366.248 156.43 367.03 156.215 367.755 155.784C368.48 155.353 369.058 154.753 369.489 153.982C369.92 153.211 370.135 152.327 370.135 151.33C370.135 150.333 369.92 149.449 369.489 148.678C369.058 147.907 368.48 147.318 367.755 146.91C367.03 146.479 366.248 146.264 365.409 146.264C364.593 146.264 363.822 146.479 363.097 146.91C362.372 147.318 361.794 147.907 361.363 148.678C360.932 149.449 360.717 150.333 360.717 151.33C360.717 152.327 360.932 153.211 361.363 153.982C361.794 154.753 362.372 155.353 363.097 155.784C363.822 156.215 364.593 156.43 365.409 156.43Z" fill="#01579B"/>
<rect x="303" y="59" width="100" height="191" rx="15" stroke="#01579B" stroke-width="6"/>
<rect width="125" height="88" rx="8" transform="matrix(1 0 0 -1 74 193)" fill="url(#paint2_linear_5723_26211)"/>
<path d="M122.622 135.656H127.892L137.038 160H131.972L129.932 154.186H120.616L118.576 160H113.51L122.622 135.656ZM128.436 149.97L126.294 143.85L125.41 140.926H125.138L124.254 143.85L122.078 149.97H128.436ZM146.661 160.544C145.097 160.544 143.669 160.159 142.377 159.388C141.108 158.595 140.099 157.507 139.351 156.124C138.626 154.719 138.263 153.121 138.263 151.33C138.263 149.562 138.626 147.975 139.351 146.57C140.099 145.165 141.108 144.077 142.377 143.306C143.669 142.513 145.097 142.116 146.661 142.116C147.84 142.116 148.882 142.377 149.789 142.898C150.696 143.397 151.387 144.02 151.863 144.768H152.135L151.863 142.32V135.656H156.283V160H152.135V157.926H151.863C151.41 158.674 150.718 159.297 149.789 159.796C148.882 160.295 147.84 160.544 146.661 160.544ZM147.409 156.43C148.248 156.43 149.03 156.215 149.755 155.784C150.48 155.353 151.058 154.753 151.489 153.982C151.92 153.211 152.135 152.327 152.135 151.33C152.135 150.333 151.92 149.449 151.489 148.678C151.058 147.907 150.48 147.318 149.755 146.91C149.03 146.479 148.248 146.264 147.409 146.264C146.593 146.264 145.822 146.479 145.097 146.91C144.372 147.318 143.794 147.907 143.363 148.678C142.932 149.449 142.717 150.333 142.717 151.33C142.717 152.327 142.932 153.211 143.363 153.982C143.794 154.753 144.372 155.353 145.097 155.784C145.822 156.215 146.593 156.43 147.409 156.43Z" fill="#01579B"/>
<mask id="path-7-inside-1_5723_26211" fill="white">
<rect x="24" y="85" width="226" height="128" rx="4"/>
</mask>
<rect x="24" y="85" width="226" height="128" rx="4" stroke="#01579B" stroke-width="12" mask="url(#path-7-inside-1_5723_26211)"/>
<rect x="110" y="213" width="49" height="31" fill="#01579B"/>
<rect x="97" y="243" width="74" height="10" rx="2" fill="#01579B"/>
<rect width="162" height="44" transform="translate(116 31)" fill="#041E3C"/>
<path d="M139.617 53.7422V52.5156H134.867V48.8594H140.336V47.625H133.422V59H140.406V57.7734H134.867V53.7422H139.617ZM142.569 59H144.014V52.9375C144.113 52.7552 144.228 52.5885 144.358 52.4375C144.493 52.2865 144.639 52.1536 144.795 52.0391C144.988 51.9089 145.199 51.8073 145.428 51.7344C145.657 51.6562 145.905 51.6172 146.17 51.6172C146.478 51.6172 146.748 51.6536 146.983 51.7266C147.222 51.7995 147.426 51.9167 147.592 52.0781C147.754 52.2396 147.876 52.4505 147.959 52.7109C148.043 52.9714 148.084 53.2891 148.084 53.6641V59H149.53V53.6328C149.53 53.0703 149.459 52.5859 149.319 52.1797C149.183 51.7682 148.988 51.4297 148.733 51.1641C148.478 50.8984 148.168 50.7031 147.803 50.5781C147.444 50.4531 147.043 50.3906 146.6 50.3906C146.272 50.3958 145.959 50.4453 145.663 50.5391C145.371 50.6276 145.1 50.7552 144.85 50.9219C144.683 51.0312 144.524 51.1615 144.373 51.3125C144.228 51.4583 144.092 51.6198 143.967 51.7969L143.866 50.5469H142.569V59ZM151.513 54.7031V54.8672C151.513 55.4714 151.591 56.0365 151.747 56.5625C151.903 57.0833 152.127 57.5365 152.419 57.9219C152.705 58.3073 153.057 58.6094 153.473 58.8281C153.89 59.0469 154.356 59.1562 154.872 59.1562C155.179 59.1562 155.466 59.1224 155.731 59.0547C155.997 58.9922 156.239 58.901 156.458 58.7812C156.598 58.7031 156.729 58.612 156.848 58.5078C156.973 58.4036 157.091 58.2891 157.2 58.1641V58.8906C157.2 59.2552 157.148 59.5781 157.044 59.8594C156.94 60.1406 156.791 60.375 156.598 60.5625C156.401 60.7552 156.164 60.901 155.888 61C155.611 61.099 155.302 61.1484 154.958 61.1484C154.765 61.1484 154.572 61.1276 154.38 61.0859C154.187 61.0495 153.994 60.987 153.802 60.8984C153.609 60.8099 153.419 60.6901 153.231 60.5391C153.044 60.3932 152.861 60.2135 152.684 60L151.934 60.8672C152.127 61.1432 152.356 61.375 152.622 61.5625C152.893 61.75 153.174 61.8984 153.466 62.0078C153.752 62.1224 154.036 62.2031 154.317 62.25C154.598 62.3021 154.848 62.3281 155.067 62.3281C155.598 62.3281 156.083 62.25 156.52 62.0938C156.958 61.9375 157.335 61.7083 157.653 61.4062C157.966 61.1042 158.208 60.737 158.38 60.3047C158.557 59.8724 158.645 59.3776 158.645 58.8203V50.5469H157.333L157.263 51.4688C157.164 51.3438 157.057 51.2292 156.942 51.125C156.833 51.0208 156.716 50.9297 156.591 50.8516C156.361 50.7005 156.104 50.5859 155.817 50.5078C155.536 50.4297 155.226 50.3906 154.888 50.3906C154.361 50.3906 153.89 50.4974 153.473 50.7109C153.057 50.9245 152.703 51.2214 152.411 51.6016C152.119 51.9818 151.895 52.4375 151.739 52.9688C151.588 53.4948 151.513 54.0729 151.513 54.7031ZM152.958 54.8672V54.7031C152.958 54.2917 152.999 53.901 153.083 53.5312C153.171 53.1562 153.309 52.8255 153.497 52.5391C153.679 52.2578 153.914 52.0339 154.2 51.8672C154.492 51.7005 154.841 51.6172 155.247 51.6172C155.486 51.6172 155.705 51.6484 155.903 51.7109C156.101 51.7682 156.281 51.849 156.442 51.9531C156.604 52.0625 156.747 52.1901 156.872 52.3359C156.997 52.4818 157.106 52.6432 157.2 52.8203V56.6953C157.106 56.8776 156.997 57.0443 156.872 57.1953C156.747 57.3464 156.606 57.4766 156.45 57.5859C156.289 57.6953 156.106 57.7812 155.903 57.8438C155.705 57.901 155.481 57.9297 155.231 57.9297C154.83 57.9297 154.486 57.849 154.2 57.6875C153.914 57.5208 153.679 57.2969 153.497 57.0156C153.309 56.7344 153.171 56.4089 153.083 56.0391C152.999 55.6693 152.958 55.2786 152.958 54.8672ZM166.542 59H168.05V58.875C167.956 58.6406 167.883 58.3672 167.831 58.0547C167.779 57.737 167.753 57.4375 167.753 57.1562V53.2266C167.753 52.7526 167.667 52.3385 167.495 51.9844C167.323 51.6302 167.089 51.3333 166.792 51.0938C166.49 50.8594 166.133 50.6849 165.722 50.5703C165.31 50.4505 164.865 50.3906 164.386 50.3906C163.86 50.3906 163.389 50.4635 162.972 50.6094C162.56 50.7552 162.211 50.9453 161.925 51.1797C161.633 51.4193 161.409 51.6875 161.253 51.9844C161.102 52.2812 161.024 52.5833 161.019 52.8906H162.472C162.472 52.7135 162.514 52.5443 162.597 52.3828C162.685 52.2161 162.808 52.0729 162.964 51.9531C163.12 51.8333 163.31 51.737 163.534 51.6641C163.764 51.5911 164.021 51.5547 164.308 51.5547C164.615 51.5547 164.891 51.5938 165.136 51.6719C165.386 51.75 165.597 51.8594 165.769 52C165.941 52.1458 166.073 52.3203 166.167 52.5234C166.261 52.7266 166.308 52.9557 166.308 53.2109V53.875H164.73C164.141 53.875 163.607 53.9323 163.128 54.0469C162.654 54.1615 162.248 54.3333 161.909 54.5625C161.571 54.7969 161.308 55.0885 161.12 55.4375C160.938 55.7865 160.847 56.1927 160.847 56.6562C160.847 57.0104 160.915 57.3411 161.05 57.6484C161.191 57.9505 161.389 58.2109 161.644 58.4297C161.894 58.6536 162.198 58.8307 162.558 58.9609C162.922 59.0911 163.329 59.1562 163.777 59.1562C164.053 59.1562 164.313 59.1276 164.558 59.0703C164.803 59.013 165.034 58.9349 165.253 58.8359C165.467 58.737 165.662 58.6224 165.839 58.4922C166.021 58.362 166.185 58.224 166.331 58.0781C166.347 58.2552 166.37 58.4271 166.402 58.5938C166.438 58.7552 166.485 58.8906 166.542 59ZM163.987 57.8984C163.706 57.8984 163.459 57.862 163.245 57.7891C163.032 57.7161 162.855 57.6146 162.714 57.4844C162.573 57.3594 162.467 57.2083 162.394 57.0312C162.326 56.8542 162.292 56.6615 162.292 56.4531C162.292 56.2344 162.331 56.0391 162.409 55.8672C162.493 55.6953 162.612 55.5469 162.769 55.4219C162.987 55.2448 163.282 55.1146 163.652 55.0312C164.027 54.9427 164.464 54.8984 164.964 54.8984H166.308V56.6094C166.224 56.776 166.11 56.9375 165.964 57.0938C165.818 57.2448 165.646 57.3802 165.448 57.5C165.245 57.6198 165.021 57.7161 164.777 57.7891C164.532 57.862 164.269 57.8984 163.987 57.8984ZM169.931 54.7031V54.8672C169.931 55.4714 170.009 56.0365 170.166 56.5625C170.322 57.0833 170.546 57.5365 170.838 57.9219C171.124 58.3073 171.476 58.6094 171.892 58.8281C172.309 59.0469 172.775 59.1562 173.291 59.1562C173.598 59.1562 173.884 59.1224 174.15 59.0547C174.416 58.9922 174.658 58.901 174.877 58.7812C175.017 58.7031 175.147 58.612 175.267 58.5078C175.392 58.4036 175.509 58.2891 175.619 58.1641V58.8906C175.619 59.2552 175.567 59.5781 175.463 59.8594C175.358 60.1406 175.21 60.375 175.017 60.5625C174.819 60.7552 174.582 60.901 174.306 61C174.03 61.099 173.72 61.1484 173.377 61.1484C173.184 61.1484 172.991 61.1276 172.798 61.0859C172.606 61.0495 172.413 60.987 172.22 60.8984C172.028 60.8099 171.838 60.6901 171.65 60.5391C171.463 60.3932 171.28 60.2135 171.103 60L170.353 60.8672C170.546 61.1432 170.775 61.375 171.041 61.5625C171.311 61.75 171.593 61.8984 171.884 62.0078C172.171 62.1224 172.455 62.2031 172.736 62.25C173.017 62.3021 173.267 62.3281 173.486 62.3281C174.017 62.3281 174.502 62.25 174.939 62.0938C175.377 61.9375 175.754 61.7083 176.072 61.4062C176.384 61.1042 176.627 60.737 176.798 60.3047C176.976 59.8724 177.064 59.3776 177.064 58.8203V50.5469H175.752L175.681 51.4688C175.582 51.3438 175.476 51.2292 175.361 51.125C175.252 51.0208 175.134 50.9297 175.009 50.8516C174.78 50.7005 174.522 50.5859 174.236 50.5078C173.955 50.4297 173.645 50.3906 173.306 50.3906C172.78 50.3906 172.309 50.4974 171.892 50.7109C171.476 50.9245 171.121 51.2214 170.83 51.6016C170.538 51.9818 170.314 52.4375 170.158 52.9688C170.007 53.4948 169.931 54.0729 169.931 54.7031ZM171.377 54.8672V54.7031C171.377 54.2917 171.418 53.901 171.502 53.5312C171.59 53.1562 171.728 52.8255 171.916 52.5391C172.098 52.2578 172.332 52.0339 172.619 51.8672C172.91 51.7005 173.259 51.6172 173.666 51.6172C173.905 51.6172 174.124 51.6484 174.322 51.7109C174.52 51.7682 174.699 51.849 174.861 51.9531C175.022 52.0625 175.166 52.1901 175.291 52.3359C175.416 52.4818 175.525 52.6432 175.619 52.8203V56.6953C175.525 56.8776 175.416 57.0443 175.291 57.1953C175.166 57.3464 175.025 57.4766 174.869 57.5859C174.707 57.6953 174.525 57.7812 174.322 57.8438C174.124 57.901 173.9 57.9297 173.65 57.9297C173.249 57.9297 172.905 57.849 172.619 57.6875C172.332 57.5208 172.098 57.2969 171.916 57.0156C171.728 56.7344 171.59 56.4089 171.502 56.0391C171.418 55.6693 171.377 55.2786 171.377 54.8672ZM183.141 59.1562C183.964 59.1562 184.654 58.9922 185.211 58.6641C185.773 58.3307 186.195 57.9505 186.477 57.5234L185.594 56.8359C185.328 57.1797 184.995 57.4557 184.594 57.6641C184.193 57.8724 183.734 57.9766 183.219 57.9766C182.828 57.9766 182.471 57.9036 182.148 57.7578C181.826 57.612 181.549 57.4115 181.32 57.1562C181.096 56.9167 180.919 56.6406 180.789 56.3281C180.664 56.0156 180.583 55.6536 180.547 55.2422V55.1875H186.586V54.5391C186.586 53.9505 186.51 53.4036 186.359 52.8984C186.214 52.3932 185.99 51.9531 185.688 51.5781C185.385 51.2083 185.005 50.9193 184.547 50.7109C184.094 50.4974 183.562 50.3906 182.953 50.3906C182.469 50.3906 181.995 50.4896 181.531 50.6875C181.073 50.8854 180.664 51.1693 180.305 51.5391C179.94 51.9141 179.648 52.3724 179.43 52.9141C179.211 53.4505 179.102 54.0599 179.102 54.7422V55.0703C179.102 55.6589 179.201 56.2031 179.398 56.7031C179.596 57.2031 179.872 57.6354 180.227 58C180.581 58.3646 181.005 58.6484 181.5 58.8516C182 59.0547 182.547 59.1562 183.141 59.1562ZM182.953 51.5781C183.323 51.5781 183.641 51.6458 183.906 51.7812C184.177 51.9167 184.401 52.0938 184.578 52.3125C184.755 52.5312 184.893 52.7917 184.992 53.0938C185.091 53.3906 185.141 53.6693 185.141 53.9297V54H180.594C180.651 53.6094 180.75 53.2656 180.891 52.9688C181.036 52.6667 181.214 52.4115 181.422 52.2031C181.63 52 181.865 51.8464 182.125 51.7422C182.385 51.6328 182.661 51.5781 182.953 51.5781Z" fill="#EB9473"/>
<path d="M197.205 59.0909C196.924 59.0909 196.684 58.9905 196.483 58.7898C196.282 58.589 196.182 58.3485 196.182 58.0682C196.182 57.7879 196.282 57.5473 196.483 57.3466C196.684 57.1458 196.924 57.0455 197.205 57.0455C197.485 57.0455 197.725 57.1458 197.926 57.3466C198.127 57.5473 198.227 57.7879 198.227 58.0682C198.227 58.2538 198.18 58.4242 198.085 58.5795C197.994 58.7348 197.871 58.8598 197.716 58.9545C197.564 59.0455 197.394 59.0909 197.205 59.0909ZM201.211 59.0909C200.93 59.0909 200.69 58.9905 200.489 58.7898C200.288 58.589 200.188 58.3485 200.188 58.0682C200.188 57.7879 200.288 57.5473 200.489 57.3466C200.69 57.1458 200.93 57.0455 201.211 57.0455C201.491 57.0455 201.732 57.1458 201.932 57.3466C202.133 57.5473 202.234 57.7879 202.234 58.0682C202.234 58.2538 202.186 58.4242 202.091 58.5795C202.001 58.7348 201.877 58.8598 201.722 58.9545C201.571 59.0455 201.4 59.0909 201.211 59.0909ZM205.217 59.0909C204.937 59.0909 204.696 58.9905 204.495 58.7898C204.295 58.589 204.194 58.3485 204.194 58.0682C204.194 57.7879 204.295 57.5473 204.495 57.3466C204.696 57.1458 204.937 57.0455 205.217 57.0455C205.497 57.0455 205.738 57.1458 205.939 57.3466C206.139 57.5473 206.24 57.7879 206.24 58.0682C206.24 58.2538 206.192 58.4242 206.098 58.5795C206.007 58.7348 205.884 58.8598 205.728 58.9545C205.577 59.0455 205.406 59.0909 205.217 59.0909Z" fill="white"/>
<path d="M221.789 56.0547L222.688 59H224.125L220.516 47.625H219.305L215.633 59H217.078L217.992 56.0547H221.789ZM218.383 54.7969L219.906 49.8594L221.406 54.7969H218.383ZM225.295 54.7031V54.8672C225.295 55.4714 225.376 56.0365 225.538 56.5625C225.699 57.0833 225.926 57.5365 226.217 57.9219C226.509 58.3073 226.86 58.6094 227.272 58.8281C227.689 59.0469 228.152 59.1562 228.663 59.1562C229.183 59.1562 229.639 59.0677 230.03 58.8906C230.42 58.7135 230.756 58.4531 231.038 58.1094L231.1 59H232.428V47H230.983V51.3828C230.707 51.0599 230.379 50.8151 229.998 50.6484C229.623 50.4766 229.183 50.3906 228.678 50.3906C228.163 50.3906 227.696 50.4974 227.28 50.7109C226.863 50.9245 226.509 51.2214 226.217 51.6016C225.92 51.9818 225.691 52.4375 225.53 52.9688C225.373 53.4948 225.295 54.0729 225.295 54.7031ZM226.741 54.8672V54.7031C226.741 54.2917 226.785 53.901 226.873 53.5312C226.962 53.1562 227.1 52.8255 227.288 52.5391C227.47 52.2578 227.704 52.0339 227.991 51.8672C228.282 51.7005 228.631 51.6172 229.038 51.6172C229.511 51.6172 229.907 51.7292 230.225 51.9531C230.543 52.1719 230.795 52.4531 230.983 52.7969V56.7188C230.795 57.0885 230.543 57.3828 230.225 57.6016C229.907 57.8203 229.506 57.9297 229.022 57.9297C228.621 57.9297 228.277 57.849 227.991 57.6875C227.704 57.5208 227.47 57.2969 227.288 57.0156C227.1 56.7344 226.962 56.4089 226.873 56.0391C226.785 55.6693 226.741 55.2786 226.741 54.8672ZM236.364 47.625H234.575V59H235.981V54.4609L235.864 49.875L237.794 55.8359H238.622L240.723 49.7109L240.606 54.4609V59H242.013V47.625H240.216L238.216 53.3125L236.364 47.625ZM243.581 54.6953V54.8672C243.581 55.4766 243.67 56.0417 243.847 56.5625C244.024 57.0833 244.279 57.5365 244.612 57.9219C244.941 58.3073 245.342 58.6094 245.816 58.8281C246.295 59.0469 246.834 59.1562 247.433 59.1562C248.027 59.1562 248.56 59.0469 249.034 58.8281C249.508 58.6094 249.912 58.3073 250.245 57.9219C250.573 57.5365 250.826 57.0833 251.003 56.5625C251.18 56.0417 251.269 55.4766 251.269 54.8672V54.6953C251.269 54.0859 251.18 53.5208 251.003 53C250.826 52.474 250.573 52.0182 250.245 51.6328C249.912 51.2474 249.506 50.9453 249.027 50.7266C248.553 50.5026 248.016 50.3906 247.417 50.3906C246.823 50.3906 246.29 50.5026 245.816 50.7266C245.342 50.9453 244.941 51.2474 244.612 51.6328C244.279 52.0182 244.024 52.474 243.847 53C243.67 53.5208 243.581 54.0859 243.581 54.6953ZM245.027 54.8672V54.6953C245.027 54.2839 245.076 53.8906 245.175 53.5156C245.274 53.1354 245.425 52.8021 245.628 52.5156C245.826 52.2292 246.073 52.0026 246.37 51.8359C246.667 51.6641 247.016 51.5781 247.417 51.5781C247.818 51.5781 248.167 51.6641 248.464 51.8359C248.766 52.0026 249.019 52.2292 249.222 52.5156C249.42 52.8021 249.568 53.1354 249.667 53.5156C249.771 53.8906 249.823 54.2839 249.823 54.6953V54.8672C249.823 55.2839 249.774 55.6823 249.675 56.0625C249.576 56.4375 249.428 56.7682 249.23 57.0547C249.027 57.3411 248.774 57.5677 248.472 57.7344C248.175 57.901 247.829 57.9844 247.433 57.9844C247.032 57.9844 246.68 57.901 246.378 57.7344C246.076 57.5677 245.826 57.3411 245.628 57.0547C245.425 56.7682 245.274 56.4375 245.175 56.0625C245.076 55.6823 245.027 55.2839 245.027 54.8672ZM260.361 54.8672V54.7031C260.361 54.2604 260.324 53.8411 260.252 53.4453C260.179 53.0443 260.072 52.6797 259.931 52.3516C259.796 52.0599 259.64 51.7969 259.463 51.5625C259.285 51.3229 259.085 51.1198 258.861 50.9531C258.611 50.776 258.332 50.638 258.025 50.5391C257.718 50.4401 257.382 50.3906 257.017 50.3906C256.726 50.3906 256.455 50.4193 256.205 50.4766C255.955 50.5339 255.726 50.6172 255.517 50.7266C255.351 50.8151 255.194 50.9219 255.048 51.0469C254.903 51.1667 254.77 51.3021 254.65 51.4531V47H253.205V59H254.533L254.603 58.0391C254.697 58.1589 254.796 58.2682 254.9 58.3672C255.004 58.4661 255.114 58.5573 255.228 58.6406C255.468 58.8073 255.736 58.9349 256.033 59.0234C256.335 59.112 256.668 59.1562 257.033 59.1562C257.351 59.1562 257.645 59.1172 257.916 59.0391C258.192 58.9609 258.444 58.8516 258.673 58.7109C258.991 58.5078 259.262 58.2526 259.486 57.9453C259.715 57.6328 259.9 57.2812 260.041 56.8906C260.145 56.5938 260.223 56.276 260.275 55.9375C260.332 55.5938 260.361 55.237 260.361 54.8672ZM258.916 54.7031V54.8672C258.916 55.1172 258.9 55.362 258.869 55.6016C258.838 55.8411 258.788 56.0651 258.72 56.2734C258.637 56.5495 258.525 56.7995 258.384 57.0234C258.244 57.2474 258.069 57.4323 257.861 57.5781C257.705 57.6927 257.528 57.7812 257.33 57.8438C257.132 57.901 256.913 57.9297 256.673 57.9297C256.423 57.9297 256.194 57.8984 255.986 57.8359C255.778 57.7682 255.59 57.6745 255.423 57.5547C255.257 57.4349 255.108 57.2969 254.978 57.1406C254.853 56.9792 254.744 56.8047 254.65 56.6172V52.9219C254.739 52.7344 254.845 52.5625 254.97 52.4062C255.101 52.2448 255.249 52.1042 255.416 51.9844C255.577 51.8698 255.762 51.7812 255.97 51.7188C256.179 51.651 256.408 51.6172 256.658 51.6172C256.887 51.6172 257.095 51.6432 257.283 51.6953C257.47 51.7474 257.64 51.8203 257.791 51.9141C258.009 52.0443 258.194 52.224 258.345 52.4531C258.496 52.6823 258.619 52.9349 258.713 53.2109C258.78 53.4349 258.83 53.6745 258.861 53.9297C258.897 54.1797 258.916 54.4375 258.916 54.7031Z" fill="#13B9FD"/>
<defs>
<linearGradient id="paint0_linear_5723_26211" x1="390" y1="-1.21521e-05" x2="42" y2="297" gradientUnits="userSpaceOnUse">
<stop stop-color="white"/>
<stop offset="0.5" stop-color="#B3DFF2"/>
<stop offset="1" stop-color="#7CCFF1"/>
</linearGradient>
<linearGradient id="paint1_linear_5723_26211" x1="37" y1="0" x2="37" y2="88" gradientUnits="userSpaceOnUse">
<stop stop-color="#F8BCD1"/>
<stop offset="0.5" stop-color="#DDBBE7"/>
<stop offset="1" stop-color="#C6BAFA"/>
</linearGradient>
<linearGradient id="paint2_linear_5723_26211" x1="62.5" y1="0" x2="62.5" y2="88" gradientUnits="userSpaceOnUse">
<stop stop-color="#F8BCD1"/>
<stop offset="0.5" stop-color="#DDBBE7"/>
<stop offset="1" stop-color="#C6BAFA"/>
</linearGradient>
</defs>
</svg>
