<svg width="431" height="370" viewBox="0 0 431 370" fill="none" xmlns="http://www.w3.org/2000/svg">
<path d="M91.8619 340L16 22L414 265.983L91.8619 340Z" fill="url(#paint0_linear_5214_28018)"/>
<path d="M213.381 220.083C213.861 220.083 214.273 220.425 214.363 220.896L217.182 235.695C217.25 236.05 217.505 236.341 217.847 236.461C219.944 237.199 221.876 238.101 223.643 239.169C225.393 240.212 226.983 241.414 228.412 242.777C228.686 243.038 229.081 243.133 229.441 243.013L244.271 238.069C244.72 237.92 245.213 238.105 245.451 238.514L255.419 255.603C255.66 256.015 255.575 256.54 255.217 256.856L243.258 267.408C242.941 267.688 242.837 268.136 242.979 268.535C243.326 269.516 243.5 270.324 243.5 270.958V277.125C243.5 277.759 243.326 278.567 242.979 279.549C242.837 279.947 242.941 280.395 243.258 280.675L255.217 291.227C255.575 291.543 255.66 292.068 255.419 292.481L245.451 309.569C245.213 309.978 244.72 310.164 244.271 310.014L229.441 305.07C229.081 304.951 228.686 305.045 228.412 305.307C226.983 306.67 225.393 307.878 223.643 308.93C221.876 309.988 219.944 310.886 217.847 311.623C217.505 311.743 217.25 312.033 217.182 312.389L214.363 327.187C214.273 327.659 213.861 328 213.381 328H193.453C192.972 328 192.56 327.659 192.47 327.187L189.651 312.389C189.584 312.033 189.328 311.743 188.987 311.623C186.889 310.886 184.951 309.988 183.175 308.93C181.434 307.878 179.85 306.67 178.421 305.307C178.147 305.045 177.752 304.951 177.393 305.07L162.562 310.014C162.113 310.164 161.621 309.978 161.382 309.569L151.414 292.481C151.173 292.068 151.258 291.543 151.616 291.227L163.575 280.675C163.893 280.395 163.996 279.947 163.855 279.549C163.507 278.567 163.333 277.759 163.333 277.125V270.958C163.333 270.324 163.507 269.516 163.855 268.535C163.996 268.136 163.893 267.688 163.575 267.408L151.616 256.856C151.258 256.54 151.173 256.015 151.414 255.603L161.382 238.514C161.621 238.105 162.113 237.92 162.562 238.069L177.393 243.013C177.752 243.133 178.147 243.038 178.421 242.777C179.85 241.414 181.434 240.212 183.175 239.169C184.951 238.101 186.889 237.199 188.987 236.461C189.328 236.341 189.584 236.05 189.651 235.695L192.47 220.896C192.56 220.425 192.972 220.083 193.453 220.083H213.381ZM203.417 254.771C198.021 254.771 193.458 256.636 189.727 260.367C186.006 264.088 184.146 268.646 184.146 274.042C184.146 279.437 186.006 284.001 189.727 287.732C193.458 291.452 198.021 293.312 203.417 293.312C208.813 293.312 213.371 291.452 217.091 287.732C220.822 284.001 222.688 279.437 222.688 274.042C222.688 268.646 220.822 264.088 217.091 260.367C213.371 256.636 208.813 254.771 203.417 254.771Z" fill="#BCF4E9" stroke="#01579B" stroke-width="4"/>
<path fill-rule="evenodd" clip-rule="evenodd" d="M249.827 143.804L251.865 153.993C251.936 154.345 252.19 154.632 252.529 154.749C253.872 155.216 255.164 155.734 256.404 156.304C257.656 156.867 258.855 157.681 260.003 158.748C260.286 159.011 260.69 159.105 261.054 158.975L270.451 155.618C270.912 155.454 271.424 155.647 271.662 156.075L278.574 168.516C278.799 168.921 278.716 169.429 278.372 169.741L270.807 176.619C270.598 176.808 270.479 177.077 270.479 177.359V185.724C270.479 186.006 270.598 186.275 270.807 186.464L278.372 193.342C278.716 193.654 278.799 194.162 278.574 194.567L271.662 207.009C271.424 207.436 270.912 207.629 270.451 207.465L261.054 204.109C260.69 203.979 260.287 204.073 259.999 204.331C259.056 205.179 257.924 205.934 256.604 206.594C255.245 207.273 253.887 207.853 252.528 208.332C252.19 208.452 251.936 208.738 251.865 209.09L249.827 219.279C249.734 219.747 249.324 220.083 248.847 220.083H235.07C234.593 220.083 234.183 219.747 234.089 219.279L232.051 209.09C231.981 208.738 231.727 208.452 231.389 208.332C230.03 207.853 228.671 207.273 227.313 206.594C225.992 205.934 224.861 205.179 223.918 204.331C223.63 204.073 223.226 203.979 222.862 204.109L213.465 207.465C213.005 207.629 212.492 207.436 212.255 207.009L205.343 194.567C205.118 194.162 205.201 193.654 205.545 193.342L213.11 186.464C213.319 186.275 213.438 186.006 213.438 185.724V177.359C213.438 177.077 213.319 176.808 213.11 176.619L205.545 169.741C205.201 169.429 205.118 168.921 205.343 168.516L212.255 156.075C212.492 155.647 213.005 155.454 213.465 155.618L222.862 158.975C223.226 159.105 223.631 159.011 223.914 158.748C225.06 157.681 226.255 156.867 227.498 156.304C228.747 155.734 230.043 155.216 231.388 154.749C231.727 154.632 231.981 154.345 232.051 153.993L234.089 143.804C234.183 143.336 234.593 143 235.07 143H248.847C249.324 143 249.734 143.336 249.827 143.804ZM241.958 169.979C238.875 169.979 236.177 171.135 233.865 173.448C231.552 175.76 230.396 178.458 230.396 181.541C230.396 184.625 231.552 187.323 233.865 189.635C236.177 191.948 238.875 193.104 241.958 193.104C245.042 193.104 247.74 191.948 250.052 189.635C252.365 187.323 253.521 184.625 253.521 181.541C253.521 178.458 252.365 175.76 250.052 173.448C247.74 171.135 245.042 169.979 241.958 169.979Z" fill="#C6BFFA" stroke="#01579B" stroke-width="4"/>
<mask id="mask0_5214_28018" style="mask-type:alpha" maskUnits="userSpaceOnUse" x="101" y="11" width="97" height="347">
<rect x="101" y="11" width="97" height="347" fill="#D9D9D9"/>
</mask>
<g mask="url(#mask0_5214_28018)">
<rect x="107" y="25" width="149" height="314" rx="21" fill="white" stroke="#01579B" stroke-width="6"/>
<rect x="118" y="272" width="127" height="56" rx="8" fill="url(#paint1_linear_5214_28018)"/>
<rect x="118" y="73" width="127" height="88" rx="8" fill="url(#paint2_linear_5214_28018)"/>
<rect x="118" y="167" width="60" height="46" rx="8" fill="url(#paint3_linear_5214_28018)"/>
<rect x="118" y="220" width="60" height="46" rx="8" fill="url(#paint4_linear_5214_28018)"/>
<rect x="185" y="167" width="60" height="46" rx="8" fill="url(#paint5_linear_5214_28018)"/>
<rect x="185" y="220" width="60" height="46" rx="8" fill="url(#paint6_linear_5214_28018)"/>
<rect x="126" y="141" width="111" height="12" rx="4" fill="#5E7185"/>
<rect x="122" y="197" width="52" height="12" rx="4" fill="#5E7185"/>
<rect x="122" y="250" width="52" height="12" rx="4" fill="#5E7185"/>
<rect x="189" y="197" width="52" height="12" rx="4" fill="#5E7185"/>
<rect x="189" y="250" width="52" height="12" rx="4" fill="#5E7185"/>
<rect width="127" height="31" transform="matrix(1 0 0 -1 118 328)" fill="white"/>
<mask id="path-18-inside-1_5214_28018" fill="white">
<path d="M118 328H245V297H118V328Z"/>
</mask>
<path d="M118 328H245V297H118V328Z" fill="white"/>
<path d="M245 301H118V293H245V301Z" fill="#01579B" mask="url(#path-18-inside-1_5214_28018)"/>
<mask id="path-20-inside-2_5214_28018" fill="white">
<path d="M118 67H245V36H118V67Z"/>
</mask>
<path d="M118 67H245V36H118V67Z" fill="white"/>
<path d="M118 63H245V71H118V63Z" fill="#01579B" mask="url(#path-20-inside-2_5214_28018)"/>
<rect x="155" y="45" width="52" height="12" rx="4" fill="#5E7185"/>
<rect x="185" y="310" width="52" height="12" rx="4" fill="#E5EEF2"/>
<rect x="126" y="310" width="52" height="12" rx="4" fill="#5E7185"/>
</g>
<rect x="194" y="14" width="6" height="339" fill="#01579B"/>
<path d="M301.104 225.281L299.599 217.803C299.505 217.336 299.095 217 298.619 217H288.381C287.905 217 287.495 217.336 287.401 217.803L285.896 225.281C285.825 225.633 285.57 225.919 285.231 226.037C284.241 226.383 283.284 226.765 282.361 227.183C281.442 227.597 280.557 228.188 279.707 228.957C279.421 229.215 279.019 229.308 278.657 229.18L271.733 226.722C271.274 226.559 270.763 226.751 270.526 227.177L265.389 236.364C265.161 236.771 265.245 237.282 265.591 237.594L271.202 242.662C271.411 242.852 271.531 243.121 271.531 243.404V249.596C271.531 249.879 271.411 250.148 271.202 250.338L265.591 255.406C265.245 255.718 265.161 256.229 265.389 256.636L270.526 265.823C270.763 266.249 271.274 266.441 271.733 266.278L278.657 263.82C279.019 263.692 279.421 263.786 279.711 264.038C280.416 264.649 281.252 265.194 282.219 265.675C283.223 266.174 284.228 266.603 285.232 266.961C285.57 267.082 285.825 267.367 285.896 267.719L287.401 275.197C287.495 275.664 287.905 276 288.381 276H298.619C299.095 276 299.505 275.664 299.599 275.197L301.104 267.719C301.175 267.367 301.43 267.082 301.768 266.961C302.772 266.603 303.777 266.174 304.781 265.675C305.748 265.194 306.584 264.649 307.289 264.038C307.579 263.786 307.981 263.692 308.343 263.82L315.267 266.278C315.726 266.441 316.236 266.249 316.474 265.823L321.611 256.636C321.839 256.229 321.755 255.718 321.409 255.406L315.798 250.338C315.589 250.148 315.469 249.879 315.469 249.596V243.404C315.469 243.121 315.589 242.852 315.798 242.662L321.409 237.594C321.755 237.282 321.839 236.771 321.611 236.364L316.474 227.177C316.236 226.751 315.726 226.559 315.267 226.722L308.343 229.18C307.981 229.308 307.579 229.215 307.293 228.957C306.441 228.188 305.553 227.597 304.627 227.183C303.711 226.765 302.758 226.383 301.769 226.037C301.43 225.919 301.175 225.633 301.104 225.281Z" fill="white" stroke="#01579B" stroke-width="4"/>
<path d="M306.04 247.365C306.041 246.476 305.967 245.588 305.82 244.712H293.754V249.737H300.665C300.523 250.54 300.224 251.305 299.785 251.986C299.346 252.668 298.776 253.252 298.109 253.702V256.964H302.234C304.649 254.694 306.04 251.336 306.04 247.365Z" fill="#4285F4"/>
<path d="M293.754 260.115C297.206 260.115 300.113 258.959 302.233 256.966L298.109 253.704C296.961 254.498 295.483 254.951 293.754 254.951C290.416 254.951 287.584 252.656 286.571 249.565H282.322V252.926C283.387 255.087 285.02 256.904 287.039 258.174C289.057 259.443 291.382 260.115 293.754 260.115V260.115Z" fill="#34A853"/>
<path d="M286.571 249.565C286.036 247.945 286.036 246.19 286.571 244.57V241.209H282.322C281.426 243.027 280.96 245.033 280.96 247.068C280.96 249.102 281.426 251.108 282.322 252.926L286.571 249.565Z" fill="#FBBC04"/>
<path d="M293.754 239.185C295.578 239.154 297.341 239.858 298.662 241.142L302.313 237.418C299.998 235.2 296.93 233.982 293.754 234.02C291.382 234.02 289.057 234.693 287.039 235.962C285.02 237.231 283.387 239.048 282.322 241.209L286.571 244.571C287.584 241.479 290.416 239.185 293.754 239.185Z" fill="#EA4335"/>
<rect width="206" height="44" transform="translate(172 73)" fill="#041E3C"/>
<path d="M194.914 101H196.422V100.875C196.328 100.641 196.255 100.367 196.203 100.055C196.151 99.737 196.125 99.4375 196.125 99.1562V95.2266C196.125 94.7526 196.039 94.3385 195.867 93.9844C195.695 93.6302 195.461 93.3333 195.164 93.0938C194.862 92.8594 194.505 92.6849 194.094 92.5703C193.682 92.4505 193.237 92.3906 192.758 92.3906C192.232 92.3906 191.76 92.4635 191.344 92.6094C190.932 92.7552 190.583 92.9453 190.297 93.1797C190.005 93.4193 189.781 93.6875 189.625 93.9844C189.474 94.2812 189.396 94.5833 189.391 94.8906H190.844C190.844 94.7135 190.885 94.5443 190.969 94.3828C191.057 94.2161 191.18 94.0729 191.336 93.9531C191.492 93.8333 191.682 93.737 191.906 93.6641C192.135 93.5911 192.393 93.5547 192.68 93.5547C192.987 93.5547 193.263 93.5938 193.508 93.6719C193.758 93.75 193.969 93.8594 194.141 94C194.312 94.1458 194.445 94.3203 194.539 94.5234C194.633 94.7266 194.68 94.9557 194.68 95.2109V95.875H193.102C192.513 95.875 191.979 95.9323 191.5 96.0469C191.026 96.1615 190.62 96.3333 190.281 96.5625C189.943 96.7969 189.68 97.0885 189.492 97.4375C189.31 97.7865 189.219 98.1927 189.219 98.6562C189.219 99.0104 189.286 99.3411 189.422 99.6484C189.562 99.9505 189.76 100.211 190.016 100.43C190.266 100.654 190.57 100.831 190.93 100.961C191.294 101.091 191.701 101.156 192.148 101.156C192.424 101.156 192.685 101.128 192.93 101.07C193.174 101.013 193.406 100.935 193.625 100.836C193.839 100.737 194.034 100.622 194.211 100.492C194.393 100.362 194.557 100.224 194.703 100.078C194.719 100.255 194.742 100.427 194.773 100.594C194.81 100.755 194.857 100.891 194.914 101ZM192.359 99.8984C192.078 99.8984 191.831 99.862 191.617 99.7891C191.404 99.7161 191.227 99.6146 191.086 99.4844C190.945 99.3594 190.839 99.2083 190.766 99.0312C190.698 98.8542 190.664 98.6615 190.664 98.4531C190.664 98.2344 190.703 98.0391 190.781 97.8672C190.865 97.6953 190.984 97.5469 191.141 97.4219C191.359 97.2448 191.654 97.1146 192.023 97.0312C192.398 96.9427 192.836 96.8984 193.336 96.8984H194.68V98.6094C194.596 98.776 194.482 98.9375 194.336 99.0938C194.19 99.2448 194.018 99.3802 193.82 99.5C193.617 99.6198 193.393 99.7161 193.148 99.7891C192.904 99.862 192.641 99.8984 192.359 99.8984ZM198.561 104.25H200.006V100.188C200.11 100.302 200.222 100.409 200.342 100.508C200.462 100.602 200.59 100.688 200.725 100.766C200.949 100.891 201.199 100.987 201.475 101.055C201.756 101.122 202.058 101.156 202.381 101.156C202.913 101.156 203.384 101.047 203.795 100.828C204.212 100.609 204.561 100.307 204.842 99.9219C205.123 99.5365 205.337 99.0833 205.483 98.5625C205.629 98.0365 205.702 97.4714 205.702 96.8672V96.7031C205.702 96.0729 205.629 95.4948 205.483 94.9688C205.337 94.4375 205.123 93.9818 204.842 93.6016C204.561 93.2214 204.212 92.9245 203.795 92.7109C203.379 92.4974 202.899 92.3906 202.358 92.3906C202.051 92.3906 201.761 92.4245 201.491 92.4922C201.225 92.5547 200.983 92.6484 200.764 92.7734C200.608 92.8568 200.462 92.9583 200.327 93.0781C200.191 93.1927 200.066 93.3229 199.952 93.4688L199.881 92.5469H198.561V104.25ZM204.256 96.7031V96.8672C204.256 97.2786 204.209 97.6719 204.116 98.0469C204.027 98.4219 203.889 98.7526 203.702 99.0391C203.514 99.3255 203.274 99.5547 202.983 99.7266C202.691 99.8932 202.345 99.9766 201.944 99.9766C201.694 99.9766 201.465 99.9453 201.256 99.8828C201.053 99.8203 200.868 99.7344 200.702 99.625C200.556 99.5312 200.426 99.4167 200.311 99.2812C200.196 99.1458 200.095 99 200.006 98.8438V94.7734C200.105 94.5964 200.22 94.4349 200.35 94.2891C200.48 94.1432 200.629 94.0208 200.795 93.9219C200.946 93.8229 201.116 93.7474 201.303 93.6953C201.496 93.6432 201.704 93.6172 201.928 93.6172C202.334 93.6172 202.683 93.7005 202.975 93.8672C203.267 94.0339 203.509 94.2578 203.702 94.5391C203.889 94.8255 204.027 95.1562 204.116 95.5312C204.209 95.901 204.256 96.2917 204.256 96.7031ZM208.005 92.5469V93.8047H210.88V99.75H208.005V101H215.083V99.75H212.325V92.5469H208.005ZM210.692 90.3281C210.692 90.5625 210.763 90.7578 210.903 90.9141C211.049 91.0703 211.268 91.1484 211.559 91.1484C211.846 91.1484 212.062 91.0703 212.208 90.9141C212.354 90.7578 212.427 90.5625 212.427 90.3281C212.427 90.1979 212.406 90.0781 212.364 89.9688C212.322 89.8594 212.26 89.7682 212.177 89.6953C212.109 89.6276 212.023 89.5755 211.919 89.5391C211.815 89.4974 211.695 89.4766 211.559 89.4766C211.424 89.4766 211.302 89.4974 211.192 89.5391C211.088 89.5755 211.002 89.6276 210.934 89.6953C210.851 89.7734 210.789 89.8672 210.747 89.9766C210.71 90.0859 210.692 90.2031 210.692 90.3281ZM224.355 97.5781H222.909C222.862 97.9219 222.782 98.2422 222.667 98.5391C222.553 98.8307 222.399 99.0833 222.206 99.2969C222.014 99.5156 221.777 99.6849 221.495 99.8047C221.219 99.9245 220.891 99.9844 220.511 99.9844C220.162 99.9844 219.857 99.9297 219.597 99.8203C219.336 99.7057 219.11 99.5495 218.917 99.3516C218.724 99.1589 218.566 98.9349 218.441 98.6797C218.316 98.4245 218.214 98.151 218.136 97.8594C218.058 97.5729 218.001 97.2812 217.964 96.9844C217.933 96.6823 217.917 96.3906 217.917 96.1094V94.5078C217.917 94.2266 217.933 93.9375 217.964 93.6406C218.001 93.3385 218.058 93.0443 218.136 92.7578C218.214 92.4714 218.316 92.2005 218.441 91.9453C218.571 91.6901 218.732 91.4661 218.925 91.2734C219.112 91.0807 219.336 90.9297 219.597 90.8203C219.862 90.7057 220.167 90.6484 220.511 90.6484C220.891 90.6484 221.219 90.7135 221.495 90.8438C221.777 90.9688 222.014 91.1432 222.206 91.3672C222.399 91.5911 222.553 91.8516 222.667 92.1484C222.782 92.4453 222.862 92.7656 222.909 93.1094H224.355C224.292 92.5677 224.162 92.0729 223.964 91.625C223.771 91.1771 223.514 90.7917 223.191 90.4688C222.868 90.151 222.482 89.9062 222.034 89.7344C221.586 89.5573 221.079 89.4688 220.511 89.4688C220.037 89.4688 219.61 89.5365 219.23 89.6719C218.849 89.8021 218.511 89.9844 218.214 90.2188C217.912 90.4531 217.652 90.7318 217.433 91.0547C217.219 91.3724 217.042 91.7188 216.902 92.0938C216.756 92.4688 216.646 92.862 216.573 93.2734C216.506 93.6849 216.469 94.1016 216.464 94.5234V96.1094C216.469 96.5312 216.506 96.9479 216.573 97.3594C216.646 97.7708 216.756 98.1641 216.902 98.5391C217.042 98.9141 217.219 99.2604 217.433 99.5781C217.652 99.8958 217.912 100.172 218.214 100.406C218.511 100.641 218.849 100.826 219.23 100.961C219.615 101.091 220.042 101.156 220.511 101.156C221.058 101.156 221.553 101.07 221.995 100.898C222.443 100.721 222.831 100.474 223.159 100.156C223.482 99.8438 223.745 99.4688 223.948 99.0312C224.152 98.5885 224.287 98.1042 224.355 97.5781ZM226.423 89V90.2578H229.298V99.75H226.423V101H233.502V99.75H230.744V89H226.423ZM235.633 92.5469V93.8047H238.508V99.75H235.633V101H242.711V99.75H239.953V92.5469H235.633ZM238.32 90.3281C238.32 90.5625 238.391 90.7578 238.531 90.9141C238.677 91.0703 238.896 91.1484 239.188 91.1484C239.474 91.1484 239.69 91.0703 239.836 90.9141C239.982 90.7578 240.055 90.5625 240.055 90.3281C240.055 90.1979 240.034 90.0781 239.992 89.9688C239.951 89.8594 239.888 89.7682 239.805 89.6953C239.737 89.6276 239.651 89.5755 239.547 89.5391C239.443 89.4974 239.323 89.4766 239.188 89.4766C239.052 89.4766 238.93 89.4974 238.82 89.5391C238.716 89.5755 238.63 89.6276 238.562 89.6953C238.479 89.7734 238.417 89.8672 238.375 89.9766C238.339 90.0859 238.32 90.2031 238.32 90.3281ZM248.35 101.156C249.173 101.156 249.863 100.992 250.42 100.664C250.983 100.331 251.405 99.9505 251.686 99.5234L250.803 98.8359C250.537 99.1797 250.204 99.4557 249.803 99.6641C249.402 99.8724 248.944 99.9766 248.428 99.9766C248.037 99.9766 247.681 99.9036 247.358 99.7578C247.035 99.612 246.759 99.4115 246.53 99.1562C246.306 98.9167 246.129 98.6406 245.998 98.3281C245.873 98.0156 245.793 97.6536 245.756 97.2422V97.1875H251.795V96.5391C251.795 95.9505 251.72 95.4036 251.569 94.8984C251.423 94.3932 251.199 93.9531 250.897 93.5781C250.595 93.2083 250.215 92.9193 249.756 92.7109C249.303 92.4974 248.772 92.3906 248.162 92.3906C247.678 92.3906 247.204 92.4896 246.741 92.6875C246.282 92.8854 245.873 93.1693 245.514 93.5391C245.149 93.9141 244.858 94.3724 244.639 94.9141C244.42 95.4505 244.311 96.0599 244.311 96.7422V97.0703C244.311 97.6589 244.41 98.2031 244.608 98.7031C244.806 99.2031 245.082 99.6354 245.436 100C245.79 100.365 246.215 100.648 246.709 100.852C247.209 101.055 247.756 101.156 248.35 101.156ZM248.162 93.5781C248.532 93.5781 248.85 93.6458 249.116 93.7812C249.386 93.9167 249.61 94.0938 249.787 94.3125C249.965 94.5312 250.103 94.7917 250.202 95.0938C250.301 95.3906 250.35 95.6693 250.35 95.9297V96H245.803C245.86 95.6094 245.959 95.2656 246.1 94.9688C246.246 94.6667 246.423 94.4115 246.631 94.2031C246.84 94 247.074 93.8464 247.334 93.7422C247.595 93.6328 247.871 93.5781 248.162 93.5781ZM253.825 101H255.27V94.9375C255.369 94.7552 255.484 94.5885 255.614 94.4375C255.749 94.2865 255.895 94.1536 256.052 94.0391C256.244 93.9089 256.455 93.8073 256.684 93.7344C256.914 93.6562 257.161 93.6172 257.427 93.6172C257.734 93.6172 258.005 93.6536 258.239 93.7266C258.479 93.7995 258.682 93.9167 258.848 94.0781C259.01 94.2396 259.132 94.4505 259.216 94.7109C259.299 94.9714 259.341 95.2891 259.341 95.6641V101H260.786V95.6328C260.786 95.0703 260.716 94.5859 260.575 94.1797C260.44 93.7682 260.244 93.4297 259.989 93.1641C259.734 92.8984 259.424 92.7031 259.059 92.5781C258.7 92.4531 258.299 92.3906 257.856 92.3906C257.528 92.3958 257.216 92.4453 256.919 92.5391C256.627 92.6276 256.356 92.7552 256.106 92.9219C255.94 93.0312 255.781 93.1615 255.63 93.3125C255.484 93.4583 255.348 93.6198 255.223 93.7969L255.122 92.5469H253.825V101ZM266.456 90.5H265.003V92.5469H262.784V93.6641H265.003V98.2578C265.003 98.7786 265.071 99.224 265.206 99.5938C265.347 99.9583 265.537 100.255 265.777 100.484C266.016 100.719 266.297 100.891 266.62 101C266.948 101.104 267.3 101.156 267.675 101.156C267.899 101.156 268.123 101.146 268.347 101.125C268.576 101.104 268.792 101.073 268.995 101.031C269.198 100.995 269.386 100.951 269.558 100.898C269.73 100.841 269.876 100.776 269.995 100.703L269.792 99.6797C269.704 99.7005 269.589 99.7266 269.448 99.7578C269.313 99.7839 269.167 99.8099 269.011 99.8359C268.849 99.862 268.685 99.8854 268.519 99.9062C268.352 99.9219 268.191 99.9297 268.034 99.9297C267.821 99.9297 267.618 99.9036 267.425 99.8516C267.238 99.7995 267.071 99.7083 266.925 99.5781C266.779 99.4531 266.665 99.2839 266.581 99.0703C266.498 98.8568 266.456 98.5859 266.456 98.2578V93.6641H269.675V92.5469H266.456V90.5Z" fill="#EB9473"/>
<path d="M280.773 95.3864V94.1591H287.773V95.3864H280.773ZM280.773 98.75V97.5227H287.773V98.75H280.773Z" fill="white"/>
<path d="M305.523 96.8672V96.7031C305.523 96.2604 305.487 95.8411 305.414 95.4453C305.341 95.0443 305.234 94.6797 305.094 94.3516C304.958 94.0599 304.802 93.7969 304.625 93.5625C304.448 93.3229 304.247 93.1198 304.023 92.9531C303.773 92.776 303.495 92.638 303.188 92.5391C302.88 92.4401 302.544 92.3906 302.18 92.3906C301.888 92.3906 301.617 92.4193 301.367 92.4766C301.117 92.5339 300.888 92.6172 300.68 92.7266C300.513 92.8151 300.357 92.9219 300.211 93.0469C300.065 93.1667 299.932 93.3021 299.812 93.4531V89H298.367V101H299.695L299.766 100.039C299.859 100.159 299.958 100.268 300.062 100.367C300.167 100.466 300.276 100.557 300.391 100.641C300.63 100.807 300.898 100.935 301.195 101.023C301.497 101.112 301.831 101.156 302.195 101.156C302.513 101.156 302.807 101.117 303.078 101.039C303.354 100.961 303.607 100.852 303.836 100.711C304.154 100.508 304.424 100.253 304.648 99.9453C304.878 99.6328 305.062 99.2812 305.203 98.8906C305.307 98.5938 305.385 98.276 305.438 97.9375C305.495 97.5938 305.523 97.237 305.523 96.8672ZM304.078 96.7031V96.8672C304.078 97.1172 304.062 97.362 304.031 97.6016C304 97.8411 303.951 98.0651 303.883 98.2734C303.799 98.5495 303.688 98.7995 303.547 99.0234C303.406 99.2474 303.232 99.4323 303.023 99.5781C302.867 99.6927 302.69 99.7812 302.492 99.8438C302.294 99.901 302.076 99.9297 301.836 99.9297C301.586 99.9297 301.357 99.8984 301.148 99.8359C300.94 99.7682 300.753 99.6745 300.586 99.5547C300.419 99.4349 300.271 99.2969 300.141 99.1406C300.016 98.9792 299.906 98.8047 299.812 98.6172V94.9219C299.901 94.7344 300.008 94.5625 300.133 94.4062C300.263 94.2448 300.411 94.1042 300.578 93.9844C300.74 93.8698 300.924 93.7812 301.133 93.7188C301.341 93.651 301.57 93.6172 301.82 93.6172C302.049 93.6172 302.258 93.6432 302.445 93.6953C302.633 93.7474 302.802 93.8203 302.953 93.9141C303.172 94.0443 303.357 94.224 303.508 94.4531C303.659 94.6823 303.781 94.9349 303.875 95.2109C303.943 95.4349 303.992 95.6745 304.023 95.9297C304.06 96.1797 304.078 96.4375 304.078 96.7031ZM313.123 101H314.631V100.875C314.538 100.641 314.465 100.367 314.413 100.055C314.36 99.737 314.334 99.4375 314.334 99.1562V95.2266C314.334 94.7526 314.248 94.3385 314.077 93.9844C313.905 93.6302 313.67 93.3333 313.373 93.0938C313.071 92.8594 312.715 92.6849 312.303 92.5703C311.892 92.4505 311.446 92.3906 310.967 92.3906C310.441 92.3906 309.97 92.4635 309.553 92.6094C309.142 92.7552 308.793 92.9453 308.506 93.1797C308.215 93.4193 307.991 93.6875 307.834 93.9844C307.683 94.2812 307.605 94.5833 307.6 94.8906H309.053C309.053 94.7135 309.095 94.5443 309.178 94.3828C309.267 94.2161 309.389 94.0729 309.545 93.9531C309.702 93.8333 309.892 93.737 310.116 93.6641C310.345 93.5911 310.603 93.5547 310.889 93.5547C311.196 93.5547 311.472 93.5938 311.717 93.6719C311.967 93.75 312.178 93.8594 312.35 94C312.522 94.1458 312.655 94.3203 312.748 94.5234C312.842 94.7266 312.889 94.9557 312.889 95.2109V95.875H311.311C310.722 95.875 310.189 95.9323 309.709 96.0469C309.235 96.1615 308.829 96.3333 308.491 96.5625C308.152 96.7969 307.889 97.0885 307.702 97.4375C307.519 97.7865 307.428 98.1927 307.428 98.6562C307.428 99.0104 307.496 99.3411 307.631 99.6484C307.772 99.9505 307.97 100.211 308.225 100.43C308.475 100.654 308.78 100.831 309.139 100.961C309.504 101.091 309.91 101.156 310.358 101.156C310.634 101.156 310.894 101.128 311.139 101.07C311.384 101.013 311.616 100.935 311.834 100.836C312.048 100.737 312.243 100.622 312.42 100.492C312.603 100.362 312.767 100.224 312.913 100.078C312.928 100.255 312.952 100.427 312.983 100.594C313.019 100.755 313.066 100.891 313.123 101ZM310.569 99.8984C310.288 99.8984 310.04 99.862 309.827 99.7891C309.613 99.7161 309.436 99.6146 309.295 99.4844C309.155 99.3594 309.048 99.2083 308.975 99.0312C308.907 98.8542 308.873 98.6615 308.873 98.4531C308.873 98.2344 308.913 98.0391 308.991 97.8672C309.074 97.6953 309.194 97.5469 309.35 97.4219C309.569 97.2448 309.863 97.1146 310.233 97.0312C310.608 96.9427 311.045 96.8984 311.545 96.8984H312.889V98.6094C312.806 98.776 312.691 98.9375 312.545 99.0938C312.399 99.2448 312.228 99.3802 312.03 99.5C311.827 99.6198 311.603 99.7161 311.358 99.7891C311.113 99.862 310.85 99.8984 310.569 99.8984ZM322.395 98.7578C322.395 98.8932 322.369 99.0208 322.317 99.1406C322.265 99.2604 322.19 99.3698 322.091 99.4688C321.929 99.6302 321.705 99.7578 321.419 99.8516C321.132 99.9401 320.796 99.9844 320.411 99.9844C320.166 99.9844 319.919 99.9583 319.669 99.9062C319.419 99.8542 319.192 99.7656 318.989 99.6406C318.781 99.5156 318.606 99.3516 318.466 99.1484C318.33 98.9453 318.252 98.6953 318.231 98.3984H316.786C316.786 98.7578 316.867 99.1042 317.028 99.4375C317.195 99.7708 317.434 100.062 317.747 100.312C318.054 100.568 318.432 100.773 318.88 100.93C319.328 101.081 319.838 101.156 320.411 101.156C320.911 101.156 321.372 101.096 321.794 100.977C322.216 100.857 322.578 100.688 322.88 100.469C323.182 100.25 323.416 99.987 323.583 99.6797C323.755 99.3724 323.841 99.0312 323.841 98.6562C323.841 98.3073 323.765 98 323.614 97.7344C323.468 97.4688 323.255 97.2344 322.973 97.0312C322.692 96.8333 322.346 96.6641 321.934 96.5234C321.523 96.3776 321.057 96.25 320.536 96.1406C320.14 96.0625 319.812 95.9818 319.552 95.8984C319.296 95.8151 319.093 95.7214 318.942 95.6172C318.786 95.513 318.677 95.3958 318.614 95.2656C318.552 95.1354 318.52 94.987 318.52 94.8203C318.52 94.6589 318.559 94.5026 318.638 94.3516C318.716 94.2005 318.833 94.0677 318.989 93.9531C319.14 93.8385 319.33 93.7474 319.559 93.6797C319.794 93.612 320.065 93.5781 320.372 93.5781C320.669 93.5781 320.934 93.6198 321.169 93.7031C321.408 93.7865 321.611 93.8958 321.778 94.0312C321.945 94.1667 322.075 94.3229 322.169 94.5C322.263 94.6719 322.309 94.849 322.309 95.0312H323.755C323.755 94.6615 323.674 94.3177 323.513 94C323.356 93.6771 323.132 93.3958 322.841 93.1562C322.549 92.9167 322.195 92.7292 321.778 92.5938C321.361 92.4583 320.893 92.3906 320.372 92.3906C319.888 92.3906 319.442 92.4557 319.036 92.5859C318.635 92.7161 318.289 92.8932 317.997 93.1172C317.705 93.3411 317.479 93.6042 317.317 93.9062C317.156 94.2031 317.075 94.5234 317.075 94.8672C317.075 95.2161 317.153 95.5234 317.309 95.7891C317.466 96.0495 317.687 96.276 317.973 96.4688C318.255 96.6667 318.593 96.8359 318.989 96.9766C319.39 97.1172 319.833 97.237 320.317 97.3359C320.713 97.4141 321.044 97.5026 321.309 97.6016C321.575 97.6953 321.789 97.7995 321.95 97.9141C322.111 98.0286 322.226 98.1562 322.294 98.2969C322.361 98.4323 322.395 98.5859 322.395 98.7578ZM329.722 101.156C330.545 101.156 331.235 100.992 331.792 100.664C332.355 100.331 332.777 99.9505 333.058 99.5234L332.175 98.8359C331.909 99.1797 331.576 99.4557 331.175 99.6641C330.774 99.8724 330.316 99.9766 329.8 99.9766C329.409 99.9766 329.053 99.9036 328.73 99.7578C328.407 99.612 328.131 99.4115 327.902 99.1562C327.678 98.9167 327.501 98.6406 327.37 98.3281C327.245 98.0156 327.165 97.6536 327.128 97.2422V97.1875H333.167V96.5391C333.167 95.9505 333.092 95.4036 332.941 94.8984C332.795 94.3932 332.571 93.9531 332.269 93.5781C331.967 93.2083 331.586 92.9193 331.128 92.7109C330.675 92.4974 330.144 92.3906 329.534 92.3906C329.05 92.3906 328.576 92.4896 328.112 92.6875C327.654 92.8854 327.245 93.1693 326.886 93.5391C326.521 93.9141 326.23 94.3724 326.011 94.9141C325.792 95.4505 325.683 96.0599 325.683 96.7422V97.0703C325.683 97.6589 325.782 98.2031 325.98 98.7031C326.178 99.2031 326.454 99.6354 326.808 100C327.162 100.365 327.586 100.648 328.081 100.852C328.581 101.055 329.128 101.156 329.722 101.156ZM329.534 93.5781C329.904 93.5781 330.222 93.6458 330.487 93.7812C330.758 93.9167 330.982 94.0938 331.159 94.3125C331.336 94.5312 331.474 94.7917 331.573 95.0938C331.672 95.3906 331.722 95.6693 331.722 95.9297V96H327.175C327.232 95.6094 327.331 95.2656 327.472 94.9688C327.618 94.6667 327.795 94.4115 328.003 94.2031C328.211 94 328.446 93.8464 328.706 93.7422C328.967 93.6328 329.243 93.5781 329.534 93.5781ZM342.338 89.625H340.939L340.916 97.3281C340.905 97.6667 340.851 97.9922 340.752 98.3047C340.653 98.6172 340.509 98.8932 340.322 99.1328C340.129 99.3776 339.892 99.5729 339.611 99.7188C339.33 99.8594 339.004 99.9297 338.634 99.9297C338.265 99.9297 337.936 99.8568 337.65 99.7109C337.369 99.5651 337.134 99.3724 336.947 99.1328C336.754 98.8932 336.606 98.6172 336.502 98.3047C336.403 97.9922 336.351 97.6667 336.345 97.3281L336.314 89.625H334.939L334.923 97.3281C334.929 97.8594 335.022 98.3594 335.205 98.8281C335.387 99.2917 335.64 99.6953 335.963 100.039C336.285 100.388 336.673 100.661 337.127 100.859C337.58 101.057 338.082 101.156 338.634 101.156C339.176 101.156 339.673 101.057 340.127 100.859C340.58 100.656 340.97 100.38 341.298 100.031C341.627 99.6875 341.884 99.2839 342.072 98.8203C342.259 98.3568 342.353 97.8594 342.353 97.3281L342.338 89.625ZM348.172 96.3594L350.406 101H351.93L351.938 100.906L349.523 96.0469C349.836 95.9115 350.122 95.7474 350.383 95.5547C350.643 95.362 350.867 95.1406 351.055 94.8906C351.242 94.6406 351.388 94.362 351.492 94.0547C351.602 93.7474 351.656 93.4089 351.656 93.0391C351.656 92.4661 351.555 91.9688 351.352 91.5469C351.154 91.1198 350.88 90.7656 350.531 90.4844C350.177 90.2031 349.766 89.9922 349.297 89.8516C348.828 89.7109 348.328 89.6354 347.797 89.625H344.461V101H345.898V96.3594H348.172ZM345.898 95.1719V90.8125H347.797C348.146 90.8177 348.466 90.8672 348.758 90.9609C349.055 91.0547 349.31 91.1927 349.523 91.375C349.737 91.5625 349.904 91.7943 350.023 92.0703C350.143 92.3411 350.203 92.6589 350.203 93.0234C350.203 93.3672 350.141 93.6719 350.016 93.9375C349.891 94.1979 349.721 94.4193 349.508 94.6016C349.289 94.7839 349.036 94.9245 348.75 95.0234C348.464 95.1172 348.159 95.1667 347.836 95.1719H345.898ZM355.248 99.7734V89.625H353.803V101H360.811V99.7734H355.248Z" fill="#13B9FD"/>
<circle cx="349" cy="167" r="26" fill="url(#paint7_linear_5214_28018)" fill-opacity="0.5"/>
<circle cx="349" cy="167" r="31.5" stroke="#FBBC04" stroke-opacity="0.15" stroke-width="11"/>
<rect x="338" y="192" width="22" height="15" fill="white"/>
<path d="M348.865 215.234C347.23 215.234 345.818 214.769 344.629 213.839C343.44 212.912 342.734 211.668 342.511 210.107H339.948C338.759 210.107 337.719 209.661 336.827 208.77C335.935 207.878 335.49 206.838 335.49 205.649V192.274C330.883 189.748 327.316 186.273 324.79 181.85C322.263 177.431 321 172.769 321 167.865C321 160.063 323.693 153.467 329.078 148.078C334.467 142.693 341.063 140 348.865 140C356.667 140 363.262 142.693 368.651 148.078C374.036 153.467 376.729 160.063 376.729 167.865C376.729 172.769 375.466 177.431 372.94 181.85C370.413 186.273 366.847 189.748 362.24 192.274V205.649C362.24 206.838 361.794 207.878 360.902 208.77C360.01 209.661 358.97 210.107 357.781 210.107H355.218C354.995 211.668 354.289 212.912 353.1 213.839C351.911 214.769 350.499 215.234 348.865 215.234ZM339.948 205.649H357.781V201.302H339.948V205.649ZM339.948 197.958H357.781V193.5H339.948V197.958ZM339.056 189.042H346.858V175.109L337.607 165.858L340.394 163.072L348.865 171.543L357.335 163.072L360.122 165.858L350.871 175.109V189.042H358.673C362.685 187.11 365.955 184.267 368.481 180.513C371.008 176.762 372.271 172.546 372.271 167.865C372.271 161.326 370.005 155.79 365.472 151.257C360.939 146.725 355.403 144.458 348.865 144.458C342.326 144.458 336.79 146.725 332.257 151.257C327.725 155.79 325.458 161.326 325.458 167.865C325.458 172.546 326.722 176.762 329.248 180.513C331.774 184.267 335.044 187.11 339.056 189.042Z" fill="#01579B"/>
<defs>
<linearGradient id="paint0_linear_5214_28018" x1="16" y1="22" x2="419.476" y2="266.376" gradientUnits="userSpaceOnUse">
<stop stop-color="#BBF5E8"/>
<stop offset="0.5" stop-color="#C1D4F2"/>
<stop offset="1" stop-color="#C6BAFA"/>
</linearGradient>
<linearGradient id="paint1_linear_5214_28018" x1="181.5" y1="272" x2="181.5" y2="328" gradientUnits="userSpaceOnUse">
<stop stop-color="#E5EEF2"/>
<stop offset="0.5" stop-color="#E5EEF2" stop-opacity="0.642031"/>
<stop offset="1" stop-color="#E5EEF2" stop-opacity="0.21"/>
</linearGradient>
<linearGradient id="paint2_linear_5214_28018" x1="181.5" y1="73" x2="181.5" y2="161" gradientUnits="userSpaceOnUse">
<stop stop-color="#E5EEF2"/>
<stop offset="0.5" stop-color="#E5EEF2" stop-opacity="0.642031"/>
<stop offset="1" stop-color="#E5EEF2" stop-opacity="0.21"/>
</linearGradient>
<linearGradient id="paint3_linear_5214_28018" x1="148" y1="167" x2="148" y2="213" gradientUnits="userSpaceOnUse">
<stop stop-color="#E5EEF2"/>
<stop offset="0.5" stop-color="#E5EEF2" stop-opacity="0.642031"/>
<stop offset="1" stop-color="#E5EEF2" stop-opacity="0.21"/>
</linearGradient>
<linearGradient id="paint4_linear_5214_28018" x1="148" y1="220" x2="148" y2="266" gradientUnits="userSpaceOnUse">
<stop stop-color="#E5EEF2"/>
<stop offset="0.5" stop-color="#E5EEF2" stop-opacity="0.642031"/>
<stop offset="1" stop-color="#E5EEF2" stop-opacity="0.21"/>
</linearGradient>
<linearGradient id="paint5_linear_5214_28018" x1="215" y1="167" x2="215" y2="213" gradientUnits="userSpaceOnUse">
<stop stop-color="#E5EEF2"/>
<stop offset="0.5" stop-color="#E5EEF2" stop-opacity="0.642031"/>
<stop offset="1" stop-color="#E5EEF2" stop-opacity="0.21"/>
</linearGradient>
<linearGradient id="paint6_linear_5214_28018" x1="215" y1="220" x2="215" y2="266" gradientUnits="userSpaceOnUse">
<stop stop-color="#E5EEF2"/>
<stop offset="0.5" stop-color="#E5EEF2" stop-opacity="0.642031"/>
<stop offset="1" stop-color="#E5EEF2" stop-opacity="0.21"/>
</linearGradient>
<linearGradient id="paint7_linear_5214_28018" x1="349" y1="141" x2="349" y2="193" gradientUnits="userSpaceOnUse">
<stop stop-color="#FBBC04"/>
<stop offset="1" stop-color="#FBBC04" stop-opacity="0"/>
</linearGradient>
</defs>
</svg>
