<?xml version="1.0" encoding="utf-8"?>
<!-- Generator: Adobe Illustrator 27.7.0, SVG Export Plug-In . SVG Version: 6.00 Build 0)  -->
<svg version="1.1" id="Layer_1" xmlns="http://www.w3.org/2000/svg" xmlns:xlink="http://www.w3.org/1999/xlink" x="0px" y="0px"
	 width="48px" height="48px" viewBox="0 0 48 48" style="enable-background:new 0 0 48 48;" xml:space="preserve">
<style type="text/css">
	.st0{fill:#027DFD;}
</style>
<path class="st0" d="M16,24.1c0,2.2,0.8,4.1,2.4,5.6s3.5,2.4,5.6,2.4s4.1-0.8,5.6-2.4s2.4-3.4,2.4-5.6s-0.8-4.1-2.4-5.6
	s-3.4-2.4-5.6-2.4s-4.1,0.8-5.6,2.4S16,21.9,16,24.1z M24,36.2c0.4,0,0.9,0,1.2-0.1c0.4,0,0.8-0.1,1.2-0.2L21.8,44
	c-5-0.6-9.2-2.7-12.6-6.5S4,29.3,4,24.1c0-1.4,0.1-2.8,0.4-4.1s0.7-2.6,1.2-3.8l8,13.9c1,1.8,2.5,3.3,4.3,4.4
	C19.7,35.6,21.8,36.2,24,36.2z M24,12.1c-2.7,0-5,0.8-7.1,2.3s-3.5,3.5-4.3,5.9l-4.7-8.1c1.8-2.5,4.1-4.4,6.9-5.9s5.8-2.2,9.2-2.2
	c3.3,0,6.3,0.7,9.1,2.2c2.8,1.5,5.1,3.4,6.9,5.8H24z M42.3,16.1c0.6,1.2,1,2.5,1.3,3.9s0.4,2.7,0.4,4.1c0,5.2-1.7,9.6-5.1,13.4
	c-3.4,3.7-7.6,5.9-12.5,6.5l8-13.9c0.5-0.9,0.9-1.8,1.2-2.8c0.3-1,0.4-2.1,0.4-3.2c0-1.6-0.3-3-0.8-4.4c-0.5-1.4-1.3-2.6-2.3-3.6
	H42.3z"/>
</svg>
