<svg xmlns="http://www.w3.org/2000/svg" xml:space="preserve" width="48" height="48" style="enable-background:new 0 0 48 48">
  <path fill="#0468d7" d="M16 24.1c0 2.2.8 4.1 2.4 5.6s3.5 2.4 5.6 2.4 4.1-.8 5.6-2.4 2.4-3.4 2.4-5.6-.8-4.1-2.4-5.6-3.4-2.4-5.6-2.4-4.1.8-5.6 2.4-2.4 3.4-2.4 5.6zm8 12.1c.4 0 .9 0 1.2-.1.4 0 .8-.1 1.2-.2L21.8 44c-5-.6-9.2-2.7-12.6-6.5S4 29.3 4 24.1c0-1.4.1-2.8.4-4.1s.7-2.6 1.2-3.8l8 13.9c1 1.8 2.5 3.3 4.3 4.4 1.8 1.1 3.9 1.7 6.1 1.7zm0-24.1c-2.7 0-5 .8-7.1 2.3s-3.5 3.5-4.3 5.9l-4.7-8.1c1.8-2.5 4.1-4.4 6.9-5.9s5.8-2.2 9.2-2.2c3.3 0 6.3.7 9.1 2.2 2.8 1.5 5.1 3.4 6.9 5.8H24zm18.3 4c.6 1.2 1 2.5 1.3 3.9s.4 2.7.4 4.1c0 5.2-1.7 9.6-5.1 13.4-3.4 3.7-7.6 5.9-12.5 6.5l8-13.9c.5-.9.9-1.8 1.2-2.8.3-1 .4-2.1.4-3.2 0-1.6-.3-3-.8-4.4-.5-1.4-1.3-2.6-2.3-3.6h9.4z"/>
</svg>
