<?xml version="1.0" encoding="UTF-8" standalone="no"?>
<!-- Generator: Adobe Illustrator 27.7.0, SVG Export Plug-In . SVG Version: 6.00 Build 0)  -->

<svg
   version="1.1"
   id="Layer_1"
   x="0px"
   y="0px"
   width="0.5in"
   height="0.5in"
   viewBox="0 0 47.998463 47.998464"
   xml:space="preserve"
   sodipodi:docname="macos-bug.svg"
   inkscape:version="1.3.2 (091e20e, 2023-11-25)"
   xmlns:inkscape="http://www.inkscape.org/namespaces/inkscape"
   xmlns:sodipodi="http://sodipodi.sourceforge.net/DTD/sodipodi-0.dtd"
   xmlns="http://www.w3.org/2000/svg"
   xmlns:svg="http://www.w3.org/2000/svg"><defs
   id="defs1" /><sodipodi:namedview
   id="namedview1"
   pagecolor="#ffffff"
   bordercolor="#000000"
   borderopacity="0.25"
   inkscape:showpageshadow="2"
   inkscape:pageopacity="0.0"
   inkscape:pagecheckerboard="0"
   inkscape:deskcolor="#d1d1d1"
   inkscape:zoom="6.2421875"
   inkscape:cx="49.341677"
   inkscape:cy="30.518148"
   inkscape:window-width="1248"
   inkscape:window-height="942"
   inkscape:window-x="0"
   inkscape:window-y="25"
   inkscape:window-maximized="0"
   inkscape:current-layer="Layer_1"
   inkscape:document-units="in" />
<style
   type="text/css"
   id="style1">
	.st0{fill:#027DFD;}
</style>
<path
   class="st0"
   d="m 36.916996,25.298993 c -0.02037,-3.743989 1.673063,-6.569826 5.100796,-8.65095 -1.9179,-2.744225 -4.815147,-4.254059 -8.640742,-4.549905 -3.621562,-0.285645 -7.57978,2.111729 -9.028404,2.111729 -1.530239,0 -5.039585,-2.009712 -7.794012,-2.009712 -5.692486,0.09181 -11.7420264,4.539704 -11.7420264,13.588512 0,2.672812 0.4896762,5.437445 1.4690288,8.283683 1.3058028,3.743989 6.0189356,12.925414 10.9360996,12.772389 2.5708,-0.06121 4.386681,-1.82608 7.732803,-1.82608 3.244103,0 4.927368,1.82608 7.794008,1.82608 4.957977,-0.0714 9.222237,-8.416308 10.466831,-12.170493 -6.651432,-3.131888 -6.294382,-9.181424 -6.294382,-9.375253 z M 31.142903,8.5479857 c 2.785034,-3.3053138 2.529992,-6.3147814 2.448376,-7.396149 -2.458582,0.1428218 -5.30482,1.6730608 -6.926874,3.5603541 -1.785279,2.0199134 -2.836041,4.5193013 -2.611606,7.3349392 2.662612,0.204031 5.090588,-1.162981 7.090104,-3.4991443 z"
   id="path1"
   style="fill:#027dfd;fill-opacity:1;stroke-width:0.102016" />
</svg>
