<?xml version="1.0" encoding="UTF-8" standalone="no"?>
<!-- Generator: Adobe Illustrator 27.7.0, SVG Export Plug-In . SVG Version: 6.00 Build 0)  -->

<svg
   version="1.1"
   id="Layer_1"
   x="0px"
   y="0px"
   width="2in"
   height="2.2in"
   viewBox="0 0 191.99386 211.19325"
   xml:space="preserve"
   sodipodi:docname="macos.svg"
   inkscape:version="1.3.2 (091e20e, 2023-11-25)"
   xmlns:inkscape="http://www.inkscape.org/namespaces/inkscape"
   xmlns:sodipodi="http://sodipodi.sourceforge.net/DTD/sodipodi-0.dtd"
   xmlns="http://www.w3.org/2000/svg"
   xmlns:svg="http://www.w3.org/2000/svg"><defs
   id="defs1" /><sodipodi:namedview
   id="namedview1"
   pagecolor="#ffffff"
   bordercolor="#000000"
   borderopacity="0.25"
   inkscape:showpageshadow="2"
   inkscape:pageopacity="0.0"
   inkscape:pagecheckerboard="0"
   inkscape:deskcolor="#d1d1d1"
   inkscape:zoom="1.5605469"
   inkscape:cx="192.2403"
   inkscape:cy="256"
   inkscape:window-width="1248"
   inkscape:window-height="942"
   inkscape:window-x="0"
   inkscape:window-y="25"
   inkscape:window-maximized="0"
   inkscape:current-layer="Layer_1"
   inkscape:document-units="in" />
<style
   type="text/css"
   id="style1">
	.st0{fill:#027DFD;}
</style>
<path
   class="st0"
   d="m 149.03327,111.47397 c -0.0857,-15.734595 7.03127,-27.610565 21.43678,-36.356775 -8.06023,-11.532972 -20.23631,-17.878252 -36.31389,-19.121587 -15.22011,-1.20046 -31.85504,8.874823 -37.943081,8.874823 -6.431036,0 -21.179533,-8.446084 -32.755385,-8.446084 -23.923438,0.385857 -49.347445,19.078718 -49.347445,57.107553 0,11.23286 2.05793,22.85159 6.173792,34.81331 5.487809,15.73459 25.295386,54.32077 45.960431,53.67767 10.804132,-0.25723 18.435619,-7.67436 32.498143,-7.67436 13.633785,0 20.707925,7.67436 32.755385,7.67436 20.83654,-0.30011 38.75768,-35.37067 43.98825,-51.14813 -27.95355,-13.16217 -26.45298,-38.58618 -26.45298,-39.40078 z M 124.76686,41.075616 C 136.47133,27.184588 135.3995,14.536895 135.0565,9.9923037 124.72399,10.59253 112.76227,17.023566 105.94537,24.955171 98.442496,33.444128 94.026526,43.948142 94.969744,55.781239 106.15973,56.638709 116.36364,50.893655 124.76686,41.075616 Z"
   id="path1"
   style="fill:#027dfd;fill-opacity:1;stroke-width:0.428736" />
</svg>
