<?xml version="1.0" encoding="utf-8"?>
<!-- Generator: Adobe Illustrator 22.0.1, SVG Export Plug-In . SVG Version: 6.00 Build 0)  -->
<svg version="1.1" id="Layer_1" xmlns="http://www.w3.org/2000/svg" xmlns:xlink="http://www.w3.org/1999/xlink" x="0px" y="0px"
	 width="567.27px" height="159px" viewBox="0 0 567.27 159" enable-background="new 0 0 567.27 159" xml:space="preserve">
<g>
	<g enable-background="new    ">
		<path fill="#FFFFFF" d="M199.42,35.51H252V45.8h-41.91v31.12h37.85v10.16h-37.85v39.37h-10.67V35.51z"/>
		<path fill="#FFFFFF" d="M264.7,35.51h10.79v90.93H264.7V35.51z"/>
		<path fill="#FFFFFF" d="M297.15,121.61c-4.11-4.57-6.16-10.96-6.16-19.18V61.67h10.79v39.12c0,6.18,1.4,10.71,4.19,13.59
			s6.56,4.32,11.3,4.32c3.64,0,6.88-0.97,9.71-2.92c2.84-1.95,5.04-4.49,6.6-7.62c1.57-3.13,2.35-6.43,2.35-9.91V61.67h10.8v64.77
			h-10.29v-9.4h-0.51c-1.78,3.22-4.62,5.93-8.51,8.13c-3.9,2.2-8.04,3.3-12.45,3.3C307.2,128.47,301.25,126.18,297.15,121.61z"/>
		<path fill="#FFFFFF" d="M380.97,127.18c-2.25-0.86-4.13-2.03-5.65-3.49c-1.7-1.64-2.96-3.53-3.81-5.69s-1.27-4.78-1.27-7.89V71.45
			h-11.3v-9.78h11.3V43.38h10.79v18.29h15.75v9.78h-15.75v36.09c0,3.64,0.68,6.32,2.03,8.05c1.61,1.91,3.94,2.86,6.99,2.86
			c2.46,0,4.83-0.72,7.11-2.16v10.54c-1.27,0.59-2.56,1.02-3.87,1.27s-2.98,0.38-5.02,0.38
			C385.64,128.47,383.21,128.04,380.97,127.18z"/>
		<path fill="#FFFFFF" d="M426.81,127.18c-2.25-0.86-4.13-2.03-5.65-3.49c-1.7-1.64-2.96-3.53-3.81-5.69s-1.27-4.78-1.27-7.89V71.45
			h-11.3v-9.78h11.3V43.38h10.79v18.29h15.75v9.78h-15.75v36.09c0,3.64,0.68,6.32,2.03,8.05c1.61,1.91,3.94,2.86,6.99,2.86
			c2.46,0,4.83-0.72,7.11-2.16v10.54c-1.27,0.59-2.56,1.02-3.87,1.27s-2.98,0.38-5.02,0.38
			C431.49,128.47,429.06,128.04,426.81,127.18z"/>
		<path fill="#FFFFFF" d="M465.11,124.02c-4.91-2.96-8.74-7.05-11.49-12.25c-2.75-5.21-4.13-11.07-4.13-17.59
			c0-6.26,1.29-12.02,3.87-17.27s6.24-9.44,10.99-12.57c4.74-3.13,10.24-4.7,16.51-4.7c6.35,0,11.85,1.42,16.51,4.25
			c4.66,2.84,8.23,6.75,10.73,11.75s3.75,10.71,3.75,17.15c0,1.27-0.13,2.37-0.38,3.3h-51.18c0.25,4.91,1.44,9.06,3.56,12.45
			s4.8,5.93,8.06,7.62c3.26,1.7,6.67,2.54,10.22,2.54c8.3,0,14.69-3.89,19.18-11.68l9.14,4.45c-2.79,5.25-6.58,9.4-11.37,12.45
			c-4.78,3.05-10.56,4.57-17.33,4.57C475.56,128.47,470.02,126.99,465.11,124.02z M500.41,87.19c-0.17-2.71-0.93-5.42-2.29-8.13
			c-1.36-2.71-3.49-4.99-6.41-6.86c-2.92-1.86-6.58-2.79-10.99-2.79c-5.08,0-9.38,1.63-12.89,4.89s-5.82,7.56-6.92,12.89H500.41z"/>
		<path fill="#FFFFFF" d="M524.41,61.67h10.29v10.41h0.51c1.27-3.56,3.72-6.52,7.37-8.89c3.64-2.37,7.45-3.56,11.43-3.56
			c2.96,0,5.5,0.47,7.62,1.4v11.56c-2.71-1.35-5.76-2.03-9.14-2.03c-3.13,0-6.01,0.89-8.64,2.67c-2.62,1.78-4.72,4.18-6.29,7.19
			s-2.35,6.26-2.35,9.74v36.28h-10.79V61.67H524.41z"/>
	</g>
	<g>
		<g>
			<g>
				<g>
					<defs>
						<path id="SVGID_1_" d="M131.51,73.51l-41.95,41.95l41.95,41.96l0,0H83.57l-17.98-17.98l0,0l-23.98-23.98l41.96-41.95
							L131.51,73.51L131.51,73.51L131.51,73.51z M83.57,1.58L5.65,79.5l23.98,23.98L131.51,1.58H83.57z"/>
					</defs>
					<clipPath id="SVGID_2_">
						<use xlink:href="#SVGID_1_"  overflow="visible"/>
					</clipPath>
					<g clip-path="url(#SVGID_2_)">
						<g>
							<polygon fill="#39CEFD" points="131.51,73.51 131.51,73.51 131.51,73.51 83.57,73.51 41.61,115.47 65.58,139.43 							"/>
						</g>
					</g>
				</g>
			</g>
			<g>
				<g>
					<defs>
						<path id="SVGID_3_" d="M131.51,73.51l-41.95,41.95l41.95,41.96l0,0H83.57l-17.98-17.98l0,0l-23.98-23.98l41.96-41.95
							L131.51,73.51L131.51,73.51L131.51,73.51z M83.57,1.58L5.65,79.5l23.98,23.98L131.51,1.58H83.57z"/>
					</defs>
					<clipPath id="SVGID_4_">
						<use xlink:href="#SVGID_3_"  overflow="visible"/>
					</clipPath>
					<polygon clip-path="url(#SVGID_4_)" fill="#39CEFD" points="29.63,103.48 5.65,79.5 83.57,1.58 131.51,1.58 					"/>
				</g>
			</g>
			<g>
				<g>
					<defs>
						<path id="SVGID_5_" d="M131.51,73.51l-41.95,41.95l41.95,41.96l0,0H83.57l-17.98-17.98l0,0l-23.98-23.98l41.96-41.95
							L131.51,73.51L131.51,73.51L131.51,73.51z M83.57,1.58L5.65,79.5l23.98,23.98L131.51,1.58H83.57z"/>
					</defs>
					<clipPath id="SVGID_6_">
						<use xlink:href="#SVGID_5_"  overflow="visible"/>
					</clipPath>
					<polygon clip-path="url(#SVGID_6_)" fill="#03569B" points="65.58,139.43 83.57,157.42 131.51,157.42 131.51,157.42 
						89.56,115.47 					"/>
				</g>
			</g>
			<g>
				<g>
					<defs>
						<path id="SVGID_7_" d="M131.51,73.51l-41.95,41.95l41.95,41.96l0,0H83.57l-17.98-17.98l0,0l-23.98-23.98l41.96-41.95
							L131.51,73.51L131.51,73.51L131.51,73.51z M83.57,1.58L5.65,79.5l23.98,23.98L131.51,1.58H83.57z"/>
					</defs>
					<clipPath id="SVGID_8_">
						<use xlink:href="#SVGID_7_"  overflow="visible"/>
					</clipPath>
					
						<linearGradient id="SVGID_9_" gradientUnits="userSpaceOnUse" x1="13607.9531" y1="7933.7598" x2="13679.3789" y2="7862.334" gradientTransform="matrix(0.25 0 0 0.25 -3329.4131 -1839.375)">
						<stop  offset="0" style="stop-color:#1A237E;stop-opacity:0.4"/>
						<stop  offset="1" style="stop-color:#1A237E;stop-opacity:0"/>
					</linearGradient>
					<polygon clip-path="url(#SVGID_8_)" fill="url(#SVGID_9_)" points="65.58,139.43 101.14,127.13 89.56,115.47 					"/>
				</g>
			</g>
			<g>
				<g>
					<defs>
						<path id="SVGID_10_" d="M131.51,73.51l-41.95,41.95l41.95,41.96l0,0H83.57l-17.98-17.98l0,0l-23.98-23.98l41.96-41.95
							L131.51,73.51L131.51,73.51L131.51,73.51z M83.57,1.58L5.65,79.5l23.98,23.98L131.51,1.58H83.57z"/>
					</defs>
					<clipPath id="SVGID_11_">
						<use xlink:href="#SVGID_10_"  overflow="visible"/>
					</clipPath>
					<g clip-path="url(#SVGID_11_)">
						
							<rect x="48.63" y="98.51" transform="matrix(0.7071 -0.7071 0.7071 0.7071 -62.4365 80.1901)" fill="#16B9FD" width="33.9" height="33.9"/>
					</g>
				</g>
			</g>
		</g>
		
			<radialGradient id="SVGID_12_" cx="13354.416" cy="7406.333" r="762.6133" gradientTransform="matrix(0.25 0 0 0.25 -3329.4131 -1839.375)" gradientUnits="userSpaceOnUse">
			<stop  offset="0" style="stop-color:#FFFFFF;stop-opacity:0.1"/>
			<stop  offset="1" style="stop-color:#FFFFFF;stop-opacity:0"/>
		</radialGradient>
		<path fill="url(#SVGID_12_)" d="M131.51,73.51l-41.95,41.95l41.95,41.96l0,0H83.57l-17.98-17.98l0,0l-23.98-23.98l41.96-41.95
			L131.51,73.51L131.51,73.51L131.51,73.51z M83.57,1.58L5.65,79.5l23.98,23.98L131.51,1.58H83.57z"/>
	</g>
</g>
</svg>
