<svg width="1563" height="815" xmlns="http://www.w3.org/2000/svg"><g stroke="#01579B" stroke-width="2" fill="none" fill-rule="evenodd" opacity=".3"><path d="M499 676l29 29-29 29-29-29z"/><g transform="matrix(1 0 0 -1 1 814)"><path d="M1152.464 94h297.978" stroke-linecap="square"/><circle cx="1087.5" cy="143.5" r="15.5"/><circle cx="988.5" cy="54.5" r="54.5"/><circle cx="78" cy="329" r="78"/></g><path d="M1313 2v123h248V2h-248z"/><path d="M1313.042 1.52l247.916 123.96M1313.042 125.48L1560.958 1.52" stroke-linecap="square"/><g transform="translate(462 74)"><circle cx="5.5" cy="5.5" r="5.5"/><circle cx="5.5" cy="51.5" r="5.5"/><circle cx="51.5" cy="28.5" r="5.5"/><circle cx="5.5" cy="74.5" r="5.5"/><circle cx="28.5" cy="5.5" r="5.5"/><circle cx="28.5" cy="51.5" r="5.5"/><circle cx="74.5" cy="28.5" r="5.5"/><circle cx="28.5" cy="74.5" r="5.5"/><circle cx="51.5" cy="5.5" r="5.5"/><circle cx="51.5" cy="51.5" r="5.5"/><circle cx="5.5" cy="28.5" r="5.5"/><circle cx="51.5" cy="74.5" r="5.5"/><circle cx="74.5" cy="5.5" r="5.5"/><circle cx="74.5" cy="51.5" r="5.5"/><circle cx="28.5" cy="28.5" r="5.5"/><circle cx="74.5" cy="74.5" r="5.5"/></g></g></svg>