<?xml version="1.0" encoding="utf-8"?>
<!-- Generator: Adobe Illustrator 28.0.0, SVG Export Plug-In . SVG Version: 6.00 Build 0)  -->
<svg version="1.1" id="Layer_1" xmlns="http://www.w3.org/2000/svg" xmlns:xlink="http://www.w3.org/1999/xlink" x="0px" y="0px"
	 viewBox="0 0 175.469 130.673" enable-background="new 0 0 175.469 130.673" xml:space="preserve">
<path fill="#EA3A41" d="M41.251,96.7l8.507-1.53v-7.957l-8.507,1.531V96.7z M8.936,94.925v16.219l10.282-1.836V93.089L8.936,94.925z
	 M118.183,98.719c0,0.245-0.061,0.429-0.245,0.674c-0.184,0.183-0.367,0.306-0.612,0.367l-6.059,1.101
	c-0.245,0.062-0.428,0-0.551-0.122c-0.122-0.122-0.245-0.306-0.245-0.551V77.972c0-0.245-0.061-0.429-0.245-0.551
	c-0.183-0.123-0.367-0.184-0.612-0.123l-8.629,1.531c-0.245,0.061-0.429,0.122-0.612,0.306c-0.184,0.183-0.245,0.367-0.245,0.612
	v22.216c0,0.551-0.306,0.918-0.857,0.98l-6.059,1.04c-0.551,0.122-0.857-0.122-0.857-0.735V73.382c0-0.551,0.306-0.918,0.857-0.98
	l19.769-3.488c0.673-0.123,1.346-0.123,1.958,0.061s1.163,0.428,1.591,0.857c0.123,0.122,0.245,0.245,0.368,0.367
	c0.244,0.306,0.489,0.673,0.673,1.04c0.306,0.612,0.428,1.286,0.428,1.959v25.521H118.183z M85.501,80.298
	c0,0.244-0.062,0.428-0.245,0.612c-0.184,0.183-0.367,0.305-0.612,0.305l-14.628,2.571c-0.122,0-0.244,0.122-0.244,0.245v4.896
	c0,0.122,0.061,0.184,0.244,0.122l12.486-2.203c0.244-0.061,0.428,0,0.612,0.123c0.183,0.122,0.244,0.306,0.244,0.55v4.529
	c0,0.551-0.306,0.918-0.856,0.98l-12.486,2.203c-0.122,0-0.244,0.122-0.244,0.245v4.896c0,0.122,0.061,0.184,0.244,0.184
	l14.628-2.571c0.245-0.061,0.428,0,0.612,0.123c0.183,0.122,0.245,0.305,0.245,0.55v5.631c0,0.245-0.062,0.428-0.245,0.673
	c-0.184,0.184-0.367,0.306-0.612,0.368l-17.443,3.06c-0.673,0.122-1.346,0.122-2.02-0.062c-0.612-0.183-1.163-0.428-1.652-0.856
	c-0.49-0.429-0.857-0.919-1.102-1.469c-0.245-0.612-0.367-1.286-0.367-1.959V83.052c0-0.735,0.122-1.408,0.367-2.142
	c0.245-0.674,0.612-1.286,1.102-1.837c0.489-0.55,1.04-1.04,1.652-1.407c0.612-0.368,1.286-0.673,2.02-0.796l17.443-3.06
	c0.245-0.061,0.428,0,0.612,0.123c0.183,0.122,0.245,0.305,0.245,0.55V80.298z M61.693,70.689c-0.551,0.122-0.857-0.123-0.857-0.735
	V40.149c0-0.551,0.306-0.918,0.857-0.98l6.059-1.04c0.551-0.122,0.857,0.122,0.857,0.734V68.73c0,0.551-0.306,0.918-0.857,0.979
	L61.693,70.689z M57.164,95.965c0,0.735-0.123,1.408-0.429,2.143c-0.306,0.673-0.612,1.285-1.101,1.836
	c-0.429,0.55-0.98,1.04-1.592,1.407s-1.285,0.673-1.958,0.796l-9.731,1.714c-0.245,0.061-0.429,0.122-0.612,0.306
	c-0.184,0.183-0.245,0.367-0.245,0.611v7.406c0,0.551-0.306,0.918-0.857,0.979l-6.059,1.041c-0.551,0.122-0.857-0.123-0.857-0.735
	V83.602c0-0.55,0.306-0.918,0.857-0.979l17.443-3.06c0.673-0.122,1.346-0.122,1.958,0.061c0.612,0.184,1.163,0.429,1.591,0.857
	c0.429,0.367,0.796,0.857,1.102,1.469c0.306,0.612,0.429,1.285,0.429,1.958v12.057H57.164z M28.215,75.707V45.902
	c0-0.551,0.306-0.918,0.857-0.98l6.059-1.04c0.551-0.123,0.857,0.122,0.857,0.734v10.099c0,0.551,0.306,0.795,0.856,0.734l8.63-1.53
	c0.245-0.061,0.428-0.183,0.551-0.367c0.122-0.184,0.245-0.429,0.245-0.673v-10.16c0-0.245,0.061-0.428,0.245-0.673
	c0.183-0.184,0.367-0.306,0.612-0.367l6.059-1.102c0.244-0.061,0.428,0,0.612,0.122c0.183,0.123,0.244,0.306,0.244,0.551v29.867
	c0,0.245-0.061,0.429-0.244,0.673c-0.184,0.184-0.368,0.306-0.612,0.368l-6.059,1.101c-0.245,0.061-0.429,0-0.612-0.122
	c-0.184-0.123-0.245-0.306-0.245-0.551V62.182c0-0.245-0.062-0.429-0.245-0.551c-0.123-0.123-0.306-0.184-0.551-0.123l-8.752,1.469
	c-0.245,0.061-0.428,0.123-0.612,0.306c-0.184,0.184-0.245,0.367-0.245,0.612V74.3c0,0.55-0.306,0.918-0.857,0.979l-6.059,1.04
	C28.46,76.564,28.215,76.319,28.215,75.707 M175.469,63.956v-8.384c0-0.674-0.123-1.286-0.368-1.836
	c-0.122-0.306-0.306-0.551-0.489-0.796c-0.062-0.061-4.468-6.243-4.529-6.304l3.733-0.673c0.245-0.061,0.428-0.123,0.551-0.306
	c0.122-0.184,0.245-0.368,0.245-0.612v-5.203c0-0.244-0.062-0.367-0.123-0.489l-11.934-17.504l-0.061-0.061
	c0.061,0.122,0.122,0.245,0.122,0.428v5.57c0,0.244-0.061,0.428-0.245,0.612c-0.183,0.183-0.367,0.306-0.612,0.306l-13.954,2.448
	c-0.245,0.061-0.428,0.183-0.551,0.367c-0.122,0.184-0.245,0.428-0.245,0.673v3.672c0,0.245,0.061,0.429,0.245,0.551
	c0.123,0.123,0.306,0.184,0.551,0.123l10.649-1.898c0.673-0.122,1.347-0.122,1.959,0.062c0.612,0.183,1.163,0.428,1.591,0.856
	c0.428,0.429,0.796,0.918,1.102,1.469c0.306,0.612,0.428,1.224,0.428,1.959v8.446c0,0.734-0.122,1.407-0.428,2.142
	c-0.306,0.673-0.612,1.346-1.102,1.897c-0.428,0.551-0.979,1.04-1.591,1.408c-0.612,0.367-1.286,0.612-1.959,0.734l-17.443,3.06
	c-0.55,0.123-0.856-0.122-0.856-0.734v-5.447c0-0.245,0.061-0.429,0.244-0.673c0.184-0.184,0.368-0.306,0.612-0.368l14.873-2.631
	c0.244-0.062,0.428-0.123,0.612-0.306c0.183-0.184,0.245-0.368,0.245-0.612v-3.673c0-0.244-0.062-0.428-0.245-0.55
	c-0.184-0.123-0.368-0.184-0.612-0.123l-10.588,1.836c-0.674,0.123-1.347,0.123-2.02-0.061c-0.612-0.184-1.163-0.428-1.653-0.857
	c-0.489-0.428-0.856-0.918-1.101-1.469c-0.245-0.612-0.367-1.224-0.367-1.958v-1.591c0-0.062-0.062-0.123-0.062-0.123l-8.14-10.098
	c0,0,0-0.062-0.061-0.062c0.061,0.123,0.123,0.245,0.123,0.368v5.936c0,0.245-0.062,0.429-0.245,0.674
	c-0.184,0.183-0.367,0.306-0.612,0.367l-14.628,2.57c-0.244,0.062-0.428,0.123-0.612,0.306c-0.183,0.184-0.244,0.368-0.244,0.613
	v14.627c0,0.245,0.061,0.428,0.244,0.551c0.184,0.122,0.368,0.183,0.612,0.122l8.63-1.53c0.245-0.061,0.428-0.122,0.551-0.306
	c0.122-0.183,0.245-0.367,0.245-0.612v-7.834c0-0.245,0.061-0.428,0.244-0.673c0.184-0.184,0.368-0.306,0.612-0.367l6.059-1.102
	c0.245-0.061,0.429,0,0.612,0.122c0.184,0.123,0.245,0.306,0.245,0.551v11.078c0,0.734-0.122,1.408-0.428,2.142
	c-0.306,0.673-0.612,1.346-1.102,1.897c-0.428,0.551-0.979,1.041-1.591,1.408s-1.285,0.612-1.959,0.734l-15.484,2.754
	c-0.673,0.123-1.346,0.123-2.019-0.061c-0.612-0.183-1.163-0.428-1.653-0.856c-0.49-0.429-0.857-0.919-1.102-1.469
	c-0.244-0.613-0.367-1.286-0.367-1.959V42.78l-7.834-8.262l-0.061-0.061c0.245,0.306,0.49,0.612,0.673,1.04
	c0.306,0.612,0.429,1.285,0.429,1.959v25.399c0,0.245-0.062,0.428-0.245,0.673c-0.184,0.184-0.367,0.306-0.612,0.367l-6.059,1.102
	c-0.245,0.061-0.429,0-0.551-0.123c-0.122-0.122-0.245-0.305-0.245-0.55V41.985c0-0.245-0.061-0.429-0.245-0.551
	c-0.183-0.123-0.367-0.184-0.612-0.123l-8.629,1.53c-0.245,0.062-0.429,0.123-0.612,0.306c-0.184,0.184-0.245,0.368-0.245,0.612
	v22.217c0,0.551-0.306,0.918-0.857,0.979l-6.059,1.041c-0.551,0.122-0.857-0.123-0.857-0.735V37.578
	c0-0.551,0.306-0.918,0.857-0.979l14.933-2.632l-6.609-6.732v-7.773c0-0.245-0.062-0.428-0.184-0.551L66.344,0.061L66.283,0
	c0.061,0.122,0.122,0.244,0.122,0.428v22.217c0,0.244,0.062,0.428,0.245,0.55c0.184,0.123,0.367,0.184,0.612,0.123l11.2-1.959
	c0.245-0.061,0.429,0,0.551,0.123c0.123,0.122,0.245,0.306,0.245,0.551v5.936c0,0.245-0.061,0.429-0.245,0.673
	c-0.122,0.184-0.306,0.306-0.551,0.368l-18.911,3.305c-0.551,0.122-0.857-0.123-0.857-0.735V20.747c0-0.061-0.061-0.122-0.061-0.122
	L41.557,4.406c-0.061,0-0.061-0.061-0.122-0.061c0.122,0.122,0.183,0.245,0.183,0.49v22.216c0,0.245,0.061,0.429,0.245,0.551
	c0.184,0.123,0.367,0.184,0.612,0.123l11.139-2.02c0.245-0.062,0.428,0,0.551,0.122c0.122,0.123,0.245,0.306,0.245,0.551v5.937
	c0,0.244-0.062,0.428-0.245,0.673c-0.123,0.184-0.306,0.306-0.551,0.367l-18.912,3.366c-0.55,0.123-0.856-0.122-0.856-0.734V15.851
	l-8.202-7.344c0,0-0.061,0-0.061-0.062c0.367,0.368,0.673,0.796,0.918,1.347c0.306,0.612,0.429,1.285,0.429,1.958v25.4
	c0,0.244-0.062,0.428-0.245,0.673c-0.184,0.184-0.367,0.306-0.612,0.367l-6.059,1.102c-0.245,0.061-0.429,0-0.612-0.123
	c-0.184-0.122-0.245-0.306-0.245-0.55V30.54c0-0.245-0.061-0.429-0.245-0.551c-0.122-0.122-0.306-0.184-0.551-0.122l-8.568,1.468
	c-0.245,0.062-0.429,0.184-0.612,0.368c-0.184,0.183-0.245,0.428-0.245,0.673v8.017c0,0.551-0.306,0.918-0.857,0.98l-6.059,1.04
	c-0.183,0.061-0.306,0-0.489-0.061c0,0.061,0.061,0.061,0.061,0.061s7.772,5.692,7.834,5.753c0.061,0.061,0.122,0,0.122,0
	l12.424-2.203c0.245-0.061,0.429,0,0.612,0.122c0.184,0.123,0.245,0.306,0.245,0.551v5.937c0,0.245-0.061,0.428-0.245,0.673
	c-0.183,0.184-0.367,0.306-0.612,0.367l-6.059,1.224c-0.245,0.061-0.428,0.123-0.612,0.306c-0.183,0.184-0.245,0.367-0.245,0.612
	v22.217c0,0.245-0.061,0.428-0.244,0.673c-0.123,0.184-0.306,0.306-0.551,0.367l-6.059,1.102c-0.123,0-0.245,0-0.368-0.061
	l8.875,5.692c0.061,0.061,0.122,0.061,0.183,0.061l4.897-0.857c0.673-0.122,1.346-0.122,1.958,0.061
	c0.612,0.184,1.163,0.429,1.591,0.857c0.429,0.367,0.796,0.857,1.102,1.469c0.306,0.612,0.428,1.285,0.428,1.958v20.993
	c0,0.734-0.122,1.407-0.428,2.142c-0.306,0.673-0.612,1.346-1.102,1.897c-0.428,0.551-0.979,1.041-1.591,1.408
	s-1.285,0.612-1.958,0.734l-15.485,2.754c-0.673,0.123-1.346,0.123-2.019-0.061c-0.245-0.061-0.551-0.183-0.796-0.306
	c0.061,0.061,21.911,11.323,21.972,11.323c0.306,0.183,0.612,0.306,0.918,0.367c0.612,0.122,1.224,0.183,1.836,0.061l14.505-2.57
	c0.673-0.123,1.285-0.368,1.836-0.735c0.612-0.367,1.102-0.795,1.53-1.346c0.429-0.551,0.735-1.102,1.041-1.775
	c0.244-0.673,0.367-1.286,0.367-1.959v-0.306l6.671,3.917c0.122,0.061,0.306,0.123,0.551,0.061l5.63-0.979
	c0.49-0.061,0.796-0.428,0.796-0.918v-6.916c0-0.244,0.061-0.428,0.245-0.612c0.122-0.183,0.306-0.244,0.551-0.306l9.119-1.591
	c0.673-0.122,1.285-0.367,1.836-0.734l0.061-0.062l0.184,0.123l9.241,6.181c0.306,0.184,0.612,0.306,0.979,0.429
	c0.613,0.122,1.225,0.183,1.837,0.061l16.341-2.877c0.244-0.061,0.428-0.122,0.551-0.306c0.122-0.183,0.244-0.367,0.244-0.612v-5.63
	l6.794,5.141c0.122,0.061,0.306,0.122,0.489,0.061l5.631-0.979c0.49-0.062,0.796-0.429,0.796-0.918v-9.303l10.221,8.507
	c0,0,3.121-0.245,3.121-1.469c0-0.734-0.245-36.844-0.245-36.844c0-1.102-0.918-1.346-0.918-1.346s6.059-1.102,13.526-2.448
	c1.958-0.123,1.408-2.693,1.408-2.693s-0.245,2.448,2.754,1.897c2.876-0.551,21.788-3.856,23.195-4.162
	C172.041,66.099,175.469,65.792,175.469,63.956 M19.279,14.994L8.997,16.83v7.957l10.282-1.836V14.994z M7.406,57.163
	c0-0.245-0.061-0.428-0.245-0.551C7.039,56.49,6.855,56.428,6.61,56.49l-6.181,1.101c-0.184,0-0.306,0-0.429-0.061
	c0,0,0,0.061,0.062,0.061l7.344,5.019V57.163z"/>
</svg>
