<?xml version="1.0" encoding="UTF-8"?>
<svg width="100px" height="17px" viewBox="0 0 100 17" version="1.1" xmlns="http://www.w3.org/2000/svg" xmlns:xlink="http://www.w3.org/1999/xlink">
    <!-- Generator: Sketch 52.3 (67297) - http://www.bohemiancoding.com/sketch -->
    <title>gitter-vector-logo</title>
    <desc>Created with Sketch.</desc>
    <g id="Page-1" stroke="none" stroke-width="1" fill="none" fill-rule="evenodd">
        <g id="Flutter_Community" transform="translate(-581.000000, -2160.000000)" fill="#4A4A4A" fill-rule="nonzero">
            <g id="Group-11" transform="translate(189.000000, 2101.000000)">
                <g id="Group-6" transform="translate(364.000000, 0.000000)">
                    <g id="Group-12">
                        <g id="gitter-vector-logo" transform="translate(28.000000, 59.000000)">
                            <path d="M0,8.45728643 C0,3.84422111 3.41666667,0 8.25,0 C11,0 12.75,0.768844221 14.4166667,2.22110553 L12.6666667,4.35678392 C11.4166667,3.24623116 10.25,2.56281407 8.16666667,2.56281407 C5.25,2.56281407 3,5.21105528 3,8.3718593 C3,11.7035176 5.16666667,14.2663317 8.41666667,14.2663317 C9.91666667,14.2663317 11.3333333,13.7537688 12.25,12.9849246 L12.25,9.90954774 L8.16666667,9.90954774 L8.16666667,7.51758794 L15,7.51758794 L15,14.4371859 C13.4166667,15.8040201 11.1666667,17 8.33333333,17 C3.25,16.9145729 0,13.241206 0,8.45728643 Z" id="XMLID_50_"></path>
                            <polygon id="XMLID_48_" points="22 1 25 1 25 17 22 17"></polygon>
                            <polygon id="XMLID_46_" points="35 3.66666667 31 3.66666667 31 1 43 1 43 3.66666667 38 3.66666667 38 17 35 17"></polygon>
                            <polygon id="XMLID_40_" points="52 3.66666667 48 3.66666667 48 1 60 1 60 3.66666667 55 3.66666667 55 17 52 17"></polygon>
                            <polygon id="XMLID_8_" points="68 1 80 1 80 3.66666667 70.6666667 3.66666667 70.6666667 7.66666667 78.6666667 7.66666667 78.6666667 10.3333333 70.6666667 10.3333333 70.6666667 14.3333333 80 14.3333333 80 17 68 17"></polygon>
                            <path d="M100,17 L95.5375,11 C97.375,10.1666667 98.6,8.41666667 98.6,6.33333333 C98.6,3.16666667 95.8875,1 92.5625,1 L86,1 L86,17 L88.8,17 L88.8,11.6666667 C88.8,11.6666667 92.5625,11.6666667 92.5625,11.6666667 L96.5875,17 L100,17 Z M88.7125,9 L88.7125,3.66666667 L92.475,3.66666667 C94.225,3.66666667 95.7125,4.66666667 95.7125,6.33333333 C95.7125,8 94.225,9 92.475,9 L88.7125,9 Z" id="XMLID_2_"></path>
                        </g>
                    </g>
                </g>
            </g>
        </g>
    </g>
</svg>