<svg width="100" height="17" xmlns="http://www.w3.org/2000/svg"><g fill="#4A4A4A" fill-rule="nonzero"><path d="M0 8.457C0 3.844 3.417 0 8.25 0c2.75 0 4.5.769 6.167 2.221l-1.75 2.136c-1.25-1.11-2.417-1.794-4.5-1.794C5.25 2.563 3 5.21 3 8.372c0 3.332 2.167 5.894 5.417 5.894 1.5 0 2.916-.512 3.833-1.281V9.91H8.167V7.518H15v6.92C13.417 15.803 11.167 17 8.333 17 3.25 16.915 0 13.241 0 8.457zM22 1h3v16h-3zM35 3.667h-4V1h12v2.667h-5V17h-3zM52 3.667h-4V1h12v2.667h-5V17h-3zM68 1h12v2.667h-9.333v4h8v2.666h-8v4H80V17H68zM100 17l-4.463-6c1.838-.833 3.063-2.583 3.063-4.667C98.6 3.167 95.888 1 92.563 1H86v16h2.8v-5.333h3.763L96.588 17H100zM88.713 9V3.667h3.762c1.75 0 3.238 1 3.238 2.666C95.713 8 94.225 9 92.475 9h-3.762z"/></g></svg>