<svg width="101" height="37" xmlns="http://www.w3.org/2000/svg"><path d="M59.51 19.439c-.138.21-.227.353-.324.492-.903 1.294-1.917 2.475-3.299 3.293-1.852 1.095-3.86 1.546-5.952 1.093-1.073-.233-2.072-.834-3.083-1.314-.233-.11-.36-.112-.568.01-.867.511-1.71 1.085-2.629 1.483-1.63.705-3.346 1.1-5.12.631-1.112-.294-2.074-.92-2.943-1.674-.616-.534-.656-.534-1.28-.02-1.124.925-2.422 1.522-3.78 2.014a21.315 21.315 0 0 1-5.197 1.163c-2.167.214-4.177-.154-5.644-1.936-1.175-1.427-1.49-3.083-.77-4.805.787-1.885 1.698-3.72 2.553-5.576.446-.967.895-1.933 1.328-2.906.08-.179.111-.387.12-.584.017-.363.09-.76-.329-.979-.428-.222-.934-.182-1.248.216a10.134 10.134 0 0 0-1.035 1.605c-.97 1.863-1.91 3.744-2.857 5.62-.71 1.406-1.407 2.819-2.124 4.222-.68 1.33-1.956 1.837-3.34 1.32-.466-.175-.758-.519-.837-1.042-.11-.742.133-1.406.396-2.07.574-1.453 1.157-2.903 1.731-4.357.308-.779.616-1.559.905-2.345.202-.55.263-1.133.027-1.673-.183-.416-.542-.717-1.047-.673-.55.05-.984.337-1.192.848-.73 1.804-1.43 3.62-2.15 5.428-.86 2.164-1.705 4.335-2.6 6.485-.332.794-.832 1.518-1.673 1.858-.426.172-.908.279-1.367.285-1.43.02-2.666-.459-3.51-1.673C0 22.912-.163 21.838.16 20.7c.3-1.052.6-2.105.914-3.153.299-.994.616-1.982.925-2.973.288-.922.558-1.851.87-2.765.616-1.8 1.113-3.652 2.088-5.302.668-1.13 1.749-1.74 2.988-2.119 1.297-.395 2.401.103 3.508.653.42.209.834.431 1.264.613.601.252 1.15.092 1.635-.303.397-.323.798-.647 1.164-1.004.915-.893 2.891-1.059 3.857-.02.222.24.485.442.73.659.506.446.715.492 1.3.162 1.39-.786 2.832-.677 4.248-.173.822.292 1.314.99 1.628 1.817.462 1.217.269 2.393-.194 3.537-.852 2.105-1.78 4.18-2.61 6.292a37.378 37.378 0 0 0-1.263 3.842 3.465 3.465 0 0 0-.01 1.689c.203.805.94 1.069 1.686 1.163 1.136.144 2.25-.067 3.339-.368.93-.256 1.844-.572 2.752-.9.438-.158.846-.401 1.264-.614.358-.18.385-.445.197-.778-.385-.68-.79-1.35-1.13-2.053-.716-1.486-1.306-3.018-1.149-4.712.138-1.483.673-2.77 2.041-3.551 2.02-1.151 3.659-.834 5.143.886 1.284 1.488 1.707 3.28 1.156 5.198-.308 1.073-.75 2.11-1.17 3.148-.117.287-.049.47.133.64a9.377 9.377 0 0 0 2.896 1.848c.405.165.834.288 1.264.375.925.185 1.784-.035 2.554-.558.367-.249.375-.48.12-.828-1.772-2.417-2.474-5.108-1.94-8.065.199-1.107.71-2.152 1.899-2.471.734-.198 1.565-.19 2.328-.092 1.241.158 2.366.653 3.128 1.722.915 1.282 1.149 2.685.755 4.218-.283 1.101-.86 2.038-1.496 2.948-.252.36-.262.693.081.934.53.371 1.066.779 1.664.994 1.298.467 2.645.426 3.953.006 1.431-.461 2.437-1.41 3.01-2.819.685-1.684.693-3.449.659-5.22-.028-1.383-.076-2.767-.117-4.151-.015-.494-.094-.523-.566-.427-1.24.25-2.488.473-3.734.7-.393.072-.79.12-1.182.191-.855.154-1.562-.198-1.61-1.199-.05-1.008-.195-2.012-.299-3.019a3.162 3.162 0 0 1-.014-.17c-.058-1.185.23-1.83 1.651-1.778 1.469.054 2.937.102 4.404.18.721.037.975-.145 1.023-.86.036-.557.052-1.113.086-1.668.053-.834.243-1.032 1.09-.999.505.02 1.014.109 1.509.22.697.157 1.062.647 1.11 1.34.04.569.023 1.141.014 1.711-.007.403.118.62.57.665 1.305.133 2.605.315 3.907.47.615.073.96.321 1.043.779.144.794-.028 1.337-.627 1.554-.838.303-1.705.535-2.571.748-.607.15-1.235.214-1.852.327-.413.076-.638.293-.634.759.015 2.297-.037 4.597.03 6.893.034 1.204.215 2.41.728 3.536.415.911 1.123 1.27 2.108 1.105 1.444-.242 2.769-.75 3.922-1.664.64-.507 1.061-1.128 1.093-1.985.058-1.568.135-3.136.227-4.703.027-.451.078-.92.229-1.342.084-.233.39-.543.604-.549 1.18-.036 2.369-.047 3.543.055.739.063 1.246.755 1.207 1.537-.053 1.095-.194 2.186-.298 3.28-.13 1.347-.248 2.697-.391 4.043-.145 1.363.945 2.04 2.024 2.053.905.01 1.439-.327 1.823-1.285.399-.991.635-2.066.807-3.126.243-1.504.358-3.03.537-4.545.073-.618.46-1.094.94-1.197.555-.12 1.284.106 1.465.613.153.425.118.943.065 1.408-.196 1.726-.48 3.443-.64 5.172-.1 1.062.495 1.818 1.527 2.132.514.156 1.047.28 1.58.34.935.108 1.597-.575 1.793-1.638.165-.894.187-1.814.267-2.723.094-1.08.108-2.173.292-3.237.272-1.575 1.29-3.003 3.174-3.462 1.132-.275 2.272-.308 3.402-.178 1.723.199 3.524 1.37 4.075 3.348.418 1.504.252 2.957-.24 4.404-.57 1.677-1.612 2.984-3.067 3.979-.134.092-.213.266-.316.402.183.08.367.234.55.23 1.738-.026 3.378-.423 4.88-1.334.338-.205.707-.36 1.065-.53.33-.157.523.028.431.311-.152.476-.336.977-.64 1.361-1.287 1.627-3.042 2.407-5.072 2.543-.861.058-1.735-.057-2.603-.105-.655-.037-1.309-.093-1.963-.138-.333-.022-.525.118-.608.461-.521 2.152-.797 4.34-1.067 6.534a35.842 35.842 0 0 1-.76 4.11c-.178.733-.75 1.238-1.544 1.366-.474.077-.824-.128-.983-.57-.134-.373-.26-.764-.291-1.154a26.969 26.969 0 0 1 .163-5.765c.13-.975.216-1.956.328-2.933.078-.68.18-1.357.245-2.039.05-.55-.075-.68-.602-.785-1.09-.217-2.18-.43-3.265-.671-.737-.164-1.312.097-1.811.605-.664.675-1.398 1.262-2.268 1.642-1.051.458-2.165.362-3.246.19-1.56-.248-2.806-1.068-3.692-2.384-.275-.408-.474-.869-.69-1.314-.12-.25-.229-.346-.52-.197-1.038.527-2.07 1.07-3.14 1.521-1.193.504-2.457.681-3.724.328-1.235-.345-2.182-1.14-2.968-2.133-.211-.267-.419-.535-.746-.953zm35.565-4.942c-.014-.17-.014-.343-.042-.51-.158-.974-1.135-1.41-1.923-.823-.356.266-.68.614-.922.987-.811 1.243-1.177 2.667-1.543 4.084a4.109 4.109 0 0 0-.15 1.097c.014.68.414.88.984.513 1.183-.763 2.059-1.822 2.798-2.998.45-.715.818-1.469.798-2.35zm-46.408.687c.01-.677-.148-1.302-.646-1.789-.276-.27-.621-.386-1.017-.263-.48.149-.74.505-.776 1.096-.07 1.146.422 2.13.929 3.098.26.5.508.483.845.022.47-.644.655-1.377.665-2.164zm-11.677-.22c-.125-.413-.208-.847-.386-1.237-.229-.497-.817-.72-1.337-.584-.551.145-.769.407-.712 1.086.05.59.186 1.18.343 1.753.116.421.293.834.503 1.218.282.518.578.523.855.022.383-.69.68-1.414.734-2.257z" fill="#F64060" fill-rule="nonzero"/></svg>