<?xml version="1.0" encoding="UTF-8"?>
<svg width="101px" height="37px" viewBox="0 0 101 37" version="1.1" xmlns="http://www.w3.org/2000/svg" xmlns:xlink="http://www.w3.org/1999/xlink">
    <!-- Generator: Sketch 52.3 (67297) - http://www.bohemiancoding.com/sketch -->
    <title>Shape</title>
    <desc>Created with Sketch.</desc>
    <g id="Page-1" stroke="none" stroke-width="1" fill="none" fill-rule="evenodd">
        <g id="Flutter_Community" transform="translate(-197.000000, -1271.000000)" fill="#F64060" fill-rule="nonzero">
            <g id="Group-16" transform="translate(80.000000, 1170.000000)">
                <path d="M176.510426,120.43855 C176.371533,120.648483 176.282859,120.79245 176.186156,120.931125 C175.282848,122.224904 174.269209,123.40616 172.887444,124.223584 C171.035322,125.31854 169.027853,125.770194 166.935442,125.316655 C165.861817,125.083724 164.862948,124.482848 163.851792,124.00343 C163.618734,123.893443 163.49135,123.890652 163.284189,124.012926 C162.416891,124.524476 161.573334,125.097878 160.65502,125.495581 C159.025101,126.201206 157.308863,126.596571 155.534977,126.127283 C154.423113,125.833116 153.461287,125.206687 152.592322,124.453163 C151.976078,123.918924 151.936498,123.919395 151.311464,124.433482 C150.187603,125.358301 148.890144,125.95461 147.532482,126.447203 C145.848358,127.058808 144.111514,127.433568 142.335109,127.609503 C140.167707,127.824094 138.157936,127.456004 136.691211,125.674325 C135.515519,124.246727 135.201108,122.590675 135.920344,120.869109 C136.70812,118.984094 137.619021,117.149805 138.474412,115.293497 C138.92043,114.326343 139.369348,113.360113 139.801955,112.387196 C139.881078,112.20847 139.913065,111.99995 139.92209,111.802667 C139.939017,111.439941 140.01283,111.042673 139.593417,110.824421 C139.164905,110.602183 138.659318,110.642252 138.345216,111.039701 C137.951446,111.536951 137.603073,112.081611 137.309993,112.644593 C136.339123,114.508096 135.399806,116.388724 134.452786,118.264442 C133.742358,119.670945 133.045558,121.0837 132.328661,122.48656 C131.64944,123.817165 130.372786,124.324129 128.989191,123.806708 C128.523165,123.631733 128.230846,123.287964 128.152321,122.765033 C128.041228,122.023126 128.284508,121.35873 128.547704,120.694587 C129.122483,119.241799 129.704711,117.791748 130.279255,116.338488 C130.586924,115.559303 130.894793,114.779465 131.18365,113.993103 C131.386008,113.443278 131.44681,112.860162 131.210762,112.320088 C131.028085,111.903682 130.668567,111.602755 130.164212,111.647446 C129.613427,111.696286 129.180113,111.98402 128.972481,112.495407 C128.241919,114.299105 127.541169,116.114655 126.822386,117.92301 C125.962682,120.087495 125.117258,122.257851 124.221688,124.407693 C123.890188,125.202156 123.390164,125.92556 122.548872,126.265596 C122.122989,126.438269 121.640816,126.545048 121.182221,126.551482 C119.751398,126.57022 118.515684,126.092216 117.671728,124.877832 C117.000644,123.912073 116.836507,122.837252 117.160849,121.700216 C117.460798,120.647613 117.760801,119.595065 118.075447,118.546612 C118.373584,117.55309 118.690513,116.564877 118.999995,115.574345 C119.288436,114.652099 119.558101,113.722875 119.870863,112.808984 C120.486382,111.009889 120.982727,109.156843 121.958163,107.506554 C122.625531,106.377364 123.706623,105.766883 124.946469,105.388173 C126.24275,104.992808 127.347002,105.49053 128.453719,106.041225 C128.873405,106.249509 129.287545,106.472255 129.718303,106.653718 C130.31927,106.90604 130.86721,106.746306 131.352626,106.350942 C131.749894,106.027542 132.150786,105.704396 132.516974,105.346781 C133.431807,104.453676 135.40807,104.28818 136.373828,105.327535 C136.596266,105.566881 136.858756,105.768786 137.104391,105.985679 C137.609942,106.432222 137.818987,106.477782 138.403915,106.147695 C139.794941,105.362276 141.235949,105.47103 142.652456,105.974515 C143.47423,106.266907 143.966134,106.965047 144.280237,107.791914 C144.742257,109.009306 144.548561,110.184817 144.085581,111.329084 C143.233923,113.434181 142.306312,115.508124 141.475296,117.621104 C140.982721,118.874597 140.566732,120.163502 140.21276,121.462645 C140.068594,121.992082 140.067651,122.619852 140.20214,123.15179 C140.405622,123.956963 141.143107,124.220775 141.889001,124.315267 C143.024877,124.459252 144.139496,124.248141 145.227728,123.947177 C146.157132,123.691158 147.072202,123.37517 147.979877,123.047149 C148.41783,122.888829 148.825972,122.645786 149.244008,122.433497 C149.601623,122.252668 149.629242,121.987914 149.440784,121.655 C149.055804,120.975598 148.650906,120.304732 148.311776,119.601952 C147.594661,118.116488 147.004586,116.583598 147.162,114.889597 C147.299515,113.406906 147.83495,112.119161 149.203015,111.33878 C151.222717,110.187608 152.86168,110.505462 154.346201,112.225378 C155.630049,113.713198 156.053431,115.504155 155.502266,117.422987 C155.193908,118.495905 154.752729,119.532977 154.331865,120.570556 C154.215409,120.857837 154.283007,121.041855 154.464759,121.211048 C155.315004,122.005257 156.28446,122.622208 157.360658,123.058748 C157.766443,123.224063 158.195426,123.347189 158.625496,123.43358 C159.550496,123.618957 160.408642,123.39882 161.179238,122.876125 C161.546186,122.627482 161.554214,122.395131 161.299627,122.048136 C159.527118,119.630658 158.825498,116.93989 159.358124,113.983099 C159.557691,112.87611 160.069748,111.830503 161.257981,111.511743 C161.992476,111.314495 162.822586,111.322832 163.586313,111.420078 C164.8275,111.577927 165.951579,112.073311 166.71411,113.141898 C167.628943,114.424097 167.862545,115.827356 167.468829,117.360246 C167.186133,118.461236 166.608599,119.397836 165.972674,120.307559 C165.720841,120.668219 165.711127,121.000643 166.054443,121.241839 C166.583137,121.61339 167.12042,122.02077 167.717872,122.235905 C169.016073,122.703036 170.363115,122.662296 171.670994,122.241903 C173.102071,121.780971 174.107609,120.831704 174.681066,119.423099 C175.365995,117.738576 175.37435,115.974131 175.339645,114.203308 C175.31208,112.819658 175.263729,111.436135 175.222717,110.052032 C175.208147,109.557808 175.128552,109.529119 174.657398,109.62497 C173.41621,109.875716 172.168752,110.097683 170.923107,110.325449 C170.530243,110.396762 170.133917,110.445131 169.741307,110.515955 C168.885535,110.669925 168.179493,110.318309 168.131123,109.317301 C168.081793,108.308501 167.935761,107.304522 167.832045,106.297987 C167.825992,106.241335 167.821352,106.184358 167.818362,106.127162 C167.76046,104.942681 168.047088,104.298419 169.469122,104.350032 C170.937659,104.404002 172.406196,104.452371 173.87292,104.529429 C174.594421,104.566943 174.848157,104.385209 174.895639,103.669253 C174.932247,103.11343 174.947741,102.557172 174.982428,102.001584 C175.034531,101.168266 175.224529,100.970312 176.071077,101.003422 C176.577153,101.023339 177.085694,101.111542 177.580662,101.22287 C178.277643,101.379595 178.642942,101.870358 178.691293,102.563623 C178.730438,103.131698 178.714019,103.704194 178.705012,104.274098 C178.697582,104.677346 178.82281,104.893786 179.27488,104.939419 C180.579805,105.072258 181.879602,105.253775 183.181754,105.40838 C183.796603,105.481559 184.141641,105.730438 184.224788,106.187584 C184.369026,106.981575 184.197422,107.525329 183.598141,107.742257 C182.759894,108.045486 181.893266,108.276515 181.026602,108.490163 C180.420108,108.639965 179.79183,108.704084 179.175405,108.817314 C178.761754,108.893013 178.53696,109.11034 178.540675,109.575659 C178.556152,111.873363 178.504086,114.17317 178.570795,116.468682 C178.605482,117.673316 178.78631,118.879599 179.299491,120.004837 C179.714048,120.91621 180.421975,121.275257 181.406527,121.110159 C182.851214,120.867804 184.17553,120.360405 185.329076,119.446278 C185.969152,118.939096 186.390197,118.318448 186.422111,117.46128 C186.479795,115.892724 186.557288,114.324658 186.649388,112.758403 C186.676046,112.306532 186.727261,111.837988 186.877897,111.416472 C186.961895,111.182635 187.268658,110.873407 187.482307,110.867136 C188.662385,110.831471 189.850509,110.819691 191.025023,110.921559 C191.763903,110.985423 192.271466,111.676677 192.232375,112.458871 C192.179421,113.55399 192.037792,114.64523 191.933586,115.738101 C191.804861,117.086485 191.686193,118.43581 191.542861,119.782381 C191.397698,121.145408 192.487923,121.821312 193.566659,121.834505 C194.471616,121.845379 195.005855,121.507662 195.390364,120.550004 C195.78852,119.558765 196.025148,118.484198 196.196861,117.424401 C196.439741,115.919781 196.554712,114.394503 196.733927,112.87939 C196.806871,112.260609 197.193156,111.784906 197.673535,111.681679 C198.228923,111.562468 198.957582,111.787752 199.139371,112.295386 C199.29191,112.719657 199.257169,113.238002 199.204069,113.703267 C199.007837,115.428801 198.724796,117.14571 198.56316,118.87467 C198.463594,119.936732 199.059015,120.692793 200.090885,121.006678 C200.605081,121.162697 201.138395,121.286076 201.670913,121.347657 C202.606117,121.454599 203.268375,120.771917 203.463737,119.708948 C203.629089,118.815191 203.651053,117.894975 203.73141,116.985976 C203.825394,115.906534 203.839022,114.813209 204.023493,113.749334 C204.294808,112.174291 205.312198,110.745551 207.197231,110.287156 C208.328704,110.011709 209.469437,109.978852 210.599134,110.10939 C212.321606,110.307526 214.123328,111.478397 214.674059,113.456943 C215.092276,114.961127 214.926073,116.414169 214.434006,117.861194 C213.864029,119.538069 212.822154,120.844843 211.367228,121.840014 C211.232902,121.931697 211.154431,122.105748 211.051204,122.241867 C211.233827,122.322658 211.418334,122.476103 211.600141,122.472877 C213.33905,122.446273 214.97901,122.048552 216.480584,121.137687 C216.819388,120.932575 217.188438,120.777227 217.546289,120.607073 C217.875071,120.45129 218.068803,120.635797 217.977338,120.919363 C217.824745,121.394613 217.64118,121.89605 217.337262,122.279997 C216.050405,123.906709 214.295095,124.686583 212.2649,124.823174 C211.403745,124.881004 210.529724,124.765979 209.662063,124.718044 C209.007163,124.681436 208.353477,124.624513 207.698614,124.580112 C207.366243,124.558347 207.174324,124.69791 207.091159,125.041444 C206.569823,127.193134 206.293941,129.381105 206.023587,131.574967 C205.852943,132.956243 205.595257,134.33288 205.264771,135.684561 C205.085791,136.417896 204.513114,136.923483 203.720246,137.051266 C203.246355,137.127617 202.895663,136.922523 202.736636,136.480836 C202.602619,136.108397 202.477427,135.717436 202.445513,135.327163 C202.289169,133.400938 202.353069,131.47937 202.608889,129.562405 C202.738557,128.58715 202.825311,127.606331 202.936693,126.628974 C203.015382,125.949119 203.117775,125.271548 203.181694,124.590297 C203.231857,124.040074 203.106629,123.910189 202.579784,123.805367 C201.490121,123.587985 200.399895,123.3743 199.314926,123.134048 C198.577839,122.970146 198.003277,123.231222 197.503707,123.739147 C196.83989,124.414398 196.106447,125.00123 195.236068,125.380628 C194.184915,125.839187 193.070749,125.742865 191.989513,125.571569 C190.42971,125.323197 189.183865,124.503073 188.298173,123.187039 C188.023088,122.778734 187.824047,122.318055 187.608513,121.872853 C187.487925,121.623575 187.37937,121.5266 187.087069,121.67566 C186.050396,122.203465 185.017583,122.745352 183.94742,123.197459 C182.755472,123.701216 181.490598,123.878238 180.22393,123.525027 C178.989158,123.180079 178.042138,122.385182 177.255794,121.391623 C177.044719,121.125364 176.837341,120.857293 176.510426,120.43855 Z M212.074738,115.497214 C212.06111,115.32639 212.06111,115.154387 212.032802,114.986336 C211.874736,114.013128 210.897578,113.577531 210.110346,114.164362 C209.754362,114.429606 209.430926,114.777979 209.188028,115.150727 C208.376964,116.394016 208.010759,117.81837 207.644554,119.234822 C207.552381,119.590625 207.488245,119.966816 207.495639,120.332061 C207.509394,121.012423 207.909417,121.212425 208.479249,120.844825 C209.661936,120.081823 210.537951,119.023493 211.277484,117.84704 C211.726873,117.132389 212.094909,116.378467 212.074738,115.497214 Z M165.666672,116.183557 C165.677056,115.507363 165.519207,114.881677 165.021232,114.395336 C164.745151,114.125852 164.399968,114.008507 164.004113,114.131905 C163.524007,114.28071 163.26449,114.636984 163.228389,115.228201 C163.158526,116.373556 163.650413,117.357655 164.156689,118.326404 C164.417365,118.825285 164.665048,118.8095 165.001822,118.348441 C165.472904,117.703726 165.656704,116.970844 165.666672,116.183557 Z M153.990416,115.964798 C153.865224,115.550622 153.782385,115.116855 153.603587,114.7268 C153.375331,114.230456 152.786942,114.007094 152.266566,114.143213 C151.715836,114.287687 151.498055,114.550177 151.555196,115.228654 C151.605432,115.819182 151.741117,116.408098 151.898259,116.981699 C152.013519,117.403269 152.191103,117.816449 152.401037,118.200487 C152.683497,118.717836 152.978625,118.722946 153.256392,118.222017 C153.639252,117.532412 153.935123,116.808138 153.990416,115.964798 Z" id="Shape"></path>
            </g>
        </g>
    </g>
</svg>