<?xml version="1.0" encoding="utf-8"?>
<!-- Generator: Adobe Illustrator 22.0.1, SVG Export Plug-In . SVG Version: 6.00 Build 0)  -->
<svg version="1.1" id="Layer_1" xmlns="http://www.w3.org/2000/svg" xmlns:xlink="http://www.w3.org/1999/xlink" x="0px" y="0px"
	 width="560px" height="156.66px" viewBox="0 0 560 156.66" enable-background="new 0 0 560 156.66" xml:space="preserve">
<g>
	<g opacity="0.54" enable-background="new    ">
		<path d="M195.67,34.33h52.6v10.3h-41.9v31.1h37.8v10.2h-37.8v39.4h-10.7V34.33z"/>
		<path d="M260.97,34.33h10.8v90.9h-10.8V34.33z"/>
		<path d="M293.47,120.43c-4.1-4.6-6.2-11-6.2-19.2v-40.8h10.8v39.1c0,6.2,1.4,10.7,4.2,13.6c2.8,2.9,6.6,4.3,11.3,4.3
			c3.6,0,6.9-1,9.7-2.9c2.8-1.9,5-4.5,6.6-7.6s2.3-6.4,2.3-9.9v-36.6h10.9v64.8h-10.3v-9.4h-0.5c-1.8,3.2-4.6,5.9-8.5,8.1
			s-8,3.3-12.4,3.3C303.47,127.33,297.57,125.03,293.47,120.43z"/>
		<path d="M377.27,126.03c-2.2-0.9-4.1-2-5.7-3.5c-1.7-1.6-3-3.5-3.8-5.7s-1.3-4.8-1.3-7.9v-38.7h-11.3v-9.8h11.3v-18.3h10.8v18.3
			h15.8v9.8h-15.7v36.1c0,3.6,0.7,6.3,2,8c1.6,1.9,3.9,2.9,7,2.9c2.5,0,4.8-0.7,7.1-2.2v10.5c-1.3,0.6-2.6,1-3.9,1.3
			c-1.3,0.3-3,0.4-5,0.4C381.97,127.33,379.47,126.83,377.27,126.03z"/>
		<path d="M423.07,126.03c-2.2-0.9-4.1-2-5.7-3.5c-1.7-1.6-3-3.5-3.8-5.7s-1.3-4.8-1.3-7.9v-38.7h-11.2v-9.8h11.3v-18.3h10.8v18.3
			h15.7v9.8h-15.7v36.1c0,3.6,0.7,6.3,2,8c1.6,1.9,3.9,2.9,7,2.9c2.5,0,4.8-0.7,7.1-2.2v10.5c-1.3,0.6-2.6,1-3.9,1.3
			c-1.3,0.3-3,0.4-5,0.4C427.77,127.33,425.37,126.83,423.07,126.03z"/>
		<path d="M461.37,122.83c-4.9-3-8.7-7-11.5-12.3c-2.8-5.2-4.1-11.1-4.1-17.6c0-6.3,1.3-12,3.9-17.3c2.6-5.2,6.2-9.4,11-12.6
			c4.7-3.1,10.2-4.7,16.5-4.7s11.9,1.4,16.5,4.3c4.7,2.8,8.2,6.8,10.7,11.7c2.5,5,3.7,10.7,3.7,17.1c0,1.3-0.1,2.4-0.4,3.3h-51.2
			c0.3,4.9,1.4,9.1,3.6,12.4c2.1,3.4,4.8,5.9,8.1,7.6c3.3,1.7,6.7,2.5,10.2,2.5c8.3,0,14.7-3.9,19.2-11.7l9.1,4.4
			c-2.8,5.2-6.6,9.4-11.4,12.4c-4.8,3-10.6,4.6-17.3,4.6C471.87,127.33,466.27,125.83,461.37,122.83z M496.67,86.03
			c-0.2-2.7-0.9-5.4-2.3-8.1c-1.4-2.7-3.5-5-6.4-6.9s-6.6-2.8-11-2.8c-5.1,0-9.4,1.6-12.9,4.9c-3.5,3.3-5.8,7.6-6.9,12.9
			L496.67,86.03L496.67,86.03z"/>
		<path d="M520.67,60.53h10.3v10.4h0.5c1.3-3.6,3.7-6.5,7.4-8.9c3.6-2.4,7.4-3.6,11.4-3.6c3,0,5.5,0.5,7.6,1.4v11.6
			c-2.7-1.4-5.8-2-9.1-2c-3.1,0-6,0.9-8.6,2.7s-4.7,4.2-6.3,7.2s-2.3,6.3-2.3,9.7v36.3h-10.8v-64.8H520.67z"/>
	</g>
	<g>
		<g>
			<g>
				<defs>
					<path id="SVGID_1_" d="M127.7,72.35L85.85,114.2l41.85,41.86l0,0H79.87l-17.94-17.94l0,0L38.01,114.2l41.86-41.85H127.7
						L127.7,72.35L127.7,72.35z M79.87,0.6L2.13,78.33l23.92,23.92L127.7,0.6H79.87z"/>
				</defs>
				<clipPath id="SVGID_2_">
					<use xlink:href="#SVGID_1_"  overflow="visible"/>
				</clipPath>
				<g clip-path="url(#SVGID_2_)">
					<g>
						<polygon fill="#39CEFD" points="127.7,72.35 127.7,72.35 127.7,72.35 79.87,72.35 38.01,114.21 61.93,138.12 						"/>
					</g>
				</g>
			</g>
			<g>
				<defs>
					<path id="SVGID_3_" d="M127.7,72.35L85.85,114.2l41.85,41.86l0,0H79.87l-17.94-17.94l0,0L38.01,114.2l41.86-41.85H127.7
						L127.7,72.35L127.7,72.35z M79.87,0.6L2.13,78.33l23.92,23.92L127.7,0.6H79.87z"/>
				</defs>
				<clipPath id="SVGID_4_">
					<use xlink:href="#SVGID_3_"  overflow="visible"/>
				</clipPath>
				<polygon clip-path="url(#SVGID_4_)" fill="#39CEFD" points="26.05,102.25 2.13,78.33 79.87,0.6 127.7,0.6 				"/>
			</g>
			<g>
				<defs>
					<path id="SVGID_5_" d="M127.7,72.35L85.85,114.2l41.85,41.86l0,0H79.87l-17.94-17.94l0,0L38.01,114.2l41.86-41.85H127.7
						L127.7,72.35L127.7,72.35z M79.87,0.6L2.13,78.33l23.92,23.92L127.7,0.6H79.87z"/>
				</defs>
				<clipPath id="SVGID_6_">
					<use xlink:href="#SVGID_5_"  overflow="visible"/>
				</clipPath>
				<polygon clip-path="url(#SVGID_6_)" fill="#03569B" points="61.93,138.12 79.87,156.06 127.7,156.06 127.7,156.06 85.85,114.21 
									"/>
			</g>
			<g>
				<defs>
					<path id="SVGID_7_" d="M127.7,72.35L85.85,114.2l41.85,41.86l0,0H79.87l-17.94-17.94l0,0L38.01,114.2l41.86-41.85H127.7
						L127.7,72.35L127.7,72.35z M79.87,0.6L2.13,78.33l23.92,23.92L127.7,0.6H79.87z"/>
				</defs>
				<clipPath id="SVGID_8_">
					<use xlink:href="#SVGID_7_"  overflow="visible"/>
				</clipPath>
				
					<linearGradient id="SVGID_9_" gradientUnits="userSpaceOnUse" x1="6959.4136" y1="-3174.3264" x2="7030.6714" y2="-3103.0686" gradientTransform="matrix(0.25 0 0 -0.25 -1670.9502 -650.8373)">
					<stop  offset="0" style="stop-color:#1A237E;stop-opacity:0.4"/>
					<stop  offset="1" style="stop-color:#1A237E;stop-opacity:0"/>
				</linearGradient>
				<polygon clip-path="url(#SVGID_8_)" fill="url(#SVGID_9_)" points="61.93,138.12 97.4,125.84 85.85,114.21 				"/>
			</g>
			<g>
				<defs>
					<path id="SVGID_10_" d="M127.7,72.35L85.85,114.2l41.85,41.86l0,0H79.87l-17.94-17.94l0,0L38.01,114.2l41.86-41.85H127.7
						L127.7,72.35L127.7,72.35z M79.87,0.6L2.13,78.33l23.92,23.92L127.7,0.6H79.87z"/>
				</defs>
				<clipPath id="SVGID_11_">
					<use xlink:href="#SVGID_10_"  overflow="visible"/>
				</clipPath>
				<g clip-path="url(#SVGID_11_)">
					
						<rect x="45.02" y="97.29" transform="matrix(0.7071 -0.7071 0.7071 0.7071 -62.6176 77.2396)" fill="#16B9FD" width="33.82" height="33.82"/>
				</g>
			</g>
		</g>
		
			<radialGradient id="SVGID_12_" cx="6706.4683" cy="-2648.1365" r="760.8189" gradientTransform="matrix(0.25 0 0 -0.25 -1670.9502 -650.8373)" gradientUnits="userSpaceOnUse">
			<stop  offset="0" style="stop-color:#FFFFFF;stop-opacity:0.1"/>
			<stop  offset="1" style="stop-color:#FFFFFF;stop-opacity:0"/>
		</radialGradient>
		<path fill="url(#SVGID_12_)" d="M127.7,72.35L85.85,114.2l41.85,41.86l0,0H79.87l-17.94-17.94l0,0L38.01,114.2l41.86-41.85H127.7
			L127.7,72.35L127.7,72.35z M79.87,0.6L2.13,78.33l23.92,23.92L127.7,0.6H79.87z"/>
	</g>
</g>
</svg>
