<svg version="1.1" viewBox="0.0 0.0 314.5774278215223 100.0" fill="none" stroke="none" stroke-linecap="square" stroke-miterlimit="10" xmlns:xlink="http://www.w3.org/1999/xlink" xmlns="http://www.w3.org/2000/svg"><clipPath id="p.0"><path d="m0 0l314.57742 0l0 100.0l-314.57742 0l0 -100.0z" clip-rule="nonzero"/></clipPath><g clip-path="url(#p.0)"><path fill="#000000" fill-opacity="0.0" d="m0 0l314.57742 0l0 100.0l-314.57742 0z" fill-rule="evenodd"/><path fill="#ffffff" d="m2.623622 1.9765543l309.94016 0l0 58.112705l-309.94016 0z" fill-rule="evenodd"/><path stroke="#b7b7b7" stroke-width="1.0" stroke-linejoin="round" stroke-linecap="butt" d="m2.623622 1.9765543l309.94016 0l0 58.112705l-309.94016 0z" fill-rule="evenodd"/><path fill="#ffffff" d="m10.183622 9.241835l189.0 0l0 43.57261l-189.0 0z" fill-rule="evenodd"/><path stroke="#b7b7b7" stroke-width="1.0" stroke-linejoin="round" stroke-linecap="butt" d="m10.183622 9.241835l189.0 0l0 43.57261l-189.0 0z" fill-rule="evenodd"/><path fill="#ffffff" d="m206.74362 9.248191l45.340164 0l0 43.57261l-45.340164 0z" fill-rule="evenodd"/><path stroke="#b7b7b7" stroke-width="1.0" stroke-linejoin="round" stroke-linecap="butt" d="m206.74362 9.248191l45.340164 0l0 43.57261l-45.340164 0z" fill-rule="evenodd"/><path fill="#ffffff" d="m259.72314 9.240245l45.34015 0l0 43.57261l-45.34015 0z" fill-rule="evenodd"/><path stroke="#b7b7b7" stroke-width="1.0" stroke-linejoin="round" stroke-linecap="butt" d="m259.72314 9.240245l45.34015 0l0 43.57261l-45.34015 0z" fill-rule="evenodd"/><path fill="#000000" d="m277.16208 33.780926l0 -0.765625l3.828125 -5.671875l1.109375 0l0 8.203125l-1.015625 0l0 -6.71875l-0.046875 0l-2.671875 4.0l4.796875 0l0 0.953125l-6.0 0zm8.964783 1.765625l0 -6.78125l-1.453125 1.03125l-0.515625 -0.78125l2.328125 -1.671875l0.65625 0l0 8.203125l-1.015625 0z" fill-rule="nonzero"/><path fill="#ffffff" d="m17.74445 17.135595l173.87009 0l0 14.540094l-173.87009 0z" fill-rule="evenodd"/><path stroke="#b7b7b7" stroke-width="1.0" stroke-linejoin="round" stroke-linecap="butt" d="m17.74445 17.135595l173.87009 0l0 14.540094l-173.87009 0z" fill-rule="evenodd"/><path fill="#000000" d="m25.103825 27.210642q-0.640625 0 -1.1875 -0.21875q-0.546875 -0.234375 -0.953125 -0.640625q-0.40625 -0.421875 -0.625 -0.953125q-0.21875 -0.546875 -0.21875 -1.171875q0 -0.625 0.21875 -1.171875q0.21875 -0.546875 0.625 -0.953125q0.40625 -0.421875 0.953125 -0.640625q0.546875 -0.234375 1.1875 -0.234375q0.640625 0 1.1875 0.234375q0.546875 0.21875 0.953125 0.640625q0.40625 0.40625 0.625 0.953125q0.234375 0.546875 0.234375 1.171875q0 0.625 -0.234375 1.171875q-0.21875 0.53125 -0.625 0.953125q-0.40625 0.40625 -0.953125 0.640625q-0.546875 0.21875 -1.1875 0.21875zm0 -1.015625q0.53125 0 0.96875 -0.25q0.4375 -0.25 0.6875 -0.6875q0.25 -0.453125 0.25 -1.03125q0 -0.59375 -0.25 -1.03125q-0.25 -0.453125 -0.6875 -0.6875q-0.4375 -0.25 -0.96875 -0.25q-0.53125 0 -0.96875 0.25q-0.421875 0.234375 -0.6875 0.6875q-0.25 0.4375 -0.25 1.03125q0 0.578125 0.25 1.03125q0.265625 0.4375 0.6875 0.6875q0.4375 0.25 0.96875 0.25zm5.702408 1.015625q-0.609375 0 -1.09375 -0.28125q-0.484375 -0.28125 -0.765625 -0.765625q-0.28125 -0.484375 -0.28125 -1.109375q0 -0.578125 0.265625 -1.078125q0.28125 -0.5 0.75 -0.796875q0.484375 -0.296875 1.09375 -0.296875q0.65625 0 1.09375 0.28125q0.453125 0.28125 0.6875 0.75q0.234375 0.453125 0.234375 1.03125q0 0.125 -0.015625 0.21875q0 0.09375 -0.015625 0.125l-3.5 0l0 -0.734375l2.515625 0q0 -0.140625 -0.078125 -0.28125q-0.078125 -0.140625 -0.203125 -0.265625q-0.125 -0.125 -0.3125 -0.203125q-0.171875 -0.078125 -0.40625 -0.078125q-0.296875 0 -0.5625 0.171875q-0.25 0.15625 -0.390625 0.4375q-0.140625 0.28125 -0.140625 0.671875q0 0.421875 0.140625 0.703125q0.15625 0.28125 0.421875 0.4375q0.265625 0.140625 0.578125 0.140625q0.375 0 0.625 -0.15625q0.265625 -0.171875 0.40625 -0.421875l0.84375 0.421875q-0.28125 0.5 -0.75 0.796875q-0.453125 0.28125 -1.140625 0.28125zm4.3765564 0q-0.53125 0 -0.90625 -0.140625q-0.359375 -0.15625 -0.59375 -0.40625q-0.234375 -0.25 -0.34375 -0.546875l0.9375 -0.40625q0.125 0.28125 0.359375 0.4375q0.234375 0.140625 0.546875 0.140625q0.25 0 0.453125 -0.078125q0.21875 -0.078125 0.21875 -0.3125q0 -0.15625 -0.109375 -0.25q-0.109375 -0.09375 -0.265625 -0.140625q-0.15625 -0.046875 -0.328125 -0.078125l-0.484375 -0.109375q-0.296875 -0.0625 -0.5625 -0.21875q-0.25 -0.171875 -0.421875 -0.421875q-0.15625 -0.25 -0.15625 -0.578125q0 -0.375 0.203125 -0.640625q0.21875 -0.28125 0.578125 -0.421875q0.359375 -0.15625 0.796875 -0.15625q0.421875 0 0.75 0.09375q0.328125 0.09375 0.5625 0.296875q0.234375 0.1875 0.390625 0.5l-0.90625 0.390625q-0.125 -0.25 -0.328125 -0.34375q-0.203125 -0.09375 -0.4375 -0.09375q-0.265625 0 -0.4375 0.109375q-0.15625 0.09375 -0.15625 0.234375q0 0.15625 0.15625 0.28125q0.171875 0.109375 0.390625 0.15625l0.59375 0.140625q0.609375 0.15625 0.921875 0.484375q0.3125 0.3125 0.3125 0.75q0 0.40625 -0.234375 0.703125q-0.234375 0.296875 -0.625 0.46875q-0.390625 0.15625 -0.875 0.15625zm4.454941 0q-0.625 0 -1.109375 -0.265625q-0.484375 -0.28125 -0.765625 -0.765625q-0.28125 -0.5 -0.28125 -1.140625q0 -0.625 0.28125 -1.109375q0.28125 -0.484375 0.765625 -0.765625q0.484375 -0.28125 1.109375 -0.28125q0.671875 0 1.15625 0.296875q0.5 0.28125 0.703125 0.8125l-0.953125 0.40625q-0.125 -0.28125 -0.359375 -0.40625q-0.234375 -0.140625 -0.546875 -0.140625q-0.3125 0 -0.5625 0.15625q-0.25 0.140625 -0.390625 0.40625q-0.140625 0.265625 -0.140625 0.625q0 0.375 0.140625 0.640625q0.140625 0.265625 0.390625 0.421875q0.25 0.140625 0.5625 0.140625q0.34375 0 0.578125 -0.15625q0.234375 -0.15625 0.375 -0.421875l0.9375 0.40625q-0.234375 0.515625 -0.734375 0.828125q-0.484375 0.3125 -1.15625 0.3125zm2.6620636 -0.125l0 -5.734375l1.046875 0l0 1.453125l-0.0625 0.71875l0.0625 0q0.171875 -0.28125 0.5 -0.453125q0.34375 -0.1875 0.734375 -0.1875q0.5 0 0.84375 0.203125q0.34375 0.203125 0.515625 0.578125q0.1875 0.375 0.1875 0.890625l0 2.53125l-1.0625 0l0 -2.40625q0 -0.28125 -0.09375 -0.453125q-0.09375 -0.1875 -0.265625 -0.28125q-0.171875 -0.09375 -0.40625 -0.09375q-0.28125 0 -0.5 0.15625q-0.21875 0.15625 -0.34375 0.421875q-0.109375 0.265625 -0.109375 0.578125l0 2.078125l-1.046875 0zm4.878433 0l0 -4.078125l1.046875 0l0 4.078125l-1.046875 0zm0.53125 -4.53125q-0.28125 0 -0.484375 -0.1875q-0.203125 -0.203125 -0.203125 -0.484375q0 -0.28125 0.203125 -0.46875q0.203125 -0.203125 0.484375 -0.203125q0.28125 0 0.46875 0.203125q0.203125 0.1875 0.203125 0.46875q0 0.28125 -0.203125 0.484375q-0.1875 0.1875 -0.46875 0.1875zm1.6062164 4.53125l0 -4.078125l0.984375 0l0 0.515625l0.0625 0q0.1875 -0.296875 0.515625 -0.46875q0.34375 -0.171875 0.734375 -0.171875q0.75 0 1.125 0.453125q0.375 0.453125 0.375 1.21875l0 2.53125l-1.046875 0l0 -2.40625q0 -0.40625 -0.203125 -0.609375q-0.203125 -0.21875 -0.5625 -0.21875q-0.28125 0 -0.5 0.15625q-0.203125 0.15625 -0.328125 0.421875q-0.109375 0.25 -0.109375 0.578125l0 2.078125l-1.046875 0zm6.698181 0.125q-0.609375 0 -1.09375 -0.28125q-0.484375 -0.28125 -0.765625 -0.765625q-0.28125 -0.484375 -0.28125 -1.109375q0 -0.578125 0.265625 -1.078125q0.28125 -0.5 0.75 -0.796875q0.484375 -0.296875 1.09375 -0.296875q0.65625 0 1.09375 0.28125q0.453125 0.28125 0.6875 0.75q0.234375 0.453125 0.234375 1.03125q0 0.125 -0.015625 0.21875q0 0.09375 -0.015625 0.125l-3.5 0l0 -0.734375l2.515625 0q0 -0.140625 -0.078125 -0.28125q-0.078125 -0.140625 -0.203125 -0.265625q-0.125 -0.125 -0.3125 -0.203125q-0.171875 -0.078125 -0.40625 -0.078125q-0.296875 0 -0.5625 0.171875q-0.25 0.15625 -0.390625 0.4375q-0.140625 0.28125 -0.140625 0.671875q0 0.421875 0.140625 0.703125q0.15625 0.28125 0.421875 0.4375q0.265625 0.140625 0.578125 0.140625q0.375 0 0.625 -0.15625q0.265625 -0.171875 0.40625 -0.421875l0.84375 0.421875q-0.28125 0.5 -0.75 0.796875q-0.453125 0.28125 -1.140625 0.28125zm2.789688 -0.125l0 -4.078125l0.984375 0l0 0.515625l0.0625 0q0.1875 -0.296875 0.515625 -0.46875q0.34375 -0.171875 0.734375 -0.171875q0.75 0 1.125 0.453125q0.375 0.453125 0.375 1.21875l0 2.53125l-1.046875 0l0 -2.40625q0 -0.40625 -0.203125 -0.609375q-0.203125 -0.21875 -0.5625 -0.21875q-0.28125 0 -0.5 0.15625q-0.203125 0.15625 -0.328125 0.421875q-0.109375 0.25 -0.109375 0.578125l0 2.078125l-1.046875 0zm6.804531 0l0 -5.734375l1.078125 0l0 4.703125l2.421875 0l0 1.03125l-3.5 0zm5.5173187 0.125q-0.4375 0 -0.78125 -0.171875q-0.328125 -0.171875 -0.515625 -0.484375q-0.1875 -0.3125 -0.1875 -0.71875q0 -0.421875 0.21875 -0.71875q0.21875 -0.3125 0.59375 -0.46875q0.375 -0.171875 0.828125 -0.171875q0.25 0 0.453125 0.03125q0.203125 0.015625 0.359375 0.0625q0.15625 0.03125 0.265625 0.078125l0 -0.171875q0 -0.328125 -0.25 -0.53125q-0.25 -0.21875 -0.671875 -0.21875q-0.296875 0 -0.5625 0.140625q-0.265625 0.125 -0.4375 0.34375l-0.671875 -0.53125q0.1875 -0.25 0.453125 -0.4375q0.265625 -0.1875 0.578125 -0.265625q0.328125 -0.09375 0.6875 -0.09375q0.9375 0 1.421875 0.4375q0.484375 0.421875 0.484375 1.25l0 2.515625l-1.03125 0l0 -0.421875l-0.0625 0q-0.109375 0.15625 -0.28125 0.28125q-0.171875 0.109375 -0.390625 0.1875q-0.21875 0.078125 -0.5 0.078125zm0.25 -0.8125q0.3125 0 0.53125 -0.140625q0.21875 -0.140625 0.328125 -0.359375q0.125 -0.234375 0.125 -0.46875q-0.171875 -0.09375 -0.40625 -0.140625q-0.21875 -0.0625 -0.453125 -0.0625q-0.453125 0 -0.640625 0.1875q-0.171875 0.171875 -0.171875 0.421875q0 0.234375 0.171875 0.40625q0.171875 0.15625 0.515625 0.15625zm2.9879456 0.6875l0 -5.734375l1.046875 0l0 5.734375l-1.046875 0zm0.609375 -0.859375l0 -1.296875l1.953125 -1.921875l1.296875 0l0 0.0625l-3.25 3.15625zm2.078125 0.859375l-1.375 -2.203125l0.71875 -0.703125l1.890625 2.84375l0 0.0625l-1.234375 0zm3.570694 0.125q-0.609375 0 -1.09375 -0.28125q-0.484375 -0.28125 -0.765625 -0.765625q-0.28125 -0.484375 -0.28125 -1.109375q0 -0.578125 0.265625 -1.078125q0.28125 -0.5 0.75 -0.796875q0.484375 -0.296875 1.09375 -0.296875q0.65625 0 1.09375 0.28125q0.453125 0.28125 0.6875 0.75q0.234375 0.453125 0.234375 1.03125q0 0.125 -0.015625 0.21875q0 0.09375 -0.015625 0.125l-3.5 0l0 -0.734375l2.515625 0q0 -0.140625 -0.078125 -0.28125q-0.078125 -0.140625 -0.203125 -0.265625q-0.125 -0.125 -0.3125 -0.203125q-0.171875 -0.078125 -0.40625 -0.078125q-0.296875 0 -0.5625 0.171875q-0.25 0.15625 -0.390625 0.4375q-0.140625 0.28125 -0.140625 0.671875q0 0.421875 0.140625 0.703125q0.15625 0.28125 0.421875 0.4375q0.265625 0.140625 0.578125 0.140625q0.375 0 0.625 -0.15625q0.265625 -0.171875 0.40625 -0.421875l0.84375 0.421875q-0.28125 0.5 -0.75 0.796875q-0.453125 0.28125 -1.140625 0.28125zm7.361038 0q-0.640625 0 -1.1875 -0.21875q-0.546875 -0.234375 -0.953125 -0.640625q-0.40625 -0.40625 -0.640625 -0.953125q-0.21875 -0.546875 -0.21875 -1.171875q0 -0.640625 0.21875 -1.171875q0.234375 -0.546875 0.640625 -0.953125q0.40625 -0.421875 0.953125 -0.640625q0.546875 -0.234375 1.1875 -0.234375q0.453125 0 0.828125 0.109375q0.390625 0.109375 0.703125 0.328125q0.328125 0.203125 0.609375 0.5l-0.765625 0.734375q-0.171875 -0.203125 -0.375 -0.34375q-0.203125 -0.140625 -0.453125 -0.21875q-0.234375 -0.078125 -0.546875 -0.078125q-0.53125 0 -0.96875 0.25q-0.4375 0.234375 -0.703125 0.671875q-0.25 0.4375 -0.25 1.046875q0 0.59375 0.25 1.03125q0.265625 0.4375 0.703125 0.6875q0.4375 0.25 0.96875 0.25q0.328125 0 0.59375 -0.09375q0.265625 -0.09375 0.5 -0.265625q0.234375 -0.171875 0.421875 -0.390625l0.765625 0.71875q-0.28125 0.34375 -0.640625 0.578125q-0.34375 0.234375 -0.765625 0.34375q-0.40625 0.125 -0.875 0.125zm4.230545 0q-0.4375 0 -0.78125 -0.171875q-0.328125 -0.171875 -0.515625 -0.484375q-0.1875 -0.3125 -0.1875 -0.71875q0 -0.421875 0.21875 -0.71875q0.21875 -0.3125 0.59375 -0.46875q0.375 -0.171875 0.828125 -0.171875q0.25 0 0.453125 0.03125q0.203125 0.015625 0.359375 0.0625q0.15625 0.03125 0.265625 0.078125l0 -0.171875q0 -0.328125 -0.25 -0.53125q-0.25 -0.21875 -0.671875 -0.21875q-0.296875 0 -0.5625 0.140625q-0.265625 0.125 -0.4375 0.34375l-0.671875 -0.53125q0.1875 -0.25 0.453125 -0.4375q0.265625 -0.1875 0.578125 -0.265625q0.328125 -0.09375 0.6875 -0.09375q0.9375 0 1.421875 0.4375q0.484375 0.421875 0.484375 1.25l0 2.515625l-1.03125 0l0 -0.421875l-0.0625 0q-0.109375 0.15625 -0.28125 0.28125q-0.171875 0.109375 -0.390625 0.1875q-0.21875 0.078125 -0.5 0.078125zm0.25 -0.8125q0.3125 0 0.53125 -0.140625q0.21875 -0.140625 0.328125 -0.359375q0.125 -0.234375 0.125 -0.46875q-0.171875 -0.09375 -0.40625 -0.140625q-0.21875 -0.0625 -0.453125 -0.0625q-0.453125 0 -0.640625 0.1875q-0.171875 0.171875 -0.171875 0.421875q0 0.234375 0.171875 0.40625q0.171875 0.15625 0.515625 0.15625zm2.9879456 0.6875l0 -4.078125l0.984375 0l0 0.515625l0.0625 0q0.125 -0.203125 0.3125 -0.34375q0.1875 -0.140625 0.421875 -0.21875q0.234375 -0.078125 0.5 -0.078125q0.453125 0 0.765625 0.203125q0.3125 0.203125 0.453125 0.515625q0.171875 -0.296875 0.515625 -0.5q0.34375 -0.21875 0.84375 -0.21875q0.71875 0 1.0625 0.4375q0.359375 0.421875 0.359375 1.140625l0 2.625l-1.03125 0l0 -2.4375q0 -0.390625 -0.1875 -0.59375q-0.1875 -0.203125 -0.5 -0.203125q-0.265625 0 -0.46875 0.15625q-0.203125 0.140625 -0.3125 0.40625q-0.109375 0.265625 -0.109375 0.609375l0 2.0625l-1.046875 0l0 -2.4375q0 -0.390625 -0.1875 -0.59375q-0.1875 -0.203125 -0.53125 -0.203125q-0.265625 0 -0.46875 0.15625q-0.1875 0.140625 -0.296875 0.40625q-0.09375 0.265625 -0.09375 0.609375l0 2.0625l-1.046875 0zm7.248657 1.734375l0 -5.8125l0.984375 0l0 0.5l0.0625 0q0.09375 -0.171875 0.265625 -0.3125q0.171875 -0.140625 0.40625 -0.21875q0.25 -0.09375 0.546875 -0.09375q0.5625 0 1.0 0.28125q0.453125 0.265625 0.703125 0.75q0.265625 0.484375 0.265625 1.125q0 0.640625 -0.265625 1.140625q-0.25 0.484375 -0.703125 0.765625q-0.4375 0.265625 -1.0 0.265625q-0.4375 0 -0.75 -0.1875q-0.3125 -0.1875 -0.46875 -0.421875l-0.0625 0l0.0625 0.578125l0 1.640625l-1.046875 0zm2.078125 -2.578125q0.296875 0 0.546875 -0.140625q0.265625 -0.15625 0.421875 -0.421875q0.15625 -0.28125 0.15625 -0.640625q0 -0.359375 -0.15625 -0.625q-0.15625 -0.265625 -0.421875 -0.40625q-0.25 -0.15625 -0.546875 -0.15625q-0.28125 0 -0.53125 0.15625q-0.25 0.140625 -0.40625 0.40625q-0.15625 0.265625 -0.15625 0.625q0 0.359375 0.15625 0.640625q0.15625 0.265625 0.40625 0.421875q0.25 0.140625 0.53125 0.140625zm4.844055 2.703125q-0.546875 0 -0.953125 -0.171875q-0.40625 -0.171875 -0.671875 -0.453125q-0.25 -0.265625 -0.34375 -0.5625l0.984375 -0.40625q0.125 0.296875 0.375 0.46875q0.265625 0.1875 0.609375 0.1875q0.484375 0 0.78125 -0.296875q0.296875 -0.296875 0.296875 -0.859375l0 -0.328125l-0.0625 0q-0.1875 0.28125 -0.5 0.421875q-0.3125 0.140625 -0.71875 0.140625q-0.484375 0 -0.921875 -0.25q-0.4375 -0.265625 -0.71875 -0.734375q-0.265625 -0.46875 -0.265625 -1.125q0 -0.65625 0.265625 -1.125q0.28125 -0.46875 0.71875 -0.71875q0.4375 -0.25 0.921875 -0.25q0.40625 0 0.71875 0.140625q0.3125 0.140625 0.5 0.421875l0.0625 0l0 -0.4375l1.015625 0l0 3.796875q0 0.65625 -0.265625 1.140625q-0.25 0.484375 -0.71875 0.734375q-0.46875 0.265625 -1.109375 0.265625zm0.015625 -2.8125q0.28125 0 0.515625 -0.125q0.25 -0.140625 0.390625 -0.390625q0.15625 -0.265625 0.15625 -0.640625q0 -0.375 -0.15625 -0.625q-0.140625 -0.265625 -0.390625 -0.390625q-0.234375 -0.125 -0.515625 -0.125q-0.28125 0 -0.53125 0.125q-0.25 0.125 -0.390625 0.390625q-0.140625 0.25 -0.140625 0.625q0 0.375 0.140625 0.640625q0.140625 0.265625 0.390625 0.390625q0.25 0.125 0.53125 0.125zm3.1013184 0.953125l0 -4.078125l0.984375 0l0 0.546875l0.0625 0q0.09375 -0.203125 0.265625 -0.34375q0.1875 -0.15625 0.40625 -0.234375q0.234375 -0.09375 0.5 -0.09375q0.15625 0 0.28125 0.03125q0.140625 0.015625 0.234375 0.0625l0 1.046875q-0.171875 -0.0625 -0.34375 -0.109375q-0.15625 -0.046875 -0.34375 -0.046875q-0.3125 0 -0.546875 0.15625q-0.21875 0.15625 -0.34375 0.421875q-0.109375 0.265625 -0.109375 0.609375l0 2.03125l-1.046875 0zm5.129074 0.125q-0.640625 0 -1.140625 -0.28125q-0.484375 -0.28125 -0.765625 -0.765625q-0.28125 -0.5 -0.28125 -1.125q0 -0.609375 0.28125 -1.09375q0.28125 -0.5 0.765625 -0.78125q0.5 -0.28125 1.140625 -0.28125q0.640625 0 1.125 0.296875q0.484375 0.28125 0.75 0.765625q0.28125 0.484375 0.28125 1.09375q0 0.625 -0.28125 1.125q-0.265625 0.484375 -0.75 0.765625q-0.484375 0.28125 -1.125 0.28125zm0 -0.96875q0.296875 0 0.546875 -0.140625q0.25 -0.140625 0.40625 -0.40625q0.15625 -0.265625 0.15625 -0.65625q0 -0.375 -0.15625 -0.625q-0.15625 -0.265625 -0.40625 -0.40625q-0.25 -0.15625 -0.546875 -0.15625q-0.296875 0 -0.5625 0.15625q-0.265625 0.140625 -0.421875 0.40625q-0.140625 0.25 -0.140625 0.625q0 0.390625 0.140625 0.65625q0.15625 0.265625 0.421875 0.40625q0.265625 0.140625 0.5625 0.140625zm4.395569 0.96875q-0.75 0 -1.125 -0.453125q-0.375 -0.46875 -0.375 -1.265625l0 -2.484375l1.046875 0l0 2.34375q0 0.421875 0.203125 0.65625q0.203125 0.234375 0.515625 0.234375q0.3125 0 0.53125 -0.15625q0.21875 -0.15625 0.328125 -0.421875q0.125 -0.265625 0.125 -0.578125l0 -2.078125l1.046875 0l0 4.078125l-0.984375 0l0 -0.515625l-0.0625 0q-0.125 0.203125 -0.3125 0.34375q-0.1875 0.140625 -0.4375 0.21875q-0.234375 0.078125 -0.5 0.078125zm3.3231812 -0.125l0 -4.078125l0.984375 0l0 0.515625l0.0625 0q0.1875 -0.296875 0.515625 -0.46875q0.34375 -0.171875 0.734375 -0.171875q0.75 0 1.125 0.453125q0.375 0.453125 0.375 1.21875l0 2.53125l-1.046875 0l0 -2.40625q0 -0.40625 -0.203125 -0.609375q-0.203125 -0.21875 -0.5625 -0.21875q-0.28125 0 -0.5 0.15625q-0.203125 0.15625 -0.328125 0.421875q-0.109375 0.25 -0.109375 0.578125l0 2.078125l-1.046875 0zm6.541931 0.125q-0.5625 0 -1.015625 -0.265625q-0.4375 -0.28125 -0.703125 -0.765625q-0.265625 -0.5 -0.265625 -1.140625q0 -0.640625 0.265625 -1.125q0.265625 -0.484375 0.703125 -0.75q0.453125 -0.28125 1.015625 -0.28125q0.296875 0 0.53125 0.09375q0.25 0.078125 0.421875 0.21875q0.171875 0.140625 0.265625 0.3125l0.0625 0l-0.0625 -0.578125l0 -1.578125l1.046875 0l0 5.734375l-0.984375 0l0 -0.484375l-0.0625 0q-0.09375 0.15625 -0.265625 0.296875q-0.171875 0.140625 -0.421875 0.21875q-0.234375 0.09375 -0.53125 0.09375zm0.171875 -0.96875q0.296875 0 0.546875 -0.140625q0.25 -0.15625 0.40625 -0.421875q0.15625 -0.28125 0.15625 -0.640625q0 -0.359375 -0.15625 -0.625q-0.15625 -0.265625 -0.40625 -0.40625q-0.25 -0.15625 -0.546875 -0.15625q-0.28125 0 -0.546875 0.15625q-0.25 0.140625 -0.40625 0.40625q-0.140625 0.265625 -0.140625 0.625q0 0.359375 0.140625 0.640625q0.15625 0.265625 0.40625 0.421875q0.265625 0.140625 0.546875 0.140625z" fill-rule="nonzero"/><path fill="#ffffff" d="m17.748583 31.67569l173.87009 0l0 14.540096l-173.87009 0z" fill-rule="evenodd"/><path stroke="#b7b7b7" stroke-width="1.0" stroke-linejoin="round" stroke-linecap="butt" d="m17.748583 31.67569l173.87009 0l0 14.540096l-173.87009 0z" fill-rule="evenodd"/><path fill="#000000" d="m22.389208 41.625736l0 -5.734375l0.671875 0l0 3.734375l0 2.0l-0.671875 0zm3.484375 0l-2.078125 -2.96875l0.453125 -0.53125l2.453125 3.46875l0 0.03125l-0.828125 0zm-3.140625 -1.28125l0 -0.984375l2.9375 -3.46875l0.875 0l0 0.03125l-3.8125 4.421875zm5.7560577 1.40625q-0.453125 0 -0.8125 -0.171875q-0.34375 -0.171875 -0.546875 -0.484375q-0.1875 -0.3125 -0.1875 -0.703125q0 -0.453125 0.234375 -0.75q0.234375 -0.3125 0.625 -0.46875q0.390625 -0.15625 0.859375 -0.15625q0.28125 0 0.515625 0.046875q0.234375 0.046875 0.40625 0.109375q0.171875 0.046875 0.25 0.109375l0 -0.25q0 -0.46875 -0.328125 -0.734375q-0.328125 -0.265625 -0.796875 -0.265625q-0.328125 0 -0.625 0.15625q-0.296875 0.140625 -0.46875 0.390625l-0.5 -0.375q0.15625 -0.234375 0.390625 -0.40625q0.25 -0.1875 0.546875 -0.28125q0.3125 -0.09375 0.65625 -0.09375q0.828125 0 1.296875 0.4375q0.484375 0.4375 0.484375 1.1875l0 2.578125l-0.65625 0l0 -0.578125l-0.03125 0q-0.09375 0.171875 -0.296875 0.34375q-0.1875 0.15625 -0.453125 0.25q-0.25 0.109375 -0.5625 0.109375zm0.0625 -0.59375q0.34375 0 0.640625 -0.171875q0.296875 -0.1875 0.46875 -0.484375q0.171875 -0.296875 0.171875 -0.640625q-0.1875 -0.125 -0.46875 -0.203125q-0.265625 -0.09375 -0.59375 -0.09375q-0.578125 0 -0.859375 0.25q-0.265625 0.234375 -0.265625 0.59375q0 0.328125 0.25 0.546875q0.265625 0.203125 0.65625 0.203125zm2.87294 0.46875l0 -4.078125l0.6562481 0l0 0.59375l0.03125 0q0.15625 -0.296875 0.515625 -0.5q0.375 -0.21875 0.796875 -0.21875q0.75 0 1.125 0.4375q0.390625 0.421875 0.390625 1.15625l0 2.609375l-0.671875 0l0 -2.515625q0 -0.59375 -0.296875 -0.828125q-0.28125 -0.25 -0.734375 -0.25q-0.328125 0 -0.59375 0.1875q-0.25 0.1875 -0.390625 0.484375q-0.140625 0.296875 -0.140625 0.625l0 2.296875l-0.6874981 0zm6.2223186 0.125q-0.546875 0 -1.0 -0.28125q-0.4375 -0.28125 -0.703125 -0.765625q-0.25 -0.484375 -0.25 -1.125q0 -0.625 0.25 -1.109375q0.265625 -0.484375 0.703125 -0.765625q0.453125 -0.28125 1.0 -0.28125q0.328125 0 0.59375 0.109375q0.28125 0.09375 0.484375 0.265625q0.203125 0.171875 0.3125 0.359375l0.03125 0l-0.03125 -0.578125l0 -1.6875l0.6875 0l0 5.734375l-0.65625 0l0 -0.59375l-0.03125 0q-0.109375 0.171875 -0.3125 0.34375q-0.203125 0.171875 -0.484375 0.265625q-0.265625 0.109375 -0.59375 0.109375zm0.078125 -0.609375q0.34375 0 0.65625 -0.1875q0.3125 -0.1875 0.5 -0.53125q0.1875 -0.359375 0.1875 -0.84375q0 -0.46875 -0.1875 -0.8125q-0.1875 -0.359375 -0.5 -0.546875q-0.3125 -0.1875 -0.65625 -0.1875q-0.359375 0 -0.671875 0.1875q-0.296875 0.1875 -0.5 0.546875q-0.1875 0.34375 -0.1875 0.8125q0 0.484375 0.1875 0.84375q0.203125 0.34375 0.5 0.53125q0.3125 0.1875 0.671875 0.1875zm4.77594 0.609375q-0.578125 0 -1.046875 -0.28125q-0.453125 -0.28125 -0.71875 -0.765625q-0.265625 -0.484375 -0.265625 -1.109375q0 -0.578125 0.25 -1.078125q0.25 -0.5 0.6875 -0.796875q0.4375 -0.296875 1.046875 -0.296875q0.609375 0 1.046875 0.265625q0.4375 0.265625 0.671875 0.734375q0.234375 0.46875 0.234375 1.078125q0 0.0625 -0.015625 0.125q0 0.046875 0 0.09375l-3.515625 0l0 -0.5625l2.8125 0q-0.015625 -0.171875 -0.078125 -0.359375q-0.0625 -0.203125 -0.21875 -0.375q-0.140625 -0.171875 -0.375 -0.28125q-0.234375 -0.109375 -0.5625 -0.109375q-0.40625 0 -0.703125 0.203125q-0.28125 0.203125 -0.4375 0.5625q-0.15625 0.34375 -0.15625 0.796875q0 0.515625 0.203125 0.859375q0.203125 0.34375 0.515625 0.515625q0.3125 0.171875 0.65625 0.171875q0.453125 0 0.734375 -0.203125q0.296875 -0.21875 0.46875 -0.53125l0.578125 0.28125q-0.234375 0.453125 -0.6875 0.765625q-0.453125 0.296875 -1.125 0.296875zm2.6914368 -0.125l0 -4.078125l0.65625 0l0 0.65625l0.03125 0q0.078125 -0.234375 0.265625 -0.40625q0.1875 -0.171875 0.421875 -0.265625q0.25 -0.109375 0.5 -0.109375q0.171875 0 0.28125 0.03125q0.109375 0.015625 0.1875 0.046875l0 0.734375q-0.125 -0.0625 -0.28125 -0.09375q-0.140625 -0.03125 -0.296875 -0.03125q-0.296875 0 -0.546875 0.171875q-0.234375 0.171875 -0.390625 0.453125q-0.140625 0.28125 -0.140625 0.609375l0 2.28125l-0.6875 0zm4.2618256 0.125q-0.453125 0 -0.796875 -0.140625q-0.34375 -0.15625 -0.578125 -0.40625q-0.234375 -0.25 -0.34375 -0.546875l0.609375 -0.265625q0.15625 0.359375 0.453125 0.5625q0.3125 0.203125 0.703125 0.203125q0.390625 0 0.640625 -0.15625q0.25 -0.15625 0.25 -0.453125q0 -0.171875 -0.109375 -0.296875q-0.109375 -0.125 -0.3125 -0.21875q-0.1875 -0.09375 -0.484375 -0.15625l-0.484375 -0.125q-0.296875 -0.078125 -0.5625 -0.21875q-0.25 -0.15625 -0.40625 -0.375q-0.140625 -0.234375 -0.140625 -0.5625q0 -0.375 0.203125 -0.625q0.21875 -0.265625 0.5625 -0.40625q0.359375 -0.140625 0.765625 -0.140625q0.34375 0 0.65625 0.09375q0.3125 0.09375 0.53125 0.296875q0.234375 0.203125 0.359375 0.484375l-0.59375 0.265625q-0.140625 -0.296875 -0.40625 -0.40625q-0.25 -0.125 -0.5625 -0.125q-0.34375 0 -0.59375 0.15625q-0.234375 0.140625 -0.234375 0.390625q0 0.25 0.203125 0.390625q0.203125 0.125 0.5 0.203125l0.59375 0.15625q0.59375 0.140625 0.890625 0.453125q0.3125 0.296875 0.3125 0.71875q0 0.390625 -0.21875 0.671875q-0.21875 0.28125 -0.59375 0.4375q-0.359375 0.140625 -0.8125 0.140625zm2.0408325 -4.203125l2.390625 0l0 0.609375l-2.390625 0l0 -0.609375zm0.71875 3.0l0 -4.15625l0.671875 0l0 4.0q0 0.3125 0.125 0.5q0.140625 0.171875 0.453125 0.171875q0.125 0 0.234375 -0.03125q0.125 -0.046875 0.203125 -0.109375l0 0.65625q-0.09375 0.0625 -0.21875 0.078125q-0.125 0.03125 -0.328125 0.03125q-0.515625 0 -0.828125 -0.296875q-0.3125 -0.296875 -0.3125 -0.84375zm4.118973 1.203125q-0.578125 0 -1.046875 -0.28125q-0.453125 -0.28125 -0.71875 -0.765625q-0.265625 -0.484375 -0.265625 -1.109375q0 -0.578125 0.25 -1.078125q0.25 -0.5 0.6875 -0.796875q0.4375 -0.296875 1.046875 -0.296875q0.609375 0 1.046875 0.265625q0.4375 0.265625 0.671875 0.734375q0.234375 0.46875 0.234375 1.078125q0 0.0625 -0.015625 0.125q0 0.046875 0 0.09375l-3.515625 0l0 -0.5625l2.8125 0q-0.015625 -0.171875 -0.078125 -0.359375q-0.0625 -0.203125 -0.21875 -0.375q-0.140625 -0.171875 -0.375 -0.28125q-0.234375 -0.109375 -0.5625 -0.109375q-0.40625 0 -0.703125 0.203125q-0.28125 0.203125 -0.4375 0.5625q-0.15625 0.34375 -0.15625 0.796875q0 0.515625 0.203125 0.859375q0.203125 0.34375 0.515625 0.515625q0.3125 0.171875 0.65625 0.171875q0.453125 0 0.734375 -0.203125q0.296875 -0.21875 0.46875 -0.53125l0.578125 0.28125q-0.234375 0.453125 -0.6875 0.765625q-0.453125 0.296875 -1.125 0.296875zm4.528305 1.734375q-0.515625 0 -0.890625 -0.171875q-0.375 -0.171875 -0.609375 -0.4375q-0.21875 -0.265625 -0.3125 -0.53125l0.625 -0.265625q0.125 0.328125 0.421875 0.546875q0.3125 0.234375 0.765625 0.234375q0.640625 0 0.984375 -0.375q0.34375 -0.359375 0.34375 -1.03125l0 -0.453125l-0.03125 0q-0.1875 0.296875 -0.546875 0.5q-0.359375 0.203125 -0.84375 0.203125q-0.53125 0 -0.96875 -0.265625q-0.4375 -0.28125 -0.703125 -0.765625q-0.25 -0.484375 -0.25 -1.109375q0 -0.640625 0.25 -1.109375q0.265625 -0.484375 0.703125 -0.75q0.4375 -0.28125 0.96875 -0.28125q0.484375 0 0.84375 0.203125q0.359375 0.203125 0.546875 0.5l0.03125 0l0 -0.578125l0.640625 0l0 3.921875q0 0.671875 -0.265625 1.125q-0.25 0.453125 -0.703125 0.671875q-0.4375 0.21875 -1.0 0.21875zm0 -2.390625q0.359375 0 0.65625 -0.171875q0.3125 -0.1875 0.484375 -0.53125q0.1875 -0.34375 0.1875 -0.828125q0 -0.5 -0.1875 -0.828125q-0.171875 -0.34375 -0.484375 -0.515625q-0.296875 -0.1875 -0.65625 -0.1875q-0.359375 0 -0.671875 0.1875q-0.296875 0.171875 -0.484375 0.515625q-0.1875 0.34375 -0.1875 0.828125q0 0.484375 0.1875 0.828125q0.1875 0.34375 0.484375 0.53125q0.3125 0.171875 0.671875 0.171875zm3.21344 1.40625l-0.328125 -0.21875l0.4375 -0.65625q-0.125 -0.03125 -0.25 -0.140625q-0.125 -0.125 -0.125 -0.328125q0 -0.203125 0.140625 -0.34375q0.15625 -0.15625 0.359375 -0.15625q0.125 0 0.203125 0.046875q0.09375 0.03125 0.15625 0.109375q0.078125 0.0625 0.109375 0.15625q0.046875 0.09375 0.046875 0.1875q0 0.09375 -0.03125 0.1875q-0.03125 0.09375 -0.078125 0.1875q-0.046875 0.078125 -0.109375 0.171875l-0.53125 0.796875zm5.019943 -0.75q-0.40625 0 -0.8125 -0.171875q-0.40625 -0.171875 -0.71875 -0.515625q-0.3125 -0.34375 -0.46875 -0.859375l0.65625 -0.265625q0.140625 0.5 0.5 0.84375q0.359375 0.328125 0.859375 0.328125q0.328125 0 0.59375 -0.109375q0.265625 -0.125 0.421875 -0.34375q0.171875 -0.234375 0.171875 -0.546875q0 -0.296875 -0.140625 -0.484375q-0.140625 -0.203125 -0.421875 -0.359375q-0.28125 -0.15625 -0.6875 -0.296875l-0.359375 -0.140625q-0.234375 -0.078125 -0.484375 -0.203125q-0.234375 -0.125 -0.4375 -0.296875q-0.203125 -0.1875 -0.328125 -0.4375q-0.125 -0.25 -0.125 -0.609375q0 -0.40625 0.21875 -0.75q0.234375 -0.34375 0.625 -0.546875q0.390625 -0.21875 0.90625 -0.21875q0.53125 0 0.890625 0.203125q0.375 0.1875 0.578125 0.46875q0.21875 0.265625 0.28125 0.484375l-0.625 0.265625q-0.046875 -0.15625 -0.1875 -0.328125q-0.125 -0.1875 -0.359375 -0.3125q-0.234375 -0.125 -0.578125 -0.125q-0.28125 0 -0.53125 0.109375q-0.234375 0.109375 -0.390625 0.3125q-0.140625 0.1875 -0.140625 0.4375q0 0.375 0.28125 0.578125q0.296875 0.203125 0.78125 0.375l0.375 0.125q0.265625 0.09375 0.53125 0.21875q0.265625 0.125 0.5 0.328125q0.234375 0.203125 0.375 0.5q0.140625 0.28125 0.140625 0.6875q0 0.4375 -0.171875 0.765625q-0.171875 0.3125 -0.453125 0.515625q-0.28125 0.1875 -0.609375 0.28125q-0.328125 0.09375 -0.65625 0.09375zm3.5565643 -0.125l-1.3125 -4.078125l0.703125 0l0.96875 3.21875l0 0l1.03125 -3.21875l0.703125 0l1.03125 3.21875l0 0l0.96875 -3.21875l0.6875 0l-1.3125 4.078125l-0.6875 0l-1.0625 -3.25l0 0l-1.046875 3.25l-0.671875 0zm5.403427 0l0 -4.078125l0.6875 0l0 4.078125l-0.6875 0zm0.34375 -4.828125q-0.203125 0 -0.34375 -0.140625q-0.140625 -0.15625 -0.140625 -0.34375q0 -0.21875 0.140625 -0.359375q0.140625 -0.140625 0.34375 -0.140625q0.203125 0 0.34375 0.140625q0.140625 0.140625 0.140625 0.359375q0 0.1875 -0.140625 0.34375q-0.140625 0.140625 -0.34375 0.140625zm1.0804901 0.75l2.390625 0l0 0.609375l-2.390625 0l0 -0.609375zm0.71875 3.0l0 -4.15625l0.671875 0l0 4.0q0 0.3125 0.125 0.5q0.140625 0.171875 0.453125 0.171875q0.125 0 0.234375 -0.03125q0.125 -0.046875 0.203125 -0.109375l0 0.65625q-0.09375 0.0625 -0.21875 0.078125q-0.125 0.03125 -0.328125 0.03125q-0.515625 0 -0.828125 -0.296875q-0.3125 -0.296875 -0.3125 -0.84375zm2.3593445 1.078125l0 -0.578125l2.40625 -2.890625l-2.328125 0l0 -0.609375l3.15625 0l0 0.578125l-2.40625 2.890625l2.46875 0l0 0.609375l-3.296875 0zm5.8315735 0.125q-0.578125 0 -1.046875 -0.28125q-0.453125 -0.28125 -0.71875 -0.765625q-0.265625 -0.484375 -0.265625 -1.109375q0 -0.578125 0.25 -1.078125q0.25 -0.5 0.6875 -0.796875q0.4375 -0.296875 1.046875 -0.296875q0.609375 0 1.046875 0.265625q0.4375 0.265625 0.671875 0.734375q0.234375 0.46875 0.234375 1.078125q0 0.0625 -0.015625 0.125q0 0.046875 0 0.09375l-3.515625 0l0 -0.5625l2.8125 0q-0.015625 -0.171875 -0.078125 -0.359375q-0.0625 -0.203125 -0.21875 -0.375q-0.140625 -0.171875 -0.375 -0.28125q-0.234375 -0.109375 -0.5625 -0.109375q-0.40625 0 -0.703125 0.203125q-0.28125 0.203125 -0.4375 0.5625q-0.15625 0.34375 -0.15625 0.796875q0 0.515625 0.203125 0.859375q0.203125 0.34375 0.515625 0.515625q0.3125 0.171875 0.65625 0.171875q0.453125 0 0.734375 -0.203125q0.296875 -0.21875 0.46875 -0.53125l0.578125 0.28125q-0.234375 0.453125 -0.6875 0.765625q-0.453125 0.296875 -1.125 0.296875zm2.6914368 -0.125l0 -4.078125l0.65625 0l0 0.65625l0.03125 0q0.078125 -0.234375 0.265625 -0.40625q0.1875 -0.171875 0.421875 -0.265625q0.25 -0.109375 0.5 -0.109375q0.171875 0 0.28125 0.03125q0.109375 0.015625 0.1875 0.046875l0 0.734375q-0.125 -0.0625 -0.28125 -0.09375q-0.140625 -0.03125 -0.296875 -0.03125q-0.296875 0 -0.546875 0.171875q-0.234375 0.171875 -0.390625 0.453125q-0.140625 0.28125 -0.140625 0.609375l0 2.28125l-0.6875 0zm3.0399475 0l0 -5.734375l0.6875 0l0 5.734375l-0.6875 0zm2.9604797 0.125q-0.453125 0 -0.8125 -0.171875q-0.34375 -0.171875 -0.546875 -0.484375q-0.1875 -0.3125 -0.1875 -0.703125q0 -0.453125 0.234375 -0.75q0.234375 -0.3125 0.625 -0.46875q0.390625 -0.15625 0.859375 -0.15625q0.28125 0 0.515625 0.046875q0.234375 0.046875 0.40625 0.109375q0.171875 0.046875 0.25 0.109375l0 -0.25q0 -0.46875 -0.328125 -0.734375q-0.328125 -0.265625 -0.796875 -0.265625q-0.328125 0 -0.625 0.15625q-0.296875 0.140625 -0.46875 0.390625l-0.5 -0.375q0.15625 -0.234375 0.390625 -0.40625q0.25 -0.1875 0.546875 -0.28125q0.3125 -0.09375 0.65625 -0.09375q0.828125 0 1.296875 0.4375q0.484375 0.4375 0.484375 1.1875l0 2.578125l-0.65625 0l0 -0.578125l-0.03125 0q-0.09375 0.171875 -0.296875 0.34375q-0.1875 0.15625 -0.453125 0.25q-0.25 0.109375 -0.5625 0.109375zm0.0625 -0.59375q0.34375 0 0.640625 -0.171875q0.296875 -0.1875 0.46875 -0.484375q0.171875 -0.296875 0.171875 -0.640625q-0.1875 -0.125 -0.46875 -0.203125q-0.265625 -0.09375 -0.59375 -0.09375q-0.578125 0 -0.859375 0.25q-0.265625 0.234375 -0.265625 0.59375q0 0.328125 0.25 0.546875q0.265625 0.203125 0.65625 0.203125zm2.87294 0.46875l0 -4.078125l0.65625 0l0 0.59375l0.03125 0q0.15625 -0.296875 0.515625 -0.5q0.375 -0.21875 0.796875 -0.21875q0.75 0 1.125 0.4375q0.390625 0.421875 0.390625 1.15625l0 2.609375l-0.671875 0l0 -2.515625q0 -0.59375 -0.296875 -0.828125q-0.28125 -0.25 -0.734375 -0.25q-0.328125 0 -0.59375 0.1875q-0.25 0.1875 -0.390625 0.484375q-0.140625 0.296875 -0.140625 0.625l0 2.296875l-0.6875 0zm6.2223206 0.125q-0.546875 0 -1.0 -0.28125q-0.4375 -0.28125 -0.703125 -0.765625q-0.25 -0.484375 -0.25 -1.125q0 -0.625 0.25 -1.109375q0.265625 -0.484375 0.703125 -0.765625q0.453125 -0.28125 1.0 -0.28125q0.328125 0 0.59375 0.109375q0.28125 0.09375 0.484375 0.265625q0.203125 0.171875 0.3125 0.359375l0.03125 0l-0.03125 -0.578125l0 -1.6875l0.6875 0l0 5.734375l-0.65625 0l0 -0.59375l-0.03125 0q-0.109375 0.171875 -0.3125 0.34375q-0.203125 0.171875 -0.484375 0.265625q-0.265625 0.109375 -0.59375 0.109375zm0.078125 -0.609375q0.34375 0 0.65625 -0.1875q0.3125 -0.1875 0.5 -0.53125q0.1875 -0.359375 0.1875 -0.84375q0 -0.46875 -0.1875 -0.8125q-0.1875 -0.359375 -0.5 -0.546875q-0.3125 -0.1875 -0.65625 -0.1875q-0.359375 0 -0.671875 0.1875q-0.296875 0.1875 -0.5 0.546875q-0.1875 0.34375 -0.1875 0.8125q0 0.484375 0.1875 0.84375q0.203125 0.34375 0.5 0.53125q0.3125 0.1875 0.671875 0.1875z" fill-rule="nonzero"/><path fill="#666666" d="m215.83525 28.057806l10.402435 6.67572E-5l3.2144623 -9.632738l3.2144623 9.632738l10.402435 -6.67572E-5l-8.415787 5.953291l3.2145996 9.632694l-8.41571 -5.9533997l-8.41571 5.9533997l3.2145996 -9.632694z" fill-rule="evenodd"/><path fill="#000000" fill-opacity="0.0" d="m74.8294 86.715225l183.71652 0l0 11.307083l-183.71652 0z" fill-rule="evenodd"/><path fill="#000000" d="m75.5794 95.675224l0 -6.671875l2.25 0q0.5625 0 1.03125 0.25q0.46875 0.25 0.75 0.703125q0.296875 0.4375 0.296875 1.015625q0 0.359375 -0.140625 0.71875q-0.125 0.34375 -0.40625 0.640625q-0.265625 0.28125 -0.6875 0.453125q-0.421875 0.171875 -1.015625 0.171875l-1.65625 0l0 -0.734375l1.78125 0q0.34375 0 0.640625 -0.15625q0.3125 -0.171875 0.484375 -0.453125q0.1875 -0.28125 0.1875 -0.640625q0 -0.296875 -0.15625 -0.578125q-0.140625 -0.28125 -0.421875 -0.453125q-0.28125 -0.1875 -0.671875 -0.1875l-1.46875 0l0 5.921875l-0.796875 0zm1.609375 -3.0625l0.875 -0.046875l2.09375 3.078125l0 0.03125l-0.921875 0l-2.046875 -3.0625zm5.794815 3.21875q-0.71875 0 -1.28125 -0.328125q-0.546875 -0.34375 -0.859375 -0.921875q-0.3125 -0.578125 -0.3125 -1.28125q0 -0.71875 0.3125 -1.28125q0.3125 -0.578125 0.859375 -0.90625q0.5625 -0.34375 1.28125 -0.34375q0.71875 0 1.265625 0.34375q0.546875 0.34375 0.859375 0.921875q0.3125 0.5625 0.3125 1.265625q0 0.703125 -0.3125 1.28125q-0.3125 0.578125 -0.859375 0.921875q-0.546875 0.328125 -1.265625 0.328125zm0 -0.71875q0.421875 0 0.796875 -0.21875q0.390625 -0.21875 0.625 -0.625q0.234375 -0.40625 0.234375 -0.96875q0 -0.578125 -0.234375 -0.984375q-0.234375 -0.40625 -0.625 -0.609375q-0.375 -0.21875 -0.796875 -0.21875q-0.4375 0 -0.828125 0.21875q-0.375 0.203125 -0.609375 0.609375q-0.21875 0.40625 -0.21875 0.984375q0 0.5625 0.21875 0.96875q0.234375 0.40625 0.609375 0.625q0.390625 0.21875 0.828125 0.21875zm4.2787323 0.5625l-1.53125 -4.75l0.828125 0l1.125 3.75l0.015625 0l1.203125 -3.75l0.8125 0l1.203125 3.75l0 0l1.125 -3.75l0.8125 0l-1.546875 4.75l-0.796875 0l-1.234375 -3.796875l0 0l-1.21875 3.796875l-0.796875 0zm9.412079 0l-1.53125 -4.75l0.828125 0l1.125 3.75l0.015625 0l1.203125 -3.75l0.8125 0l1.203125 3.75l0 0l1.125 -3.75l0.8125 0l-1.546875 4.75l-0.796875 0l-1.234375 -3.796875l0 0l-1.21875 3.796875l-0.796875 0zm6.3104553 0l0 -4.75l0.796875 0l0 4.75l-0.796875 0zm0.390625 -5.640625q-0.21875 0 -0.390625 -0.15625q-0.171875 -0.171875 -0.171875 -0.40625q0 -0.25 0.171875 -0.40625q0.171875 -0.15625 0.390625 -0.15625q0.25 0 0.40625 0.15625q0.171875 0.15625 0.171875 0.40625q0 0.234375 -0.171875 0.40625q-0.15625 0.15625 -0.40625 0.15625zm1.2802429 0.890625l2.78125 0l0 0.703125l-2.78125 0l0 -0.703125zm0.828125 3.5l0 -4.84375l0.796875 0l0 4.640625q0 0.375 0.140625 0.59375q0.15625 0.203125 0.515625 0.203125q0.15625 0 0.28125 -0.046875q0.140625 -0.046875 0.234375 -0.125l0 0.78125q-0.109375 0.0625 -0.265625 0.09375q-0.140625 0.03125 -0.375 0.03125q-0.609375 0 -0.96875 -0.34375q-0.359375 -0.359375 -0.359375 -0.984375zm2.9514313 1.25l0 -6.671875l0.78125 0l0 1.96875l-0.03125 0.640625l0.03125 0q0.1875 -0.34375 0.609375 -0.59375q0.4375 -0.25 0.9375 -0.25q0.609375 0 1.0 0.25q0.390625 0.234375 0.578125 0.65625q0.203125 0.40625 0.203125 0.953125l0 3.046875l-0.78125 0l0 -2.921875q0 -0.46875 -0.171875 -0.734375q-0.15625 -0.28125 -0.421875 -0.40625q-0.265625 -0.125 -0.578125 -0.125q-0.40625 0 -0.71875 0.234375q-0.296875 0.21875 -0.484375 0.578125q-0.171875 0.34375 -0.171875 0.71875l0 2.65625l-0.78125 0zm9.268936 0.15625q-0.375 0 -0.796875 -0.15625q-0.421875 -0.171875 -0.765625 -0.515625q-0.34375 -0.359375 -0.515625 -0.9375l0.71875 -0.296875q0.15625 0.546875 0.515625 0.84375q0.359375 0.296875 0.84375 0.296875q0.359375 0 0.65625 -0.15625q0.3125 -0.15625 0.484375 -0.421875q0.1875 -0.265625 0.1875 -0.609375q0 -0.34375 -0.1875 -0.609375q-0.1875 -0.265625 -0.5 -0.40625q-0.296875 -0.15625 -0.671875 -0.15625l-0.546875 0l0 -0.75l0.484375 0q0.34375 0 0.609375 -0.125q0.28125 -0.125 0.4375 -0.359375q0.15625 -0.25 0.15625 -0.578125q0 -0.46875 -0.34375 -0.734375q-0.328125 -0.265625 -0.8125 -0.265625q-0.359375 0 -0.59375 0.140625q-0.234375 0.140625 -0.375 0.34375q-0.125 0.1875 -0.1875 0.390625l-0.734375 -0.3125q0.09375 -0.28125 0.328125 -0.578125q0.234375 -0.296875 0.625 -0.515625q0.390625 -0.21875 0.9375 -0.21875q0.5625 0 1.0 0.234375q0.453125 0.21875 0.703125 0.625q0.265625 0.390625 0.265625 0.890625q0 0.34375 -0.125 0.625q-0.125 0.265625 -0.328125 0.453125q-0.203125 0.1875 -0.421875 0.296875l0 0.03125q0.296875 0.125 0.53125 0.34375q0.25 0.21875 0.40625 0.53125q0.15625 0.296875 0.15625 0.6875q0 0.578125 -0.296875 1.015625q-0.28125 0.4375 -0.78125 0.703125q-0.484375 0.25 -1.0625 0.25zm7.4671783 0q-0.703125 0 -1.25 -0.328125q-0.546875 -0.34375 -0.859375 -0.90625q-0.3125 -0.578125 -0.3125 -1.296875q0 -0.734375 0.3125 -1.296875q0.3125 -0.578125 0.859375 -0.90625q0.546875 -0.328125 1.25 -0.328125q0.796875 0 1.3125 0.375q0.515625 0.359375 0.734375 0.9375l-0.71875 0.296875q-0.171875 -0.4375 -0.53125 -0.65625q-0.34375 -0.234375 -0.84375 -0.234375q-0.421875 0 -0.78125 0.234375q-0.359375 0.21875 -0.578125 0.625q-0.21875 0.40625 -0.21875 0.953125q0 0.53125 0.21875 0.953125q0.21875 0.40625 0.578125 0.640625q0.359375 0.21875 0.78125 0.21875q0.5 0 0.859375 -0.234375q0.375 -0.234375 0.546875 -0.671875l0.71875 0.296875q-0.234375 0.5625 -0.765625 0.953125q-0.515625 0.375 -1.3125 0.375zm2.9368973 -0.15625l0 -6.671875l0.78125 0l0 1.96875l-0.03125 0.640625l0.03125 0q0.1875 -0.34375 0.609375 -0.59375q0.4375 -0.25 0.9375 -0.25q0.609375 0 1.0 0.25q0.390625 0.234375 0.578125 0.65625q0.203125 0.40625 0.203125 0.953125l0 3.046875l-0.78125 0l0 -2.921875q0 -0.46875 -0.171875 -0.734375q-0.15625 -0.28125 -0.421875 -0.40625q-0.265625 -0.125 -0.578125 -0.125q-0.40625 0 -0.71875 0.234375q-0.296875 0.21875 -0.484375 0.578125q-0.171875 0.34375 -0.171875 0.71875l0 2.65625l-0.78125 0zm5.3235626 0l0 -4.75l0.796875 0l0 4.75l-0.796875 0zm0.390625 -5.640625q-0.21875 0 -0.390625 -0.15625q-0.171875 -0.171875 -0.171875 -0.40625q0 -0.25 0.171875 -0.40625q0.171875 -0.15625 0.390625 -0.15625q0.25 0 0.40625 0.15625q0.171875 0.15625 0.171875 0.40625q0 0.234375 -0.171875 0.40625q-0.15625 0.15625 -0.40625 0.15625zm1.6550293 5.640625l0 -6.671875l0.78125 0l0 6.671875l-0.78125 0zm3.9371948 0.15625q-0.640625 0 -1.15625 -0.328125q-0.515625 -0.328125 -0.828125 -0.890625q-0.296875 -0.578125 -0.296875 -1.3125q0 -0.734375 0.296875 -1.296875q0.3125 -0.578125 0.828125 -0.90625q0.515625 -0.328125 1.15625 -0.328125q0.390625 0 0.703125 0.125q0.3125 0.109375 0.546875 0.3125q0.25 0.203125 0.375 0.421875l0.03125 0l-0.03125 -0.65625l0 -1.96875l0.796875 0l0 6.671875l-0.765625 0l0 -0.703125l-0.03125 0q-0.125 0.21875 -0.375 0.421875q-0.234375 0.1875 -0.546875 0.3125q-0.3125 0.125 -0.703125 0.125zm0.09375 -0.71875q0.40625 0 0.765625 -0.21875q0.359375 -0.21875 0.578125 -0.625q0.21875 -0.40625 0.21875 -0.96875q0 -0.5625 -0.21875 -0.96875q-0.21875 -0.40625 -0.578125 -0.625q-0.359375 -0.21875 -0.765625 -0.21875q-0.421875 0 -0.78125 0.21875q-0.359375 0.21875 -0.578125 0.625q-0.21875 0.40625 -0.21875 0.96875q0 0.546875 0.21875 0.96875q0.21875 0.40625 0.578125 0.625q0.359375 0.21875 0.78125 0.21875zm3.5061646 0.5625l0 -4.75l0.75 0l0 0.75l0.03125 0q0.09375 -0.265625 0.3125 -0.46875q0.21875 -0.203125 0.5 -0.3125q0.296875 -0.109375 0.578125 -0.109375q0.203125 0 0.328125 0.03125q0.125 0.015625 0.234375 0.0625l0 0.84375q-0.15625 -0.0625 -0.328125 -0.09375q-0.171875 -0.046875 -0.34375 -0.046875q-0.359375 0 -0.65625 0.203125q-0.28125 0.1875 -0.453125 0.515625q-0.171875 0.328125 -0.171875 0.71875l0 2.65625l-0.78125 0zm5.327423 0.15625q-0.6875 0 -1.234375 -0.328125q-0.53125 -0.328125 -0.84375 -0.890625q-0.296875 -0.578125 -0.296875 -1.3125q0 -0.671875 0.28125 -1.25q0.296875 -0.578125 0.8125 -0.921875q0.515625 -0.359375 1.21875 -0.359375q0.703125 0 1.203125 0.3125q0.515625 0.3125 0.796875 0.859375q0.28125 0.546875 0.28125 1.265625q0 0.0625 -0.015625 0.125q0 0.0625 -0.015625 0.109375l-4.09375 0l0 -0.640625l3.28125 0q-0.015625 -0.203125 -0.09375 -0.421875q-0.078125 -0.234375 -0.25 -0.4375q-0.171875 -0.203125 -0.4375 -0.328125q-0.265625 -0.125 -0.65625 -0.125q-0.46875 0 -0.8125 0.234375q-0.328125 0.234375 -0.515625 0.65625q-0.1875 0.40625 -0.1875 0.921875q0 0.609375 0.234375 1.015625q0.234375 0.40625 0.59375 0.609375q0.375 0.1875 0.78125 0.1875q0.515625 0 0.859375 -0.25q0.34375 -0.25 0.546875 -0.609375l0.671875 0.328125q-0.28125 0.53125 -0.8125 0.890625q-0.515625 0.359375 -1.296875 0.359375zm3.1423645 -0.15625l0 -4.75l0.75 0l0 0.6875l0.03125 0q0.1875 -0.34375 0.609375 -0.59375q0.4375 -0.25 0.9375 -0.25q0.875 0 1.3125 0.515625q0.453125 0.5 0.453125 1.34375l0 3.046875l-0.796875 0l0 -2.921875q0 -0.703125 -0.328125 -0.984375q-0.328125 -0.28125 -0.859375 -0.28125q-0.390625 0 -0.6875 0.21875q-0.296875 0.21875 -0.46875 0.5625q-0.171875 0.34375 -0.171875 0.734375l0 2.671875l-0.78125 0zm5.748703 -3.625q-0.25 0 -0.421875 -0.171875q-0.171875 -0.171875 -0.171875 -0.421875q0 -0.25 0.171875 -0.421875q0.171875 -0.171875 0.421875 -0.171875q0.25 0 0.421875 0.171875q0.171875 0.171875 0.171875 0.421875q0 0.25 -0.171875 0.421875q-0.171875 0.171875 -0.421875 0.171875zm0 3.6875q-0.25 0 -0.421875 -0.171875q-0.171875 -0.1875 -0.171875 -0.4375q0 -0.234375 0.171875 -0.40625q0.171875 -0.171875 0.421875 -0.171875q0.25 0 0.421875 0.171875q0.171875 0.171875 0.171875 0.40625q0 0.25 -0.171875 0.4375q-0.171875 0.171875 -0.421875 0.171875zm6.0248413 0.09375q-0.703125 0 -1.25 -0.328125q-0.546875 -0.34375 -0.859375 -0.90625q-0.3125 -0.578125 -0.3125 -1.296875q0 -0.734375 0.3125 -1.296875q0.3125 -0.578125 0.859375 -0.90625q0.546875 -0.328125 1.25 -0.328125q0.796875 0 1.3125 0.375q0.515625 0.359375 0.734375 0.9375l-0.71875 0.296875q-0.171875 -0.4375 -0.53125 -0.65625q-0.34375 -0.234375 -0.84375 -0.234375q-0.421875 0 -0.78125 0.234375q-0.359375 0.21875 -0.578125 0.625q-0.21875 0.40625 -0.21875 0.953125q0 0.53125 0.21875 0.953125q0.21875 0.40625 0.578125 0.640625q0.359375 0.21875 0.78125 0.21875q0.5 0 0.859375 -0.234375q0.375 -0.234375 0.546875 -0.671875l0.71875 0.296875q-0.234375 0.5625 -0.765625 0.953125q-0.515625 0.375 -1.3125 0.375zm5.0777435 0q-0.71875 0 -1.28125 -0.328125q-0.546875 -0.34375 -0.859375 -0.921875q-0.3125 -0.578125 -0.3125 -1.28125q0 -0.71875 0.3125 -1.28125q0.3125 -0.578125 0.859375 -0.90625q0.5625 -0.34375 1.28125 -0.34375q0.71875 0 1.265625 0.34375q0.546875 0.34375 0.859375 0.921875q0.3125 0.5625 0.3125 1.265625q0 0.703125 -0.3125 1.28125q-0.3125 0.578125 -0.859375 0.921875q-0.546875 0.328125 -1.265625 0.328125zm0 -0.71875q0.421875 0 0.796875 -0.21875q0.390625 -0.21875 0.625 -0.625q0.234375 -0.40625 0.234375 -0.96875q0 -0.578125 -0.234375 -0.984375q-0.234375 -0.40625 -0.625 -0.609375q-0.375 -0.21875 -0.796875 -0.21875q-0.4375 0 -0.828125 0.21875q-0.375 0.203125 -0.609375 0.609375q-0.21875 0.40625 -0.21875 0.984375q0 0.5625 0.21875 0.96875q0.234375 0.40625 0.609375 0.625q0.390625 0.21875 0.828125 0.21875zm3.325409 0.5625l0 -6.671875l0.78125 0l0 6.671875l-0.78125 0zm3.6869812 0.15625q-0.875 0 -1.328125 -0.515625q-0.4375 -0.515625 -0.4375 -1.40625l0 -2.984375l0.796875 0l0 2.859375q0 0.71875 0.328125 1.03125q0.328125 0.296875 0.8125 0.296875q0.421875 0 0.71875 -0.21875q0.3125 -0.21875 0.484375 -0.5625q0.171875 -0.359375 0.171875 -0.734375l0 -2.671875l0.78125 0l0 4.75l-0.75 0l0 -0.6875l-0.03125 0q-0.125 0.21875 -0.375 0.421875q-0.234375 0.1875 -0.53125 0.296875q-0.296875 0.125 -0.640625 0.125zm3.514328 -0.15625l0 -4.75l0.75 0l0 0.6875l0.03125 0q0.140625 -0.234375 0.359375 -0.421875q0.234375 -0.1875 0.53125 -0.296875q0.296875 -0.125 0.59375 -0.125q0.53125 0 0.90625 0.265625q0.390625 0.25 0.5625 0.65625q0.25 -0.40625 0.65625 -0.65625q0.40625 -0.265625 0.96875 -0.265625q0.859375 0 1.25 0.515625q0.40625 0.515625 0.40625 1.34375l0 3.046875l-0.78125 0l0 -2.921875q0 -0.703125 -0.28125 -0.984375q-0.28125 -0.28125 -0.796875 -0.28125q-0.359375 0 -0.640625 0.21875q-0.28125 0.203125 -0.453125 0.546875q-0.15625 0.328125 -0.15625 0.734375l0 2.6875l-0.796875 0l0 -2.921875q0 -0.6875 -0.28125 -0.96875q-0.28125 -0.296875 -0.78125 -0.296875q-0.359375 0 -0.65625 0.21875q-0.28125 0.203125 -0.453125 0.5625q-0.15625 0.34375 -0.15625 0.734375l0 2.671875l-0.78125 0zm8.162109 0l0 -4.75l0.75 0l0 0.6875l0.03125 0q0.1875 -0.34375 0.609375 -0.59375q0.4375 -0.25 0.9375 -0.25q0.875 0 1.3125 0.515625q0.453125 0.5 0.453125 1.34375l0 3.046875l-0.796875 0l0 -2.921875q0 -0.703125 -0.328125 -0.984375q-0.328125 -0.28125 -0.859375 -0.28125q-0.390625 0 -0.6875 0.21875q-0.296875 0.21875 -0.46875 0.5625q-0.171875 0.34375 -0.171875 0.734375l0 2.671875l-0.78125 0zm5.498703 1.03125l-0.390625 -0.25l0.515625 -0.78125q-0.15625 -0.03125 -0.296875 -0.171875q-0.140625 -0.140625 -0.140625 -0.375q0 -0.234375 0.171875 -0.40625q0.171875 -0.171875 0.421875 -0.171875q0.125 0 0.234375 0.046875q0.109375 0.046875 0.1875 0.125q0.078125 0.078125 0.125 0.1875q0.046875 0.109375 0.046875 0.21875q0 0.125 -0.046875 0.234375q-0.03125 0.09375 -0.09375 0.203125q-0.046875 0.09375 -0.125 0.203125l-0.609375 0.9375zm4.1810913 -1.03125l0 -4.75l0.796875 0l0 4.75l-0.796875 0zm0.390625 -5.640625q-0.21875 0 -0.390625 -0.15625q-0.171875 -0.171875 -0.171875 -0.40625q0 -0.25 0.171875 -0.40625q0.171875 -0.15625 0.390625 -0.15625q0.25 0 0.40625 0.15625q0.171875 0.15625 0.171875 0.40625q0 0.234375 -0.171875 0.40625q-0.15625 0.15625 -0.40625 0.15625zm3.764618 5.796875q-0.703125 0 -1.25 -0.328125q-0.546875 -0.34375 -0.859375 -0.90625q-0.3125 -0.578125 -0.3125 -1.296875q0 -0.734375 0.3125 -1.296875q0.3125 -0.578125 0.859375 -0.90625q0.546875 -0.328125 1.25 -0.328125q0.796875 0 1.3125 0.375q0.515625 0.359375 0.734375 0.9375l-0.71875 0.296875q-0.171875 -0.4375 -0.53125 -0.65625q-0.34375 -0.234375 -0.84375 -0.234375q-0.421875 0 -0.78125 0.234375q-0.359375 0.21875 -0.578125 0.625q-0.21875 0.40625 -0.21875 0.953125q0 0.53125 0.21875 0.953125q0.21875 0.40625 0.578125 0.640625q0.359375 0.21875 0.78125 0.21875q0.5 0 0.859375 -0.234375q0.375 -0.234375 0.546875 -0.671875l0.71875 0.296875q-0.234375 0.5625 -0.765625 0.953125q-0.515625 0.375 -1.3125 0.375zm5.0777435 0q-0.71875 0 -1.28125 -0.328125q-0.546875 -0.34375 -0.859375 -0.921875q-0.3125 -0.578125 -0.3125 -1.28125q0 -0.71875 0.3125 -1.28125q0.3125 -0.578125 0.859375 -0.90625q0.5625 -0.34375 1.28125 -0.34375q0.71875 0 1.265625 0.34375q0.546875 0.34375 0.859375 0.921875q0.3125 0.5625 0.3125 1.265625q0 0.703125 -0.3125 1.28125q-0.3125 0.578125 -0.859375 0.921875q-0.546875 0.328125 -1.265625 0.328125zm0 -0.71875q0.421875 0 0.796875 -0.21875q0.390625 -0.21875 0.625 -0.625q0.234375 -0.40625 0.234375 -0.96875q0 -0.578125 -0.234375 -0.984375q-0.234375 -0.40625 -0.625 -0.609375q-0.375 -0.21875 -0.796875 -0.21875q-0.4375 0 -0.828125 0.21875q-0.375 0.203125 -0.609375 0.609375q-0.21875 0.40625 -0.21875 0.984375q0 0.5625 0.21875 0.96875q0.234375 0.40625 0.609375 0.625q0.390625 0.21875 0.828125 0.21875zm3.2787323 0.5625l0 -4.75l0.75 0l0 0.6875l0.03125 0q0.1875 -0.34375 0.609375 -0.59375q0.4375 -0.25 0.9375 -0.25q0.875 0 1.3125 0.515625q0.453125 0.5 0.453125 1.34375l0 3.046875l-0.796875 0l0 -2.921875q0 -0.703125 -0.328125 -0.984375q-0.328125 -0.28125 -0.859375 -0.28125q-0.390625 0 -0.6875 0.21875q-0.296875 0.21875 -0.46875 0.5625q-0.171875 0.34375 -0.171875 0.734375l0 2.671875l-0.78125 0zm5.498703 1.03125l-0.390625 -0.25l0.515625 -0.78125q-0.15625 -0.03125 -0.296875 -0.171875q-0.140625 -0.140625 -0.140625 -0.375q0 -0.234375 0.171875 -0.40625q0.171875 -0.171875 0.421875 -0.171875q0.125 0 0.234375 0.046875q0.109375 0.046875 0.1875 0.125q0.078125 0.078125 0.125 0.1875q0.046875 0.109375 0.046875 0.21875q0 0.125 -0.046875 0.234375q-0.03125 0.09375 -0.09375 0.203125q-0.046875 0.09375 -0.125 0.203125l-0.609375 0.9375zm3.7904663 -5.78125l2.78125 0l0 0.703125l-2.78125 0l0 -0.703125zm0.828125 3.5l0 -4.84375l0.796875 0l0 4.640625q0 0.375 0.140625 0.59375q0.15625 0.203125 0.515625 0.203125q0.15625 0 0.28125 -0.046875q0.140625 -0.046875 0.234375 -0.125l0 0.78125q-0.109375 0.0625 -0.265625 0.09375q-0.140625 0.03125 -0.375 0.03125q-0.609375 0 -0.96875 -0.34375q-0.359375 -0.359375 -0.359375 -0.984375zm4.8088074 1.40625q-0.6875 0 -1.234375 -0.328125q-0.53125 -0.328125 -0.84375 -0.890625q-0.296875 -0.578125 -0.296875 -1.3125q0 -0.671875 0.28125 -1.25q0.296875 -0.578125 0.8125 -0.921875q0.515625 -0.359375 1.21875 -0.359375q0.703125 0 1.203125 0.3125q0.515625 0.3125 0.796875 0.859375q0.28125 0.546875 0.28125 1.265625q0 0.0625 -0.015625 0.125q0 0.0625 -0.015625 0.109375l-4.09375 0l0 -0.640625l3.28125 0q-0.015625 -0.203125 -0.09375 -0.421875q-0.078125 -0.234375 -0.25 -0.4375q-0.171875 -0.203125 -0.4375 -0.328125q-0.265625 -0.125 -0.65625 -0.125q-0.46875 0 -0.8125 0.234375q-0.328125 0.234375 -0.515625 0.65625q-0.1875 0.40625 -0.1875 0.921875q0 0.609375 0.234375 1.015625q0.234375 0.40625 0.59375 0.609375q0.375 0.1875 0.78125 0.1875q0.515625 0 0.859375 -0.25q0.34375 -0.25 0.546875 -0.609375l0.671875 0.328125q-0.28125 0.53125 -0.8125 0.890625q-0.515625 0.359375 -1.296875 0.359375zm2.5802765 -0.15625l1.90625 -2.734375l0.078125 0l1.34375 -2.015625l0.9375 0l-1.859375 2.609375l-0.0625 0l-1.421875 2.140625l-0.921875 0zm0.03125 -4.75l0.890625 0l1.484375 2.109375l0.03125 0l1.859375 2.640625l-0.921875 0l-1.421875 -2.109375l-0.0625 0l-1.859375 -2.640625zm4.652176 0l2.78125 0l0 0.703125l-2.78125 0l0 -0.703125zm0.828125 3.5l0 -4.84375l0.796875 0l0 4.640625q0 0.375 0.140625 0.59375q0.15625 0.203125 0.515625 0.203125q0.15625 0 0.28125 -0.046875q0.140625 -0.046875 0.234375 -0.125l0 0.78125q-0.109375 0.0625 -0.265625 0.09375q-0.140625 0.03125 -0.375 0.03125q-0.609375 0 -0.96875 -0.34375q-0.359375 -0.359375 -0.359375 -0.984375z" fill-rule="nonzero"/><path fill="#000000" fill-opacity="0.0" d="m166.68767 86.715225l0 -14.755905l0.06298828 0l0 -14.755909" fill-rule="evenodd"/><path stroke="#ff0000" stroke-width="1.0" stroke-linejoin="round" stroke-linecap="butt" d="m166.68767 86.715225l0 -14.755905l0.06298828 0l0 -10.965908" fill-rule="evenodd"/><path fill="#ff0000" stroke="#ff0000" stroke-width="1.0" stroke-linecap="butt" d="m166.75066 57.70341c0.9085083 0 1.6450043 0.73649216 1.6450043 1.6450005c0 0.9085083 -0.736496 1.6450005 -1.6450043 1.6450005c-0.9085083 0 -1.6450043 -0.73649216 -1.6450043 -1.6450005c0 -0.9085083 0.736496 -1.6450005 1.6450043 -1.6450005z" fill-rule="nonzero"/><path fill="#000000" fill-opacity="0.0" d="m9.829396 66.9462l156.91339 0l0 11.307083l-156.91339 0z" fill-rule="evenodd"/><path fill="#000000" d="m13.704396 76.06245q-0.734375 0 -1.359375 -0.265625q-0.625 -0.265625 -1.109375 -0.734375q-0.46875 -0.484375 -0.734375 -1.125q-0.25 -0.640625 -0.25 -1.375q0 -0.734375 0.25 -1.375q0.265625 -0.640625 0.734375 -1.109375q0.484375 -0.46875 1.109375 -0.734375q0.625 -0.265625 1.359375 -0.265625q0.515625 0 0.953125 0.140625q0.453125 0.125 0.828125 0.375q0.375 0.234375 0.67187595 0.578125l-0.57812595 0.546875q-0.25 -0.3125 -0.53125 -0.5q-0.28125 -0.203125 -0.625 -0.296875q-0.328125 -0.09375 -0.71875 -0.09375q-0.71875 0 -1.328125 0.34375q-0.59375 0.328125 -0.96875 0.953125q-0.359375 0.609375 -0.359375 1.4375q0 0.828125 0.359375 1.453125q0.375 0.609375 0.96875 0.953125q0.609375 0.328125 1.328125 0.328125q0.4375 0 0.8125 -0.109375q0.375 -0.125 0.6875 -0.34375q0.3125 -0.234375 0.5625 -0.546875l0.57812595 0.5625q-0.28125 0.34375 -0.68750095 0.625q-0.40625 0.265625 -0.90625 0.421875q-0.484375 0.15625 -1.046875 0.15625zm5.63173 0q-0.71875 0 -1.28125 -0.328125q-0.546875 -0.34375 -0.859375 -0.921875q-0.3125 -0.578125 -0.3125 -1.28125q0 -0.71875 0.3125 -1.28125q0.3125 -0.578125 0.859375 -0.90625q0.5625 -0.34375 1.28125 -0.34375q0.71875 0 1.265625 0.34375q0.546875 0.34375 0.859375 0.921875q0.3125 0.5625 0.3125 1.265625q0 0.703125 -0.3125 1.28125q-0.3125 0.578125 -0.859375 0.921875q-0.546875 0.328125 -1.265625 0.328125zm0 -0.71875q0.421875 0 0.796875 -0.21875q0.390625 -0.21875 0.625 -0.625q0.234375 -0.40625 0.234375 -0.96875q0 -0.578125 -0.234375 -0.984375q-0.234375 -0.40625 -0.625 -0.609375q-0.375 -0.21875 -0.796875 -0.21875q-0.4375 0 -0.828125 0.21875q-0.375 0.203125 -0.609375 0.609375q-0.21875 0.40625 -0.21875 0.984375q0 0.5625 0.21875 0.96875q0.234375 0.40625 0.609375 0.625q0.390625 0.21875 0.828125 0.21875zm3.325409 0.5625l0 -6.671875l0.78125 0l0 6.671875l-0.78125 0zm3.6869812 0.15625q-0.875 0 -1.328125 -0.515625q-0.4375 -0.515625 -0.4375 -1.40625l0 -2.984375l0.796875 0l0 2.859375q0 0.71875 0.328125 1.03125q0.328125 0.296875 0.8125 0.296875q0.421875 0 0.71875 -0.21875q0.3125 -0.21875 0.484375 -0.5625q0.171875 -0.359375 0.171875 -0.734375l0 -2.671875l0.78125 0l0 4.75l-0.75 0l0 -0.6875l-0.03125 0q-0.125 0.21875 -0.375 0.421875q-0.234375 0.1875 -0.53125 0.296875q-0.296875 0.125 -0.640625 0.125zm3.514328 -0.15625l0 -4.75l0.75 0l0 0.6875l0.03125 0q0.140625 -0.234375 0.359375 -0.421875q0.234375 -0.1875 0.53125 -0.296875q0.296875 -0.125 0.5937481 -0.125q0.53125 0 0.90625 0.265625q0.390625 0.25 0.5625 0.65625q0.25 -0.40625 0.65625 -0.65625q0.40625 -0.265625 0.96875 -0.265625q0.859375 0 1.25 0.515625q0.40625 0.515625 0.40625 1.34375l0 3.046875l-0.78125 0l0 -2.921875q0 -0.703125 -0.28125 -0.984375q-0.28125 -0.28125 -0.796875 -0.28125q-0.359375 0 -0.640625 0.21875q-0.28125 0.203125 -0.453125 0.546875q-0.15625 0.328125 -0.15625 0.734375l0 2.6875l-0.796875 0l0 -2.921875q0 -0.6875 -0.28125 -0.96875q-0.28125 -0.296875 -0.7812481 -0.296875q-0.359375 0 -0.65625 0.21875q-0.28125 0.203125 -0.453125 0.5625q-0.15625 0.34375 -0.15625 0.734375l0 2.671875l-0.78125 0zm8.162107 0l0 -4.75l0.75 0l0 0.6875l0.03125 0q0.1875 -0.34375 0.609375 -0.59375q0.4375 -0.25 0.9375 -0.25q0.875 0 1.3125 0.515625q0.453125 0.5 0.453125 1.34375l0 3.046875l-0.796875 0l0 -2.921875q0 -0.703125 -0.328125 -0.984375q-0.328125 -0.28125 -0.859375 -0.28125q-0.390625 0 -0.6875 0.21875q-0.296875 0.21875 -0.46875 0.5625q-0.171875 0.34375 -0.171875 0.734375l0 2.671875l-0.78125 0zm8.397202 0l-1.53125 -4.75l0.828125 0l1.125 3.75l0.015625 0l1.203125 -3.75l0.8125 0l1.203125 3.75l0 0l1.125 -3.75l0.8125 0l-1.546875 4.75l-0.796875 0l-1.234375 -3.796875l0 0l-1.21875 3.796875l-0.796875 0zm6.3104553 0l0 -4.75l0.796875 0l0 4.75l-0.796875 0zm0.390625 -5.640625q-0.21875 0 -0.390625 -0.15625q-0.171875 -0.171875 -0.171875 -0.40625q0 -0.25 0.171875 -0.40625q0.171875 -0.15625 0.390625 -0.15625q0.25 0 0.40625 0.15625q0.171875 0.15625 0.171875 0.40625q0 0.234375 -0.171875 0.40625q-0.15625 0.15625 -0.40625 0.15625zm1.2802429 0.890625l2.78125 0l0 0.703125l-2.78125 0l0 -0.703125zm0.828125 3.5l0 -4.84375l0.796875 0l0 4.640625q0 0.375 0.140625 0.59375q0.15625 0.203125 0.515625 0.203125q0.15625 0 0.28125 -0.046875q0.140625 -0.046875 0.234375 -0.125l0 0.78125q-0.109375 0.0625 -0.265625 0.09375q-0.140625 0.03125 -0.375 0.03125q-0.609375 0 -0.96875 -0.34375q-0.359375 -0.359375 -0.359375 -0.984375zm2.9514313 1.25l0 -6.671875l0.78125 0l0 1.96875l-0.03125 0.640625l0.03125 0q0.1875 -0.34375 0.609375 -0.59375q0.4375 -0.25 0.9375 -0.25q0.609375 0 1.0 0.25q0.390625 0.234375 0.578125 0.65625q0.203125 0.40625 0.203125 0.953125l0 3.046875l-0.78125 0l0 -2.921875q0 -0.46875 -0.171875 -0.734375q-0.15625 -0.28125 -0.421875 -0.40625q-0.265625 -0.125 -0.578125 -0.125q-0.40625 0 -0.71875 0.234375q-0.296875 0.21875 -0.484375 0.578125q-0.171875 0.34375 -0.171875 0.71875l0 2.65625l-0.78125 0zm7.253315 0l0 -0.796875q0.03125 -0.03125 0.21875 -0.21875q0.203125 -0.203125 0.484375 -0.484375q0.296875 -0.296875 0.609375 -0.609375q0.3125 -0.328125 0.59375 -0.609375q0.28125 -0.296875 0.4375 -0.46875q0.28125 -0.3125 0.453125 -0.546875q0.1875 -0.234375 0.265625 -0.453125q0.09375 -0.21875 0.09375 -0.5q0 -0.28125 -0.140625 -0.515625q-0.140625 -0.25 -0.40625 -0.40625q-0.265625 -0.171875 -0.671875 -0.171875q-0.375 0 -0.640625 0.171875q-0.25 0.15625 -0.390625 0.375q-0.140625 0.21875 -0.1875 0.390625l-0.71875 -0.28125q0.0625 -0.203125 0.203125 -0.4375q0.15625 -0.234375 0.390625 -0.453125q0.234375 -0.21875 0.578125 -0.359375q0.34375 -0.15625 0.78125 -0.15625q0.609375 0 1.046875 0.265625q0.453125 0.25 0.703125 0.671875q0.25 0.40625 0.25 0.890625q0 0.421875 -0.15625 0.796875q-0.15625 0.375 -0.390625 0.6875q-0.234375 0.3125 -0.484375 0.546875q-0.109375 0.109375 -0.328125 0.328125q-0.21875 0.21875 -0.46875 0.46875q-0.234375 0.25 -0.46875 0.484375q-0.234375 0.21875 -0.40625 0.40625q-0.171875 0.171875 -0.234375 0.234375l0 0l3.015625 0l0 0.75l-4.03125 0zm9.3988495 0.15625q-0.703125 0 -1.25 -0.328125q-0.546875 -0.34375 -0.859375 -0.90625q-0.3125 -0.578125 -0.3125 -1.296875q0 -0.734375 0.3125 -1.296875q0.3125 -0.578125 0.859375 -0.90625q0.546875 -0.328125 1.25 -0.328125q0.796875 0 1.3125 0.375q0.515625 0.359375 0.734375 0.9375l-0.71875 0.296875q-0.171875 -0.4375 -0.53125 -0.65625q-0.34375 -0.234375 -0.84375 -0.234375q-0.421875 0 -0.78125 0.234375q-0.359375 0.21875 -0.578125 0.625q-0.21875 0.40625 -0.21875 0.953125q0 0.53125 0.21875 0.953125q0.21875 0.40625 0.578125 0.640625q0.359375 0.21875 0.78125 0.21875q0.5 0 0.859375 -0.234375q0.375 -0.234375 0.546875 -0.671875l0.71875 0.296875q-0.234375 0.5625 -0.765625 0.953125q-0.515625 0.375 -1.3125 0.375zm2.936905 -0.15625l0 -6.671875l0.78125 0l0 1.96875l-0.03125 0.640625l0.03125 0q0.1875 -0.34375 0.609375 -0.59375q0.4375 -0.25 0.9375 -0.25q0.609375 0 1.0 0.25q0.390625 0.234375 0.578125 0.65625q0.203125 0.40625 0.203125 0.953125l0 3.046875l-0.78125 0l0 -2.921875q0 -0.46875 -0.171875 -0.734375q-0.15625 -0.28125 -0.421875 -0.40625q-0.265625 -0.125 -0.578125 -0.125q-0.40625 0 -0.71875 0.234375q-0.296875 0.21875 -0.484375 0.578125q-0.171875 0.34375 -0.171875 0.71875l0 2.65625l-0.78125 0zm5.3235626 0l0 -4.75l0.796875 0l0 4.75l-0.796875 0zm0.390625 -5.640625q-0.21875 0 -0.390625 -0.15625q-0.171875 -0.171875 -0.171875 -0.40625q0 -0.25 0.171875 -0.40625q0.171875 -0.15625 0.390625 -0.15625q0.25 0 0.40625 0.15625q0.171875 0.15625 0.171875 0.40625q0 0.234375 -0.171875 0.40625q-0.15625 0.15625 -0.40625 0.15625zm1.6550293 5.640625l0 -6.671875l0.78125 0l0 6.671875l-0.78125 0zm3.9371948 0.15625q-0.640625 0 -1.15625 -0.328125q-0.515625 -0.328125 -0.828125 -0.890625q-0.296875 -0.578125 -0.296875 -1.3125q0 -0.734375 0.296875 -1.296875q0.3125 -0.578125 0.828125 -0.90625q0.515625 -0.328125 1.15625 -0.328125q0.390625 0 0.703125 0.125q0.3125 0.109375 0.546875 0.3125q0.25 0.203125 0.375 0.421875l0.03125 0l-0.03125 -0.65625l0 -1.96875l0.796875 0l0 6.671875l-0.765625 0l0 -0.703125l-0.03125 0q-0.125 0.21875 -0.375 0.421875q-0.234375 0.1875 -0.546875 0.3125q-0.3125 0.125 -0.703125 0.125zm0.09375 -0.71875q0.40625 0 0.765625 -0.21875q0.359375 -0.21875 0.578125 -0.625q0.21875 -0.40625 0.21875 -0.96875q0 -0.5625 -0.21875 -0.96875q-0.21875 -0.40625 -0.578125 -0.625q-0.359375 -0.21875 -0.765625 -0.21875q-0.421875 0 -0.78125 0.21875q-0.359375 0.21875 -0.578125 0.625q-0.21875 0.40625 -0.21875 0.96875q0 0.546875 0.21875 0.96875q0.21875 0.40625 0.578125 0.625q0.359375 0.21875 0.78125 0.21875zm3.5061646 0.5625l0 -4.75l0.75 0l0 0.75l0.03125 0q0.09375 -0.265625 0.3125 -0.46875q0.21875 -0.203125 0.5 -0.3125q0.296875 -0.109375 0.578125 -0.109375q0.203125 0 0.328125 0.03125q0.125 0.015625 0.234375 0.0625l0 0.84375q-0.15625 -0.0625 -0.328125 -0.09375q-0.171875 -0.046875 -0.34375 -0.046875q-0.359375 0 -0.65625 0.203125q-0.28125 0.1875 -0.453125 0.515625q-0.171875 0.328125 -0.171875 0.71875l0 2.65625l-0.78125 0zm5.327423 0.15625q-0.6875 0 -1.234375 -0.328125q-0.53125 -0.328125 -0.84375 -0.890625q-0.296875 -0.578125 -0.296875 -1.3125q0 -0.671875 0.28125 -1.25q0.296875 -0.578125 0.8125 -0.921875q0.515625 -0.359375 1.21875 -0.359375q0.703125 0 1.203125 0.3125q0.515625 0.3125 0.796875 0.859375q0.28125 0.546875 0.28125 1.265625q0 0.0625 -0.015625 0.125q0 0.0625 -0.015625 0.109375l-4.09375 0l0 -0.640625l3.28125 0q-0.015625 -0.203125 -0.09375 -0.421875q-0.078125 -0.234375 -0.25 -0.4375q-0.171875 -0.203125 -0.4375 -0.328125q-0.265625 -0.125 -0.65625 -0.125q-0.46875 0 -0.8125 0.234375q-0.328125 0.234375 -0.515625 0.65625q-0.1875 0.40625 -0.1875 0.921875q0 0.609375 0.234375 1.015625q0.234375 0.40625 0.59375 0.609375q0.375 0.1875 0.78125 0.1875q0.515625 0 0.859375 -0.25q0.34375 -0.25 0.546875 -0.609375l0.671875 0.328125q-0.28125 0.53125 -0.8125 0.890625q-0.515625 0.359375 -1.296875 0.359375zm3.1423645 -0.15625l0 -4.75l0.75 0l0 0.6875l0.03125 0q0.1875 -0.34375 0.609375 -0.59375q0.4375 -0.25 0.9375 -0.25q0.875 0 1.3125 0.515625q0.453125 0.5 0.453125 1.34375l0 3.046875l-0.796875 0l0 -2.921875q0 -0.703125 -0.328125 -0.984375q-0.328125 -0.28125 -0.859375 -0.28125q-0.390625 0 -0.6875 0.21875q-0.296875 0.21875 -0.46875 0.5625q-0.171875 0.34375 -0.171875 0.734375l0 2.671875l-0.78125 0zm5.748703 -3.625q-0.25 0 -0.421875 -0.171875q-0.171875 -0.171875 -0.171875 -0.421875q0 -0.25 0.171875 -0.421875q0.171875 -0.171875 0.421875 -0.171875q0.25 0 0.421875 0.171875q0.171875 0.171875 0.171875 0.421875q0 0.25 -0.171875 0.421875q-0.171875 0.171875 -0.421875 0.171875zm0 3.6875q-0.25 0 -0.421875 -0.171875q-0.171875 -0.1875 -0.171875 -0.4375q0 -0.234375 0.171875 -0.40625q0.171875 -0.171875 0.421875 -0.171875q0.25 0 0.421875 0.171875q0.171875 0.171875 0.171875 0.40625q0 0.25 -0.171875 0.4375q-0.171875 0.171875 -0.421875 0.171875zm3.5404663 -4.8125l2.78125 0l0 0.703125l-2.78125 0l0 -0.703125zm0.828125 3.5l0 -4.84375l0.796875 0l0 4.640625q0 0.375 0.140625 0.59375q0.15625 0.203125 0.515625 0.203125q0.15625 0 0.28125 -0.046875q0.140625 -0.046875 0.234375 -0.125l0 0.78125q-0.109375 0.0625 -0.265625 0.09375q-0.140625 0.03125 -0.375 0.03125q-0.609375 0 -0.96875 -0.34375q-0.359375 -0.359375 -0.359375 -0.984375zm4.8088074 1.40625q-0.6875 0 -1.234375 -0.328125q-0.53125 -0.328125 -0.84375 -0.890625q-0.296875 -0.578125 -0.296875 -1.3125q0 -0.671875 0.28125 -1.25q0.296875 -0.578125 0.8125 -0.921875q0.515625 -0.359375 1.21875 -0.359375q0.703125 0 1.203125 0.3125q0.515625 0.3125 0.796875 0.859375q0.28125 0.546875 0.28125 1.265625q0 0.0625 -0.015625 0.125q0 0.0625 -0.015625 0.109375l-4.09375 0l0 -0.640625l3.28125 0q-0.015625 -0.203125 -0.09375 -0.421875q-0.078125 -0.234375 -0.25 -0.4375q-0.171875 -0.203125 -0.4375 -0.328125q-0.265625 -0.125 -0.65625 -0.125q-0.46875 0 -0.8125 0.234375q-0.328125 0.234375 -0.515625 0.65625q-0.1875 0.40625 -0.1875 0.921875q0 0.609375 0.234375 1.015625q0.234375 0.40625 0.59375 0.609375q0.375 0.1875 0.78125 0.1875q0.515625 0 0.859375 -0.25q0.34375 -0.25 0.546875 -0.609375l0.671875 0.328125q-0.28125 0.53125 -0.8125 0.890625q-0.515625 0.359375 -1.296875 0.359375zm2.5802765 -0.15625l1.90625 -2.734375l0.078125 0l1.34375 -2.015625l0.9375 0l-1.859375 2.609375l-0.0625 0l-1.421875 2.140625l-0.921875 0zm0.03125 -4.75l0.890625 0l1.484375 2.109375l0.03125 0l1.859375 2.640625l-0.921875 0l-1.421875 -2.109375l-0.0625 0l-1.859375 -2.640625zm4.652176 0l2.78125 0l0 0.703125l-2.78125 0l0 -0.703125zm0.828125 3.5l0 -4.84375l0.796875 0l0 4.640625q0 0.375 0.140625 0.59375q0.15625 0.203125 0.515625 0.203125q0.15625 0 0.28125 -0.046875q0.140625 -0.046875 0.234375 -0.125l0 0.78125q-0.109375 0.0625 -0.265625 0.09375q-0.140625 0.03125 -0.375 0.03125q-0.609375 0 -0.96875 -0.34375q-0.359375 -0.359375 -0.359375 -0.984375zm4.553261 0.84375l6.171875 -6.328125l0.46875 0.46875l-6.171875 6.328125l-0.46875 -0.46875zm6.171875 0.46875l-6.171875 -6.328125l0.46875 -0.46875l6.171875 6.328125l-0.46875 0.46875zm3.1268768 -0.0625l0 -0.796875q0.03125 -0.03125 0.21875 -0.21875q0.203125 -0.203125 0.484375 -0.484375q0.296875 -0.296875 0.609375 -0.609375q0.3125 -0.328125 0.59375 -0.609375q0.28125 -0.296875 0.4375 -0.46875q0.28125 -0.3125 0.453125 -0.546875q0.1875 -0.234375 0.265625 -0.453125q0.09375 -0.21875 0.09375 -0.5q0 -0.28125 -0.140625 -0.515625q-0.140625 -0.25 -0.40625 -0.40625q-0.265625 -0.171875 -0.671875 -0.171875q-0.375 0 -0.640625 0.171875q-0.25 0.15625 -0.390625 0.375q-0.140625 0.21875 -0.1875 0.390625l-0.71875 -0.28125q0.0625 -0.203125 0.203125 -0.4375q0.15625 -0.234375 0.390625 -0.453125q0.234375 -0.21875 0.578125 -0.359375q0.34375 -0.15625 0.78125 -0.15625q0.609375 0 1.046875 0.265625q0.453125 0.25 0.703125 0.671875q0.25 0.40625 0.25 0.890625q0 0.421875 -0.15625 0.796875q-0.15625 0.375 -0.390625 0.6875q-0.234375 0.3125 -0.484375 0.546875q-0.109375 0.109375 -0.328125 0.328125q-0.21875 0.21875 -0.46875 0.46875q-0.234375 0.25 -0.46875 0.484375q-0.234375 0.21875 -0.40625 0.40625q-0.171875 0.171875 -0.234375 0.234375l0 0l3.015625 0l0 0.75l-4.03125 0z" fill-rule="nonzero"/><path fill="#000000" fill-opacity="0.0" d="m88.28609 66.9462l0.4409485 -17.637798" fill-rule="evenodd"/><path stroke="#ff0000" stroke-width="1.0" stroke-linejoin="round" stroke-linecap="butt" d="m88.28609 66.9462l0.34622192 -13.848984" fill-rule="evenodd"/><path fill="#ff0000" stroke="#ff0000" stroke-width="1.0" stroke-linecap="butt" d="m88.71454 49.808243c0.908226 0.022705078 1.6260757 0.77737427 1.6033707 1.6855965c-0.022705078 0.908226 -0.77737427 1.6260796 -1.6855927 1.6033745c-0.908226 -0.022705078 -1.6260834 -0.77737427 -1.6033783 -1.6855965c0.022705078 -0.908226 0.77737427 -1.6260796 1.6856003 -1.6033745z" fill-rule="nonzero"/><path fill="#000000" fill-opacity="0.0" d="m217.2546 65.1063l23.46457 0l0 11.307083l-23.46457 0z" fill-rule="evenodd"/><path fill="#000000" d="m220.76794 74.0663l0 -6.671875l0.796875 0l0 6.671875l-0.796875 0zm4.192047 0.15625q-0.703125 0 -1.25 -0.328125q-0.546875 -0.34375 -0.859375 -0.90625q-0.3125 -0.578125 -0.3125 -1.296875q0 -0.734375 0.3125 -1.296875q0.3125 -0.578125 0.859375 -0.90625q0.546875 -0.328125 1.25 -0.328125q0.796875 0 1.3125 0.375q0.515625 0.359375 0.734375 0.9375l-0.71875 0.296875q-0.171875 -0.4375 -0.53125 -0.65625q-0.34375 -0.234375 -0.84375 -0.234375q-0.421875 0 -0.78125 0.234375q-0.359375 0.21875 -0.578125 0.625q-0.21875 0.40625 -0.21875 0.953125q0 0.53125 0.21875 0.953125q0.21875 0.40625 0.578125 0.640625q0.359375 0.21875 0.78125 0.21875q0.5 0 0.859375 -0.234375q0.375 -0.234375 0.546875 -0.671875l0.71875 0.296875q-0.234375 0.5625 -0.765625 0.953125q-0.515625 0.375 -1.3125 0.375zm5.0777435 0q-0.71875 0 -1.28125 -0.328125q-0.546875 -0.34375 -0.859375 -0.921875q-0.3125 -0.578125 -0.3125 -1.28125q0 -0.71875 0.3125 -1.28125q0.3125 -0.578125 0.859375 -0.90625q0.5625 -0.34375 1.28125 -0.34375q0.71875 0 1.265625 0.34375q0.546875 0.34375 0.859375 0.921875q0.3125 0.5625 0.3125 1.265625q0 0.703125 -0.3125 1.28125q-0.3125 0.578125 -0.859375 0.921875q-0.546875 0.328125 -1.265625 0.328125zm0 -0.71875q0.421875 0 0.796875 -0.21875q0.390625 -0.21875 0.625 -0.625q0.234375 -0.40625 0.234375 -0.96875q0 -0.578125 -0.234375 -0.984375q-0.234375 -0.40625 -0.625 -0.609375q-0.375 -0.21875 -0.796875 -0.21875q-0.4375 0 -0.828125 0.21875q-0.375 0.203125 -0.609375 0.609375q-0.21875 0.40625 -0.21875 0.984375q0 0.5625 0.21875 0.96875q0.234375 0.40625 0.609375 0.625q0.390625 0.21875 0.828125 0.21875zm3.2787476 0.5625l0 -4.75l0.75 0l0 0.6875l0.03125 0q0.1875 -0.34375 0.609375 -0.59375q0.4375 -0.25 0.9375 -0.25q0.875 0 1.3125 0.515625q0.453125 0.5 0.453125 1.34375l0 3.046875l-0.796875 0l0 -2.921875q0 -0.703125 -0.328125 -0.984375q-0.328125 -0.28125 -0.859375 -0.28125q-0.390625 0 -0.6875 0.21875q-0.296875 0.21875 -0.46875 0.5625q-0.171875 0.34375 -0.171875 0.734375l0 2.671875l-0.78125 0z" fill-rule="nonzero"/><path fill="#000000" fill-opacity="0.0" d="m228.98688 65.1063l0.75590515 -31.2126" fill-rule="evenodd"/><path stroke="#ff0000" stroke-width="1.0" stroke-linejoin="round" stroke-linecap="butt" d="m228.98688 65.1063l0.6641388 -27.42371" fill-rule="evenodd"/><path fill="#ff0000" stroke="#ff0000" stroke-width="1.0" stroke-linecap="butt" d="m229.73068 34.393555c0.90823364 0.021995544 1.6266785 0.776104 1.6046906 1.6843452c-0.022003174 0.9082413 -0.7761078 1.6266861 -1.6843567 1.6046906c-0.90823364 -0.021995544 -1.6266785 -0.776104 -1.6046906 -1.6843452c0.022003174 -0.9082413 0.7761078 -1.6266861 1.6843567 -1.6046906z" fill-rule="nonzero"/><path fill="#000000" fill-opacity="0.0" d="m271.67715 65.1063l23.46457 0l0 11.307083l-23.46457 0z" fill-rule="evenodd"/><path fill="#000000" d="m276.84552 74.0663l0 -6.203125l0.78125 0l0 6.203125l-0.78125 0zm-1.875 -5.921875l0 -0.75l4.53125 0l0 0.75l-4.53125 0zm6.725006 6.078125q-0.6875 0 -1.234375 -0.328125q-0.53125 -0.328125 -0.84375 -0.890625q-0.296875 -0.578125 -0.296875 -1.3125q0 -0.671875 0.28125 -1.25q0.296875 -0.578125 0.8125 -0.921875q0.515625 -0.359375 1.21875 -0.359375q0.703125 0 1.203125 0.3125q0.515625 0.3125 0.796875 0.859375q0.28125 0.546875 0.28125 1.265625q0 0.0625 -0.015625 0.125q0 0.0625 -0.015625 0.109375l-4.09375 0l0 -0.640625l3.28125 0q-0.015625 -0.203125 -0.09375 -0.421875q-0.078125 -0.234375 -0.25 -0.4375q-0.171875 -0.203125 -0.4375 -0.328125q-0.265625 -0.125 -0.65625 -0.125q-0.46875 0 -0.8125 0.234375q-0.328125 0.234375 -0.515625 0.65625q-0.1875 0.40625 -0.1875 0.921875q0 0.609375 0.234375 1.015625q0.234375 0.40625 0.59375 0.609375q0.375 0.1875 0.78125 0.1875q0.515625 0 0.859375 -0.25q0.34375 -0.25 0.546875 -0.609375l0.671875 0.328125q-0.28125 0.53125 -0.8125 0.890625q-0.515625 0.359375 -1.296875 0.359375zm2.5802612 -0.15625l1.90625 -2.734375l0.078125 0l1.34375 -2.015625l0.9375 0l-1.859375 2.609375l-0.0625 0l-1.421875 2.140625l-0.921875 0zm0.03125 -4.75l0.890625 0l1.484375 2.109375l0.03125 0l1.859375 2.640625l-0.921875 0l-1.421875 -2.109375l-0.0625 0l-1.859375 -2.640625zm4.652191 0l2.78125 0l0 0.703125l-2.78125 0l0 -0.703125zm0.828125 3.5l0 -4.84375l0.796875 0l0 4.640625q0 0.375 0.140625 0.59375q0.15625 0.203125 0.515625 0.203125q0.15625 0 0.28125 -0.046875q0.140625 -0.046875 0.234375 -0.125l0 0.78125q-0.109375 0.0625 -0.265625 0.09375q-0.140625 0.03125 -0.375 0.03125q-0.609375 0 -0.96875 -0.34375q-0.359375 -0.359375 -0.359375 -0.984375z" fill-rule="nonzero"/><path fill="#000000" fill-opacity="0.0" d="m283.40945 65.1063l0.7558899 -31.2126" fill-rule="evenodd"/><path stroke="#ff0000" stroke-width="1.0" stroke-linejoin="round" stroke-linecap="butt" d="m283.40945 65.1063l0.66415405 -27.42371" fill-rule="evenodd"/><path fill="#ff0000" stroke="#ff0000" stroke-width="1.0" stroke-linecap="butt" d="m284.15326 34.393555c0.90823364 0.021995544 1.6266785 0.776104 1.6046753 1.6843452c-0.022003174 0.9082413 -0.7760925 1.6266861 -1.6843262 1.6046906c-0.90826416 -0.021995544 -1.626709 -0.776104 -1.6047058 -1.6843452c0.022003174 -0.9082413 0.7760925 -1.6266861 1.6843567 -1.6046906z" fill-rule="nonzero"/></g></svg>