<svg version="1.1" viewBox="0.0 0.0 216.42257217847768 384.750656167979" fill="none" stroke="none" stroke-linecap="square" stroke-miterlimit="10" xmlns:xlink="http://www.w3.org/1999/xlink" xmlns="http://www.w3.org/2000/svg"><clipPath id="p.0"><path d="m0 0l216.42258 0l0 384.75067l-216.42258 0l0 -384.75067z" clip-rule="nonzero"/></clipPath><g clip-path="url(#p.0)"><path fill="#000000" fill-opacity="0.0" d="m0 0l216.42258 0l0 384.75067l-216.42258 0z" fill-rule="evenodd"/><path fill="#ffffff" d="m0 0l216.0 0l0 384.0l-216.0 0z" fill-rule="evenodd"/><path stroke="#000000" stroke-width="1.0" stroke-linejoin="round" stroke-linecap="butt" d="m0 0l216.0 0l0 384.0l-216.0 0z" fill-rule="evenodd"/><path fill="#efefef" d="m0 0l216.0 0l0 144.0l-216.0 0z" fill-rule="evenodd"/><path stroke="#999999" stroke-width="1.0" stroke-linejoin="round" stroke-linecap="butt" d="m0 0l216.0 0l0 144.0l-216.0 0z" fill-rule="evenodd"/><path fill="#000000" d="m83.41865 78.92l0 -13.359375l1.578125 0l0 13.359375l-1.578125 0zm4.2426605 0l0 -9.515625l1.515625 0l0 1.40625l0.078125 0q0.25 -0.46875 0.703125 -0.84375q0.46875 -0.390625 1.046875 -0.625q0.59375 -0.234375 1.21875 -0.234375q1.0625 0 1.828125 0.515625q0.765625 0.515625 1.09375 1.328125q0.484375 -0.796875 1.296875 -1.3125q0.828125 -0.53125 1.96875 -0.53125q1.703125 0 2.5 1.03125q0.796875 1.015625 0.796875 2.6875l0 6.09375l-1.5625 0l0 -5.859375q0 -1.375 -0.5625 -1.9375q-0.5625 -0.578125 -1.578125 -0.578125q-0.734375 0 -1.3125 0.421875q-0.5625 0.421875 -0.890625 1.109375q-0.3125 0.671875 -0.3125 1.46875l0 5.375l-1.59375 0l0 -5.84375q0 -1.375 -0.5625 -1.953125q-0.5625 -0.578125 -1.5625 -0.578125q-0.734375 0 -1.296875 0.4375q-0.5625 0.421875 -0.890625 1.109375q-0.328125 0.6875 -0.328125 1.5l0 5.328125l-1.59375 0zm19.277756 0.296875q-1.0625 0 -1.875 -0.40625q-0.796875 -0.40625 -1.25 -1.125q-0.453125 -0.71875 -0.453125 -1.640625q0 -1.046875 0.53125 -1.765625q0.546875 -0.71875 1.453125 -1.078125q0.921875 -0.359375 2.015625 -0.359375q0.640625 0 1.171875 0.109375q0.546875 0.09375 0.9375 0.234375q0.40625 0.140625 0.625 0.265625l0 -0.578125q0 -1.078125 -0.765625 -1.703125q-0.765625 -0.640625 -1.875 -0.640625q-0.78125 0 -1.46875 0.34375q-0.671875 0.34375 -1.0625 0.953125l-1.203125 -0.890625q0.375 -0.5625 0.9375 -0.96875q0.5625 -0.40625 1.28125 -0.625q0.71875 -0.234375 1.515625 -0.234375q1.9375 0 3.03125 1.03125q1.109375 1.015625 1.109375 2.75l0 6.03125l-1.5 0l0 -1.359375l-0.078125 0q-0.25 0.40625 -0.703125 0.796875q-0.4375 0.375 -1.046875 0.609375q-0.609375 0.25 -1.328125 0.25zm0.140625 -1.390625q0.828125 0 1.5 -0.40625q0.6875 -0.421875 1.09375 -1.109375q0.421875 -0.6875 0.421875 -1.515625q-0.4375 -0.296875 -1.078125 -0.484375q-0.640625 -0.1875 -1.40625 -0.1875q-1.359375 0 -2.0 0.5625q-0.640625 0.5625 -0.640625 1.375q0 0.78125 0.59375 1.28125q0.609375 0.484375 1.515625 0.484375zm10.813126 5.421875q-1.21875 0 -2.09375 -0.40625q-0.859375 -0.390625 -1.390625 -1.015625q-0.53125 -0.609375 -0.75 -1.25l1.453125 -0.609375q0.296875 0.78125 1.015625 1.3125q0.71875 0.53125 1.765625 0.53125q1.484375 0 2.28125 -0.875q0.8125 -0.859375 0.8125 -2.40625l0 -1.0625l-0.078125 0q-0.453125 0.6875 -1.296875 1.171875q-0.828125 0.46875 -1.953125 0.46875q-1.21875 0 -2.25 -0.625q-1.015625 -0.640625 -1.609375 -1.765625q-0.59375 -1.140625 -0.59375 -2.609375q0 -1.46875 0.59375 -2.59375q0.59375 -1.140625 1.609375 -1.765625q1.03125 -0.640625 2.25 -0.640625q1.125 0 1.953125 0.484375q0.84375 0.46875 1.296875 1.171875l0.078125 0l0 -1.359375l1.515625 0l0 9.140625q0 1.59375 -0.609375 2.625q-0.609375 1.046875 -1.65625 1.5625q-1.03125 0.515625 -2.34375 0.515625zm0 -5.578125q0.828125 0 1.53125 -0.421875q0.71875 -0.421875 1.140625 -1.21875q0.421875 -0.796875 0.421875 -1.921875q0 -1.15625 -0.421875 -1.953125q-0.421875 -0.796875 -1.140625 -1.203125q-0.703125 -0.40625 -1.53125 -0.40625q-0.84375 0 -1.5625 0.421875q-0.703125 0.421875 -1.140625 1.21875q-0.421875 0.78125 -0.421875 1.921875q0 1.140625 0.421875 1.9375q0.4375 0.78125 1.140625 1.203125q0.71875 0.421875 1.5625 0.421875zm11.091316 1.546875q-1.3749924 0 -2.4531174 -0.640625q-1.0625 -0.65625 -1.671875 -1.796875q-0.609375 -1.140625 -0.609375 -2.59375q0 -1.359375 0.5625 -2.515625q0.578125 -1.15625 1.609375 -1.859375q1.03125 -0.703125 2.4374924 -0.703125q1.421875 0 2.4375 0.625q1.015625 0.625 1.5625 1.734375q0.546875 1.09375 0.546875 2.515625q0 0.125 -0.015625 0.265625q0 0.125 -0.015625 0.21875l-8.187492 0l0 -1.3125l6.5468674 0q-0.015625 -0.390625 -0.1875 -0.84375q-0.15625 -0.46875 -0.5 -0.859375q-0.34375 -0.40625 -0.875 -0.65625q-0.53125 -0.25 -1.3125 -0.25q-0.9374924 0 -1.6249924 0.484375q-0.671875 0.46875 -1.046875 1.296875q-0.359375 0.8125 -0.359375 1.859375q0 1.203125 0.46875 2.015625q0.46875 0.796875 1.203125 1.1875q0.7499924 0.390625 1.5468674 0.390625q1.046875 0 1.71875 -0.484375q0.6875 -0.5 1.09375 -1.234375l1.34375 0.65625q-0.5625 1.078125 -1.609375 1.796875q-1.03125 0.703125 -2.609375 0.703125z" fill-rule="nonzero"/><path fill="#000000" fill-opacity="0.0" d="m0 0l216.0 143.77953" fill-rule="evenodd"/><path stroke="#999999" stroke-width="1.0" stroke-linejoin="round" stroke-linecap="butt" d="m0 0l216.0 143.77953" fill-rule="evenodd"/><path fill="#000000" fill-opacity="0.0" d="m216.0 0l-216.0 143.77953" fill-rule="evenodd"/><path stroke="#999999" stroke-width="1.0" stroke-linejoin="round" stroke-linecap="butt" d="m216.0 0l-216.0 143.77953" fill-rule="evenodd"/><path fill="#ffffff" d="m9.6 153.6l196.7874 0l0 38.393692l-196.7874 0z" fill-rule="evenodd"/><path stroke="#b7b7b7" stroke-width="1.0" stroke-linejoin="round" stroke-linecap="butt" d="m9.6 153.6l196.7874 0l0 38.393692l-196.7874 0z" fill-rule="evenodd"/><path fill="#000000" d="m88.866905 178.65685l0 -11.453125l3.875 0q0.953125 0 1.765625 0.4375q0.8125 0.421875 1.296875 1.1875q0.484375 0.75 0.484375 1.765625q0 0.609375 -0.234375 1.21875q-0.21875 0.59375 -0.6875 1.09375q-0.46875 0.484375 -1.203125 0.78125q-0.71875 0.296875 -1.734375 0.296875l-2.84375 0l0 -1.265625l3.078125 0q0.578125 0 1.09375 -0.265625q0.515625 -0.28125 0.828125 -0.75q0.328125 -0.484375 0.328125 -1.109375q0 -0.515625 -0.265625 -0.984375q-0.265625 -0.484375 -0.75 -0.796875q-0.46875 -0.3125 -1.140625 -0.3125l-2.53125 0l0 10.15625l-1.359375 0zm2.765625 -5.25l1.484375 -0.078125l3.625 5.265625l0 0.0625l-1.609375 0l-3.5 -5.25zm9.934769 5.5q-1.234375 0 -2.1875 -0.5625q-0.9375 -0.578125 -1.46875 -1.5625q-0.53125 -0.984375 -0.53125 -2.203125q0 -1.21875 0.53125 -2.203125q0.53125 -0.984375 1.46875 -1.5625q0.953125 -0.578125 2.1875 -0.578125q1.234375 0 2.171875 0.59375q0.953125 0.578125 1.484375 1.5625q0.53125 0.984375 0.53125 2.1875q0 1.21875 -0.53125 2.203125q-0.53125 0.984375 -1.484375 1.5625q-0.9375 0.5625 -2.171875 0.5625zm0 -1.21875q0.734375 0 1.375 -0.375q0.65625 -0.375 1.046875 -1.0625q0.40625 -0.703125 0.40625 -1.671875q0 -0.984375 -0.40625 -1.671875q-0.390625 -0.703125 -1.046875 -1.0625q-0.640625 -0.375 -1.375 -0.375q-0.734375 0 -1.390625 0.375q-0.65625 0.359375 -1.0625 1.0625q-0.390625 0.6875 -0.390625 1.671875q0 0.96875 0.390625 1.671875q0.40625 0.6875 1.0625 1.0625q0.65625 0.375 1.390625 0.375zm7.3447723 0.96875l-2.625 -8.15625l1.40625 0l1.9375 6.4375l0.015625 0l2.0625 -6.4375l1.390625 0l2.0625 6.421875l0.03125 0l1.921875 -6.421875l1.375 0l-2.625 8.15625l-1.390625 0l-2.109375 -6.515625l0 0l-2.09375 6.515625l-1.359375 0zm16.753403 0l0 -9.046875l-1.921875 1.390625l-0.703125 -1.046875l3.125 -2.234375l0.859375 0l0 10.9375l-1.359375 0z" fill-rule="nonzero"/><path fill="#ffffff" d="m9.606299 201.5958l196.78741 0l0 38.393707l-196.78741 0z" fill-rule="evenodd"/><path stroke="#b7b7b7" stroke-width="1.0" stroke-linejoin="round" stroke-linecap="butt" d="m9.606299 201.5958l196.78741 0l0 38.393707l-196.78741 0z" fill-rule="evenodd"/><path fill="#000000" d="m87.70521 226.65265l0 -11.453125l3.875 0q0.953125 0 1.765625 0.4375q0.8125 0.421875 1.296875 1.1875q0.484375 0.75 0.484375 1.765625q0 0.609375 -0.234375 1.21875q-0.21875 0.59375 -0.6875 1.09375q-0.46875 0.484375 -1.203125 0.78125q-0.71875 0.296875 -1.734375 0.296875l-2.84375 0l0 -1.265625l3.078125 0q0.578125 0 1.09375 -0.265625q0.515625 -0.28125 0.828125 -0.75q0.328125 -0.484375 0.328125 -1.109375q0 -0.515625 -0.265625 -0.984375q-0.265625 -0.484375 -0.75 -0.796875q-0.46875 -0.3125 -1.140625 -0.3125l-2.53125 0l0 10.15625l-1.359375 0zm2.765625 -5.25l1.484375 -0.078125l3.625 5.265625l0 0.0625l-1.609375 0l-3.5 -5.25zm9.934769 5.5q-1.234375 0 -2.1875 -0.5625q-0.9375 -0.578125 -1.46875 -1.5625q-0.53125 -0.984375 -0.53125 -2.203125q0 -1.21875 0.53125 -2.203125q0.53125 -0.984375 1.46875 -1.5625q0.953125 -0.578125 2.1875 -0.578125q1.234375 0 2.171875 0.59375q0.953125 0.578125 1.484375 1.5625q0.53125 0.984375 0.53125 2.1875q0 1.21875 -0.53125 2.203125q-0.53125 0.984375 -1.484375 1.5625q-0.9375 0.5625 -2.171875 0.5625zm0 -1.21875q0.734375 0 1.375 -0.375q0.65625 -0.375 1.046875 -1.0625q0.40625 -0.703125 0.40625 -1.671875q0 -0.984375 -0.40625 -1.671875q-0.390625 -0.703125 -1.046875 -1.0625q-0.640625 -0.375 -1.375 -0.375q-0.734375 0 -1.390625 0.375q-0.65625 0.359375 -1.0625 1.0625q-0.390625 0.6875 -0.390625 1.671875q0 0.96875 0.390625 1.671875q0.40625 0.6875 1.0625 1.0625q0.65625 0.375 1.390625 0.375zm7.3447723 0.96875l-2.625 -8.15625l1.40625 0l1.9375 6.4375l0.015625 0l2.0625 -6.4375l1.390625 0l2.0625 6.421875l0.03125 0l1.921875 -6.421875l1.375 0l-2.625 8.15625l-1.390625 0l-2.109375 -6.515625l0 0l-2.09375 6.515625l-1.359375 0zm14.128403 0l0 -1.359375q0.046875 -0.046875 0.375 -0.375q0.34375 -0.34375 0.84375 -0.84375q0.5 -0.515625 1.03125 -1.0625q0.546875 -0.546875 1.015625 -1.03125q0.484375 -0.5 0.75 -0.796875q0.5 -0.546875 0.796875 -0.9375q0.3125 -0.390625 0.453125 -0.765625q0.140625 -0.375 0.140625 -0.875q0 -0.46875 -0.25 -0.890625q-0.234375 -0.421875 -0.6875 -0.6875q-0.453125 -0.28125 -1.140625 -0.28125q-0.640625 0 -1.078125 0.28125q-0.4375 0.265625 -0.6875 0.640625q-0.234375 0.375 -0.3125 0.6875l-1.234375 -0.5q0.09375 -0.34375 0.34375 -0.75q0.25 -0.40625 0.65625 -0.78125q0.40625 -0.375 0.984375 -0.625q0.59375 -0.25 1.359375 -0.25q1.046875 0 1.8125 0.453125q0.765625 0.4375 1.1874924 1.15625q0.421875 0.703125 0.421875 1.53125q0 0.71875 -0.28125 1.375q-0.265625 0.640625 -0.6718674 1.171875q-0.390625 0.53125 -0.796875 0.921875q-0.21875 0.203125 -0.59375 0.578125q-0.359375 0.375 -0.78125 0.796875q-0.40625 0.421875 -0.8125 0.828125q-0.390625 0.390625 -0.6875 0.703125q-0.296875 0.296875 -0.40625 0.390625l0 0l5.1562424 0l0 1.296875l-6.9062424 0z" fill-rule="nonzero"/><path fill="#efefef" d="m9.601049 249.59055l196.78741 0l0 76.787415l-196.78741 0z" fill-rule="evenodd"/><path stroke="#b7b7b7" stroke-width="1.0" stroke-linejoin="round" stroke-linecap="butt" d="m9.601049 249.59055l196.78741 0l0 76.787415l-196.78741 0z" fill-rule="evenodd"/><path fill="#000000" d="m96.71572 293.84424l0 -10.640625l1.359375 0l0 10.640625l-1.359375 0zm-3.203125 -10.15625l0 -1.296875l7.765625 0l0 1.296875l-7.765625 0zm11.546768 10.40625q-1.1875 0 -2.109375 -0.546875q-0.921875 -0.5625 -1.4375 -1.53125q-0.515625 -0.984375 -0.515625 -2.234375q0 -1.171875 0.484375 -2.15625q0.484375 -1.0 1.375 -1.59375q0.890625 -0.609375 2.09375 -0.609375q1.21875 0 2.078125 0.546875q0.875 0.53125 1.34375 1.484375q0.484375 0.9375 0.484375 2.15625q0 0.109375 -0.015625 0.21875q0 0.109375 -0.015625 0.1875l-7.03125 0l0 -1.109375l5.609375 0q-0.015625 -0.34375 -0.15625 -0.734375q-0.125 -0.390625 -0.421875 -0.734375q-0.296875 -0.34375 -0.75 -0.5625q-0.453125 -0.21875 -1.125 -0.21875q-0.796875 0 -1.390625 0.40625q-0.578125 0.40625 -0.890625 1.125q-0.3125 0.703125 -0.3125 1.59375q0 1.03125 0.390625 1.734375q0.40625 0.6875 1.03125 1.03125q0.640625 0.328125 1.328125 0.328125q0.890625 0 1.46875 -0.421875q0.59375 -0.4375 0.953125 -1.0625l1.140625 0.5625q-0.46875 0.9375 -1.375 1.546875q-0.890625 0.59375 -2.234375 0.59375zm4.410507 -0.25l3.265625 -4.6875l0.140625 0l2.328125 -3.46875l1.59375 0l-3.1875 4.5l-0.109375 0l-2.4375 3.65625l-1.59375 0zm0.0625 -8.15625l1.546875 0l2.53125 3.625l0.0625 0l3.171875 4.53125l-1.578125 0l-2.4375 -3.609375l-0.109375 0l-3.1875 -4.546875zm7.9795227 0l4.78125 0l0 1.234375l-4.78125 0l0 -1.234375zm1.421875 6.015625l0 -8.328125l1.359375 0l0 7.984375q0 0.640625 0.265625 1.0q0.265625 0.34375 0.875 0.34375q0.265625 0 0.484375 -0.078125q0.234375 -0.078125 0.40625 -0.1875l0 1.328125q-0.203125 0.09375 -0.453125 0.140625q-0.25 0.0625 -0.671875 0.0625q-1.015625 0 -1.640625 -0.59375q-0.625 -0.609375 -0.625 -1.671875z" fill-rule="nonzero"/></g></svg>