<svg version="1.1" viewBox="0.0 0.0 298.3307086614173 100.0" fill="none" stroke="none" stroke-linecap="square" stroke-miterlimit="10" xmlns:xlink="http://www.w3.org/1999/xlink" xmlns="http://www.w3.org/2000/svg"><clipPath id="p.0"><path d="m0 0l298.33072 0l0 100.0l-298.33072 0l0 -100.0z" clip-rule="nonzero"/></clipPath><g clip-path="url(#p.0)"><path fill="#000000" fill-opacity="0.0" d="m0 0l298.33072 0l0 100.0l-298.33072 0z" fill-rule="evenodd"/><path fill="#ffffff" d="m1.671916 1.7060367l295.18112 0l0 57.133667l-295.18112 0z" fill-rule="evenodd"/><path stroke="#b7b7b7" stroke-width="1.0" stroke-linejoin="round" stroke-linecap="butt" d="m1.671916 1.7060367l295.18112 0l0 57.133667l-295.18112 0z" fill-rule="evenodd"/><path fill="#efefef" d="m59.267193 8.853603l43.181103 0l0 42.83853l-43.181103 0z" fill-rule="evenodd"/><path stroke="#999999" stroke-width="1.0" stroke-linejoin="round" stroke-linecap="butt" d="m59.267193 8.853603l43.181103 0l0 42.83853l-43.181103 0z" fill-rule="evenodd"/><path fill="#000000" fill-opacity="0.0" d="m59.266403 35.66518l43.181107 0l0 14.435741l-43.181107 0z" fill-rule="evenodd"/><path fill="#000000" d="m74.469215 48.305923q-0.625 0 -1.171875 -0.21875q-0.546875 -0.234375 -0.953125 -0.640625q-0.390625 -0.40625 -0.625 -0.953125q-0.21875 -0.546875 -0.21875 -1.171875q0 -0.640625 0.21875 -1.1875q0.234375 -0.546875 0.625 -0.953125q0.40625 -0.40625 0.953125 -0.625q0.546875 -0.234375 1.171875 -0.234375q0.4375 0 0.8125 0.125q0.390625 0.109375 0.703125 0.3125q0.328125 0.203125 0.578125 0.5l-0.484375 0.46875q-0.21875 -0.265625 -0.46875 -0.421875q-0.234375 -0.171875 -0.53125 -0.25q-0.28125 -0.078125 -0.609375 -0.078125q-0.609375 0 -1.140625 0.296875q-0.515625 0.28125 -0.828125 0.8125q-0.3125 0.515625 -0.3125 1.234375q0 0.703125 0.3125 1.234375q0.3125 0.53125 0.828125 0.828125q0.53125 0.28125 1.140625 0.28125q0.375 0 0.6875 -0.109375q0.328125 -0.109375 0.59375 -0.296875q0.265625 -0.1875 0.484375 -0.453125l0.5 0.484375q-0.25 0.296875 -0.609375 0.53125q-0.34375 0.21875 -0.765625 0.359375q-0.40625 0.125 -0.890625 0.125zm2.7247925 -0.125l2.171875 -5.734375l0.765625 0l2.171875 5.734375l-0.734375 0l-1.578125 -4.28125l-0.21875 -0.609375l-0.046875 0l-0.21875 0.609375l-1.578125 4.28125l-0.734375 0zm2.46875 -1.578125l0 -0.640625l1.328125 0l0.234375 0.640625l-1.5625 0zm-1.546875 0l0.234375 -0.640625l1.3125 0l0 0.640625l-1.546875 0zm4.9536743 1.578125l0 -5.734375l0.671875 0l0 5.09375l2.515625 0l0 0.640625l-3.1875 0zm4.071945 0l0 -5.734375l0.671875 0l0 5.09375l2.515625 0l0 0.640625l-3.1875 0z" fill-rule="nonzero"/><path fill="#efefef" d="m196.06247 8.853603l43.181107 0l0 42.83853l-43.181107 0z" fill-rule="evenodd"/><path stroke="#999999" stroke-width="1.0" stroke-linejoin="round" stroke-linecap="butt" d="m196.06247 8.853603l43.181107 0l0 42.83853l-43.181107 0z" fill-rule="evenodd"/><path fill="#000000" fill-opacity="0.0" d="m196.06168 35.66518l43.181107 0l0 14.435741l-43.181107 0z" fill-rule="evenodd"/><path fill="#000000" d="m207.61877 48.305923q-0.40625 0 -0.8125 -0.171875q-0.40625 -0.171875 -0.71875 -0.515625q-0.3125 -0.34375 -0.46875 -0.859375l0.65625 -0.265625q0.140625 0.5 0.5 0.84375q0.359375 0.328125 0.859375 0.328125q0.328125 0 0.59375 -0.109375q0.265625 -0.125 0.421875 -0.34375q0.171875 -0.234375 0.171875 -0.546875q0 -0.296875 -0.140625 -0.484375q-0.140625 -0.203125 -0.421875 -0.359375q-0.28125 -0.15625 -0.6875 -0.296875l-0.359375 -0.140625q-0.234375 -0.078125 -0.484375 -0.203125q-0.234375 -0.125 -0.4375 -0.296875q-0.203125 -0.1875 -0.328125 -0.4375q-0.125 -0.25 -0.125 -0.609375q0 -0.40625 0.21875 -0.75q0.234375 -0.34375 0.625 -0.546875q0.390625 -0.21875 0.90625 -0.21875q0.53125 0 0.890625 0.203125q0.375 0.1875 0.578125 0.46875q0.21875 0.265625 0.28125 0.484375l-0.625 0.265625q-0.046875 -0.15625 -0.1875 -0.328125q-0.125 -0.1875 -0.359375 -0.3125q-0.234375 -0.125 -0.578125 -0.125q-0.28125 0 -0.53125 0.109375q-0.234375 0.109375 -0.390625 0.3125q-0.140625 0.1875 -0.140625 0.4375q0 0.375 0.28125 0.578125q0.296875 0.203125 0.78125 0.375l0.375 0.125q0.265625 0.09375 0.53125 0.21875q0.265625 0.125 0.5 0.328125q0.234375 0.203125 0.375 0.5q0.140625 0.28125 0.140625 0.6875q0 0.4375 -0.171875 0.765625q-0.171875 0.3125 -0.453125 0.515625q-0.28125 0.1875 -0.609375 0.28125q-0.328125 0.09375 -0.65625 0.09375zm2.9021912 -0.125l0 -5.734375l0.671875 0l0 5.734375l-0.671875 0zm0.359375 -2.609375l0 -0.640625l3.421875 0l0 0.640625l-3.421875 0zm3.265625 2.609375l0 -5.734375l0.671875 0l0 5.734375l-0.671875 0zm1.4432983 0l2.171875 -5.734375l0.765625 0l2.171875 5.734375l-0.734375 0l-1.578125 -4.28125l-0.21875 -0.609375l-0.046875 0l-0.21875 0.609375l-1.578125 4.28125l-0.734375 0zm2.46875 -1.578125l0 -0.640625l1.328125 0l0.234375 0.640625l-1.5625 0zm-1.546875 0l0.234375 -0.640625l1.3125 0l0 0.640625l-1.546875 0zm4.9536743 1.578125l0 -5.734375l1.9375 0q0.484375 0 0.875 0.21875q0.40625 0.21875 0.65625 0.609375q0.25 0.375 0.25 0.875q0 0.296875 -0.125 0.609375q-0.109375 0.296875 -0.34375 0.546875q-0.234375 0.25 -0.609375 0.390625q-0.359375 0.140625 -0.859375 0.140625l-1.421875 0l0 -0.625l1.53125 0q0.296875 0 0.546875 -0.125q0.265625 -0.140625 0.421875 -0.375q0.15625 -0.25 0.15625 -0.5625q0 -0.25 -0.125 -0.484375q-0.125 -0.25 -0.375 -0.40625q-0.234375 -0.15625 -0.578125 -0.15625l-1.265625 0l0 5.078125l-0.671875 0zm1.390625 -2.625l0.734375 -0.03125l1.8125 2.625l0 0.03125l-0.796875 0l-1.75 -2.625zm3.2973175 2.625l0 -5.734375l3.3125 0l0 0.65625l-2.640625 0l0 4.4375l2.640625 0l0 0.640625l-3.3125 0zm0.359375 -2.546875l0 -0.640625l2.703125 0l0 0.640625l-2.703125 0z" fill-rule="nonzero"/><path fill="#efefef" d="m127.66483 8.853603l43.1811 0l0 42.83853l-43.1811 0z" fill-rule="evenodd"/><path stroke="#999999" stroke-width="1.0" stroke-linejoin="round" stroke-linecap="butt" d="m127.66483 8.853603l43.1811 0l0 42.83853l-43.1811 0z" fill-rule="evenodd"/><path fill="#000000" fill-opacity="0.0" d="m127.66404 35.66518l43.1811 0l0 14.435741l-43.1811 0z" fill-rule="evenodd"/><path fill="#000000" d="m137.28738 48.180923l0 -5.734375l1.9375 0q0.484375 0 0.875 0.21875q0.40625 0.21875 0.65625 0.609375q0.25 0.375 0.25 0.875q0 0.296875 -0.125 0.609375q-0.109375 0.296875 -0.34375 0.546875q-0.234375 0.25 -0.609375 0.390625q-0.359375 0.140625 -0.859375 0.140625l-1.421875 0l0 -0.625l1.53125 0q0.296875 0 0.546875 -0.125q0.265625 -0.140625 0.421875 -0.375q0.15625 -0.25 0.15625 -0.5625q0 -0.25 -0.125 -0.484375q-0.125 -0.25 -0.375 -0.40625q-0.234375 -0.15625 -0.578125 -0.15625l-1.265625 0l0 5.078125l-0.671875 0zm1.390625 -2.625l0.734375 -0.03125l1.8125 2.625l0 0.03125l-0.796875 0l-1.75 -2.625zm5.9535675 2.75q-0.640625 0 -1.171875 -0.234375q-0.53125 -0.234375 -0.9375 -0.640625q-0.390625 -0.40625 -0.609375 -0.9375q-0.21875 -0.546875 -0.21875 -1.171875q0 -0.625 0.21875 -1.15625q0.21875 -0.546875 0.609375 -0.953125q0.40625 -0.421875 0.9375 -0.65625q0.53125 -0.234375 1.171875 -0.234375q0.625 0 1.15625 0.234375q0.546875 0.234375 0.9375 0.65625q0.40625 0.40625 0.625 0.953125q0.21875 0.53125 0.21875 1.15625q0 0.625 -0.21875 1.171875q-0.21875 0.53125 -0.625 0.9375q-0.390625 0.40625 -0.9375 0.640625q-0.53125 0.234375 -1.15625 0.234375zm0 -0.640625q0.625 0 1.125 -0.296875q0.515625 -0.296875 0.8125 -0.828125q0.3125 -0.53125 0.3125 -1.21875q0 -0.703125 -0.3125 -1.21875q-0.296875 -0.53125 -0.8125 -0.828125q-0.5 -0.296875 -1.125 -0.296875q-0.609375 0 -1.125 0.296875q-0.515625 0.296875 -0.828125 0.828125q-0.296875 0.515625 -0.296875 1.21875q0 0.6875 0.296875 1.21875q0.3125 0.53125 0.828125 0.828125q0.515625 0.296875 1.125 0.296875zm5.904419 0.640625q-0.625 0 -1.09375 -0.28125q-0.46875 -0.28125 -0.75 -0.78125q-0.265625 -0.515625 -0.265625 -1.1875l0 -3.609375l0.6875 0l0 3.640625q0 0.453125 0.15625 0.8125q0.15625 0.359375 0.46875 0.5625q0.328125 0.203125 0.796875 0.203125q0.46875 0 0.78125 -0.203125q0.328125 -0.203125 0.484375 -0.5625q0.171875 -0.359375 0.171875 -0.8125l0 -3.640625l0.671875 0l0 3.609375q0 0.671875 -0.25 1.1875q-0.25 0.5 -0.734375 0.78125q-0.46875 0.28125 -1.125 0.28125zm4.427063 -0.125l0 -5.3125l0.6875 0l0 5.3125l-0.6875 0zm-1.609375 -5.078125l0 -0.65625l3.890625 0l0 0.65625l-3.890625 0zm4.74144 5.078125l0 -5.734375l3.3125 0l0 0.65625l-2.640625 0l0 4.4375l2.640625 0l0 0.640625l-3.3125 0zm0.359375 -2.546875l0 -0.640625l2.703125 0l0 0.640625l-2.703125 0z" fill-rule="nonzero"/><path fill="#000000" fill-opacity="0.0" d="m4.3378916 67.30045l86.96063 0l0 22.614174l-86.96063 0z" fill-rule="evenodd"/><path fill="#000000" d="m6.8109903 76.26045l0 -6.671875l2.25 0q0.5625 0 1.03125 0.25q0.46875 0.25 0.75 0.703125q0.296875 0.4375 0.296875 1.015625q0 0.359375 -0.140625 0.71875q-0.125 0.34375 -0.40625 0.640625q-0.265625 0.28125 -0.6875 0.453125q-0.421875 0.171875 -1.015625 0.171875l-1.65625 0l0 -0.734375l1.78125 0q0.34375 0 0.640625 -0.15625q0.3125 -0.171875 0.484375 -0.453125q0.1875 -0.28125 0.1875 -0.640625q0 -0.296875 -0.15625 -0.578125q-0.140625 -0.28125 -0.421875 -0.453125q-0.28125 -0.1875 -0.671875 -0.1875l-1.46875 0l0 5.921875l-0.796875 0zm1.609375 -3.0625l0.875 -0.046875l2.09375 3.078125l0 0.03125l-0.921875 0l-2.046875 -3.0625zm5.794815 3.21875q-0.71875 0 -1.28125 -0.328125q-0.546875 -0.34375 -0.859375 -0.921875q-0.3125 -0.578125 -0.3125 -1.28125q0 -0.71875 0.3125 -1.28125q0.3125 -0.578125 0.859375 -0.90625q0.5625 -0.34375 1.28125 -0.34375q0.71875 0 1.265625 0.34375q0.54687595 0.34375 0.85937595 0.921875q0.3125 0.5625 0.3125 1.265625q0 0.703125 -0.3125 1.28125q-0.3125 0.578125 -0.85937595 0.921875q-0.546875 0.328125 -1.265625 0.328125zm0 -0.71875q0.421875 0 0.796875 -0.21875q0.390625 -0.21875 0.625 -0.625q0.234375 -0.40625 0.234375 -0.96875q0 -0.578125 -0.234375 -0.984375q-0.234375 -0.40625 -0.625 -0.609375q-0.375 -0.21875 -0.796875 -0.21875q-0.4375 0 -0.828125 0.21875q-0.375 0.203125 -0.609375 0.609375q-0.21875 0.40625 -0.21875 0.984375q0 0.5625 0.21875 0.96875q0.234375 0.40625 0.609375 0.625q0.390625 0.21875 0.828125 0.21875zm4.2787333 0.5625l-1.53125 -4.75l0.828125 0l1.125 3.75l0.015625 0l1.203125 -3.75l0.8125 0l1.203125 3.75l0 0l1.125 -3.75l0.8125 0l-1.546875 4.75l-0.796875 0l-1.234375 -3.796875l0 0l-1.21875 3.796875l-0.796875 0zm9.412079 0l-1.53125 -4.75l0.828125 0l1.125 3.75l0.015625 0l1.203125 -3.75l0.8125 0l1.203125 3.75l0 0l1.1249981 -3.75l0.8125 0l-1.5468731 4.75l-0.796875 0l-1.234375 -3.796875l0 0l-1.21875 3.796875l-0.796875 0zm6.3104534 0l0 -4.75l0.796875 0l0 4.75l-0.796875 0zm0.390625 -5.640625q-0.21875 0 -0.390625 -0.15625q-0.171875 -0.171875 -0.171875 -0.40625q0 -0.25 0.171875 -0.40625q0.171875 -0.15625 0.390625 -0.15625q0.25 0 0.40625 0.15625q0.171875 0.15625 0.171875 0.40625q0 0.234375 -0.171875 0.40625q-0.15625 0.15625 -0.40625 0.15625zm1.2802429 0.890625l2.78125 0l0 0.703125l-2.78125 0l0 -0.703125zm0.828125 3.5l0 -4.84375l0.796875 0l0 4.640625q0 0.375 0.140625 0.59375q0.15625 0.203125 0.515625 0.203125q0.15625 0 0.28125 -0.046875q0.140625 -0.046875 0.234375 -0.125l0 0.78125q-0.109375 0.0625 -0.265625 0.09375q-0.140625 0.03125 -0.375 0.03125q-0.609375 0 -0.96875 -0.34375q-0.359375 -0.359375 -0.359375 -0.984375zm2.9514313 1.25l0 -6.671875l0.78125 0l0 1.96875l-0.03125 0.640625l0.03125 0q0.1875 -0.34375 0.609375 -0.59375q0.4375 -0.25 0.9375 -0.25q0.609375 0 1.0 0.25q0.390625 0.234375 0.578125 0.65625q0.203125 0.40625 0.203125 0.953125l0 3.046875l-0.78125 0l0 -2.921875q0 -0.46875 -0.171875 -0.734375q-0.15625 -0.28125 -0.421875 -0.40625q-0.265625 -0.125 -0.578125 -0.125q-0.40625 0 -0.71875 0.234375q-0.296875 0.21875 -0.484375 0.578125q-0.171875 0.34375 -0.171875 0.71875l0 2.65625l-0.78125 0zm9.268936 0.15625q-0.375 0 -0.796875 -0.15625q-0.421875 -0.171875 -0.765625 -0.515625q-0.34375 -0.359375 -0.515625 -0.9375l0.71875 -0.296875q0.15625 0.546875 0.515625 0.84375q0.359375 0.296875 0.84375 0.296875q0.359375 0 0.65625 -0.15625q0.3125 -0.15625 0.484375 -0.421875q0.1875 -0.265625 0.1875 -0.609375q0 -0.34375 -0.1875 -0.609375q-0.1875 -0.265625 -0.5 -0.40625q-0.296875 -0.15625 -0.671875 -0.15625l-0.546875 0l0 -0.75l0.484375 0q0.34375 0 0.609375 -0.125q0.28125 -0.125 0.4375 -0.359375q0.15625 -0.25 0.15625 -0.578125q0 -0.46875 -0.34375 -0.734375q-0.328125 -0.265625 -0.8125 -0.265625q-0.359375 0 -0.59375 0.140625q-0.234375 0.140625 -0.375 0.34375q-0.125 0.1875 -0.1875 0.390625l-0.734375 -0.3125q0.09375 -0.28125 0.328125 -0.578125q0.234375 -0.296875 0.625 -0.515625q0.390625 -0.21875 0.9375 -0.21875q0.5625 0 1.0 0.234375q0.453125 0.21875 0.703125 0.625q0.265625 0.390625 0.265625 0.890625q0 0.34375 -0.125 0.625q-0.125 0.265625 -0.328125 0.453125q-0.203125 0.1875 -0.421875 0.296875l0 0.03125q0.296875 0.125 0.53125 0.34375q0.25 0.21875 0.40625 0.53125q0.15625 0.296875 0.15625 0.6875q0 0.578125 -0.296875 1.015625q-0.28125 0.4375 -0.78125 0.703125q-0.484375 0.25 -1.0625 0.25zm7.4671783 0q-0.703125 0 -1.25 -0.328125q-0.546875 -0.34375 -0.859375 -0.90625q-0.3125 -0.578125 -0.3125 -1.296875q0 -0.734375 0.3125 -1.296875q0.3125 -0.578125 0.859375 -0.90625q0.546875 -0.328125 1.25 -0.328125q0.796875 0 1.3125 0.375q0.515625 0.359375 0.734375 0.9375l-0.71875 0.296875q-0.171875 -0.4375 -0.53125 -0.65625q-0.34375 -0.234375 -0.84375 -0.234375q-0.421875 0 -0.78125 0.234375q-0.359375 0.21875 -0.578125 0.625q-0.21875 0.40625 -0.21875 0.953125q0 0.53125 0.21875 0.953125q0.21875 0.40625 0.578125 0.640625q0.359375 0.21875 0.78125 0.21875q0.5 0 0.859375 -0.234375q0.375 -0.234375 0.546875 -0.671875l0.71875 0.296875q-0.234375 0.5625 -0.765625 0.953125q-0.515625 0.375 -1.3125 0.375zm2.936905 -0.15625l0 -6.671875l0.78125 0l0 1.96875l-0.03125 0.640625l0.03125 0q0.1875 -0.34375 0.609375 -0.59375q0.4375 -0.25 0.9375 -0.25q0.609375 0 1.0 0.25q0.390625 0.234375 0.578125 0.65625q0.203125 0.40625 0.203125 0.953125l0 3.046875l-0.78125 0l0 -2.921875q0 -0.46875 -0.171875 -0.734375q-0.15625 -0.28125 -0.421875 -0.40625q-0.265625 -0.125 -0.578125 -0.125q-0.40625 0 -0.71875 0.234375q-0.296875 0.21875 -0.484375 0.578125q-0.171875 0.34375 -0.171875 0.71875l0 2.65625l-0.78125 0zm5.3235626 0l0 -4.75l0.796875 0l0 4.75l-0.796875 0zm0.390625 -5.640625q-0.21875 0 -0.390625 -0.15625q-0.171875 -0.171875 -0.171875 -0.40625q0 -0.25 0.171875 -0.40625q0.171875 -0.15625 0.390625 -0.15625q0.25 0 0.40625 0.15625q0.171875 0.15625 0.171875 0.40625q0 0.234375 -0.171875 0.40625q-0.15625 0.15625 -0.40625 0.15625zm1.6550293 5.640625l0 -6.671875l0.78125 0l0 6.671875l-0.78125 0zm3.9371948 0.15625q-0.640625 0 -1.15625 -0.328125q-0.515625 -0.328125 -0.828125 -0.890625q-0.296875 -0.578125 -0.296875 -1.3125q0 -0.734375 0.296875 -1.296875q0.3125 -0.578125 0.828125 -0.90625q0.515625 -0.328125 1.15625 -0.328125q0.390625 0 0.703125 0.125q0.3125 0.109375 0.546875 0.3125q0.25 0.203125 0.375 0.421875l0.03125 0l-0.03125 -0.65625l0 -1.96875l0.796875 0l0 6.671875l-0.765625 0l0 -0.703125l-0.03125 0q-0.125 0.21875 -0.375 0.421875q-0.234375 0.1875 -0.546875 0.3125q-0.3125 0.125 -0.703125 0.125zm0.09375 -0.71875q0.40625 0 0.765625 -0.21875q0.359375 -0.21875 0.578125 -0.625q0.21875 -0.40625 0.21875 -0.96875q0 -0.5625 -0.21875 -0.96875q-0.21875 -0.40625 -0.578125 -0.625q-0.359375 -0.21875 -0.765625 -0.21875q-0.421875 0 -0.78125 0.21875q-0.359375 0.21875 -0.578125 0.625q-0.21875 0.40625 -0.21875 0.96875q0 0.546875 0.21875 0.96875q0.21875 0.40625 0.578125 0.625q0.359375 0.21875 0.78125 0.21875zm3.5061646 0.5625l0 -4.75l0.75 0l0 0.75l0.03125 0q0.09375 -0.265625 0.3125 -0.46875q0.21875 -0.203125 0.5 -0.3125q0.296875 -0.109375 0.578125 -0.109375q0.203125 0 0.328125 0.03125q0.125 0.015625 0.234375 0.0625l0 0.84375q-0.15625 -0.0625 -0.328125 -0.09375q-0.171875 -0.046875 -0.34375 -0.046875q-0.359375 0 -0.65625 0.203125q-0.28125 0.1875 -0.453125 0.515625q-0.171875 0.328125 -0.171875 0.71875l0 2.65625l-0.78125 0zm5.327423 0.15625q-0.6875 0 -1.234375 -0.328125q-0.53125 -0.328125 -0.84375 -0.890625q-0.296875 -0.578125 -0.296875 -1.3125q0 -0.671875 0.28125 -1.25q0.296875 -0.578125 0.8125 -0.921875q0.515625 -0.359375 1.21875 -0.359375q0.703125 0 1.203125 0.3125q0.515625 0.3125 0.796875 0.859375q0.28125 0.546875 0.28125 1.265625q0 0.0625 -0.015625 0.125q0 0.0625 -0.015625 0.109375l-4.09375 0l0 -0.640625l3.28125 0q-0.015625 -0.203125 -0.09375 -0.421875q-0.078125 -0.234375 -0.25 -0.4375q-0.171875 -0.203125 -0.4375 -0.328125q-0.265625 -0.125 -0.65625 -0.125q-0.46875 0 -0.8125 0.234375q-0.328125 0.234375 -0.515625 0.65625q-0.1875 0.40625 -0.1875 0.921875q0 0.609375 0.234375 1.015625q0.234375 0.40625 0.59375 0.609375q0.375 0.1875 0.78125 0.1875q0.515625 0 0.859375 -0.25q0.34375 -0.25 0.546875 -0.609375l0.671875 0.328125q-0.28125 0.53125 -0.8125 0.890625q-0.515625 0.359375 -1.296875 0.359375zm3.1423645 -0.15625l0 -4.75l0.75 0l0 0.6875l0.03125 0q0.1875 -0.34375 0.609375 -0.59375q0.4375 -0.25 0.9375 -0.25q0.875 0 1.3125 0.515625q0.453125 0.5 0.453125 1.34375l0 3.046875l-0.796875 0l0 -2.921875q0 -0.703125 -0.328125 -0.984375q-0.328125 -0.28125 -0.859375 -0.28125q-0.390625 0 -0.6875 0.21875q-0.296875 0.21875 -0.46875 0.5625q-0.171875 0.34375 -0.171875 0.734375l0 2.671875l-0.78125 0zm5.748703 -3.625q-0.25 0 -0.421875 -0.171875q-0.171875 -0.171875 -0.171875 -0.421875q0 -0.25 0.171875 -0.421875q0.171875 -0.171875 0.421875 -0.171875q0.25 0 0.421875 0.171875q0.171875 0.171875 0.171875 0.421875q0 0.25 -0.171875 0.421875q-0.171875 0.171875 -0.421875 0.171875zm0 3.6875q-0.25 0 -0.421875 -0.171875q-0.171875 -0.1875 -0.171875 -0.4375q0 -0.234375 0.171875 -0.40625q0.171875 -0.171875 0.421875 -0.171875q0.25 0 0.421875 0.171875q0.171875 0.171875 0.171875 0.40625q0 0.25 -0.171875 0.4375q-0.171875 0.171875 -0.421875 0.171875z" fill-rule="nonzero"/><path fill="#000000" d="m13.549691 87.6167q-0.703125 0 -1.25 -0.328125q-0.546875 -0.34375 -0.859375 -0.90625q-0.3125 -0.578125 -0.3125 -1.296875q0 -0.734375 0.3125 -1.296875q0.3125 -0.578125 0.859375 -0.90625q0.546875 -0.328125 1.25 -0.328125q0.796875 0 1.3125 0.375q0.515625 0.359375 0.734375 0.9375l-0.71875 0.296875q-0.171875 -0.4375 -0.53125 -0.65625q-0.34375 -0.234375 -0.84375 -0.234375q-0.421875 0 -0.78125 0.234375q-0.359375 0.21875 -0.578125 0.625q-0.21875 0.40625 -0.21875 0.953125q0 0.53125 0.21875 0.953125q0.21875 0.40625 0.578125 0.640625q0.359375 0.21875 0.78125 0.21875q0.5 0 0.859375 -0.234375q0.375 -0.234375 0.546875 -0.671875l0.71875 0.296875q-0.234375 0.5625 -0.765625 0.953125q-0.515625 0.375 -1.3125 0.375zm5.0777445 0q-0.71875 0 -1.28125 -0.328125q-0.546875 -0.34375 -0.859375 -0.921875q-0.3125 -0.578125 -0.3125 -1.28125q0 -0.71875 0.3125 -1.28125q0.3125 -0.578125 0.859375 -0.90625q0.5625 -0.34375 1.28125 -0.34375q0.71875 0 1.265625 0.34375q0.546875 0.34375 0.859375 0.921875q0.3125 0.5625 0.3125 1.265625q0 0.703125 -0.3125 1.28125q-0.3125 0.578125 -0.859375 0.921875q-0.546875 0.328125 -1.265625 0.328125zm0 -0.71875q0.421875 0 0.796875 -0.21875q0.390625 -0.21875 0.625 -0.625q0.234375 -0.40625 0.234375 -0.96875q0 -0.578125 -0.234375 -0.984375q-0.234375 -0.40625 -0.625 -0.609375q-0.375 -0.21875 -0.796875 -0.21875q-0.4375 0 -0.828125 0.21875q-0.375 0.203125 -0.609375 0.609375q-0.21875 0.40625 -0.21875 0.984375q0 0.5625 0.21875 0.96875q0.234375 0.40625 0.609375 0.625q0.390625 0.21875 0.828125 0.21875zm3.325409 0.5625l0 -6.671875l0.78125 0l0 6.671875l-0.78125 0zm3.6869812 0.15625q-0.875 0 -1.328125 -0.515625q-0.4375 -0.515625 -0.4375 -1.40625l0 -2.984375l0.796875 0l0 2.859375q0 0.71875 0.328125 1.03125q0.328125 0.296875 0.8125 0.296875q0.421875 0 0.71875 -0.21875q0.3125 -0.21875 0.484375 -0.5625q0.171875 -0.359375 0.171875 -0.734375l0 -2.671875l0.78125 0l0 4.75l-0.75 0l0 -0.6875l-0.03125 0q-0.125 0.21875 -0.375 0.421875q-0.234375 0.1875 -0.53125 0.296875q-0.296875 0.125 -0.640625 0.125zm3.514328 -0.15625l0 -4.75l0.75 0l0 0.6875l0.03125 0q0.140625 -0.234375 0.359375 -0.421875q0.234375 -0.1875 0.53125 -0.296875q0.296875 -0.125 0.59375 -0.125q0.53125 0 0.9062481 0.265625q0.390625 0.25 0.5625 0.65625q0.25 -0.40625 0.65625 -0.65625q0.40625 -0.265625 0.96875 -0.265625q0.859375 0 1.25 0.515625q0.40625 0.515625 0.40625 1.34375l0 3.046875l-0.78125 0l0 -2.921875q0 -0.703125 -0.28125 -0.984375q-0.28125 -0.28125 -0.796875 -0.28125q-0.359375 0 -0.640625 0.21875q-0.28125 0.203125 -0.453125 0.546875q-0.15625 0.328125 -0.15625 0.734375l0 2.6875l-0.796875 0l0 -2.921875q0 -0.6875 -0.2812481 -0.96875q-0.28125 -0.296875 -0.78125 -0.296875q-0.359375 0 -0.65625 0.21875q-0.28125 0.203125 -0.453125 0.5625q-0.15625 0.34375 -0.15625 0.734375l0 2.671875l-0.78125 0zm8.162107 0l0 -4.75l0.75 0l0 0.6875l0.03125 0q0.1875 -0.34375 0.609375 -0.59375q0.4375 -0.25 0.9375 -0.25q0.875 0 1.3125 0.515625q0.453125 0.5 0.453125 1.34375l0 3.046875l-0.796875 0l0 -2.921875q0 -0.703125 -0.328125 -0.984375q-0.328125 -0.28125 -0.859375 -0.28125q-0.390625 0 -0.6875 0.21875q-0.296875 0.21875 -0.46875 0.5625q-0.171875 0.34375 -0.171875 0.734375l0 2.671875l-0.78125 0zm5.498703 1.03125l-0.390625 -0.25l0.515625 -0.78125q-0.15625 -0.03125 -0.296875 -0.171875q-0.140625 -0.140625 -0.140625 -0.375q0 -0.234375 0.171875 -0.40625q0.171875 -0.171875 0.421875 -0.171875q0.125 0 0.234375 0.046875q0.109375 0.046875 0.1875 0.125q0.078125 0.078125 0.125 0.1875q0.046875 0.109375 0.046875 0.21875q0 0.125 -0.046875 0.234375q-0.03125 0.09375 -0.09375 0.203125q-0.046875 0.09375 -0.125 0.203125l-0.609375 0.9375zm4.1810913 -1.03125l0 -4.75l0.796875 0l0 4.75l-0.796875 0zm0.390625 -5.640625q-0.21875 0 -0.390625 -0.15625q-0.171875 -0.171875 -0.171875 -0.40625q0 -0.25 0.171875 -0.40625q0.171875 -0.15625 0.390625 -0.15625q0.25 0 0.40625 0.15625q0.171875 0.15625 0.171875 0.40625q0 0.234375 -0.171875 0.40625q-0.15625 0.15625 -0.40625 0.15625zm3.764618 5.796875q-0.703125 0 -1.25 -0.328125q-0.546875 -0.34375 -0.859375 -0.90625q-0.3125 -0.578125 -0.3125 -1.296875q0 -0.734375 0.3125 -1.296875q0.3125 -0.578125 0.859375 -0.90625q0.546875 -0.328125 1.25 -0.328125q0.796875 0 1.3125 0.375q0.515625 0.359375 0.734375 0.9375l-0.71875 0.296875q-0.171875 -0.4375 -0.53125 -0.65625q-0.34375 -0.234375 -0.84375 -0.234375q-0.421875 0 -0.78125 0.234375q-0.359375 0.21875 -0.578125 0.625q-0.21875 0.40625 -0.21875 0.953125q0 0.53125 0.21875 0.953125q0.21875 0.40625 0.578125 0.640625q0.359375 0.21875 0.78125 0.21875q0.5 0 0.859375 -0.234375q0.375 -0.234375 0.546875 -0.671875l0.71875 0.296875q-0.234375 0.5625 -0.765625 0.953125q-0.515625 0.375 -1.3125 0.375zm5.0777435 0q-0.71875 0 -1.28125 -0.328125q-0.546875 -0.34375 -0.859375 -0.921875q-0.3125 -0.578125 -0.3125 -1.28125q0 -0.71875 0.3125 -1.28125q0.3125 -0.578125 0.859375 -0.90625q0.5625 -0.34375 1.28125 -0.34375q0.71875 0 1.265625 0.34375q0.546875 0.34375 0.859375 0.921875q0.3125 0.5625 0.3125 1.265625q0 0.703125 -0.3125 1.28125q-0.3125 0.578125 -0.859375 0.921875q-0.546875 0.328125 -1.265625 0.328125zm0 -0.71875q0.421875 0 0.796875 -0.21875q0.390625 -0.21875 0.625 -0.625q0.234375 -0.40625 0.234375 -0.96875q0 -0.578125 -0.234375 -0.984375q-0.234375 -0.40625 -0.625 -0.609375q-0.375 -0.21875 -0.796875 -0.21875q-0.4375 0 -0.828125 0.21875q-0.375 0.203125 -0.609375 0.609375q-0.21875 0.40625 -0.21875 0.984375q0 0.5625 0.21875 0.96875q0.234375 0.40625 0.609375 0.625q0.390625 0.21875 0.828125 0.21875zm3.2787323 0.5625l0 -4.75l0.75 0l0 0.6875l0.03125 0q0.1875 -0.34375 0.609375 -0.59375q0.4375 -0.25 0.9375 -0.25q0.875 0 1.3125 0.515625q0.453125 0.5 0.453125 1.34375l0 3.046875l-0.796875 0l0 -2.921875q0 -0.703125 -0.328125 -0.984375q-0.328125 -0.28125 -0.859375 -0.28125q-0.390625 0 -0.6875 0.21875q-0.296875 0.21875 -0.46875 0.5625q-0.171875 0.34375 -0.171875 0.734375l0 2.671875l-0.78125 0zm5.498703 1.03125l-0.390625 -0.25l0.515625 -0.78125q-0.15625 -0.03125 -0.296875 -0.171875q-0.140625 -0.140625 -0.140625 -0.375q0 -0.234375 0.171875 -0.40625q0.171875 -0.171875 0.421875 -0.171875q0.125 0 0.234375 0.046875q0.109375 0.046875 0.1875 0.125q0.078125 0.078125 0.125 0.1875q0.046875 0.109375 0.046875 0.21875q0 0.125 -0.046875 0.234375q-0.03125 0.09375 -0.09375 0.203125q-0.046875 0.09375 -0.125 0.203125l-0.609375 0.9375zm3.7904663 -5.78125l2.78125 0l0 0.703125l-2.78125 0l0 -0.703125zm0.828125 3.5l0 -4.84375l0.796875 0l0 4.640625q0 0.375 0.140625 0.59375q0.15625 0.203125 0.515625 0.203125q0.15625 0 0.28125 -0.046875q0.140625 -0.046875 0.234375 -0.125l0 0.78125q-0.109375 0.0625 -0.265625 0.09375q-0.140625 0.03125 -0.375 0.03125q-0.609375 0 -0.96875 -0.34375q-0.359375 -0.359375 -0.359375 -0.984375zm4.8088074 1.40625q-0.6875 0 -1.234375 -0.328125q-0.53125 -0.328125 -0.84375 -0.890625q-0.296875 -0.578125 -0.296875 -1.3125q0 -0.671875 0.28125 -1.25q0.296875 -0.578125 0.8125 -0.921875q0.515625 -0.359375 1.21875 -0.359375q0.703125 0 1.203125 0.3125q0.515625 0.3125 0.796875 0.859375q0.28125 0.546875 0.28125 1.265625q0 0.0625 -0.015625 0.125q0 0.0625 -0.015625 0.109375l-4.09375 0l0 -0.640625l3.28125 0q-0.015625 -0.203125 -0.09375 -0.421875q-0.078125 -0.234375 -0.25 -0.4375q-0.171875 -0.203125 -0.4375 -0.328125q-0.265625 -0.125 -0.65625 -0.125q-0.46875 0 -0.8125 0.234375q-0.328125 0.234375 -0.515625 0.65625q-0.1875 0.40625 -0.1875 0.921875q0 0.609375 0.234375 1.015625q0.234375 0.40625 0.59375 0.609375q0.375 0.1875 0.78125 0.1875q0.515625 0 0.859375 -0.25q0.34375 -0.25 0.546875 -0.609375l0.671875 0.328125q-0.28125 0.53125 -0.8125 0.890625q-0.515625 0.359375 -1.296875 0.359375zm2.5802765 -0.15625l1.90625 -2.734375l0.078125 0l1.34375 -2.015625l0.9375 0l-1.859375 2.609375l-0.0625 0l-1.421875 2.140625l-0.921875 0zm0.03125 -4.75l0.890625 0l1.484375 2.109375l0.03125 0l1.859375 2.640625l-0.921875 0l-1.421875 -2.109375l-0.0625 0l-1.859375 -2.640625zm4.652176 0l2.78125 0l0 0.703125l-2.78125 0l0 -0.703125zm0.828125 3.5l0 -4.84375l0.796875 0l0 4.640625q0 0.375 0.140625 0.59375q0.15625 0.203125 0.515625 0.203125q0.15625 0 0.28125 -0.046875q0.140625 -0.046875 0.234375 -0.125l0 0.78125q-0.109375 0.0625 -0.265625 0.09375q-0.140625 0.03125 -0.375 0.03125q-0.609375 0 -0.96875 -0.34375q-0.359375 -0.359375 -0.359375 -0.984375z" fill-rule="nonzero"/><path fill="#000000" fill-opacity="0.0" d="m27.572178 65.52355l0 -38.393707" fill-rule="evenodd"/><path stroke="#ff0000" stroke-width="1.0" stroke-linejoin="round" stroke-linecap="butt" d="m27.572178 65.52355l0 -34.603706" fill-rule="evenodd"/><path fill="#ff0000" stroke="#ff0000" stroke-width="1.0" stroke-linecap="butt" d="m27.572178 27.629847c0.9085083 0 1.6450005 0.73649216 1.6450005 1.6450005c0 0.9085083 -0.73649216 1.6450005 -1.6450005 1.6450005c-0.9085083 0 -1.6449986 -0.73649216 -1.6449986 -1.6450005c0 -0.9085083 0.73649025 -1.6450005 1.6449986 -1.6450005z" fill-rule="nonzero"/><path fill="#000000" fill-opacity="0.0" d="m100.25459 67.30045l98.01575 0l0 22.614174l-98.01575 0z" fill-rule="evenodd"/><path fill="#000000" d="m124.44422 76.4167q-0.734375 0 -1.359375 -0.265625q-0.625 -0.265625 -1.109375 -0.734375q-0.46875 -0.484375 -0.734375 -1.125q-0.25 -0.640625 -0.25 -1.375q0 -0.734375 0.25 -1.375q0.265625 -0.640625 0.734375 -1.109375q0.484375 -0.46875 1.109375 -0.734375q0.625 -0.265625 1.359375 -0.265625q0.515625 0 0.953125 0.140625q0.453125 0.125 0.828125 0.375q0.375 0.234375 0.671875 0.578125l-0.578125 0.546875q-0.25 -0.3125 -0.53125 -0.5q-0.28125 -0.203125 -0.625 -0.296875q-0.328125 -0.09375 -0.71875 -0.09375q-0.71875 0 -1.328125 0.34375q-0.59375 0.328125 -0.96875 0.953125q-0.359375 0.609375 -0.359375 1.4375q0 0.828125 0.359375 1.453125q0.375 0.609375 0.96875 0.953125q0.609375 0.328125 1.328125 0.328125q0.4375 0 0.8125 -0.109375q0.375 -0.125 0.6875 -0.34375q0.3125 -0.234375 0.5625 -0.546875l0.578125 0.5625q-0.28125 0.34375 -0.6875 0.625q-0.40625 0.265625 -0.90625 0.421875q-0.484375 0.15625 -1.046875 0.15625zm5.6317368 0q-0.71875 0 -1.28125 -0.328125q-0.546875 -0.34375 -0.8593826 -0.921875q-0.3125 -0.578125 -0.3125 -1.28125q0 -0.71875 0.3125 -1.28125q0.31250763 -0.578125 0.8593826 -0.90625q0.5625 -0.34375 1.28125 -0.34375q0.71875 0 1.265625 0.34375q0.546875 0.34375 0.859375 0.921875q0.3125 0.5625 0.3125 1.265625q0 0.703125 -0.3125 1.28125q-0.3125 0.578125 -0.859375 0.921875q-0.546875 0.328125 -1.265625 0.328125zm0 -0.71875q0.421875 0 0.796875 -0.21875q0.390625 -0.21875 0.625 -0.625q0.234375 -0.40625 0.234375 -0.96875q0 -0.578125 -0.234375 -0.984375q-0.234375 -0.40625 -0.625 -0.609375q-0.375 -0.21875 -0.796875 -0.21875q-0.4375 0 -0.828125 0.21875q-0.375 0.203125 -0.609375 0.609375q-0.21875 0.40625 -0.21875 0.984375q0 0.5625 0.21875 0.96875q0.234375 0.40625 0.609375 0.625q0.390625 0.21875 0.828125 0.21875zm3.325409 0.5625l0 -6.671875l0.78125 0l0 6.671875l-0.78125 0zm3.6869812 0.15625q-0.875 0 -1.328125 -0.515625q-0.4375 -0.515625 -0.4375 -1.40625l0 -2.984375l0.796875 0l0 2.859375q0 0.71875 0.328125 1.03125q0.328125 0.296875 0.8125 0.296875q0.421875 0 0.71875 -0.21875q0.3125 -0.21875 0.484375 -0.5625q0.171875 -0.359375 0.171875 -0.734375l0 -2.671875l0.78125 0l0 4.75l-0.75 0l0 -0.6875l-0.03125 0q-0.125 0.21875 -0.375 0.421875q-0.234375 0.1875 -0.53125 0.296875q-0.296875 0.125 -0.640625 0.125zm3.514328 -0.15625l0 -4.75l0.75 0l0 0.6875l0.03125 0q0.140625 -0.234375 0.359375 -0.421875q0.234375 -0.1875 0.53125 -0.296875q0.296875 -0.125 0.59375 -0.125q0.53125 0 0.90625 0.265625q0.390625 0.25 0.5625 0.65625q0.25 -0.40625 0.65625 -0.65625q0.40625 -0.265625 0.96875 -0.265625q0.859375 0 1.25 0.515625q0.40625 0.515625 0.40625 1.34375l0 3.046875l-0.78125 0l0 -2.921875q0 -0.703125 -0.28125 -0.984375q-0.28125 -0.28125 -0.796875 -0.28125q-0.359375 0 -0.640625 0.21875q-0.28125 0.203125 -0.453125 0.546875q-0.15625 0.328125 -0.15625 0.734375l0 2.6875l-0.796875 0l0 -2.921875q0 -0.6875 -0.28125 -0.96875q-0.28125 -0.296875 -0.78125 -0.296875q-0.359375 0 -0.65625 0.21875q-0.28125 0.203125 -0.453125 0.5625q-0.15625 0.34375 -0.15625 0.734375l0 2.671875l-0.78125 0zm8.162109 0l0 -4.75l0.75 0l0 0.6875l0.03125 0q0.1875 -0.34375 0.609375 -0.59375q0.4375 -0.25 0.9375 -0.25q0.875 0 1.3125 0.515625q0.453125 0.5 0.453125 1.34375l0 3.046875l-0.796875 0l0 -2.921875q0 -0.703125 -0.328125 -0.984375q-0.328125 -0.28125 -0.859375 -0.28125q-0.390625 0 -0.6875 0.21875q-0.296875 0.21875 -0.46875 0.5625q-0.171875 0.34375 -0.171875 0.734375l0 2.671875l-0.78125 0zm6.8426666 0.15625q-0.53125 0 -0.9375 -0.171875q-0.40625 -0.1875 -0.671875 -0.46875q-0.265625 -0.296875 -0.390625 -0.640625l0.703125 -0.328125q0.1875 0.4375 0.53125 0.671875q0.359375 0.234375 0.8125 0.234375q0.453125 0 0.734375 -0.171875q0.296875 -0.1875 0.296875 -0.53125q0 -0.21875 -0.125 -0.359375q-0.109375 -0.140625 -0.34375 -0.234375q-0.234375 -0.109375 -0.578125 -0.203125l-0.578125 -0.140625q-0.328125 -0.09375 -0.625 -0.265625q-0.296875 -0.171875 -0.484375 -0.4375q-0.1875 -0.265625 -0.1875 -0.640625q0 -0.4375 0.25 -0.734375q0.265625 -0.3125 0.671875 -0.46875q0.40625 -0.171875 0.875 -0.171875q0.40625 0 0.765625 0.125q0.359375 0.109375 0.625 0.34375q0.28125 0.21875 0.421875 0.5625l-0.6875 0.3125q-0.1875 -0.359375 -0.484375 -0.5q-0.296875 -0.140625 -0.65625 -0.140625q-0.390625 0 -0.6875 0.171875q-0.28125 0.171875 -0.28125 0.484375q0 0.296875 0.234375 0.453125q0.234375 0.140625 0.578125 0.234375l0.6875 0.171875q0.703125 0.171875 1.046875 0.53125q0.359375 0.34375 0.359375 0.84375q0 0.453125 -0.25 0.78125q-0.25 0.328125 -0.6875 0.515625q-0.421875 0.171875 -0.9375 0.171875zm5.9200745 -0.15625l-1.53125 -4.75l0.828125 0l1.125 3.75l0.015625 0l1.203125 -3.75l0.8125 0l1.203125 3.75l0 0l1.125 -3.75l0.8125 0l-1.546875 4.75l-0.796875 0l-1.234375 -3.796875l0 0l-1.21875 3.796875l-0.796875 0zm6.3104553 0l0 -4.75l0.796875 0l0 4.75l-0.796875 0zm0.390625 -5.640625q-0.21875 0 -0.390625 -0.15625q-0.171875 -0.171875 -0.171875 -0.40625q0 -0.25 0.171875 -0.40625q0.171875 -0.15625 0.390625 -0.15625q0.25 0 0.40625 0.15625q0.171875 0.15625 0.171875 0.40625q0 0.234375 -0.171875 0.40625q-0.15625 0.15625 -0.40625 0.15625zm1.2802429 0.890625l2.78125 0l0 0.703125l-2.78125 0l0 -0.703125zm0.828125 3.5l0 -4.84375l0.796875 0l0 4.640625q0 0.375 0.140625 0.59375q0.15625 0.203125 0.515625 0.203125q0.15625 0 0.28125 -0.046875q0.140625 -0.046875 0.234375 -0.125l0 0.78125q-0.109375 0.0625 -0.265625 0.09375q-0.140625 0.03125 -0.375 0.03125q-0.609375 0 -0.96875 -0.34375q-0.359375 -0.359375 -0.359375 -0.984375zm2.9514313 1.25l0 -6.671875l0.78125 0l0 1.96875l-0.03125 0.640625l0.03125 0q0.1875 -0.34375 0.609375 -0.59375q0.4375 -0.25 0.9375 -0.25q0.609375 0 1.0 0.25q0.390625 0.234375 0.578125 0.65625q0.203125 0.40625 0.203125 0.953125l0 3.046875l-0.78125 0l0 -2.921875q0 -0.46875 -0.171875 -0.734375q-0.15625 -0.28125 -0.421875 -0.40625q-0.265625 -0.125 -0.578125 -0.125q-0.40625 0 -0.71875 0.234375q-0.296875 0.21875 -0.484375 0.578125q-0.171875 0.34375 -0.171875 0.71875l0 2.65625l-0.78125 0z" fill-rule="nonzero"/><path fill="#000000" d="m104.95619 87.46045l0 -0.796875q0.03125 -0.03125 0.21875 -0.21875q0.203125 -0.203125 0.484375 -0.484375q0.296875 -0.296875 0.609375 -0.609375q0.3125 -0.328125 0.59375 -0.609375q0.28125 -0.296875 0.4375 -0.46875q0.28125 -0.3125 0.453125 -0.546875q0.1875 -0.234375 0.265625 -0.453125q0.09375 -0.21875 0.09375 -0.5q0 -0.28125 -0.140625 -0.515625q-0.140625 -0.25 -0.40625 -0.40625q-0.265625 -0.171875 -0.671875 -0.171875q-0.375 0 -0.640625 0.171875q-0.25 0.15625 -0.390625 0.375q-0.140625 0.21875 -0.1875 0.390625l-0.71875 -0.28125q0.0625 -0.203125 0.203125 -0.4375q0.15625 -0.234375 0.390625 -0.453125q0.234375 -0.21875 0.578125 -0.359375q0.34375 -0.15625 0.78125 -0.15625q0.609375 0 1.046875 0.265625q0.453125 0.25 0.703125 0.671875q0.25 0.40625 0.25 0.890625q0 0.421875 -0.15625 0.796875q-0.15625 0.375 -0.390625 0.6875q-0.234375 0.3125 -0.484375 0.546875q-0.109375 0.109375 -0.328125 0.328125q-0.21875 0.21875 -0.46875 0.46875q-0.234375 0.25 -0.46875 0.484375q-0.234375 0.21875 -0.40625 0.40625q-0.171875 0.171875 -0.234375 0.234375l0 0l3.015625 0l0 0.75l-4.03125 0zm9.3988495 0.15625q-0.703125 0 -1.25 -0.328125q-0.546875 -0.34375 -0.859375 -0.90625q-0.3125 -0.578125 -0.3125 -1.296875q0 -0.734375 0.3125 -1.296875q0.3125 -0.578125 0.859375 -0.90625q0.546875 -0.328125 1.25 -0.328125q0.796875 0 1.3125 0.375q0.515625 0.359375 0.734375 0.9375l-0.71875 0.296875q-0.171875 -0.4375 -0.53125 -0.65625q-0.34375 -0.234375 -0.84375 -0.234375q-0.421875 0 -0.78125 0.234375q-0.359375 0.21875 -0.578125 0.625q-0.21875 0.40625 -0.21875 0.953125q0 0.53125 0.21875 0.953125q0.21875 0.40625 0.578125 0.640625q0.359375 0.21875 0.78125 0.21875q0.5 0 0.859375 -0.234375q0.375 -0.234375 0.546875 -0.671875l0.71875 0.296875q-0.234375 0.5625 -0.765625 0.953125q-0.515625 0.375 -1.3125 0.375zm2.936905 -0.15625l0 -6.671875l0.78125 0l0 1.96875l-0.03125 0.640625l0.03125 0q0.1875 -0.34375 0.609375 -0.59375q0.4375 -0.25 0.9375 -0.25q0.609375 0 1.0 0.25q0.390625 0.234375 0.578125 0.65625q0.203125 0.40625 0.203125 0.953125l0 3.046875l-0.78125 0l0 -2.921875q0 -0.46875 -0.171875 -0.734375q-0.15625 -0.28125 -0.421875 -0.40625q-0.265625 -0.125 -0.578125 -0.125q-0.40625 0 -0.71875 0.234375q-0.296875 0.21875 -0.484375 0.578125q-0.171875 0.34375 -0.171875 0.71875l0 2.65625l-0.78125 0zm5.3235626 0l0 -4.75l0.796875 0l0 4.75l-0.796875 0zm0.390625 -5.640625q-0.21875 0 -0.390625 -0.15625q-0.171875 -0.171875 -0.171875 -0.40625q0 -0.25 0.171875 -0.40625q0.171875 -0.15625 0.390625 -0.15625q0.25 0 0.40625 0.15625q0.171875 0.15625 0.171875 0.40625q0 0.234375 -0.171875 0.40625q-0.15625 0.15625 -0.40625 0.15625zm1.6550293 5.640625l0 -6.671875l0.78125 0l0 6.671875l-0.78125 0zm3.9371948 0.15625q-0.640625 0 -1.15625 -0.328125q-0.515625 -0.328125 -0.828125 -0.890625q-0.296875 -0.578125 -0.296875 -1.3125q0 -0.734375 0.296875 -1.296875q0.3125 -0.578125 0.828125 -0.90625q0.515625 -0.328125 1.15625 -0.328125q0.390625 0 0.703125 0.125q0.3125 0.109375 0.546875 0.3125q0.25 0.203125 0.375 0.421875l0.03125 0l-0.03125 -0.65625l0 -1.96875l0.796875 0l0 6.671875l-0.765625 0l0 -0.703125l-0.03125 0q-0.125 0.21875 -0.375 0.421875q-0.234375 0.1875 -0.546875 0.3125q-0.3125 0.125 -0.703125 0.125zm0.09375 -0.71875q0.40625 0 0.765625 -0.21875q0.359375 -0.21875 0.578125 -0.625q0.21875 -0.40625 0.21875 -0.96875q0 -0.5625 -0.21875 -0.96875q-0.21875 -0.40625 -0.578125 -0.625q-0.359375 -0.21875 -0.765625 -0.21875q-0.421875 0 -0.78125 0.21875q-0.359375 0.21875 -0.578125 0.625q-0.21875 0.40625 -0.21875 0.96875q0 0.546875 0.21875 0.96875q0.21875 0.40625 0.578125 0.625q0.359375 0.21875 0.78125 0.21875zm3.5061646 0.5625l0 -4.75l0.75 0l0 0.75l0.03125 0q0.09375 -0.265625 0.3125 -0.46875q0.21875 -0.203125 0.5 -0.3125q0.296875 -0.109375 0.578125 -0.109375q0.203125 0 0.328125 0.03125q0.125 0.015625 0.234375 0.0625l0 0.84375q-0.15625 -0.0625 -0.328125 -0.09375q-0.171875 -0.046875 -0.34375 -0.046875q-0.359375 0 -0.65625 0.203125q-0.28125 0.1875 -0.453125 0.515625q-0.171875 0.328125 -0.171875 0.71875l0 2.65625l-0.78125 0zm5.327423 0.15625q-0.6875 0 -1.234375 -0.328125q-0.53125 -0.328125 -0.84375 -0.890625q-0.296875 -0.578125 -0.296875 -1.3125q0 -0.671875 0.28125 -1.25q0.296875 -0.578125 0.8125 -0.921875q0.515625 -0.359375 1.21875 -0.359375q0.703125 0 1.203125 0.3125q0.515625 0.3125 0.796875 0.859375q0.28125 0.546875 0.28125 1.265625q0 0.0625 -0.015625 0.125q0 0.0625 -0.015625 0.109375l-4.09375 0l0 -0.640625l3.28125 0q-0.015625 -0.203125 -0.09375 -0.421875q-0.078125 -0.234375 -0.25 -0.4375q-0.171875 -0.203125 -0.4375 -0.328125q-0.265625 -0.125 -0.65625 -0.125q-0.46875 0 -0.8125 0.234375q-0.328125 0.234375 -0.515625 0.65625q-0.1875 0.40625 -0.1875 0.921875q0 0.609375 0.234375 1.015625q0.234375 0.40625 0.59375 0.609375q0.375 0.1875 0.78125 0.1875q0.515625 0 0.859375 -0.25q0.34375 -0.25 0.546875 -0.609375l0.671875 0.328125q-0.28125 0.53125 -0.8125 0.890625q-0.515625 0.359375 -1.296875 0.359375zm3.1423645 -0.15625l0 -4.75l0.75 0l0 0.6875l0.03125 0q0.1875 -0.34375 0.609375 -0.59375q0.4375 -0.25 0.9375 -0.25q0.875 0 1.3125 0.515625q0.453125 0.5 0.453125 1.34375l0 3.046875l-0.796875 0l0 -2.921875q0 -0.703125 -0.328125 -0.984375q-0.328125 -0.28125 -0.859375 -0.28125q-0.390625 0 -0.6875 0.21875q-0.296875 0.21875 -0.46875 0.5625q-0.171875 0.34375 -0.171875 0.734375l0 2.671875l-0.78125 0zm5.748703 -3.625q-0.25 0 -0.421875 -0.171875q-0.171875 -0.171875 -0.171875 -0.421875q0 -0.25 0.171875 -0.421875q0.171875 -0.171875 0.421875 -0.171875q0.25 0 0.421875 0.171875q0.171875 0.171875 0.171875 0.421875q0 0.25 -0.171875 0.421875q-0.171875 0.171875 -0.421875 0.171875zm0 3.6875q-0.25 0 -0.421875 -0.171875q-0.171875 -0.1875 -0.171875 -0.4375q0 -0.234375 0.171875 -0.40625q0.171875 -0.171875 0.421875 -0.171875q0.25 0 0.421875 0.171875q0.171875 0.171875 0.171875 0.40625q0 0.25 -0.171875 0.4375q-0.171875 0.171875 -0.421875 0.171875zm3.9310913 -0.0625l0 -4.75l0.796875 0l0 4.75l-0.796875 0zm0.390625 -5.640625q-0.21875 0 -0.390625 -0.15625q-0.171875 -0.171875 -0.171875 -0.40625q0 -0.25 0.171875 -0.40625q0.171875 -0.15625 0.390625 -0.15625q0.25 0 0.40625 0.15625q0.171875 0.15625 0.171875 0.40625q0 0.234375 -0.171875 0.40625q-0.15625 0.15625 -0.40625 0.15625zm3.764618 5.796875q-0.703125 0 -1.25 -0.328125q-0.546875 -0.34375 -0.859375 -0.90625q-0.3125 -0.578125 -0.3125 -1.296875q0 -0.734375 0.3125 -1.296875q0.3125 -0.578125 0.859375 -0.90625q0.546875 -0.328125 1.25 -0.328125q0.796875 0 1.3125 0.375q0.515625 0.359375 0.734375 0.9375l-0.71875 0.296875q-0.171875 -0.4375 -0.53125 -0.65625q-0.34375 -0.234375 -0.84375 -0.234375q-0.421875 0 -0.78125 0.234375q-0.359375 0.21875 -0.578125 0.625q-0.21875 0.40625 -0.21875 0.953125q0 0.53125 0.21875 0.953125q0.21875 0.40625 0.578125 0.640625q0.359375 0.21875 0.78125 0.21875q0.5 0 0.859375 -0.234375q0.375 -0.234375 0.546875 -0.671875l0.71875 0.296875q-0.234375 0.5625 -0.765625 0.953125q-0.515625 0.375 -1.3125 0.375zm5.0777435 0q-0.71875 0 -1.28125 -0.328125q-0.546875 -0.34375 -0.859375 -0.921875q-0.3125 -0.578125 -0.3125 -1.28125q0 -0.71875 0.3125 -1.28125q0.3125 -0.578125 0.859375 -0.90625q0.5625 -0.34375 1.28125 -0.34375q0.71875 0 1.265625 0.34375q0.546875 0.34375 0.859375 0.921875q0.3125 0.5625 0.3125 1.265625q0 0.703125 -0.3125 1.28125q-0.3125 0.578125 -0.859375 0.921875q-0.546875 0.328125 -1.265625 0.328125zm0 -0.71875q0.421875 0 0.796875 -0.21875q0.390625 -0.21875 0.625 -0.625q0.234375 -0.40625 0.234375 -0.96875q0 -0.578125 -0.234375 -0.984375q-0.234375 -0.40625 -0.625 -0.609375q-0.375 -0.21875 -0.796875 -0.21875q-0.4375 0 -0.828125 0.21875q-0.375 0.203125 -0.609375 0.609375q-0.21875 0.40625 -0.21875 0.984375q0 0.5625 0.21875 0.96875q0.234375 0.40625 0.609375 0.625q0.390625 0.21875 0.828125 0.21875zm3.2787323 0.5625l0 -4.75l0.75 0l0 0.6875l0.03125 0q0.1875 -0.34375 0.609375 -0.59375q0.4375 -0.25 0.9375 -0.25q0.875 0 1.3125 0.515625q0.453125 0.5 0.453125 1.34375l0 3.046875l-0.796875 0l0 -2.921875q0 -0.703125 -0.328125 -0.984375q-0.328125 -0.28125 -0.859375 -0.28125q-0.390625 0 -0.6875 0.21875q-0.296875 0.21875 -0.46875 0.5625q-0.171875 0.34375 -0.171875 0.734375l0 2.671875l-0.78125 0zm11.647202 0.15625l-3.28125 -4.328125q-0.203125 -0.296875 -0.34375 -0.5625q-0.140625 -0.28125 -0.140625 -0.578125q0 -0.421875 0.21875 -0.765625q0.21875 -0.34375 0.578125 -0.546875q0.359375 -0.203125 0.796875 -0.203125q0.609375 0 0.96875 0.34375q0.359375 0.34375 0.515625 0.78125l-0.6875 0.375q-0.046875 -0.171875 -0.15625 -0.34375q-0.09375 -0.171875 -0.25 -0.28125q-0.15625 -0.125 -0.390625 -0.125q-0.34375 0 -0.578125 0.21875q-0.21875 0.203125 -0.21875 0.546875q0 0.1875 0.0625 0.359375q0.0625 0.15625 0.171875 0.28125l3.34375 4.375l-0.609375 0.453125zm-2.109375 -0.734375q0.421875 0 0.75 -0.171875q0.34375 -0.1875 0.609375 -0.484375q0.265625 -0.3125 0.46875 -0.703125q0.21875 -0.40625 0.390625 -0.859375l0.640625 0.390625q-0.1875 0.5625 -0.453125 1.046875q-0.265625 0.46875 -0.625 0.8125q-0.34375 0.328125 -0.765625 0.515625q-0.421875 0.1875 -0.9375 0.1875q-0.703125 0 -1.25 -0.296875q-0.53125 -0.296875 -0.84375 -0.828125q-0.3125 -0.53125 -0.3125 -1.21875q0 -0.46875 0.1875 -0.875q0.1875 -0.421875 0.515625 -0.75q0.34375 -0.34375 0.796875 -0.53125l0.453125 0.609375q-0.359375 0.09375 -0.640625 0.34375q-0.265625 0.234375 -0.4375 0.546875q-0.15625 0.296875 -0.15625 0.640625q0 0.46875 0.1875 0.84375q0.203125 0.359375 0.5625 0.578125q0.375 0.203125 0.859375 0.203125zm5.5534363 -4.171875l2.78125 0l0 0.703125l-2.78125 0l0 -0.703125zm0.828125 3.5l0 -4.84375l0.796875 0l0 4.640625q0 0.375 0.140625 0.59375q0.15625 0.203125 0.515625 0.203125q0.15625 0 0.28125 -0.046875q0.140625 -0.046875 0.234375 -0.125l0 0.78125q-0.109375 0.0625 -0.265625 0.09375q-0.140625 0.03125 -0.375 0.03125q-0.609375 0 -0.96875 -0.34375q-0.359375 -0.359375 -0.359375 -0.984375zm4.8088074 1.40625q-0.6875 0 -1.234375 -0.328125q-0.53125 -0.328125 -0.84375 -0.890625q-0.296875 -0.578125 -0.296875 -1.3125q0 -0.671875 0.28125 -1.25q0.296875 -0.578125 0.8125 -0.921875q0.515625 -0.359375 1.21875 -0.359375q0.703125 0 1.203125 0.3125q0.515625 0.3125 0.796875 0.859375q0.28125 0.546875 0.28125 1.265625q0 0.0625 -0.015625 0.125q0 0.0625 -0.015625 0.109375l-4.09375 0l0 -0.640625l3.28125 0q-0.015625 -0.203125 -0.09375 -0.421875q-0.078125 -0.234375 -0.25 -0.4375q-0.171875 -0.203125 -0.4375 -0.328125q-0.265625 -0.125 -0.65625 -0.125q-0.46875 0 -0.8125 0.234375q-0.328125 0.234375 -0.515625 0.65625q-0.1875 0.40625 -0.1875 0.921875q0 0.609375 0.234375 1.015625q0.234375 0.40625 0.59375 0.609375q0.375 0.1875 0.78125 0.1875q0.515625 0 0.859375 -0.25q0.34375 -0.25 0.546875 -0.609375l0.671875 0.328125q-0.28125 0.53125 -0.8125 0.890625q-0.515625 0.359375 -1.296875 0.359375zm2.5802765 -0.15625l1.90625 -2.734375l0.078125 0l1.34375 -2.015625l0.9375 0l-1.859375 2.609375l-0.0625 0l-1.421875 2.140625l-0.921875 0zm0.03125 -4.75l0.890625 0l1.484375 2.109375l0.03125 0l1.859375 2.640625l-0.921875 0l-1.421875 -2.109375l-0.0625 0l-1.859375 -2.640625zm4.652176 0l2.78125 0l0 0.703125l-2.78125 0l0 -0.703125zm0.828125 3.5l0 -4.84375l0.796875 0l0 4.640625q0 0.375 0.140625 0.59375q0.15625 0.203125 0.515625 0.203125q0.15625 0 0.28125 -0.046875q0.140625 -0.046875 0.234375 -0.125l0 0.78125q-0.109375 0.0625 -0.265625 0.09375q-0.140625 0.03125 -0.375 0.03125q-0.609375 0 -0.96875 -0.34375q-0.359375 -0.359375 -0.359375 -0.984375z" fill-rule="nonzero"/><path fill="#000000" fill-opacity="0.0" d="m149.26247 67.30045l0 -17.637798" fill-rule="evenodd"/><path stroke="#ff0000" stroke-width="1.0" stroke-linejoin="round" stroke-linecap="butt" d="m149.26247 67.30045l0 -13.847794" fill-rule="evenodd"/><path fill="#ff0000" stroke="#ff0000" stroke-width="1.0" stroke-linecap="butt" d="m149.26247 50.16266c0.9085083 0 1.6450043 0.73649216 1.6450043 1.6450005c0 0.9085083 -0.736496 1.6450005 -1.6450043 1.6450005c-0.9085083 0 -1.6450043 -0.73649216 -1.6450043 -1.6450005c0 -0.9085083 0.736496 -1.6450005 1.6450043 -1.6450005z" fill-rule="nonzero"/><path fill="#000000" fill-opacity="0.0" d="m257.6404 64.20596l23.46457 0l0 11.307083l-23.46457 0z" fill-rule="evenodd"/><path fill="#000000" d="m261.15378 73.16596l0 -6.671875l0.796875 0l0 6.671875l-0.796875 0zm4.192047 0.15625q-0.703125 0 -1.25 -0.328125q-0.546875 -0.34375 -0.859375 -0.90625q-0.3125 -0.578125 -0.3125 -1.296875q0 -0.734375 0.3125 -1.296875q0.3125 -0.578125 0.859375 -0.90625q0.546875 -0.328125 1.25 -0.328125q0.796875 0 1.3125 0.375q0.515625 0.359375 0.734375 0.9375l-0.71875 0.296875q-0.171875 -0.4375 -0.53125 -0.65625q-0.34375 -0.234375 -0.84375 -0.234375q-0.421875 0 -0.78125 0.234375q-0.359375 0.21875 -0.578125 0.625q-0.21875 0.40625 -0.21875 0.953125q0 0.53125 0.21875 0.953125q0.21875 0.40625 0.578125 0.640625q0.359375 0.21875 0.78125 0.21875q0.5 0 0.859375 -0.234375q0.375 -0.234375 0.546875 -0.671875l0.71875 0.296875q-0.234375 0.5625 -0.765625 0.953125q-0.515625 0.375 -1.3125 0.375zm5.0777283 0q-0.71875 0 -1.28125 -0.328125q-0.546875 -0.34375 -0.859375 -0.921875q-0.3125 -0.578125 -0.3125 -1.28125q0 -0.71875 0.3125 -1.28125q0.3125 -0.578125 0.859375 -0.90625q0.5625 -0.34375 1.28125 -0.34375q0.71875 0 1.265625 0.34375q0.546875 0.34375 0.859375 0.921875q0.3125 0.5625 0.3125 1.265625q0 0.703125 -0.3125 1.28125q-0.3125 0.578125 -0.859375 0.921875q-0.546875 0.328125 -1.265625 0.328125zm0 -0.71875q0.421875 0 0.796875 -0.21875q0.390625 -0.21875 0.625 -0.625q0.234375 -0.40625 0.234375 -0.96875q0 -0.578125 -0.234375 -0.984375q-0.234375 -0.40625 -0.625 -0.609375q-0.375 -0.21875 -0.796875 -0.21875q-0.4375 0 -0.828125 0.21875q-0.375 0.203125 -0.609375 0.609375q-0.21875 0.40625 -0.21875 0.984375q0 0.5625 0.21875 0.96875q0.234375 0.40625 0.609375 0.625q0.390625 0.21875 0.828125 0.21875zm3.2787476 0.5625l0 -4.75l0.75 0l0 0.6875l0.03125 0q0.1875 -0.34375 0.609375 -0.59375q0.4375 -0.25 0.9375 -0.25q0.875 0 1.3125 0.515625q0.453125 0.5 0.453125 1.34375l0 3.046875l-0.796875 0l0 -2.921875q0 -0.703125 -0.328125 -0.984375q-0.328125 -0.28125 -0.859375 -0.28125q-0.390625 0 -0.6875 0.21875q-0.296875 0.21875 -0.46875 0.5625q-0.171875 0.34375 -0.171875 0.734375l0 2.671875l-0.78125 0z" fill-rule="nonzero"/><path fill="#000000" fill-opacity="0.0" d="m232.17061 64.20596l23.46457 0l0 11.307083l-23.46457 0z" fill-rule="evenodd"/><path fill="#000000" d="m237.33897 73.16596l0 -6.203125l0.78125 0l0 6.203125l-0.78125 0zm-1.875 -5.921875l0 -0.75l4.53125 0l0 0.75l-4.53125 0zm6.724991 6.078125q-0.6875 0 -1.234375 -0.328125q-0.53125 -0.328125 -0.84375 -0.890625q-0.296875 -0.578125 -0.296875 -1.3125q0 -0.671875 0.28125 -1.25q0.296875 -0.578125 0.8125 -0.921875q0.515625 -0.359375 1.21875 -0.359375q0.703125 0 1.203125 0.3125q0.515625 0.3125 0.796875 0.859375q0.28125 0.546875 0.28125 1.265625q0 0.0625 -0.015625 0.125q0 0.0625 -0.015625 0.109375l-4.09375 0l0 -0.640625l3.28125 0q-0.015625 -0.203125 -0.09375 -0.421875q-0.078125 -0.234375 -0.25 -0.4375q-0.171875 -0.203125 -0.4375 -0.328125q-0.265625 -0.125 -0.65625 -0.125q-0.46875 0 -0.8125 0.234375q-0.328125 0.234375 -0.515625 0.65625q-0.1875 0.40625 -0.1875 0.921875q0 0.609375 0.234375 1.015625q0.234375 0.40625 0.59375 0.609375q0.375 0.1875 0.78125 0.1875q0.515625 0 0.859375 -0.25q0.34375 -0.25 0.546875 -0.609375l0.671875 0.328125q-0.28125 0.53125 -0.8125 0.890625q-0.515625 0.359375 -1.296875 0.359375zm2.5802765 -0.15625l1.90625 -2.734375l0.078125 0l1.34375 -2.015625l0.9375 0l-1.859375 2.609375l-0.0625 0l-1.421875 2.140625l-0.921875 0zm0.03125 -4.75l0.890625 0l1.484375 2.109375l0.03125 0l1.859375 2.640625l-0.921875 0l-1.421875 -2.109375l-0.0625 0l-1.859375 -2.640625zm4.652176 0l2.78125 0l0 0.703125l-2.78125 0l0 -0.703125zm0.828125 3.5l0 -4.84375l0.796875 0l0 4.640625q0 0.375 0.140625 0.59375q0.15625 0.203125 0.515625 0.203125q0.15625 0 0.28125 -0.046875q0.140625 -0.046875 0.234375 -0.125l0 0.78125q-0.109375 0.0625 -0.265625 0.09375q-0.140625 0.03125 -0.375 0.03125q-0.609375 0 -0.96875 -0.34375q-0.359375 -0.359375 -0.359375 -0.984375z" fill-rule="nonzero"/><path fill="#000000" fill-opacity="0.0" d="m243.9029 64.20596l-19.716537 -17.763779" fill-rule="evenodd"/><path stroke="#ff0000" stroke-width="1.0" stroke-linejoin="round" stroke-linecap="butt" d="m243.9029 64.20596l-16.900803 -15.22691" fill-rule="evenodd"/><path fill="#ff0000" stroke="#ff0000" stroke-width="1.0" stroke-linecap="butt" d="m224.55782 46.776863c0.6081238 -0.6749649 1.6482697 -0.7291565 2.3232422 -0.121040344c0.6749573 0.60811615 0.7291565 1.648262 0.121032715 2.3232307c-0.6081085 0.6749649 -1.6482544 0.7291603 -2.323227 0.121040344c-0.67497253 -0.60811615 -0.7291565 -1.648262 -0.12104797 -2.3232307z" fill-rule="nonzero"/><path fill="#000000" fill-opacity="0.0" d="m61.860893 10.885753l38.3937 0l0 38.771652l-38.3937 0z" fill-rule="evenodd"/><path fill="#000000" d="m91.74524 30.105753q0.5625 0 0.9375 0.375q0.375 0.375 0.375 0.9375l0 4.624998q0 1.5625 -1.3125 1.5625q-9.3125 0 -16.0 -6.687498q-6.6875 -6.6875 -6.6875 -16.0q0 -1.3125 1.5625 -1.3125l4.625 0q0.5625 0 0.9375 0.375q0.375 0.375 0.375 0.9375q0 2.437501 0.75 4.687501q0.25 0.8125 -0.3125 1.375l-2.5625 2.25q2.875 6.0 9.1875 9.062498l2.0625 -2.624998q0.375 -0.375 0.9375 -0.375q0.3125 0 0.4375 0.0625q2.25 0.75 4.6875 0.75z" fill-rule="nonzero"/><path fill="#000000" fill-opacity="0.0" d="m198.27034 10.885753l38.393707 0l0 38.771652l-38.393707 0z" fill-rule="evenodd"/><path fill="#000000" d="m225.4672 31.043253q1.625 0 2.75 1.1562481q1.125 1.15625 1.125 2.71875q0 1.625 -1.15625 2.78125q-1.15625 1.15625 -2.71875 1.15625q-1.5625 0 -2.71875 -1.15625q-1.15625 -1.15625 -1.15625 -2.78125q0 -0.625 0.0625 -0.875l-9.4375 -5.499998q-1.1875 1.0625 -2.75 1.0625q-1.625 0 -2.8125 -1.1875q-1.1875 -1.1875 -1.1875 -2.8125q0 -1.625 1.1875 -2.8125q1.1875 -1.1875 2.8125 -1.1875q1.5625 0 2.75 1.0625l9.375 -5.4375q-0.125 -0.625 -0.125 -0.9375q0 -1.625001 1.1875 -2.812501q1.1875 -1.1875 2.8125 -1.1875q1.625 0 2.8125 1.1875q1.1875 1.1875 1.1875 2.812501q0 1.625 -1.1875 2.8125q-1.1875 1.1875 -2.8125 1.1875q-1.5 0 -2.75 -1.125l-9.375 5.5q0.125 0.625 0.125 0.9375q0 0.3125 -0.125 0.9375l9.5 5.499998q1.125 -0.9999981 2.625 -0.9999981z" fill-rule="nonzero"/><path fill="#000000" fill-opacity="0.0" d="m130.06561 10.885753l38.393707 0l0 38.771652l-38.393707 0z" fill-rule="evenodd"/><path fill="#000000" d="m161.26247 13.605752l-10.0625 24.0l-1.3125 0l-3.5 -9.124998l-9.125 -3.5l0 -1.3125l24.0 -10.062501z" fill-rule="nonzero"/><path fill="#000000" fill-opacity="0.0" d="m269.3727 64.20596l-51.086624 -34.740158" fill-rule="evenodd"/><path stroke="#ff0000" stroke-width="1.0" stroke-linejoin="round" stroke-linecap="butt" d="m269.3727 64.20596l-47.952606 -32.608948" fill-rule="evenodd"/><path fill="#ff0000" stroke="#ff0000" stroke-width="1.0" stroke-linecap="butt" d="m218.69955 29.746967c0.51086426 -0.75126076 1.5340271 -0.94613266 2.2852936 -0.43525505c0.7512665 0.5108757 0.9461365 1.5340405 0.43525696 2.2853012c-0.5108795 0.75126076 -1.5340424 0.94613075 -2.2853088 0.43525505c-0.7512512 -0.5108757 -0.9461212 -1.5340405 -0.4352417 -2.2853012z" fill-rule="nonzero"/><path fill="#000000" fill-opacity="0.0" d="m149.26247 67.30045l-68.18897 -17.637798" fill-rule="evenodd"/><path stroke="#ff0000" stroke-width="1.0" stroke-linejoin="round" stroke-linecap="butt" d="m149.26247 67.30045l-64.51974 -16.68871" fill-rule="evenodd"/><path fill="#ff0000" stroke="#ff0000" stroke-width="1.0" stroke-linecap="butt" d="m81.557556 49.78787c0.22750854 -0.8795624 1.1249695 -1.4081573 2.0045319 -1.1806488c0.87955475 0.22750854 1.4081497 1.1249657 1.1806412 2.0045242c-0.22750854 0.8795624 -1.1249619 1.4081573 -2.0045242 1.1806488c-0.8795624 -0.22750854 -1.4081497 -1.1249657 -1.1806488 -2.0045242z" fill-rule="nonzero"/><path fill="#000000" fill-opacity="0.0" d="m149.26247 67.30045l68.220474 -17.637798" fill-rule="evenodd"/><path stroke="#ff0000" stroke-width="1.0" stroke-linejoin="round" stroke-linecap="butt" d="m149.26247 67.30045l64.55112 -16.689121" fill-rule="evenodd"/><path fill="#ff0000" stroke="#ff0000" stroke-width="1.0" stroke-linecap="butt" d="m216.99886 49.78781c0.22741699 0.8795891 -0.3012848 1.7769852 -1.1808777 2.0043945c-0.87957764 0.22740936 -1.7769775 -0.3012848 -2.0043793 -1.18087c-0.22741699 -0.8795891 0.3012848 -1.7769852 1.1808624 -2.0043945c0.8795929 -0.22740936 1.7769928 0.3012848 2.0043945 1.18087z" fill-rule="nonzero"/></g></svg>