<svg width="431" height="370" viewBox="0 0 431 370" fill="none" xmlns="http://www.w3.org/2000/svg">
<mask id="mask0" style="mask-type:alpha" maskUnits="userSpaceOnUse" x="0" y="0" width="431" height="370">
<rect width="431" height="370" fill="#C4C4C4"/>
</mask>
<g mask="url(#mask0)">
<path opacity="0.5" d="M386 236.321L45 344V129.987L386 25V236.321Z" fill="url(#paint0_linear)"/>
<rect x="112.5" y="94.4988" width="212.418" height="143.32" rx="9.35703" fill="url(#paint1_linear)" stroke="#0553B1" stroke-width="9"/>
<g filter="url(#filter0_d)">
<rect x="246" y="54.9988" width="96" height="96" rx="8" fill="white"/>
</g>
<path d="M289.074 101.527V80.3407L267 83.4406V101.527H289.074Z" fill="#1E77BD"/>
<path d="M291.027 101.527H319.999V76L291.027 80.066V101.527Z" fill="#1E77BD"/>
<path d="M289.074 103.473H267V121.559L289.074 124.659V103.473Z" fill="#1E77BD"/>
<path d="M291.027 103.473V124.934L319.999 129V103.473H291.027Z" fill="#1E77BD"/>
<g filter="url(#filter1_d)">
<rect x="198" y="193.999" width="96" height="96" rx="8" fill="white"/>
</g>
<g clip-path="url(#clip0)">
<path d="M222.445 249.765C222.697 249.038 222.934 248.325 223.157 247.626C223.38 246.927 223.581 246.242 223.76 245.572H224.709C224.572 246.322 224.447 247.157 224.336 248.076C224.222 248.995 224.107 250.048 223.995 251.239H211V250.207L213.335 249.763V235.684L211 235.217V234.212H219.218V235.217L216.881 235.684V249.765H222.445Z" fill="#231F20"/>
<path d="M230.947 249.992L232.667 250.281V251.239H225.941V250.281L227.686 249.992V241.671L225.941 241.501V240.659C226.791 240.467 227.631 240.231 228.456 239.951C229.303 239.666 230.134 239.338 230.947 238.968V249.992ZM227.568 234.895C227.565 234.648 227.61 234.403 227.703 234.173C227.795 233.944 227.933 233.735 228.107 233.56C228.274 233.38 228.476 233.237 228.702 233.141C228.927 233.044 229.171 232.996 229.416 233C229.663 232.995 229.908 233.042 230.136 233.137C230.363 233.233 230.569 233.374 230.739 233.553C230.915 233.729 231.053 233.939 231.145 234.169C231.238 234.4 231.283 234.647 231.278 234.895C231.281 235.141 231.234 235.385 231.139 235.611C231.044 235.838 230.904 236.042 230.727 236.212C230.557 236.389 230.354 236.529 230.128 236.624C229.903 236.719 229.66 236.766 229.416 236.764C229.172 236.766 228.931 236.719 228.707 236.624C228.483 236.529 228.281 236.389 228.113 236.212C227.938 236.041 227.799 235.836 227.705 235.61C227.612 235.383 227.565 235.14 227.568 234.895V234.895Z" fill="#231F20"/>
<path d="M234.326 251.239V250.281L235.854 249.992V241.671L234.326 241.501V240.659C235.211 240.42 236.054 240.158 236.855 239.875C237.656 239.591 238.417 239.289 239.138 238.968V241.101L241.952 239.365C241.991 239.365 242.045 239.348 242.117 239.34C242.52 239.293 242.796 239.268 242.943 239.268C244.066 239.268 244.887 239.574 245.408 240.186C245.928 240.799 246.189 241.759 246.192 243.066V249.992L247.782 250.281V251.239H241.506V250.281L242.951 249.992V243.512C242.951 242.703 242.825 242.112 242.577 241.737C242.447 241.548 242.27 241.397 242.063 241.298C241.856 241.199 241.627 241.156 241.399 241.173C241.27 241.173 241.141 241.181 241.013 241.198C240.885 241.213 240.759 241.241 240.637 241.28L239.128 241.877V249.992L240.48 250.281V251.239H234.326Z" fill="#231F20"/>
<path d="M257.812 240.933L256.222 240.659V239.676L256.841 239.627C258.833 239.467 260.24 239.347 261.063 239.268V249.478L262.593 249.645V250.483C261.701 250.65 260.859 250.84 260.074 251.047C259.29 251.253 258.532 251.482 257.814 251.73V249.622L254.973 251.359C254.936 251.359 254.88 251.375 254.808 251.383C254.405 251.431 254.127 251.456 253.982 251.456C252.854 251.456 252.027 251.153 251.503 250.547C250.978 249.942 250.717 248.978 250.718 247.657V240.933L249.131 240.659V239.676L249.75 239.627C251.743 239.467 253.15 239.347 253.972 239.268V247.211C253.972 248.037 254.1 248.632 254.362 248.997C254.624 249.362 255.043 249.55 255.619 249.55C255.944 249.543 256.264 249.473 256.563 249.344C256.999 249.155 257.417 248.929 257.814 248.667L257.812 240.933Z" fill="#231F20"/>
<path d="M262.861 251.239V250.281L264.416 249.992L267.962 245.919L264.467 240.845L263.105 240.568V239.579H269.471V240.562L268.08 240.845L269.979 243.529L272.089 240.845L270.867 240.562V239.579H275.148V240.562L273.594 240.845L270.535 244.354L274.457 249.996L275.987 250.285V251.243H269.292V250.281L270.725 249.992L268.542 246.747L265.968 249.992L267.428 250.281V251.239H262.861Z" fill="#231F20"/>
<path d="M276.309 240.909V240.801L276.627 240.754V239.276H276.234C276.214 239.273 276.193 239.277 276.175 239.286C276.158 239.298 276.147 239.316 276.142 239.336C276.124 239.377 276.109 239.419 276.096 239.462C276.082 239.515 276.065 239.585 276.047 239.668H275.943C275.958 239.573 275.968 239.48 275.976 239.387C275.985 239.294 275.993 239.202 275.999 239.109H277.651C277.651 239.202 277.663 239.292 277.673 239.387C277.684 239.482 277.694 239.571 277.706 239.668H277.603C277.587 239.579 277.568 239.509 277.554 239.462C277.543 239.419 277.528 239.376 277.51 239.336C277.506 239.316 277.495 239.299 277.479 239.286C277.458 239.278 277.436 239.275 277.413 239.276H277.017V240.754L277.339 240.801V240.909H276.309Z" fill="#231F20"/>
<path d="M277.781 240.909V240.801L278.029 240.754L278.26 239.27L277.981 239.222V239.115H278.661L279.086 240.353L279.511 239.115H280.201V239.222L279.943 239.27L280.178 240.754L280.405 240.801V240.909H279.538V240.801L279.798 240.754L279.592 239.348L279.043 240.909H278.919L278.386 239.348L278.18 240.754L278.436 240.801V240.909H277.781Z" fill="#231F20"/>
</g>
<g filter="url(#filter2_d)">
<rect x="72" y="123.999" width="96" height="96" rx="8" fill="white"/>
</g>
<path d="M134.747 173.634C134.823 181.79 141.921 184.504 142 184.539C141.94 184.731 140.866 188.407 138.26 192.205C136.008 195.488 133.671 198.759 129.988 198.827C126.37 198.894 125.207 196.687 121.07 196.687C116.934 196.687 115.642 198.759 112.217 198.894C108.662 199.028 105.956 195.343 103.685 192.072C99.0442 185.38 95.4979 173.163 100.26 164.917C102.625 160.821 106.853 158.228 111.441 158.161C114.931 158.095 118.226 160.504 120.36 160.504C122.492 160.504 126.495 157.607 130.704 158.032C132.466 158.106 137.412 158.742 140.587 163.379C140.331 163.537 134.686 166.815 134.747 173.634V173.634ZM127.947 153.605C129.834 151.327 131.104 148.156 130.758 145C128.038 145.109 124.749 146.808 122.798 149.085C121.049 151.101 119.518 154.329 119.931 157.422C122.963 157.656 126.06 155.885 127.947 153.605" fill="black"/>
</g>
<defs>
<filter id="filter0_d" x="230" y="38.9988" width="128" height="128" filterUnits="userSpaceOnUse" color-interpolation-filters="sRGB">
<feFlood flood-opacity="0" result="BackgroundImageFix"/>
<feColorMatrix in="SourceAlpha" type="matrix" values="0 0 0 0 0 0 0 0 0 0 0 0 0 0 0 0 0 0 127 0" result="hardAlpha"/>
<feOffset/>
<feGaussianBlur stdDeviation="8"/>
<feColorMatrix type="matrix" values="0 0 0 0 0 0 0 0 0 0 0 0 0 0 0 0 0 0 0.1 0"/>
<feBlend mode="normal" in2="BackgroundImageFix" result="effect1_dropShadow"/>
<feBlend mode="normal" in="SourceGraphic" in2="effect1_dropShadow" result="shape"/>
</filter>
<filter id="filter1_d" x="182" y="177.999" width="128" height="128" filterUnits="userSpaceOnUse" color-interpolation-filters="sRGB">
<feFlood flood-opacity="0" result="BackgroundImageFix"/>
<feColorMatrix in="SourceAlpha" type="matrix" values="0 0 0 0 0 0 0 0 0 0 0 0 0 0 0 0 0 0 127 0" result="hardAlpha"/>
<feOffset/>
<feGaussianBlur stdDeviation="8"/>
<feColorMatrix type="matrix" values="0 0 0 0 0 0 0 0 0 0 0 0 0 0 0 0 0 0 0.1 0"/>
<feBlend mode="normal" in2="BackgroundImageFix" result="effect1_dropShadow"/>
<feBlend mode="normal" in="SourceGraphic" in2="effect1_dropShadow" result="shape"/>
</filter>
<filter id="filter2_d" x="56" y="107.999" width="128" height="128" filterUnits="userSpaceOnUse" color-interpolation-filters="sRGB">
<feFlood flood-opacity="0" result="BackgroundImageFix"/>
<feColorMatrix in="SourceAlpha" type="matrix" values="0 0 0 0 0 0 0 0 0 0 0 0 0 0 0 0 0 0 127 0" result="hardAlpha"/>
<feOffset/>
<feGaussianBlur stdDeviation="8"/>
<feColorMatrix type="matrix" values="0 0 0 0 0 0 0 0 0 0 0 0 0 0 0 0 0 0 0.1 0"/>
<feBlend mode="normal" in2="BackgroundImageFix" result="effect1_dropShadow"/>
<feBlend mode="normal" in="SourceGraphic" in2="effect1_dropShadow" result="shape"/>
</filter>
<linearGradient id="paint0_linear" x1="48.0446" y1="348.355" x2="406.835" y2="50.0606" gradientUnits="userSpaceOnUse">
<stop stop-color="#C6BAFA"/>
<stop offset="1" stop-color="#13B9FD"/>
</linearGradient>
<linearGradient id="paint1_linear" x1="218.709" y1="89.9988" x2="218.709" y2="242.318" gradientUnits="userSpaceOnUse">
<stop stop-color="#F8BBD0"/>
<stop offset="1" stop-color="#C6BAFA"/>
</linearGradient>
<clipPath id="clip0">
<rect width="69.404" height="18.73" fill="white" transform="translate(211 233)"/>
</clipPath>
</defs>
</svg>
