<svg version="1.1" viewBox="0.0 0.0 216.42257217847768 384.750656167979" fill="none" stroke="none" stroke-linecap="square" stroke-miterlimit="10" xmlns:xlink="http://www.w3.org/1999/xlink" xmlns="http://www.w3.org/2000/svg"><clipPath id="p.0"><path d="m0 0l216.42258 0l0 384.75067l-216.42258 0l0 -384.75067z" clip-rule="nonzero"/></clipPath><g clip-path="url(#p.0)"><path fill="#000000" fill-opacity="0.0" d="m0 0l216.42258 0l0 384.75067l-216.42258 0z" fill-rule="evenodd"/><path fill="#ffffff" d="m0 0l216.0 0l0 384.0l-216.0 0z" fill-rule="evenodd"/><path stroke="#000000" stroke-width="1.0" stroke-linejoin="round" stroke-linecap="butt" d="m0 0l216.0 0l0 384.0l-216.0 0z" fill-rule="evenodd"/><path fill="#efefef" d="m0 0l216.0 0l0 144.0l-216.0 0z" fill-rule="evenodd"/><path stroke="#999999" stroke-width="1.0" stroke-linejoin="round" stroke-linecap="butt" d="m0 0l216.0 0l0 144.0l-216.0 0z" fill-rule="evenodd"/><path fill="#000000" fill-opacity="0.0" d="m0 0l216.0 143.77953" fill-rule="evenodd"/><path stroke="#999999" stroke-width="1.0" stroke-linejoin="round" stroke-linecap="butt" d="m0 0l216.0 143.77953" fill-rule="evenodd"/><path fill="#000000" fill-opacity="0.0" d="m216.0 0l-216.0 143.77953" fill-rule="evenodd"/><path stroke="#999999" stroke-width="1.0" stroke-linejoin="round" stroke-linecap="butt" d="m216.0 0l-216.0 143.77953" fill-rule="evenodd"/><path fill="#ffffff" d="m9.6 153.6l196.7874 0l0 38.393692l-196.7874 0z" fill-rule="evenodd"/><path stroke="#b7b7b7" stroke-width="1.0" stroke-linejoin="round" stroke-linecap="butt" d="m9.6 153.6l196.7874 0l0 38.393692l-196.7874 0z" fill-rule="evenodd"/><path fill="#ffffff" d="m9.606299 201.5958l196.78741 0l0 38.393707l-196.78741 0z" fill-rule="evenodd"/><path stroke="#b7b7b7" stroke-width="1.0" stroke-linejoin="round" stroke-linecap="butt" d="m9.606299 201.5958l196.78741 0l0 38.393707l-196.78741 0z" fill-rule="evenodd"/><path fill="#efefef" d="m9.601049 249.59055l196.78741 0l0 76.787415l-196.78741 0z" fill-rule="evenodd"/><path stroke="#b7b7b7" stroke-width="1.0" stroke-linejoin="round" stroke-linecap="butt" d="m9.601049 249.59055l196.78741 0l0 76.787415l-196.78741 0z" fill-rule="evenodd"/><path fill="#000000" d="m102.355354 290.66425l0 -5.3125l0.6875 0l0 5.3125l-0.6875 0zm-1.609375 -5.078125l0 -0.65625l3.890625 0l0 0.65625l-3.890625 0zm5.7733154 5.203125q-0.578125 0 -1.046875 -0.28125q-0.453125 -0.28125 -0.71875 -0.765625q-0.265625 -0.484375 -0.265625 -1.109375q0 -0.578125 0.25 -1.078125q0.25 -0.5 0.6875 -0.796875q0.4375 -0.296875 1.046875 -0.296875q0.609375 0 1.046875 0.265625q0.4375 0.265625 0.671875 0.734375q0.234375 0.46875 0.234375 1.078125q0 0.0625 -0.015625 0.125q0 0.046875 0 0.09375l-3.515625 0l0 -0.5625l2.8125 0q-0.015625 -0.171875 -0.078125 -0.359375q-0.0625 -0.203125 -0.21875 -0.375q-0.140625 -0.171875 -0.375 -0.28125q-0.234375 -0.109375 -0.5625 -0.109375q-0.40625 0 -0.703125 0.203125q-0.28125 0.203125 -0.4375 0.5625q-0.15625 0.34375 -0.15625 0.796875q0 0.515625 0.203125 0.859375q0.203125 0.34375 0.515625 0.515625q0.3125 0.171875 0.65625 0.171875q0.453125 0 0.734375 -0.203125q0.296875 -0.21875 0.46875 -0.53125l0.578125 0.28125q-0.234375 0.453125 -0.6875 0.765625q-0.453125 0.296875 -1.125 0.296875zm2.22081 -0.125l1.625 -2.34375l0.078125 0l1.15625 -1.734375l0.796875 0l-1.59375 2.25l-0.046875 0l-1.234375 1.828125l-0.78125 0zm0.03125 -4.078125l0.765625 0l1.265625 1.8125l0.03125 0l1.59375 2.265625l-0.796875 0l-1.21875 -1.8125l-0.046875 0l-1.59375 -2.265625zm3.9740753 0l2.390625 0l0 0.609375l-2.390625 0l0 -0.609375zm0.71875 3.0l0 -4.15625l0.671875 0l0 4.0q0 0.3125 0.125 0.5q0.140625 0.171875 0.453125 0.171875q0.125 0 0.234375 -0.03125q0.125 -0.046875 0.203125 -0.109375l0 0.65625q-0.09375 0.0625 -0.21875 0.078125q-0.125 0.03125 -0.328125 0.03125q-0.515625 0 -0.828125 -0.296875q-0.3125 -0.296875 -0.3125 -0.84375z" fill-rule="nonzero"/><path fill="#ffffff" d="m14.4 158.4l119.99999 0l0 28.787415l-119.99999 0z" fill-rule="evenodd"/><path stroke="#b7b7b7" stroke-width="1.0" stroke-linejoin="round" stroke-linecap="butt" d="m14.4 158.4l119.99999 0l0 28.787415l-119.99999 0z" fill-rule="evenodd"/><path fill="#ffffff" d="m139.2 158.4042l28.7874 0l0 28.7874l-28.7874 0z" fill-rule="evenodd"/><path stroke="#b7b7b7" stroke-width="1.0" stroke-linejoin="round" stroke-linecap="butt" d="m139.2 158.4042l28.7874 0l0 28.7874l-28.7874 0z" fill-rule="evenodd"/><path fill="#ffffff" d="m172.8378 158.39896l28.7874 0l0 28.7874l-28.7874 0z" fill-rule="evenodd"/><path stroke="#b7b7b7" stroke-width="1.0" stroke-linejoin="round" stroke-linecap="butt" d="m172.8378 158.39896l28.7874 0l0 28.7874l-28.7874 0z" fill-rule="evenodd"/><path fill="#000000" d="m181.5921 175.47266l0 -5.3125l0.6875 0l0 5.3125l-0.6875 0zm-1.609375 -5.078125l0 -0.65625l3.890625 0l0 0.65625l-3.890625 0zm5.7733154 5.203125q-0.578125 0 -1.046875 -0.28125q-0.453125 -0.28125 -0.71875 -0.765625q-0.265625 -0.484375 -0.265625 -1.109375q0 -0.578125 0.25 -1.078125q0.25 -0.5 0.6875 -0.796875q0.4375 -0.296875 1.046875 -0.296875q0.609375 0 1.046875 0.265625q0.4375 0.265625 0.671875 0.734375q0.234375 0.46875 0.234375 1.078125q0 0.0625 -0.015625 0.125q0 0.046875 0 0.09375l-3.515625 0l0 -0.5625l2.8125 0q-0.015625 -0.171875 -0.078125 -0.359375q-0.0625 -0.203125 -0.21875 -0.375q-0.140625 -0.171875 -0.375 -0.28125q-0.234375 -0.109375 -0.5625 -0.109375q-0.40625 0 -0.703125 0.203125q-0.28125 0.203125 -0.4375 0.5625q-0.15625 0.34375 -0.15625 0.796875q0 0.515625 0.203125 0.859375q0.203125 0.34375 0.515625 0.515625q0.3125 0.171875 0.65625 0.171875q0.453125 0 0.734375 -0.203125q0.296875 -0.21875 0.46875 -0.53125l0.578125 0.28125q-0.234375 0.453125 -0.6875 0.765625q-0.453125 0.296875 -1.125 0.296875zm2.22081 -0.125l1.625 -2.34375l0.078125 0l1.15625 -1.734375l0.796875 0l-1.59375 2.25l-0.046875 0l-1.234375 1.828125l-0.78125 0zm0.03125 -4.078125l0.765625 0l1.265625 1.8125l0.03125 0l1.59375 2.265625l-0.796875 0l-1.21875 -1.8125l-0.046875 0l-1.59375 -2.265625zm3.9740753 0l2.390625 0l0 0.609375l-2.390625 0l0 -0.609375zm0.71875 3.0l0 -4.15625l0.671875 0l0 4.0q0 0.3125 0.125 0.5q0.140625 0.171875 0.453125 0.171875q0.125 0 0.234375 -0.03125q0.125 -0.046875 0.203125 -0.109375l0 0.65625q-0.09375 0.0625 -0.21875 0.078125q-0.125 0.03125 -0.328125 0.03125q-0.515625 0 -0.828125 -0.296875q-0.3125 -0.296875 -0.3125 -0.84375z" fill-rule="nonzero"/><path fill="#ffffff" d="m19.200525 163.61522l110.3937 0l0 9.606308l-110.3937 0z" fill-rule="evenodd"/><path stroke="#b7b7b7" stroke-width="1.0" stroke-linejoin="round" stroke-linecap="butt" d="m19.200525 163.61522l110.3937 0l0 9.606308l-110.3937 0z" fill-rule="evenodd"/><path fill="#000000" d="m68.75798 171.09837l0 -5.3125l0.6875 0l0 5.3125l-0.6875 0zm-1.609375 -5.078125l0 -0.65625l3.890625 0l0 0.65625l-3.890625 0zm5.7733154 5.203125q-0.578125 0 -1.046875 -0.28125q-0.453125 -0.28125 -0.71875 -0.765625q-0.265625 -0.484375 -0.265625 -1.109375q0 -0.578125 0.25 -1.078125q0.25 -0.5 0.6875 -0.796875q0.4375 -0.296875 1.046875 -0.296875q0.609375 0 1.046875 0.265625q0.4375 0.265625 0.671875 0.734375q0.234375 0.46875 0.234375 1.078125q0 0.0625 -0.015625 0.125q0 0.046875 0 0.09375l-3.515625 0l0 -0.5625l2.8125 0q-0.015625 -0.171875 -0.078125 -0.359375q-0.0625 -0.203125 -0.21875 -0.375q-0.140625 -0.171875 -0.375 -0.28125q-0.234375 -0.109375 -0.5625 -0.109375q-0.40625 0 -0.703125 0.203125q-0.28125 0.203125 -0.4375 0.5625q-0.15625 0.34375 -0.15625 0.796875q0 0.515625 0.203125 0.859375q0.203125 0.34375 0.515625 0.515625q0.3125 0.171875 0.65625 0.171875q0.453125 0 0.734375 -0.203125q0.296875 -0.21875 0.46875 -0.53125l0.578125 0.28125q-0.234375 0.453125 -0.6875 0.765625q-0.453125 0.296875 -1.125 0.296875zm2.22081 -0.125l1.625 -2.34375l0.078125 0l1.15625 -1.734375l0.796875 0l-1.59375 2.25l-0.046875 0l-1.234375 1.828125l-0.78125 0zm0.03125 -4.078125l0.765625 0l1.265625 1.8125l0.03125 0l1.59375 2.265625l-0.796875 0l-1.21875 -1.8125l-0.046875 0l-1.59375 -2.265625zm3.9740753 0l2.390625 0l0 0.609375l-2.390625 0l0 -0.609375zm0.71875 3.0l0 -4.15625l0.671875 0l0 4.0q0 0.3125 0.125 0.5q0.140625 0.171875 0.453125 0.171875q0.125 0 0.234375 -0.03125q0.125 -0.046875 0.203125 -0.109375l0 0.65625q-0.09375 0.0625 -0.21875 0.078125q-0.125 0.03125 -0.328125 0.03125q-0.515625 0 -0.828125 -0.296875q-0.3125 -0.296875 -0.3125 -0.84375z" fill-rule="nonzero"/><path fill="#efefef" d="m48.00315 206.39896l28.7874 0l0 28.7874l-28.7874 0z" fill-rule="evenodd"/><path stroke="#999999" stroke-width="1.0" stroke-linejoin="round" stroke-linecap="butt" d="m48.00315 206.39896l28.7874 0l0 28.7874l-28.7874 0z" fill-rule="evenodd"/><path fill="#000000" fill-opacity="0.0" d="m48.002625 224.41628l28.7874 0l0 9.70079l-28.7874 0z" fill-rule="evenodd"/><path fill="#000000" d="m56.756927 232.09627l0 -5.3125l0.6875 0l0 5.3125l-0.6875 0zm-1.609375 -5.078125l0 -0.65625l3.890625 0l0 0.65625l-3.890625 0zm5.7733154 5.203125q-0.578125 0 -1.046875 -0.28125q-0.453125 -0.28125 -0.71875 -0.765625q-0.265625 -0.484375 -0.265625 -1.109375q0 -0.578125 0.25 -1.078125q0.25 -0.5 0.6875 -0.796875q0.4375 -0.296875 1.046875 -0.296875q0.609375 0 1.046875 0.265625q0.4375 0.265625 0.671875 0.734375q0.234375 0.46875 0.234375 1.078125q0 0.0625 -0.015625 0.125q0 0.046875 0 0.09375l-3.515625 0l0 -0.5625l2.8125 0q-0.015625 -0.171875 -0.078125 -0.359375q-0.0625 -0.203125 -0.21875 -0.375q-0.140625 -0.171875 -0.375 -0.28125q-0.234375 -0.109375 -0.5625 -0.109375q-0.40625 0 -0.703125 0.203125q-0.28125 0.203125 -0.4375 0.5625q-0.15625 0.34375 -0.15625 0.796875q0 0.515625 0.203125 0.859375q0.203125 0.34375 0.515625 0.515625q0.3125 0.171875 0.65625 0.171875q0.453125 0 0.734375 -0.203125q0.296875 -0.21875 0.46875 -0.53125l0.578125 0.28125q-0.234375 0.453125 -0.6875 0.765625q-0.453125 0.296875 -1.125 0.296875zm2.22081 -0.125l1.625 -2.34375l0.078125 0l1.15625 -1.734375l0.796875 0l-1.59375 2.25l-0.046875 0l-1.234375 1.828125l-0.78125 0zm0.03125 -4.078125l0.765625 0l1.265625 1.8125l0.03125 0l1.59375 2.265625l-0.796875 0l-1.21875 -1.8125l-0.046875 0l-1.59375 -2.265625zm3.9740753 0l2.390625 0l0 0.609375l-2.390625 0l0 -0.609375zm0.71875 3.0l0 -4.15625l0.671875 0l0 4.0q0 0.3125 0.125 0.5q0.140625 0.171875 0.453125 0.171875q0.125 0 0.234375 -0.03125q0.125 -0.046875 0.203125 -0.109375l0 0.65625q-0.09375 0.0625 -0.21875 0.078125q-0.125 0.03125 -0.328125 0.03125q-0.515625 0 -0.828125 -0.296875q-0.3125 -0.296875 -0.3125 -0.84375z" fill-rule="nonzero"/><path fill="#666666" d="m55.199474 216.20735l0 0c0 -3.9747162 3.2221413 -7.1968536 7.19685 -7.1968536l0 0c1.9087219 0 3.739273 0.75823975 5.0889435 2.1079102c1.3496704 1.3496704 2.1079102 3.1802216 2.1079102 5.0889435l0 0c0 3.974701 -3.222145 7.1968536 -7.1968536 7.1968536l0 0c-3.9747086 0 -7.19685 -3.2221527 -7.19685 -7.1968536z" fill-rule="evenodd"/><path stroke="#999999" stroke-width="1.0" stroke-linejoin="round" stroke-linecap="butt" d="m55.199474 216.20735l0 0c0 -3.9747162 3.2221413 -7.1968536 7.19685 -7.1968536l0 0c1.9087219 0 3.739273 0.75823975 5.0889435 2.1079102c1.3496704 1.3496704 2.1079102 3.1802216 2.1079102 5.0889435l0 0c0 3.974701 -3.222145 7.1968536 -7.1968536 7.1968536l0 0c-3.9747086 0 -7.19685 -3.2221527 -7.19685 -7.1968536z" fill-rule="evenodd"/><path fill="#ffffff" d="m61.516838 221.00735l0 -6.796875l1.75 0l0 6.796875l-1.75 0zm0.890625 -7.546875q-0.46875 0 -0.8125 -0.328125q-0.328125 -0.328125 -0.328125 -0.796875q0 -0.46875 0.328125 -0.796875q0.34375 -0.328125 0.8125 -0.328125q0.46875 0 0.78125 0.328125q0.328125 0.328125 0.328125 0.796875q0 0.46875 -0.328125 0.796875q-0.3125 0.328125 -0.78125 0.328125z" fill-rule="nonzero"/><path fill="#efefef" d="m139.2 206.39896l28.7874 0l0 28.7874l-28.7874 0z" fill-rule="evenodd"/><path stroke="#999999" stroke-width="1.0" stroke-linejoin="round" stroke-linecap="butt" d="m139.2 206.39896l28.7874 0l0 28.7874l-28.7874 0z" fill-rule="evenodd"/><path fill="#000000" fill-opacity="0.0" d="m139.19948 224.41628l28.7874 0l0 9.70079l-28.7874 0z" fill-rule="evenodd"/><path fill="#000000" d="m147.95378 232.09627l0 -5.3125l0.6875 0l0 5.3125l-0.6875 0zm-1.609375 -5.078125l0 -0.65625l3.890625 0l0 0.65625l-3.890625 0zm5.7733154 5.203125q-0.578125 0 -1.046875 -0.28125q-0.453125 -0.28125 -0.71875 -0.765625q-0.265625 -0.484375 -0.265625 -1.109375q0 -0.578125 0.25 -1.078125q0.25 -0.5 0.6875 -0.796875q0.4375 -0.296875 1.046875 -0.296875q0.609375 0 1.046875 0.265625q0.4375 0.265625 0.671875 0.734375q0.234375 0.46875 0.234375 1.078125q0 0.0625 -0.015625 0.125q0 0.046875 0 0.09375l-3.515625 0l0 -0.5625l2.8125 0q-0.015625 -0.171875 -0.078125 -0.359375q-0.0625 -0.203125 -0.21875 -0.375q-0.140625 -0.171875 -0.375 -0.28125q-0.234375 -0.109375 -0.5625 -0.109375q-0.40625 0 -0.703125 0.203125q-0.28125 0.203125 -0.4375 0.5625q-0.15625 0.34375 -0.15625 0.796875q0 0.515625 0.203125 0.859375q0.203125 0.34375 0.515625 0.515625q0.3125 0.171875 0.65625 0.171875q0.453125 0 0.734375 -0.203125q0.296875 -0.21875 0.46875 -0.53125l0.578125 0.28125q-0.234375 0.453125 -0.6875 0.765625q-0.453125 0.296875 -1.125 0.296875zm2.22081 -0.125l1.625 -2.34375l0.078125 0l1.15625 -1.734375l0.796875 0l-1.59375 2.25l-0.046875 0l-1.234375 1.828125l-0.78125 0zm0.03125 -4.078125l0.765625 0l1.265625 1.8125l0.03125 0l1.59375 2.265625l-0.796875 0l-1.21875 -1.8125l-0.046875 0l-1.59375 -2.265625zm3.9740753 0l2.390625 0l0 0.609375l-2.390625 0l0 -0.609375zm0.71875 3.0l0 -4.15625l0.671875 0l0 4.0q0 0.3125 0.125 0.5q0.140625 0.171875 0.453125 0.171875q0.125 0 0.234375 -0.03125q0.125 -0.046875 0.203125 -0.109375l0 0.65625q-0.09375 0.0625 -0.21875 0.078125q-0.125 0.03125 -0.328125 0.03125q-0.515625 0 -0.828125 -0.296875q-0.3125 -0.296875 -0.3125 -0.84375z" fill-rule="nonzero"/><path fill="#666666" d="m146.39633 216.20735l0 0c0 -3.9747162 3.2221375 -7.1968536 7.1968384 -7.1968536l0 0c1.9087219 0 3.739273 0.75823975 5.0889435 2.1079102c1.3496704 1.3496704 2.1079102 3.1802216 2.1079102 5.0889435l0 0c0 3.974701 -3.2221375 7.1968536 -7.1968536 7.1968536l0 0c-3.974701 0 -7.1968384 -3.2221527 -7.1968384 -7.1968536z" fill-rule="evenodd"/><path stroke="#999999" stroke-width="1.0" stroke-linejoin="round" stroke-linecap="butt" d="m146.39633 216.20735l0 0c0 -3.9747162 3.2221375 -7.1968536 7.1968384 -7.1968536l0 0c1.9087219 0 3.739273 0.75823975 5.0889435 2.1079102c1.3496704 1.3496704 2.1079102 3.1802216 2.1079102 5.0889435l0 0c0 3.974701 -3.2221375 7.1968536 -7.1968536 7.1968536l0 0c-3.974701 0 -7.1968384 -3.2221527 -7.1968384 -7.1968536z" fill-rule="evenodd"/><path fill="#ffffff" d="m152.71368 221.00735l0 -6.796875l1.75 0l0 6.796875l-1.75 0zm0.890625 -7.546875q-0.46875 0 -0.8125 -0.328125q-0.328125 -0.328125 -0.328125 -0.796875q0 -0.46875 0.328125 -0.796875q0.34375 -0.328125 0.8125 -0.328125q0.46875 0 0.78125 0.328125q0.328125 0.328125 0.328125 0.796875q0 0.46875 -0.328125 0.796875q-0.3125 0.328125 -0.78125 0.328125z" fill-rule="nonzero"/><path fill="#efefef" d="m93.60158 206.39896l28.7874 0l0 28.7874l-28.7874 0z" fill-rule="evenodd"/><path stroke="#999999" stroke-width="1.0" stroke-linejoin="round" stroke-linecap="butt" d="m93.60158 206.39896l28.7874 0l0 28.7874l-28.7874 0z" fill-rule="evenodd"/><path fill="#000000" fill-opacity="0.0" d="m93.60105 224.41628l28.7874 0l0 9.70079l-28.7874 0z" fill-rule="evenodd"/><path fill="#000000" d="m102.355354 232.09627l0 -5.3125l0.6875 0l0 5.3125l-0.6875 0zm-1.609375 -5.078125l0 -0.65625l3.890625 0l0 0.65625l-3.890625 0zm5.7733154 5.203125q-0.578125 0 -1.046875 -0.28125q-0.453125 -0.28125 -0.71875 -0.765625q-0.265625 -0.484375 -0.265625 -1.109375q0 -0.578125 0.25 -1.078125q0.25 -0.5 0.6875 -0.796875q0.4375 -0.296875 1.046875 -0.296875q0.609375 0 1.046875 0.265625q0.4375 0.265625 0.671875 0.734375q0.234375 0.46875 0.234375 1.078125q0 0.0625 -0.015625 0.125q0 0.046875 0 0.09375l-3.515625 0l0 -0.5625l2.8125 0q-0.015625 -0.171875 -0.078125 -0.359375q-0.0625 -0.203125 -0.21875 -0.375q-0.140625 -0.171875 -0.375 -0.28125q-0.234375 -0.109375 -0.5625 -0.109375q-0.40625 0 -0.703125 0.203125q-0.28125 0.203125 -0.4375 0.5625q-0.15625 0.34375 -0.15625 0.796875q0 0.515625 0.203125 0.859375q0.203125 0.34375 0.515625 0.515625q0.3125 0.171875 0.65625 0.171875q0.453125 0 0.734375 -0.203125q0.296875 -0.21875 0.46875 -0.53125l0.578125 0.28125q-0.234375 0.453125 -0.6875 0.765625q-0.453125 0.296875 -1.125 0.296875zm2.22081 -0.125l1.625 -2.34375l0.078125 0l1.15625 -1.734375l0.796875 0l-1.59375 2.25l-0.046875 0l-1.234375 1.828125l-0.78125 0zm0.03125 -4.078125l0.765625 0l1.265625 1.8125l0.03125 0l1.59375 2.265625l-0.796875 0l-1.21875 -1.8125l-0.046875 0l-1.59375 -2.265625zm3.9740753 0l2.390625 0l0 0.609375l-2.390625 0l0 -0.609375zm0.71875 3.0l0 -4.15625l0.671875 0l0 4.0q0 0.3125 0.125 0.5q0.140625 0.171875 0.453125 0.171875q0.125 0 0.234375 -0.03125q0.125 -0.046875 0.203125 -0.109375l0 0.65625q-0.09375 0.0625 -0.21875 0.078125q-0.125 0.03125 -0.328125 0.03125q-0.515625 0 -0.828125 -0.296875q-0.3125 -0.296875 -0.3125 -0.84375z" fill-rule="nonzero"/><path fill="#666666" d="m100.7979 216.20735l0 0c0 -3.9747162 3.222145 -7.1968536 7.1968536 -7.1968536l0 0c1.9087219 0 3.739273 0.75823975 5.0889435 2.1079102c1.3496704 1.3496704 2.1079102 3.1802216 2.1079102 5.0889435l0 0c0 3.974701 -3.222145 7.1968536 -7.1968536 7.1968536l0 0c-3.9747086 0 -7.1968536 -3.2221527 -7.1968536 -7.1968536z" fill-rule="evenodd"/><path stroke="#999999" stroke-width="1.0" stroke-linejoin="round" stroke-linecap="butt" d="m100.7979 216.20735l0 0c0 -3.9747162 3.222145 -7.1968536 7.1968536 -7.1968536l0 0c1.9087219 0 3.739273 0.75823975 5.0889435 2.1079102c1.3496704 1.3496704 2.1079102 3.1802216 2.1079102 5.0889435l0 0c0 3.974701 -3.222145 7.1968536 -7.1968536 7.1968536l0 0c-3.9747086 0 -7.1968536 -3.2221527 -7.1968536 -7.1968536z" fill-rule="evenodd"/><path fill="#ffffff" d="m107.115265 221.00735l0 -6.796875l1.75 0l0 6.796875l-1.75 0zm0.890625 -7.546875q-0.46875 0 -0.8125 -0.328125q-0.328125 -0.328125 -0.328125 -0.796875q0 -0.46875 0.328125 -0.796875q0.34375 -0.328125 0.8125 -0.328125q0.46875 0 0.78125 0.328125q0.328125 0.328125 0.328125 0.796875q0 0.46875 -0.328125 0.796875q-0.3125 0.328125 -0.78125 0.328125z" fill-rule="nonzero"/><path fill="#666666" d="m146.42126 172.7979l0 0c0 -3.974701 3.2221375 -7.1968536 7.1968384 -7.1968536l0 0c1.9087372 0 3.739273 0.75823975 5.0889435 2.1079102c1.3496704 1.3496704 2.1079102 3.1802216 2.1079102 5.0889435l0 0c0 3.9747162 -3.2221375 7.1968536 -7.1968536 7.1968536l0 0c-3.974701 0 -7.1968384 -3.2221375 -7.1968384 -7.1968536z" fill-rule="evenodd"/><path stroke="#000000" stroke-width="1.0" stroke-linejoin="round" stroke-linecap="butt" d="m146.42126 172.7979l0 0c0 -3.974701 3.2221375 -7.1968536 7.1968384 -7.1968536l0 0c1.9087372 0 3.739273 0.75823975 5.0889435 2.1079102c1.3496704 1.3496704 2.1079102 3.1802216 2.1079102 5.0889435l0 0c0 3.9747162 -3.2221375 7.1968536 -7.1968536 7.1968536l0 0c-3.974701 0 -7.1968384 -3.2221375 -7.1968384 -7.1968536z" fill-rule="evenodd"/><path fill="#ffffff" d="m152.73862 177.5979l0 -6.796875l1.75 0l0 6.796875l-1.75 0zm0.890625 -7.546875q-0.46875 0 -0.8125 -0.328125q-0.328125 -0.328125 -0.328125 -0.796875q0 -0.46875 0.328125 -0.796875q0.34375 -0.328125 0.8125 -0.328125q0.46875 0 0.78125 0.328125q0.328125 0.328125 0.328125 0.796875q0 0.46875 -0.328125 0.796875q-0.3125 0.328125 -0.78125 0.328125z" fill-rule="nonzero"/><path fill="#ffffff" d="m19.20315 173.22153l110.3937 0l0 9.606293l-110.3937 0z" fill-rule="evenodd"/><path stroke="#b7b7b7" stroke-width="1.0" stroke-linejoin="round" stroke-linecap="butt" d="m19.20315 173.22153l110.3937 0l0 9.606293l-110.3937 0z" fill-rule="evenodd"/><path fill="#000000" d="m68.760605 180.70467l0 -5.3125l0.6875 0l0 5.3125l-0.6875 0zm-1.609375 -5.078125l0 -0.65625l3.890625 0l0 0.65625l-3.890625 0zm5.7733154 5.203125q-0.578125 0 -1.046875 -0.28125q-0.453125 -0.28125 -0.71875 -0.765625q-0.265625 -0.484375 -0.265625 -1.109375q0 -0.578125 0.25 -1.078125q0.25 -0.5 0.6875 -0.796875q0.4375 -0.296875 1.046875 -0.296875q0.609375 0 1.046875 0.265625q0.4375 0.265625 0.671875 0.734375q0.234375 0.46875 0.234375 1.078125q0 0.0625 -0.015625 0.125q0 0.046875 0 0.09375l-3.515625 0l0 -0.5625l2.8125 0q-0.015625 -0.171875 -0.078125 -0.359375q-0.0625 -0.203125 -0.21875 -0.375q-0.140625 -0.171875 -0.375 -0.28125q-0.234375 -0.109375 -0.5625 -0.109375q-0.40625 0 -0.703125 0.203125q-0.28125 0.203125 -0.4375 0.5625q-0.15625 0.34375 -0.15625 0.796875q0 0.515625 0.203125 0.859375q0.203125 0.34375 0.515625 0.515625q0.3125 0.171875 0.65625 0.171875q0.453125 0 0.734375 -0.203125q0.296875 -0.21875 0.46875 -0.53125l0.578125 0.28125q-0.234375 0.453125 -0.6875 0.765625q-0.453125 0.296875 -1.125 0.296875zm2.22081 -0.125l1.625 -2.34375l0.078125 0l1.15625 -1.734375l0.796875 0l-1.59375 2.25l-0.046875 0l-1.234375 1.828125l-0.78125 0zm0.03125 -4.078125l0.765625 0l1.265625 1.8125l0.03125 0l1.59375 2.265625l-0.796875 0l-1.21875 -1.8125l-0.046875 0l-1.59375 -2.265625zm3.9740753 0l2.390625 0l0 0.609375l-2.390625 0l0 -0.609375zm0.71875 3.0l0 -4.15625l0.671875 0l0 4.0q0 0.3125 0.125 0.5q0.140625 0.171875 0.453125 0.171875q0.125 0 0.234375 -0.03125q0.125 -0.046875 0.203125 -0.109375l0 0.65625q-0.09375 0.0625 -0.21875 0.078125q-0.125 0.03125 -0.328125 0.03125q-0.515625 0 -0.828125 -0.296875q-0.3125 -0.296875 -0.3125 -0.84375z" fill-rule="nonzero"/></g></svg>