<svg version="1.1" viewBox="0.0 0.0 299.34120734908134 123.43307086614173" fill="none" stroke="none" stroke-linecap="square" stroke-miterlimit="10" xmlns:xlink="http://www.w3.org/1999/xlink" xmlns="http://www.w3.org/2000/svg"><clipPath id="p.0"><path d="m0 0l299.34122 0l0 123.43307l-299.34122 0l0 -123.43307z" clip-rule="nonzero"/></clipPath><g clip-path="url(#p.0)"><path fill="#000000" fill-opacity="0.0" d="m0 0l299.34122 0l0 123.43307l-299.34122 0z" fill-rule="evenodd"/><path fill="#ffffff" d="m2.0800524 63.897636l295.18112 0l0 57.133858l-295.18112 0z" fill-rule="evenodd"/><path fill="#000000" fill-opacity="0.0" d="m59.675327 71.045204l43.181103 0l0 42.83853l-43.181103 0z" fill-rule="evenodd"/><path fill="#000000" fill-opacity="0.0" d="m59.67454 97.85678l43.181103 0l0 14.435745l-43.181103 0z" fill-rule="evenodd"/><path fill="#674ea7" d="m74.87735 110.49753q-0.625 0 -1.171875 -0.21875q-0.546875 -0.234375 -0.953125 -0.640625q-0.390625 -0.40625 -0.625 -0.953125q-0.21875 -0.546875 -0.21875 -1.171875q0 -0.640625 0.21875 -1.1875q0.234375 -0.546875 0.625 -0.953125q0.40625 -0.40625 0.953125 -0.625q0.546875 -0.234375 1.171875 -0.234375q0.4375 0 0.8125 0.125q0.390625 0.109375 0.703125 0.3125q0.328125 0.203125 0.578125 0.5l-0.484375 0.46875q-0.21875 -0.265625 -0.46875 -0.421875q-0.234375 -0.171875 -0.53125 -0.25q-0.28125 -0.078125 -0.609375 -0.078125q-0.609375 0 -1.140625 0.296875q-0.515625 0.28125 -0.828125 0.8125q-0.3125 0.515625 -0.3125 1.234375q0 0.703125 0.3125 1.234375q0.3125 0.53125 0.828125 0.828125q0.53125 0.28125 1.140625 0.28125q0.375 0 0.6875 -0.109375q0.328125 -0.109375 0.59375 -0.296875q0.265625 -0.1875 0.484375 -0.453125l0.5 0.484375q-0.25 0.296875 -0.609375 0.53125q-0.34375 0.21875 -0.765625 0.359375q-0.40625 0.125 -0.890625 0.125zm2.7247925 -0.125l2.171875 -5.734375l0.765625 0l2.171875 5.734375l-0.734375 0l-1.578125 -4.28125l-0.21875 -0.609375l-0.046875 0l-0.21875 0.609375l-1.578125 4.28125l-0.734375 0zm2.46875 -1.578125l0 -0.640625l1.328125 0l0.234375 0.640625l-1.5625 0zm-1.546875 0l0.234375 -0.640625l1.3125 0l0 0.640625l-1.546875 0zm4.9536743 1.578125l0 -5.734375l0.671875 0l0 5.09375l2.515625 0l0 0.640625l-3.1875 0zm4.071945 0l0 -5.734375l0.671875 0l0 5.09375l2.515625 0l0 0.640625l-3.1875 0z" fill-rule="nonzero"/><path fill="#000000" fill-opacity="0.0" d="m196.4706 71.045204l43.181107 0l0 42.83853l-43.181107 0z" fill-rule="evenodd"/><path fill="#000000" fill-opacity="0.0" d="m196.46982 97.85678l43.181107 0l0 14.435745l-43.181107 0z" fill-rule="evenodd"/><path fill="#674ea7" d="m208.0269 110.49753q-0.40625 0 -0.8125 -0.171875q-0.40625 -0.171875 -0.71875 -0.515625q-0.3125 -0.34375 -0.46875 -0.859375l0.65625 -0.265625q0.140625 0.5 0.5 0.84375q0.359375 0.328125 0.859375 0.328125q0.328125 0 0.59375 -0.109375q0.265625 -0.125 0.421875 -0.34375q0.171875 -0.234375 0.171875 -0.546875q0 -0.296875 -0.140625 -0.484375q-0.140625 -0.203125 -0.421875 -0.359375q-0.28125 -0.15625 -0.6875 -0.296875l-0.359375 -0.140625q-0.234375 -0.078125 -0.484375 -0.203125q-0.234375 -0.125 -0.4375 -0.296875q-0.203125 -0.1875 -0.328125 -0.4375q-0.125 -0.25 -0.125 -0.609375q0 -0.40625 0.21875 -0.75q0.234375 -0.34375 0.625 -0.546875q0.390625 -0.21875 0.90625 -0.21875q0.53125 0 0.890625 0.203125q0.375 0.1875 0.578125 0.46875q0.21875 0.265625 0.28125 0.484375l-0.625 0.265625q-0.046875 -0.15625 -0.1875 -0.328125q-0.125 -0.1875 -0.359375 -0.3125q-0.234375 -0.125 -0.578125 -0.125q-0.28125 0 -0.53125 0.109375q-0.234375 0.109375 -0.390625 0.3125q-0.140625 0.1875 -0.140625 0.4375q0 0.375 0.28125 0.578125q0.296875 0.203125 0.78125 0.375l0.375 0.125q0.265625 0.09375 0.53125 0.21875q0.265625 0.125 0.5 0.328125q0.234375 0.203125 0.375 0.5q0.140625 0.28125 0.140625 0.6875q0 0.4375 -0.171875 0.765625q-0.171875 0.3125 -0.453125 0.515625q-0.28125 0.1875 -0.609375 0.28125q-0.328125 0.09375 -0.65625 0.09375zm2.9021912 -0.125l0 -5.734375l0.671875 0l0 5.734375l-0.671875 0zm0.359375 -2.609375l0 -0.640625l3.421875 0l0 0.640625l-3.421875 0zm3.265625 2.609375l0 -5.734375l0.671875 0l0 5.734375l-0.671875 0zm1.4432983 0l2.171875 -5.734375l0.765625 0l2.171875 5.734375l-0.734375 0l-1.578125 -4.28125l-0.21875 -0.609375l-0.046875 0l-0.21875 0.609375l-1.578125 4.28125l-0.734375 0zm2.46875 -1.578125l0 -0.640625l1.328125 0l0.234375 0.640625l-1.5625 0zm-1.546875 0l0.234375 -0.640625l1.3125 0l0 0.640625l-1.546875 0zm4.9536743 1.578125l0 -5.734375l1.9375 0q0.484375 0 0.875 0.21875q0.40625 0.21875 0.65625 0.609375q0.25 0.375 0.25 0.875q0 0.296875 -0.125 0.609375q-0.109375 0.296875 -0.34375 0.546875q-0.234375 0.25 -0.609375 0.390625q-0.359375 0.140625 -0.859375 0.140625l-1.421875 0l0 -0.625l1.53125 0q0.296875 0 0.546875 -0.125q0.265625 -0.140625 0.421875 -0.375q0.15625 -0.25 0.15625 -0.5625q0 -0.25 -0.125 -0.484375q-0.125 -0.25 -0.375 -0.40625q-0.234375 -0.15625 -0.578125 -0.15625l-1.265625 0l0 5.078125l-0.671875 0zm1.390625 -2.625l0.734375 -0.03125l1.8125 2.625l0 0.03125l-0.796875 0l-1.75 -2.625zm3.2973175 2.625l0 -5.734375l3.3125 0l0 0.65625l-2.640625 0l0 4.4375l2.640625 0l0 0.640625l-3.3125 0zm0.359375 -2.546875l0 -0.640625l2.703125 0l0 0.640625l-2.703125 0z" fill-rule="nonzero"/><path fill="#000000" fill-opacity="0.0" d="m62.269028 73.077354l38.3937 0l0 38.771652l-38.3937 0z" fill-rule="evenodd"/><path fill="#674ea7" d="m92.15338 92.297356q0.5625 0 0.9375 0.375q0.375 0.375 0.375 0.9375l0 4.625q0 1.5625 -1.3125 1.5625q-9.3125 0 -16.0 -6.6875q-6.6875 -6.6875 -6.6875 -16.0q0 -1.3125 1.5625 -1.3125l4.625 0q0.5625 0 0.9375 0.375q0.375 0.375 0.375 0.9375q0 2.4375 0.75 4.6875q0.25 0.8125 -0.3125 1.375l-2.5625 2.25q2.875 6.0 9.1875 9.0625l2.0625 -2.625q0.375 -0.375 0.9375 -0.375q0.3125 0 0.4375 0.0625q2.25 0.75 4.6875 0.75z" fill-rule="nonzero"/><path fill="#000000" fill-opacity="0.0" d="m198.67848 73.077354l38.393692 0l0 38.771652l-38.393692 0z" fill-rule="evenodd"/><path fill="#674ea7" d="m225.87532 93.234856q1.625 0 2.75 1.15625q1.125 1.15625 1.125 2.71875q0 1.625 -1.15625 2.78125q-1.15625 1.15625 -2.71875 1.15625q-1.5625 0 -2.71875 -1.15625q-1.15625 -1.15625 -1.15625 -2.78125q0 -0.625 0.0625 -0.875l-9.4375 -5.5q-1.1875 1.0625 -2.75 1.0625q-1.625 0 -2.8125 -1.1875q-1.1875 -1.1875 -1.1875 -2.8125q0 -1.625 1.1875 -2.8125q1.1875 -1.1875 2.8125 -1.1875q1.5625 0 2.75 1.0625l9.375 -5.4375q-0.125 -0.625 -0.125 -0.9375q0 -1.625 1.1875 -2.8125q1.1875 -1.1875 2.8125 -1.1875q1.625 0 2.8125 1.1875q1.1875 1.1875 1.1875 2.8125q0 1.625 -1.1875 2.8125q-1.1875 1.1875 -2.8125 1.1875q-1.5 0 -2.75 -1.125l-9.375 5.5q0.125 0.625 0.125 0.9375q0 0.3125 -0.125 0.9375l9.5 5.5q1.125 -1.0 2.625 -1.0z" fill-rule="nonzero"/><path fill="#000000" fill-opacity="0.0" d="m128.07297 71.045204l43.181107 0l0 42.83853l-43.181107 0z" fill-rule="evenodd"/><path fill="#000000" fill-opacity="0.0" d="m128.07217 97.85678l43.181107 0l0 14.435745l-43.181107 0z" fill-rule="evenodd"/><path fill="#674ea7" d="m137.69551 110.37253l0 -5.734375l1.9375 0q0.484375 0 0.875 0.21875q0.40625 0.21875 0.65625 0.609375q0.25 0.375 0.25 0.875q0 0.296875 -0.125 0.609375q-0.109375 0.296875 -0.34375 0.546875q-0.234375 0.25 -0.609375 0.390625q-0.359375 0.140625 -0.859375 0.140625l-1.421875 0l0 -0.625l1.53125 0q0.296875 0 0.546875 -0.125q0.265625 -0.140625 0.421875 -0.375q0.15625 -0.25 0.15625 -0.5625q0 -0.25 -0.125 -0.484375q-0.125 -0.25 -0.375 -0.40625q-0.234375 -0.15625 -0.578125 -0.15625l-1.265625 0l0 5.078125l-0.671875 0zm1.390625 -2.625l0.734375 -0.03125l1.8125 2.625l0 0.03125l-0.796875 0l-1.75 -2.625zm5.9535675 2.75q-0.640625 0 -1.171875 -0.234375q-0.53125 -0.234375 -0.9375 -0.640625q-0.390625 -0.40625 -0.609375 -0.9375q-0.21875 -0.546875 -0.21875 -1.171875q0 -0.625 0.21875 -1.15625q0.21875 -0.546875 0.609375 -0.953125q0.40625 -0.421875 0.9375 -0.65625q0.53125 -0.234375 1.171875 -0.234375q0.625 0 1.15625 0.234375q0.546875 0.234375 0.9375 0.65625q0.40625 0.40625 0.625 0.953125q0.21875 0.53125 0.21875 1.15625q0 0.625 -0.21875 1.171875q-0.21875 0.53125 -0.625 0.9375q-0.390625 0.40625 -0.9375 0.640625q-0.53125 0.234375 -1.15625 0.234375zm0 -0.640625q0.625 0 1.125 -0.296875q0.515625 -0.296875 0.8125 -0.828125q0.3125 -0.53125 0.3125 -1.21875q0 -0.703125 -0.3125 -1.21875q-0.296875 -0.53125 -0.8125 -0.828125q-0.5 -0.296875 -1.125 -0.296875q-0.609375 0 -1.125 0.296875q-0.515625 0.296875 -0.828125 0.828125q-0.296875 0.515625 -0.296875 1.21875q0 0.6875 0.296875 1.21875q0.3125 0.53125 0.828125 0.828125q0.515625 0.296875 1.125 0.296875zm5.904419 0.640625q-0.625 0 -1.09375 -0.28125q-0.46875 -0.28125 -0.75 -0.78125q-0.265625 -0.515625 -0.265625 -1.1875l0 -3.609375l0.6875 0l0 3.640625q0 0.453125 0.15625 0.8125q0.15625 0.359375 0.46875 0.5625q0.328125 0.203125 0.796875 0.203125q0.46875 0 0.78125 -0.203125q0.328125 -0.203125 0.484375 -0.5625q0.171875 -0.359375 0.171875 -0.8125l0 -3.640625l0.671875 0l0 3.609375q0 0.671875 -0.25 1.1875q-0.25 0.5 -0.734375 0.78125q-0.46875 0.28125 -1.125 0.28125zm4.427063 -0.125l0 -5.3125l0.6875 0l0 5.3125l-0.6875 0zm-1.609375 -5.078125l0 -0.65625l3.890625 0l0 0.65625l-3.890625 0zm4.74144 5.078125l0 -5.734375l3.3125 0l0 0.65625l-2.640625 0l0 4.4375l2.640625 0l0 0.640625l-3.3125 0zm0.359375 -2.546875l0 -0.640625l2.703125 0l0 0.640625l-2.703125 0z" fill-rule="nonzero"/><path fill="#000000" fill-opacity="0.0" d="m130.47375 73.077354l38.393692 0l0 38.771652l-38.393692 0z" fill-rule="evenodd"/><path fill="#674ea7" d="m161.67061 75.797356l-10.0625 24.0l-1.3125 0l-3.5 -9.125l-9.125 -3.5l0 -1.3125l24.0 -10.0625z" fill-rule="nonzero"/><path fill="#ffffff" d="m2.0800524 2.4015749l295.18112 0l0 57.133667l-295.18112 0z" fill-rule="evenodd"/><path stroke="#b7b7b7" stroke-width="1.0" stroke-linejoin="round" stroke-linecap="butt" d="m2.0800524 2.4015749l295.18112 0l0 57.133667l-295.18112 0z" fill-rule="evenodd"/><path fill="#efefef" d="m59.675327 9.549142l43.181103 0l0 42.83853l-43.181103 0z" fill-rule="evenodd"/><path stroke="#999999" stroke-width="1.0" stroke-linejoin="round" stroke-linecap="butt" d="m59.675327 9.549142l43.181103 0l0 42.83853l-43.181103 0z" fill-rule="evenodd"/><path fill="#000000" fill-opacity="0.0" d="m59.67454 36.36072l43.181103 0l0 14.435741l-43.181103 0z" fill-rule="evenodd"/><path fill="#000000" d="m74.87735 49.00146q-0.625 0 -1.171875 -0.21875q-0.546875 -0.234375 -0.953125 -0.640625q-0.390625 -0.40625 -0.625 -0.953125q-0.21875 -0.546875 -0.21875 -1.171875q0 -0.640625 0.21875 -1.1875q0.234375 -0.546875 0.625 -0.953125q0.40625 -0.40625 0.953125 -0.625q0.546875 -0.234375 1.171875 -0.234375q0.4375 0 0.8125 0.125q0.390625 0.109375 0.703125 0.3125q0.328125 0.203125 0.578125 0.5l-0.484375 0.46875q-0.21875 -0.265625 -0.46875 -0.421875q-0.234375 -0.171875 -0.53125 -0.25q-0.28125 -0.078125 -0.609375 -0.078125q-0.609375 0 -1.140625 0.296875q-0.515625 0.28125 -0.828125 0.8125q-0.3125 0.515625 -0.3125 1.234375q0 0.703125 0.3125 1.234375q0.3125 0.53125 0.828125 0.828125q0.53125 0.28125 1.140625 0.28125q0.375 0 0.6875 -0.109375q0.328125 -0.109375 0.59375 -0.296875q0.265625 -0.1875 0.484375 -0.453125l0.5 0.484375q-0.25 0.296875 -0.609375 0.53125q-0.34375 0.21875 -0.765625 0.359375q-0.40625 0.125 -0.890625 0.125zm2.7247925 -0.125l2.171875 -5.734375l0.765625 0l2.171875 5.734375l-0.734375 0l-1.578125 -4.28125l-0.21875 -0.609375l-0.046875 0l-0.21875 0.609375l-1.578125 4.28125l-0.734375 0zm2.46875 -1.578125l0 -0.640625l1.328125 0l0.234375 0.640625l-1.5625 0zm-1.546875 0l0.234375 -0.640625l1.3125 0l0 0.640625l-1.546875 0zm4.9536743 1.578125l0 -5.734375l0.671875 0l0 5.09375l2.515625 0l0 0.640625l-3.1875 0zm4.071945 0l0 -5.734375l0.671875 0l0 5.09375l2.515625 0l0 0.640625l-3.1875 0z" fill-rule="nonzero"/><path fill="#efefef" d="m196.4706 9.549142l43.181107 0l0 42.83853l-43.181107 0z" fill-rule="evenodd"/><path stroke="#999999" stroke-width="1.0" stroke-linejoin="round" stroke-linecap="butt" d="m196.4706 9.549142l43.181107 0l0 42.83853l-43.181107 0z" fill-rule="evenodd"/><path fill="#000000" fill-opacity="0.0" d="m196.46982 36.36072l43.181107 0l0 14.435741l-43.181107 0z" fill-rule="evenodd"/><path fill="#000000" d="m208.0269 49.00146q-0.40625 0 -0.8125 -0.171875q-0.40625 -0.171875 -0.71875 -0.515625q-0.3125 -0.34375 -0.46875 -0.859375l0.65625 -0.265625q0.140625 0.5 0.5 0.84375q0.359375 0.328125 0.859375 0.328125q0.328125 0 0.59375 -0.109375q0.265625 -0.125 0.421875 -0.34375q0.171875 -0.234375 0.171875 -0.546875q0 -0.296875 -0.140625 -0.484375q-0.140625 -0.203125 -0.421875 -0.359375q-0.28125 -0.15625 -0.6875 -0.296875l-0.359375 -0.140625q-0.234375 -0.078125 -0.484375 -0.203125q-0.234375 -0.125 -0.4375 -0.296875q-0.203125 -0.1875 -0.328125 -0.4375q-0.125 -0.25 -0.125 -0.609375q0 -0.40625 0.21875 -0.75q0.234375 -0.34375 0.625 -0.546875q0.390625 -0.21875 0.90625 -0.21875q0.53125 0 0.890625 0.203125q0.375 0.1875 0.578125 0.46875q0.21875 0.265625 0.28125 0.484375l-0.625 0.265625q-0.046875 -0.15625 -0.1875 -0.328125q-0.125 -0.1875 -0.359375 -0.3125q-0.234375 -0.125 -0.578125 -0.125q-0.28125 0 -0.53125 0.109375q-0.234375 0.109375 -0.390625 0.3125q-0.140625 0.1875 -0.140625 0.4375q0 0.375 0.28125 0.578125q0.296875 0.203125 0.78125 0.375l0.375 0.125q0.265625 0.09375 0.53125 0.21875q0.265625 0.125 0.5 0.328125q0.234375 0.203125 0.375 0.5q0.140625 0.28125 0.140625 0.6875q0 0.4375 -0.171875 0.765625q-0.171875 0.3125 -0.453125 0.515625q-0.28125 0.1875 -0.609375 0.28125q-0.328125 0.09375 -0.65625 0.09375zm2.9021912 -0.125l0 -5.734375l0.671875 0l0 5.734375l-0.671875 0zm0.359375 -2.609375l0 -0.640625l3.421875 0l0 0.640625l-3.421875 0zm3.265625 2.609375l0 -5.734375l0.671875 0l0 5.734375l-0.671875 0zm1.4432983 0l2.171875 -5.734375l0.765625 0l2.171875 5.734375l-0.734375 0l-1.578125 -4.28125l-0.21875 -0.609375l-0.046875 0l-0.21875 0.609375l-1.578125 4.28125l-0.734375 0zm2.46875 -1.578125l0 -0.640625l1.328125 0l0.234375 0.640625l-1.5625 0zm-1.546875 0l0.234375 -0.640625l1.3125 0l0 0.640625l-1.546875 0zm4.9536743 1.578125l0 -5.734375l1.9375 0q0.484375 0 0.875 0.21875q0.40625 0.21875 0.65625 0.609375q0.25 0.375 0.25 0.875q0 0.296875 -0.125 0.609375q-0.109375 0.296875 -0.34375 0.546875q-0.234375 0.25 -0.609375 0.390625q-0.359375 0.140625 -0.859375 0.140625l-1.421875 0l0 -0.625l1.53125 0q0.296875 0 0.546875 -0.125q0.265625 -0.140625 0.421875 -0.375q0.15625 -0.25 0.15625 -0.5625q0 -0.25 -0.125 -0.484375q-0.125 -0.25 -0.375 -0.40625q-0.234375 -0.15625 -0.578125 -0.15625l-1.265625 0l0 5.078125l-0.671875 0zm1.390625 -2.625l0.734375 -0.03125l1.8125 2.625l0 0.03125l-0.796875 0l-1.75 -2.625zm3.2973175 2.625l0 -5.734375l3.3125 0l0 0.65625l-2.640625 0l0 4.4375l2.640625 0l0 0.640625l-3.3125 0zm0.359375 -2.546875l0 -0.640625l2.703125 0l0 0.640625l-2.703125 0z" fill-rule="nonzero"/><path fill="#efefef" d="m128.07297 9.549142l43.181107 0l0 42.83853l-43.181107 0z" fill-rule="evenodd"/><path stroke="#999999" stroke-width="1.0" stroke-linejoin="round" stroke-linecap="butt" d="m128.07297 9.549142l43.181107 0l0 42.83853l-43.181107 0z" fill-rule="evenodd"/><path fill="#000000" fill-opacity="0.0" d="m128.07217 36.36072l43.181107 0l0 14.435741l-43.181107 0z" fill-rule="evenodd"/><path fill="#000000" d="m137.69551 48.87646l0 -5.734375l1.9375 0q0.484375 0 0.875 0.21875q0.40625 0.21875 0.65625 0.609375q0.25 0.375 0.25 0.875q0 0.296875 -0.125 0.609375q-0.109375 0.296875 -0.34375 0.546875q-0.234375 0.25 -0.609375 0.390625q-0.359375 0.140625 -0.859375 0.140625l-1.421875 0l0 -0.625l1.53125 0q0.296875 0 0.546875 -0.125q0.265625 -0.140625 0.421875 -0.375q0.15625 -0.25 0.15625 -0.5625q0 -0.25 -0.125 -0.484375q-0.125 -0.25 -0.375 -0.40625q-0.234375 -0.15625 -0.578125 -0.15625l-1.265625 0l0 5.078125l-0.671875 0zm1.390625 -2.625l0.734375 -0.03125l1.8125 2.625l0 0.03125l-0.796875 0l-1.75 -2.625zm5.9535675 2.75q-0.640625 0 -1.171875 -0.234375q-0.53125 -0.234375 -0.9375 -0.640625q-0.390625 -0.40625 -0.609375 -0.9375q-0.21875 -0.546875 -0.21875 -1.171875q0 -0.625 0.21875 -1.15625q0.21875 -0.546875 0.609375 -0.953125q0.40625 -0.421875 0.9375 -0.65625q0.53125 -0.234375 1.171875 -0.234375q0.625 0 1.15625 0.234375q0.546875 0.234375 0.9375 0.65625q0.40625 0.40625 0.625 0.953125q0.21875 0.53125 0.21875 1.15625q0 0.625 -0.21875 1.171875q-0.21875 0.53125 -0.625 0.9375q-0.390625 0.40625 -0.9375 0.640625q-0.53125 0.234375 -1.15625 0.234375zm0 -0.640625q0.625 0 1.125 -0.296875q0.515625 -0.296875 0.8125 -0.828125q0.3125 -0.53125 0.3125 -1.21875q0 -0.703125 -0.3125 -1.21875q-0.296875 -0.53125 -0.8125 -0.828125q-0.5 -0.296875 -1.125 -0.296875q-0.609375 0 -1.125 0.296875q-0.515625 0.296875 -0.828125 0.828125q-0.296875 0.515625 -0.296875 1.21875q0 0.6875 0.296875 1.21875q0.3125 0.53125 0.828125 0.828125q0.515625 0.296875 1.125 0.296875zm5.904419 0.640625q-0.625 0 -1.09375 -0.28125q-0.46875 -0.28125 -0.75 -0.78125q-0.265625 -0.515625 -0.265625 -1.1875l0 -3.609375l0.6875 0l0 3.640625q0 0.453125 0.15625 0.8125q0.15625 0.359375 0.46875 0.5625q0.328125 0.203125 0.796875 0.203125q0.46875 0 0.78125 -0.203125q0.328125 -0.203125 0.484375 -0.5625q0.171875 -0.359375 0.171875 -0.8125l0 -3.640625l0.671875 0l0 3.609375q0 0.671875 -0.25 1.1875q-0.25 0.5 -0.734375 0.78125q-0.46875 0.28125 -1.125 0.28125zm4.427063 -0.125l0 -5.3125l0.6875 0l0 5.3125l-0.6875 0zm-1.609375 -5.078125l0 -0.65625l3.890625 0l0 0.65625l-3.890625 0zm4.74144 5.078125l0 -5.734375l3.3125 0l0 0.65625l-2.640625 0l0 4.4375l2.640625 0l0 0.640625l-3.3125 0zm0.359375 -2.546875l0 -0.640625l2.703125 0l0 0.640625l-2.703125 0z" fill-rule="nonzero"/><path fill="#000000" fill-opacity="0.0" d="m62.269028 11.581291l38.3937 0l0 38.771652l-38.3937 0z" fill-rule="evenodd"/><path fill="#000000" d="m92.15338 30.80129q0.5625 0 0.9375 0.375q0.375 0.375 0.375 0.9374981l0 4.625q0 1.5625 -1.3125 1.5625q-9.3125 0 -16.0 -6.687498q-6.6875 -6.6875 -6.6875 -16.0q0 -1.3125 1.5625 -1.3125l4.625 0q0.5625 0 0.9375 0.375q0.375 0.375 0.375 0.9375q0 2.4375 0.75 4.6875q0.25 0.8125 -0.3125 1.375l-2.5625 2.25q2.875 6.0 9.1875 9.062498l2.0625 -2.624998q0.375 -0.375 0.9375 -0.375q0.3125 0 0.4375 0.0625q2.25 0.75 4.6875 0.75z" fill-rule="nonzero"/><path fill="#000000" fill-opacity="0.0" d="m198.67848 11.581291l38.393692 0l0 38.771652l-38.393692 0z" fill-rule="evenodd"/><path fill="#000000" d="m225.87532 31.73879q1.625 0 2.75 1.1562481q1.125 1.15625 1.125 2.71875q0 1.625 -1.15625 2.78125q-1.15625 1.15625 -2.71875 1.15625q-1.5625 0 -2.71875 -1.15625q-1.15625 -1.15625 -1.15625 -2.78125q0 -0.625 0.0625 -0.875l-9.4375 -5.499998q-1.1875 1.0625 -2.75 1.0625q-1.625 0 -2.8125 -1.1875q-1.1875 -1.1875 -1.1875 -2.8125q0 -1.625 1.1875 -2.8125q1.1875 -1.1875 2.8125 -1.1875q1.5625 0 2.75 1.0625l9.375 -5.4375q-0.125 -0.625 -0.125 -0.9375q0 -1.625 1.1875 -2.8125q1.1875 -1.1875 2.8125 -1.1875q1.625 0 2.8125 1.1875q1.1875 1.1875 1.1875 2.8125q0 1.625 -1.1875 2.8125q-1.1875 1.1875 -2.8125 1.1875q-1.5 0 -2.75 -1.125l-9.375 5.5q0.125 0.625 0.125 0.9375q0 0.3125 -0.125 0.9375l9.5 5.499998q1.125 -0.9999981 2.625 -0.9999981z" fill-rule="nonzero"/><path fill="#000000" fill-opacity="0.0" d="m130.47375 11.581291l38.393692 0l0 38.771652l-38.393692 0z" fill-rule="evenodd"/><path fill="#000000" d="m161.67061 14.3012905l-10.0625 23.999998l-1.3125 0l-3.5 -9.124998l-9.125 -3.5l0 -1.3125l24.0 -10.0625z" fill-rule="nonzero"/></g></svg>