<?xml version="1.0" encoding="utf-8"?>
<!-- Generator: Adobe Illustrator 22.0.1, SVG Export Plug-In . SVG Version: 6.00 Build 0)  -->
<svg version="1.1" id="content" xmlns="http://www.w3.org/2000/svg" xmlns:xlink="http://www.w3.org/1999/xlink" x="0px" y="0px"
	 width="406px" height="737.85px" viewBox="0 0 406 737.85" enable-background="new 0 0 406 737.85" xml:space="preserve">
<g>
	<g opacity="0.54" enable-background="new    ">
		<path d="M35.68,641.37h52.6v10.3h-41.9v31.1h37.8v10.2h-37.8v39.4h-10.7V641.37z"/>
		<path d="M100.98,641.37h10.8v90.9h-10.8V641.37z"/>
		<path d="M133.38,727.47c-4.1-4.6-6.2-11-6.2-19.2v-40.8h10.8v39.1c0,6.2,1.4,10.7,4.2,13.6c2.8,2.9,6.6,4.3,11.3,4.3
			c3.6,0,6.9-1,9.7-2.9s5-4.5,6.6-7.6s2.3-6.4,2.3-9.9v-36.6h10.8v64.8h-10.3v-9.4h-0.5c-1.8,3.2-4.6,5.9-8.5,8.1
			c-3.9,2.2-8,3.3-12.4,3.3C143.48,734.27,137.48,732.07,133.38,727.47z"/>
		<path d="M217.18,733.07c-2.2-0.9-4.1-2-5.7-3.5c-1.7-1.6-3-3.5-3.8-5.7s-1.3-4.8-1.3-7.9v-38.7h-11.3v-9.8h11.3v-18.3h10.8v18.3
			h15.7v9.8h-15.7v36.1c0,3.6,0.7,6.3,2,8c1.6,1.9,3.9,2.9,7,2.9c2.5,0,4.8-0.7,7.1-2.2v10.5c-1.3,0.6-2.6,1-3.9,1.3
			c-1.3,0.3-3,0.4-5,0.4C221.88,734.27,219.48,733.87,217.18,733.07z"/>
		<path d="M263.08,733.07c-2.2-0.9-4.1-2-5.7-3.5c-1.7-1.6-3-3.5-3.8-5.7s-1.3-4.8-1.3-7.9v-38.7h-11.3v-9.8h11.3v-18.3h10.8v18.3
			h15.7v9.8h-15.7v36.1c0,3.6,0.7,6.3,2,8c1.6,1.9,3.9,2.9,7,2.9c2.5,0,4.8-0.7,7.1-2.2v10.5c-1.3,0.6-2.6,1-3.9,1.3
			c-1.3,0.3-3,0.4-5,0.4C267.78,734.27,265.28,733.87,263.08,733.07z"/>
		<path d="M301.38,729.87c-4.9-3-8.7-7-11.5-12.3c-2.8-5.2-4.1-11.1-4.1-17.6c0-6.3,1.3-12,3.9-17.3c2.6-5.2,6.2-9.4,11-12.6
			c4.7-3.1,10.2-4.7,16.5-4.7s11.9,1.4,16.5,4.3c4.7,2.8,8.2,6.8,10.7,11.7c2.5,5,3.7,10.7,3.7,17.1c0,1.3-0.1,2.4-0.4,3.3h-51.2
			c0.3,4.9,1.4,9.1,3.6,12.4c2.1,3.4,4.8,5.9,8.1,7.6c3.3,1.7,6.7,2.5,10.2,2.5c8.3,0,14.7-3.9,19.2-11.7l9.1,4.4
			c-2.8,5.2-6.6,9.4-11.4,12.4c-4.8,3-10.6,4.6-17.3,4.6C311.78,734.27,306.28,732.87,301.38,729.87z M336.68,693.07
			c-0.2-2.7-0.9-5.4-2.3-8.1c-1.4-2.7-3.5-5-6.4-6.9s-6.6-2.8-11-2.8c-5.1,0-9.4,1.6-12.9,4.9c-3.5,3.3-5.8,7.6-6.9,12.9
			L336.68,693.07L336.68,693.07z"/>
		<path d="M360.68,667.47h10.3v10.4h0.5c1.3-3.6,3.7-6.5,7.4-8.9c3.6-2.4,7.4-3.6,11.4-3.6c3,0,5.5,0.5,7.6,1.4v11.6
			c-2.7-1.4-5.8-2-9.1-2c-3.1,0-6,0.9-8.6,2.7s-4.7,4.2-6.3,7.2s-2.3,6.3-2.3,9.7v36.3h-10.8v-64.8H360.68z"/>
	</g>
	<g>
		<g>
			<g>
				<defs>
					<path id="SVGID_1_" d="M404.03,233.33L270.02,367.34l134.01,134.04l0,0H250.87l-57.45-57.45l0,0l-76.59-76.59l134.04-134.01
						H404.03L404.03,233.33L404.03,233.33z M250.87,3.57L1.97,252.48l76.59,76.59L404.03,3.57H250.87z"/>
				</defs>
				<clipPath id="SVGID_2_">
					<use xlink:href="#SVGID_1_"  overflow="visible"/>
				</clipPath>
				<g clip-path="url(#SVGID_2_)">
					<g>
						<polygon fill="#39CEFD" points="404.03,233.33 404.03,233.33 404.03,233.33 250.87,233.33 116.86,367.37 193.43,443.94 						
							"/>
					</g>
				</g>
			</g>
			<g>
				<defs>
					<path id="SVGID_3_" d="M404.03,233.33L270.02,367.34l134.01,134.04l0,0H250.87l-57.45-57.45l0,0l-76.59-76.59l134.04-134.01
						H404.03L404.03,233.33L404.03,233.33z M250.87,3.57L1.97,252.48l76.59,76.59L404.03,3.57H250.87z"/>
				</defs>
				<clipPath id="SVGID_4_">
					<use xlink:href="#SVGID_3_"  overflow="visible"/>
				</clipPath>
				<polygon clip-path="url(#SVGID_4_)" fill="#39CEFD" points="78.56,329.07 1.97,252.48 250.87,3.57 404.03,3.57 				"/>
			</g>
			<g>
				<defs>
					<path id="SVGID_5_" d="M404.03,233.33L270.02,367.34l134.01,134.04l0,0H250.87l-57.45-57.45l0,0l-76.59-76.59l134.04-134.01
						H404.03L404.03,233.33L404.03,233.33z M250.87,3.57L1.97,252.48l76.59,76.59L404.03,3.57H250.87z"/>
				</defs>
				<clipPath id="SVGID_6_">
					<use xlink:href="#SVGID_5_"  overflow="visible"/>
				</clipPath>
				<polygon clip-path="url(#SVGID_6_)" fill="#03569B" points="193.43,443.94 250.87,501.38 404.03,501.38 404.03,501.38 
					270.02,367.37 				"/>
			</g>
			<g>
				<defs>
					<path id="SVGID_7_" d="M404.03,233.33L270.02,367.34l134.01,134.04l0,0H250.87l-57.45-57.45l0,0l-76.59-76.59l134.04-134.01
						H404.03L404.03,233.33L404.03,233.33z M250.87,3.57L1.97,252.48l76.59,76.59L404.03,3.57H250.87z"/>
				</defs>
				<clipPath id="SVGID_8_">
					<use xlink:href="#SVGID_7_"  overflow="visible"/>
				</clipPath>
				
					<linearGradient id="SVGID_9_" gradientUnits="userSpaceOnUse" x1="7709.7266" y1="-3087.0684" x2="7937.896" y2="-2858.8984" gradientTransform="matrix(0.25 0 0 -0.25 -1711.6658 -313.0314)">
					<stop  offset="0" style="stop-color:#1A237E;stop-opacity:0.4"/>
					<stop  offset="1" style="stop-color:#1A237E;stop-opacity:0"/>
				</linearGradient>
				<polygon clip-path="url(#SVGID_8_)" fill="url(#SVGID_9_)" points="193.43,443.94 307.02,404.62 270.02,367.37 				"/>
			</g>
			<g>
				<defs>
					<path id="SVGID_10_" d="M404.03,233.33L270.02,367.34l134.01,134.04l0,0H250.87l-57.45-57.45l0,0l-76.59-76.59l134.04-134.01
						H404.03L404.03,233.33L404.03,233.33z M250.87,3.57L1.97,252.48l76.59,76.59L404.03,3.57H250.87z"/>
				</defs>
				<clipPath id="SVGID_11_">
					<use xlink:href="#SVGID_10_"  overflow="visible"/>
				</clipPath>
				<g clip-path="url(#SVGID_11_)">
					
						<rect x="139.28" y="313.2" transform="matrix(0.7071 -0.7071 0.7071 0.7071 -203.1048 244.3713)" fill="#16B9FD" width="108.3" height="108.3"/>
				</g>
			</g>
		</g>
		
			<radialGradient id="SVGID_12_" cx="6899.7866" cy="-1402.1913" r="2436.1667" gradientTransform="matrix(0.25 0 0 -0.25 -1711.6658 -313.0314)" gradientUnits="userSpaceOnUse">
			<stop  offset="0" style="stop-color:#FFFFFF;stop-opacity:0.1"/>
			<stop  offset="1" style="stop-color:#FFFFFF;stop-opacity:0"/>
		</radialGradient>
		<path fill="url(#SVGID_12_)" d="M404.03,233.33L270.02,367.34l134.01,134.04l0,0H250.87l-57.45-57.45l0,0l-76.59-76.59
			l134.04-134.01H404.03L404.03,233.33L404.03,233.33z M250.87,3.57L1.97,252.48l76.59,76.59L404.03,3.57H250.87z"/>
	</g>
</g>
</svg>
