<svg id="logo_vector" data-name="logo vector" xmlns="http://www.w3.org/2000/svg" viewBox="0 0 380 553.01"><defs><style>.cls-1,.cls-2{fill:#fff;}.cls-1{isolation:isolate;opacity:0.72;}</style></defs><polygon class="cls-1" points="190.45 379.59 190.24 379.59 88.1 277.46 146.4 218.94 306.83 379.59 190.45 379.59"/><polygon class="cls-1" points="190.24 175.11 190.24 175.11 87.89 277.24 146.4 335.54 306.83 175.11 190.24 175.11"/><polygon class="cls-1" points="190.24 0.22 190.02 0 0 189.8 58.52 248.31 306.61 0.22 190.24 0.22"/><path class="cls-2" d="M.11,451h57.7v11.29h-46v34.15H53.36v11.15H11.82v43.21H.11Z"/><path class="cls-2" d="M70,451H81.85v99.79H70Z"/><path class="cls-2" d="M102,545.46q-6.76-7.53-6.76-21.05V479.68h11.84v42.93q0,10.17,4.6,14.91t12.4,4.74a18.31,18.31,0,0,0,10.65-3.2A21.81,21.81,0,0,0,142,530.7a24,24,0,0,0,2.57-10.88V479.68h11.86v71.08h-11.3V540.44h-.56a23.41,23.41,0,0,1-9.33,8.92A27.31,27.31,0,0,1,121.56,553Q108.78,553,102,545.46Z"/><path class="cls-2" d="M191.15,551.57a18.19,18.19,0,0,1-6.2-3.83,17.33,17.33,0,0,1-4.18-6.24,23.77,23.77,0,0,1-1.4-8.66V490.41H167V479.68h12.4V459.61h11.85v20.07H208.5v10.73H191.22V530q0,6,2.22,8.83c1.77,2.1,4.33,3.14,7.67,3.14a14.45,14.45,0,0,0,7.81-2.37v11.57a18.86,18.86,0,0,1-4.25,1.39,30.56,30.56,0,0,1-5.51.42A22.44,22.44,0,0,1,191.15,551.57Z"/><path class="cls-2" d="M240.13,551.57a18.1,18.1,0,0,1-6.2-3.83,17.33,17.33,0,0,1-4.18-6.24,23.56,23.56,0,0,1-1.4-8.66V490.41H216V479.68h12.4V459.61h11.84v20.07h17.29v10.73H240.19V530c0,4,.75,6.93,2.23,8.83,1.77,2.1,4.32,3.14,7.67,3.14a14.4,14.4,0,0,0,7.8-2.37v11.57a18.78,18.78,0,0,1-4.24,1.39,30.56,30.56,0,0,1-5.51.42A22.52,22.52,0,0,1,240.13,551.57Z"/><path class="cls-2" d="M280.2,548.1a33.82,33.82,0,0,1-12.61-13.44,40.69,40.69,0,0,1-4.54-19.3,42.44,42.44,0,0,1,4.25-19,34.26,34.26,0,0,1,12.06-13.79,32.08,32.08,0,0,1,18.12-5.16,34.2,34.2,0,0,1,18.12,4.67A30.9,30.9,0,0,1,327.37,495a41.42,41.42,0,0,1,4.12,18.82,13.8,13.8,0,0,1-.42,3.62H274.91a28.06,28.06,0,0,0,3.9,13.66,22.78,22.78,0,0,0,8.85,8.37,24,24,0,0,0,11.21,2.78q13.67,0,21.05-12.81l10,4.88A35.72,35.72,0,0,1,317.47,548q-7.86,5-19,5A34.72,34.72,0,0,1,280.2,548.1Zm38.73-40.42a23,23,0,0,0-2.51-8.92,19.23,19.23,0,0,0-7-7.53,22.06,22.06,0,0,0-12.06-3.06,20,20,0,0,0-14.15,5.37,25.83,25.83,0,0,0-7.59,14.14Z"/><path class="cls-2" d="M339.16,479.68h11.29V491.1H351a19.33,19.33,0,0,1,8.08-9.75,22.69,22.69,0,0,1,12.55-3.91A20.73,20.73,0,0,1,380,479v12.68a22.2,22.2,0,0,0-10-2.23,16.56,16.56,0,0,0-9.48,2.93,21.14,21.14,0,0,0-6.9,7.9A22.65,22.65,0,0,0,351,510.94v39.82H339.17V479.68Z"/></svg>