<?xml version="1.0" encoding="utf-8"?>
<!-- Generator: Adobe Illustrator 27.7.0, SVG Export Plug-In . SVG Version: 6.00 Build 0)  -->
<svg version="1.1" id="Layer_1" xmlns="http://www.w3.org/2000/svg" xmlns:xlink="http://www.w3.org/1999/xlink" x="0px" y="0px"
	 width="448px" height="512px" viewBox="0 0 448 512" style="enable-background:new 0 0 448 512;" xml:space="preserve">
<style type="text/css">
	.st0{fill:#027DFD;}
</style>
<path class="st0" d="M220.8,123.3c1,0.5,1.8,1.7,3,1.7c1.1,0,2.8-0.4,2.9-1.5c0.2-1.4-1.9-2.3-3.2-2.9c-1.7-0.7-3.9-1-5.5-0.1
	c-0.4,0.2-0.8,0.7-0.6,1.1C217.7,122.9,219.7,122.7,220.8,123.3L220.8,123.3z M198.9,125c1.2,0,2-1.2,3-1.7c1.1-0.6,3.1-0.4,3.5-1.6
	c0.2-0.4-0.2-0.9-0.6-1.1c-1.6-0.9-3.8-0.6-5.5,0.1c-1.3,0.6-3.4,1.5-3.2,2.9C196.2,124.6,197.9,125.1,198.9,125z M420,403.8
	c-3.6-4-5.3-11.6-7.2-19.7c-1.8-8.1-3.9-16.8-10.5-22.4c-1.3-1.1-2.6-2.1-4-2.9c-1.3-0.8-2.7-1.5-4.1-2c9.2-27.3,5.6-54.5-3.7-79.1
	c-11.4-30.1-31.3-56.4-46.5-74.4c-17.1-21.5-33.7-41.9-33.4-72C311.1,85.4,315.7,0.1,234.8,0C132.4-0.2,158,103.4,156.9,135.2
	c-1.7,23.4-6.4,41.8-22.5,64.7c-18.9,22.5-45.5,58.8-58.1,96.7c-6,17.9-8.8,36.1-6.2,53.3c-6.5,5.8-11.4,14.7-16.6,20.2
	c-4.2,4.3-10.3,5.9-17,8.3s-14,6-18.5,14.5c-2.1,3.9-2.8,8.1-2.8,12.4c0,3.9,0.6,7.9,1.2,11.8c1.2,8.1,2.5,15.7,0.8,20.8
	c-5.2,14.4-5.9,24.4-2.2,31.7c3.8,7.3,11.4,10.5,20.1,12.3c17.3,3.6,40.8,2.7,59.3,12.5c19.8,10.4,39.9,14.1,55.9,10.4
	c11.6-2.6,21.1-9.6,25.9-20.2c12.5-0.1,26.3-5.4,48.3-6.6c14.9-1.2,33.6,5.3,55.1,4.1c0.6,2.3,1.4,4.6,2.5,6.7v0.1
	c8.3,16.7,23.8,24.3,40.3,23c16.6-1.3,34.1-11,48.3-27.9c13.6-16.4,36-23.2,50.9-32.2c7.4-4.5,13.4-10.1,13.9-18.3
	C435.9,425.3,431.1,416.2,420,403.8L420,403.8z M223.7,87.3c9.8-22.2,34.2-21.8,44-0.4c6.5,14.2,3.6,30.9-4.3,40.4
	c-1.6-0.8-5.9-2.6-12.6-4.9c1.1-1.2,3.1-2.7,3.9-4.6c4.8-11.8-0.2-27-9.1-27.3c-7.3-0.5-13.9,10.8-11.8,23c-4.1-2-9.4-3.5-13-4.4
	C219.8,102.2,220.5,94.5,223.7,87.3z M183,75.8c10.1,0,20.8,14.2,19.1,33.5c-3.5,1-7.1,2.5-10.2,4.6c1.2-8.9-3.3-20.1-9.6-19.6
	c-8.4,0.7-9.8,21.2-1.8,28.1c1,0.8,1.9-0.2-5.9,5.5C159,113.3,164.1,75.8,183,75.8z M169.4,136.5c6.2-4.6,13.6-10,14.1-10.5
	c4.7-4.4,13.5-14.2,27.9-14.2c7.1,0,15.6,2.3,25.9,8.9c6.3,4.1,11.3,4.4,22.6,9.3c8.4,3.5,13.7,9.7,10.5,18.2
	c-2.6,7.1-11,14.4-22.7,18.1c-11.1,3.6-19.8,16-38.2,14.9c-3.9-0.2-7-1-9.6-2.1c-8-3.5-12.2-10.4-20-15
	c-8.6-4.8-13.2-10.4-14.7-15.3C163.8,143.9,165.2,139.8,169.4,136.5L169.4,136.5z M172.7,470.5c-2.7,35.1-43.9,34.4-75.3,18
	c-29.9-15.8-68.6-6.5-76.5-21.9c-2.4-4.7-2.4-12.7,2.6-26.4V440c2.4-7.6,0.6-16-0.6-23.9c-1.2-7.8-1.8-15,0.9-20
	c3.5-6.7,8.5-9.1,14.8-11.3c10.3-3.7,11.8-3.4,19.6-9.9c5.5-5.7,9.5-12.9,14.3-18c5.1-5.5,10-8.1,17.7-6.9c8.1,1.2,15.1,6.8,21.9,16
	l19.6,35.6C141.2,421.5,174.8,450,172.7,470.5L172.7,470.5z M171.3,444.6c-4.1-6.6-9.6-13.6-14.4-19.6c7.1,0,14.2-2.2,16.7-8.9
	c2.3-6.2,0-14.9-7.4-24.9c-13.5-18.2-38.3-32.5-38.3-32.5c-13.5-8.4-21.1-18.7-24.6-29.9s-3-23.3-0.3-35.2
	c5.2-22.9,18.6-45.2,27.2-59.2c2.3-1.7,0.8,3.2-8.7,20.8c-8.5,16.1-24.4,53.3-2.6,82.4c0.6-20.7,5.5-41.8,13.8-61.5
	c12-27.4,37.3-74.9,39.3-112.7c1.1,0.8,4.6,3.2,6.2,4.1c4.6,2.7,8.1,6.7,12.6,10.3c12.4,10,28.5,9.2,42.4,1.2
	c6.2-3.5,11.2-7.5,15.9-9c9.9-3.1,17.8-8.6,22.3-15c7.7,30.4,25.7,74.3,37.2,95.7c6.1,11.4,18.3,35.5,23.6,64.6
	c3.3-0.1,7,0.4,10.9,1.4c13.8-35.7-11.7-74.2-23.3-84.9c-4.7-4.6-4.9-6.6-2.6-6.5c12.6,11.2,29.2,33.7,35.2,59
	c2.8,11.6,3.3,23.7,0.4,35.7c16.4,6.8,35.9,17.9,30.7,34.8c-2.2-0.1-3.2,0-4.2,0c3.2-10.1-3.9-17.6-22.8-26.1
	c-19.6-8.6-36-8.6-38.3,12.5c-12.1,4.2-18.3,14.7-21.4,27.3c-2.8,11.2-3.6,24.7-4.4,39.9c-0.5,7.7-3.6,18-6.8,29
	C253.5,460.3,208.9,470.3,171.3,444.6L171.3,444.6z M428.7,433.1c-0.9,16.8-41.2,19.9-63.2,46.5c-13.2,15.7-29.4,24.4-43.6,25.5
	s-26.5-4.8-33.7-19.3c-4.7-11.1-2.4-23.1,1.1-36.3c3.7-14.2,9.2-28.8,9.9-40.6c0.8-15.2,1.7-28.5,4.2-38.7
	c2.6-10.3,6.6-17.2,13.7-21.1c0.3-0.2,0.7-0.3,1-0.5c0.8,13.2,7.3,26.6,18.8,29.5c12.6,3.3,30.7-7.5,38.4-16.3
	c9-0.3,15.7-0.9,22.6,5.1c9.9,8.5,7.1,30.3,17.1,41.6C425.6,420.1,429,428,428.7,433.1L428.7,433.1z M173.3,148.7
	c2,1.9,4.7,4.5,8,7.1c6.6,5.2,15.8,10.6,27.3,10.6c11.6,0,22.5-5.9,31.8-10.8c4.9-2.6,10.9-7,14.8-10.4c3.9-3.4,5.9-6.3,3.1-6.6
	s-2.6,2.6-6,5.1c-4.4,3.2-9.7,7.4-13.9,9.8c-7.4,4.2-19.5,10.2-29.9,10.2s-18.7-4.8-24.9-9.7c-3.1-2.5-5.7-5-7.7-6.9
	c-1.5-1.4-1.9-4.6-4.3-4.9C170.2,142.1,169.8,145.9,173.3,148.7L173.3,148.7z"/>
</svg>
