<svg id="Layer_1" data-name="Layer 1" xmlns="http://www.w3.org/2000/svg" viewBox="0 0 584.87 169.99"><defs><style>.cls-1,.cls-2{fill:#fff;}.cls-1{isolation:isolate;opacity:0.72;}</style></defs><polygon class="cls-1" points="85.22 169.92 85.12 169.92 39.42 124.22 65.51 98.04 137.3 169.92 85.22 169.92"/><polygon class="cls-1" points="85.12 78.42 85.12 78.42 39.33 124.12 65.51 150.21 137.3 78.42 85.12 78.42"/><polygon class="cls-1" points="85.12 0.16 85.03 0.07 0 84.99 26.18 111.18 137.2 0.16 85.12 0.16"/><path class="cls-2" d="M207.27,68.57h57.35V79.79H218.91v33.95H260.2v11.08H218.91v42.94H207.27Z"/><path class="cls-2" d="M276.74,68.57h11.77v99.18H276.74Z"/><path class="cls-2" d="M308.55,162.48q-6.72-7.47-6.72-20.92V97.1H313.6v42.67q0,10.11,4.57,14.83t12.33,4.71a18.21,18.21,0,0,0,10.59-3.19,21.46,21.46,0,0,0,7.2-8.31A23.78,23.78,0,0,0,350.85,137V97.1h11.78v70.65H351.41V157.5h-.56a23.36,23.36,0,0,1-9.28,8.87A27.17,27.17,0,0,1,328,170Q315.27,170,308.55,162.48Z"/><path class="cls-2" d="M397.16,168.56a18.17,18.17,0,0,1-6.17-3.81,17.44,17.44,0,0,1-4.15-6.2,23.5,23.5,0,0,1-1.39-8.61V107.77H373.13V97.1h12.32V77.15h11.77V97.1H414.4v10.67H397.22v39.37c0,4,.74,6.89,2.22,8.78q2.63,3.12,7.62,3.12a14.36,14.36,0,0,0,7.76-2.36v11.5a18.27,18.27,0,0,1-4.22,1.38,29.39,29.39,0,0,1-5.48.42A22.16,22.16,0,0,1,397.16,168.56Z"/><path class="cls-2" d="M445.84,168.56a18,18,0,0,1-6.16-3.81,17.34,17.34,0,0,1-4.16-6.2,23.51,23.51,0,0,1-1.38-8.61V107.77H421.81V97.1h12.33V77.15H445.9V97.1h17.18v10.67H445.9v39.37c0,4,.75,6.89,2.22,8.78q2.64,3.12,7.62,3.12a14.34,14.34,0,0,0,7.76-2.36v11.5a18.11,18.11,0,0,1-4.22,1.38,29.32,29.32,0,0,1-5.48.42A22.24,22.24,0,0,1,445.84,168.56Z"/><path class="cls-2" d="M485.67,165.11a33.64,33.64,0,0,1-12.54-13.36,40.46,40.46,0,0,1-4.5-19.19,42.13,42.13,0,0,1,4.22-18.83,34.11,34.11,0,0,1,12-13.72,32,32,0,0,1,18-5.12,34.11,34.11,0,0,1,18,4.63,30.87,30.87,0,0,1,11.7,12.82,41.2,41.2,0,0,1,4.09,18.71,14.16,14.16,0,0,1-.41,3.6H480.41a27.91,27.91,0,0,0,3.88,13.58,22.68,22.68,0,0,0,8.79,8.31,23.88,23.88,0,0,0,11.15,2.77q13.59,0,20.92-12.74l10,4.85A35.37,35.37,0,0,1,522.72,165q-7.82,5-18.9,5A34.54,34.54,0,0,1,485.67,165.11Zm38.5-40.17a22.67,22.67,0,0,0-2.5-8.87,18.94,18.94,0,0,0-7-7.48,21.89,21.89,0,0,0-12-3,19.89,19.89,0,0,0-14.06,5.34,25.63,25.63,0,0,0-7.54,14.06Z"/><path class="cls-2" d="M544.27,97.1H555.5v11.36h.55a19.2,19.2,0,0,1,8-9.7,22.48,22.48,0,0,1,12.47-3.88,20.66,20.66,0,0,1,8.31,1.52V109a22.1,22.1,0,0,0-10-2.21,16.45,16.45,0,0,0-9.42,2.91,21.13,21.13,0,0,0-6.87,7.84,22.7,22.7,0,0,0-2.56,10.63v39.57H544.28V97.1Z"/><path class="cls-2" d="M207.45.61H223.1a13.14,13.14,0,0,1,6.18,1.52,12,12,0,0,1,4.6,4.2,11.06,11.06,0,0,1,1.7,6A9.65,9.65,0,0,1,234,17.9a10.54,10.54,0,0,1-4.36,3.65v.25A11,11,0,0,1,235,25.57,10,10,0,0,1,237,31.84a11.64,11.64,0,0,1-1.79,6.36,12.56,12.56,0,0,1-4.81,4.42A13.8,13.8,0,0,1,224,44.2h-16.5ZM223.1,19.42a7.39,7.39,0,0,0,3.87-1,7.19,7.19,0,0,0,2.58-2.62,6.66,6.66,0,0,0,.92-3.32,6.76,6.76,0,0,0-.89-3.26,7.31,7.31,0,0,0-2.49-2.64,6.82,6.82,0,0,0-3.75-1H212.63V19.42Zm1.16,19.85a7.17,7.17,0,0,0,3.92-1.1,7.57,7.57,0,0,0,2.68-2.83,7.34,7.34,0,0,0,.95-3.56,7.19,7.19,0,0,0-1-3.56,7.51,7.51,0,0,0-2.74-2.8A7.76,7.76,0,0,0,224,24.35H212.63V39.27Z"/><path class="cls-2" d="M245.41,41.89q-3-3.28-2.95-9.2V13.15h5.17V31.9q0,4.45,2,6.52a7.21,7.21,0,0,0,5.42,2.07,8.06,8.06,0,0,0,4.66-1.4,9.61,9.61,0,0,0,3.17-3.66A10.47,10.47,0,0,0,264,30.68V13.15h5.18V44.2h-4.93V39.7H264a10.18,10.18,0,0,1-4.08,3.89,11.84,11.84,0,0,1-6,1.58Q248.36,45.17,245.41,41.89Z"/><path class="cls-2" d="M276.67,6.33a3.56,3.56,0,0,1-1.09-2.62,3.53,3.53,0,0,1,1.09-2.64A3.64,3.64,0,0,1,279.29,0,3.65,3.65,0,0,1,283,3.71a3.62,3.62,0,0,1-1.07,2.62,3.55,3.55,0,0,1-2.65,1.1A3.59,3.59,0,0,1,276.67,6.33Zm.07,6.82h5.17V44.2h-5.17Z"/><path class="cls-2" d="M289.4.61h5.17V44.2H289.4Z"/><path class="cls-2" d="M310.37,44.56a8.19,8.19,0,0,1-2.71-1.68,8.64,8.64,0,0,1-2.43-6.51V17.84h-5.42V13.15h5.42V4.38h5.17v8.77H318v4.69H310.4v17.3a6.24,6.24,0,0,0,1,3.86,4.13,4.13,0,0,0,3.34,1.37,5.92,5.92,0,0,0,3.41-1v5.05a7.43,7.43,0,0,1-1.85.61,13.24,13.24,0,0,1-2.41.18A9.75,9.75,0,0,1,310.37,44.56Z"/><path class="cls-2" d="M333.72,13.15h5.36l7.36,24.54h.07l7.85-24.54h5.3l7.85,24.48h.06l7.37-24.48h5.23l-10,31.05h-5.24l-8-24.78-8,24.78h-5.17Z"/><path class="cls-2" d="M384.25,6.33a3.56,3.56,0,0,1-1.09-2.62,3.53,3.53,0,0,1,1.09-2.64A3.64,3.64,0,0,1,386.87,0a3.64,3.64,0,0,1,3.71,3.71,3.62,3.62,0,0,1-1.06,2.62,3.55,3.55,0,0,1-2.65,1.1A3.59,3.59,0,0,1,384.25,6.33Zm.06,6.82h5.18V44.2h-5.18Z"/><path class="cls-2" d="M405.1,44.56a8.15,8.15,0,0,1-2.7-1.68A8.61,8.61,0,0,1,400,36.37V17.84h-5.42V13.15H400V4.38h5.17v8.77h7.62v4.69h-7.62v17.3a6.24,6.24,0,0,0,1,3.86,4.15,4.15,0,0,0,3.35,1.37,5.94,5.94,0,0,0,3.41-1v5.05A7.64,7.64,0,0,1,411,45a13.19,13.19,0,0,1-2.4.18A9.81,9.81,0,0,1,405.1,44.56Z"/><path class="cls-2" d="M418.65.61h5.18V13.46l-.25,4.26h.25a10.14,10.14,0,0,1,4-4,12,12,0,0,1,6.06-1.58q5.67,0,8.65,3.31a12.68,12.68,0,0,1,3,8.8V44.2h-5.17V25.08c0-2.8-.72-4.87-2.14-6.21a7.73,7.73,0,0,0-5.54-2,7.48,7.48,0,0,0-4.47,1.47,10.7,10.7,0,0,0-4.41,8.58V44.2h-5.18Z"/></svg>