<?xml version="1.0" encoding="UTF-8"?><svg width="124" height="48" xmlns="http://www.w3.org/2000/svg"><path d="M32.8492887 23.06759017h-2.7529749l4.2491153-8.20704822h3.0478085l4.0543508 8.20704822h-3.0587946l-.6171325-1.47942306-4.2601015-1.1e-7-.6622711 1.47942317zm4.1823628-3.26588501l-1.3124814-2.98595539-1.3902201 2.98595539h2.7027015zm4.8178852 3.26588501v-8.20704822h2.6421585v8.20704822h-2.6421585zm4.2380098-6.52329089v-1.67468114h2.6426361v1.67468114h-2.6426361zm0 6.52329089V17.3543515h2.6426361v5.71323867h-2.6426361zm4.1250441-8.20704822h2.6420391v3.30553366c.3150147-.32292219.6666895-.56583039 1.0558603-.72764976.3886933-.16158049.8147631-.24243054 1.2773736-.24243054.9001442 0 1.6235554.28745329 2.1702337.86271814.5459617.57490658.8187037 1.33754746.8187037 2.28744509 0 .86474832-.269279 1.55752624-.8083148 2.07905044-.5392745.5214047-1.2542073.78162932-2.1471867.78162932-.4923447 0-.9389539-.08956796-1.3394691-.26930081-.3995599-.17997174-.7422786-.44401795-1.0273203-.79273579 0 .18916743-.006926.36137672-.0224499.51698605-.0143297.15572871-.0385708.2907972-.0724844.4058023h-2.6418003c.0298536-.10748154.0523034-.24219164.0686632-.40269739.0174345-.16158049.0257934-.3457321.0257934-.5532909l2e-7-7.2510598h.0003583zm5.2936312 5.37061149c0-.50432705-.1183394-.90212802-.3557348-1.1932835-.2369177-.29079721-.5589779-.43685256-.966658-.43685256-.4375336 0-.7721322.13984542-1.0031986.4202527-.2316636.2802879-.3482118.68692615-.3482118 1.22134801 0 .50432705.1175035.89663453.3503612 1.17668353.233813.27981011.5594555.41989442.9787188.41989442.4116207 0 .7385768-.14450295.981107-.43386692.2424109-.28948358.3636162-.68071622.3636162-1.17417568zm8.5137546 1.99342347c-.2513669.33020708-.5782036.57466768-.9785993.73385981-.4008734.15943091-.8860533.23932551-1.4567337.23932551-.8126137 0-1.4372692-.14438345-1.8748029-.43338925-.4372947-.28936408-.656181-.69898798-.656181-1.22911057 0-.72263395.3774683-1.2447552 1.1316883-1.56540832.7546977-.32101139 2.0177417-.48832425 3.7899678-.50325221 0-.01158415.0019106-.03236387.0057319-.0638918.0038213-.03140853.0058513-.05469611.0058513-.06938528 0-.29246911-.0886053-.5106565-.2640248-.65492056-.1764942-.14438346-.4401608-.21687377-.7926715-.21687377-.3181194 0-.5626797.0531436-.733442.15823668-.1704041.10580953-.2715479.26368793-.3053421.47447115h-2.4379602c.0115832-.63342427.3114323-1.10514868.9013383-1.41505359.5894284-.30990503 1.4887368-.46455889 2.6981638-.46455889 1.160706 0 2.0251454.18092719 2.5926017.54206502.5672174.36113784.8514232.91120421.8514232 1.64876611v2.91382335c0 .1809272.0084784.32686316.0251964.4379274.0164791.11106424.045258.21436592.0858588.31050209h-2.4485881c-.0486017-.13662089-.0835899-.27431662-.1061592-.41284842-.0214947-.1388902-.0333167-.28219881-.0333167-.43028446zm-.0550499-1.63240503c-.8548862 0-1.437747.05553207-1.7476267.16647692-.3104769.11118363-.4657154.30548626-.4657154.5833857 0 .18880915.0754698.33570057.2259316.44139071.1507007.10521247.363258.15775889.6387466.15775889.4492362 0 .7863424-.10449591 1.0108412-.31336822.2250957-.2091112.3379422-.52462911.3379422-.94655371v-.08909029h-.0001195zm4.0120782-5.73162993h2.6427556v3.30553366c.3141788-.32292219.66657-.56583039 1.0553826-.72764976.3884544-.16158049.8151213-.24243054 1.2777319-.24243054.8997859 0 1.6231971.28745329 2.1695171.86271814.5460811.57490658.8195396 1.33754746.8195396 2.28744509 0 .86474832-.2696372 1.55752624-.8089118 2.07905044-.5384386.5214047-1.2543266.78162932-2.1468284.78162932-.4928224 0-.9391926-.08956796-1.3387526-.26930081-.400157-.17997174-.7428757-.44401795-1.0275592-.79273579 0 .18916743-.0074037.36137672-.0224499.51698605-.014688.15572871-.0385708.2907972-.0721262.4058023h-2.6422779c.0290176-.10748154.0520647-.24219164.0694991-.40269739.0168373-.16158049.0245993-.3457321.0245993-.5532909l2e-7-7.2510598h-.0001194zm5.2945867 5.37061149c0-.50432705-.119056-.90212802-.3559738-1.1932835-.2373954-.29079721-.5601719-.43685256-.9673745-.43685256-.4372947 0-.7716545.13984542-1.0030792.4202527-.2317829.2802879-.3477342.68692615-.3477342 1.22134801 0 .50432705.1166677.89663453.3497642 1.17668353.2342907.27981011.5602915.41989442.9793158.41989442.4110237 0 .737741-.14450295.9800323-.43386692.243605-.28948358.3650494-.68071622.3650494-1.17417568zm8.5124409 1.99342347c-.2519639.33020708-.5778453.57466768-.9781216.73385981-.4013511.15943091-.8862923.23932551-1.4569727.23932551-.8120165 0-1.4377469-.14438345-1.8750417-.43338925-.4368171-.28936408-.6558228-.69898798-.6558228-1.22911057 0-.72263395.3774683-1.2447552 1.1319271-1.56540832.754459-.32101139 2.0178611-.48832425 3.790326-.50325221 0-.01158415.00203-.03236387.0059707-.0638918.0032241-.03140853.0044183-.05469611.0044183-.06938528 0-.29246911-.0878888-.5106565-.2636666-.65492056-.1755388-.14438346-.4402801-.21687377-.7917161-.21687377-.3190747 0-.5633962.0531436-.7335614.15823668-.1705234.10580953-.272145.26368793-.3053421.47447115h-2.4381991c.0109861-.63342427.3105963-1.10514868.9007414-1.41505359.5895479-.30990503 1.4898115-.46455889 2.6982832-.46455889 1.1610642 0 2.0251454.18092719 2.5933181.54206502.567098.36113784.851065.91120421.851065 1.64876611v2.91382335c0 .1809272.0080008.32686316.0249575.4379274.0165987.11106424.0453774.21436592.0859782.31050209h-2.4490658c-.0486016-.13662089-.0835899-.27431662-.1061592-.41284842-.0211362-.1388902-.0333164-.28219881-.0333164-.43028446zm-.0549305-1.63240503c-.8547669 0-1.4367916.05553207-1.747388.16647692-.3103575.11118363-.465596.30548626-.465596.5833857 0 .18880915.0753504.33570057.2259316.44139071.151059.10521247.3631386.15775889.6383883.15775889.4493556 0 .7868202-.10449591 1.0116771-.31336822.2246181-.2091112.3371065-.52462911.3371065-.94655371v-.08909029h-.0001195zm10.737844-.71642389v-.95813787h3.4520256v3.01867755c-.5309154.4218051-1.0769966.7393533-1.640154.95180831-.5629185.21233562-1.1410027.31874232-1.7336552.31874232-.8006722 0-1.5280241-.17113445-2.1819363-.51400041-.6541509-.34322425-1.1475704-.83895279-1.481333-1.4877828-.3335239-.64918817-.5001066-1.37337463-.5001066-2.17411177 0-.79297457.1658662-1.53399978.4980765-2.22176199.330658-.68764272.807837-1.19806044 1.430821-1.53185021.6223868-.33378978 1.3392302-.50074436 2.1500526-.50074436.589309 0 1.1220158.0958974 1.5974037.28697562.4767014.1914365.8501097.4573935 1.1207023.79930401.2707119.34119406.475985.78676452.6161772 1.33599494l-.976211.26691234c-.1221607-.41583395-.2736974-.742936-.4547293-.98106716-.1817484-.23813128-.439683-.42861233-.7773864-.57192094-.3366286-.14330861-.7093203-.21484358-1.1198664-.21484358-.4923446 0-.9174593.07523706-1.2761794.22547228-.3593173.15107117-.6486579.34859834-.8682606.59437268-.2206775.24517727-.3912009.51447808-.5131229.8082608-.2079001.50552129-.3109545 1.05367698-.3109545 1.64434746 0 .72872449.1246685 1.33886119.3744829 1.82909624.2495757.49047394.6121172.85447791 1.0902517 1.09248968.476582.23789238.9838536.35659968 1.5194262.35659968.4663125 0 .9210417-.08980673 1.365143-.27049515.4436238-.18021064.7804912-.37308027 1.009886-.57789221v-1.52432642l-2.3905531 3.5e-7v-.00011939zm4.9035051 3.19184218v-5.90873554h.9028907v.89699281c.2310664-.41834191.4437432-.69409166.6397018-.82760752.1947646-.13315759.4104266-.19979613.6448367-.19979613.3380616 0 .6824519.10652609 1.0324549.32005605l-.349525.92780418c-.2456352-.14354751-.4900761-.21484359-.7348751-.21484359-.2185279 0-.4152032.0655637-.5900256.19740766-.1736282.13172458-.2981773.31432368-.37305.54755852-.1111746.3564803-.1671799.74580213-.1671799 1.16820441v3.09283976l-1.0052285-1.2e-7v.00011951zm3.6096521-2.95430808c0-1.09296735.304984-1.90290017.913399-2.4289624.507869-.43744974 1.127151-.65587602 1.858205-.65587602.812494 0 1.476556.26583762 1.992426.79739322.514675.53155572.77261 1.26637088.77261 2.20396779 0 .75965536-.113922 1.35725245-.342242 1.79231361-.227723.43577771-.559933.77350847-.995795 1.01414759-.435503.24099741-.911608.36137673-1.426999.36137673-.827302 0-1.495544-.26476277-2.005681-.79464647-.510973-.52988371-.765923-1.29312176-.765923-2.28971405zm1.03365.00155251c0 .75666973.164552 1.32297779.494255 1.69952136.329225.37654345.74395.56487493 1.243699.56487493.496046 0 .909339-.1896451 1.237967-.56750229.329105-.37833486.493777-.95491333.493777-1.73009382 0-.73063529-.165149-1.2838068-.496882-1.66011136-.330539-.37654345-.742995-.56511383-1.234982-.56511383-.499748 0-.914474.18773431-1.243699.56212819-.329583.37439389-.494135.93998538-.494135 1.69629682zm9.705986 2.95275557v-.8740634c-.460103.66913206-1.083565 1.00411607-1.872176 1.00411607-.349526 0-.673855-.06663854-.975853-.20027379-.302237-.13327709-.5259-.30130652-.672063-.50277454-.146521-.20254288-.248859-.44963095-.308566-.74233883-.040721-.1966911-.06114-.50790975-.06114-.93473079v-3.65855064h1.005348v3.27305039c0 .52259893.020181.87442168.060782 1.05582655.062811.26285198.196555.46945533.399679.61969055.203362.14987694.455684.22499461.755295.22499461.300326 0 .58095-.07643129.844616-.23072699.262353-.15345964.44852-.36280973.557187-.6278114.109264-.26500154.164433-.64906878.164433-1.15303756v-3.16186676h1.004393v5.90873554l-.901935-2.4e-7v-.00023877zm2.643233 2.26117173v-8.16978788h.911488v.76825387c.214707-.29999278.458431-.52450972.729502-.67378961.269995-.15011583.598145-.22475571.983495-.22475571.503689 0 .949223.12957488 1.334931.38872478.384992.25938867.675646.6259006.872082 1.09786378.197034.47256035.29555.99038223.29555 1.55334649 0 .60392653-.108667 1.14790235-.325523 1.63156907-.216378.48318905-.532229.85376135-.944327 1.11147812-.413173.25771676-.847841.38621681-1.301854.38621681-.333404 0-.633014-.06998235-.898353-.21030544-.264144-.14008419-.482194-.31683152-.651882-.53071977v2.87214439h-1.005109v-.0002389zm.902174-5.18132464c0 .76049131.153805 1.32214183.461297 1.6860264.306895.36376519.677914.54576711 1.115209.54576711.443863 0 .8236-.18833147 1.140406-.56487493.317164-.37666296.474313-.96004866.474313-1.75051526 0-.75308703-.153567-1.31676773-.463327-1.69163929-.308328-.37463277-.677556-.56212819-1.106492-.56212819-.426189 0-.80318.19979613-1.130375.59819427-.326836.39887569-.491031.97832041-.491031 1.73916989zM4.04133026 30.3948425c-.14664063-.0170777-.37567703-.1467719-.53831916-.2776606-1.5472497-1.5152502.43968303-3.2581224 2.73757051-4.2688067v-2.88360904c.5373639.34262707.83112279.35862998.84700491.40711604L8.8466771 21.62901l-.5860849-1.49960572c5.1483042-1.77595253 7.2170358-2.46025144 11.4042947-3.16067254l-.7503988-.70101815 1.2225625-.69970454c2.8184139.92911779 5.4747827 1.17274256 5.0177845 3.53506642.114757-1.59610017-1.8731311-2.21591023-4.9035051-3.06250607l-.5864431.35755514 1.123807.92911779c-5.0175457.86343471-8.0967601 1.84127745-11.76241779 3.11194759l.50464439 1.30386995-1.84041158 1.80819702c.30999926.08180539 3.51913638 1.15662041 6.85795728-1.17298134 0 0 .0662749-.04896384.0662749-.06484714-.0970837-.16337188-.3262396-.34262706-.6028029-.58661011.9774052.06520542 1.6119722.92864012 1.4985287 1.8244387h-.4561622c.0324806-.29306616-.0327196-.60297119-.1300421-.81447085-2.5904521 1.88988305-5.58858435 2.16718525-8.1461976 1.27102841v2.23191304c-1.23820581.440077-3.45453329 1.8083164-3.43757653 3.1289057.08132089.6346183.40744103.8628374.70084179 1.0262092zm10.47644624-.5704878c-2.7717229 1.4014392-5.42594225 2.5258151-9.51563969 2.6884704-5.3268285-.114408-6.15771242-3.6503104-3.63317693-7.3485098 2.37896962-3.73104095 6.15854842-7.10392971 12.17069492-9.20590957 1.7429696-.61849632 4.3008217-1.31939508 6.7772334-1.35211724 3.551617-.03319982 7.0060309 1.07565093 6.7774722 4.48090357-.1305198 2.60678458-3.8932611 6.28921994-5.8813881 8.92872674-.8477214 1.1561426-.9944814 1.9063634.4552069 1.8413968 5.2636584-.3427466 10.0365244-2.1671853 14.4677465-4.0573071-2.9969382 2.0365356-18.4914078 9.7103561-18.5560109 4.4807842.0160015-.6685349.3251649-1.3684783.830048-2.1178631.4898371-.7497431 1.1737222-1.5325667 1.873967-2.3301989 1.0590845-1.2061813 3.6817785-4.08967094 4.5612641-5.8172568 1.4826467-3.2746029-1.840531-3.4378554-4.7081435-4.44734546l-1.2225626.69970454.7503988.70101815c-4.1871394.7004211-6.2559903 1.38460051-11.40429463 3.16067254l.58608489 1.49960572-1.75909046 1.7428722c-.04848212-.04860556-.30964101-.06448886-.84700491-.40711604v2.88360905c-2.29788736 1.0105649-4.2848202 2.7535565-2.7375705 4.2688067.16264213.1308887.39167852.2605829.53831915.2776606 2.81817513 1.5970556 10.49149266-.5706072 10.47644636-.5706072zm16.4064359 1.306139h.3645716c.0778581 0 .1368487-.0077626.1803154-.0213769.0458551-.0167194.0784551-.0450227.1000691-.0776255.0217334-.0367825.0349884-.0728486.0349884-.1144081 0-.0606673-.0234052-.1108253-.0662749-.1496381-.0440638-.0384546-.1123687-.0576818-.2068253-.0576818h-.4068443v.4207304zm-.1712399.7262166v-1.2914498h.5706804c.1135629 0 .2021682.0115841.2600841.0327221.0603042.0257956.1062787.0644889.1416252.1255146.0376155.0578011.0545723.1219318.0545723.1934667 0 .0918369-.0304506.1694624-.0877694.2326376-.0598265.0606674-.150223.100555-.2734585.1195434.0453774.0212575.0794105.0414401.1029351.0638918.0476462.0472918.0966061.1022268.1392369.1710149l.2243793.3523005h-.2139903l-.1680158-.2664347c-.050154-.0803723-.0936207-.1375763-.1234743-.1800913-.0329584-.040843-.0609013-.069027-.0875306-.086224-.0259128-.0162417-.050154-.0297365-.076664-.0359466-.0197034-.0017914-.0503927-.0048964-.0949342-.0048964h-.1966751v.573593h-.1710011v.0003582zm.5121674.6410674c.6775561 0 1.228175-.5512606 1.228175-1.2271998 0-.6776111-.5506189-1.2283941-1.228175-1.2283941-.6760037 0-1.2261449.5507829-1.2261449 1.2283941 0 .6759392.5501412 1.2271998 1.2261449 1.2271998zm-1.0357987-1.2270804c0-.5716822.4638047-1.0361217 1.0359181-1.0361217.5715163 0 1.0362764.46432 1.0362764 1.0361217 0 .5697714-.4647601 1.0343303-1.0362764 1.0343303-.5722328-.0001194-1.0359181-.4646783-1.0359181-1.0343303zm11.6617516-5.4470428v6.9557247c.4833887 0 1.0229021-.4381662 1.0229021-.9217135v-.3643623h.5795171c.3871408-.019705.8341082-.5636807.8341082-.8351312V29.110797c0-.2909166-.3285085-.5016997-.4844634-.6184963.1558356-.1356655.4844634-.3674673.4844634-.6587421V25.823774l-2.4365274-1e-7v-.0001194zm1.4316568 2.3011788c0 .1153635-.0964866.309905-.2131543.4256267-.0183898.0207797-.0767834.0784615-.0767834.0784615-.0094337.0077625-.0193451.0185106-.0391678.0185106h.3291055v2.0108594h-.4062471v-3.9838613h.4062471v1.4504031zm3.8667511 2.2044455v-3.1144554h-2.4557529v4.2562672h1.2186219c.1935704-.0192272.4266669-.0970916.6182073-.2320406.1177424-.0775062.2144679-.154654.3105962-.2513874.1739865-.1938249.3083275-.4258655.3083275-.6583838zm-.966419.34824h-.5218401v-2.6498965h.5218401v2.6498965zm-1.7409396-4.8538643v.8506563h2.9447541v6.1051878c.3293443 0 1.0411724-.3179064 1.0411724-.9785593v-5.1265091c.2117214 0 .3867826-.6194516.3867826-.8506563h-4.3727091v-.0001194zm8.9756487 6.1540322v-.650263h2.0650297c.2990131 0 .568531-.5095818.7275907-.7854509h-2.7927398v-.5507829h1.5528622c.4413549 0 1.1592731-.6103755 1.1795735-.9246992v-3.2428362h-6.6450418v4.1675353h2.6732063v.5507829h-2.6732063v.7854509h2.6732063v.650263h-2.7511838v.8050364h6.2316299c.2563822 0 .4913894-.5097012.6884228-.8050364l-2.9293497 1e-7zm0-3.6770614h.5307961c.0780968 0 .1576267-.0199438.2354848-.0798946.0982779-.0581594.5703221-.6487105.6297905-.7087807h-1.3960714v-.9030834h1.5138138v2.5961558h-1.5138138v-.9043971zm-1.2392806.9043971h-1.4742876v-.9043971h1.4742876v.9043971zm0-1.6930724h-1.4742876v-.9030834h1.4742876v.9030834zm6.1470846 4.3693617v-1.9598654h4.2480407c.3833195 0 1.0738919-.6360516 1.091804-.9544357v-3.1433561h-6.594052v5.9875553c0 .4781732.2875493.9747377.8256297.9747377h5.0343831c.3789013 0 .8349441-.6057179.9138769-.9047553h-5.5196824v.0001195zm4.0969817-2.8549474h-1.4012062v-2.3087025h1.4012062v2.3087025zm-4.0880256-2.3087026h1.4729741v2.3087025h-1.4729741v-2.3087025zm7.5897275 5.16365v-1.9598654h4.2486377c.3849914 0 1.0741307-.6360516 1.0950282-.9544357v-3.143356h-6.5951266v5.9875553c0 .4781733.2886241.9747377.8253908.9747377h5.0329501c.3796177 0 .8362576-.6057179.915907-.9047553l-5.5227872-1e-7v.0001195zm4.0998476-2.8549474h-1.402281v-2.3087025h1.402281v2.3087025zm-4.0874285-2.3087026h1.4707053v2.3087026h-1.4707053v-2.3087026zm9.8740016 3.7201735v-.2181874h.4946136v.1878538h2.9950275s-.0730814.4031751-.7266353.4031751H76.377077v1.0822192c0 .8208004-.5263779.9190863-.5263779.9190863v-1.9704941l-3.5677379-2e-7v-.4036527h3.5677379zm-2.1610386 1.031464h.5334232s-.555873.7149908-.7226947.9026057c-.166941.1860624-.3898874.4835473-.7117086.4835473-.1798378 0-.2394255.0042993-.2394255.0042993l1.1404056-1.3904523zm4.5695036 0h-.533662s.5556343.7149908.7223365.9026057c.166941.1860624.3895291.4835473.7113503.4835473.1798378 0 .2396644.0042993.2396644.0042993l-1.1396892-1.3904523zm.3545408-4.9677947c.6369552 0 .7583996-.4046081.7583996-.4046081h-2.9878626l.2173338-.280049h-.4913894l-.2498146.3114575h-2.0092632l.2479039-.3114575h-.5120481l-1.272836 1.6542596h.5447676v2.2629632s.0560053.0065683.1283703 0c.7907608 0 .857394-.10366.857394-.10366h4.7690448c.63397 0 .6958265-.3788125.6958265-.3788125h-2.9672039v-.6611306h2.2714969c.6252527 0 .7266353-.4010254.7266353-.4010254H76.342447v-.6525321h2.271497c.6252527 0 .7266353-.4084297.7266353-.4084297h-2.9980128v-.6269754h2.2711384zm-2.7630058 2.7500932h-2.530745v-.6304387h2.530745v.6304387zm0-1.0309864h-2.530745v-.6210041h2.530745v.6210041zm0-1.0619172h-2.530745l-.00203-.2247557.1286091-.1836739.1705234-.2177098h2.2336425v.6261394zm4.8827271-1.3111548v7.0272596h5.9121969c.4450567 0 .6142666-.422044.5922945-.8590159v-6.1682437h-6.5044914zm6.0262375 6.1167719c0 .2546117-.0560053.453333-.3900067.453333H81.17502v-6.1620336h5.5846437v5.7087006zm-3.2701578-3.1283086l-1.4945881 2.6955165s.501062.0944643.7300984-.3813205l1.2708059-2.3077472-.5063162-.0064488zm1.7632701 2.1326717c0 .1460554-.0523034.2185457-.1570297.2185457h-.499032v.3962485h.6344476c.3916786 0 .5202877-.1424727.499629-.5799224v-2.6260118c.4922253 0 .5227954-.4115347.5227954-.4115347l-.5227954.0051352v-.9057107h-.4781344v.9057107h-3.3619873v.4368526h3.3619873v2.5606869h.0001195z" fill="#6E7274" fill-rule="nonzero"/></svg>