<?xml version="1.0" encoding="UTF-8"?><svg width="124" height="48" xmlns="http://www.w3.org/2000/svg"><g fill="#6E7274" fill-rule="nonzero"><path d="M7.60877553 17.28883452c-4.13964006 0-7.5891994 1.76085248-7.5891994 7.07326408 0 4.2085995 2.31957894 6.8589227 7.69608947 6.8589227 6.3284046 0 6.7340783-4.1796562 6.7340783-4.1796562h-3.0664106s-.6574642 2.2505842-3.85472541 2.2505842c-2.60408193 0-4.47703974-1.7637506-4.47703974-4.2359036H14.7704143v-1.5513125c0-2.44573653-1.5485322-6.21589868-7.16163877-6.21589868zm-.10689025 1.98265727c2.47881637 0 4.16871522 1.52256088 4.16871522 3.80455861H3.11938993c0-2.42261972 2.20574854-3.80455861 4.38249535-3.80455861z"/><path d="M14.7682391 12.14464239V28.553149c0 .9313989-.0663018 2.2391897-.0663018 2.2391897h2.9247096s.1049778-.9392739.1049778-1.7976788c0 0 1.4449955 2.2665503 5.3740452 2.2665503 4.1374477 0 6.9478581-2.8800338 6.9478581-7.0062824 0-3.83858964-2.5814528-6.92590435-6.9411785-6.92590435-4.0825751 0-5.3511866 2.21039503-5.3511866 2.21039503v-7.3947761h-2.9929238zm7.5891988 7.21392553c2.8096489 0 4.5962771 2.09071859 4.5962771 4.89635988 0 3.0085411-2.0634959 4.9767379-4.5762344 4.9767379-2.9987333 0-4.6163177-2.3475434-4.6163177-4.9499452 0-2.4249313 1.4515058-4.92315258 4.596275-4.92315258z"/><path d="M37.3220566 17.28883452c-6.2277754 0-6.6271874 3.41897463-6.6271874 3.96531473h3.099813s.1625533-1.99605384 3.3135947-1.99605384c2.0475976 0 3.6342653.93967778 3.6342653 2.74624842v.64302397h-3.6342653c-4.8247452 0-7.3754195 1.415133-7.3754195 4.2868267 0 2.8261592 2.3567414 4.3638557 5.5415859 4.3638557 4.3404485 0 5.7386628-2.4046418 5.7386628-2.4046418 0 .9564349.0735459 1.8989303.0735459 1.8989303h2.7557032s-.1068909-1.1682525-.1068909-1.9156758v-6.4603818c0-4.23598385-3.4078194-5.12744658-6.4134077-5.12744658zm3.4204856 7.28760528v.8573654c0 1.1182381-.6882255 3.898333-4.7399095 3.898333-2.2186884 0-3.1699603-1.1101959-3.1699603-2.3979437 0-2.3426672 3.2034913-2.3577547 7.9098698-2.3577547z"/><path d="M42.0662612 17.82522788h3.4872911l5.0047473 10.05299132 4.9932968-10.05299132h3.1589856L49.6153771 35.7227232h-3.3135947l2.6245353-4.9891709z"/></g></svg>