<?xml version="1.0" encoding="UTF-8"?><svg width="124" height="48" xmlns="http://www.w3.org/2000/svg"><g fill="#6E7274" fill-rule="evenodd"><path d="M9.99470899 30.6527556C4.56507937 30.6527556 0 26.2437 0 20.82658889c0-5.41605556 4.56507937-9.82616667 9.99470899-9.82616667 3.00423281 0 5.14179891 1.17377778 6.75238091 2.7075l-1.8984127 1.89366667C13.6952381 14.52281111 12.1333333 13.6847 9.99470899 13.6847c-3.96402116 0-7.06349206 3.18777778-7.06349206 7.14188889s3.0994709 7.14188891 7.06349206 7.14188891c2.57142861 0 4.03597881-1.0302222 4.97354501-1.9654445.7682539-.7663333 1.274074-1.8693889 1.4656084-3.3788333H9.99470899v-2.68427778h9.05820111c.0962962.47922222.1449735 1.0545.1449735 1.67727778 0 2.014-.5534392 4.5061667-2.3312169 6.2795-1.7301588 1.7976111-3.9407408 2.7560556-6.87195771 2.7560556zM30.4706878 24.32565c0-2.2768333-1.6275132-3.83483333-3.5153439-3.83483333-1.8867725 0-3.5142857 1.55800003-3.5142857 3.83483333 0 2.2525556 1.6275132 3.8348333 3.5142857 3.8348333 1.8878307 0 3.5153439-1.5822777 3.5153439-3.8348333m2.736508 0c0 3.6427222-2.8074074 6.327-6.2518519 6.327-3.4433862 0-6.2507936-2.6842778-6.2507936-6.327 0-3.667 2.8074074-6.327 6.2507936-6.327 3.4444445 0 6.2518519 2.66 6.2518519 6.327M44.4853968 24.32565c0-2.2768333-1.6275132-3.83483333-3.5153439-3.83483333-1.8867725 0-3.5153439 1.55800003-3.5153439 3.83483333 0 2.2525556 1.6285714 3.8348333 3.5153439 3.8348333 1.8878307 0 3.5153439-1.5822777 3.5153439-3.8348333m2.736508 0c0 3.6427222-2.8074074 6.327-6.2518519 6.327-3.4444444 0-6.2507936-2.6842778-6.2507936-6.327 0-3.667 2.8063492-6.327 6.2507936-6.327 3.4444445 0 6.2518519 2.66 6.2518519 6.327M58.4352381 24.3495056c0-2.2282778-1.4899471-3.85911116-3.3873016-3.85911116-1.9216931 0-3.5322751 1.63083336-3.5322751 3.85911116 0 2.2050555 1.610582 3.8105555 3.5322751 3.8105555 1.8973545 0 3.3873016-1.6055 3.3873016-3.8105555zm2.4507936-5.96811116V29.7423389c0 4.6729444-2.7629629 6.5908889-6.0306878 6.5908889-3.0751323 0-4.9248677-2.0615-5.6222222-3.7387778l2.426455-1.007c.4328043 1.0302222 1.4899471 2.2525556 3.1957672 2.2525556 2.0899471 0 3.3883598-1.2930556 3.3883598-3.7145v-.9109445h-.0973545c-.6243386.7673889-1.8253968 1.4376667-3.3386243 1.4376667-3.1714286 0-6.0783069-2.755-6.0783069-6.3027222 0-3.57094449 2.9068783-6.35127782 6.0783069-6.35127782 1.5132275 0 2.7142857.67133333 3.3386243 1.41444444h.0973545v-1.03127778h2.642328zM62.9830688 30.2691667h2.7873016V11.67133333h-2.7873016zM70.0715344 24.1339611l5.6708995-2.3486111c-.3132276-.79061111-1.2497355-1.34266667-2.3544974-1.34266667-1.4179894 0-3.3873016 1.24661107-3.3164021 3.69127777m6.6550264 2.2768333l2.162963 1.4376667c-.6962963 1.0312778-2.378836 2.8046111-5.2857143 2.8046111-3.6031746 0-6.2063492-2.7803333-6.2063492-6.327 0-3.76305553 2.626455-6.32805553 5.8941799-6.32805553 3.2910053 0 4.9015873 2.6125 5.4296296 4.02694443l.2878307.7188333-8.4814815 3.4991667c.6497355 1.2698333 1.6582011 1.9168889 3.0761905 1.9168889 1.4169312 0 2.4021164-.6945556 3.1227513-1.7490556"/></g></svg>