<?xml version="1.0" encoding="UTF-8"?><svg width="124" height="48" xmlns="http://www.w3.org/2000/svg"><g fill="#6E7274" fill-rule="nonzero"><path d="M51.29391 31.620952c3.3421312 0 5.5685357-2.1648713 5.5685357-5.81840686v-9.34578447h-3.6551404v9.19944119c0 1.70060984-.6108729 2.54334524-1.8932011 2.54334524-1.2368915 0-1.7669878-.8629207-1.7669878-2.54334524v-9.19944119h-3.6753345v9.34578447c.0050485 3.73427676 2.0396087 5.81840686 5.4221281 5.81840686zM66.6566065 17.2742645c-1.0097073-.7115311-2.2062105-.81750383-3.7813538-.81750383h-4.9576628V31.3888213h3.6551404v-4.8091429h1.0500955c1.5549493 0 2.7312583-.1059727 3.6803831-.67116055 1.4893183-.90329126 2.3728122-2.49792835 2.3728122-4.43066887 0-1.87218469-.6916495-3.28010794-2.0194146-4.20358448zm-4.3669841 6.07072284h-.6714553v-3.54756289h.9642705c1.6205802 0 2.3980548.50463199 2.3980548 1.74098037-.0050486 1.34232109-.8834939 1.80658252-2.69087 1.80658252zM88.8903611 23.07248607l5.5685357 8.31633523h3.2108692V16.45676067h-3.6500919v8.29614993l-5.4877591-8.29614993h-3.2966943V31.3888213h3.6551404zM42.6154758 18.3895012c-1.4489299-1.42810854-3.3370826-2.2052418-5.336303-2.2052418-2.1203853 0-3.9731982.7367627-5.4423223 2.18505652-1.4691241 1.44829381-2.2718414 3.34066377-2.2718414 5.3995623 0 2.20524179.7168922 4.05219488 2.1203853 5.54590558 1.4691241 1.5542665 3.3623253 2.3515851 5.5685357 2.3515851 2.079997 0 4.0539748-.8175039 5.5029048-2.3313998 1.4085416-1.4482938 2.1658459-3.36084909 2.1658459-5.50048873.0050247-2.04375956-.792644-3.9563148-2.307205-5.44497917zm-5.3564971 9.5779152c-2.0598029 0-3.9277614-1.8065826-3.9277614-4.15816763 0-2.18505651 1.7417451-3.92603688 3.9731982-3.92603688 2.1001912 0 3.8469848 1.74098037 3.8469848 3.92603688-.0050486 2.43232623-1.7467936 4.15816763-3.8924216 4.15816763zM82.2060988 18.3895012c-1.44893-1.42810854-3.3421312-2.2052418-5.3363031-2.2052418-2.1254338 0-3.9731982.7367627-5.4423223 2.18505652-1.4691241 1.44829381-2.2718414 3.34066377-2.2718414 5.3995623 0 2.20524179.7168922 4.05219488 2.1203853 5.54590558 1.4741727 1.5542665 3.3623253 2.3515851 5.5685358 2.3515851 2.079997 0 4.0539747-.8175039 5.5029047-2.3313998 1.4085417-1.4482938 2.165846-3.36084909 2.165846-5.50048873.0050247-2.04375956-.7926441-3.9563148-2.307205-5.44497917zm-5.3564972 9.5779152c-2.0598029 0-3.9277614-1.8065826-3.9277614-4.15816763 0-2.18505651 1.7467936-3.92603688 3.9731982-3.92603688 2.1001912 0 3.8469848 1.74098037 3.8469848 3.92603688-.0050485 2.43232623-1.7518421 4.15816763-3.8924216 4.15816763zM25.6170536 26.2617602c2.1203853-.59041938 3.3825194-2.39195559 3.3825194-4.80914282 0-1.84695309-.6916495-3.25487634-2.0194146-4.17835288-1.0097073-.7115311-2.2062104-.81750383-3.7813538-.81750383h-4.9576628V31.3888213h3.6551404v-4.8091429l2.8574716 4.8091429h4.5184402l-3.6551404-5.1270611zm-3.0038792-2.91677286h-.7118437v-3.54756289h1.0097073c1.6155317 0 2.3930063.50463199 2.3930063 1.74098037 0 1.34232109-.8834939 1.80658252-2.6908699 1.80658252zM4.12543385 29.3097375c1.46912411 1.5542665 3.34213114 2.3717703 5.54834157 2.3717703 2.54446238 0 4.93746868-1.26158 6.36620448-3.3406638.8632997-1.2615799 1.2823283-2.68968846 1.2823283-4.37011299 0-.31287183-.0201942-.65097527-.0403883-.9890787H8.7700874v2.98237506h4.2660133c-.7370863 1.30195053-1.97397775 2.01852793-3.36232528 2.01852793-2.05980287 0-3.90756722-1.8267678-3.90756722-4.20358445 0-2.14468595 1.72155093-3.92603688 3.90756722-3.92603688 1.176309 0 2.14057946.48444671 3.06951018 1.44829381h4.159994c-1.1965031-3.1943205-3.9933923-5.1472463-7.18406735-5.1472463-2.12038531 0-3.96814966.75694798-5.44232231 2.2052418-1.4691241 1.44829381-2.26681953 3.34066377-2.26681953 5.3995623-.00502187 2.21028811.70682177 4.05724122 2.11536344 5.55095192z"/></g></svg>