<?xml version="1.0" encoding="UTF-8"?><svg width="124" height="48" xmlns="http://www.w3.org/2000/svg"><g fill="#6E7274" fill-rule="nonzero"><path d="M76.6664289 21.2846836h-3.565504l1.4021579 2.04451054h1.8073821l-1.5188578 8.79556776h3.1655577l1.5223764-8.79556776h3.9490302l-6.2343541-5.09816286-.5277884 3.05365232zM14.7786622 16.291667H.39290916L0 18.5948707h5.5857608L3.24531236 32.1250003h3.16673053l2.34044844-13.5301296h5.63326177l.3929091-2.3032037z"/><path d="M18.1475365 25.40917303h-5.5250516c.3318562-1.09199452 1.405093-2.60141274 3.3597492-2.60141274 2.1264682 0 2.351236 1.61274674 2.1653024 2.60141274zm-1.6463359-4.44371316c-4.0387597 0-6.62358952 2.53624532-7.13667205 5.48228213-.56898029 3.2718739 1.44569245 5.6666296 5.52093275 5.6666296 1.82109 0 3.5250889-.3416886 4.9089996-1.1096073l.4301184-2.439962c-1.3521372.9663565-3.0726112 1.5070699-4.5312483 1.5070699-2.0317362 0-3.6468871-.8442409-3.3926994-2.7804764h8.3952541c.1012043-.2295537.2224142-.6323.3100854-1.13485234.4065826-2.33722051-.4242345-5.19108359-4.5047705-5.19108359zm14.0307502.00070452c-1.9828992 0-3.4680142.82017007-4.1682072 1.64914655h-.074138l-2.7966529-1.64914655c-.1029695.92525986-.2406545 2.18164065-.4554196 3.41512477l-1.3050654 7.50129774h3.1761692l1.1050103-6.28190387c.0529558-.30822426.1576905-.63523552.2947871-.85715698.4742483-.82427973 1.4704051-1.58339204 2.7325175-1.58339204 1.7340072 0 2.2059019 1.16714252 1.9393578 2.69828321l-1.0620573 6.02416968h3.177346l1.1185435-6.34120035c.587809-3.37637658-1.4933526-4.57522216-3.682191-4.57522216zm38.1123777 0c-1.9834876 0-3.4680142.82017007-4.1682071 1.64914655h-.0741381l-2.7966528-1.64914655c-.1029696.92525986-.2406546 2.18164065-.456008 3.41512477l-1.3044771 7.50129774h3.1755808l1.1055987-6.28190387c.0523674-.30822426.1576905-.63523552.2936103-.85715698.4754251-.82427973 1.4709935-1.58339204 2.7325175-1.58339204 1.7357724 0 2.2070787 1.16714252 1.9405347 2.69828321l-1.0614689 6.02416968h3.1767575l1.1179551-6.34120035c.5872206-3.37637658-1.4927642-4.57522216-3.6816026-4.57522216zM56.259919 25.40917303h-5.5250516c.3318561-1.09199452 1.405093-2.60141274 3.3585723-2.60141274 2.127645 0 2.3524128 1.61274674 2.1664793 2.60141274zm-1.6469244-4.44371316c-4.0381713 0-6.6230011 2.53624532-7.1360836 5.48228213-.5689803 3.2718739 1.4456924 5.6666296 5.5209328 5.6666296 1.8205015 0 3.5250888-.3416886 4.9089995-1.1096073l.4301185-2.439962c-1.3521372.9663565-3.0726112 1.5070699-4.5318368 1.5070699-2.0305594 0-3.6445335-.8442409-3.392111-2.7804764h8.3970193c.0994391-.2295537.2212374-.6323.3100854-1.13485234.4048174-2.33722051-.4265881-5.19108359-4.5071241-5.19108359zM35.5473279 26.4007181c-.5760411 3.3141447 1.7493054 5.7124229 5.6850956 5.7124229 1.5651371 0 3.4338873-.4485396 4.1417293-.7109706l.513671-2.8538631c-1.1038336 1.1847554-2.6001281 1.4307477-3.661597 1.4307477-2.1623605 0-3.7992821-1.2563808-3.4185889-3.4450666.3306793-1.95737078 2.1882499-3.46150515 4.6100936-3.46150515.986154 0 2.3241697.32935963 3.1679316 1.43720568l.4924886-2.90259187c-.6831294-.26184384-1.7769601-.63523552-3.3956414-.63523552-4.4165109 0-7.5785585 2.23271782-8.1351824 5.42885656zm61.9264727-2.92484504c-.3006711-.33523057-.6184057-.88298911-.8131652-1.27047103h-.6548863c-.3542153.44090746-.8849497.93524046-1.3444881 1.27047103h2.8125396zm-.6542979 1.32389658h-3.8740085l1.1673804.52955863-.2124114 1.05911723h2.5654126l.3536269-1.58867586zm1.8399186-.24657941l-.4065826 1.83525527h.8667094c.5836902 0 1.0085129.1238768.9020129.8477635-.1947592 1.3056967-.5477977 3.1239262-.8314052 4.6603508h-4.7060024l-.3889307-1.3943479h3.4674259c.1594557-.7420865.3542152-1.6421014.4601267-2.3830138.0353039-.2477536-.0706076-.3364047-.3189113-.3364047h-5.8733829l.5307345-2.84212125c-.424823.19432806-1.0614689.40685602-1.6810514.52955863l.3718672-1.71137849c1.0973611-.26477932 2.2111974-.79551213 2.9013875-1.55345026h-2.6183684l.3006711-1.34209648h3.2379509c.1765192-.24657941.318323-.56478426.389519-.79433795h-3.5033181l.2653673-1.39434783h1.2562284l-.4601268-2.06598316h1.7869629l.424823 2.06598316h.6184056c.1947596-.68866105.3365633-1.6068758.3542153-2.3659881h1.8222667c-.0353038.7591123-.1412154 1.65912714-.318323 2.3659881h.7249056c.2836076-.63523551.5660383-1.39434783.7961017-2.06598316h1.8222669c-.247127.6364097-.566038 1.41254774-.8667095 2.06598316h1.2738805l-.335975 1.39434783h-3.8034009c-.0711961.22955369-.2129998.56478426-.3365633.79433795h4.6706982l-.318323 1.34209648h-2.7242796c.5831018.8647892 1.9811336 1.51822463 3.0602546 1.74660412l-.601342 1.51822463c-.743146-.15792824-1.5568994-.51135872-2.2117857-.91704055zm-1.9817224 5.26036067h-5.9975347l-.2471269-1.3591222h6.5459211v.0170022l-.3012595 1.3420965v.0000235zm-7.0590036-11.5980385h-.8837729c-.1423922.84776348-.2836076 1.72957841-.4601268 2.64779315h1.2026843l.4424749-2.31256257c.0529557-.26477932-.0529558-.33523058-.3012595-.33523058zm-.3712788 4.04214098h-1.2209246c-.1765192.91821474-.3712787 1.87165511-.5660383 2.82509548h1.2744688l.5124941-2.82509548zm2.4589128-4.53647398c-.8667094 4.74900194-1.6445708 9.4445783-2.5295205 14.1753804h-1.7869629c.3542153-1.783004.7607979-3.6716848 1.0614689-5.4194631h-1.2732919c-.3895191 1.8352553-.7961017 3.6716848-1.1856208 5.4194631h-1.7869629c1.5033554-4.7842276 2.2470897-9.70935768 3.0955587-15.14584649h3.3438625c.8672977 0 1.2209246.14090252 1.0614689.97046609zm24.5640617-.9533793h-8.261688l.353038 1.57047597h6.175231c.406583 0 .601342.05342554.512494.51253291-.230063 1.27047103-.47719 2.55914198-.725494 3.81258729h-2.688976l.460127-2.68301878-1.874634-1.09434288-.69019 3.77736166h-1.999963l-.265367 1.57165017h1.964659c-.40776 2.54211626-.90319 5.13648386-1.415685 7.67860016h2.140002c.49543-2.559142.990861-5.1194582 1.415684-7.67860016h2.671913c-.443064 2.55914196-.938494 5.18990936-1.433925 7.67860016h3.786926l.653709-1.5886759h-2.015849c.796101-4.04214101 1.627507-8.26158432 2.334761-12.33895092.159455-.88298912-.017087-1.21821969-1.096773-1.21821969zm-9.07603 3.24780302c-.265367-1.2352454-.601342-2.52391634-.88495-3.72393612h-1.998786c.265368 1.2170455.548975 2.52391635.779038 3.72393612h2.104698zm-4.370028.82956358h3.715142c-.371279 2.471665-.796102 4.97855562-1.273292 7.4854463.707253-.5295587 1.450988-1.09493 2.122938-1.6773271l-.38952 2.2773369c-1.256228 1.0591173-2.989647 2.2943627-4.58185 3.1943775.69019-3.1943775 1.326836-6.5842572 1.786963-9.70818344h-1.662811l.28243-1.57165016z"/></g></svg>