<?xml version="1.0" encoding="UTF-8"?><svg width="319" height="161" xmlns="http://www.w3.org/2000/svg" xmlns:xlink="http://www.w3.org/1999/xlink"><defs><path id="a" d="M0 .87967616h319V160.601898H0z"/></defs><g fill="none" fill-rule="evenodd"><mask id="b" fill="#fff"><use xlink:href="#a"/></mask><g mask="url(#b)"><path stroke="#AECBFA" stroke-width="2" stroke-linecap="square" d="M146.92529124 85.19920317l176.4302508-73.16807742"/><path d="M94.22431906 52.73985659l72.34062117 24.94050792c1.56474553.54195055 2.39686873 2.24805645 1.86057686 3.81475062l-.94990473 2.76222735c-.53659118 1.56755884-2.24352054 2.40090911-3.8103175 1.86210193-.00073884-.0002544-.00147776-.00050883-.00145293-.00297829L91.32322112 61.17595726c-1.56474585-.5419496-2.39686905-2.2480555-1.86057718-3.81474967l.94990475-2.76222734c.53659116-1.56755885 2.24352055-2.4009091 3.81031754-1.86210192.00073916.00025346.001478.00050786.00145283.00297826z" fill="#01579B"/></g><path d="M1 1.87967616V159.601898h317V1.87967616H1z" stroke="#01579B" stroke-width="2" mask="url(#b)"/></g></svg>