<svg xmlns="http://www.w3.org/2000/svg">
    <symbol id="youtube" viewBox="0 0 192 192" fill="currentColor">
        <path d="M78 69.831v52.338L124 96Zm102.322 68.806c-2.024 7.622-7.988 13.624-15.56 15.661C151.037 158 96 158 96 158s-55.037 0-68.762-3.702c-7.572-2.037-13.536-8.039-15.56-15.66C8 124.822 8 96 8 96s0-28.822 3.678-42.637c2.024-7.622 7.988-13.624 15.56-15.662 13.725-3.7 68.762-3.7 68.762-3.7s55.037 0 68.762 3.7c7.572 2.038 13.536 8.04 15.56 15.662C184 67.178 184 96 184 96s0 28.823-3.678 42.637"/>
    </symbol>
</svg>
